<svg version="1.2" baseProfile="tiny-ps" xmlns="http://www.w3.org/2000/svg" viewBox="0 0 277 477" width="277" height="477">
	<title>Card Back</title>
 <defs>
    <filter id="f1" x="0" y="0">
      <feGaussianBlur in="SourceGraphic" stdDeviation="25" />
    </filter>
  </defs>
	<style>
		tspan { white-space:pre }
		.s0 { fill: #1b1d21 } 
		.s1 { opacity:.5;fill: #383d46;transform:scale(1.5);transform-origin:center center; } 
		.s2 { fill: none;stroke: #bbad6e;stroke-linecap:round;stroke-width: 7.1 } 
		.s3 { fill: #bbad6e } 
	</style>
	<path id="back" class="s0" d="m8 0h261c4.42 0 8 3.58 8 8v461c0 4.42-3.58 8-8 8h-261c-4.42 0-8-3.58-8-8v-461c0-4.42 3.58-8 8-8z" />
	<path id="doblur" class="s1" filter="url(#f1)" d="m139 168c34.24 0 62 36.76 62 71c0 34.24-27.76 70-62 70c-34.24 0-62-35.76-62-70c0-34.24 27.76-71 62-71z" />
	<path id="frame" class="s2" d="m8 0h261c4.42 0 8 3.58 8 8v461c0 4.42-3.58 8-8 8h-261c-4.42 0-8-3.58-8-8v-461c0-4.42 3.58-8 8-8z" />
	<path id="in" class="s3" d="m136.68 77.16c-2.46 0-4.75 1-6.9 2.99c-2.15 2-3.22 4.52-3.22 7.58c0 5.21 2.83 10.65 8.5 16.32c5.67 5.67 13.25 11.57 22.75 17.7c-0.62 0.31-3.07 1.92-7.35 4.83c-4.3 2.92-8.12 5.9-11.49 8.96c-3.07 2.76-6.36 5.98-9.88 9.65c-3.53 3.68-5.29 8.73-5.29 15.17c0 7.97 2.68 13.56 8.04 16.78c5.36 3.22 10.8 5.44 16.32 6.67c9.19 1.84 17.08 6.9 23.67 15.17c6.59 8.27 10.8 17.93 12.64 28.96c1.53 0.92 2.99 2.15 4.37 3.68c1.38 1.54 2.53 3.07 3.45 4.6c2.76 4.91 5.82 6.74 9.19 5.52c-0.62 8.89-2.38 17.17-5.29 24.82c-2.92 7.66-6.74 14.48-11.49 20.46c-4.75 5.98-10.42 10.96-17.01 14.94c-6.59 3.99-13.56 6.44-20.92 7.35c0.61 7.05-1.61 13.1-6.67 18.16c-5.06 5.06-9.73 9.12-14.02 12.18c-5.21 3.38-9.12 5.9-11.72 7.58c-2.61 1.69-5.14 3.76-7.58 6.21c0-1.84-0.39-3.52-1.15-5.06c-0.77-1.53-1.92-3.52-3.45-5.98c-1.54-1.53-2.76-3.22-3.68-5.06c-0.92-1.84-1.38-3.68-1.38-5.52c0-3.06 0.61-5.21 1.84-6.44c1.22-1.22 2.91-2.3 5.06-3.22c3.37-1.53 5.06-3.22 5.06-5.06c0-0.61-0.46-1.38-1.38-2.3c-0.62-0.3-1.08-0.46-1.38-0.46c-1.54 0-2.3 0.46-2.3 1.38c0 1.54 0.46 2.84 1.38 3.91c0.92 1.08 1.38 2.84 1.38 5.29c0 4.91-1.92 7.81-5.75 8.73c-3.84 0.92-8.66 1.38-14.48 1.38c-3.38 0-6.74 0.16-10.11 0.46c-3.38 0.31-6.28 0.92-8.73 1.84c0.61-0.92 1.07-3.37 1.38-7.35c0.3-3.98 0.61-8.27 0.92-12.87c0.61-7.97 2.22-12.94 4.83-14.94c2.6-1.99 6.51-2.99 11.72-2.99c2.45 0 4.14-0.46 5.06-1.38c0.92-0.92 1.38-1.84 1.38-2.76c0-2.14-1.23-3.22-3.68-3.22c-1.84 0-2.92 0.92-3.22 2.76c-0.31 1.84-0.46 3.53-0.46 5.06c-0.31 2.46-1.31 4.6-2.99 6.44c-1.69 1.84-3.76 2.76-6.21 2.76c-1.54 0-3.68-0.23-6.44-0.69c-2.76-0.46-4.91-0.99-6.44-1.61c-1.54-0.61-3.53-1.22-5.98-1.84c-2.46-0.61-5.37-0.92-8.73-0.92c-3.07 0-5.83 1.61-8.27 4.83c-2.46 3.22-3.68 6.51-3.68 9.88c0 3.99 0.92 7.51 2.76 10.57c1.84 3.07 4.29 5.6 7.35 7.58c3.06 2 6.28 3.45 9.65 4.37c3.37 0.92 6.74 1.38 10.11 1.38c2.14 0 4.06-0.07 5.75-0.23c1.68-0.15 3.29-0.38 4.83-0.69c1.53-0.3 2.91-0.61 4.14-0.92v21.6h20.69c-1.84 5.52-1.08 11.03 2.3 16.55c3.37 5.52 8.58 8.27 15.63 8.27c6.13 0 12.1-1.84 17.93-5.52c5.82-3.68 11.79-7.51 17.93-11.49c-0.62-0.3-1.69-1.07-3.22-2.3c-1.54-1.22-3.45-2.68-5.75-4.37c-2.3-1.68-4.75-3.52-7.35-5.52c-2.61-1.99-4.98-3.75-7.13-5.29c-4.3-3.37-8.66-7.28-13.1-11.72c-4.45-4.44-6.67-8.65-6.67-12.64c0-3.98 1.84-5.98 5.52-5.98c0.61 0 1.38 0.31 2.3 0.92c0.92 0.62 1.38 1.69 1.38 3.22c0 2.46-0.92 4.68-2.76 6.67c-1.84 2-4.14 4.07-6.9 6.21c-3.07 2.15-7.13 4.07-12.18 5.75c-5.06 1.69-8.96 3.76-11.72 6.21c0-1.22-0.31-3.14-0.92-5.75c-0.62-2.6-1.23-5.29-1.84-8.04c-0.62-2.76-1.15-5.44-1.61-8.04c-0.46-2.6-0.69-4.67-0.69-6.21c0-4.29 0.92-7.58 2.76-9.88c1.84-2.3 3.83-3.45 5.98-3.45c3.06 0 4.6 1.84 4.6 5.52c0 2.15-1.15 4.07-3.45 5.75c-2.3 1.69-4.98 2.53-8.04 2.53c-3.07 0-6.36-0.38-9.88-1.15c-3.53-0.76-6.21-1.15-8.04-1.15c-1.84 0-4.22 0.23-7.13 0.69c-2.92 0.46-5.44 1-7.58 1.61c1.84-1.53 3.45-4.67 4.83-9.42c1.38-4.75 2.68-9.57 3.91-14.48c1.22-4.9 2.53-8.88 3.91-11.95c1.38-3.06 3.75-4.6 7.13-4.6c3.68 0 5.52 2 5.52 5.98c0 2.46-1.46 4.3-4.37 5.52c-2.92 1.23-5.75 1.84-8.5 1.84c-4.3 0-9.19-0.92-14.71-2.76c-2.46-0.92-4.45-1.76-5.98-2.53c-1.54-0.76-3.07-1.38-4.6-1.84c-1.54-0.46-3.38-0.69-5.52-0.69c-2.15 0-4.91 0.31-8.27 0.92c2.45-1.22 4.9-3.83 7.35-7.81c2.45-3.98 4.75-7.66 6.9-11.03c2.45-4.9 4.83-8.81 7.13-11.72c2.3-2.91 5.29-4.37 8.96-4.37c2.45 0 4.29 0.69 5.52 2.07c1.22 1.38 1.84 2.99 1.84 4.83c0 1.84-0.69 3.22-2.07 4.14c-1.38 0.92-2.99 1.38-4.83 1.38c-3.38 0-7.51-1.22-12.41-3.68c-4.91-2.45-9.58-5.98-14.02-10.57c-4.45-4.6-8.2-10.26-11.26-17.01c-3.07-6.74-4.6-14.4-4.6-22.98c0-4.29 0.61-9.04 1.84-14.25c1.22-5.21 2.99-10.03 5.29-14.48c2.3-4.44 4.98-8.2 8.04-11.26c3.06-3.06 6.44-4.6 10.11-4.6c8.58 0 12.87 6.9 12.87 20.69c0 13.49 1.99 20.23 5.98 20.23c2.14 0 3.98-0.61 5.52-1.84c1.53-1.22 3.37-1.84 5.52-1.84c1.53 0 2.68 0.62 3.45 1.84c0.76 1.23 1.15 2.3 1.15 3.22c0 3.07-1.54 4.6-4.6 4.6c-1.54 0-2.76-0.69-3.68-2.07c-0.92-1.38-1.69-2.83-2.3-4.37c-1.23-3.06-2.92-4.6-5.06-4.6c-1.54 0-3.22 0.46-5.06 1.38c-1.84 0.92-3.53 1.84-5.06 2.76c-1.54 0.92-4.3 2.07-8.27 3.45c-3.99 1.38-7.97 2.69-11.95 3.91c0.61 1.23 1.76 2.76 3.45 4.6c1.68 1.84 3.29 4.75 4.83 8.73c2.76 6.13 5.52 10.27 8.27 12.41l-0.92 1.38c-2.76-2.14-5.52-6.13-8.27-11.95c-3.99-8.58-7.81-14.09-11.49-16.55c3.98-1.53 7.89-2.99 11.72-4.37c3.83-1.38 6.51-2.53 8.04-3.45c1.53-0.92 3.91-1.99 7.13-3.22c3.22-1.22 5.59-1.84 7.13-1.84c3.06 0 5.36 2 6.9 5.98c0.61 1.54 1.15 2.99 1.61 4.37c0.46 1.38 1.45 2.07 2.99 2.07c1.53 0 2.45-0.38 2.76-1.15c0.3-0.76 0.46-1.3 0.46-1.61c0-2.14-0.77-3.22-2.3-3.22c-1.23 0-2.15 0.16-2.76 0.46c-0.62 0.31-1.23 0.62-1.84 0.92c-1.54 1.54-3.53 2.3-5.98 2.3c-3.38 0-5.67-1.99-6.9-5.98c-1.23-3.98-1.84-9.04-1.84-15.17c0-5.52-0.62-10.26-1.84-14.25c-1.23-3.98-3.99-5.98-8.27-5.98c-3.68 0-7.05 1.46-10.11 4.37c-3.07 2.92-5.67 6.51-7.81 10.8c-2.15 4.3-3.84 8.89-5.06 13.79c-1.23 4.91-1.84 9.5-1.84 13.79c0 8.58 1.53 16.17 4.6 22.75c3.06 6.59 6.74 12.11 11.03 16.55c4.29 4.45 8.73 7.81 13.33 10.11c4.6 2.3 8.58 3.45 11.95 3.45c1.84 0 3.14-0.46 3.91-1.38c0.76-0.92 1.15-1.84 1.15-2.76c0-2.76-1.69-4.14-5.06-4.14c-3.38 0-5.83 1.46-7.35 4.37c-1.54 2.92-3.53 6.67-5.98 11.26c-1.84 3.38-3.68 6.44-5.52 9.19c-1.84 2.76-3.07 4.45-3.68 5.06c3.06 0 5.29 0.39 6.67 1.15c1.38 0.77 4.37 1.92 8.96 3.45c5.21 2.15 10.11 3.22 14.71 3.22c2.76 0 5.36-0.46 7.81-1.38c2.45-0.92 3.68-2.6 3.68-5.06c0-2.76-0.92-4.14-2.76-4.14c-4.3 0-6.67 1.84-7.13 5.52c-0.46 3.68-1.31 7.81-2.53 12.41c-0.92 4.3-1.61 7.74-2.07 10.34c-0.46 2.61-1.31 5.14-2.53 7.58c1.22-0.3 2.45-0.53 3.68-0.69c1.22-0.15 2.91-0.23 5.06-0.23c1.53 0 4.14 0.46 7.81 1.38c3.68 0.92 6.9 1.38 9.65 1.38c2.45 0 4.67-0.69 6.67-2.07c1.99-1.38 2.99-2.99 2.99-4.83c0-2.45-0.92-3.68-2.76-3.68c-1.54 0-2.99 0.62-4.37 1.84c-1.38 1.23-2.07 3.68-2.07 7.35c0 1.54 0.23 3.53 0.69 5.98c0.46 2.46 0.99 4.98 1.61 7.58c0.61 2.61 1.22 5.14 1.84 7.58c0.61 2.46 1.07 4.3 1.38 5.52c2.45-1.84 5.52-3.37 9.19-4.6c3.68-1.22 7.05-2.91 10.11-5.06c2.45-1.84 4.67-3.6 6.67-5.29c1.99-1.68 2.99-3.75 2.99-6.21c0-1.84-0.77-2.76-2.3-2.76c-1.84 0-2.76 1.38-2.76 4.14c0 4.6 2.6 8.89 7.81 12.87c5.21 3.99 9.65 7.51 13.33 10.57c4.6 3.38 9.42 6.97 14.48 10.8c5.06 3.84 8.2 6.05 9.42 6.67c-6.13 3.99-12.72 8.2-19.77 12.64c-7.05 4.45-13.64 6.67-19.77 6.67c-6.44 0-11.8-1.84-16.09-5.52c-4.3-3.68-6.44-8.12-6.44-13.33h-23.44v-25.74c-0.62 0.31-1.38 0.46-2.3 0.46h-5.98c-3.38 0-6.97-0.61-10.8-1.84c-3.84-1.22-7.35-2.91-10.57-5.06c-3.22-2.14-5.98-4.83-8.27-8.04c-2.3-3.22-3.45-6.97-3.45-11.26c0-3.98 1.53-7.58 4.6-10.8c3.06-3.22 6.59-4.83 10.57-4.83c3.37 0 6.28 0.39 8.73 1.15c2.45 0.77 4.44 1.46 5.98 2.07c1.53 0.62 3.75 1.23 6.67 1.84c2.91 0.62 5.13 0.92 6.67 0.92c2.14 0 3.52-1.07 4.14-3.22c0.61-2.14 0.92-4.14 0.92-5.98c0.61-1.84 1.38-3.75 2.3-5.75c0.92-1.99 2.6-2.99 5.06-2.99c3.37 0 5.06 1.69 5.06 5.06c0 1.23-0.46 2.53-1.38 3.91c-0.92 1.38-2.92 2.07-5.98 2.07c-6.44 0-10.27 1-11.49 2.99c-1.23 2-2 6.51-2.3 13.56c-0.31 4.6-0.39 8.2-0.23 10.8c0.15 2.61-0.08 4.68-0.69 6.21c2.14-0.3 4.29-0.46 6.44-0.46c2.14 0 4.9 0 8.27 0c11.33 0 17.01-2.45 17.01-7.35c0-1.53-0.46-2.99-1.38-4.37c-0.92-1.38-1.38-3.14-1.38-5.29c0-1.53 0.53-2.68 1.61-3.45c1.07-0.76 2.22-1.15 3.45-1.15c0.92 0 1.84 0.46 2.76 1.38c0.92 0.92 1.38 2 1.38 3.22c0 0.92-0.23 1.92-0.69 2.99c-0.46 1.08-1.77 1.92-3.91 2.53c-1.54 0.62-3.07 1.31-4.6 2.07c-1.54 0.77-2.3 2.38-2.3 4.83c0 1.84 0.46 3.38 1.38 4.6c0.92 1.23 1.99 2.76 3.22 4.6c1.53 2.46 2.68 4.22 3.45 5.29c0.76 1.08 1.45 2.69 2.07 4.83c3.68-2.45 7.51-4.9 11.49-7.35c3.98-2.45 8.12-5.67 12.41-9.65c7.97-7.35 11.95-13.48 11.95-18.39c0-2.45-0.31-4.21-0.92-5.29c-0.62-1.07-1.08-1.91-1.38-2.53c-0.62-0.61-1-1.22-1.15-1.84c-0.16-0.61 0.38-0.92 1.61-0.92c6.74-0.61 13.17-2.6 19.31-5.98c6.13-3.37 11.49-7.66 16.09-12.87c4.6-5.21 8.35-11.18 11.26-17.93c2.91-6.74 4.67-14.09 5.29-22.06c-0.62-0.61-1.38-1.84-2.3-3.68c-0.92-1.84-1.54-3.06-1.84-3.68c-0.92-1.53-2.07-2.76-3.45-3.68c-1.38-0.92-2.99-1.07-4.83-0.46c-0.92-11.64-4.52-21.91-10.8-30.8c-6.28-8.88-14.18-14.09-23.67-15.63c-7.05-1.53-13.1-3.98-18.16-7.35c-5.06-3.37-7.58-9.19-7.58-17.47c0-5.52 1.53-10.41 4.6-14.71c3.06-4.29 6.28-7.81 9.65-10.57c3.06-2.76 6.44-5.59 10.11-8.5c3.68-2.91 5.82-4.52 6.44-4.83c-19-12.87-28.5-24.21-28.5-34.02c0-3.68 1.22-6.67 3.68-8.96c2.45-2.3 5.21-3.45 8.27-3.45v0.92zm2.3 265.24c0.92-0.92 1.38-1.53 1.38-1.84c3.37-2.45 6.59-5.9 9.65-10.34c3.06-4.44 4.6-9.42 4.6-14.94c0-7.97-2.53-13.63-7.58-17.01c-5.06-3.37-11.11-5.82-18.16-7.35c-9.5-1.84-17.4-7.13-23.67-15.86c-6.28-8.73-9.88-18.92-10.8-30.57c-1.84 0.62-3.45 0.39-4.83-0.69c-1.38-1.07-2.53-2.37-3.45-3.91c-0.31-0.61-0.92-1.84-1.84-3.68c-0.92-1.84-1.69-3.06-2.3-3.68c0.61-7.66 2.37-14.94 5.29-21.83c2.91-6.9 6.67-12.94 11.26-18.16c4.6-5.21 9.88-9.5 15.86-12.87c5.98-3.37 12.48-5.36 19.54-5.98c1.22 0 1.76-0.23 1.61-0.69c-0.16-0.46-0.39-0.99-0.69-1.61c-0.62-0.61-1.23-1.53-1.84-2.76c-0.62-1.22-0.92-3.06-0.92-5.52c0-4.29 4.14-10.41 12.41-18.39c1.84-1.84 3.75-3.45 5.75-4.83c1.99-1.38 3.91-2.68 5.75-3.91l-1.38-1.38c-0.62 0.62-1.84 1.54-3.68 2.76c-2.15 1.54-4.45 3.3-6.9 5.29c-2.46 2-4.75 4.22-6.9 6.67c-2.15 2.46-3.91 5.21-5.29 8.27c-1.38 3.07-1.92 6.28-1.61 9.65c-7.35 1.23-14.33 3.76-20.92 7.58c-6.59 3.84-12.26 8.73-17.01 14.71c-4.75 5.98-8.58 12.87-11.49 20.69c-2.92 7.81-4.52 16.02-4.83 24.59c2.76-1.22 5.67 0.77 8.73 5.98c0.92 1.23 2.07 2.61 3.45 4.14c1.38 1.54 2.99 2.76 4.83 3.68c1.53 11.03 5.59 20.76 12.18 29.19c6.59 8.43 14.48 13.41 23.67 14.94c5.52 1.23 10.95 3.45 16.32 6.67c5.36 3.22 8.04 8.81 8.04 16.78c0 6.13-1.77 11.19-5.29 15.17c-3.53 3.99-6.82 7.35-9.88 10.11l0.92 0.92zm-78.15-164.57c0.61-0.3 1.15-0.61 1.61-0.92c0.46-0.3 0.99-0.46 1.61-0.46c1.84-0.61 3.6-1.3 5.29-2.07c1.68-0.76 3.29-1.15 4.83-1.15c1.53 0 2.99 0.31 4.37 0.92c1.38 0.62 2.07 2.61 2.07 5.98c0 2.46 0.61 4.45 1.84 5.98c1.22 1.54 2.6 2.3 4.14 2.3c2.76 0 4.14-1.68 4.14-5.06c0-0.92-0.46-2.07-1.38-3.45c-0.92-1.38-3.07-2.07-6.44-2.07c-3.38 0-5.98-0.46-7.81-1.38c-1.84-0.92-2.76-3.83-2.76-8.73c0-1.84 0.3-4.14 0.92-6.9c0.61-2.76 0.92-4.9 0.92-6.44c0-3.06-0.16-5.06-0.46-5.98c1.84 0.31 4.21 0.46 7.13 0.46c2.91 0 5.29 0 7.13 0c3.98 0 7.81 0.39 11.49 1.15c3.68 0.77 5.52 2.84 5.52 6.21c0 0.92-0.16 1.69-0.46 2.3c-0.31 0.62-0.62 1.23-0.92 1.84c-0.62 2.46-0.39 4.83 0.69 7.13c1.07 2.3 2.68 3.45 4.83 3.45c2.45 0 3.68-1.07 3.68-3.22c0-2.45-0.85-4.37-2.53-5.75c-1.69-1.38-3.3-2.37-4.83-2.99c-1.84-0.61-3.76-1.22-5.75-1.84c-2-0.61-2.99-2.45-2.99-5.52c0-2.45 0.3-4.21 0.92-5.29c0.61-1.07 2.14-2.99 4.6-5.75c2.45-3.06 4.06-5.36 4.83-6.9c0.76-1.53 1.15-2.91 1.15-4.14c1.22 1.23 2.76 2.46 4.6 3.68c1.84 1.23 5.06 3.38 9.65 6.44c2.45 1.54 5.06 3.07 7.81 4.6c2.76 1.54 5.29 3.22 7.58 5.06c2.3 1.84 4.21 3.99 5.75 6.44c1.53 2.46 2.3 5.37 2.3 8.73c0 3.38-0.54 5.37-1.61 5.98c-1.08 0.62-1.61 1.23-1.61 1.84c0 0.62 0.92 1.23 2.76 1.84c6.44 0.92 12.48 2.92 18.16 5.98c5.67 3.07 10.64 7.13 14.94 12.18c4.29 5.06 7.89 10.88 10.8 17.47c2.91 6.59 4.67 13.56 5.29 20.92c-1.23 0.62-2.23 1.61-2.99 2.99c-0.77 1.38-1.31 2.38-1.61 2.99c-1.23 1.54-2.15 2.76-2.76 3.68c-0.62 0.92-2.15 1.23-4.6 0.92c-0.31 11.95-3.61 22.45-9.88 31.49c-6.28 9.04-14.02 14.94-23.21 17.7c-3.07 0.92-6.28 1.77-9.65 2.53c-3.38 0.77-6.44 2-9.19 3.68c-2.76 1.69-5.06 3.84-6.9 6.44c-1.84 2.61-2.76 6.21-2.76 10.8c0 7.97 1.84 14.1 5.52 18.39c3.68 4.3 6.9 7.66 9.65 10.11c3.06 2.46 6.28 5.14 9.65 8.04c3.37 2.92 6.28 5.14 8.73 6.67c-2.46 1.84-5.21 3.76-8.27 5.75c-3.07 2-6.13 4.22-9.19 6.67c-3.07 2.46-5.6 4.98-7.58 7.58c-2 2.61-2.99 5.44-2.99 8.5c0 3.99 1.38 7.51 4.14 10.57c2.76 3.07 5.82 4.6 9.19 4.6c3.06 0 5.9-1.15 8.5-3.45c2.6-2.3 3.91-5.44 3.91-9.42c0-9.8-9.5-20.99-28.5-33.56c0.61-0.3 2.53-1.76 5.75-4.37c3.22-2.6 6.36-5.13 9.42-7.58l-0.92-0.92c-3.38 2.76-7.2 5.6-11.49 8.5c-4.3 2.92-6.74 4.68-7.35 5.29c9.5 6.13 17.08 11.95 22.75 17.47c5.67 5.52 8.5 11.03 8.5 16.55c0 2.76-1 5.14-2.99 7.13c-2 2-4.37 2.99-7.13 2.99c-3.38 0-6.28-1.38-8.73-4.14c-2.46-2.76-3.68-5.98-3.68-9.65c0-3.06 1.22-5.98 3.68-8.73c2.45-2.76 5.29-5.36 8.5-7.81c3.22-2.45 6.59-4.75 10.11-6.9c3.52-2.14 6.51-4.14 8.96-5.98c-2.46-1.53-5.37-3.68-8.73-6.44c-3.38-2.76-6.59-5.36-9.65-7.81c-1.54-1.22-3.3-2.6-5.29-4.14c-2-1.53-3.91-3.37-5.75-5.52c-1.84-2.14-3.45-4.6-4.83-7.35c-1.38-2.76-2.07-6.13-2.07-10.11c0-4.6 0.84-8.2 2.53-10.8c1.68-2.6 3.75-4.6 6.21-5.98c2.45-1.38 5.29-2.37 8.5-2.99c3.22-0.61 6.36-1.38 9.42-2.3c9.19-2.76 17.01-8.5 23.44-17.24c6.44-8.73 10.26-18.92 11.49-30.57c2.14-0.61 4.29-2.76 6.44-6.44c1.53-2.45 2.99-4.44 4.37-5.98c1.38-1.53 3.29-1.99 5.75-1.38c-0.92-8.27-2.84-16.01-5.75-23.21c-2.92-7.2-6.74-13.63-11.49-19.31c-4.75-5.67-10.27-10.34-16.55-14.02c-6.28-3.68-12.95-6.13-20-7.35v-3.68c0-3.68-0.85-6.97-2.53-9.88c-1.69-2.91-3.84-5.59-6.44-8.04c-2.61-2.45-5.37-4.6-8.27-6.44c-2.92-1.84-5.6-3.52-8.04-5.06c-4.6-3.06-7.97-5.36-10.11-6.9c-2.15-1.53-3.84-2.91-5.06-4.14c0 1.23 0 3.22 0 5.98c0 2.76-1.23 5.67-3.68 8.73c-2.46 3.07-4.3 5.29-5.52 6.67c-1.23 1.38-1.84 3.76-1.84 7.13c0 3.38 0.84 5.6 2.53 6.67c1.68 1.08 3.45 2.07 5.29 2.99c1.53 0.62 2.99 1.23 4.37 1.84c1.38 0.62 2.37 1.54 2.99 2.76c0.92 2.15 0.69 3.45-0.69 3.91c-1.38 0.46-2.69-0.07-3.91-1.61c-1.23-1.53-1.77-2.99-1.61-4.37c0.15-1.38 0.38-2.53 0.69-3.45c0.3-1.22 0.53-1.99 0.69-2.3c0.15-0.3 0.23-1.22 0.23-2.76c0-3.37-1.77-5.75-5.29-7.13c-3.53-1.38-7.43-2.22-11.72-2.53c-3.07 0-6.51-0.15-10.34-0.46c-3.84-0.3-6.67-1.07-8.5-2.3c0.61 0.92 1.15 2.38 1.61 4.37c0.46 2 0.69 3.76 0.69 5.29c0 1.84-0.31 4.07-0.92 6.67c-0.62 2.61-0.92 4.98-0.92 7.12c0 7.05 1.45 11.42 4.37 13.1c2.91 1.69 5.59 2.23 8.04 1.61c1.22-0.61 2.45-0.76 3.68-0.46c1.22 0.31 1.99 1.08 2.3 2.3c0.61 1.54 0.53 2.53-0.23 2.99c-0.77 0.46-1.61 0.69-2.53 0.69c-3.07 0-4.6-2.6-4.6-7.81c0-3.37-0.92-5.67-2.76-6.9c-1.84-1.22-3.53-1.84-5.06-1.84c-1.54 0-3.15 0.31-4.83 0.92c-1.69 0.62-3.45 1.23-5.29 1.84c-0.62 0.31-1.15 0.54-1.61 0.69c-0.46 0.16-1 0.54-1.61 1.15v3.22zm0-3.22c-1.54 0.31-3.22 0.62-5.06 0.92c-1.84 0.31-3.99 0.46-6.44 0.46c-8.89 0-13.33-4.14-13.33-12.41c0-6.44 2.83-12.41 8.5-17.93c5.67-5.52 11.72-8.27 18.16-8.27c2.14 0 4.67 0.08 7.58 0.23c2.91 0.16 6.67 1.46 11.26 3.91v-27.12h19.77c-1.54-3.68-2.15-6.97-1.84-9.88c0.3-2.91 1.3-5.52 2.99-7.81c1.68-2.3 3.98-4.06 6.9-5.29c2.91-1.22 6.05-1.84 9.42-1.84c3.37 0 6.36 0.31 8.96 0.92c2.6 0.62 5.44 2.15 8.5 4.6c3.37 2.46 6.74 5.06 10.11 7.81c3.37 2.76 5.98 4.6 7.81 5.52c-2.46 1.54-5.75 3.99-9.88 7.35c-4.14 3.38-7.89 6.44-11.26 9.19c-4.6 4.3-9.58 9.04-14.94 14.25c-5.37 5.21-8.04 10.11-8.04 14.71c0 2.46 0.61 4.07 1.84 4.83c1.22 0.77 2.3 1.15 3.22 1.15c0.61 0 1.45-0.3 2.53-0.92c1.07-0.61 1.61-2.14 1.61-4.6c0-2.76-1.38-5.82-4.14-9.19c-2.76-3.37-5.37-6.13-7.81-8.27c-2.46-1.84-5.52-3.75-9.19-5.75c-3.68-1.99-6.59-3.91-8.73-5.75c0.61 2.76 0.61 5.21 0 7.35c-0.62 2.15-1.54 4.75-2.76 7.81c-2.46 6.44-3.68 13.95-3.68 22.52c0 1.54 0.46 3.45 1.38 5.75c0.92 2.3 2.76 3.45 5.52 3.45c3.06 0 4.6-1.84 4.6-5.52c0-2.76-1-4.98-2.99-6.67c-2-1.68-4.22-2.53-6.67-2.53c-1.54 0-3.38 0.08-5.52 0.23c-2.15 0.16-4.6 0.54-7.35 1.15c-2.76 0.62-5.75 1.08-8.96 1.38c-3.22 0.31-6.51 0.16-9.88-0.46c4.9 3.99 7.35 11.03 7.35 21.15c0 5.21 1.07 9.19 3.22 11.95c2.14 2.76 4.29 4.14 6.44 4.14c2.14 0 3.45-0.69 3.91-2.07c0.46-1.38 0.69-2.37 0.69-2.99c0-2.76-0.92-4.6-2.76-5.52c-1.84-0.92-3.38-1.38-4.6-1.38c-0.92 0-2.84 0.16-5.75 0.46c-2.92 0.31-5.75 0.77-8.5 1.38c-2.76 0.92-5.9 2-9.42 3.22c-3.53 1.23-6.51 1.84-8.96 1.84c3.37 3.38 5.29 6.97 5.75 10.8c0.46 3.84 1.3 7.89 2.53 12.18c1.53 5.21 3.75 9.42 6.67 12.64c2.91 3.22 6.05 4.83 9.42 4.83c3.98 0 5.98-1.68 5.98-5.06c0-2.45-0.92-4.29-2.76-5.52c-1.84-1.22-3.99-1.84-6.44-1.84c-4.91 0-9.81 1.31-14.71 3.91c-4.91 2.61-9.35 6.44-13.33 11.49c-3.99 5.06-7.2 11.26-9.65 18.62c-2.46 7.35-3.68 15.79-3.68 25.28c0 9.81 2.6 18.01 7.81 24.59c5.21 6.59 10.57 9.88 16.09 9.88c4.6 0 8.35-1.61 11.26-4.83c2.91-3.22 4.37-8.35 4.37-15.4c0-5.21 0-9.5 0-12.87c0-3.37 2.14-5.06 6.44-5.06c1.53 0 2.76 0.39 3.68 1.15c0.92 0.77 2.45 1.15 4.6 1.15c2.14 0 3.6-0.69 4.37-2.07c0.76-1.38 0.99-2.53 0.69-3.45c-0.31-3.06-2-4.6-5.06-4.6c-2.76 0-5.06 2-6.9 5.98c-0.62 2.15-1.31 4.22-2.07 6.21c-0.77 2-2.23 2.99-4.37 2.99c-2.46 0-4.98-0.99-7.58-2.99c-2.61-1.99-4.83-4.06-6.67-6.21c-2.15-1.84-4.3-3.52-6.44-5.06c-2.15-1.53-3.99-2.6-5.52-3.22c2.14-2.14 3.91-4.29 5.29-6.44c1.38-2.14 2.99-4.6 4.83-7.35c1.84-2.76 3.91-5.59 6.21-8.5c2.3-2.91 4.37-4.37 6.21-4.37c1.53 0 2.76 0.46 3.68 1.38c0.92 0.92 1.84 1.84 2.76 2.76c1.53 2.76 3.83 4.14 6.9 4.14c1.53 0 2.83-0.3 3.91-0.92c1.07-0.61 1.61-1.84 1.61-3.68c0-1.53-0.54-2.91-1.61-4.14c-1.08-1.22-2.53-1.84-4.37-1.84c-1.84 0-3.45 0.46-4.83 1.38c-1.38 0.92-2.38 1.69-2.99 2.3c-1.54 2.76-3.38 4.14-5.52 4.14c-2.15 0-4.3-1.07-6.44-3.22l-0.92 1.38c2.76 2.15 5.21 3.22 7.35 3.22c2.45 0 4.29-0.38 5.52-1.15c1.22-0.76 2.14-1.61 2.76-2.53c0.61-0.92 1.38-1.68 2.3-2.3c0.92-0.61 2.3-0.92 4.14-0.92c1.22 0 2.07 0.46 2.53 1.38c0.46 0.92 0.69 1.69 0.69 2.3c0 2.15-1.38 3.22-4.14 3.22c-3.07 0-5.37-1.38-6.9-4.14c-0.62-0.61-1.46-1.53-2.53-2.76c-1.08-1.22-2.84-1.84-5.29-1.84c-2.46 0-5.21 1.84-8.27 5.52c-3.07 3.68-5.83 7.05-8.27 10.11c-1.54 2.76-2.84 5.21-3.91 7.35c-1.08 2.15-2.84 4.14-5.29 5.98c1.53 0.31 3.37 0.92 5.52 1.84c2.14 0.92 5.82 3.53 11.03 7.81c1.84 1.84 4.06 3.76 6.67 5.75c2.6 2 5.13 2.99 7.58 2.99c2.14 0 4.14-0.84 5.98-2.53c1.84-1.68 3.06-3.91 3.68-6.67c0.3-0.61 0.61-1.76 0.92-3.45c0.3-1.68 1.22-2.53 2.76-2.53c2.45 0 3.68 1.23 3.68 3.68c0.3 0.62 0 1.38-0.92 2.3c-0.92 0.92-2.15 1.38-3.68 1.38c-1.54 0-2.69-0.38-3.45-1.15c-0.77-0.76-2.38-1.15-4.83-1.15c-4.3 0-6.97 1.84-8.04 5.52c-1.08 3.68-1.61 7.97-1.61 12.87c0 6.13-0.62 10.96-1.84 14.48c-1.23 3.53-3.99 5.29-8.27 5.29c-6.13 0-11.57-3.06-16.32-9.19c-4.75-6.13-7.13-14.09-7.13-23.9c0-8.88 1.3-16.78 3.91-23.67c2.6-6.9 5.98-12.79 10.11-17.7c4.14-4.9 8.65-8.58 13.56-11.03c4.9-2.45 9.65-3.68 14.25-3.68c2.14 0 3.6 0.46 4.37 1.38c0.76 0.92 1.15 1.84 1.15 2.76c0 2.15-1.38 3.22-4.14 3.22c-3.38 0-6.28-1.53-8.73-4.6c-2.46-3.06-4.45-7.2-5.98-12.41c-1.23-4.29-2.15-7.97-2.76-11.03c-0.62-3.06-1.69-5.67-3.22-7.81c2.45-0.3 4.9-0.92 7.35-1.84c2.45-0.92 5.06-1.84 7.81-2.76c6.13-1.53 10.72-2.3 13.79-2.3c0.61 0 1.61 0.23 2.99 0.69c1.38 0.46 2.07 1.77 2.07 3.91c0 1.84-0.62 2.76-1.84 2.76c-2.15 0-4.22-1.07-6.21-3.22c-2-2.14-2.99-5.82-2.99-11.03c0-5.21-0.39-9.11-1.15-11.72c-0.77-2.6-1.61-4.52-2.53-5.75c2.76 0.31 5.21 0.31 7.35 0c2.14-0.3 4.44-0.76 6.9-1.38c2.76-0.61 5.21-0.99 7.35-1.15c2.14-0.15 3.98-0.23 5.52-0.23c4.9 0 7.35 2 7.35 5.98c0 2.46-0.92 3.68-2.76 3.68c-1.84 0-3.22-0.92-4.14-2.76c-0.92-1.84-1.38-3.68-1.38-5.52c0-8.27 1.38-15.63 4.14-22.06c1.22-3.06 1.99-5.21 2.3-6.44c0.3-1.22 0.46-2.6 0.46-4.14c1.84 1.84 4.06 3.61 6.67 5.29c2.6 1.69 5.29 3.45 8.04 5.29c2.45 1.84 4.98 3.99 7.58 6.44c2.6 2.46 3.91 5.06 3.91 7.81c0 1.84-0.31 2.99-0.92 3.45c-0.62 0.46-1.23 0.69-1.84 0.69c-1.84 0-2.76-1.53-2.76-4.6c0-4.6 2.76-9.5 8.27-14.71c5.52-5.21 10.57-9.95 15.17-14.25c3.37-2.76 7.51-5.98 12.41-9.65c4.9-3.68 8.58-6.13 11.03-7.35c-1.84-1.22-4.3-3.22-7.35-5.98c-3.07-2.76-6.28-5.36-9.65-7.81c-3.38-2.76-7.05-4.6-11.03-5.52c-3.99-0.92-8.12-1.38-12.41-1.38c-5.21 0-9.96 1.84-14.25 5.52c-4.3 3.68-6.44 8.73-6.44 15.17h-22.52v28.96c-3.68-0.92-7.51-1.38-11.49-1.38c-3.68 0-7.2 0.85-10.57 2.53c-3.38 1.69-6.44 3.84-9.19 6.44c-2.76 2.61-4.98 5.6-6.67 8.96c-1.69 3.38-2.53 6.9-2.53 10.57c0 3.38 1.15 6.74 3.45 10.11c2.3 3.38 6.05 5.06 11.26 5.06c5.21 0 9.04-0.46 11.49-1.38v-3.22zm95.15-38.61c2.14-1.53 4.21-2.91 6.21-4.14c1.99-1.22 3.91-2.45 5.75-3.68c0.61 1.84 1.3 3.38 2.07 4.6c0.76 1.23 1.91 3.07 3.45 5.52c1.22 1.84 2.3 3.3 3.22 4.37c0.92 1.08 1.38 2.53 1.38 4.37c0 2.46-0.77 4.07-2.3 4.83c-1.54 0.77-3.07 1.46-4.6 2.07c-2.15 0.92-3.45 1.84-3.91 2.76c-0.46 0.92-0.69 1.84-0.69 2.76c0 1.54 0.46 2.69 1.38 3.45c0.92 0.77 1.84 1.15 2.76 1.15c1.22 0 2.37-0.38 3.45-1.15c1.07-0.76 1.61-1.91 1.61-3.45c0-2.14-0.39-3.75-1.15-4.83c-0.77-1.07-1.31-2.68-1.61-4.83c0-4.6 5.67-6.9 17.01-6.9c3.37 0 6.13 0 8.27 0c2.14 0 4.29-0.3 6.44-0.92c-0.62 1.54-0.85 3.61-0.69 6.21c0.15 2.61 0.07 6.36-0.23 11.26c-0.31 3.38-0.54 6.13-0.69 8.27c-0.16 2.15-0.69 3.84-1.61 5.06c-0.92 1.23-2.3 2.07-4.14 2.53c-1.84 0.46-4.3 0.69-7.35 0.69c-2.76 0-4.68 0.69-5.75 2.07c-1.08 1.38-1.61 2.53-1.61 3.45c0 3.38 1.68 5.06 5.06 5.06c2.45 0 4.21-0.92 5.29-2.76c1.07-1.84 1.76-3.68 2.07-5.52c0-1.84 0.3-3.91 0.92-6.21c0.61-2.3 1.99-3.45 4.14-3.45c1.53 0 3.75 0.31 6.67 0.92c2.91 0.62 5.13 1.23 6.67 1.84c1.53 0.62 3.52 1.31 5.98 2.07c2.45 0.77 5.36 1.15 8.73 1.15c3.98 0 7.51-1.53 10.57-4.6c3.06-3.06 4.6-6.74 4.6-11.03c0-3.98-1.15-7.58-3.45-10.8c-2.3-3.22-5.06-5.98-8.27-8.27c-3.22-2.3-6.82-4.06-10.8-5.29c-3.99-1.22-7.51-1.84-10.57-1.84c-1.54 0-2.76 0.08-3.68 0.23c-0.92 0.16-1.69 0.23-2.3 0.23h-2.3v-25.28h-23.44c0-5.21-2.15-9.73-6.44-13.56c-4.3-3.83-9.65-5.75-16.09-5.75c-2.46 0-5.14 0.54-8.04 1.61c-2.92 1.08-5.9 2.38-8.96 3.91l1.38 0.92c2.76-1.53 5.52-2.83 8.27-3.91c2.76-1.07 5.52-1.61 8.27-1.61c7.05 0 12.25 2.76 15.63 8.27c3.37 5.52 4.29 11.03 2.76 16.55h20.23v22.06c1.22-0.3 2.6-0.61 4.14-0.92c1.53-0.3 3.14-0.61 4.83-0.92c1.68-0.3 3.6-0.46 5.75-0.46c3.06 0 6.36 0.46 9.88 1.38c3.52 0.92 6.82 2.46 9.88 4.6c3.06 2.15 5.52 4.75 7.35 7.81c1.84 3.07 2.76 6.59 2.76 10.57c0 3.38-1.15 6.67-3.45 9.88c-2.3 3.22-5.14 4.83-8.5 4.83c-3.38 0-6.28-0.38-8.73-1.15c-2.46-0.76-4.45-1.45-5.98-2.07c-1.54-0.61-3.68-1.15-6.44-1.61c-2.76-0.46-4.91-0.69-6.44-0.69c-2.46 0-4.45 1-5.98 2.99c-1.54 2-2.46 4.22-2.76 6.67c-0.31 1.54-0.62 3.22-0.92 5.06c-0.31 1.84-1.38 2.76-3.22 2.76c-2.46 0-3.68-1.07-3.68-3.22c0-0.92 0.46-1.91 1.38-2.99c0.92-1.07 2.6-1.61 5.06-1.61c5.21 0 9.11-0.92 11.72-2.76c2.6-1.84 4.21-6.9 4.83-15.17c0.3-4.6 0.61-8.88 0.92-12.87c0.3-3.98 0.76-6.44 1.38-7.35c-2.46 0.92-5.37 1.54-8.73 1.84c-3.38 0.31-6.74 0.46-10.11 0.46c-6.13 0-11.03 0.54-14.71 1.61c-3.68 1.08-5.52 4.22-5.52 9.42c0.3 2.15 0.84 3.68 1.61 4.6c0.76 0.92 1.15 2.15 1.15 3.68c0 1.23-0.62 1.84-1.84 1.84c-0.31 0-0.92-0.15-1.84-0.46c-0.92-0.3-1.38-1.22-1.38-2.76c0-0.92 0.3-1.76 0.92-2.53c0.61-0.76 2.14-1.61 4.6-2.53c1.84-0.61 3.37-1.53 4.6-2.76c1.22-1.22 1.84-3.52 1.84-6.9c0-1.84-0.46-3.6-1.38-5.29c-0.92-1.68-2-3.45-3.22-5.29c-1.54-2.45-2.76-4.37-3.68-5.75c-0.92-1.38-1.38-3.14-1.38-5.29c-1.84 2.46-3.99 4.37-6.44 5.75c-2.46 1.38-5.52 3.3-9.19 5.75l1.38 1.38zm76.31 98.83c2.76 2.76 5.52 7.05 8.27 12.87c1.53 3.99 3.14 7.05 4.83 9.19c1.68 2.15 2.83 3.53 3.45 4.14c-3.99 1.54-7.89 2.92-11.72 4.14c-3.84 1.23-6.51 2.3-8.04 3.22c-1.84 0.92-3.68 1.84-5.52 2.76c-1.84 0.92-3.53 1.38-5.06 1.38c-2.15 0-3.84-1.53-5.06-4.6c-0.62-1.53-1.38-2.99-2.3-4.37c-0.92-1.38-2.15-2.07-3.68-2.07c-1.54 0-2.69 0.54-3.45 1.61c-0.77 1.08-1.15 2.07-1.15 2.99c0 0.92 0.38 2.07 1.15 3.45c0.76 1.38 1.91 2.07 3.45 2.07c1.53 0 3.37-0.76 5.52-2.3c1.53-1.22 3.37-1.84 5.52-1.84c2.45 0 4.06 1.84 4.83 5.52c0.76 3.68 1.15 8.73 1.15 15.17c0 13.49 4.29 20.23 12.87 20.23c3.68 0 7.05-1.53 10.11-4.6c3.06-3.06 5.75-6.82 8.04-11.26c2.3-4.44 4.06-9.27 5.29-14.48c1.22-5.21 1.84-9.95 1.84-14.25c0-8.58-1.54-16.16-4.6-22.75c-3.07-6.59-6.82-12.18-11.26-16.78c-4.45-4.6-9.04-8.12-13.79-10.57c-4.75-2.45-8.96-3.68-12.64-3.68c-1.54 0-3.07 0.39-4.6 1.15c-1.54 0.77-2.3 2.07-2.3 3.91c0 4.6 2.3 6.9 6.9 6.9c3.98 0 7.2-1.45 9.65-4.37c2.45-2.91 4.9-6.67 7.35-11.26c1.84-3.37 4.06-7.13 6.67-11.26c2.6-4.14 5.13-6.67 7.58-7.58c-3.38 0.62-6.13 0.85-8.27 0.69c-2.15-0.15-4.07-0.38-5.75-0.69c-1.69-0.3-3.38-0.84-5.06-1.61c-1.69-0.76-3.61-1.61-5.75-2.53c-5.52-1.84-10.42-2.76-14.71-2.76c-3.07 0-5.98 0.62-8.73 1.84c-2.76 1.23-4.14 3.07-4.14 5.52c0 3.99 1.84 5.98 5.52 5.98c3.37 0 5.75-1.61 7.13-4.83c1.38-3.22 2.68-7.13 3.91-11.72c1.22-4.9 2.53-9.8 3.91-14.71c1.38-4.9 2.99-8.12 4.83-9.65c-2.15 0.92-4.68 1.61-7.58 2.07c-2.92 0.46-5.29 0.69-7.13 0.69c-1.84 0-4.52-0.46-8.04-1.38c-3.53-0.92-6.82-1.38-9.88-1.38c-3.07 0-5.75 0.92-8.04 2.76c-2.3 1.84-3.45 3.68-3.45 5.52c0 3.68 1.53 5.52 4.6 5.52c2.14 0 4.14-1.07 5.98-3.22c1.84-2.14 2.76-5.36 2.76-9.65c0-1.53-0.23-3.6-0.69-6.21c-0.46-2.6-1-5.36-1.61-8.27c-0.62-2.91-1.23-5.67-1.84-8.27c-0.62-2.6-0.92-4.52-0.92-5.75c-2.76 2.46-6.67 4.6-11.72 6.44c-5.06 1.84-8.96 3.84-11.72 5.98c-2.76 1.84-5.14 3.76-7.13 5.75c-2 2-2.99 4.22-2.99 6.67c0 1.54 0.46 2.69 1.38 3.45c0.92 0.77 1.68 1.15 2.3 1.15c3.68 0 5.52-1.99 5.52-5.98c0-4.29-2.23-8.65-6.67-13.1c-4.45-4.44-8.81-8.35-13.1-11.72c-2.15-1.53-4.45-3.22-6.9-5.06c-2.46-1.84-4.83-3.6-7.13-5.29c-2.3-1.68-4.3-3.14-5.98-4.37c-1.69-1.22-2.84-1.99-3.45-2.3c3.37-2.14 6.59-4.29 9.65-6.44c3.06-2.14 6.28-3.98 9.65-5.52l-1.38-0.92c-3.68 1.84-7.43 4.07-11.26 6.67c-3.84 2.61-7.58 4.98-11.26 7.13c1.22 0.62 4.37 2.84 9.42 6.67c5.06 3.84 9.88 7.43 14.48 10.8c1.84 1.54 3.98 3.22 6.44 5.06c2.45 1.84 4.75 3.76 6.9 5.75c2.14 2 3.98 4.07 5.52 6.21c1.53 2.15 2.3 4.3 2.3 6.44c0 2.76-1.08 4.14-3.22 4.14c-0.92 0-1.38-0.92-1.38-2.76c0-2.45 0.92-4.52 2.76-6.21c1.84-1.68 4.14-3.45 6.9-5.29c2.76-2.14 6.05-3.83 9.88-5.06c3.83-1.22 6.97-2.6 9.42-4.14c0 1.23 0.3 2.99 0.92 5.29c0.61 2.3 1.22 4.83 1.84 7.58c0.61 2.76 1.15 5.37 1.61 7.81c0.46 2.46 0.69 4.45 0.69 5.98c0 3.68-0.69 6.13-2.07 7.35c-1.38 1.23-2.84 1.84-4.37 1.84c-1.84 0-2.76-1.22-2.76-3.68c0-1.84 0.99-3.52 2.99-5.06c1.99-1.53 4.21-2.3 6.67-2.3c3.06 0 6.36 0.54 9.88 1.61c3.52 1.08 6.21 1.61 8.04 1.61c1.84 0 3.37-0.15 4.6-0.46c1.22-0.3 2.45-0.46 3.68-0.46c-1.23 2.15-2 4.6-2.3 7.35c-0.31 2.76-1.08 6.28-2.3 10.57c-1.23 4.6-2.07 8.73-2.53 12.41c-0.46 3.68-2.84 5.52-7.13 5.52c-1.84 0-2.76-1.53-2.76-4.6c0-2.14 1.3-3.68 3.91-4.6c2.6-0.92 5.13-1.38 7.58-1.38c4.29 0 9.19 0.92 14.71 2.76c4.6 1.84 7.58 3.07 8.96 3.68c1.38 0.62 3.6 0.92 6.67 0.92c-0.62 0.62-1.84 2.3-3.68 5.06c-1.84 2.76-3.53 5.82-5.06 9.19c-2.46 4.6-4.52 8.35-6.21 11.26c-1.69 2.92-4.22 4.37-7.58 4.37c-3.38 0-5.06-1.22-5.06-3.68c0-0.92 0.46-1.84 1.38-2.76c0.92-0.92 2.14-1.38 3.68-1.38c3.37 0 7.43 1.15 12.18 3.45c4.75 2.3 9.27 5.67 13.56 10.11c4.29 4.45 7.97 9.88 11.03 16.32c3.06 6.44 4.6 13.95 4.6 22.52c0 4.3-0.62 8.89-1.84 13.79c-1.23 4.91-2.99 9.5-5.29 13.79c-2.3 4.3-4.98 7.89-8.04 10.8c-3.07 2.92-6.44 4.37-10.11 4.37c-4.3 0-6.97-1.99-8.04-5.98c-1.08-3.98-1.61-8.73-1.61-14.25c0-6.13-0.69-11.1-2.07-14.94c-1.38-3.83-3.76-5.75-7.13-5.75c-2.46 0-4.45 0.62-5.98 1.84c-0.92 0.92-2.3 1.38-4.14 1.38c-1.84 0-2.76-0.92-2.76-2.76c0-0.61 0.15-1.3 0.46-2.07c0.3-0.76 1.22-1.15 2.76-1.15c1.53 0 2.6 0.69 3.22 2.07c0.61 1.38 1.22 2.84 1.84 4.37c1.53 3.99 3.83 5.98 6.9 5.98c1.22 0 3.45-0.61 6.67-1.84c3.22-1.22 5.59-2.3 7.13-3.22c1.53-0.92 4.21-2.07 8.04-3.45c3.83-1.38 7.74-2.68 11.72-3.91c-2.15-1.53-4.14-3.75-5.98-6.67c-1.84-2.91-3.68-6.21-5.52-9.88c-2.76-5.82-5.52-9.95-8.27-12.41l-0.92 0.92zm-3.68 18.85c1.84 2.46 3.06 5.67 3.68 9.65c1.53 4.3 2.53 7.97 2.99 11.03c0.46 3.07 1.45 5.52 2.99 7.35c-2.46 0.31-4.83 1-7.13 2.07c-2.3 1.08-4.98 1.92-8.04 2.53c-2.46 0.92-5.06 1.61-7.81 2.07c-2.76 0.46-4.6 0.69-5.52 0.69c-0.92 0-2.07-0.23-3.45-0.69c-1.38-0.46-2.07-1.76-2.07-3.91c0-1.84 0.61-2.76 1.84-2.76c2.45 0 4.6 1.08 6.44 3.22c1.84 2.15 2.76 5.67 2.76 10.57c0 5.21 0.38 9.12 1.15 11.72c0.76 2.61 1.61 4.68 2.53 6.21c-2.76-0.61-5.21-0.76-7.35-0.46c-2.15 0.31-4.45 0.77-6.9 1.38c-2.76 0.62-5.14 1-7.13 1.15c-2 0.16-3.76 0.23-5.29 0.23c-5.21 0-7.81-1.99-7.81-5.98c0-2.14 0.92-3.22 2.76-3.22c2.14 0 3.68 0.85 4.6 2.53c0.92 1.69 1.38 3.45 1.38 5.29c0 3.99-0.39 7.89-1.15 11.72c-0.77 3.84-1.77 7.28-2.99 10.34c-1.54 3.07-2.46 5.21-2.76 6.44c-0.31 1.23-0.46 2.61-0.46 4.14c-1.84-1.53-4.07-3.14-6.67-4.83c-2.61-1.68-5.29-3.6-8.04-5.75c-2.46-1.84-4.98-3.98-7.58-6.44c-2.61-2.45-3.91-5.06-3.91-7.81c0-1.84 0.3-2.91 0.92-3.22c0.61-0.3 1.22-0.46 1.84-0.46c0.61 0 1.22 0.23 1.84 0.69c0.61 0.46 0.92 1.61 0.92 3.45c0 2.46-0.77 4.91-2.3 7.35c-1.54 2.46-3.53 4.98-5.98 7.58c-2.46 2.61-5.06 5.14-7.81 7.58c-2.76 2.46-5.21 4.6-7.35 6.44c-3.38 3.07-7.58 6.44-12.64 10.11c-5.06 3.68-8.81 6.13-11.26 7.35c2.14 0.92 4.75 2.76 7.81 5.52c3.06 2.76 6.28 5.37 9.65 7.81c3.37 2.76 7.05 4.68 11.03 5.75c3.98 1.08 8.12 1.61 12.41 1.61c5.21 0 9.95-1.91 14.25-5.75c4.29-3.83 6.44-8.81 6.44-14.94h22.52v-28.96c1.84 0.62 3.75 0.92 5.75 0.92c1.99 0 4.06 0 6.21 0c3.37 0 6.74-0.84 10.11-2.53c3.37-1.68 6.44-3.83 9.19-6.44c2.76-2.6 4.98-5.59 6.67-8.96c1.68-3.37 2.53-6.9 2.53-10.57c0-3.37-1.15-6.67-3.45-9.88c-2.3-3.22-6.05-4.83-11.26-4.83c-3.99 0-7.05 0.23-9.19 0.69c-2.15 0.46-3.99 1.15-5.52 2.07c-1.54 0.62-3.22 1.23-5.06 1.84c-1.84 0.62-3.53 0.92-5.06 0.92c-1.54 0-2.99-0.3-4.37-0.92c-1.38-0.61-2.07-2.6-2.07-5.98c0-2.45-0.62-4.37-1.84-5.75c-1.23-1.38-2.61-2.07-4.14-2.07c-0.92 0-1.92 0.39-2.99 1.15c-1.08 0.77-1.61 2.07-1.61 3.91c0 0.62 0.53 1.69 1.61 3.22c1.07 1.54 3.29 2.3 6.67 2.3c3.37 0 5.98 0.46 7.81 1.38c1.84 0.92 2.76 3.68 2.76 8.27c0 2.15-0.31 4.6-0.92 7.35c-0.62 2.76-0.92 4.91-0.92 6.44c0 3.07 0.15 5.06 0.46 5.98c-1.84-0.61-4.22-0.92-7.13-0.92c-2.92 0-5.29 0-7.13 0c-3.99 0-7.74-0.38-11.26-1.15c-3.53-0.76-5.29-2.83-5.29-6.21c0-1.22 0.3-2.45 0.92-3.68c0.61-2.76 0.38-5.29-0.69-7.58c-1.08-2.3-2.69-3.45-4.83-3.45c-0.62 0-1.38 0.23-2.3 0.69c-0.92 0.46-1.38 1.46-1.38 2.99c0 2.46 0.92 4.3 2.76 5.52c1.84 1.23 3.52 2.15 5.06 2.76c1.53 0.92 3.29 1.61 5.29 2.07c1.99 0.46 2.99 2.38 2.99 5.75c0 2.46-0.62 4.37-1.84 5.75c-1.23 1.38-3.07 3.45-5.52 6.21c-1.54 1.84-2.53 3.68-2.99 5.52c-0.46 1.84-0.69 3.38-0.69 4.6c-0.92-1.22-2.46-2.45-4.6-3.68c-2.15-1.22-5.52-3.37-10.11-6.44c-4.91-3.06-9.96-6.36-15.17-9.88c-5.21-3.52-7.81-8.65-7.81-15.4c0-3.06 0.53-4.9 1.61-5.52c1.07-0.61 1.61-1.22 1.61-1.84c0-1.22-1.08-1.84-3.22-1.84c-12.87-1.84-23.9-8.04-33.1-18.62c-9.19-10.57-14.71-23.21-16.55-37.92c1.53-0.61 2.68-1.68 3.45-3.22c0.76-1.53 1.45-2.6 2.07-3.22c0.92-1.53 1.68-2.68 2.3-3.45c0.61-0.76 2.14-1.15 4.6-1.15c0.3-11.95 3.6-22.37 9.88-31.26c6.28-8.88 14.02-14.71 23.21-17.47c3.06-0.92 6.21-1.84 9.42-2.76c3.22-0.92 6.21-2.14 8.96-3.68c2.76-1.53 5.06-3.68 6.9-6.44c1.84-2.76 2.76-6.44 2.76-11.03c0-7.66-1.77-13.63-5.29-17.93c-3.53-4.29-6.67-7.66-9.42-10.11c-3.07-2.76-6.28-5.52-9.65-8.27c-3.38-2.76-6.28-4.9-8.73-6.44c2.14-1.84 4.83-3.75 8.04-5.75c3.22-1.99 6.36-4.21 9.42-6.67c3.06-2.45 5.59-4.98 7.58-7.58c1.99-2.6 2.99-5.44 2.99-8.5c0-3.98-1.38-7.51-4.14-10.57c-2.76-3.06-5.98-4.6-9.65-4.6v0.92c3.37 0 6.36 1.46 8.96 4.37c2.6 2.92 3.91 6.05 3.91 9.42c0 3.07-1.23 5.98-3.68 8.73c-2.46 2.76-5.37 5.44-8.73 8.04c-3.38 2.61-6.9 4.98-10.57 7.13c-3.68 2.15-6.59 3.99-8.73 5.52c2.45 1.54 5.36 3.68 8.73 6.44c3.37 2.76 6.59 5.37 9.65 7.81c2.76 2.46 6.44 5.67 11.03 9.65c4.6 3.99 6.9 9.81 6.9 17.47c0 4.91-0.85 8.66-2.53 11.26c-1.69 2.61-3.76 4.6-6.21 5.98c-2.46 1.38-5.21 2.38-8.27 2.99c-3.07 0.62-6.13 1.38-9.19 2.3c-9.5 2.46-17.47 8.12-23.9 17.01c-6.44 8.89-10.27 19.16-11.49 30.8c-1.84 0.62-3.99 2.92-6.44 6.9c-1.54 2.15-2.99 3.99-4.37 5.52c-1.38 1.54-3.3 2-5.75 1.38c1.53 16.55 7.28 30.73 17.24 42.52c9.95 11.8 22.14 18.78 36.54 20.92c0 0.31 0.07 0.69 0.23 1.15c0.15 0.46 0.23 1.31 0.23 2.53c0 3.68 0.84 7.05 2.53 10.11c1.68 3.07 3.75 5.82 6.21 8.27c2.45 2.46 5.13 4.6 8.04 6.44c2.91 1.84 5.59 3.53 8.04 5.06c4.6 3.07 8.04 5.29 10.34 6.67c2.3 1.38 3.91 2.69 4.83 3.91c0-0.3 0-2.07 0-5.29c0-3.22 0.92-6.05 2.76-8.5c2.45-2.76 4.44-5.06 5.98-6.9c1.53-1.84 2.3-4.44 2.3-7.81c0-3.06-0.85-5.21-2.53-6.44c-1.69-1.22-3.45-2.14-5.29-2.76c-1.54-0.61-2.99-1.22-4.37-1.84c-1.38-0.61-2.38-1.53-2.99-2.76c-0.92-2.45-0.69-3.83 0.69-4.14c1.38-0.3 2.68 0.31 3.91 1.84c1.53 1.54 2.14 2.92 1.84 4.14c-0.31 1.23-0.46 2.46-0.46 3.68c-0.62 0.92-1 1.54-1.15 1.84c-0.16 0.31-0.23 1.23-0.23 2.76c0 3.68 1.76 6.21 5.29 7.58c3.52 1.38 7.43 2.07 11.72 2.07c3.06 0.31 6.51 0.62 10.34 0.92c3.83 0.31 6.82 0.92 8.96 1.84c-1.84-2.45-2.76-5.67-2.76-9.65c0-1.53 0.3-3.68 0.92-6.44c0.61-2.76 0.92-5.21 0.92-7.35c0-7.05-1.46-11.33-4.37-12.87c-2.92-1.53-5.6-1.99-8.04-1.38c-1.23 0.31-2.38 0.39-3.45 0.23c-1.08-0.15-1.92-0.99-2.53-2.53c-0.62-1.53-0.54-2.53 0.23-2.99c0.76-0.46 1.61-0.69 2.53-0.69c3.06 0 4.6 2.61 4.6 7.81c0 3.38 0.92 5.75 2.76 7.13c1.84 1.38 3.52 2.07 5.06 2.07c1.53 0 3.22-0.3 5.06-0.92c1.84-0.61 3.52-1.22 5.06-1.84c1.53-0.92 3.37-1.76 5.52-2.53c2.14-0.76 5.21-1.15 9.19-1.15c8.88 0 13.33 4.14 13.33 12.41c0 6.74-2.76 12.8-8.27 18.16c-5.52 5.37-11.8 8.04-18.85 8.04c-1.84 0-4.22-0.07-7.13-0.23c-2.92-0.15-6.67-1.45-11.26-3.91v27.12h-19.77c3.37 7.05 3.06 13.03-0.92 17.93c-3.99 4.91-9.5 7.35-16.55 7.35c-3.38 0-6.36-0.3-8.96-0.92c-2.61-0.61-5.44-2.14-8.5-4.6c-3.07-2.45-6.36-5.13-9.88-8.04c-3.53-2.91-6.21-4.67-8.04-5.29c2.45-1.53 5.75-3.98 9.88-7.35c4.14-3.37 7.89-6.59 11.26-9.65c4.6-3.98 9.57-8.65 14.94-14.02c5.36-5.36 8.04-10.34 8.04-14.94c0-2.45-0.62-4.06-1.84-4.83c-1.23-0.76-2.15-1.15-2.76-1.15c-0.92 0-1.84 0.39-2.76 1.15c-0.92 0.77-1.38 2.23-1.38 4.37c0 2.76 1.22 5.9 3.68 9.42c2.45 3.53 5.06 6.21 7.81 8.04c2.45 2.15 5.52 4.22 9.19 6.21c3.68 2 6.59 3.91 8.73 5.75c-0.62-2.76-0.62-5.21 0-7.35c0.61-2.14 1.53-4.9 2.76-8.27c1.22-3.06 2.22-6.59 2.99-10.57c0.76-3.98 1.15-7.97 1.15-11.95c0-1.53-0.54-3.37-1.61-5.52c-1.08-2.14-2.99-3.22-5.75-3.22c-3.07 0-4.6 1.84-4.6 5.52c0 2.46 1.07 4.6 3.22 6.44c2.14 1.84 4.44 2.76 6.9 2.76c2.76 0 6.9-0.46 12.41-1.38c2.76-0.61 5.75-1.07 8.96-1.38c3.22-0.3 6.51-0.15 9.88 0.46c-4.91-4.29-7.35-11.49-7.35-21.6c0-4.9-1.08-8.73-3.22-11.49c-2.15-2.76-4.3-4.14-6.44-4.14c-2.15 0-3.45 0.69-3.91 2.07c-0.46 1.38-0.69 2.38-0.69 2.99c0 2.46 0.92 4.22 2.76 5.29c1.84 1.08 3.37 1.61 4.6 1.61c1.22 0 3.22-0.23 5.98-0.69c2.76-0.46 5.52-0.99 8.27-1.61c2.76-0.92 5.9-1.99 9.42-3.22c3.52-1.22 6.51-1.84 8.96-1.84c-3.38-3.37-5.29-6.97-5.75-10.8c-0.46-3.83-1.31-7.89-2.53-12.18c-1.23-3.06-2.46-5.82-3.68-8.27l-1.84 0.46zm1.84-0.46c-3.99-5.82-8.12-8.73-12.41-8.73c-3.99 0-5.98 1.69-5.98 5.06c0 2.46 0.92 4.3 2.76 5.52c1.84 1.23 3.98 1.84 6.44 1.84c4.9 0 9.8-1.3 14.71-3.91c4.9-2.6 9.34-6.44 13.33-11.49c3.98-5.06 7.2-11.26 9.65-18.62c2.45-7.35 3.68-15.78 3.68-25.28c0-10.11-2.53-18.39-7.58-24.82c-5.06-6.44-10.34-9.65-15.86-9.65c-10.73 0-16.09 6.59-16.09 19.77c0 5.21 0 9.58 0 13.1c0 3.53-2.15 5.29-6.44 5.29c-1.54 0-2.76-0.46-3.68-1.38c-0.92-0.92-2.46-1.38-4.6-1.38c-2.15 0-3.61 0.69-4.37 2.07c-0.77 1.38-1 2.69-0.69 3.91c0.3 2.76 1.99 4.14 5.06 4.14c3.06 0 5.36-1.99 6.9-5.98c0.61-1.84 1.3-3.75 2.07-5.75c0.76-1.99 2.22-2.99 4.37-2.99c2.45 0 4.98 0.92 7.58 2.76c2.6 1.84 4.98 3.84 7.13 5.98c1.84 1.84 3.83 3.61 5.98 5.29c2.14 1.69 3.98 2.84 5.52 3.45c-2.15 1.84-3.91 3.91-5.29 6.21c-1.38 2.3-2.99 4.68-4.83 7.13c-1.84 3.07-3.91 5.98-6.21 8.73c-2.3 2.76-4.37 4.14-6.21 4.14c-2.15 0-4.3-1.38-6.44-4.14c-0.62-1.22-1.61-2.14-2.99-2.76c-1.38-0.61-2.53-0.92-3.45-0.92c-3.68 0-5.52 1.38-5.52 4.14c0 3.99 1.84 5.98 5.52 5.98c1.84 0 3.45-0.46 4.83-1.38c1.38-0.92 2.37-1.68 2.99-2.3c0.61-0.61 1.22-1.38 1.84-2.3c0.61-0.92 1.68-1.38 3.22-1.38c2.45 0 4.75 0.77 6.9 2.3l0.92-0.92c-2.76-2.14-5.06-3.22-6.9-3.22c-2.46 0-4.3 0.39-5.52 1.15c-1.23 0.77-2.3 1.77-3.22 2.99c-0.62 0.62-1.38 1.31-2.3 2.07c-0.92 0.77-2.3 1.15-4.14 1.15c-1.23 0-2-0.46-2.3-1.38c-0.31-0.92-0.46-1.68-0.46-2.3c0-2.14 1.38-3.22 4.14-3.22c2.45 0 4.6 1.23 6.44 3.68c0.61 0.92 1.45 2 2.53 3.22c1.07 1.23 2.83 1.84 5.29 1.84c2.76 0 5.67-1.91 8.73-5.75c3.06-3.83 5.67-7.28 7.81-10.34c1.53-2.76 2.83-5.13 3.91-7.13c1.07-1.99 2.83-4.06 5.29-6.21c-1.54-0.3-3.3-0.84-5.29-1.61c-2-0.76-5.6-3.29-10.8-7.58c-2.15-1.84-4.52-3.75-7.13-5.75c-2.61-1.99-5.14-2.99-7.58-2.99c-1.84 0-3.76 0.85-5.75 2.53c-2 1.69-3.3 3.76-3.91 6.21c-0.31 0.62-0.62 1.77-0.92 3.45c-0.31 1.69-1.23 2.53-2.76 2.53c-2.46 0-3.68-1.22-3.68-3.68c-0.31-0.61 0-1.38 0.92-2.3c0.92-0.92 2.14-1.38 3.68-1.38c1.53 0 2.68 0.39 3.45 1.15c0.76 0.77 2.37 1.15 4.83 1.15c4.29 0 7.05-1.76 8.27-5.29c1.22-3.52 1.84-7.89 1.84-13.1c0-6.13 0.53-10.95 1.61-14.48c1.07-3.52 3.75-5.29 8.04-5.29c6.44 0 12.02 3.07 16.78 9.19c4.75 6.13 7.13 14.25 7.13 24.36c0 8.89-1.38 16.86-4.14 23.9c-2.76 7.05-6.21 12.95-10.34 17.7c-4.14 4.75-8.66 8.35-13.56 10.8c-4.91 2.46-9.65 3.68-14.25 3.68c-2.15 0-3.61-0.53-4.37-1.61c-0.77-1.07-1.15-2.07-1.15-2.99c0-2.14 1.38-3.22 4.14-3.22c3.68 0 7.35 2.61 11.03 7.81l1.84-0.46z" />
	<path id="stars" class="s3" d="m128 23c0 0 7.42 4.51 10.37 4.51c3.04 0 10.63-4.51 10.63-4.51c0 0-4.52 7.46-4.52 10.43c0 3.02 4.52 10.57 4.52 10.57c0 0-7.54-4.51-10.55-4.51c-2.98 0-10.45 4.51-10.45 4.51c0 0 4.52-7.5 4.52-10.49c0-3-4.52-10.51-4.52-10.51zm0 410c0 0 7.42 4.51 10.37 4.51c3.04 0 10.63-4.51 10.63-4.51c0 0-4.52 7.46-4.52 10.43c0 3.02 4.52 10.57 4.52 10.57c0 0-7.54-4.51-10.55-4.51c-2.98 0-10.45 4.51-10.45 4.51c0 0 4.52-7.5 4.52-10.49c0-3-4.52-10.51-4.52-10.51z" />
</svg>