<svg version="1.2" baseProfile="tiny-ps" xmlns="http://www.w3.org/2000/svg" viewBox="0 0 350 500" width="350" height="500" >
	<title>moon emblem by Dan N</title>
<defs>
   <linearGradient id="gold" x1="0%" y1="8%" x2="100%" y2="92%" >
    
          <stop offset="0%" style="stop-color:rgb(167,137,66);stop-opacity:1.00" />
          <stop offset="43%" style="stop-color:rgb(252,216,130);stop-opacity:1.00" />
          <stop offset="47%" style="stop-color:rgb(255,229,168);stop-opacity:1.00" />
          <stop offset="100%" style="stop-color:rgb(167,137,66);stop-opacity:1.00" />

    </linearGradient>
  </defs>

	<style>
		tspan { white-space:pre }
		.s0 { fill: #a78942 } 
		.s1 { fill: #cbab5e } 
		.s2 { fill: none;stroke: url(#gold);stroke-width: 1 } 
		.s3 { fill: none;stroke: #f8da93;stroke-width: 7.4 } 
		.s4 { fill: none;stroke: #f8da93;stroke-width: 2 } 
.dofill{fill:#1d6069;}
.dogold{fill: url(#gold);}
.dogoldstroke{stroke: url(#gold);}
	</style>
	<path id="fm" class="s0 dogoldstroke" d="m175 168.1c45.23 0 81.9 36.67 81.9 81.9c0 45.23-36.67 81.9-81.9 81.9c-45.23 0-81.9-36.67-81.9-81.9c0-45.23 36.67-81.9 81.9-81.9z" />
	<path id="hm" class="s1" d="m194.91 174.47c0 0-40.5 17.89-40 74.5c0.5 56.61 41.09 77.5 41.09 77.5c0 0-56.41 16.18-88.35-36.11c-34.58-56.61 14.54-99.73 14.54-99.73c0 0 31.52-30 72.72-16.17z" />
	<path id="e1" class="s2 dofill" d="m231.15 134.98c-0.71 2.06-1.97 3.84-3.77 5.33c-1.81 1.49-3.77 2.45-5.9 2.88c-0.99 0.21-2.06 0.28-3.19 0.21c-1.13-0.07-2.13-0.43-2.98-1.07c-0.43-0.28-0.71-0.67-0.85-1.17c-0.14-0.64-0.02-1.14 0.37-1.49c0.39-0.35 0.87-0.5 1.44-0.43c0.57 0 1.03 0.16 1.38 0.48c0.35 0.32 0.64 0.69 0.85 1.12c0 0.07-0.04 0.11-0.11 0.11h-0.11c-0.14-0.35-0.39-0.69-0.74-1.01c-0.36-0.32-0.78-0.48-1.28-0.48c-0.5-0.07-0.94 0.04-1.33 0.32c-0.39 0.28-0.52 0.71-0.37 1.28c0.21 0.5 0.5 0.85 0.85 1.07c0.78 0.64 1.74 1 2.87 1.07c1.13 0.07 2.2 0 3.19-0.21c4.47-0.92 7.02-3.77 7.66-8.53c0.57-3.13 0.21-6.09-1.06-8.9c-1.28-2.81-3.26-5.03-5.95-6.66c-1.77-1.07-3.7-1.79-5.79-2.19c-2.09-0.39-4.22-0.53-6.38-0.43c-2.16 0.11-4.27 0.5-6.33 1.17c-2.06 0.68-3.9 1.55-5.53 2.61c1.35 0 2.83 0 4.47 0c1.63 0 3.28 0.12 4.94 0.37c1.66 0.25 3.24 0.64 4.73 1.17c1.49 0.53 2.76 1.3 3.83 2.29c1.06 1 1.68 2.04 1.86 3.15c0.18 1.1 0.05 2.15-0.37 3.15c-0.43 1-1.08 1.92-1.97 2.77c-0.89 0.85-1.86 1.53-2.92 2.03c-1.56 0.78-3.26 1.39-5.1 1.81c-1.84 0.43-3.72 0.69-5.64 0.8c-1.91 0.11-3.81 0.07-5.69-0.11c-1.88-0.18-3.63-0.44-5.26-0.8c-1.06-0.28-2.22-0.59-3.46-0.91c-1.24-0.32-2.46-0.76-3.67-1.33c-1.21-0.57-2.3-1.19-3.3-1.87c-0.99-0.67-1.77-1.58-2.34-2.72c-0.78-1.35-0.96-2.42-0.53-3.2c0.43-0.78 1.12-1.39 2.07-1.81c0.96-0.43 2.05-0.69 3.3-0.8c1.24-0.11 2.36-0.16 3.35-0.16c1.13 0.07 2.3 0.2 3.51 0.37c1.2 0.18 2.3 0.34 3.3 0.48c0.92-1.78 2.02-3.23 3.3-4.37c-3.26 0.14-6.5 0.52-9.73 1.12c-3.23 0.6-6.45 1.33-9.68 2.19c-3.23 0.85-6.43 1.72-9.62 2.61c-3.19 0.89-6.38 1.65-9.57 2.29c0.28 0.21 0.65 0.64 1.12 1.28c0.46 0.64 1.15 1.39 2.07 2.24c0.64-0.5 1.4-0.8 2.29-0.91c0.89-0.11 1.68 0.05 2.39 0.48c0.78 0.5 1.04 1.14 0.8 1.92c-0.25 0.78-0.9 1.1-1.97 0.96c-0.71-0.07-1.33-0.3-1.86-0.69c-0.53-0.39-1.01-0.8-1.44-1.23c-0.14 0-0.21-0.02-0.21-0.05c0-0.03-0.07-0.09-0.21-0.16c-0.43 0.36-0.85 0.73-1.28 1.12c-0.43 0.39-0.92 0.76-1.49 1.12c0.07 0.14 0.14 0.23 0.21 0.27c0.07 0.04 0.14 0.12 0.21 0.27c0.14-0.14 0.28-0.21 0.43-0.21c0.35-0.14 0.8-0.25 1.33-0.32c0.53-0.07 1.08-0.03 1.65 0.11c0.57 0.14 0.97 0.37 1.22 0.69c0.25 0.32 0.35 0.66 0.32 1.01c-0.04 0.36-0.23 0.66-0.58 0.91c-0.36 0.25-0.85 0.3-1.49 0.16c-0.64-0.07-1.21-0.3-1.7-0.69c-0.5-0.39-0.92-0.83-1.28-1.33c-0.57 0.21-1.05 0.48-1.44 0.8c-0.39 0.32-0.87 0.66-1.44 1.01c0.07 0 0.14 0.02 0.21 0.05c0.07 0.04 0.14 0.05 0.21 0.05c2.05 1.42 4.25 2.17 6.59 2.24c1.13 0.14 2.27 0.16 3.4 0.05c1.13-0.11 2.3-0.23 3.51-0.37c-0.64-1.14-0.92-2.27-0.85-3.41c0.07-1.14 0.48-2.01 1.22-2.61c0.74-0.6 1.54-0.92 2.39-0.96c0.85-0.03 1.63 0.21 2.34 0.75c0.71 0.53 1.1 1.33 1.17 2.4c0 1.07-0.36 2.06-1.06 2.99c4.25-0.71 8.54-0.71 12.86 0c0.92 0.21 1.98 0.5 3.19 0.85c1.2 0.36 2.37 0.8 3.51 1.33c1.13 0.53 2.16 1.16 3.08 1.87c0.92 0.71 1.59 1.56 2.02 2.56c0.57 1.49 0.35 2.7-0.64 3.62c-0.99 0.92-2.16 1.49-3.51 1.71c-0.99 0.14-1.99 0.21-2.98 0.21c-0.99 0-1.88-0.03-2.66-0.11c-1.77-0.21-3.58-0.6-5.42-1.17c-1.84-0.57-3.61-1.26-5.32-2.08c-1.7-0.82-3.24-1.74-4.63-2.77c-1.38-1.03-2.54-2.11-3.46-3.25c-2.06 1-4.25 1.78-6.59 2.35c-2.34 0.57-4.73 0.98-7.18 1.23c-2.45 0.25-4.89 0.34-7.34 0.27c-2.45-0.07-4.77-0.32-6.96-0.75c0.57 0.64 1.1 1.33 1.59 2.08c0.5 0.75 1.03 1.48 1.59 2.19c1.42 0.21 2.73 0.52 3.93 0.91c1.2 0.39 2.13 1.01 2.76 1.87c0.78 0.78 1.03 1.49 0.74 2.13c-0.21 0.64-0.78 0.96-1.7 0.96c-0.78 0-1.58-0.21-2.39-0.64c-0.82-0.43-1.59-0.94-2.34-1.55c-0.74-0.6-1.44-1.24-2.07-1.92c-0.64-0.67-1.17-1.3-1.59-1.87l-0.43-0.11c-0.92 0-1.81-0.11-2.66-0.32c0.14 0.28 0.28 0.53 0.43 0.75c0.14 0.21 0.28 0.46 0.43 0.75c0.35 0.14 0.81 0.32 1.38 0.53c0.57 0.21 1.13 0.48 1.7 0.8c0.57 0.32 1.04 0.67 1.44 1.07c0.39 0.39 0.55 0.8 0.48 1.23c-0.07 0.43-0.25 0.76-0.53 1.01c-0.28 0.25-0.6 0.37-0.96 0.37c-0.5 0-0.92-0.2-1.28-0.59c-0.36-0.39-0.69-0.85-1.01-1.39c-0.32-0.53-0.58-1.07-0.8-1.6c-0.21-0.53-0.43-0.98-0.64-1.33c-0.14 0-0.27-0.02-0.37-0.05c-0.11-0.03-0.23-0.05-0.37-0.05c-0.99-0.28-2.11-0.55-3.35-0.8c-1.24-0.25-2.5-0.39-3.77-0.43c-1.28-0.03-2.5 0.09-3.67 0.37c-1.17 0.28-2.14 0.85-2.92 1.71c-0.78 0.85-1.19 1.69-1.22 2.51c-0.04 0.82 0.18 1.56 0.64 2.24c0.46 0.67 1.12 1.23 1.97 1.65c0.85 0.43 1.74 0.64 2.66 0.64c0.99 0 1.86-0.25 2.6-0.75c0.74-0.5 1.26-1.1 1.54-1.81c0.21-0.85-0.05-1.56-0.8-2.13c-0.74-0.57-1.58-0.78-2.5-0.64c-0.5 0.07-0.96 0.28-1.38 0.64c-0.43 0.35-0.53 0.82-0.32 1.39c0.07 0.21 0.21 0.48 0.43 0.8c0.21 0.32 0.5 0.44 0.85 0.37c0.14 0 0.21 0.03 0.21 0.11h-0.21c-0.36 0.14-0.66 0.07-0.9-0.21c-0.25-0.28-0.41-0.6-0.48-0.96c-0.36-0.64-0.28-1.17 0.21-1.6c0.5-0.43 1.03-0.68 1.59-0.75c0.99-0.14 1.93 0.09 2.82 0.69c0.89 0.6 1.4 1.4 1.54 2.4c0.07 0.71-0.07 1.3-0.43 1.76c-0.36 0.46-0.8 0.85-1.33 1.17c-0.53 0.32-1.1 0.53-1.7 0.64c-0.6 0.11-1.15 0.16-1.65 0.16c-1.06 0-2.02-0.28-2.87-0.85c-0.85-0.57-1.53-1.28-2.02-2.13c-0.5-0.85-0.73-1.78-0.69-2.77c0.03-1 0.44-1.92 1.22-2.77c0.78-0.85 1.77-1.44 2.98-1.76c1.2-0.32 2.46-0.46 3.77-0.43c1.31 0.04 2.6 0.2 3.88 0.48c1.28 0.28 2.41 0.57 3.4 0.85c0.14 0 0.23 0.02 0.27 0.05c0.03 0.04 0.12 0.05 0.27 0.05c-0.28-0.5-0.57-0.96-0.85-1.39c-1.21-0.14-2.23-0.37-3.08-0.69c-0.85-0.32-1.45-0.76-1.81-1.33c-0.36-0.64-0.34-1.1 0.05-1.39c0.39-0.28 0.87-0.35 1.44-0.21c0.71 0.14 1.35 0.53 1.91 1.17c0.57 0.64 1.1 1.39 1.59 2.24c0.5 0.14 0.97 0.23 1.44 0.27c0.46 0.04 0.94 0.09 1.44 0.16h0.11c-0.5-0.71-0.99-1.44-1.49-2.19c-0.5-0.75-1.03-1.51-1.59-2.29c-2.06-0.43-4.04-1.07-5.95-1.92c-1.13-0.57-1.79-1.14-1.97-1.71c-0.18-0.57-0.04-1.05 0.43-1.44c0.46-0.39 1.12-0.59 1.97-0.59c0.85 0 1.74 0.32 2.66 0.96c1.35 0.78 2.69 1.96 4.04 3.52c2.2 0.36 4.54 0.57 7.02 0.64c2.48 0.07 4.98 0 7.5-0.21c2.52-0.21 4.98-0.6 7.39-1.17c2.41-0.57 4.64-1.31 6.7-2.24v-0.11c-1.21 0.14-2.39 0.27-3.56 0.37c-1.17 0.11-2.36 0.09-3.56-0.05c-2.34-0.21-4.54-0.92-6.59-2.13l-0.43-0.43c-0.14 0.07-0.28 0.14-0.43 0.21c-0.14 0.07-0.28 0.14-0.43 0.21c-0.36 0.14-0.9 0.27-1.65 0.37c-0.74 0.11-1.44 0.05-2.07-0.16c-0.57-0.21-0.94-0.53-1.12-0.96c-0.18-0.43-0.21-0.83-0.11-1.23c0.11-0.39 0.32-0.71 0.64-0.96c0.32-0.25 0.76-0.27 1.33-0.05c0.43 0.14 0.81 0.34 1.17 0.59c0.35 0.25 0.71 0.48 1.06 0.69c0.28 0.14 0.55 0.32 0.8 0.53c0.25 0.21 0.51 0.43 0.8 0.64c0.5-0.35 0.97-0.69 1.44-1.01c0.46-0.32 0.94-0.62 1.44-0.91c-0.07-0.14-0.21-0.32-0.43-0.53c-0.28 0.14-0.67 0.28-1.17 0.43c-0.5 0.14-0.92 0.18-1.28 0.11c-0.85-0.07-1.37-0.35-1.54-0.85c-0.18-0.5-0.16-0.96 0.05-1.39c0.21-0.43 0.6-0.69 1.17-0.8c0.57-0.11 1.2 0.23 1.91 1.01c0.14 0.21 0.3 0.41 0.48 0.59c0.18 0.18 0.34 0.37 0.48 0.59c0.57-0.28 1.04-0.62 1.44-1.01c0.39-0.39 0.83-0.76 1.33-1.12c-0.78-0.71-1.58-1.35-2.39-1.92c-0.82-0.57-1.54-1.03-2.18-1.39c-0.57 0.07-1.15 0.14-1.75 0.21c-0.6 0.07-1.19 0.18-1.75 0.32c-1.63 0.36-3.26 0.64-4.89 0.85c-1.63 0.21-3.3 0.39-5 0.53c-1.99 0.21-4.01 0.28-6.06 0.21c-2.06-0.07-4.01-0.32-5.85-0.75c-3.47-0.71-6.24-1.81-8.29-3.31c-0.71-0.57-1.26-1.1-1.65-1.6c-0.39-0.5-0.69-1.03-0.9-1.6c-0.28-0.99-0.14-1.99 0.43-2.99c0.64-0.99 1.45-1.74 2.45-2.24c0.28-0.14 0.51-0.27 0.69-0.37c0.18-0.11 0.37-0.19 0.58-0.27c1.42-0.71 3.17-1.24 5.26-1.6c2.09-0.35 4.47-0.32 7.12 0.11c2.66 0.43 5.55 1.4 8.67 2.93c3.12 1.53 6.45 3.78 9.99 6.77c3.74-0.8 7.46-1.56 11.15-2.27c-0.61-0.2-1.18-0.46-1.69-0.77c-0.68-0.49-1.31-1.04-1.89-1.67c-0.58-0.63-1.07-1.38-1.45-2.26c-0.29-0.78-0.45-1.6-0.47-2.47c-0.02-0.87 0.1-1.7 0.36-2.47c0.27-0.78 0.68-1.48 1.23-2.11c0.56-0.63 1.27-1.12 2.14-1.46c0.97-0.34 2.02-0.47 3.16-0.4c1.14 0.07 2.09 0.52 2.87 1.35c0.39 0.44 0.65 0.96 0.8 1.57c0.15 0.61 0.05 1.18-0.29 1.71c-0.44 0.82-1.28 1.21-2.54 1.16v-0.15c0-0.1 0.02-0.15 0.07-0.15c0.53 0.1 0.99 0.04 1.38-0.18c0.39-0.22 0.68-0.47 0.87-0.76c0.24-0.53 0.3-1.07 0.18-1.6c-0.12-0.53-0.38-1.02-0.76-1.46c-0.68-0.78-1.56-1.2-2.65-1.27c-1.09-0.07-2.09 0.08-3.01 0.47c-1.6 0.68-2.64 1.82-3.12 3.42c-0.48 1.6-0.44 3.18 0.15 4.73c0.29 0.82 0.71 1.54 1.27 2.15c0.56 0.61 1.2 1.13 1.92 1.57c0.8 0.49 1.61 0.78 2.44 0.88c1.19-0.23 2.38-0.46 3.57-0.67c0.49-0.27 0.96-0.6 1.4-1.01c0.68-0.63 1.23-1.41 1.67-2.33c0.48-1.07 0.75-2.23 0.8-3.49c0.05-1.26-0.13-2.52-0.54-3.79c-0.41-1.26-1.02-2.49-1.81-3.68c-0.8-1.19-1.78-2.22-2.94-3.09c-0.82 0.44-1.63 0.87-2.43 1.31c-0.8 0.44-1.73 0.7-2.79 0.8c-1.07 0.15-1.9-0.04-2.5-0.55c-0.61-0.51-0.93-1.09-0.98-1.75c-0.05-0.66 0.23-1.26 0.83-1.82c0.6-0.56 1.56-0.81 2.87-0.76c2.03 0.15 4.04 0.75 6.03 1.82c0.34-0.24 0.68-0.46 1.02-0.66c0.34-0.19 0.7-0.34 1.09-0.44c-0.15-0.29-0.28-0.57-0.4-0.84c-0.12-0.27-0.25-0.57-0.4-0.91l-0.65-1.31c-0.24-0.48-0.5-0.93-0.76-1.35c-0.27-0.41-0.54-0.84-0.83-1.27c-0.48 0.53-1 0.97-1.56 1.31c-0.56 0.34-1.2 0.51-1.92 0.51c-1.16 0-2.03-0.25-2.61-0.76c-0.58-0.51-0.87-1.04-0.87-1.6c0-0.56 0.28-1.04 0.83-1.46c0.56-0.41 1.42-0.55 2.58-0.4c0.63 0.1 1.21 0.29 1.74 0.58c0.53 0.29 1.02 0.63 1.45 1.02c0.1 0.15 0.22 0.29 0.36 0.44c0.1-0.1 0.17-0.19 0.22-0.29c0.19-0.15 0.36-0.28 0.51-0.4c0.15-0.12 0.31-0.3 0.51-0.55c-0.48-0.87-0.8-1.82-0.94-2.84c-0.15-1.02-0.39-2.01-0.73-2.98c-0.53 0.34-1.05 0.61-1.56 0.8c-0.51 0.19-1 0.29-1.49 0.29c-0.97-0.1-1.63-0.4-2-0.91c-0.36-0.51-0.48-1.03-0.36-1.57c0.12-0.53 0.42-0.98 0.91-1.35c0.48-0.36 1.14-0.45 1.96-0.25c0.77 0.19 1.37 0.52 1.78 0.98c0.41 0.46 0.74 0.98 0.98 1.57c0.1-0.05 0.31-0.19 0.65-0.44c0.24-0.1 0.5-0.23 0.76-0.4c0.27-0.17 0.54-0.33 0.83-0.47c-0.44-0.97-0.81-1.97-1.13-2.98c-0.32-1.02-0.76-1.97-1.34-2.84c-0.44 0.39-0.9 0.76-1.38 1.13c-0.48 0.36-1.04 0.59-1.67 0.69c-0.87 0.1-1.56-0.04-2.07-0.4c-0.51-0.36-0.81-0.81-0.91-1.35c-0.1-0.53 0.05-1.04 0.44-1.53c0.39-0.48 1.02-0.8 1.89-0.95c1.02-0.15 2.01 0.22 2.98 1.09c0.1 0.1 0.22 0.22 0.36 0.36c0.15 0.15 0.27 0.29 0.36 0.44c0-0.05 0.07-0.15 0.22-0.29c0.19-0.15 0.35-0.3 0.47-0.47c0.12-0.17 0.25-0.35 0.4-0.55c-0.19-0.48-0.32-0.99-0.36-1.53c-0.05-0.53-0.1-1.07-0.15-1.6c0-0.24 0-0.48 0-0.73c0-0.24-0.05-0.46-0.15-0.66c-0.44 0.24-0.88 0.46-1.34 0.66c-0.46 0.19-1.03 0.29-1.71 0.29c-0.97 0-1.62-0.23-1.96-0.69c-0.34-0.46-0.44-0.93-0.29-1.42c0.15-0.48 0.5-0.88 1.05-1.2c0.56-0.32 1.29-0.38 2.21-0.18c0.29 0.1 0.6 0.25 0.94 0.47c0.34 0.22 0.63 0.52 0.87 0.91c0.05 0.1 0.1 0.19 0.15 0.29c0.05 0.1 0.12 0.19 0.22 0.29c0.15-0.15 0.3-0.29 0.47-0.44c0.17-0.15 0.33-0.29 0.47-0.44c0.19-0.19 0.34-0.36 0.44-0.51c-0.19-0.34-0.36-0.72-0.51-1.13c-0.15-0.41-0.29-0.84-0.44-1.27c-1.26 0.19-2.49 0.11-3.7-0.25c-1.21-0.36-2.23-1.08-3.05-2.15c-0.24-0.34-0.42-0.73-0.54-1.16c-0.12-0.44-0.17-0.86-0.15-1.27c0.02-0.41 0.16-0.78 0.4-1.09c0.24-0.32 0.63-0.55 1.16-0.69c0.63-0.15 1.23-0.1 1.81 0.15c0.58 0.24 1.1 0.58 1.56 1.02c0.46 0.44 0.87 0.93 1.23 1.49c0.36 0.56 0.64 1.08 0.83 1.57c2.13-0.29 3.94-1.06 5.44-2.29c1.5-1.24 2.59-2.75 3.27-4.55c0.58-1.41 0.83-2.88 0.76-4.4c-0.07-1.53-0.41-2.94-1.02-4.22c-0.61-1.29-1.46-2.38-2.58-3.28c-1.11-0.9-2.47-1.47-4.07-1.71c-1.84-0.29-3.7-0.17-5.59 0.36c-1.89 0.53-3.46 1.55-4.72 3.06c-0.63 0.73-1.1 1.54-1.42 2.44c-0.32 0.9-0.46 1.8-0.44 2.69c0.02 0.9 0.23 1.77 0.62 2.62c0.39 0.85 0.99 1.59 1.81 2.22c0.73 0.53 1.5 0.95 2.32 1.24c0.82 0.29 1.69 0.46 2.61 0.51c0.97 0.1 1.94-0.02 2.9-0.36c0.97-0.34 1.81-0.87 2.54-1.6c0.44-0.48 0.79-1.03 1.05-1.64c0.27-0.61 0.35-1.25 0.25-1.93c-0.1-0.97-0.52-1.83-1.27-2.58c-0.75-0.75-1.61-1.18-2.58-1.27c-0.82-0.05-1.77 0.22-2.83 0.8c-0.1 0.1-0.19 0.07-0.29-0.07c0-0.1 0.05-0.15 0.15-0.15c0.53-0.39 1.04-0.63 1.52-0.73c0.48-0.1 0.99-0.1 1.52 0c1.02 0 1.92 0.4 2.72 1.2c0.8 0.8 1.27 1.74 1.42 2.8c0.1 0.68 0 1.35-0.29 2c-0.29 0.66-0.7 1.23-1.23 1.71c-0.77 0.83-1.65 1.41-2.61 1.75c-0.97 0.34-1.96 0.46-2.98 0.36c-0.92-0.05-1.81-0.24-2.69-0.58c-0.87-0.34-1.65-0.78-2.32-1.31c-0.87-0.63-1.51-1.38-1.92-2.26c-0.41-0.87-0.64-1.78-0.69-2.73c-0.05-0.95 0.1-1.88 0.44-2.8c0.34-0.92 0.85-1.77 1.52-2.55c1.26-1.55 2.84-2.6 4.75-3.13c1.91-0.53 3.83-0.66 5.77-0.36c1.64 0.24 3.18 0.85 4.61 1.82c1.43 0.97 2.6 2.16 3.52 3.57c0.92 1.41 1.52 2.95 1.81 4.62c0.29 1.67 0.15 3.31-0.44 4.91c-0.34 1.07-0.86 2.06-1.56 2.98c-0.7 0.92-1.52 1.75-2.47 2.47c-0.94 0.73-1.96 1.31-3.05 1.75c-1.09 0.44-2.17 0.73-3.23 0.87c-0.1 0.05-0.22 0.07-0.36 0.07c0.15 0.44 0.28 0.85 0.4 1.24c0.12 0.39 0.28 0.75 0.47 1.09c0.87-0.82 1.62-1.29 2.25-1.38c0.63-0.1 1.14 0 1.52 0.29c0.39 0.29 0.64 0.7 0.76 1.24c0.12 0.53 0.1 1.02-0.07 1.46c-0.17 0.44-0.48 0.75-0.94 0.95c-0.46 0.19-1.08 0.1-1.85-0.29c-0.39-0.19-0.73-0.45-1.02-0.76c-0.29-0.32-0.53-0.64-0.73-0.98c-0.05 0.05-0.19 0.15-0.44 0.29c-0.29 0.39-0.65 0.75-1.09 1.09c0.24 0.49 0.36 1 0.36 1.53c0.05 0.53 0.08 1.06 0.11 1.57c0.02 0.51 0.11 1.01 0.25 1.49c0.44-0.44 0.91-0.79 1.42-1.06c0.51-0.27 1.1-0.42 1.78-0.47c0.58 0 1.02 0.19 1.31 0.58c0.29 0.39 0.44 0.84 0.44 1.35c0 0.51-0.16 0.96-0.47 1.35c-0.32 0.39-0.81 0.58-1.49 0.58c-1.55 0-2.57-0.61-3.05-1.82c-0.15 0.15-0.29 0.28-0.44 0.4c-0.15 0.12-0.27 0.28-0.36 0.47c-0.15 0.15-0.24 0.22-0.29 0.22c0.68 0.92 1.15 1.92 1.42 2.98c0.27 1.07 0.64 2.11 1.13 3.13c1.06-0.68 2.13-1.02 3.19-1.02c1.06-0.05 1.83 0.16 2.29 0.62c0.46 0.46 0.68 0.98 0.65 1.57c-0.02 0.58-0.28 1.1-0.76 1.57c-0.48 0.46-1.14 0.64-1.96 0.55c-0.82-0.1-1.51-0.42-2.07-0.98c-0.56-0.56-1.03-1.2-1.42-1.93c-0.29 0.15-0.56 0.29-0.8 0.44c-0.24 0.15-0.51 0.29-0.8 0.44c-0.29 0.19-0.53 0.36-0.73 0.51c0.34 0.97 0.58 1.93 0.73 2.88c0.15 0.95 0.41 1.91 0.8 2.88c0.68-0.48 1.37-0.85 2.07-1.09c0.7-0.24 1.54-0.24 2.5 0c0.73 0.19 1.22 0.51 1.49 0.95c0.27 0.44 0.35 0.87 0.25 1.31c-0.1 0.44-0.35 0.83-0.76 1.16c-0.41 0.34-0.98 0.51-1.71 0.51c-0.87 0-1.59-0.17-2.14-0.51c-0.56-0.34-1.03-0.78-1.42-1.31c-0.1-0.19-0.22-0.36-0.36-0.51c-0.34 0.34-0.61 0.58-0.8 0.73c-0.05 0.1-0.17 0.24-0.36 0.44c0.34 0.39 0.64 0.8 0.91 1.24c0.27 0.44 0.52 0.87 0.76 1.31c0.1 0.24 0.22 0.47 0.36 0.69c0.15 0.22 0.27 0.45 0.36 0.69c0.24 0.58 0.53 1.14 0.87 1.67c0.48-0.15 0.99-0.27 1.52-0.36c0.53-0.1 1.14-0.1 1.81 0c1.35 0.15 2.25 0.55 2.69 1.2c0.44 0.66 0.54 1.27 0.33 1.86c-0.22 0.58-0.71 0.98-1.49 1.2c-0.77 0.22-1.67-0.06-2.69-0.84c-0.53-0.39-0.98-0.8-1.34-1.24c-0.36-0.44-0.69-0.92-0.98-1.46c-0.39 0.1-0.74 0.23-1.05 0.4c-0.32 0.17-0.64 0.35-0.98 0.55c0.05 0.05 0.1 0.07 0.15 0.07c0.05 0 0.12 0.03 0.22 0.07c1.89 1.12 3.51 2.56 4.86 4.33c1.35 1.77 2.15 3.77 2.4 6.01c0.1 0.87 0.06 1.76-0.11 2.66c-0.17 0.9-0.5 1.73-0.98 2.51c-0.4 0.66-0.85 1.23-1.36 1.71c6.72-1.16 13.63-1.88 20.74-2.16c1.63-1.63 3.58-2.99 5.85-4.05c2.27-1.07 4.64-1.81 7.12-2.24c2.48-0.43 4.98-0.5 7.5-0.21c2.52 0.28 4.8 0.96 6.86 2.03c1.77 0.85 3.26 1.99 4.47 3.41c1.2 1.42 2.11 3.02 2.71 4.8c0.6 1.78 0.9 3.62 0.9 5.54c0 1.92-0.32 3.8-0.96 5.65zm-69.75-2.56c0 0.07 0.03 0.14 0.11 0.21c0.57 0.43 1.04 0.78 1.44 1.07c0.39 0.28 0.94 0.36 1.65 0.21c0.57-0.07 0.9-0.3 1.01-0.69c0.11-0.39-0.02-0.76-0.37-1.12c-0.57-0.57-1.24-0.78-2.02-0.64c-0.78 0.14-1.45 0.39-2.02 0.75c0.14 0.07 0.21 0.14 0.21 0.21zm-1.38 4.32c0.5 0.39 1.03 0.52 1.59 0.37c0.71-0.14 1.01-0.44 0.9-0.91c-0.11-0.46-0.44-0.87-1.01-1.23c-0.99-0.07-1.84 0.04-2.55 0.32h-0.32c0.43 0.57 0.89 1.05 1.38 1.44zm20.79 8.53c3.22 1.53 6.36 2.68 9.41 3.47c0.57 0.14 1.29 0.3 2.18 0.48c0.89 0.18 1.79 0.3 2.71 0.37c1.35 0.07 2.52-0.28 3.51-1.07c0.99-0.78 1.17-1.92 0.53-3.41c-0.43-0.92-1.1-1.74-2.02-2.45c-0.92-0.71-1.93-1.31-3.03-1.81c-1.1-0.5-2.25-0.91-3.46-1.23c-1.21-0.32-2.27-0.59-3.19-0.8c-4.18-0.78-8.54-0.82-13.08-0.11c-0.43 0.5-0.92 0.96-1.49 1.39c2.05 1.92 4.69 3.64 7.92 5.17zm-10.69-9.76c0.21 0.92 0.71 1.92 1.49 2.99c0.71 0.07 1.45-0.25 2.23-0.96c0.78-0.71 1.24-1.46 1.38-2.24c0.07-0.71-0.2-1.33-0.8-1.87c-0.6-0.53-1.26-0.83-1.97-0.91c-0.71-0.07-1.33 0.12-1.86 0.59c-0.53 0.46-0.69 1.26-0.48 2.4zm-22.91 15.03c0.39 0.64 0.8 1.23 1.22 1.76c0.43 0.53 0.9 0.99 1.44 1.39c0.53 0.39 1.12 0.59 1.75 0.59c0.35 0 0.67-0.05 0.96-0.16c0.28-0.11 0.5-0.3 0.64-0.59c0.14-0.57-0.11-1.28-0.74-2.13c-0.71-0.71-1.61-1.24-2.71-1.6c-1.1-0.35-2.29-0.64-3.56-0.85c0.28 0.43 0.62 0.96 1.01 1.6zm-5.64 0.53c0.25 0.5 0.51 0.98 0.8 1.44c0.28 0.46 0.6 0.87 0.96 1.23c0.35 0.35 0.74 0.53 1.17 0.53c0.78 0 1.2-0.36 1.28-1.07c0-0.43-0.18-0.82-0.53-1.17c-0.36-0.36-0.8-0.69-1.33-1.01c-0.53-0.32-1.06-0.57-1.59-0.75c-0.53-0.18-0.98-0.34-1.33-0.48c0.14 0.36 0.34 0.78 0.58 1.28zm-3.56-5.28c-0.57-0.6-1.13-0.98-1.7-1.12c-0.5-0.14-0.9-0.11-1.22 0.11c-0.32 0.21-0.3 0.6 0.05 1.17c0.35 0.57 0.92 1 1.7 1.28c0.78 0.28 1.74 0.5 2.87 0.64c-0.57-0.78-1.13-1.47-1.7-2.08zm-0.37-5.17c-0.39-0.43-0.8-0.82-1.22-1.17c-0.64-0.5-1.28-0.78-1.91-0.85c-0.64-0.07-1.13-0.02-1.49 0.16c-0.36 0.18-0.48 0.44-0.37 0.8c0.11 0.36 0.65 0.75 1.65 1.17c0.71 0.36 1.44 0.64 2.18 0.85c0.74 0.21 1.51 0.39 2.29 0.53c-0.36-0.57-0.73-1.07-1.12-1.49zm16.8-3.89c-0.25-0.18-0.48-0.37-0.69-0.59c-0.28-0.14-0.58-0.32-0.9-0.53c-0.32-0.21-0.62-0.32-0.9-0.32c-0.64-0.07-1.05 0.18-1.22 0.75c-0.18 0.57-0.09 1.03 0.27 1.39c0.5 0.43 1.08 0.6 1.75 0.53c0.67-0.07 1.29-0.21 1.86-0.43l0.64-0.32c-0.28-0.14-0.55-0.3-0.8-0.48zm1.81-3.57c-0.46-0.07-0.8 0.04-1.01 0.32c-0.21 0.28-0.3 0.6-0.27 0.96c0.03 0.36 0.19 0.53 0.48 0.53c0.92 0.14 1.74 0 2.45-0.43c-0.64-0.85-1.19-1.31-1.65-1.39zm-19.67-13.11c-5-1.35-10.08-1.35-15.26 0c-0.14 0.14-0.27 0.3-0.37 0.48c-0.11 0.18-0.23 0.34-0.37 0.48c-0.5 0.85-0.6 1.81-0.32 2.88c0.21 0.57 0.64 1.17 1.28 1.81c1.84 1 3.95 1.71 6.33 2.13c2.37 0.43 4.91 0.66 7.6 0.69c2.69 0.04 5.48-0.11 8.35-0.43c2.87-0.32 5.76-0.76 8.67-1.33c-5.6-3.13-10.9-5.37-15.9-6.72zm28.04-16.73h-0.22c-1.21-0.1-2.08 0.1-2.61 0.58c-0.53 0.49-0.77 1.02-0.73 1.6c0.05 0.58 0.34 1.1 0.87 1.57c0.53 0.46 1.28 0.62 2.25 0.47c1.02-0.1 1.92-0.34 2.72-0.73c0.8-0.39 1.56-0.83 2.29-1.31c-1.31-1.02-2.83-1.75-4.57-2.18zm4.36-5.82c-0.92-0.92-1.94-1.46-3.05-1.6c-1.07-0.15-1.85-0.04-2.36 0.33c-0.51 0.36-0.76 0.79-0.76 1.27c0 0.49 0.28 0.95 0.83 1.38c0.56 0.44 1.37 0.66 2.43 0.66c0.68 0 1.26-0.17 1.74-0.51c0.48-0.34 0.99-0.7 1.52-1.09c-0.19-0.24-0.32-0.39-0.36-0.44zm-0.87-8.66c-0.39-0.44-0.92-0.73-1.6-0.87c-0.68-0.19-1.25-0.15-1.71 0.15c-0.46 0.29-0.74 0.67-0.83 1.13c-0.1 0.46 0.01 0.91 0.33 1.35c0.31 0.44 0.91 0.7 1.78 0.8c0.87 0 1.86-0.36 2.98-1.09c-0.24-0.53-0.56-1.02-0.94-1.46zm0.44-6.55c-0.1-0.15-0.22-0.27-0.36-0.36c-0.82-0.78-1.74-1.12-2.76-1.02c-0.77 0.15-1.33 0.44-1.67 0.87c-0.34 0.44-0.47 0.87-0.4 1.31c0.07 0.44 0.34 0.81 0.8 1.13c0.46 0.32 1.08 0.43 1.85 0.33c0.58-0.05 1.11-0.24 1.6-0.58c0.48-0.34 0.92-0.78 1.31-1.31c-0.15-0.1-0.27-0.22-0.36-0.36zm0.69-6.3c-0.07-0.12-0.13-0.21-0.18-0.25c-0.39-0.68-0.94-1.09-1.67-1.24c-0.77-0.19-1.4-0.16-1.89 0.11c-0.48 0.27-0.8 0.59-0.94 0.98c-0.15 0.39-0.06 0.78 0.25 1.16c0.31 0.39 0.88 0.58 1.71 0.58c0.63 0 1.17-0.1 1.63-0.29c0.46-0.19 0.88-0.44 1.27-0.73c-0.05-0.1-0.11-0.21-0.18-0.33zm-0.65-7.46c-0.32-0.53-0.69-1.01-1.13-1.42c-0.44-0.41-0.92-0.74-1.45-0.98c-0.53-0.24-1.09-0.29-1.67-0.15c-0.77 0.19-1.14 0.66-1.09 1.38c0.05 0.73 0.27 1.31 0.65 1.75c0.73 0.63 1.61 0.97 2.65 1.02c1.04 0.05 1.97 0 2.79-0.15c-0.19-0.44-0.45-0.92-0.76-1.46zm4.46 8.01c0.68 0.34 1.22 0.43 1.63 0.25c0.41-0.17 0.69-0.44 0.83-0.8c0.15-0.36 0.17-0.76 0.07-1.2c-0.1-0.44-0.33-0.78-0.69-1.02c-0.36-0.24-0.83-0.3-1.42-0.18c-0.58 0.12-1.26 0.55-2.03 1.27c0.39 0.78 0.92 1.34 1.6 1.67zm-2.43 4.84c0.02 0.03 0.04 0.06 0.04 0.11c0.24 0.49 0.57 0.86 0.98 1.13c0.41 0.27 1 0.43 1.78 0.47c0.58 0 1-0.17 1.27-0.51c0.27-0.34 0.4-0.72 0.4-1.13c0-0.41-0.12-0.79-0.36-1.13c-0.24-0.34-0.58-0.51-1.02-0.51c-0.68 0-1.27 0.15-1.78 0.44c-0.51 0.29-0.96 0.63-1.34 1.02c0 0.05 0.01 0.09 0.04 0.11zm2.69 9.46c0.51 0.51 1.17 0.79 2 0.84c0.68 0.1 1.23-0.05 1.67-0.44c0.44-0.39 0.66-0.84 0.69-1.35c0.02-0.51-0.17-0.97-0.58-1.38c-0.41-0.41-1.1-0.59-2.07-0.55c-0.53 0.05-1.04 0.17-1.52 0.36c-0.48 0.19-0.99 0.41-1.52 0.66c0.39 0.73 0.83 1.35 1.34 1.86zm-2 6.04c0.05 0.07 0.12 0.16 0.22 0.25c0.39 0.49 0.83 0.87 1.34 1.16c0.51 0.29 1.15 0.44 1.92 0.44c0.63 0 1.13-0.13 1.49-0.4c0.36-0.27 0.59-0.59 0.69-0.98c0.1-0.39 0.02-0.76-0.22-1.13c-0.24-0.36-0.65-0.64-1.23-0.84c-0.97-0.24-1.8-0.23-2.5 0.04c-0.7 0.27-1.32 0.64-1.85 1.13c0.05 0.15 0.1 0.25 0.15 0.33zm3.99 9.57c0.97 0.68 1.79 0.92 2.47 0.73c0.68-0.19 1.1-0.55 1.27-1.06c0.17-0.51 0.06-1.06-0.33-1.64c-0.39-0.58-1.19-0.92-2.4-1.02c-0.63-0.1-1.21-0.1-1.74 0c-0.53 0.1-1.04 0.22-1.52 0.36c0.63 0.97 1.38 1.84 2.25 2.62zm17.21 21.43c-0.18 1.1 0.16 2.01 1.01 2.72c0.57 0.57 1.26 0.76 2.07 0.59c0.81-0.18 1.49-0.53 2.02-1.07c0.53-0.53 0.85-1.15 0.96-1.87c0.11-0.71-0.27-1.35-1.12-1.92c-0.71-0.35-2.09-0.78-4.15-1.28c-0.36 0.78-0.62 1.72-0.8 2.83zm2.82-5.65c-0.78 0.75-1.38 1.62-1.81 2.61c1.84 0.36 3.19 0.82 4.04 1.39c0.85 0.57 1.26 1.23 1.22 1.97c-0.04 0.75-0.32 1.39-0.85 1.92c-0.53 0.53-1.21 0.91-2.02 1.12c-0.82 0.21-1.58 0.11-2.29-0.32c-0.99-0.57-1.44-1.47-1.33-2.72c0.11-1.24 0.37-2.33 0.8-3.25c-2.2-0.43-4.47-0.71-6.8-0.85c-0.99 0-2.06 0.04-3.19 0.11c-1.13 0.07-2.11 0.27-2.92 0.59c-0.82 0.32-1.35 0.84-1.59 1.55c-0.25 0.71 0.09 1.64 1.01 2.77c1.13 1.42 2.76 2.6 4.89 3.52c2.13 0.92 4.43 1.64 6.91 2.13c3.4 0.64 6.91 0.85 10.53 0.64c3.61-0.21 6.77-0.89 9.46-2.03c0.85-0.35 1.77-0.87 2.76-1.55c0.99-0.67 1.79-1.42 2.39-2.24c0.6-0.82 0.92-1.71 0.96-2.67c0.03-0.96-0.48-1.94-1.54-2.93c-1.06-0.99-2.36-1.76-3.88-2.29c-1.53-0.53-3.12-0.91-4.78-1.12c-1.67-0.21-3.33-0.32-5-0.32c-1.67 0-3.17 0-4.52 0c-0.85 0.57-1.67 1.23-2.45 1.97zm-74.47 242.78c0.71-2.06 1.97-3.84 3.77-5.33c1.81-1.49 3.77-2.45 5.9-2.88c0.99-0.21 2.06-0.28 3.19-0.21c1.13 0.07 2.13 0.43 2.98 1.07c0.43 0.28 0.71 0.67 0.85 1.17c0.14 0.64 0.02 1.14-0.37 1.49c-0.39 0.35-0.87 0.5-1.44 0.43c-0.57 0-1.03-0.16-1.38-0.48c-0.35-0.32-0.64-0.69-0.85-1.12c0-0.07 0.04-0.11 0.11-0.11h0.11c0.14 0.35 0.39 0.69 0.74 1.01c0.36 0.32 0.78 0.48 1.28 0.48c0.5 0.07 0.94-0.04 1.33-0.32c0.39-0.28 0.51-0.71 0.37-1.28c-0.21-0.5-0.5-0.85-0.85-1.07c-0.78-0.64-1.74-1-2.87-1.07c-1.13-0.07-2.2 0-3.19 0.21c-4.47 0.92-7.02 3.77-7.66 8.53c-0.57 3.13-0.21 6.09 1.06 8.9c1.28 2.81 3.26 5.03 5.95 6.66c1.77 1.07 3.7 1.79 5.79 2.19c2.09 0.39 4.22 0.53 6.38 0.43c2.16-0.11 4.27-0.5 6.33-1.17c2.06-0.68 3.9-1.55 5.53-2.61c-1.35 0-2.83 0-4.47 0c-1.63 0-3.28-0.12-4.94-0.37c-1.66-0.25-3.24-0.64-4.73-1.17c-1.49-0.53-2.76-1.3-3.83-2.29c-1.06-1-1.68-2.04-1.86-3.15c-0.18-1.1-0.05-2.15 0.37-3.15c0.43-1 1.08-1.92 1.97-2.77c0.89-0.85 1.86-1.53 2.92-2.03c1.56-0.78 3.26-1.39 5.1-1.81c1.84-0.43 3.72-0.69 5.64-0.8c1.91-0.11 3.81-0.07 5.69 0.11c1.88 0.18 3.63 0.44 5.26 0.8c1.06 0.28 2.22 0.59 3.46 0.91c1.24 0.32 2.46 0.76 3.67 1.33c1.21 0.57 2.3 1.19 3.3 1.87c0.99 0.67 1.77 1.58 2.34 2.72c0.78 1.35 0.96 2.42 0.53 3.2c-0.43 0.78-1.12 1.39-2.07 1.81c-0.96 0.43-2.05 0.69-3.3 0.8c-1.24 0.11-2.36 0.16-3.35 0.16c-1.13-0.07-2.3-0.2-3.51-0.37c-1.2-0.18-2.3-0.34-3.3-0.48c-0.92 1.78-2.02 3.23-3.3 4.37c3.26-0.14 6.5-0.52 9.73-1.12c3.23-0.6 6.45-1.33 9.68-2.19c3.23-0.85 6.43-1.72 9.62-2.61c3.19-0.89 6.38-1.65 9.57-2.29c-0.28-0.21-0.65-0.64-1.12-1.28c-0.46-0.64-1.15-1.39-2.07-2.24c-0.64 0.5-1.4 0.8-2.29 0.91c-0.89 0.11-1.68-0.05-2.39-0.48c-0.78-0.5-1.04-1.14-0.8-1.92c0.25-0.78 0.9-1.1 1.97-0.96c0.71 0.07 1.33 0.3 1.86 0.69c0.53 0.39 1.01 0.8 1.44 1.23c0.14 0 0.21 0.02 0.21 0.05c0 0.03 0.07 0.09 0.21 0.16c0.43-0.36 0.85-0.73 1.28-1.12c0.43-0.39 0.92-0.76 1.49-1.12c-0.07-0.14-0.14-0.23-0.21-0.27c-0.07-0.04-0.14-0.12-0.21-0.27c-0.14 0.14-0.28 0.21-0.43 0.21c-0.35 0.14-0.8 0.25-1.33 0.32c-0.53 0.07-1.08 0.03-1.65-0.11c-0.57-0.14-0.97-0.37-1.22-0.69c-0.25-0.32-0.35-0.66-0.32-1.01c0.04-0.36 0.23-0.66 0.58-0.91c0.36-0.25 0.85-0.3 1.49-0.16c0.64 0.07 1.21 0.3 1.7 0.69c0.5 0.39 0.92 0.83 1.28 1.33c0.57-0.21 1.05-0.48 1.44-0.8c0.39-0.32 0.87-0.66 1.44-1.01c-0.07 0-0.14-0.02-0.21-0.05c-0.07-0.04-0.14-0.05-0.21-0.05c-2.05-1.42-4.25-2.17-6.59-2.24c-1.13-0.14-2.27-0.16-3.4-0.05c-1.13 0.11-2.3 0.23-3.51 0.37c0.64 1.14 0.92 2.27 0.85 3.41c-0.07 1.14-0.48 2.01-1.22 2.61c-0.74 0.6-1.54 0.92-2.39 0.96c-0.85 0.03-1.63-0.21-2.34-0.75c-0.71-0.53-1.1-1.33-1.17-2.4c0-1.07 0.36-2.06 1.06-2.99c-4.25 0.71-8.54 0.71-12.86 0c-0.92-0.21-1.98-0.5-3.19-0.85c-1.2-0.36-2.37-0.8-3.51-1.33c-1.13-0.53-2.16-1.16-3.08-1.87c-0.92-0.71-1.59-1.56-2.02-2.56c-0.57-1.49-0.35-2.7 0.64-3.62c0.99-0.92 2.16-1.49 3.51-1.71c0.99-0.14 1.99-0.21 2.98-0.21c0.99 0 1.88 0.03 2.66 0.11c1.77 0.21 3.58 0.6 5.42 1.17c1.84 0.57 3.61 1.26 5.32 2.08c1.7 0.82 3.24 1.74 4.62 2.77c1.38 1.03 2.54 2.11 3.46 3.25c2.06-1 4.25-1.78 6.59-2.35c2.34-0.57 4.73-0.98 7.18-1.23c2.45-0.25 4.89-0.34 7.34-0.27c2.45 0.07 4.77 0.32 6.96 0.75c-0.57-0.64-1.1-1.33-1.59-2.08c-0.5-0.75-1.03-1.48-1.59-2.19c-1.42-0.21-2.73-0.52-3.93-0.91c-1.2-0.39-2.13-1.01-2.76-1.87c-0.78-0.78-1.03-1.49-0.74-2.13c0.21-0.64 0.78-0.96 1.7-0.96c0.78 0 1.58 0.21 2.39 0.64c0.82 0.43 1.59 0.94 2.34 1.55c0.74 0.6 1.44 1.24 2.07 1.92c0.64 0.67 1.17 1.3 1.59 1.87l0.43 0.11c0.92 0 1.81 0.11 2.66 0.32c-0.14-0.28-0.28-0.53-0.43-0.75c-0.14-0.21-0.28-0.46-0.43-0.75c-0.35-0.14-0.81-0.32-1.38-0.53c-0.57-0.21-1.13-0.48-1.7-0.8c-0.57-0.32-1.04-0.67-1.44-1.07c-0.39-0.39-0.55-0.8-0.48-1.23c0.07-0.43 0.25-0.76 0.53-1.01c0.28-0.25 0.6-0.37 0.96-0.37c0.5 0 0.92 0.2 1.28 0.59c0.36 0.39 0.69 0.85 1.01 1.39c0.32 0.53 0.58 1.07 0.8 1.6c0.21 0.53 0.43 0.98 0.64 1.33c0.14 0 0.27 0.02 0.37 0.05c0.11 0.03 0.23 0.05 0.37 0.05c0.99 0.28 2.11 0.55 3.35 0.8c1.24 0.25 2.5 0.39 3.77 0.43c1.28 0.03 2.5-0.09 3.67-0.37c1.17-0.28 2.14-0.85 2.92-1.71c0.78-0.85 1.19-1.69 1.22-2.51c0.04-0.82-0.18-1.56-0.64-2.24c-0.46-0.67-1.12-1.23-1.97-1.65c-0.85-0.43-1.74-0.64-2.66-0.64c-0.99 0-1.86 0.25-2.6 0.75c-0.74 0.5-1.26 1.1-1.54 1.81c-0.21 0.85 0.05 1.56 0.8 2.13c0.74 0.57 1.58 0.78 2.5 0.64c0.5-0.07 0.96-0.28 1.38-0.64c0.43-0.35 0.53-0.82 0.32-1.39c-0.07-0.21-0.21-0.48-0.43-0.8c-0.21-0.32-0.5-0.44-0.85-0.37c-0.14 0-0.21-0.03-0.21-0.11h0.21c0.36-0.14 0.66-0.07 0.9 0.21c0.25 0.28 0.41 0.6 0.48 0.96c0.36 0.64 0.28 1.17-0.21 1.6c-0.5 0.43-1.03 0.68-1.59 0.75c-0.99 0.14-1.93-0.09-2.82-0.69c-0.89-0.6-1.4-1.4-1.54-2.4c-0.07-0.71 0.07-1.3 0.43-1.76c0.36-0.46 0.8-0.85 1.33-1.17c0.53-0.32 1.1-0.53 1.7-0.64c0.6-0.11 1.15-0.16 1.65-0.16c1.06 0 2.02 0.28 2.87 0.85c0.85 0.57 1.53 1.28 2.02 2.13c0.5 0.85 0.73 1.78 0.69 2.77c-0.03 1-0.44 1.92-1.22 2.77c-0.78 0.85-1.77 1.44-2.98 1.76c-1.2 0.32-2.46 0.46-3.77 0.43c-1.31-0.04-2.6-0.2-3.88-0.48c-1.28-0.28-2.41-0.57-3.4-0.85c-0.14 0-0.23-0.02-0.27-0.05c-0.03-0.04-0.12-0.05-0.27-0.05c0.28 0.5 0.57 0.96 0.85 1.39c1.21 0.14 2.23 0.37 3.08 0.69c0.85 0.32 1.45 0.76 1.81 1.33c0.36 0.64 0.34 1.1-0.05 1.39c-0.39 0.28-0.87 0.35-1.44 0.21c-0.71-0.14-1.35-0.53-1.91-1.17c-0.57-0.64-1.1-1.39-1.59-2.24c-0.5-0.14-0.97-0.23-1.44-0.27c-0.46-0.04-0.94-0.09-1.44-0.16h-0.11c0.5 0.71 0.99 1.44 1.49 2.19c0.5 0.75 1.03 1.51 1.59 2.29c2.06 0.43 4.04 1.07 5.95 1.92c1.13 0.57 1.79 1.14 1.97 1.71c0.18 0.57 0.04 1.05-0.43 1.44c-0.46 0.39-1.12 0.59-1.97 0.59c-0.85 0-1.74-0.32-2.66-0.96c-1.35-0.78-2.69-1.96-4.04-3.52c-2.2-0.36-4.54-0.57-7.02-0.64c-2.48-0.07-4.98 0-7.5 0.21c-2.52 0.21-4.98 0.6-7.39 1.17c-2.41 0.57-4.64 1.31-6.7 2.24v0.11c1.21-0.14 2.39-0.27 3.56-0.37c1.17-0.11 2.36-0.09 3.56 0.05c2.34 0.21 4.54 0.92 6.59 2.13l0.43 0.43c0.14-0.07 0.28-0.14 0.43-0.21c0.14-0.07 0.28-0.14 0.43-0.21c0.36-0.14 0.9-0.27 1.65-0.37c0.74-0.11 1.44-0.05 2.07 0.16c0.57 0.21 0.94 0.53 1.12 0.96c0.18 0.43 0.21 0.83 0.11 1.23c-0.11 0.39-0.32 0.71-0.64 0.96c-0.32 0.25-0.76 0.27-1.33 0.05c-0.43-0.14-0.81-0.34-1.17-0.59c-0.35-0.25-0.71-0.48-1.06-0.69c-0.28-0.14-0.55-0.32-0.8-0.53c-0.25-0.21-0.51-0.43-0.8-0.64c-0.5 0.35-0.97 0.69-1.44 1.01c-0.46 0.32-0.94 0.62-1.44 0.91c0.07 0.14 0.21 0.32 0.43 0.53c0.28-0.14 0.67-0.28 1.17-0.43c0.5-0.14 0.92-0.18 1.28-0.11c0.85 0.07 1.37 0.35 1.54 0.85c0.18 0.5 0.16 0.96-0.05 1.39c-0.21 0.43-0.6 0.69-1.17 0.8c-0.57 0.11-1.2-0.23-1.91-1.01c-0.14-0.21-0.3-0.41-0.48-0.59c-0.18-0.18-0.34-0.37-0.48-0.59c-0.57 0.28-1.04 0.62-1.44 1.01c-0.39 0.39-0.83 0.76-1.33 1.12c0.78 0.71 1.58 1.35 2.39 1.92c0.82 0.57 1.54 1.03 2.18 1.39c0.57-0.07 1.15-0.14 1.75-0.21c0.6-0.07 1.19-0.18 1.75-0.32c1.63-0.36 3.26-0.64 4.89-0.85c1.63-0.21 3.3-0.39 5-0.53c1.99-0.21 4.01-0.28 6.06-0.21c2.06 0.07 4.01 0.32 5.85 0.75c3.47 0.71 6.24 1.81 8.29 3.31c0.71 0.57 1.26 1.1 1.65 1.6c0.39 0.5 0.69 1.03 0.9 1.6c0.28 0.99 0.14 1.99-0.43 2.99c-0.64 0.99-1.45 1.74-2.45 2.24c-0.28 0.14-0.51 0.27-0.69 0.37c-0.18 0.11-0.37 0.19-0.58 0.27c-1.42 0.71-3.17 1.24-5.26 1.6c-2.09 0.35-4.47 0.32-7.12-0.11c-2.66-0.43-5.55-1.4-8.67-2.93c-3.12-1.53-6.45-3.78-9.99-6.77c-3.74 0.8-7.46 1.56-11.15 2.27c0.61 0.2 1.18 0.46 1.69 0.77c0.68 0.49 1.31 1.04 1.89 1.67c0.58 0.63 1.07 1.38 1.45 2.26c0.29 0.78 0.45 1.6 0.47 2.47c0.02 0.87-0.1 1.7-0.36 2.47c-0.27 0.78-0.68 1.48-1.23 2.11c-0.56 0.63-1.27 1.12-2.14 1.46c-0.97 0.34-2.02 0.47-3.16 0.4c-1.14-0.07-2.09-0.52-2.87-1.35c-0.39-0.44-0.65-0.96-0.8-1.57c-0.15-0.61-0.05-1.18 0.29-1.71c0.44-0.82 1.28-1.21 2.54-1.16v0.15c0 0.1-0.02 0.15-0.07 0.15c-0.53-0.1-0.99-0.04-1.38 0.18c-0.39 0.22-0.68 0.47-0.87 0.76c-0.24 0.53-0.3 1.07-0.18 1.6c0.12 0.53 0.38 1.02 0.76 1.46c0.68 0.78 1.56 1.2 2.65 1.27c1.09 0.07 2.09-0.08 3.01-0.47c1.6-0.68 2.64-1.82 3.12-3.42c0.48-1.6 0.44-3.18-0.15-4.73c-0.29-0.82-0.71-1.54-1.27-2.15c-0.56-0.61-1.2-1.13-1.92-1.57c-0.8-0.49-1.61-0.78-2.44-0.88c-1.19 0.23-2.38 0.46-3.57 0.67c-0.49 0.27-0.96 0.6-1.4 1.01c-0.68 0.63-1.23 1.41-1.67 2.33c-0.48 1.07-0.75 2.23-0.8 3.49c-0.05 1.26 0.13 2.52 0.54 3.79c0.41 1.26 1.02 2.49 1.81 3.68c0.8 1.19 1.78 2.22 2.94 3.09c0.82-0.44 1.63-0.87 2.43-1.31c0.8-0.44 1.73-0.7 2.79-0.8c1.07-0.15 1.9 0.04 2.5 0.55c0.61 0.51 0.93 1.09 0.98 1.75c0.05 0.66-0.23 1.26-0.83 1.82c-0.6 0.56-1.56 0.81-2.87 0.76c-2.03-0.15-4.04-0.75-6.03-1.82c-0.34 0.24-0.68 0.46-1.02 0.66c-0.34 0.19-0.7 0.34-1.09 0.44c0.15 0.29 0.28 0.57 0.4 0.84c0.12 0.27 0.25 0.57 0.4 0.91l0.65 1.31c0.24 0.48 0.5 0.93 0.76 1.35c0.27 0.41 0.54 0.84 0.83 1.27c0.48-0.53 1-0.97 1.56-1.31c0.56-0.34 1.2-0.51 1.92-0.51c1.16 0 2.03 0.25 2.61 0.76c0.58 0.51 0.87 1.04 0.87 1.6c0 0.56-0.28 1.04-0.83 1.46c-0.56 0.41-1.42 0.55-2.58 0.4c-0.63-0.1-1.21-0.29-1.74-0.58c-0.53-0.29-1.02-0.63-1.45-1.02c-0.1-0.15-0.22-0.29-0.36-0.44c-0.1 0.1-0.17 0.19-0.22 0.29c-0.19 0.15-0.36 0.28-0.51 0.4c-0.15 0.12-0.31 0.3-0.51 0.55c0.48 0.87 0.8 1.82 0.94 2.84c0.15 1.02 0.39 2.01 0.73 2.98c0.53-0.34 1.05-0.61 1.56-0.8c0.51-0.19 1-0.29 1.49-0.29c0.97 0.1 1.63 0.4 2 0.91c0.36 0.51 0.48 1.03 0.36 1.57c-0.12 0.53-0.42 0.98-0.91 1.35c-0.48 0.36-1.14 0.45-1.96 0.25c-0.77-0.19-1.37-0.52-1.78-0.98c-0.41-0.46-0.74-0.98-0.98-1.57c-0.1 0.05-0.31 0.19-0.65 0.44c-0.24 0.1-0.5 0.23-0.76 0.4c-0.27 0.17-0.54 0.33-0.83 0.47c0.44 0.97 0.81 1.97 1.13 2.98c0.32 1.02 0.76 1.97 1.34 2.84c0.44-0.39 0.9-0.76 1.38-1.13c0.48-0.36 1.04-0.59 1.67-0.69c0.87-0.1 1.56 0.04 2.07 0.4c0.51 0.36 0.81 0.81 0.91 1.35c0.1 0.53-0.05 1.04-0.44 1.53c-0.39 0.48-1.02 0.8-1.89 0.95c-1.02 0.15-2.01-0.22-2.98-1.09c-0.1-0.1-0.22-0.22-0.36-0.36c-0.15-0.15-0.27-0.29-0.36-0.44c0 0.05-0.07 0.15-0.22 0.29c-0.19 0.15-0.35 0.3-0.47 0.47c-0.12 0.17-0.25 0.35-0.4 0.55c0.19 0.48 0.32 0.99 0.36 1.53c0.05 0.53 0.1 1.07 0.15 1.6c0 0.24 0 0.48 0 0.73c0 0.24 0.05 0.46 0.15 0.66c0.44-0.24 0.88-0.46 1.34-0.66c0.46-0.19 1.03-0.29 1.71-0.29c0.97 0 1.62 0.23 1.96 0.69c0.34 0.46 0.44 0.93 0.29 1.42c-0.15 0.48-0.5 0.88-1.05 1.2c-0.56 0.32-1.29 0.38-2.21 0.18c-0.29-0.1-0.6-0.25-0.94-0.47c-0.34-0.22-0.63-0.52-0.87-0.91c-0.05-0.1-0.1-0.19-0.15-0.29c-0.05-0.1-0.12-0.19-0.22-0.29c-0.15 0.15-0.3 0.29-0.47 0.44c-0.17 0.15-0.33 0.29-0.47 0.44c-0.19 0.19-0.34 0.36-0.44 0.51c0.19 0.34 0.36 0.72 0.51 1.13c0.15 0.41 0.29 0.84 0.44 1.27c1.26-0.19 2.49-0.11 3.7 0.25c1.21 0.36 2.23 1.08 3.05 2.15c0.24 0.34 0.42 0.73 0.54 1.16c0.12 0.44 0.17 0.86 0.15 1.27c-0.02 0.41-0.16 0.78-0.4 1.09c-0.24 0.32-0.63 0.55-1.16 0.69c-0.63 0.15-1.23 0.1-1.81-0.15c-0.58-0.24-1.1-0.58-1.56-1.02c-0.46-0.44-0.87-0.93-1.23-1.49c-0.36-0.56-0.64-1.08-0.83-1.57c-2.13 0.29-3.94 1.06-5.44 2.29c-1.5 1.24-2.59 2.75-3.27 4.55c-0.58 1.41-0.83 2.88-0.76 4.4c0.07 1.53 0.41 2.94 1.02 4.22c0.61 1.29 1.46 2.38 2.58 3.28c1.11 0.9 2.47 1.47 4.07 1.71c1.84 0.29 3.7 0.17 5.59-0.36c1.89-0.53 3.46-1.55 4.72-3.06c0.63-0.73 1.1-1.54 1.42-2.44c0.32-0.9 0.46-1.8 0.44-2.69c-0.02-0.9-0.23-1.77-0.62-2.62c-0.39-0.85-0.99-1.59-1.81-2.22c-0.73-0.53-1.5-0.95-2.32-1.24c-0.82-0.29-1.69-0.46-2.61-0.51c-0.97-0.1-1.94 0.02-2.9 0.36c-0.97 0.34-1.81 0.87-2.54 1.6c-0.44 0.48-0.79 1.03-1.05 1.64c-0.27 0.61-0.35 1.25-0.25 1.93c0.1 0.97 0.52 1.83 1.27 2.58c0.75 0.75 1.61 1.18 2.58 1.27c0.82 0.05 1.77-0.22 2.83-0.8c0.1-0.1 0.19-0.07 0.29 0.07c0 0.1-0.05 0.15-0.15 0.15c-0.53 0.39-1.04 0.63-1.52 0.73c-0.48 0.1-0.99 0.1-1.52 0c-1.02 0-1.92-0.4-2.72-1.2c-0.8-0.8-1.27-1.74-1.42-2.8c-0.1-0.68 0-1.35 0.29-2c0.29-0.66 0.7-1.23 1.23-1.71c0.77-0.83 1.65-1.41 2.61-1.75c0.97-0.34 1.96-0.46 2.98-0.36c0.92 0.05 1.81 0.24 2.69 0.58c0.87 0.34 1.65 0.78 2.32 1.31c0.87 0.63 1.51 1.38 1.92 2.26c0.41 0.87 0.64 1.78 0.69 2.73c0.05 0.95-0.1 1.88-0.44 2.8c-0.34 0.92-0.85 1.77-1.52 2.55c-1.26 1.55-2.84 2.6-4.75 3.13c-1.91 0.53-3.83 0.66-5.77 0.36c-1.64-0.24-3.18-0.85-4.61-1.82c-1.43-0.97-2.6-2.16-3.52-3.57c-0.92-1.41-1.52-2.95-1.81-4.62c-0.29-1.67-0.15-3.31 0.44-4.91c0.34-1.07 0.86-2.06 1.56-2.98c0.7-0.92 1.52-1.75 2.47-2.47c0.94-0.73 1.96-1.31 3.05-1.75c1.09-0.44 2.17-0.73 3.23-0.87c0.1-0.05 0.22-0.07 0.36-0.07c-0.15-0.44-0.28-0.85-0.4-1.24c-0.12-0.39-0.28-0.75-0.47-1.09c-0.87 0.82-1.62 1.29-2.25 1.38c-0.63 0.1-1.14 0-1.52-0.29c-0.39-0.29-0.64-0.7-0.76-1.24c-0.12-0.53-0.1-1.02 0.07-1.46c0.17-0.44 0.48-0.75 0.94-0.95c0.46-0.19 1.08-0.1 1.85 0.29c0.39 0.19 0.73 0.45 1.02 0.76c0.29 0.32 0.53 0.64 0.73 0.98c0.05-0.05 0.19-0.15 0.44-0.29c0.29-0.39 0.65-0.75 1.09-1.09c-0.24-0.49-0.36-1-0.36-1.53c-0.05-0.53-0.08-1.06-0.11-1.57c-0.02-0.51-0.11-1.01-0.25-1.49c-0.44 0.44-0.91 0.79-1.42 1.06c-0.51 0.27-1.1 0.42-1.78 0.47c-0.58 0-1.02-0.19-1.31-0.58c-0.29-0.39-0.44-0.84-0.44-1.35c0-0.51 0.16-0.96 0.47-1.35c0.32-0.39 0.81-0.58 1.49-0.58c1.55 0 2.57 0.61 3.05 1.82c0.15-0.15 0.29-0.28 0.44-0.4c0.15-0.12 0.27-0.28 0.36-0.47c0.15-0.15 0.24-0.22 0.29-0.22c-0.68-0.92-1.15-1.92-1.42-2.98c-0.27-1.07-0.64-2.11-1.13-3.13c-1.06 0.68-2.13 1.02-3.19 1.02c-1.06 0.05-1.83-0.16-2.29-0.62c-0.46-0.46-0.68-0.98-0.65-1.57c0.02-0.58 0.28-1.1 0.76-1.57c0.48-0.46 1.14-0.64 1.96-0.55c0.82 0.1 1.51 0.42 2.07 0.98c0.56 0.56 1.03 1.2 1.42 1.93c0.29-0.15 0.56-0.29 0.8-0.44c0.24-0.15 0.51-0.29 0.8-0.44c0.29-0.19 0.53-0.36 0.73-0.51c-0.34-0.97-0.58-1.93-0.73-2.88c-0.15-0.95-0.41-1.91-0.8-2.88c-0.68 0.48-1.37 0.85-2.07 1.09c-0.7 0.24-1.54 0.24-2.5 0c-0.73-0.19-1.22-0.51-1.49-0.95c-0.27-0.44-0.35-0.87-0.25-1.31c0.1-0.44 0.35-0.83 0.76-1.16c0.41-0.34 0.98-0.51 1.71-0.51c0.87 0 1.59 0.17 2.14 0.51c0.56 0.34 1.03 0.78 1.42 1.31c0.1 0.19 0.22 0.36 0.36 0.51c0.34-0.34 0.61-0.58 0.8-0.73c0.05-0.1 0.17-0.24 0.36-0.44c-0.34-0.39-0.64-0.8-0.91-1.24c-0.27-0.44-0.52-0.87-0.76-1.31c-0.1-0.24-0.22-0.47-0.36-0.69c-0.15-0.22-0.27-0.45-0.36-0.69c-0.24-0.58-0.53-1.14-0.87-1.67c-0.48 0.15-0.99 0.27-1.52 0.36c-0.53 0.1-1.14 0.1-1.81 0c-1.35-0.15-2.25-0.55-2.69-1.2c-0.44-0.66-0.54-1.27-0.33-1.86c0.22-0.58 0.71-0.98 1.49-1.2c0.77-0.22 1.67 0.06 2.69 0.84c0.53 0.39 0.98 0.8 1.34 1.24c0.36 0.44 0.69 0.92 0.98 1.46c0.39-0.1 0.74-0.23 1.05-0.4c0.32-0.17 0.64-0.35 0.98-0.55c-0.05-0.05-0.1-0.07-0.15-0.07c-0.05 0-0.12-0.03-0.22-0.07c-1.89-1.12-3.51-2.56-4.86-4.33c-1.35-1.77-2.15-3.77-2.4-6.01c-0.1-0.87-0.06-1.76 0.11-2.66c0.17-0.9 0.5-1.73 0.98-2.51c0.4-0.66 0.85-1.23 1.36-1.71c-6.72 1.16-13.63 1.88-20.74 2.16c-1.63 1.63-3.58 2.99-5.85 4.05c-2.27 1.07-4.64 1.81-7.12 2.24c-2.48 0.43-4.98 0.5-7.5 0.21c-2.52-0.28-4.8-0.96-6.86-2.03c-1.77-0.85-3.26-1.99-4.47-3.41c-1.2-1.42-2.11-3.02-2.71-4.8c-0.6-1.78-0.9-3.62-0.9-5.54c0-1.92 0.32-3.8 0.96-5.65zm69.75 2.56c0-0.07-0.03-0.14-0.11-0.21c-0.57-0.43-1.04-0.78-1.44-1.07c-0.39-0.28-0.94-0.36-1.65-0.21c-0.57 0.07-0.9 0.3-1.01 0.69c-0.11 0.39 0.02 0.76 0.37 1.12c0.57 0.57 1.24 0.78 2.02 0.64c0.78-0.14 1.45-0.39 2.02-0.75c-0.14-0.07-0.21-0.14-0.21-0.21zm1.38-4.32c-0.5-0.39-1.03-0.52-1.59-0.37c-0.71 0.14-1.01 0.44-0.9 0.91c0.11 0.46 0.44 0.87 1.01 1.23c0.99 0.07 1.84-0.04 2.55-0.32h0.32c-0.43-0.57-0.89-1.05-1.38-1.44zm-20.79-8.53c-3.22-1.53-6.36-2.68-9.41-3.47c-0.57-0.14-1.29-0.3-2.18-0.48c-0.89-0.18-1.79-0.3-2.71-0.37c-1.35-0.07-2.52 0.28-3.51 1.07c-0.99 0.78-1.17 1.92-0.53 3.41c0.43 0.92 1.1 1.74 2.02 2.45c0.92 0.71 1.93 1.31 3.03 1.81c1.1 0.5 2.25 0.91 3.46 1.23c1.21 0.32 2.27 0.59 3.19 0.8c4.18 0.78 8.54 0.82 13.08 0.11c0.43-0.5 0.92-0.96 1.49-1.39c-2.05-1.92-4.69-3.64-7.92-5.17zm10.69 9.76c-0.21-0.92-0.71-1.92-1.49-2.99c-0.71-0.07-1.45 0.25-2.23 0.96c-0.78 0.71-1.24 1.46-1.38 2.24c-0.07 0.71 0.2 1.33 0.8 1.87c0.6 0.53 1.26 0.83 1.97 0.91c0.71 0.07 1.33-0.12 1.86-0.59c0.53-0.46 0.69-1.26 0.48-2.4zm22.91-15.03c-0.39-0.64-0.8-1.23-1.22-1.76c-0.43-0.53-0.9-0.99-1.44-1.39c-0.53-0.39-1.12-0.59-1.75-0.59c-0.35 0-0.67 0.05-0.96 0.16c-0.28 0.11-0.5 0.3-0.64 0.59c-0.14 0.57 0.11 1.28 0.74 2.13c0.71 0.71 1.61 1.24 2.71 1.6c1.1 0.35 2.29 0.64 3.56 0.85c-0.28-0.43-0.62-0.96-1.01-1.6zm5.64-0.53c-0.25-0.5-0.51-0.98-0.8-1.44c-0.28-0.46-0.6-0.87-0.96-1.23c-0.35-0.35-0.74-0.53-1.17-0.53c-0.78 0-1.2 0.36-1.28 1.07c0 0.43 0.18 0.82 0.53 1.17c0.36 0.36 0.8 0.69 1.33 1.01c0.53 0.32 1.06 0.57 1.59 0.75c0.53 0.18 0.98 0.34 1.33 0.48c-0.14-0.36-0.34-0.78-0.58-1.28zm3.56 5.28c0.57 0.6 1.13 0.98 1.7 1.12c0.5 0.14 0.9 0.11 1.22-0.11c0.32-0.21 0.3-0.6-0.05-1.17c-0.35-0.57-0.92-1-1.7-1.28c-0.78-0.28-1.74-0.5-2.87-0.64c0.57 0.78 1.13 1.47 1.7 2.08zm0.37 5.17c0.39 0.43 0.8 0.82 1.22 1.17c0.64 0.5 1.28 0.78 1.91 0.85c0.64 0.07 1.13 0.02 1.49-0.16c0.36-0.18 0.48-0.44 0.37-0.8c-0.11-0.36-0.65-0.75-1.65-1.17c-0.71-0.36-1.44-0.64-2.18-0.85c-0.74-0.21-1.51-0.39-2.29-0.53c0.36 0.57 0.73 1.07 1.12 1.49zm-16.8 3.89c0.25 0.18 0.48 0.37 0.69 0.59c0.28 0.14 0.58 0.32 0.9 0.53c0.32 0.21 0.62 0.32 0.9 0.32c0.64 0.07 1.05-0.18 1.22-0.75c0.18-0.57 0.09-1.03-0.27-1.39c-0.5-0.43-1.08-0.6-1.75-0.53c-0.67 0.07-1.29 0.21-1.86 0.43l-0.64 0.32c0.28 0.14 0.55 0.3 0.8 0.48zm-1.81 3.57c0.46 0.07 0.8-0.04 1.01-0.32c0.21-0.28 0.3-0.6 0.27-0.96c-0.03-0.36-0.19-0.53-0.48-0.53c-0.92-0.14-1.74 0-2.45 0.43c0.64 0.85 1.19 1.31 1.65 1.39zm19.67 13.11c5 1.35 10.08 1.35 15.26 0c0.14-0.14 0.27-0.3 0.37-0.48c0.11-0.18 0.23-0.34 0.37-0.48c0.5-0.85 0.6-1.81 0.32-2.88c-0.21-0.57-0.64-1.17-1.28-1.81c-1.84-1-3.95-1.71-6.33-2.13c-2.37-0.43-4.91-0.66-7.6-0.69c-2.69-0.04-5.48 0.11-8.35 0.43c-2.87 0.32-5.76 0.76-8.67 1.33c5.6 3.13 10.9 5.37 15.9 6.72zm-28.04 16.73h0.22c1.21 0.1 2.08-0.1 2.61-0.58c0.53-0.49 0.77-1.02 0.73-1.6c-0.05-0.58-0.34-1.1-0.87-1.57c-0.53-0.46-1.28-0.62-2.25-0.47c-1.02 0.1-1.92 0.34-2.72 0.73c-0.8 0.39-1.56 0.83-2.29 1.31c1.31 1.02 2.83 1.75 4.57 2.18zm-4.36 5.82c0.92 0.92 1.94 1.46 3.05 1.6c1.07 0.15 1.85 0.04 2.36-0.33c0.51-0.36 0.76-0.79 0.76-1.27c0-0.49-0.28-0.95-0.83-1.38c-0.56-0.44-1.37-0.66-2.43-0.66c-0.68 0-1.26 0.17-1.74 0.51c-0.48 0.34-0.99 0.7-1.52 1.09c0.19 0.24 0.32 0.39 0.36 0.44zm0.87 8.66c0.39 0.44 0.92 0.73 1.6 0.87c0.68 0.19 1.25 0.15 1.71-0.15c0.46-0.29 0.74-0.67 0.83-1.13c0.1-0.46-0.01-0.91-0.33-1.35c-0.31-0.44-0.91-0.7-1.78-0.8c-0.87 0-1.86 0.36-2.98 1.09c0.24 0.53 0.56 1.02 0.94 1.46zm-0.44 6.55c0.1 0.15 0.22 0.27 0.36 0.36c0.82 0.78 1.74 1.12 2.76 1.02c0.77-0.15 1.33-0.44 1.67-0.87c0.34-0.44 0.47-0.87 0.4-1.31c-0.07-0.44-0.34-0.81-0.8-1.13c-0.46-0.32-1.08-0.43-1.85-0.33c-0.58 0.05-1.11 0.24-1.6 0.58c-0.48 0.34-0.92 0.78-1.31 1.31c0.15 0.1 0.27 0.22 0.36 0.36zm-0.69 6.3c0.07 0.12 0.13 0.21 0.18 0.25c0.39 0.68 0.94 1.09 1.67 1.24c0.77 0.19 1.4 0.16 1.89-0.11c0.48-0.27 0.8-0.59 0.94-0.98c0.15-0.39 0.06-0.78-0.25-1.16c-0.31-0.39-0.88-0.58-1.71-0.58c-0.63 0-1.17 0.1-1.63 0.29c-0.46 0.19-0.88 0.44-1.27 0.73c0.05 0.1 0.11 0.21 0.18 0.33zm0.65 7.46c0.32 0.53 0.69 1.01 1.13 1.42c0.44 0.41 0.92 0.74 1.45 0.98c0.53 0.24 1.09 0.29 1.67 0.15c0.77-0.19 1.14-0.66 1.09-1.38c-0.05-0.73-0.27-1.31-0.65-1.75c-0.73-0.63-1.61-0.97-2.65-1.02c-1.04-0.05-1.97 0-2.79 0.15c0.19 0.44 0.45 0.92 0.76 1.46zm-4.46-8.01c-0.68-0.34-1.22-0.43-1.63-0.25c-0.41 0.17-0.69 0.44-0.83 0.8c-0.15 0.36-0.17 0.76-0.07 1.2c0.1 0.44 0.33 0.78 0.69 1.02c0.36 0.24 0.83 0.3 1.42 0.18c0.58-0.12 1.26-0.55 2.03-1.27c-0.39-0.78-0.92-1.34-1.6-1.67zm2.43-4.84c-0.02-0.03-0.04-0.06-0.04-0.11c-0.24-0.49-0.57-0.86-0.98-1.13c-0.41-0.27-1-0.43-1.78-0.47c-0.58 0-1 0.17-1.27 0.51c-0.27 0.34-0.4 0.72-0.4 1.13c0 0.41 0.12 0.79 0.36 1.13c0.24 0.34 0.58 0.51 1.02 0.51c0.68 0 1.27-0.15 1.78-0.44c0.51-0.29 0.96-0.63 1.34-1.02c0-0.05-0.01-0.09-0.04-0.11zm-2.69-9.46c-0.51-0.51-1.17-0.79-2-0.84c-0.68-0.1-1.23 0.05-1.67 0.44c-0.44 0.39-0.66 0.84-0.69 1.35c-0.02 0.51 0.17 0.97 0.58 1.38c0.41 0.41 1.1 0.59 2.07 0.55c0.53-0.05 1.04-0.17 1.52-0.36c0.48-0.19 0.99-0.41 1.52-0.66c-0.39-0.73-0.83-1.35-1.34-1.86zm2-6.04c-0.05-0.07-0.12-0.16-0.22-0.25c-0.39-0.49-0.83-0.87-1.34-1.16c-0.51-0.29-1.15-0.44-1.92-0.44c-0.63 0-1.13 0.13-1.49 0.4c-0.36 0.27-0.59 0.59-0.69 0.98c-0.1 0.39-0.02 0.76 0.22 1.13c0.24 0.36 0.65 0.64 1.23 0.84c0.97 0.24 1.8 0.23 2.5-0.04c0.7-0.27 1.32-0.64 1.85-1.13c-0.05-0.15-0.1-0.25-0.15-0.33zm-3.99-9.57c-0.97-0.68-1.79-0.92-2.47-0.73c-0.68 0.19-1.1 0.55-1.27 1.06c-0.17 0.51-0.06 1.06 0.33 1.64c0.39 0.58 1.19 0.92 2.4 1.02c0.63 0.1 1.21 0.1 1.74 0c0.53-0.1 1.04-0.22 1.52-0.36c-0.63-0.97-1.38-1.84-2.25-2.62zm-17.21-21.43c0.18-1.1-0.16-2.01-1.01-2.72c-0.57-0.57-1.26-0.76-2.07-0.59c-0.81 0.18-1.49 0.53-2.02 1.07c-0.53 0.53-0.85 1.15-0.96 1.87c-0.11 0.71 0.27 1.35 1.12 1.92c0.71 0.35 2.09 0.78 4.15 1.28c0.36-0.78 0.62-1.72 0.8-2.83zm-2.82 5.65c0.78-0.75 1.38-1.62 1.81-2.61c-1.84-0.36-3.19-0.82-4.04-1.39c-0.85-0.57-1.26-1.23-1.22-1.97c0.04-0.75 0.32-1.39 0.85-1.92c0.53-0.53 1.21-0.91 2.02-1.12c0.82-0.21 1.58-0.11 2.29 0.32c0.99 0.57 1.44 1.47 1.33 2.72c-0.11 1.24-0.37 2.33-0.8 3.25c2.2 0.43 4.47 0.71 6.8 0.85c0.99 0 2.06-0.04 3.19-0.11c1.13-0.07 2.11-0.27 2.92-0.59c0.82-0.32 1.35-0.84 1.59-1.55c0.25-0.71-0.09-1.64-1.01-2.77c-1.13-1.42-2.76-2.6-4.89-3.52c-2.13-0.92-4.43-1.64-6.91-2.13c-3.4-0.64-6.91-0.85-10.53-0.64c-3.61 0.21-6.77 0.89-9.46 2.03c-0.85 0.35-1.77 0.87-2.76 1.55c-0.99 0.67-1.79 1.42-2.39 2.24c-0.6 0.82-0.92 1.71-0.96 2.67c-0.03 0.96 0.48 1.94 1.54 2.93c1.06 0.99 2.36 1.76 3.88 2.29c1.53 0.53 3.12 0.91 4.78 1.12c1.67 0.21 3.33 0.32 5 0.32c1.67 0 3.17 0 4.52 0c0.85-0.57 1.67-1.23 2.45-1.97z" />
	<path id="el1" class="s3 dogoldstroke" d="m175 148.42c55.78 0 101 45.25 101 101.08c0 55.82-45.22 101.08-101 101.08c-55.78 0-101-45.25-101-101.08c0-55.82 45.22-101.08 101-101.08z" />
	<path id="e1a" class="s4 dogoldstroke" d="m175 151.42c19.09 0 34.56 43.91 34.56 98.08c0 54.17-15.47 98.08-34.56 98.08c-19.09 0-34.56-43.91-34.56-98.08c0-54.17 15.47-98.08 34.56-98.08z" />
	<path id="e1b" class="s4 dogoldstroke" d="m244.29 180.14c13.51 13.52-6.57 55.53-44.84 93.84c-38.27 38.31-80.24 58.4-93.75 44.88c-13.51-13.52 6.57-55.53 44.84-93.84c38.27-38.31 80.24-58.4 93.75-44.88z" />
	<path id="e1c" class="s4 dogoldstroke" d="m273 249.5c0 19.12-43.88 34.62-98 34.62c-54.12 0-98-15.5-98-34.62c0-19.12 43.88-34.62 98-34.62c54.12 0 98 15.5 98 34.62z" />
	<path id="e1d" class="s4 dogoldstroke" d="m244.29 318.86c-13.51 13.52-55.48-6.57-93.75-44.88c-38.27-38.31-58.35-80.32-44.84-93.84c13.51-13.52 55.48 6.57 93.75 44.88c38.27 38.31 58.35 80.32 44.84 93.84z" />
</svg>