<svg version="1.2" baseProfile="tiny-ps" xmlns="http://www.w3.org/2000/svg" viewBox="0 0 350 500" width="350" height="500">
	<title>pentaseal2.svg / Dan N</title>
<defs>
   <linearGradient id="gold" x1="0%" y1="8%" x2="100%" y2="92%" >
    
          <stop offset="0%" style="stop-color:rgb(167,137,66);stop-opacity:1.00" />
          <stop offset="43%" style="stop-color:rgb(252,216,130);stop-opacity:1.00" />
          <stop offset="47%" style="stop-color:rgb(255,229,168);stop-opacity:1.00" />
          <stop offset="100%" style="stop-color:rgb(167,137,66);stop-opacity:1.00" />

    </linearGradient>
<filter id="shadow2">
      <feDropShadow dx="0" dy="0" stdDeviation="5"
          flood-color="#d9cd64"/>
    </filter>
  </defs>
	<style>
		tspan { white-space:pre }
		.s0 { opacity: 0;fill: #514435 ;transform:translateY(7px);transform-origin:top;} 
		.s1 { opacity: .2;fill: #000000 ;transform:translateY(7px);transform-origin:top;} 
		.s2 { opacity: .5;fill: none;stroke: #000000;stroke-width: 3.4 ;transform:translateY(7px);transform-origin:top;} 
		.s3 { fill: none;stroke: #000000;stroke-width: 7.4 ;transform:translateY(7px);transform-origin:top;} 
		.s4 { fill: #000000 ;transform:translateY(7px);transform-origin:top;} 
		.s5 { fill: none;stroke: #000000;stroke-width: 3 ;transform:translateY(7px);transform-origin:top;} 
.dogold{opacity:.2;stroke: url(#gold);stroke-width: 2}
.dogold2{opacity:1;stroke: url(#gold);stroke-width: 3}
.dogoldfill{fill: url(#gold);} 
.noshow{opacity:0;}
.domov{fill:#671b70;}
	</style>
	<path id="pentagon" class="s0" d="m277.08 212.63l-38.61 118.84h-124.96l-38.61-118.84l101.09-73.45l101.09 73.45z" />
	<path id="outercircle" class="s2 dogold" d="m298.79 241.64c0 38.05-17.29 72.06-44.44 94.61c0.26 1.22 0.39 2.49 0.39 3.79c0 10.19-8.26 18.44-18.44 18.44c-4.35 0-8.35-1.52-11.51-4.04c-15.01 6.52-31.57 10.15-48.97 10.15c-16.88 0-32.96-3.4-47.61-9.56c-3.02 2.16-6.71 3.45-10.71 3.45c-10.19 0-18.44-8.26-18.44-18.44c0-0.76 0.06-1.5 0.15-2.24c-28.25-22.53-46.35-57.23-46.35-96.17c0-11.04 1.46-21.73 4.19-31.9c-2.54-3.16-4.06-7.17-4.06-11.53c0-9.53 7.23-17.37 16.51-18.34c18.5-31.76 50.83-54.49 88.74-59.92c2.35-7.48 9.34-12.91 17.6-12.91c8.26 0 15.24 5.43 17.6 12.91c37.91 5.43 70.24 28.15 88.74 59.92c9.28 0.97 16.51 8.81 16.51 18.34c0 4.37-1.53 8.37-4.06 11.53c2.73 10.17 4.19 20.87 4.19 31.9z" />
<path id="circlein" class="s3 domov" d="m175.75 133.65c60.85 0 110.18 49.33 110.18 110.18c0 60.85-49.33 110.17-110.18 110.17c-60.85 0-110.18-49.33-110.18-110.17c0-60.85 49.33-110.18 110.18-110.18z" />

<path id="mandala2" class="s1 dogold" d="m270.13 239.06c-0.52-0.32 5.32-2.21 6.07-4.36c0.74-2.15 2.79-3.3 4.33-2.62c0 0 0.7 3.44 0 5.24c-0.7 1.8-9.88 2.06-10.4 1.75zm0-4.36c-1.46 0.65-3.47 3.49-3.47 3.49c-1.57 0.85-2.6 0-2.6 0c0 0 1.09-2.86 0.87-5.24c-0.22-2.38-8.45-2.08-10.4-9.6c-1.95-7.52 5.87-19 5.2-14.84c-1.06 6.61 9.23 7.33 8.67 10.47c-0.56 3.14 3.25 6.33 5.2 6.98c1.95 0.65 4.15 2.95 3.47 4.36c-0.68 1.41-5.47 3.72-6.93 4.36zm-19.93-32.3c-1.79 0.14-3.3 4.32-3.47 5.24c-0.17 0.92 2.91 1.17 3.47 3.49c0.56 2.33-2.52 5.85-2.6 4.36c-0.08-1.48-2.88-0.77-2.6-1.75c0.28-0.97-1.01-2.01-2.6-1.75c-1.59 0.27-3.73-0.55-3.47-3.49c0.26-2.94 4.16-1.79 5.2-2.62c0.53-0.42 1.42-1.95 2.27-3.38c-1.79 0.16-5.21 0.45-7.43 0.46c-3.11 0.02-4.64 3.06-5.19 4.38c-1.72 4.17-6.96 3.77-5.89 3.37c1.08-0.41 0.63-1.96 1.62-4.14c0.99-2.18 2.73-1.2 3.72-1.1c0.99 0.1 1.64-2.03 0.46-2.58c-1.18-0.55-6.92 2.44-8.6 3.76c-1.68 1.32-1.74 7.43-2.54 9.29c-0.8 1.86-2.27 4.04-2.63 4.84c-0.36 0.81 2.73 1.84 5.12 0.93c2.39-0.91 1.12-5.38 3.33-3.83c2.21 1.55 2.72 4.15 2.18 7.49c-0.54 3.34-7.54 2.94-10 1.73c-2.45-1.2-1.86-5.91-2.49-5.77c-0.63 0.13-3.1-1.31-1.55-1.17c1.55 0.14 1-1.37 2.17-2.27c1.17-0.89 1.58-3.92 0.92-5.15c-0.66-1.23-2.25 0.06-2.87 1.25c-0.62 1.19-1.78 3.54-3.33 3.83c-1.54 0.3-5.76-4.85-4.5-4.37c1.26 0.48 2.05-1.27 3.33-3.83c1.27-2.56 3.61-1.72 4.57-0.94c0.96 0.77 0.7 1.01 0.7 1.01c0 0 2.13 0.1 2.71-0.39c0.58-0.49 0.4-3.93 4.8-7.11c3.68-2.66 17.81-1.99 22.66-1.68c0.31-0.41 0.58-0.7 0.78-0.75c1.78-0.46 0.4-2.42-0.87-1.75c-1.27 0.68-3.15 0.28-5.2-0.87c-2.05-1.15 1.1-2.45 2.6-4.36c1.5-1.91-0.02-3.98 1.73-4.36c1.75-0.38 3.48 1.31 4.33 1.75c0.85 0.43 1.72-1.45 4.33-0.87c2.61 0.57 1.36 4.39 0.87 5.24c-0.49 0.85-2.25-0.51-4.33 0c-2.09 0.51-0.87 3.49-0.87 3.49c0 0 5.3 0.05 10.05 2.73c-0.22-2.48-1.4-13.34-5.67-16.61c-4.84-3.7-12.47-1.82-12.47-1.82c0 0-6.27 2.35-5.97 5.45c0.3 3.1 2.26 4.81-2.6 6.23c-4.85 1.42-6.91-3.89-8.83-2.08c-1.92 1.81-2.68-10.59 2.08-9.86c4.76 0.73 4.88 5.55 7.01 4.15c2.13-1.4 4.25-6.11 9.35-6.23c5.1-0.12 1.28-3-0.78-3.63c-2.06-0.63-7.91-2.09-9.87-0.52c-1.96 1.57-2.18 3.6-4.93 2.33c-2.75-1.27 1.28-3.01 3.9-4.41c2.61-1.4-1.45-2.84-0.26-3.63c1.19-0.8 1.62 0.74 5.19 2.08c3.57 1.34 12.1 2.67 15.58 5.71c3.49 3.03 8.4 9.03 9.09 14.53c0.45 3.6 1.58 7.96 2.56 11.04c4.08 4.57 7.37 12.87 7.37 12.87c-11.19-16.71-19.87-14.1-21.67-13.97zm-20-29.75c-0.38 1.76-2.44 0.23-4.33 1.75c-1.9 1.52-3.19 4.68-4.33 2.62c-1.15-2.06-1.54-3.96-0.87-5.24c0.67-1.28-1.28-2.67-1.73-0.87c-0.05 0.2-0.34 0.48-0.75 0.79c0.31 4.88 0.98 19.12-1.67 22.82c-3.16 4.42-6.57 4.24-7.06 4.83c-0.49 0.59-0.39 2.73-0.39 2.73c0 0 0.24-0.26 1.01 0.7c0.77 0.96 1.61 3.32-0.94 4.6c-2.54 1.28-4.28 2.09-3.8 3.35c0.48 1.27-4.63-2.98-4.33-4.53c0.29-1.55 2.62-2.73 3.8-3.35c1.19-0.62 2.47-2.22 1.24-2.89c-1.22-0.66-4.23-0.25-5.12 0.93c-0.89 1.18-2.39 0.62-2.25 2.18c0.14 1.56-1.29-0.93-1.16-1.56c0.13-0.63-4.54-0.04-5.73-2.51c-1.2-2.47-1.6-9.52 1.72-10.07c3.32-0.54 5.9-0.03 7.44 2.2c1.53 2.23-2.9 0.94-3.8 3.35c-0.9 2.41 0.12 5.52 0.92 5.15c0.8-0.36 2.96-1.84 4.81-2.65c1.85-0.81 7.91-0.87 9.23-2.56c1.31-1.69 4.28-7.47 3.73-8.66c-0.55-1.19-2.66-0.53-2.56 0.46c0.1 1 1.07 2.75-1.09 3.75c-2.16 1-3.71 0.55-4.11 1.63c-0.4 1.08-0.8-4.2 3.34-5.93c1.31-0.55 4.33-2.09 4.35-5.22c0.01-2.23 0.3-5.67 0.46-7.48c-1.41 0.86-2.94 1.75-3.36 2.29c-0.82 1.05 0.32 4.97-2.6 5.24c-2.92 0.26-3.73-1.89-3.47-3.49c0.27-1.6-0.77-2.9-1.73-2.62c-0.97 0.29-0.26-2.53-1.73-2.62c-1.47-0.08 2.02-3.18 4.33-2.62c2.31 0.56 2.55 3.66 3.47 3.49c0.91-0.17 5.06-1.69 5.2-3.49c0.14-1.81 2.73-10.55-13.87-21.82c0 0 11.32 4.55 14.73 9.6c3.41 5.05 3.47 11.35 3.47 11.35c0 0 2.96 1.23 3.47-0.87c0.51-2.1-0.84-3.87 0-4.36c0.84-0.5 4.63-1.76 5.2 0.87c0.57 2.63-1.29 3.5-0.87 4.36c0.43 0.86 2.11 2.6 1.73 4.36zm-19.93-13.09c4.13-0.67-7.26 7.2-14.73 5.24c-7.47-1.96-7.17-10.25-9.53-10.47c-2.36-0.22-5.2 0.87-5.2 0.87c0 0-0.84-1.04 0-2.62c0 0 2.83-2.02 3.47-3.49c0.64-1.47 2.93-6.3 4.33-6.98c1.4-0.69 3.68 1.53 4.33 3.49c0.65 1.97 3.81 5.8 6.93 5.24c3.12-0.57 3.83 9.79 10.4 8.73zm-26-16.58c-2.14 0.75-4.02 6.63-4.33 6.11c-0.31-0.52-0.06-9.77 1.73-10.47c1.79-0.7 5.2 0 5.2 0c0.68 1.55-0.46 3.62-2.6 4.36zm-5.97 22.81c0.03 0.69 0.93-0.04 0.84 0.77c-0.09 0.81-3.54 3.72-4.55 3.59c-1.01-0.13-4.29-3.59-3.43-3.91c1.95-0.74-0.44-1.54-1-3.24c-0.56-1.7 2.81-5.96 2.81-5.96c0 0 1.45-1.8 2.03-2.01c0.58-0.21 5.09 6.12 5.47 7.31c0.38 1.19-2.2 2.75-2.17 3.44zm-12.56-22.81c-2.14-0.75-3.28-2.81-2.6-4.36c0 0 3.41-0.7 5.2 0c1.79 0.7 2.05 9.95 1.73 10.47c-0.31 0.52-2.2-5.36-4.33-6.11zm3.47 9.6c0.84 1.58 0 2.62 0 2.62c0 0-2.84-1.1-5.2-0.87c-2.36 0.22-2.06 8.51-9.53 10.47c-7.47 1.96-18.87-5.91-14.73-5.24c6.56 1.06 7.28-9.3 10.4-8.73c3.12 0.57 6.28-3.27 6.93-5.24c0.65-1.97 2.93-4.18 4.33-3.49c1.4 0.69 3.69 5.51 4.33 6.98c0.64 1.47 3.47 3.49 3.47 3.49zm-35.53 16.58c0.14 1.81 4.29 3.32 5.2 3.49c0.91 0.17 1.16-2.93 3.47-3.49c2.31-0.56 5.81 2.53 4.33 2.62c-1.47 0.08-0.77 2.9-1.73 2.62c-0.97-0.29-2 1.02-1.73 2.62c0.27 1.6-0.55 3.76-3.47 3.49c-2.92-0.26-1.78-4.19-2.6-5.24c-0.42-0.54-1.94-1.43-3.36-2.29c0.16 1.81 0.44 5.25 0.46 7.48c0.02 3.13 3.04 4.67 4.35 5.22c4.14 1.73 3.74 7.01 3.34 5.93c-0.4-1.08-1.95-0.64-4.11-1.63c-2.16-1-1.19-2.75-1.09-3.75c0.1-1-2.01-1.66-2.56-0.46c-0.55 1.19 2.42 6.97 3.73 8.66c1.31 1.69 7.38 1.75 9.23 2.56c1.85 0.81 4.01 2.28 4.81 2.65c0.8 0.36 1.82-2.75 0.92-5.15c-0.9-2.41-5.34-1.12-3.8-3.35c1.53-2.23 4.12-2.74 7.44-2.2c3.32 0.54 2.92 7.6 1.72 10.07c-1.2 2.47-5.87 1.88-5.73 2.51c0.13 0.63-1.3 3.12-1.16 1.56c0.14-1.56-1.36-1-2.25-2.18c-0.89-1.18-3.89-1.59-5.12-0.93c-1.22 0.66 0.06 2.26 1.24 2.89c1.19 0.62 3.51 1.8 3.8 3.35c0.29 1.55-4.82 5.8-4.33 4.53c0.48-1.27-1.26-2.07-3.8-3.35c-2.54-1.28-1.7-3.64-0.94-4.6c0.77-0.96 1.01-0.7 1.01-0.7c0 0 0.1-2.14-0.39-2.73c-0.49-0.59-3.9-0.41-7.06-4.83c-2.64-3.7-1.98-17.94-1.67-22.82c-0.41-0.31-0.7-0.59-0.75-0.79c-0.45-1.8-2.4-0.41-1.73 0.87c0.67 1.28 0.28 3.18-0.87 5.24c-1.15 2.06-2.44-1.1-4.33-2.62c-1.9-1.52-3.95 0.02-4.33-1.75c-0.38-1.76 1.31-3.5 1.73-4.36c0.43-0.86-1.44-1.73-0.87-4.36c0.57-2.63 4.36-1.37 5.2-0.87c0.84 0.5-0.51 2.26 0 4.36c0.51 2.1 3.47 0.87 3.47 0.87c0 0 0.05-5.85 3.11-10.79c-0.06-0.01-0.11-0.01-0.17-0.02c0 0-13.44 0.88-17.14 5.71c-3.7 4.83-1.82 12.45-1.82 12.45c0 0 2.35 6.26 5.45 5.97c3.11-0.3 4.81-2.25 6.23 2.59c1.42 4.85-3.89 6.9-2.08 8.82c1.81 1.92-10.6 2.68-9.87-2.08c0.73-4.76 5.56-4.88 4.16-7c-1.4-2.13-6.12-4.24-6.23-9.34c-0.12-5.1-3.01-1.28-3.64 0.78c-0.63 2.06-2.1 7.9-0.52 9.86c1.58 1.96 3.6 2.18 2.34 4.93c-1.27 2.75-3.02-1.28-4.42-3.89c-1.4-2.61-2.84 1.45-3.64 0.26c-0.8-1.19 0.74-1.62 2.08-5.19c1.34-3.57 2.68-12.08 5.71-15.56c3.04-3.48 9.04-8.39 14.54-9.08c4.36-0.55 9.83-2.07 12.79-3.16c4.64-3.53 11.3-6.2 11.3-6.2c-16.6 11.27-14 20.02-13.87 21.82zm-30.4 20.23c1.75 0.38 0.23 2.45 1.73 4.36c1.5 1.91 4.65 3.21 2.6 4.36c-2.05 1.15-3.93 1.55-5.2 0.87c-1.27-0.68-2.65 1.29-0.87 1.75c0.2 0.05 0.47 0.34 0.78 0.75c4.84-0.32 18.98-0.98 22.66 1.68c4.39 3.18 4.21 6.62 4.8 7.11c0.58 0.49 2.71 0.39 2.71 0.39c0 0-0.26-0.24 0.7-1.01c0.96-0.77 3.3-1.62 4.57 0.94c1.27 2.56 2.07 4.32 3.33 3.83c1.26-0.48-2.96 4.66-4.5 4.37c-1.54-0.3-2.71-2.64-3.33-3.83c-0.62-1.19-2.21-2.49-2.87-1.25c-0.66 1.23-0.25 4.26 0.92 5.15c1.17 0.89 0.62 2.41 2.17 2.27c1.55-0.14-0.92 1.3-1.55 1.17c-0.63-0.13-0.04 4.57-2.49 5.77c-2.45 1.2-9.46 1.61-10-1.73c-0.54-3.34-0.03-5.95 2.18-7.49c2.21-1.55 0.94 2.92 3.33 3.83c2.39 0.91 5.48-0.12 5.12-0.93c-0.36-0.81-1.83-2.98-2.63-4.84c-0.8-1.86-0.87-7.97-2.54-9.29c-1.68-1.32-7.42-4.31-8.6-3.76c-1.18 0.55-0.53 2.68 0.46 2.58c0.99-0.1 2.73-1.08 3.72 1.1c0.99 2.18 0.55 3.73 1.62 4.14c1.08 0.41-4.17 0.8-5.89-3.37c-0.55-1.32-2.08-4.36-5.19-4.38c-2.21-0.01-5.63-0.3-7.43-0.46c0.86 1.43 1.74 2.96 2.27 3.38c1.04 0.83 4.94-0.32 5.2 2.62c0.26 2.94-1.88 3.76-3.47 3.49c-1.59-0.27-2.88 0.77-2.6 1.75c0.28 0.97-2.52 0.26-2.6 1.75c-0.08 1.48-3.16-2.04-2.6-4.36c0.56-2.33 3.63-2.57 3.47-3.49c-0.17-0.92-1.67-5.1-3.47-5.24c-1.79-0.14-10.47-2.75-21.67 13.97c0 0 4.52-11.4 9.53-14.84c5.01-3.44 11.27-3.49 11.27-3.49c0 0 1.22-2.98-0.87-3.49c-2.09-0.51-3.84 0.85-4.33 0c-0.49-0.85-1.75-4.66 0.87-5.24c2.61-0.57 3.48 1.3 4.33 0.87c0.85-0.43 2.58-2.13 4.33-1.75zm-21.67 30.55c-0.56-3.14 9.72-3.86 8.67-10.47c-0.67-4.16 7.15 7.31 5.2 14.84c-1.95 7.52-10.18 7.22-10.4 9.6c-0.22 2.38 0.87 5.24 0.87 5.24c0 0-1.03 0.85-2.6 0c0 0-2.01-2.85-3.47-3.49c-1.46-0.65-6.25-2.95-6.93-4.36c-0.68-1.41 1.52-3.71 3.47-4.36c1.95-0.65 5.76-3.84 5.2-6.98zm-1.73 20.08c-0.52 0.32-9.7 0.06-10.4-1.75c-0.7-1.8 0-5.24 0-5.24c1.54-0.68 3.59 0.47 4.33 2.62c0.74 2.15 6.58 4.05 6.07 4.36zm0 9.93c0.52 0.32-5.32 2.21-6.07 4.36c-0.74 2.15-2.79 3.3-4.33 2.62c0 0-0.7-3.44 0-5.24c0.7-1.8 9.88-2.06 10.4-1.75zm0 4.36c1.46-0.65 3.47-3.49 3.47-3.49c1.57-0.85 2.6 0 2.6 0c0 0-1.09 2.86-0.87 5.24c0.22 2.38 8.45 2.08 10.4 9.6c1.95 7.52-5.87 19-5.2 14.84c1.06-6.61-9.23-7.33-8.67-10.47c0.56-3.14-3.25-6.33-5.2-6.98c-1.95-0.65-4.15-2.95-3.47-4.36c0.68-1.41 5.47-3.72 6.93-4.36zm38.49-3.47c-5.6-0.61-6.13 6.05-8.79 5.71c-2.66-0.33-5.33 2.17-5.87 3.44c-0.54 1.27-2.47 2.71-3.67 2.29c-1.2-0.43-3.19-3.5-3.75-4.44c-0.56-0.94-2.98-2.2-2.98-2.2c-0.73-1-0.02-1.68-0.02-1.68c0 0 2.43 0.67 4.44 0.51c2.01-0.17 1.69-5.49 8.04-6.83c6.35-1.34 16.13 3.59 12.6 3.21zm-21.91-9.18c0.69-0.03-0.04-0.94 0.77-0.85c0.8 0.09 3.7 3.57 3.57 4.58c-0.13 1.01-3.56 4.32-3.88 3.45c-0.73-1.96-1.53 0.44-3.22 1.01c-1.69 0.56-5.92-2.83-5.92-2.83c0 0-1.79-1.46-1.99-2.04c-0.21-0.58 6.08-5.13 7.26-5.51c1.18-0.38 2.73 2.22 3.42 2.19zm-0.16-9.54c0.56-0.94 2.55-4.01 3.75-4.44c1.2-0.43 3.13 1.02 3.67 2.29c0.54 1.27 3.2 3.77 5.87 3.44c2.66-0.33 3.19 6.33 8.79 5.71c3.53-0.39-6.25 4.54-12.6 3.21c-6.35-1.34-6.03-6.66-8.04-6.83c-2.01-0.17-4.44 0.51-4.44 0.51c0 0-0.71-0.68 0.02-1.68c0 0 2.42-1.27 2.98-2.2zm3.52 54.48c1.79-0.14 3.3-4.32 3.47-5.24c0.17-0.92-2.91-1.17-3.47-3.49c-0.56-2.33 2.52-5.85 2.6-4.36c0.08 1.48 2.88 0.77 2.6 1.75c-0.28 0.97 1.01 2.01 2.6 1.75c1.59-0.27 3.73 0.55 3.47 3.49c-0.26 2.94-4.16 1.79-5.2 2.62c-0.53 0.42-1.42 1.95-2.27 3.38c1.79-0.16 5.21-0.45 7.43-0.46c3.11-0.02 4.64-3.06 5.19-4.38c1.72-4.17 6.96-3.77 5.89-3.37c-1.08 0.41-0.63 1.96-1.62 4.14c-0.99 2.18-2.73 1.2-3.72 1.1c-0.99-0.1-1.64 2.03-0.46 2.58c1.18 0.55 6.92-2.44 8.6-3.76c1.68-1.32 1.74-7.43 2.54-9.29c0.8-1.86 2.27-4.04 2.63-4.84c0.36-0.81-2.73-1.84-5.12-0.93c-2.39 0.91-1.12 5.38-3.33 3.83c-2.21-1.55-2.72-4.15-2.18-7.49c0.54-3.34 7.54-2.94 10-1.73c2.45 1.2 1.86 5.91 2.49 5.77c0.63-0.13 3.1 1.31 1.55 1.17c-1.55-0.14-1 1.37-2.17 2.27c-1.17 0.89-1.58 3.92-0.92 5.15c0.66 1.23 2.25-0.06 2.87-1.25c0.62-1.19 1.78-3.54 3.33-3.83c1.54-0.3 5.76 4.85 4.5 4.37c-1.26-0.48-2.05 1.27-3.33 3.83c-1.27 2.56-3.61 1.72-4.57 0.94c-0.96-0.77-0.7-1.01-0.7-1.01c0 0-2.13-0.1-2.71 0.39c-0.58 0.49-0.4 3.93-4.8 7.11c-3.68 2.66-17.81 1.99-22.66 1.68c-0.31 0.41-0.58 0.7-0.78 0.75c-1.78 0.46-0.4 2.42 0.87 1.75c1.27-0.68 3.15-0.28 5.2 0.87c2.05 1.15-1.1 2.45-2.6 4.36c-1.5 1.91 0.02 3.98-1.73 4.36c-1.75 0.38-3.48-1.31-4.33-1.75c-0.85-0.43-1.72 1.45-4.33 0.87c-2.61-0.57-1.36-4.39-0.87-5.24c0.49-0.85 2.25 0.51 4.33 0c2.09-0.51 0.87-3.49 0.87-3.49c0 0-6.25-0.06-11.27-3.49c-0.02-0.02-0.04-0.03-0.07-0.05c0.01 0.24-0.01 0.48-0.05 0.73c0 0 0.88 13.42 5.71 17.12c4.84 3.7 12.47 1.82 12.47 1.82c0 0 6.27-2.35 5.97-5.45c-0.3-3.1-2.26-4.81 2.6-6.23c4.85-1.42 6.91 3.89 8.83 2.08c1.92-1.81 2.68 10.59-2.08 9.86c-4.76-0.73-4.88-5.55-7.01-4.15c-2.13 1.4-4.25 6.11-9.35 6.23c-5.1 0.12-1.28 3 0.78 3.63c2.06 0.63 7.91 2.09 9.87 0.52c1.96-1.57 2.18-3.6 4.93-2.33c2.75 1.27-1.28 3.01-3.9 4.41c-2.61 1.4 1.45 2.84 0.26 3.63c-1.19 0.8-1.62-0.74-5.19-2.08c-3.57-1.34-12.1-2.67-15.58-5.71c-3.49-3.03-8.4-9.03-9.09-14.53c-0.69-5.5-2.95-12.79-3.9-14.53c-0.14-0.27-0.12-0.41 0.02-0.45c-2.79-4.37-4.77-9.36-4.77-9.36c11.19 16.71 19.87 14.1 21.67 13.97zm20 29.75c0.38-1.76 2.44-0.23 4.33-1.75c1.9-1.52 3.19-4.68 4.33-2.62c1.15 2.06 1.54 3.96 0.87 5.24c-0.67 1.28 1.28 2.67 1.73 0.87c0.05-0.2 0.34-0.48 0.75-0.79c-0.31-4.88-0.98-19.12 1.67-22.82c3.16-4.42 6.57-4.24 7.06-4.83c0.49-0.59 0.39-2.73 0.39-2.73c0 0-0.24 0.26-1.01-0.7c-0.77-0.96-1.61-3.32 0.94-4.6c2.54-1.28 4.28-2.09 3.8-3.35c-0.48-1.27 4.63 2.98 4.33 4.53c-0.29 1.55-2.62 2.73-3.8 3.35c-1.19 0.62-2.47 2.22-1.24 2.89c1.22 0.66 4.23 0.25 5.12-0.93c0.89-1.18 2.39-0.62 2.25-2.18c-0.14-1.56 1.29 0.93 1.16 1.56c-0.13 0.63 4.54 0.04 5.73 2.51c1.2 2.47 1.6 9.52-1.72 10.07c-3.32 0.54-5.9 0.03-7.44-2.2c-1.53-2.23 2.9-0.94 3.8-3.35c0.9-2.41-0.12-5.52-0.92-5.15c-0.8 0.36-2.96 1.84-4.81 2.65c-1.85 0.81-7.91 0.87-9.23 2.56c-1.31 1.69-4.28 7.47-3.73 8.66c0.55 1.19 2.66 0.53 2.56-0.46c-0.1-1-1.07-2.75 1.09-3.75c2.16-1 3.71-0.55 4.11-1.63c0.4-1.08 0.8 4.2-3.34 5.93c-1.31 0.55-4.33 2.09-4.35 5.22c-0.01 2.23-0.3 5.67-0.46 7.48c1.41-0.86 2.94-1.75 3.36-2.29c0.82-1.05-0.32-4.97 2.6-5.24c2.92-0.26 3.73 1.89 3.47 3.49c-0.27 1.6 0.77 2.9 1.73 2.62c0.97-0.29 0.26 2.53 1.73 2.62c1.47 0.08-2.02 3.18-4.33 2.62c-2.31-0.56-2.55-3.66-3.47-3.49c-0.91 0.17-5.06 1.69-5.2 3.49c-0.14 1.81-2.73 10.55 13.87 21.82c0 0-11.32-4.55-14.73-9.6c-3.41-5.05-3.47-11.35-3.47-11.35c0 0-2.96-1.23-3.47 0.87c-0.51 2.1 0.84 3.87 0 4.36c-0.84 0.5-4.63 1.76-5.2-0.87c-0.57-2.63 1.29-3.5 0.87-4.36c-0.43-0.86-2.11-2.6-1.73-4.36zm19.93 13.09c-4.13 0.67 7.26-7.2 14.73-5.24c7.47 1.96 7.17 10.25 9.53 10.47c2.36 0.22 5.2-0.87 5.2-0.87c0 0 0.84 1.04 0 2.62c0 0-2.83 2.02-3.47 3.49c-0.64 1.47-2.93 6.3-4.33 6.98c-1.4 0.69-3.68-1.53-4.33-3.49c-0.65-1.97-3.81-5.8-6.93-5.24c-3.12 0.57-3.83-9.79-10.4-8.73zm26 16.58c2.14-0.75 4.02-6.63 4.33-6.11c0.31 0.52 0.06 9.77-1.73 10.47c-1.79 0.7-5.2 0-5.2 0c-0.68-1.55 0.46-3.62 2.6-4.36zm5.97-22.81c-0.03-0.69-0.93 0.04-0.84-0.77c0.09-0.81 3.54-3.72 4.55-3.59c1.01 0.13 4.29 3.59 3.43 3.91c-1.95 0.74 0.44 1.54 1 3.24c0.56 1.7-2.81 5.96-2.81 5.96c0 0-1.45 1.8-2.03 2.01c-0.58 0.21-5.09-6.12-5.47-7.31c-0.38-1.19 2.2-2.75 2.17-3.44zm12.56 22.81c2.14 0.75 3.28 2.81 2.6 4.36c0 0-3.41 0.7-5.2 0c-1.79-0.7-2.05-9.95-1.73-10.47c0.31-0.52 2.2 5.36 4.33 6.11zm-3.47-9.6c-0.84-1.58 0-2.62 0-2.62c0 0 2.84 1.1 5.2 0.87c2.36-0.22 2.06-8.51 9.53-10.47c7.47-1.96 18.87 5.91 14.73 5.24c-6.56-1.06-7.28 9.3-10.4 8.73c-3.12-0.57-6.28 3.27-6.93 5.24c-0.65 1.97-2.93 4.18-4.33 3.49c-1.4-0.69-3.69-5.51-4.33-6.98c-0.64-1.47-3.47-3.49-3.47-3.49zm35.53-16.58c-0.14-1.81-4.29-3.32-5.2-3.49c-0.91-0.17-1.16 2.93-3.47 3.49c-2.31 0.56-5.81-2.53-4.33-2.62c1.47-0.08 0.77-2.9 1.73-2.62c0.97 0.29 2-1.02 1.73-2.62c-0.27-1.6 0.55-3.76 3.47-3.49c2.92 0.26 1.78 4.19 2.6 5.24c0.42 0.54 1.94 1.43 3.36 2.29c-0.16-1.81-0.44-5.25-0.46-7.48c-0.02-3.13-3.04-4.68-4.35-5.22c-4.14-1.73-3.74-7.01-3.34-5.93c0.4 1.08 1.95 0.64 4.11 1.63c2.16 1 1.19 2.75 1.09 3.75c-0.1 1 2.01 1.66 2.56 0.46c0.55-1.19-2.42-6.97-3.73-8.66c-1.31-1.69-7.38-1.75-9.23-2.56c-1.85-0.81-4.01-2.28-4.81-2.65c-0.8-0.36-1.82 2.75-0.92 5.15c0.9 2.41 5.34 1.12 3.8 3.35c-1.53 2.23-4.12 2.74-7.44 2.2c-3.32-0.54-2.92-7.6-1.72-10.07c1.2-2.47 5.87-1.88 5.73-2.51c-0.13-0.63 1.3-3.12 1.16-1.56c-0.14 1.56 1.36 1 2.25 2.18c0.89 1.18 3.89 1.59 5.12 0.93c1.22-0.66-0.06-2.26-1.24-2.89c-1.19-0.62-3.51-1.8-3.8-3.35c-0.29-1.55 4.82-5.8 4.33-4.53c-0.48 1.27 1.26 2.07 3.8 3.35c2.54 1.28 1.7 3.64 0.94 4.6c-0.77 0.96-1.01 0.7-1.01 0.7c0 0-0.1 2.14 0.39 2.73c0.49 0.59 3.9 0.41 7.06 4.83c2.64 3.7 1.98 17.94 1.67 22.82c0.41 0.31 0.7 0.59 0.75 0.79c0.45 1.8 2.4 0.41 1.73-0.87c-0.67-1.28-0.28-3.18 0.87-5.24c1.15-2.06 2.44 1.1 4.33 2.62c1.9 1.52 3.95-0.02 4.33 1.75c0.38 1.76-1.31 3.5-1.73 4.36c-0.43 0.86 1.44 1.73 0.87 4.36c-0.57 2.63-4.36 1.37-5.2 0.87c-0.84-0.5 0.51-2.26 0-4.36c-0.51-2.1-3.47-0.87-3.47-0.87c0 0-0.05 5.08-2.52 9.77c0.03 0 0.07 0.01 0.1 0.01c0 0 13.44-0.88 17.14-5.71c3.7-4.83 1.82-12.45 1.82-12.45c0 0-2.35-6.26-5.45-5.97c-3.11 0.3-4.81 2.25-6.23-2.59c-1.42-4.85 3.89-6.9 2.08-8.82c-1.81-1.92 10.6-2.68 9.87 2.08c-0.73 4.76-5.56 4.88-4.16 7c1.4 2.13 6.12 4.24 6.23 9.34c0.12 5.1 3.01 1.28 3.64-0.78c0.63-2.06 2.1-7.9 0.52-9.86c-1.58-1.96-3.6-2.18-2.34-4.93c1.27-2.75 3.02 1.28 4.42 3.89c1.4 2.61 2.84-1.45 3.64-0.26c0.8 1.19-0.74 1.62-2.08 5.19c-1.34 3.57-2.68 12.08-5.71 15.56c-3.04 3.48-9.04 8.39-14.54 9.08c-3.81 0.48-8.48 1.71-11.57 2.73c-4.48 4.22-13.04 7.66-13.04 7.66c16.6-11.27 14-20.02 13.87-21.82zm-38.7-6c-1.33-6.4 3.57-16.24 3.18-12.69c-0.61 5.64 6 6.17 5.67 8.86c-0.33 2.68 2.15 5.37 3.41 5.91c1.26 0.54 2.7 2.48 2.27 3.69c-0.42 1.21-3.48 3.21-4.41 3.77c-0.93 0.56-2.19 3-2.19 3c-1 0.73-1.67 0.02-1.67 0.02c0 0 0.67-2.45 0.5-4.47c-0.17-2.02-5.45-1.7-6.78-8.1zm-13.21 12.55c0 0-1.26-2.44-2.19-3c-0.93-0.56-3.98-2.57-4.41-3.77c-0.42-1.21 1.01-3.15 2.27-3.69c1.26-0.54 3.74-3.23 3.41-5.91c-0.33-2.68 6.28-3.21 5.67-8.86c-0.38-3.55 4.51 6.29 3.18 12.69c-1.33 6.4-6.61 6.08-6.78 8.1c-0.17 2.02 0.5 4.47 0.5 4.47c0 0-0.67 0.71-1.67-0.02zm7.95-151.22c1.33 6.4-3.57 16.24-3.18 12.69c0.61-5.64-6-6.17-5.67-8.86c0.33-2.68-2.15-5.37-3.41-5.91c-1.26-0.54-2.7-2.48-2.27-3.69c0.42-1.21 3.48-3.21 4.41-3.77c0.93-0.56 2.19-3 2.19-3c1-0.73 1.67-0.02 1.67-0.02c0 0-0.67 2.45-0.5 4.47c0.17 2.02 5.45 1.7 6.78 8.1zm13.21-12.55c0 0 1.26 2.44 2.19 3c0.93 0.56 3.98 2.57 4.41 3.77c0.42 1.21-1.01 3.15-2.27 3.69c-1.26 0.54-3.74 3.23-3.41 5.91c0.33 2.68-6.28 3.21-5.67 8.86c0.38 3.55-4.51-6.29-3.18-12.69c1.33-6.4 6.61-6.08 6.78-8.1c0.17-2.02-0.5-4.47-0.5-4.47c0 0 0.67-0.71 1.67 0.02zm28.61 94.06c0.41-1.08 1.19-3.18 2.21-3.45c1.03-0.27 3.83 4.37 2.99 3.93c-0.83-0.44-1.37 1.14-2.21 3.45c-0.85 2.31-2.4 1.55-3.04 0.85c-0.64-0.7-0.46-0.91-0.46-0.91c0 0-1.41-0.09-1.8 0.36c-0.39 0.45-0.98 4.54-4.46 6.19c-7.47 3.54-11.9 2.17-13.72 1.21c0.5 1.67 1.63 2.65 1.63 2.65c0 0 0.9-1.59 2.6 0c1.7 1.59 6.93 1.82 6.93 1.82c0 0-0.42 2.21-3.46 3.64c-3.04 1.43-8.64-2.87-8.66-5.46c-0.01-2.59-1.04-3.89-1.73-4.55c-0.7-0.66-3.56 1.23-4.33 2.73c-0.76 1.5 1.31 2.63 3.46 4.55c2.15 1.92 2.05 5.09 1.73 4.55c-0.32-0.54-2.96-0.9-3.46 0c-0.51 0.9-2.28 1.8-4.33 2.73c-2.05 0.93-3.57-1.22-3.46-1.82c0.11-0.6-1.09-0.15-2.6 0c-1.5 0.15-1.5-3.36-1.73-5.46c-0.23-2.1 3.02-6.22 3.46-1.82c0.45 4.4 3.46 4.55 3.46 4.55c0 0 2.31-0.29 1.73-4.55c-0.58-4.26-5.19-6.37-5.19-6.37c0 0-2.36 1.97-1.73 0.91c0.63-1.06-0.37-2.59-0.87-4.55c-0.36-1.44-0.66-4.72-0.79-6.33c-0.34-0.15-0.68-0.32-0.98-0.55c-0.29 0.23-0.64 0.4-0.98 0.55c-0.13 1.62-0.43 4.89-0.79 6.33c-0.49 1.96-1.49 3.49-0.87 4.55c0.63 1.06-1.73-0.91-1.73-0.91c0 0-4.62 2.11-5.19 6.37c-0.58 4.26 1.73 4.55 1.73 4.55c0 0 3.02-0.15 3.46-4.55c0.45-4.4 3.69-0.28 3.46 1.82c-0.23 2.1-0.23 5.6-1.73 5.46c-1.5-0.15-2.71-0.6-2.6 0c0.11 0.6-1.41 2.75-3.46 1.82c-2.05-0.93-3.82-1.83-4.33-2.73c-0.51-0.9-3.14-0.54-3.46 0c-0.32 0.54-0.42-2.63 1.73-4.55c2.15-1.92 4.23-3.05 3.46-4.55c-0.76-1.5-3.63-3.39-4.33-2.73c-0.7 0.66-1.72 1.96-1.73 4.55c-0.01 2.59-5.62 6.89-8.66 5.46c-3.04-1.43-3.46-3.64-3.46-3.64c0 0 5.23-0.23 6.93-1.82c1.7-1.59 2.6 0 2.6 0c0 0 1.2-1.05 1.67-2.81c-1.61 0.95-6.12 2.68-13.99-1.06c-3.48-1.65-4.07-5.74-4.46-6.19c-0.39-0.45-1.8-0.36-1.8-0.36c0 0 0.17 0.22-0.46 0.91c-0.64 0.7-2.19 1.46-3.04-0.85c-0.85-2.31-1.38-3.89-2.21-3.45c-0.83 0.44 1.97-4.2 2.99-3.93c1.03 0.27 1.8 2.37 2.21 3.45c0.41 1.08 1.47 2.24 1.9 1.13c0.44-1.11 0.16-3.84-0.61-4.64c-0.78-0.8-1.18-2.03-2.21-1.9c-1.03 0.13 1.38-1.31 1.8-1.19c0.42 0.12 0.02-4.12 1.65-5.2c0.25-0.17 0.58-0.29 0.93-0.37c-0.35-0.08-0.67-0.2-0.93-0.37c-1.63-1.09-1.24-5.32-1.65-5.2c-0.42 0.12-2.83-1.32-1.8-1.19c1.03 0.13 1.43-1.1 2.21-1.9c0.78-0.8 1.05-3.53 0.61-4.64c-0.44-1.11-1.49 0.05-1.9 1.13c-0.41 1.08-1.19 3.18-2.21 3.45c-1.03 0.27-3.83-4.37-2.99-3.93c0.83 0.44 1.37-1.14 2.21-3.45c0.85-2.31 2.4-1.55 3.04-0.85c0.64 0.7 0.46 0.91 0.46 0.91c0 0 1.41 0.09 1.8-0.36c0.39-0.45 0.98-4.54 4.46-6.19c7.88-3.74 12.38-2.01 13.99-1.06c-0.48-1.76-1.67-2.81-1.67-2.81c0 0-0.9 1.59-2.6 0c-1.7-1.59-6.93-1.82-6.93-1.82c0 0 0.42-2.21 3.46-3.64c3.04-1.43 8.64 2.87 8.66 5.46c0.01 2.59 1.04 3.89 1.73 4.55c0.7 0.66 3.56-1.23 4.33-2.73c0.76-1.5-1.31-2.63-3.46-4.55c-2.15-1.92-2.05-5.09-1.73-4.55c0.32 0.54 2.96 0.9 3.46 0c0.51-0.9 2.28-1.8 4.33-2.73c2.05-0.93 3.57 1.22 3.46 1.82c-0.11 0.6 1.09 0.15 2.6 0c1.5-0.15 1.5 3.36 1.73 5.46c0.23 2.1-3.02 6.22-3.46 1.82c-0.45-4.4-3.46-4.55-3.46-4.55c0 0-2.31 0.29-1.73 4.55c0.58 4.26 5.19 6.37 5.19 6.37c0 0 2.36-1.97 1.73-0.91c-0.63 1.06 0.37 2.59 0.87 4.55c0.36 1.44 0.66 4.72 0.79 6.34c0.34 0.15 0.68 0.32 0.98 0.54c0.29-0.23 0.64-0.4 0.98-0.54c0.13-1.62 0.43-4.89 0.79-6.34c0.49-1.96 1.49-3.49 0.87-4.55c-0.63-1.06 1.73 0.91 1.73 0.91c0 0 4.62-2.11 5.19-6.37c0.58-4.26-1.73-4.55-1.73-4.55c0 0-3.02 0.15-3.46 4.55c-0.45 4.4-3.69 0.28-3.46-1.82c0.23-2.1 0.23-5.6 1.73-5.46c1.5 0.15 2.71 0.6 2.6 0c-0.11-0.6 1.41-2.75 3.46-1.82c2.05 0.93 3.82 1.83 4.33 2.73c0.51 0.9 3.14 0.54 3.46 0c0.32-0.54 0.42 2.63-1.73 4.55c-2.15 1.92-4.23 3.05-3.46 4.55c0.76 1.5 3.63 3.39 4.33 2.73c0.7-0.66 1.72-1.96 1.73-4.55c0.01-2.59 5.62-6.89 8.66-5.46c3.04 1.43 3.46 3.64 3.46 3.64c0 0-5.23 0.23-6.93 1.82c-1.7 1.59-2.6 0-2.6 0c0 0-1.13 0.99-1.63 2.65c1.81-0.96 6.25-2.33 13.72 1.21c3.48 1.65 4.07 5.74 4.46 6.19c0.39 0.45 1.8 0.36 1.8 0.36c0 0-0.17-0.22 0.46-0.91c0.64-0.7 2.19-1.46 3.04 0.85c0.85 2.31 1.38 3.89 2.21 3.45c0.83-0.44-1.97 4.2-2.99 3.93c-1.03-0.27-1.8-2.37-2.21-3.45c-0.41-1.08-1.47-2.24-1.9-1.13c-0.44 1.11-0.16 3.84 0.61 4.64c0.78 0.8 1.18 2.03 2.21 1.9c1.03-0.13-1.38 1.31-1.8 1.19c-0.42-0.12-0.02 4.12-1.65 5.2c-0.25 0.17-0.58 0.29-0.93 0.37c0.35 0.08 0.67 0.2 0.93 0.37c1.63 1.09 1.24 5.32 1.65 5.2c0.42-0.12 2.83 1.32 1.8 1.19c-1.03-0.13-1.43 1.1-2.21 1.9c-0.78 0.8-1.05 3.53-0.61 4.64c0.44 1.11 1.49-0.05 1.9-1.13zm-49.24-32.27c-3.44-1.6-7.27 4.18-7.79 4.55c-0.53 0.37-0.35 2.5 0.87 4.55c1.21 2.05 5.45 0.25 4.33 0.91c-1.12 0.66-1.83 2.61-2.6 3.64c-0.77 1.03-3.16 2.01-5.19 0.91c-2.03-1.1-1.25-3.72-3.46-2.73c-2.22 0.99-4.33-3.64-4.33-3.64c0 0 2.5 0.53 4.33 0c1.82-0.53-2.21-1.48-2.6-3.64c-0.39-2.16 3.01-3.06 3.46-2.73c0.45 0.33 4.36 0.58 5.16-2.61c-0.02 0.01-0.04 0.01-0.04 0.01c0 0-2.38-2.75-5.98-1.26c-1.96 0.81-3.08 2.75-3.45 3.95c-1.14 3.76-4.63 3.4-3.91 3.03c0.71-0.37 0.42-1.77 1.08-3.73c0.66-1.96 1.81-1.08 2.47-0.99c0.66 0.09 1.09-1.82 0.31-2.32c-0.79-0.5-4.34 0.72-5.71 3.39c-0.79 1.54-1.16 6.69-1.69 8.37c-0.53 1.68-1.51 3.64-1.75 4.36c-0.24 0.73 1.9 2.13 3.49 1.32c1.59-0.82 0.98-4.94 2.12-3.93c0.67 0.6 1.27 2.64 0.91 5.66c-0.21 1.75-1.68 2.72-3.2 3.02c1.52 0.3 2.99 1.27 3.2 3.02c0.36 3.01-0.23 5.06-0.91 5.66c-1.14 1.01-0.53-3.11-2.12-3.93c-1.59-0.82-3.73 0.59-3.49 1.32c0.24 0.73 1.21 2.68 1.75 4.36c0.53 1.68 0.9 6.83 1.69 8.37c1.37 2.67 4.93 3.88 5.71 3.39c0.79-0.5 0.35-2.42-0.31-2.32c-0.66 0.09-1.81 0.97-2.47-0.99c-0.66-1.96-0.36-3.36-1.08-3.73c-0.71-0.37 2.77-0.72 3.91 3.03c0.36 1.19 1.49 3.13 3.45 3.95c3.6 1.49 5.98-1.26 5.98-1.26c0 0 0.02 0 0.04 0.01c-0.8-3.19-4.72-2.94-5.16-2.61c-0.45 0.33-3.85-0.57-3.46-2.73c0.39-2.16 4.42-3.11 2.6-3.64c-1.82-0.53-4.33 0-4.33 0c0 0 2.11-4.63 4.33-3.64c2.22 0.99 1.43-1.63 3.46-2.73c2.03-1.1 4.43-0.12 5.19 0.91c0.77 1.03 1.48 2.98 2.6 3.64c1.12 0.66-3.11-1.14-4.33 0.91c-1.21 2.05-1.39 4.18-0.87 4.55c0.53 0.37 4.35 6.15 7.79 4.55c3.44-1.6 7.59-5.19 6.06-8.19c-0.02-0.05-0.05-0.09-0.07-0.13c-0.9-0.23-1.91-0.62-2.53-0.91c-0.27-0.13-0.36-0.49-0.36-0.96c-0.31 0.07-0.5 0.18-0.5 0.18c0 0-0.62-2.27 0-2.73c0.19-0.14-0.16-0.56-0.76-1.08c-0.04 0.01-0.07 0.02-0.11 0.03c-2.85 0.97-5.45-3.96-5.19-3.64c0.08 0.11 0.39 0.03 0.8-0.14c0.31-0.8 0.95-1.67 1.8-1.55c0.28 0.04 0.52 0.04 0.72 0c0.05-0.04 0.1-0.09 0.15-0.13c0.29-0.27 0.46-0.57 0.52-0.84c-0.06-0.28-0.24-0.57-0.52-0.84c-0.05-0.04-0.1-0.09-0.15-0.13c-0.2-0.04-0.43-0.05-0.72 0c-0.84 0.12-1.49-0.75-1.8-1.55c-0.41-0.17-0.72-0.24-0.8-0.14c-0.25 0.32 2.34-4.61 5.19-3.64c0.04 0.01 0.07 0.02 0.11 0.03c0.6-0.51 0.95-0.94 0.76-1.08c-0.62-0.46 0-2.73 0-2.73c0 0 0.19 0.12 0.5 0.18c0.01-0.47 0.09-0.83 0.36-0.96c0.62-0.3 1.63-0.69 2.53-0.91c0.02-0.04 0.05-0.08 0.07-0.13c1.53-3-2.62-6.59-6.06-8.19zm10.47 15.6c0 0-0.02-0.04-0.04-0.1c-0.02 0.07-0.04 0.1-0.04 0.1c0 0-1.66-1.34-3.45 0.89c-0.33 0.56-0.62 1.17-0.88 1.7c-0.27 0.54-0.47 1.18-0.49 1.89c0.03 0.71 0.23 1.34 0.49 1.89c0.26 0.54 0.55 1.14 0.88 1.7c1.79 2.23 3.45 0.89 3.45 0.89c0 0 0.01 0.04 0.04 0.1c0.02-0.06 0.04-0.1 0.04-0.1c0 0 1.66 1.34 3.45-0.89c0.33-0.56 0.62-1.17 0.88-1.7c0.27-0.54 0.47-1.18 0.49-1.89c-0.03-0.71-0.23-1.34-0.49-1.89c-0.26-0.54-0.55-1.14-0.88-1.7c-1.79-2.23-3.45-0.89-3.45-0.89zm33.16 9.23c-1.59 0.82-0.98 4.94-2.12 3.93c-0.67-0.6-1.27-2.64-0.91-5.66c0.21-1.75 1.68-2.72 3.2-3.02c-1.52-0.3-2.99-1.27-3.2-3.02c-0.36-3.01 0.23-5.06 0.91-5.66c1.14-1.01 0.53 3.11 2.12 3.93c1.59 0.82 3.73-0.59 3.49-1.32c-0.24-0.73-1.21-2.68-1.75-4.36c-0.53-1.68-0.9-6.83-1.69-8.37c-1.37-2.67-4.93-3.88-5.71-3.39c-0.79 0.5-0.35 2.42 0.31 2.32c0.66-0.09 1.81-0.97 2.47 0.99c0.66 1.96 0.36 3.36 1.08 3.73c0.71 0.37-2.77 0.72-3.91-3.03c-0.36-1.19-1.49-3.13-3.45-3.95c-3.06-1.27-5.24 0.53-5.82 1.1c0 0.01 0 0.02 0.01 0.03c0.73 3.31 4.74 3.06 5.19 2.73c0.45-0.33 3.85 0.57 3.46 2.73c-0.39 2.16-4.42 3.11-2.6 3.64c1.82 0.53 4.33 0 4.33 0c0 0-2.11 4.63-4.33 3.64c-2.22-0.99-1.43 1.63-3.46 2.73c-2.03 1.1-4.43 0.12-5.19-0.91c-0.77-1.03-1.48-2.98-2.6-3.64c-1.12-0.66 3.11 1.14 4.33-0.91c1.21-2.05 1.39-4.18 0.87-4.55c-0.53-0.37-4.35-6.15-7.79-4.55c-3.44 1.6-7.59 5.19-6.06 8.19c0.02 0.05 0.05 0.09 0.07 0.13c0.9 0.23 1.91 0.62 2.53 0.91c0.27 0.13 0.36 0.49 0.36 0.96c0.31-0.07 0.5-0.18 0.5-0.18c0 0 0.62 2.27 0 2.73c-0.19 0.14 0.16 0.56 0.76 1.08c0.04-0.01 0.07-0.02 0.11-0.03c2.85-0.97 5.45 3.96 5.19 3.64c-0.08-0.11-0.39-0.03-0.8 0.14c-0.31 0.8-0.95 1.67-1.8 1.55c-0.28-0.04-0.52-0.04-0.72 0c-0.05 0.04-0.1 0.09-0.15 0.13c-0.29 0.27-0.46 0.57-0.52 0.84c0.06 0.28 0.24 0.57 0.52 0.84c0.05 0.04 0.1 0.09 0.15 0.13c0.2 0.04 0.43 0.05 0.72 0c0.84-0.12 1.49 0.75 1.8 1.55c0.41 0.17 0.72 0.24 0.8 0.14c0.25-0.32-2.34 4.61-5.19 3.64c-0.04-0.01-0.07-0.02-0.11-0.03c-0.6 0.51-0.95 0.94-0.76 1.08c0.62 0.46 0 2.73 0 2.73c0 0-0.19-0.12-0.5-0.18c-0.01 0.47-0.09 0.83-0.36 0.96c-0.62 0.3-1.63 0.69-2.53 0.91c-0.02 0.04-0.05 0.08-0.07 0.13c-1.53 3 2.62 6.59 6.06 8.19c3.44 1.6 7.27-4.18 7.79-4.55c0.53-0.37 0.35-2.5-0.87-4.55c-1.21-2.05-5.45-0.25-4.33-0.91c1.12-0.66 1.83-2.61 2.6-3.64c0.77-1.03 3.16-2.01 5.19-0.91c2.03 1.1 1.25 3.72 3.46 2.73c2.22-0.99 4.33 3.64 4.33 3.64c0 0-2.5-0.53-4.33 0c-1.82 0.53 2.21 1.48 2.6 3.64c0.39 2.16-3.01 3.06-3.46 2.73c-0.45-0.33-4.46-0.58-5.19 2.73c0 0.01 0 0.02-0.01 0.03c0.58 0.57 2.76 2.37 5.82 1.1c1.96-0.81 3.08-2.75 3.45-3.95c1.14-3.76 4.63-3.4 3.91-3.03c-0.71 0.37-0.42 1.77-1.08 3.73c-0.66 1.96-1.81 1.08-2.47 0.99c-0.66-0.09-1.09 1.82-0.31 2.32c0.79 0.5 4.34-0.72 5.71-3.39c0.79-1.54 1.16-6.69 1.69-8.37c0.53-1.68 1.51-3.64 1.75-4.36c0.24-0.73-1.9-2.13-3.49-1.32zm-32.85-2.88c0 0-0.98-0.09-1.16-0.29c-0.19-0.2-1.11-0.99-1.16-1.73c-0.05-0.73 0.39-1.29 0.93-1.73c0.54-0.44 1.24-0.45 2.1 0c0.86 0.45 0.87 1.1 0.93 2.01c0.06 0.91-1.63 1.73-1.63 1.73zm71 53.24c-1.75-0.38-0.23-2.45-1.73-4.36c-1.5-1.91-4.65-3.21-2.6-4.36c2.05-1.15 3.93-1.55 5.2-0.87c1.27 0.68 2.65-1.29 0.87-1.75c-0.2-0.05-0.47-0.34-0.78-0.75c-4.84 0.32-18.98 0.98-22.66-1.68c-4.39-3.18-4.21-6.62-4.8-7.11c-0.58-0.49-2.71-0.39-2.71-0.39c0 0 0.26 0.24-0.7 1.01c-0.96 0.77-3.3 1.62-4.57-0.94c-1.27-2.56-2.07-4.32-3.33-3.83c-1.26 0.48 2.96-4.66 4.5-4.37c1.54 0.3 2.71 2.64 3.33 3.83c0.62 1.19 2.21 2.49 2.87 1.25c0.66-1.23 0.25-4.26-0.92-5.15c-1.17-0.89-0.62-2.41-2.17-2.27c-1.55 0.14 0.92-1.3 1.55-1.17c0.63 0.13 0.04-4.57 2.49-5.77c2.45-1.2 9.46-1.61 10 1.73c0.54 3.34 0.03 5.95-2.18 7.49c-2.21 1.55-0.94-2.92-3.33-3.83c-2.39-0.91-5.48 0.12-5.12 0.93c0.36 0.81 1.83 2.98 2.63 4.84c0.8 1.86 0.87 7.97 2.54 9.29c1.68 1.32 7.42 4.31 8.6 3.76c1.18-0.55 0.53-2.68-0.46-2.58c-0.99 0.1-2.73 1.08-3.72-1.1c-0.99-2.18-0.55-3.73-1.62-4.14c-1.08-0.41 4.17-0.8 5.89 3.37c0.55 1.32 2.08 4.36 5.19 4.38c2.21 0.01 5.63 0.3 7.43 0.46c-0.86-1.43-1.74-2.96-2.27-3.38c-1.04-0.83-4.94 0.32-5.2-2.62c-0.26-2.94 1.88-3.76 3.47-3.49c1.59 0.27 2.88-0.77 2.6-1.75c-0.28-0.97 2.52-0.26 2.6-1.75c0.08-1.48 3.16 2.04 2.6 4.36c-0.56 2.33-3.63 2.57-3.47 3.49c0.17 0.92 1.67 5.1 3.47 5.24c1.79 0.14 10.47 2.75 21.67-13.97c0 0-4.52 11.4-9.53 14.84c-5.01 3.44-11.27 3.49-11.27 3.49c0 0-1.22 2.98 0.87 3.49c2.09 0.51 3.84-0.85 4.33 0c0.49 0.85 1.75 4.66-0.87 5.24c-2.61 0.57-3.48-1.3-4.33-0.87c-0.85 0.43-2.58 2.13-4.33 1.75zm17.5-55.59c0.21 0.58-6.08 5.13-7.26 5.51c-1.18 0.38-2.73-2.22-3.42-2.19c-0.69 0.03 0.04 0.94-0.77 0.85c-0.8-0.09-3.7-3.57-3.57-4.58c0.13-1.02 3.56-4.32 3.88-3.45c0.73 1.96 1.53-0.44 3.22-1.01c1.69-0.56 5.92 2.83 5.92 2.83c0 0 1.79 1.46 1.99 2.04zm-19.99 2.65c6.35 1.34 6.03 6.66 8.04 6.83c2.01 0.17 4.44-0.51 4.44-0.51c0 0 0.71 0.68-0.02 1.68c0 0-2.42 1.27-2.98 2.2c-0.56 0.94-2.55 4.01-3.75 4.44c-1.2 0.43-3.13-1.02-3.67-2.29c-0.54-1.27-3.2-3.77-5.87-3.44c-2.66 0.33-3.19-6.33-8.79-5.71c-3.53 0.39 6.25-4.54 12.6-3.21zm-12.6-8.51c5.6 0.61 6.13-6.05 8.79-5.71c2.66 0.33 5.33-2.17 5.87-3.44c0.54-1.27 2.47-2.71 3.67-2.29c1.2 0.43 3.19 3.5 3.75 4.44c0.56 0.94 2.98 2.2 2.98 2.2c0.73 1 0.02 1.68 0.02 1.68c0 0-2.43-0.67-4.44-0.51c-2.01 0.17-1.69 5.49-8.04 6.83c-6.35 1.34-16.13-3.59-12.6-3.21zm36.76 30.9c0.56 3.14-9.72 3.86-8.67 10.47c0.67 4.16-7.15-7.31-5.2-14.84c1.95-7.52 10.18-7.22 10.4-9.6c0.22-2.38-0.87-5.24-0.87-5.24c0 0 1.03-0.85 2.6 0c0 0 2.01 2.85 3.47 3.49c1.46 0.65 6.25 2.95 6.93 4.36c0.68 1.41-1.52 3.71-3.47 4.36c-1.95 0.65-5.76 3.84-5.2 6.98zm1.73-20.08c0.52-0.32 9.7-0.06 10.4 1.75c0.7 1.8 0 5.24 0 5.24c-1.54 0.68-3.59-0.47-4.33-2.62c-0.74-2.15-6.58-4.05-6.07-4.36z" />
	<path id="circle" class="s3 dogold2" d="m175.75 133.65c60.85 0 110.18 49.33 110.18 110.18c0 60.85-49.33 110.17-110.18 110.17c-60.85 0-110.18-49.33-110.18-110.17c0-60.85 49.33-110.18 110.18-110.18z" />

	<path id="star" class="s4 dogoldfill" style="filter:url(#shadow2);" d="m278.28 208.42l0.01 6l-1.61 0l-58.13 42.41l24.08 72.38l-2.02 0.67l-2.09 2.86l-62.02-45.24l-62.02 45.24l-2.09-2.86l-2.02-0.67l24.08-72.38l-57.55-41.99l-0.62 0l0-0.45l-0.96-0.7l0.95-1.31l-0.01-3.54l74.2-0.16l22.86-68.73l-0.17-0.52l0.39-0.13l0.59-1.77l2.36 0.78l2.36-0.78l0.59 1.77l0.39 0.13l-0.17 0.52l22.83 68.62l75.79-0.16zm-11.81 6.03l-61.98 0.13l12.07 36.28l49.91-36.41zm-32.59 107.5l-20.42-61.39l-31.86 23.25l52.29 38.15zm-57.38-41.86l34.97-25.51l-13.3-39.98l-43.36 0.09l-13.27 39.89l34.97 25.51zm-57.38 41.86l52.29-38.15l-31.86-23.25l-20.42 61.39zm-32.07-107.12l49.39 36.03l12.03-36.16l-61.42 0.13zm89.44-65.36l-19.7 59.22l39.37-0.08l-19.67-59.13z" />
	<path id="spiritcircle" class="s5 noshow" d="m176 63c11.05 0 20 8.95 20 20c0 11.05-8.95 20-20 20c-11.05 0-20-8.95-20-20c0-11.05 8.95-20 20-20z" />
	<path id="spititx" class="s4 noshow" d="m195 84h-16.29l11.94 11.94l-1.41 1.41l-12.23-12.23v16.88h-2v-15.88l-11.23 11.23l-1.41-1.41l11.94-11.94h-18.29v-2h17.88l-12.23-12.23l1.41-1.41l11.94 11.94v-17.29h2v18.29l12.94-12.94l1.41 1.41l-12.23 12.23h15.88v2z" />
	<path id="tri-air" class="s5 noshow" d="m31.24 163.55l17.58 31.14c0.21 0.36 0.23 0.67 0.07 0.93c-0.16 0.26-0.44 0.39-0.86 0.39h-35.07c-0.41 0-0.7-0.13-0.86-0.39c-0.16-0.26-0.13-0.57 0.07-0.93l17.58-31.14c0.21-0.36 0.45-0.54 0.74-0.54c0.29 0 0.53 0.18 0.74 0.54z" />
	<path id="airline" class="s4 noshow" d="m21 180h19v3h-19v-3z" />
	<path id="triearth" class="s5 noshow" d="m93.5 397.99c-0.29 0-0.53-0.18-0.74-0.54l-17.58-31.14c-0.21-0.36-0.23-0.67-0.07-0.93c0.16-0.26 0.44-0.39 0.86-0.39h35.07c0.41 0 0.7 0.13 0.86 0.39c0.16 0.26 0.13 0.57-0.07 0.93l-17.58 31.14c-0.21 0.36-0.45 0.54-0.74 0.54z" />
	<path id="lineearth" class="s4 noshow" d="m84 378h19v3h-19v-3z" />
	<path id="fire" class="s5 noshow" d="m260.24 359.55l17.58 31.14c0.21 0.36 0.23 0.67 0.07 0.93c-0.16 0.26-0.44 0.39-0.86 0.39h-35.07c-0.41 0-0.7-0.13-0.86-0.39c-0.16-0.26-0.13-0.57 0.07-0.93l17.58-31.14c0.21-0.36 0.45-0.54 0.74-0.54c0.29 0 0.53 0.18 0.74 0.54z" />
	<path id="water" class="s5 noshow" d="m319.5 202.99c-0.29 0-0.53-0.18-0.74-0.54l-17.58-31.14c-0.21-0.36-0.23-0.67-0.07-0.93c0.16-0.26 0.44-0.39 0.86-0.39h35.07c0.41 0 0.7 0.13 0.86 0.39c0.16 0.26 0.13 0.57-0.07 0.93l-17.58 31.14c-0.21 0.36-0.45 0.54-0.74 0.54z" />
</svg>