<svg version="1.2" baseProfile="tiny-ps" xmlns="http://www.w3.org/2000/svg" viewBox="0 0 350 500" width="350" height="500">
	<title>star2</title>
	<style>
		tspan { white-space:pre }
		.s0 { opacity: .1;fill: #0d0d0d } 
		.s1 { fill: #d4b15e } 
		.s2 { fill: #9078a9 } 
		.s3 { fill: none;stroke: #a186be;stroke-width: 3 } 
		.s4 { fill: none;stroke: #a186be;stroke-width: 2 } 
		.s5 { fill: #a186be } 
	</style>
	<path id="12" class="s0" d="m279.49 358.78l-67.08 38.73h-77.46l-67.08-38.73l-38.73-67.08v-77.46l38.73-67.08l67.08-38.73h77.46l67.08 38.73l38.73 67.08v77.46l-38.73 67.08z" />
	<path id="midstar" class="s1" d="m261.99 219.17l0.01 5.35l-1.39 0l-50.13 37.81l20.76 64.52l-1.74 0.6l-1.8 2.55l-53.47-40.33l-53.47 40.33l-1.8-2.55l-1.74-0.6l20.76-64.52l-49.62-37.43l-0.53 0l0-0.4l-0.83-0.62l0.82-1.17l-0.01-3.16l63.98-0.14l19.71-61.27l-0.15-0.46l0.33-0.11l0.51-1.57l2.03 0.7l2.03-0.7l0.51 1.57l0.33 0.11l-0.15 0.46l19.68 61.17l65.35-0.14zm-10.18 5.37l-53.44 0.12l10.41 32.34l43.04-32.46zm-28.1 95.82l-17.61-54.73l-27.47 20.72l45.08 34zm-49.47-37.31l30.15-22.74l-11.47-35.64l-37.39 0.08l-11.44 35.56l30.15 22.74zm-49.47 37.31l45.08-34l-27.47-20.72l-17.61 54.73zm-27.65-95.48l42.59 32.12l10.37-32.24l-52.96 0.12zm77.12-58.27l-16.98 52.79l33.95-0.07l-16.96-52.71z" />
	<path id="li" class="s2" d="m138.04 138.17c2.7 7.85 5.41 15.7 8.11 23.55c-0.54 0.19-1.08 0.38-1.62 0.58c-2.86-7.79-5.72-15.59-8.57-23.38c0.69-0.25 1.39-0.5 2.09-0.74zm4.62-1.48c0.71-0.21 1.41-0.41 2.12-0.61c2.2 8 4.4 16.01 6.61 24.01c-0.55 0.15-1.1 0.31-1.65 0.47c-2.36-7.96-4.72-15.92-7.08-23.88v0zm8.95-2.26c1.69 8.13 3.39 16.25 5.08 24.38c-0.56 0.12-1.11 0.24-1.67 0.37c-1.85-8.09-3.71-16.18-5.56-24.27c0.71-0.16 1.43-0.32 2.15-0.47zm6.9-1.21c1.18 8.22 2.36 16.43 3.55 24.65c-0.56 0.08-1.12 0.17-1.68 0.26c-1.34-8.19-2.69-16.38-4.03-24.57c0.72-0.12 1.44-0.23 2.17-0.33zm6.95-0.78c0.67 8.27 1.33 16.55 2 24.82c-0.56 0.05-1.13 0.1-1.69 0.15c-0.83-8.26-1.66-16.52-2.48-24.78c0.73-0.07 1.45-0.14 2.18-0.2zm4.79-0.28c0.73-0.03 1.46-0.05 2.19-0.06c0.15 8.3 0.3 16.6 0.44 24.9c-0.57 0.01-1.13 0.03-1.7 0.05c-0.31-8.29-0.62-16.59-0.93-24.88v0zm6.98-0.04c0.73 0.02 1.46 0.04 2.18 0.08c-0.37 8.29-0.74 16.59-1.11 24.88c-0.57-0.03-1.13-0.05-1.7-0.06c0.21-8.3 0.42-16.6 0.63-24.89v0zm6.97 0.39c0.73 0.06 1.45 0.13 2.18 0.21c-0.89 8.25-1.78 16.51-2.66 24.76c-0.56-0.06-1.13-0.12-1.69-0.17c0.73-8.27 1.45-16.54 2.18-24.81v0zm9.11 1.18c-1.4 8.18-2.81 16.36-4.21 24.54c-0.56-0.1-1.12-0.19-1.68-0.27c1.24-8.21 2.48-16.41 3.73-24.62c0.72 0.11 1.44 0.23 2.16 0.35zm4.73 0.92c0.72 0.15 1.43 0.32 2.14 0.49c-1.91 8.08-3.83 16.15-5.74 24.23c-0.55-0.13-1.11-0.26-1.67-0.38c1.75-8.11 3.51-16.23 5.26-24.34v0zm8.94 2.32c-2.42 7.94-4.84 15.88-7.25 23.82c-0.55-0.17-1.1-0.33-1.65-0.48c2.26-7.99 4.52-15.97 6.78-23.96c0.71 0.2 1.41 0.41 2.12 0.62zm4.61 1.52c0.7 0.25 1.39 0.5 2.09 0.76c-2.92 7.77-5.83 15.54-8.75 23.32c-0.54-0.2-1.08-0.4-1.62-0.59c2.76-7.83 5.52-15.66 8.28-23.48v0zm-75.65 227.64c2.86-7.79 5.72-15.59 8.57-23.38c0.54 0.2 1.08 0.39 1.62 0.58c-2.7 7.85-5.41 15.7-8.11 23.55c-0.7-0.24-1.39-0.49-2.09-0.74zm6.71 2.22c2.36-7.96 4.72-15.92 7.08-23.88c0.55 0.16 1.1 0.32 1.65 0.47c-2.2 8-4.4 16.01-6.61 24.01c-0.71-0.19-1.42-0.4-2.12-0.61v0zm6.81 1.79c1.85-8.09 3.71-16.18 5.56-24.27c0.56 0.13 1.11 0.25 1.67 0.37c-1.69 8.13-3.39 16.25-5.08 24.38c-0.72-0.15-1.43-0.31-2.15-0.47zm6.88 1.35c1.34-8.19 2.69-16.38 4.03-24.57c0.56 0.09 1.12 0.18 1.68 0.26c-1.18 8.22-2.36 16.43-3.55 24.65c-0.72-0.1-1.45-0.22-2.17-0.33zm6.94 0.91c0.83-8.26 1.66-16.52 2.48-24.78c0.56 0.06 1.13 0.11 1.69 0.15c-0.67 8.27-1.33 16.55-2 24.82c-0.73-0.06-1.45-0.12-2.18-0.2zm6.97 0.48c0.31-8.29 0.62-16.59 0.93-24.88c0.57 0.02 1.13 0.04 1.7 0.05c-0.15 8.3-0.3 16.6-0.44 24.9c-0.73-0.01-1.46-0.03-2.19-0.06v0zm6.98 0.04c-0.21-8.3-0.42-16.6-0.63-24.89c0.57-0.01 1.13-0.03 1.7-0.06c0.37 8.29 0.74 16.58 1.11 24.88c-0.73 0.03-1.46 0.06-2.18 0.08v0zm6.97-0.39c-0.73-8.27-1.45-16.54-2.18-24.81c0.56-0.05 1.13-0.1 1.69-0.17c0.89 8.25 1.78 16.51 2.66 24.76c-0.73 0.08-1.45 0.15-2.18 0.21v0zm6.94-0.83c-1.24-8.21-2.48-16.41-3.73-24.62c0.56-0.08 1.12-0.18 1.68-0.27c1.4 8.18 2.81 16.36 4.21 24.54c-0.72 0.12-1.44 0.24-2.16 0.35zm6.89-1.27c-1.75-8.11-3.51-16.23-5.26-24.34c0.56-0.12 1.11-0.25 1.67-0.38c1.91 8.08 3.83 16.15 5.74 24.23c-0.71 0.17-1.43 0.33-2.14 0.49v0zm6.82-1.7c-2.26-7.99-4.52-15.97-6.78-23.96c0.55-0.16 1.1-0.32 1.65-0.48c2.42 7.94 4.84 15.88 7.25 23.82c-0.7 0.21-1.41 0.42-2.12 0.62zm6.73-2.14c-2.76-7.83-5.52-15.66-8.28-23.48c0.54-0.19 1.08-0.39 1.62-0.59c2.92 7.77 5.83 15.54 8.75 23.32c-0.69 0.26-1.39 0.51-2.09 0.76v0zm18.05-220.9c-3.64 7.46-7.28 14.92-10.92 22.38c-0.52-0.25-1.03-0.5-1.56-0.74c3.49-7.53 6.98-15.06 10.47-22.59c0.67 0.31 1.34 0.63 2 0.95zm4.32 2.22c0.65 0.35 1.29 0.71 1.93 1.07c-4.1 7.22-8.2 14.43-12.31 21.65c-0.5-0.28-1-0.56-1.5-0.83c3.96-7.3 7.92-14.59 11.88-21.89v0zm7.93 4.74c-4.55 6.94-9.1 13.89-13.64 20.83c-0.48-0.31-0.96-0.62-1.44-0.92c4.41-7.03 8.82-14.06 13.23-21.1c0.62 0.39 1.24 0.78 1.85 1.19zm5.74 4.02c-4.97 6.65-9.95 13.29-14.92 19.94c-0.45-0.34-0.91-0.68-1.37-1.01c4.84-6.74 9.69-13.48 14.53-20.23c0.59 0.43 1.18 0.86 1.77 1.3zm5.46 4.36c-5.38 6.32-10.76 12.64-16.14 18.96c-0.43-0.37-0.87-0.73-1.31-1.09c5.26-6.43 10.51-12.85 15.77-19.28c0.56 0.46 1.12 0.93 1.68 1.4zm3.59 3.19c0.53 0.5 1.06 1 1.59 1.5c-5.76 5.97-11.53 11.95-17.29 17.92c-0.41-0.39-0.82-0.78-1.23-1.17c5.65-6.08 11.29-12.17 16.94-18.25v0zm4.97 4.91c0.5 0.53 1 1.06 1.49 1.6c-6.13 5.6-12.25 11.2-18.38 16.8c-0.38-0.42-0.77-0.83-1.16-1.24c6.02-5.72 12.03-11.44 18.05-17.16v0zm4.65 5.21c0.47 0.56 0.93 1.12 1.39 1.69c-6.46 5.21-12.93 10.42-19.39 15.62c-0.36-0.44-0.72-0.88-1.08-1.31c6.36-5.33 12.72-10.67 19.08-16v0zm5.61 7.27c-6.78 4.79-13.55 9.59-20.33 14.38c-0.33-0.46-0.66-0.92-1-1.38c6.68-4.93 13.36-9.85 20.04-14.78c0.43 0.59 0.86 1.18 1.28 1.78zm2.7 3.99c0.4 0.62 0.79 1.24 1.17 1.86c-7.06 4.36-14.13 8.72-21.19 13.08c-0.3-0.49-0.6-0.97-0.91-1.45c6.98-4.5 13.95-8.99 20.93-13.49v0zm4.68 7.97c-7.32 3.91-14.65 7.81-21.97 11.72c-0.27-0.51-0.54-1.01-0.82-1.51c7.25-4.05 14.49-8.1 21.74-12.15c0.36 0.64 0.71 1.29 1.06 1.94zm2.19 4.33c0.32 0.67 0.63 1.34 0.94 2.01c-7.56 3.43-15.11 6.87-22.67 10.3c-0.24-0.52-0.48-1.04-0.73-1.56c7.49-3.58 14.97-7.17 22.46-10.75v0zm-214.46 107.47c7.53-3.49 15.06-6.98 22.59-10.47c0.24 0.52 0.49 1.04 0.74 1.56c-7.46 3.64-14.92 7.28-22.38 10.92c-0.32-0.66-0.64-1.33-0.95-2zm3.17 6.32c7.3-3.96 14.59-7.92 21.89-11.88c0.27 0.5 0.55 1 0.83 1.5c-7.22 4.1-14.43 8.2-21.65 12.31c-0.36-0.64-0.72-1.28-1.07-1.93v0zm3.55 6.08c7.03-4.41 14.06-8.82 21.1-13.23c0.3 0.48 0.61 0.96 0.92 1.44c-6.94 4.55-13.89 9.1-20.83 13.64c-0.4-0.61-0.8-1.23-1.19-1.85zm3.91 5.82c6.74-4.84 13.48-9.69 20.23-14.53c0.33 0.46 0.67 0.92 1.01 1.37c-6.65 4.97-13.29 9.95-19.94 14.92c-0.44-0.58-0.87-1.17-1.3-1.77zm4.26 5.55c6.43-5.26 12.85-10.51 19.28-15.77c0.36 0.44 0.72 0.87 1.09 1.31c-6.32 5.38-12.64 10.76-18.96 16.14c-0.47-0.56-0.94-1.12-1.4-1.68zm4.59 5.27c6.08-5.65 12.17-11.29 18.25-16.94c0.39 0.42 0.77 0.83 1.17 1.23c-5.97 5.76-11.95 11.53-17.92 17.29c-0.51-0.52-1.01-1.05-1.5-1.59v0zm4.91 4.97c5.72-6.02 11.44-12.03 17.16-18.05c0.41 0.39 0.82 0.78 1.24 1.16c-5.6 6.13-11.2 12.25-16.8 18.38c-0.54-0.49-1.07-0.99-1.6-1.49v0zm5.21 4.65c5.33-6.36 10.67-12.72 16-19.08c0.43 0.36 0.87 0.72 1.31 1.08c-5.21 6.46-10.42 12.93-15.62 19.39c-0.57-0.46-1.13-0.92-1.69-1.39v0zm5.5 4.32c4.93-6.68 9.85-13.36 14.78-20.04c0.46 0.34 0.92 0.67 1.38 1c-4.79 6.78-9.59 13.55-14.38 20.33c-0.6-0.42-1.19-0.85-1.78-1.28zm5.77 3.98c4.5-6.98 8.99-13.95 13.49-20.93c0.48 0.31 0.96 0.61 1.45 0.91c-4.36 7.06-8.72 14.13-13.08 21.19c-0.62-0.39-1.24-0.78-1.86-1.17v0zm6.03 3.62c4.05-7.25 8.1-14.49 12.15-21.74c0.5 0.28 1 0.55 1.51 0.82c-3.91 7.32-7.81 14.65-11.72 21.97c-0.65-0.35-1.3-0.7-1.94-1.06zm6.27 3.25c3.58-7.49 7.17-14.97 10.75-22.46c0.52 0.25 1.04 0.49 1.56 0.73c-3.43 7.56-6.87 15.11-10.3 22.67c-0.67-0.31-1.34-0.62-2.01-0.94v0zm168.87-143.4c-7.85 2.7-15.7 5.41-23.55 8.11c-0.19-0.54-0.38-1.08-0.58-1.62c7.79-2.86 15.59-5.72 23.38-8.57c0.25 0.69 0.5 1.39 0.74 2.09zm1.48 4.62c0.21 0.71 0.41 1.41 0.61 2.12c-8 2.2-16.01 4.4-24.01 6.61c-0.15-0.55-0.31-1.1-0.47-1.65c7.96-2.36 15.92-4.72 23.88-7.08v0zm2.26 8.95c-8.13 1.69-16.25 3.39-24.38 5.08c-0.12-0.56-0.24-1.11-0.37-1.67c8.09-1.85 16.18-3.71 24.27-5.56c0.16 0.71 0.32 1.43 0.47 2.15zm1.21 6.9c-8.22 1.18-16.43 2.36-24.65 3.55c-0.08-0.56-0.17-1.12-0.26-1.68c8.19-1.34 16.38-2.69 24.57-4.03c0.12 0.72 0.23 1.44 0.33 2.17zm0.78 6.95c-8.27 0.67-16.55 1.33-24.82 2c-0.05-0.56-0.1-1.13-0.15-1.69c8.26-0.83 16.52-1.66 24.78-2.48c0.07 0.73 0.14 1.45 0.2 2.18zm0.28 4.79c0.03 0.73 0.05 1.46 0.06 2.19c-8.3 0.15-16.6 0.3-24.9 0.44c-0.01-0.57-0.03-1.13-0.05-1.7c8.29-0.31 16.59-0.62 24.88-0.93v0zm0.04 6.98c-0.02 0.73-0.04 1.46-0.08 2.18c-8.29-0.37-16.59-0.74-24.88-1.11c0.03-0.57 0.05-1.13 0.06-1.7c8.3 0.21 16.6 0.42 24.89 0.63v0zm-0.39 6.97c-0.06 0.73-0.13 1.45-0.21 2.18c-8.25-0.89-16.51-1.78-24.76-2.66c0.06-0.56 0.12-1.13 0.17-1.69c8.27 0.73 16.54 1.45 24.81 2.18v0zm-1.18 9.11c-8.18-1.4-16.36-2.81-24.54-4.21c0.1-0.56 0.19-1.12 0.27-1.68c8.21 1.24 16.41 2.48 24.62 3.73c-0.11 0.72-0.23 1.44-0.35 2.16zm-0.92 4.73c-0.15 0.72-0.32 1.43-0.49 2.14c-8.08-1.91-16.15-3.83-24.23-5.74c0.13-0.55 0.26-1.11 0.38-1.67c8.11 1.75 16.23 3.51 24.34 5.26v0zm-2.32 8.94c-7.94-2.42-15.88-4.84-23.82-7.25c0.17-0.55 0.33-1.1 0.48-1.65c7.99 2.26 15.97 4.52 23.96 6.78c-0.2 0.71-0.41 1.41-0.62 2.12zm-1.52 4.61c-0.25 0.7-0.5 1.39-0.76 2.09c-7.77-2.92-15.54-5.83-23.32-8.75c0.2-0.54 0.4-1.08 0.59-1.62c7.83 2.76 15.66 5.52 23.48 8.28v0zm-227.64-75.65c7.79 2.86 15.59 5.72 23.38 8.57c-0.2 0.54-0.39 1.08-0.58 1.62c-7.85-2.7-15.7-5.41-23.55-8.11c0.24-0.7 0.49-1.39 0.74-2.09zm-2.22 6.71c7.96 2.36 15.92 4.72 23.88 7.08c-0.16 0.55-0.32 1.1-0.47 1.65c-8-2.2-16.01-4.4-24.01-6.61c0.19-0.71 0.4-1.42 0.61-2.12v0zm-1.79 6.81c8.09 1.85 16.18 3.71 24.27 5.56c-0.13 0.56-0.25 1.11-0.37 1.67c-8.13-1.69-16.25-3.39-24.38-5.08c0.15-0.72 0.31-1.43 0.47-2.15zm-1.35 6.88c8.19 1.34 16.38 2.69 24.57 4.03c-0.09 0.56-0.18 1.12-0.26 1.68c-8.22-1.18-16.43-2.36-24.65-3.55c0.1-0.72 0.22-1.45 0.33-2.17zm-0.91 6.94c8.26 0.83 16.52 1.66 24.78 2.48c-0.06 0.56-0.11 1.13-0.15 1.69c-8.27-0.67-16.55-1.33-24.82-2c0.06-0.73 0.12-1.45 0.2-2.18zm-0.48 6.97c8.29 0.31 16.59 0.62 24.88 0.93c-0.02 0.57-0.04 1.13-0.05 1.7c-8.3-0.15-16.6-0.3-24.9-0.44c0.01-0.73 0.03-1.46 0.06-2.19v0zm-0.04 6.98c8.3-0.21 16.6-0.42 24.89-0.63c0.01 0.57 0.03 1.13 0.06 1.7c-8.29 0.37-16.59 0.74-24.88 1.11c-0.03-0.73-0.06-1.46-0.08-2.18v0zm0.39 6.97c8.27-0.73 16.54-1.45 24.81-2.18c0.05 0.56 0.1 1.13 0.17 1.69c-8.25 0.89-16.51 1.78-24.76 2.66c-0.08-0.73-0.15-1.45-0.21-2.18v0zm0.83 6.94c8.21-1.24 16.41-2.48 24.62-3.73c0.08 0.56 0.18 1.12 0.27 1.68c-8.18 1.4-16.36 2.81-24.54 4.21c-0.12-0.72-0.24-1.44-0.35-2.16zm1.27 6.89c8.11-1.75 16.23-3.51 24.34-5.26c0.12 0.56 0.25 1.11 0.38 1.67c-8.08 1.91-16.15 3.83-24.23 5.74c-0.17-0.71-0.33-1.43-0.49-2.14v0zm1.7 6.82c7.99-2.26 15.97-4.52 23.96-6.78c0.16 0.55 0.32 1.1 0.48 1.65c-7.94 2.42-15.88 4.84-23.82 7.25c-0.21-0.7-0.42-1.41-0.62-2.12zm2.14 6.73c7.83-2.76 15.66-5.52 23.48-8.28c0.19 0.54 0.39 1.08 0.59 1.62c-7.77 2.92-15.54 5.83-23.32 8.75c-0.26-0.69-0.51-1.39-0.76-2.09v0zm220.91 18.05c-7.46-3.64-14.92-7.28-22.38-10.92c0.25-0.52 0.5-1.03 0.74-1.56c7.53 3.49 15.06 6.98 22.59 10.47c-0.31 0.67-0.63 1.34-0.95 2zm-2.22 4.32c-0.35 0.65-0.71 1.29-1.07 1.93c-7.22-4.1-14.43-8.2-21.65-12.31c0.28-0.5 0.56-1 0.83-1.5c7.3 3.96 14.59 7.92 21.89 11.88v0zm-4.74 7.93c-6.94-4.55-13.89-9.1-20.83-13.64c0.31-0.48 0.62-0.96 0.92-1.44c7.03 4.41 14.06 8.82 21.1 13.23c-0.39 0.62-0.78 1.24-1.19 1.85zm-4.02 5.74c-6.65-4.97-13.29-9.95-19.94-14.92c0.34-0.45 0.68-0.91 1.01-1.37c6.74 4.84 13.48 9.69 20.23 14.53c-0.43 0.59-0.86 1.18-1.3 1.77zm-4.36 5.46c-6.32-5.38-12.64-10.76-18.96-16.14c0.37-0.43 0.73-0.87 1.09-1.31c6.43 5.26 12.85 10.51 19.28 15.77c-0.46 0.56-0.93 1.12-1.4 1.68zm-3.19 3.59c-0.5 0.53-1 1.06-1.5 1.59c-5.97-5.76-11.95-11.53-17.92-17.29c0.39-0.41 0.78-0.82 1.17-1.23c6.08 5.65 12.17 11.29 18.25 16.94v0zm-4.91 4.97c-0.53 0.5-1.06 1-1.6 1.49c-5.6-6.13-11.2-12.25-16.8-18.38c0.42-0.38 0.83-0.77 1.24-1.16c5.72 6.02 11.44 12.03 17.16 18.05v0zm-5.21 4.65c-0.56 0.47-1.12 0.93-1.69 1.39c-5.21-6.46-10.42-12.93-15.62-19.39c0.44-0.36 0.88-0.72 1.31-1.08c5.33 6.36 10.67 12.72 16 19.08v0zm-7.27 5.61c-4.79-6.78-9.59-13.55-14.38-20.33c0.46-0.33 0.92-0.66 1.38-1c4.93 6.68 9.85 13.36 14.78 20.04c-0.59 0.43-1.18 0.86-1.78 1.28zm-3.99 2.7c-0.62 0.4-1.24 0.79-1.86 1.17c-4.36-7.06-8.72-14.13-13.08-21.19c0.49-0.3 0.97-0.6 1.45-0.91c4.5 6.98 8.99 13.95 13.49 20.93v0zm-7.97 4.68c-3.91-7.32-7.81-14.65-11.72-21.97c0.51-0.27 1.01-0.54 1.51-0.82c4.05 7.25 8.1 14.49 12.15 21.74c-0.64 0.36-1.29 0.71-1.94 1.06zm-4.33 2.19c-0.67 0.32-1.34 0.63-2.01 0.94c-3.43-7.56-6.87-15.11-10.3-22.67c0.52-0.24 1.04-0.48 1.56-0.73c3.58 7.49 7.17 14.97 10.75 22.46v0zm-107.47-214.46c3.49 7.53 6.98 15.06 10.47 22.59c-0.52 0.24-1.04 0.49-1.56 0.74c-3.64-7.46-7.28-14.92-10.92-22.38c0.66-0.32 1.33-0.64 2-0.95zm-6.32 3.17c3.96 7.3 7.92 14.59 11.88 21.89c-0.5 0.27-1 0.55-1.5 0.83c-4.1-7.22-8.2-14.43-12.31-21.65c0.64-0.36 1.28-0.72 1.93-1.07v0zm-6.08 3.55c4.41 7.03 8.82 14.06 13.23 21.1c-0.48 0.3-0.96 0.61-1.44 0.92c-4.55-6.94-9.1-13.89-13.64-20.83c0.61-0.4 1.23-0.8 1.85-1.19zm-5.82 3.91c4.84 6.74 9.69 13.48 14.53 20.23c-0.46 0.33-0.92 0.67-1.37 1.01c-4.97-6.65-9.95-13.29-14.92-19.94c0.58-0.44 1.17-0.87 1.77-1.3zm-5.55 4.26c5.26 6.43 10.51 12.85 15.77 19.28c-0.44 0.36-0.87 0.72-1.31 1.09c-5.38-6.32-10.76-12.64-16.14-18.96c0.56-0.47 1.12-0.94 1.68-1.4zm-5.27 4.59c5.65 6.08 11.29 12.17 16.94 18.25c-0.42 0.39-0.83 0.77-1.23 1.17c-5.76-5.97-11.53-11.95-17.29-17.92c0.52-0.51 1.05-1.01 1.59-1.5v0zm-4.97 4.91c6.02 5.72 12.03 11.44 18.05 17.16c-0.39 0.41-0.78 0.82-1.16 1.24c-6.13-5.6-12.25-11.2-18.38-16.8c0.49-0.54 0.99-1.07 1.49-1.6v0zm-4.65 5.21c6.36 5.33 12.72 10.67 19.08 16c-0.36 0.43-0.72 0.87-1.08 1.31c-6.46-5.21-12.93-10.42-19.39-15.62c0.46-0.57 0.92-1.13 1.39-1.69v0zm-4.32 5.5c6.68 4.93 13.36 9.85 20.04 14.78c-0.34 0.46-0.67 0.92-1 1.38c-6.78-4.79-13.55-9.59-20.33-14.38c0.42-0.6 0.85-1.19 1.28-1.78zm-3.98 5.77c6.98 4.5 13.95 8.99 20.93 13.49c-0.31 0.48-0.61 0.96-0.91 1.45c-7.06-4.36-14.13-8.72-21.19-13.08c0.39-0.62 0.78-1.24 1.17-1.86v0zm-3.62 6.03c7.25 4.05 14.49 8.1 21.74 12.15c-0.28 0.5-0.55 1-0.82 1.51c-7.32-3.91-14.65-7.81-21.97-11.72c0.35-0.65 0.7-1.3 1.06-1.94zm-3.25 6.27c7.49 3.58 14.97 7.17 22.46 10.75c-0.25 0.52-0.49 1.04-0.73 1.56c-7.56-3.43-15.11-6.87-22.67-10.3c0.31-0.67 0.62-1.34 0.94-2.01v0z" />
	<path id="c1" class="s3" d="m174 104c81.74 0 148 66.26 148 148c0 81.74-66.26 148-148 148c-81.74 0-148-66.26-148-148c0-81.74 66.26-148 148-148z" />
	<path id="c2" class="s3" d="m174 115.84c75.2 0 136.16 60.96 136.16 136.16c0 75.2-60.96 136.16-136.16 136.16c-75.2 0-136.16-60.96-136.16-136.16c0-75.2 60.96-136.16 136.16-136.16z" />
	<path id="c3" class="s3" d="m174 124.01c70.69 0 127.99 57.3 127.99 127.99c0 70.69-57.3 127.99-127.99 127.99c-70.69 0-127.99-57.3-127.99-127.99c0-70.69 57.3-127.99 127.99-127.99z" />
	<path id="c4" class="s3" d="m174 156c53.02 0 96 42.98 96 96c0 53.02-42.98 96-96 96c-53.02 0-96-42.98-96-96c0-53.02 42.98-96 96-96z" />
	<path id="l1" class="s4" d="m174.5 104.1c29.57 0 53.55 66.22 53.55 147.9c0 81.68-23.98 147.9-53.55 147.9c-29.57 0-53.55-66.22-53.55-147.9c0-81.68 23.98-147.9 53.55-147.9z" />
	<path id="l2" class="s4" d="m279.08 147.42c20.91 20.91-8.96 84.69-66.72 142.45c-57.76 57.76-121.53 87.63-142.45 66.72c-20.91-20.91 8.96-84.69 66.72-142.45c57.76-57.76 121.53-87.63 142.45-66.72z" />
	<path id="l3" class="s4" d="m322.4 252c0 29.57-66.22 53.55-147.9 53.55c-81.68 0-147.9-23.98-147.9-53.55c0-29.57 66.22-53.55 147.9-53.55c81.68 0 147.9 23.98 147.9 53.55z" />
	<path id="l4" class="s4" d="m279.08 356.58c-20.91 20.91-84.69-8.96-142.45-66.72c-57.76-57.76-87.63-121.53-66.72-142.45c20.91-20.91 84.69 8.96 142.45 66.72c57.76 57.76 87.63 121.53 66.72 142.45z" />
	<path id="mr" class="s5" d="m194.46 242.95c0 0-4.7 1.65-4.64 7.94c0.06 6.29 5.7 7.94 5.7 7.94c0 0-7.36 3.05-11.19-3.34c-3.83-6.39 1.69-11.07 1.69-11.07c0 0 3.09-3.15 8.44-1.46z" />
	<path id="ml" class="s5" d="m163.98 244.41c0 0 5.52 4.68 1.69 11.07c-3.83 6.39-11.19 3.34-11.19 3.34c0 0 5.64-1.65 5.7-7.94c0.06-6.29-4.64-7.94-4.64-7.94c5.35-1.69 8.44 1.46 8.44 1.46z" />
	<path id="mc" class="s5" d="m175 242.47c4.71 0 8.53 3.82 8.53 8.53c0 4.71-3.82 8.53-8.53 8.53c-4.71 0-8.53-3.82-8.53-8.53c0-4.71 3.82-8.53 8.53-8.53z" />
	<path id="cir" class="s1" d="m135.5 101c4.69 0 8.5 3.81 8.5 8.5c0 4.69-3.81 8.5-8.5 8.5c-4.69 0-8.5-3.81-8.5-8.5c0-4.69 3.81-8.5 8.5-8.5zm76-1c4.69 0 8.5 3.81 8.5 8.5c0 4.69-3.81 8.5-8.5 8.5c-4.69 0-8.5-3.81-8.5-8.5c0-4.69 3.81-8.5 8.5-8.5zm-76 287c4.69 0 8.5 3.81 8.5 8.5c0 4.69-3.81 8.5-8.5 8.5c-4.69 0-8.5-3.81-8.5-8.5c0-4.69 3.81-8.5 8.5-8.5zm76 0c4.69 0 8.5 3.81 8.5 8.5c0 4.69-3.81 8.5-8.5 8.5c-4.69 0-8.5-3.81-8.5-8.5c0-4.69 3.81-8.5 8.5-8.5zm105-182c4.69 0 8.5 3.81 8.5 8.5c0 4.69-3.81 8.5-8.5 8.5c-4.69 0-8.5-3.81-8.5-8.5c0-4.69 3.81-8.5 8.5-8.5zm1 76c4.69 0 8.5 3.81 8.5 8.5c0 4.69-3.81 8.5-8.5 8.5c-4.69 0-8.5-3.81-8.5-8.5c0-4.69 3.81-8.5 8.5-8.5zm-287-76c4.69 0 8.5 3.81 8.5 8.5c0 4.69-3.81 8.5-8.5 8.5c-4.69 0-8.5-3.81-8.5-8.5c0-4.69 3.81-8.5 8.5-8.5zm0 76c4.69 0 8.5 3.81 8.5 8.5c0 4.69-3.81 8.5-8.5 8.5c-4.69 0-8.5-3.81-8.5-8.5c0-4.69 3.81-8.5 8.5-8.5zm39 70c4.69 0 8.5 3.81 8.5 8.5c0 4.69-3.81 8.5-8.5 8.5c-4.69 0-8.5-3.81-8.5-8.5c0-4.69 3.81-8.5 8.5-8.5zm208 0c4.69 0 8.5 3.81 8.5 8.5c0 4.69-3.81 8.5-8.5 8.5c-4.69 0-8.5-3.81-8.5-8.5c0-4.69 3.81-8.5 8.5-8.5zm1-210c4.69 0 8.5 3.81 8.5 8.5c0 4.69-3.81 8.5-8.5 8.5c-4.69 0-8.5-3.81-8.5-8.5c0-4.69 3.81-8.5 8.5-8.5zm-209-2c4.69 0 8.5 3.81 8.5 8.5c0 4.69-3.81 8.5-8.5 8.5c-4.69 0-8.5-3.81-8.5-8.5c0-4.69 3.81-8.5 8.5-8.5z" />
</svg>