<svg version="1.2" baseProfile="tiny-ps" xmlns="http://www.w3.org/2000/svg" viewBox="0 0 350 500" width="350" height="500">
	<title>solomonseal</title>
	<style>
		tspan { white-space:pre }
		.s0 { opacity: .2;fill: #000000 } 
		.s1 { fill: #715744 } 
		.s2 { opacity: .1;fill: #ffffff } 
		.s3 { opacity: 0;fill: #000000 } 
		.s4 { opacity: .3;fill: #000000 } 
	</style>
	<path id="solomon-seal" fill-rule="evenodd" class="s0" d="m165.74 135.03c152.51-2.67 158.58 193.43 26.02 215.63c-75.83 12.7-139.89-65.99-117.07-139.76c9.47-30.6 32.87-55.87 61.04-67.88c10-2.66 20.01-5.32 30.02-7.99zm5 4.99c-7.34 1.33-14.68 2.66-22.01 3.99c-24.59 7.55-44.52 24.08-57.03 43.92c0 0.33 0 0.67 0 1c18.01-0.33 36.02-0.67 54.03-1c9.67-15.64 19.35-31.28 29.02-46.92c0-0.33 0-0.67 0-1c-1.33 0-2.67 0-4 0zm12.01 0c9.67 16.3 19.35 32.61 29.02 48.92c18.01 0 36.02 0 54.03 0c0-0.33 0-0.67 0-1c-0.67-0.67-1.33-1.33-2-2c-11.8-26.48-45.51-42.86-81.05-45.92zm-5 1c-9 15.97-18.01 31.95-27.02 47.92c18.68 0 37.36 0 56.03 0c0-0.33 0-0.67 0-1c-0.67-0.67-1.33-1.33-2-2c-9-14.97-18.01-29.95-27.02-44.92zm-51.03 20.96c2.33 0.67 4.67 1.33 7 2c-0.67 2-1.33 3.99-2 5.99c-0.33 0-0.67 0-1 0c-1.33 0-2.67 0-4 0c-0.67-1-1.33-2-2-2.99c0.67-1.66 1.33-3.33 2-4.99zm99.06 0c2.33 0.67 4.67 1.33 7 2c-0.67 2-1.33 3.99-2 5.99c-0.33 0-0.67 0-1 0c-1.33 0-2.67 0-4 0c-0.67-1-1.33-2-2-2.99c0.67-1.66 1.33-3.33 2-4.99zm-137.08 29.95c9 15.64 18.01 31.28 27.02 46.92c1-0.67 2-1.33 3-2c8.67-14.97 17.34-29.95 26.02-44.92c-18.68 0-37.36 0-56.03 0zm59.03 0c-9.67 17.3-19.35 34.61-29.02 51.91c9.67 16.64 19.35 33.28 29.02 49.91c20.68 0 41.36 0 62.04 0c9.67-17.3 19.35-34.61 29.02-51.91c-9.67-16.64-19.35-33.28-29.02-49.91c-20.68 0-41.36 0-62.04 0zm65.04 0c9.34 15.64 18.68 31.28 28.02 46.92c0.67-0.33 1.33-0.67 2-1c8.67-14.97 17.34-29.95 26.02-44.92c0-0.33 0-0.67 0-1c-18.68 0-37.36 0-56.03 0zm-126.07 4.99c-10.75 21.61-18.28 72.37 1 91.84c0-0.67 0-1.33 0-2c9.14-9.12 23.71-31.88 26.02-45.92c-9-14.64-18.01-29.28-27.02-43.92zm183.11 0c-6.53 16.64-22.77 29.26-26.02 47.92c8.67 14.64 17.34 29.28 26.02 43.92c0.67-0.33 1.33-0.67 2-1c7.68-23.62 18.12-70.45-2-90.84zm-187.11 41.93c2.33 0.67 4.67 1.33 7 2c-0.67 2-1.33 3.99-2 5.99c-0.33 0-0.67 0-1 0c-1.33 0-2.67 0-4 0c-0.67-1-1.33-2-2-2.99c0.67-1.66 1.33-3.33 2-4.99zm187.11 0c2.33 0.67 4.67 1.33 7 2c-0.67 2-1.33 3.99-2 5.99c-0.33 0-0.67 0-1 0c-1.33 0-2.67 0-4 0c-0.67-1-1.33-2-2-2.99c0.67-1.66 1.33-3.33 2-4.99zm-154.09 7.99c-9 15.64-18.01 31.28-27.02 46.92c18.68 0 37.36 0 56.03 0c-9.67-15.64-19.35-31.28-29.02-46.92zm125.07 0c-9.34 15.64-18.68 31.28-28.02 46.92c18.68 0 37.36 0 56.03 0c0-0.33 0-0.67 0-1c-0.67-0.67-1.33-1.33-2-2c-8.67-14.64-17.34-29.28-26.02-43.92zm-149.09 49.91c11.66 28.04 46.12 45.75 83.05 48.92c-0.67-1-1.33-2-2-2.99c-9-15.31-18.01-30.62-27.02-45.92c-18.01 0-36.02 0-54.03 0zm59.03 0c9.34 15.97 18.68 31.95 28.02 47.92c0.33 0 0.67 0 1 0c9-15.64 18.01-31.28 27.02-46.92c0-0.33 0-0.67 0-1c-18.68 0-37.36 0-56.03 0zm61.04 0c-9.67 16.3-19.35 32.61-29.02 48.92c39.73-2.88 66.62-21.71 83.05-47.92c0-0.33 0-0.67 0-1c-18.01 0-36.02 0-54.03 0zm-85.05 18.97c2.33 0.67 4.67 1.33 7 2c-0.67 2-1.33 3.99-2 5.99c-0.33 0-0.67 0-1 0c-1.33 0-2.67 0-4 0c-0.67-1-1.33-2-2-2.99c0.67-1.66 1.33-3.33 2-4.99zm99.06 0c2.33 0.67 4.67 1.33 7 2c-0.67 2-1.33 3.99-2 5.99c-0.33 0-0.67 0-1 0c-1.33 0-2.67 0-4 0c-0.67-1-1.33-2-2-2.99c0.67-1.66 1.33-3.33 2-4.99z" />
	<path id="r1" class="s1" d="m177.75 165.98l78.05 77.87l-78.05 77.87l-78.05-77.87l78.05-77.87z" />
	<path id="e2" class="s2" d="m177.75 180.77l63.22 63.07l-63.22 63.07l-63.22-63.07l63.22-63.07z" />
	<path id="m1" class="s3" d="m216.97 256.05c-0.37 5.47-3.65 9.38-7.51 10.93c-2.33 0.94-5.18 0.79-7.5-0.05c0.57 2.18 0.59 4.68-0.22 6.77c-1.52 3.94-5.34 7.31-10.69 7.68c-0.1 6.19-7.19 11.41-14.33 11.31c-1.47-0.68-3.39-0.71-4.78-1.28c-3.04-1.25-7.44-5.92-7.51-10.03c-5.36-0.4-9.15-3.72-10.69-7.68c-0.81-2.1-0.79-4.59-0.22-6.77c-2.32 0.84-5.17 0.99-7.5 0.05c-3.86-1.55-7.14-5.46-7.51-10.93c-6.05-0.1-11.16-7.35-11.06-14.65c0.67-1.5 0.69-3.47 1.25-4.88c1.22-3.1 5.79-7.61 9.81-7.68c0.39-5.48 3.64-9.36 7.51-10.93c2.28-0.92 5.04-0.8 7.32-0.01c-0.03-1.34 0.16-2.69 0.63-3.9c1.54-3.96 5.33-7.28 10.69-7.68c0.07-4.11 4.47-8.78 7.51-10.03c1.39-0.57 3.31-0.6 4.78-1.28c7.14-0.1 14.23 5.12 14.33 11.31c5.35 0.37 9.17 3.74 10.69 7.68c0.45 1.17 0.64 2.46 0.63 3.75c2.19-0.65 4.73-0.7 6.86 0.16c3.87 1.57 7.12 5.45 7.51 10.93c4.02 0.07 8.58 4.57 9.81 7.68c0.56 1.42 0.58 3.38 1.25 4.88c0.1 7.3-5 14.55-11.06 14.65zm-1.87-21.51c-1.48-0.14-1.91 1.5-3.08 1.77c-1.77 0.4-3.21-1.55-2.58-3.43c0.4-0.52 0.79-1.03 1.19-1.55c-0.07-1-0.13-1.99-0.2-2.99c-1.51-3.82-5.67-6.07-9.54-3.43c-0.4 2.01-1.31 5.21 0.3 6.53c1 0.82 2.7 0.94 3.38 2.1c0.82 1.41-0.08 3.35-1.09 3.77c-1.42 0.58-2.89-0.46-3.68-1c-2.64-1.8-4.5-4.26-3.95-9.01c-0.73 0.16-1.52 0.27-2.4 0.41c-5.05 0.79-7.59-1.13-9.42-3.96c-0.52-0.8-1.55-2.31-0.97-3.76c0.41-1.02 2.3-1.97 3.68-1.12c0.93 0.57 0.84 1.5 1.41 2.44c1.32 2.21 4.58 2.5 7.26 1.12c1.13-3.29 1.54-6.5-1.62-8.53c-1.55-1-4.69-1.84-5.96-0.2c-1.79 0.48-4.33-0.01-3.79-2.44c0.26-1.17 1.55-1.56 1.73-2.84c0.32-2.33-3.97-5.71-5.85-6.2c-4.71-1.21-9.49 3.01-9.75 5.89c-0.14 1.52 1.47 1.95 1.73 3.15c0.4 1.81-1.52 3.28-3.36 2.64c-0.51-0.41-1.01-0.81-1.52-1.22c-0.97 0.07-1.95 0.14-2.92 0.2c-3.73 1.54-5.94 5.8-3.36 9.75c1.97 0.41 5.09 1.34 6.39-0.3c0.8-1.02 0.92-2.76 2.06-3.45c1.38-0.84 3.28 0.08 3.68 1.12c0.57 1.45-0.45 2.96-0.97 3.76c-1.84 2.81-4.37 4.78-9.42 3.96c-1.06-0.17-2-0.3-2.85-0.52c0.59 4.82-1.28 7.31-3.94 9.12c-0.78 0.54-2.26 1.58-3.68 1c-1.01-0.41-1.92-2.35-1.09-3.77c0.68-1.17 2.38-1.28 3.38-2.1c1.61-1.33 0.7-4.52 0.3-6.53c-3.87-2.64-8.03-0.38-9.54 3.43c-0.07 1-0.13 1.99-0.2 2.99c0.4 0.52 0.79 1.03 1.19 1.55c0.63 1.88-0.82 3.84-2.58 3.43c-1.17-0.27-1.6-1.91-3.08-1.77c-2.82 0.27-6.94 5.16-5.76 9.97c0.47 1.92 3.79 6.31 6.06 5.98c1.26-0.18 1.64-1.51 2.78-1.77c2.38-0.55 2.86 2.05 2.38 3.88c-1.6 1.3-0.77 4.51 0.2 6.09c1.99 3.23 5.13 2.82 8.35 1.66c1.35-2.74 1.06-6.07-1.09-7.42c-0.92-0.58-1.82-0.49-2.38-1.44c-0.84-1.41 0.09-3.35 1.09-3.77c1.41-0.59 2.9 0.47 3.68 1c2.77 1.88 4.65 4.47 3.87 9.64c-0.12 0.8-0.22 1.53-0.35 2.21c0.9-0.26 1.9-0.39 3.05-0.57c5.05-0.82 7.59 1.15 9.42 3.96c0.52 0.8 1.54 2.31 0.97 3.76c-0.4 1.03-2.3 1.96-3.68 1.12c-1.14-0.69-1.26-2.44-2.06-3.45c-1.3-1.65-4.42-0.71-6.39-0.3c-2.58 3.95-0.37 8.21 3.36 9.75c0.97 0.07 1.95 0.14 2.92 0.2c0.51-0.41 1.01-0.81 1.52-1.22c1.84-0.64 3.75 0.83 3.36 2.64c-0.26 1.2-1.87 1.63-1.73 3.15c0.26 2.88 5.04 7.1 9.75 5.89c1.88-0.48 6.17-3.87 5.85-6.2c-0.18-1.29-1.47-1.68-1.73-2.84c-0.54-2.43 2-2.92 3.79-2.44c1.27 1.64 4.41 0.79 5.96-0.2c3.16-2.03 2.76-5.25 1.62-8.53c-2.68-1.38-5.93-1.09-7.26 1.12c-0.56 0.94-0.48 1.87-1.41 2.44c-1.38 0.85-3.27-0.1-3.68-1.12c-0.58-1.45 0.46-2.96 0.97-3.76c1.84-2.83 4.37-4.76 9.42-3.96c1.15 0.18 2.14 0.32 3.05 0.57c-0.13-0.68-0.23-1.41-0.35-2.21c-0.78-5.17 1.11-7.76 3.87-9.64c0.78-0.53 2.26-1.59 3.68-1c1 0.42 1.93 2.35 1.09 3.77c-0.56 0.95-1.46 0.86-2.38 1.44c-2.16 1.35-2.44 4.68-1.09 7.42c3.22 1.16 6.36 1.57 8.35-1.66c0.97-1.58 1.8-4.8 0.2-6.09c-0.47-1.83 0.01-4.43 2.38-3.88c1.14 0.27 1.52 1.59 2.78 1.77c2.27 0.33 5.59-4.06 6.06-5.98c1.18-4.81-2.95-9.7-5.76-9.97z" />
	<path id="m2" class="s4" d="m225.22 247.13c-1.99 1.89-3 4.61-4.61 6.87c-0.68 0.95-2.34 2.06-2.8 2.85c2.9 0.68 2.9 4.84-0.3 5.15c0.02 0.31 0.06 0.62 0.11 0.92c0.55 1.1 1.08 2.12 1.87 3.02c0 0.1 0 0.19 0 0.29c-0.08 0.12-0.17 0.23-0.25 0.35c-0.25-0.03-0.51-0.06-0.76-0.09c0.01 0.05 0.03 0.1 0.04 0.16c0.27 0.75 0.76 1.4 0.82 2.3c-0.16 0.25-0.31 0.5-0.47 0.75c-2.93 0.52-5.41 0.97-7.53 2.3c-1.05 0.66-2.01 1.37-3.04 2c-0.79 1.28-1.74 2.41-2.45 3.59c-1.27 2.12-1.56 4.52-2.18 7.34c-0.21 0.14-0.42 0.27-0.62 0.41c-0.88-0.01-1.38-0.45-2.06-0.7c-0.18-0.05-0.36-0.09-0.54-0.14c0.06 0.29 0.1 0.57-0.02 0.86c-0.21 0.07-0.32 0.15-0.53 0.06c-0.33-0.31-0.66-0.62-0.99-0.93c-0.64-0.28-1.27-0.57-1.91-0.85c-0.34-0.06-0.69-0.1-1.06-0.12c-0.25 1.9-2.16 3.27-4.04 2.03c-0.64-0.42-0.74-1.22-1.22-1.8c0 0 0 0 0 0c0 0.04 0 0.08 0 0.12c-0.81 0.72-1.41 1.69-2.28 2.36c-1.43 1.11-3.13 1.67-4.67 2.73c-2.1 1.45-4.04 3.39-5.37 5.66c-0.27 0.04-0.54 0.08-0.82 0.12c-0.55-0.3-0.64-0.75-0.99-1.24c-1.01-1.1-2.02-2.2-3.04-3.29c-2.71-2.23-6.9-3.23-8.64-6.46c-0.04 0.02-0.08 0.04-0.12 0.06c-0.46 2.89-4.78 2.87-5.16-0.3c-0.33 0.02-0.65 0.06-0.97 0.11c-1.11 0.51-2.18 1-2.98 1.87c-0.35-0.02-0.45-0.06-0.58-0.31c-0.07-0.23-0.02-0.47 0.04-0.71c-0.08 0.02-0.15 0.04-0.23 0.06c-0.75 0.27-1.41 0.76-2.3 0.82c-0.25-0.16-0.5-0.31-0.75-0.47c-0.52-2.92-0.98-5.4-2.3-7.51c-0.69-1.09-1.44-2.09-2.09-3.18c-1.18-0.73-2.24-1.62-3.39-2.3c-2.11-1.25-4.47-1.6-7.3-2.18c-0.3-0.24-0.49-0.53-0.53-1.06c0.31-0.7 0.56-1.42 0.78-2.15c-0.29 0.06-0.57 0.1-0.86-0.02c-0.07-0.21-0.15-0.31-0.06-0.52c0.31-0.33 0.62-0.66 0.93-0.99c0.24-0.54 0.49-1.08 0.73-1.62c0.08-0.42 0.14-0.89 0.21-1.34c-1.88-0.27-3.23-2.17-2-4.02c0.42-0.64 1.23-0.74 1.81-1.22c-0.04 0-0.08 0-0.12 0c-0.72-0.81-1.69-1.41-2.37-2.27c-1.11-1.42-1.68-3.12-2.74-4.66c-1.45-2.1-3.4-4.03-5.67-5.36c-0.04-0.27-0.08-0.54-0.12-0.82c0.31-0.54 0.75-0.64 1.25-0.99c1.1-1.01 2.2-2.02 3.3-3.03c2.24-2.7 3.23-6.88 6.48-8.62c-0.02-0.04-0.04-0.08-0.06-0.12c-2.92-0.46-2.87-4.83 0.36-5.15c-0.01-0.25-0.04-0.49-0.07-0.74c-0.55-1.18-1.05-2.34-1.97-3.19c0.02-0.35 0.06-0.45 0.31-0.58c0.25-0.08 0.52-0.01 0.78 0.06c-0.04-0.17-0.08-0.33-0.13-0.5c-0.25-0.68-0.68-1.24-0.76-2.05c0.15-0.26 0.21-0.53 0.47-0.68c0.35-0.22 0.77-0.08 1.28-0.19c1.42-0.39 2.84-0.79 4.26-1.18c1.89-0.83 3.42-2.17 5.19-3.21c0.71-1.13 1.57-2.15 2.23-3.25c1.25-2.1 1.6-4.46 2.18-7.28c0.24-0.3 0.53-0.49 1.06-0.52c0.72 0.32 1.46 0.57 2.22 0.79c-0.06-0.3-0.1-0.59 0.02-0.88c0.19-0.04 0.39-0.08 0.58-0.12c0.46 0.66 1.35 1.25 2.27 1.68c0.51 0.09 1.06 0.18 1.62 0.27c0.38-3.23 4.46-3.1 5.22-0.2c0.02-0.04 0.04-0.08 0.06-0.12c1.05-0.93 1.85-2.09 3.04-2.92c1.82-1.28 4.03-2.14 5.72-3.54c1.49-1.23 2.4-3.1 3.79-4.41c1.32 0 2.8 2.69 3.62 3.54c1.9 1.99 4.62 2.99 6.89 4.6c0.96 0.68 2.06 2.34 2.86 2.8c0.69-2.92 4.91-2.9 5.17 0.36c0.24-0.01 0.47-0.05 0.71-0.08c1.18-0.58 2.28-1.13 3.23-1.96c0.1 0 0.19 0 0.29 0c0.12 0.08 0.23 0.17 0.35 0.25c-0.03 0.27-0.06 0.55-0.09 0.82c0.14-0.03 0.28-0.07 0.41-0.1c0.69-0.25 1.24-0.68 2.06-0.76c0.26 0.15 0.53 0.21 0.69 0.47c0.22 0.34 0.08 0.77 0.19 1.28c0.39 1.42 0.79 2.83 1.18 4.25c0.81 1.84 2.1 3.33 3.14 5.04c1.23 0.77 2.32 1.68 3.46 2.37c2.12 1.27 4.53 1.55 7.35 2.18c0.14 0.21 0.27 0.41 0.41 0.62c-0.01 0.88-0.45 1.38-0.7 2.05c-0.05 0.2-0.1 0.4-0.15 0.6c0.3-0.06 0.59-0.1 0.88 0.02c0.04 0.19 0.08 0.39 0.12 0.58c-0.72 0.51-1.37 1.53-1.8 2.55c-0.01 0.05-0.03 0.11-0.04 0.16c-0.07 0.37-0.11 0.76-0.13 1.16c3.27 0.36 3.15 4.45 0.24 5.21c0 0 0 0 0 0c0.04 0.02 0.08 0.04 0.12 0.06c0.93 1.05 2.09 1.84 2.93 3.03c1.28 1.82 2.14 4.02 3.55 5.71c1.24 1.48 3.1 2.39 4.42 3.79c0 1.32-2.69 2.79-3.55 3.61zm-8.28-10.38c-0.67 0.67-1.98 1.53-1.23 3.11c0.03-1.14 0.59-2.12 1.69-2.11c0.12 0.04 0.23 0.08 0.35 0.12c0.2 0.27 0.59 0.63 0.41 1.12c-0.25 0.56-0.76 0.58-1.11 0.99c0.17 0.48 0.64 0.49 1.11 0.44c0.55-0.67 1.07-0.97 1.23-2.11c-0.72-0.93-0.75-1.6-2.45-1.55zm-80.78 1.62c0.3 1.1 0.66 1.47 1.34 2.11c0.29-0.07 0.68-0.01 0.93-0.25c0.02-0.12 0.04-0.25 0.06-0.37c-0.49-0.21-0.9-0.37-1.11-0.87c-0.02-0.12-0.04-0.25-0.06-0.37c0.23-0.54 0.45-0.88 1.23-0.87c0.99 0.51 0.91 1.04 1.34 2.18c0.18-1.85-0.19-3.24-2.28-3.17c-0.79 0.47-0.93 0.89-1.46 1.62zm0.06 11.06c0.42 0.56 0.65 1.29 1.4 1.49c1.74 0.46 2.92-1.73 2.22-3.17c0.01 1.44-1.05 2.66-2.22 1.86c-0.1-0.17-0.19-0.33-0.29-0.5c0.02-0.15 0.04-0.29 0.06-0.44c0.25-0.56 0.75-0.57 1.11-0.99c-0.06-0.26-0.03-0.26-0.23-0.37c-0.25-0.04-0.51-0.08-0.76-0.12c-0.59 0.55-1.39 1.15-1.28 2.24zm75.23-22.51c0.53 0.11 2.16 0.97 1.62 1.98c-0.31 0.57-1.66 0.19-2.12 0.06c0 0.02 0 0.04 0 0.06c0.04 0 0.08 0 0.12 0c0.79 0.95 2.79 0.78 2.74-0.82c-0.55-0.67-1.25-1.13-2.12-1.51c-0.26 0.09-0.15-0.01-0.25 0.23zm-2.3 5.88c-0.21 0.83-0.42 1.67-0.62 2.5c-0.21 0.65-0.55 1.21-0.92 1.74c0.39 0.44 0.78 0.88 1.17 1.32c1.69 0.69 3.48-0.57 4.26-1.85c-0.5 0.04-0.99-0.06-1.39-0.31c-0.97 1.01-3.52-0.44-2.46-2.32c0.75-1.33 2.66-1.4 3.9-0.64c0.06 0.02 0.11 0.05 0.16 0.09c0.43 0.31 0.76 0.72 0.9 1.23c0.02 0 0.04 0 0.06 0c0.1-0.58 0.25-1.28 0.38-1.98c-1.27-1.11-4.48-1.02-5.44 0.21zm-6.04-13.39c0.02 0.17 0.04 0.35 0.06 0.52c0.67 0.19 1.01-0.27 1.56-0.12c0.19 0.14 0.37 0.27 0.56 0.41c0.07 2.24-3.87 1.89-3.47-0.36c-0.13 0.01-0.26 0.01-0.4-0.01c-2.42-0.31-1.37-4.07 0.06-3.42c0.33 0.15 0.46 0.37 0.47 0.87c-0.18 0.31-0.5 0.87-0.06 1.18c0.12 0.02 0.23 0.04 0.35 0.06c1.69-0.85 1.14-4.17-1.46-3.54c-0.97 0.24-3.28 1.85-3.04 3.23c0.02 0.11 0.04 0.22 0.07 0.33c0.22 0.19 0.41 0.4 0.5 0.62c0.11 0.35 0.04 0.74-0.09 1.09c0.21 0.87 0.37 1.79 0.31 2.88c1-0.11 1.88-0.01 2.66 0.15c0.53-0.2 1.2-0.02 1.72 0.38c1.47 0.28 2.58 0.12 3.68-2.47c1.13-2.66-2.11-3.37-3.49-1.81zm-11.38-8.64c-0.23 0.44-0.47 0.87-0.7 1.31c0.41-0.14 0.82-0.29 1.23-0.44c0.02-0.04 0.04-0.08 0.06-0.12c-0.19-0.25-0.39-0.5-0.58-0.75zm-2.81-3.71c-0.69 0.11-1.32 0.28-1.7 0.46c-0.07 0.03-0.15 0.09-0.06 0.06c0.39 0.25 0.79 0.5 1.18 0.76c0.01 0.02 0.02 0.04 0.04 0.06c0.03 0.02 0.06 0.05 0.08 0.07c0 0.02-0.01 0.04-0.01 0.07c0.78 1.25 0.35 3.51-0.8 4.05c-1.94 0.91-3.13-1.31-2.15-2.56c-0.07-0.1-0.14-0.19-0.19-0.32c-0.14-0.36-0.18-0.72-0.18-1.07c-0.07 0.04-0.15 0.06-0.22 0.11c-0.86 0.52-2.49 2.68-1.68 4.25c0.43 0.37 0.87 0.74 1.3 1.11c0.5-0.36 1.03-0.71 1.65-0.92c0.89-0.23 1.79-0.46 2.68-0.68c1.6-1.24 1.1-4.03 0.05-5.45zm-1.85 1.6c-0.27-0.15-0.58-0.24-0.91-0.25c0.01 0.14 0.02 0.28 0.03 0.42c0.39 0.22 0.65 0.07 0.88-0.17zm1.01 1.36c-0.31 0.47-0.76 0.71-1.23 0.74c0.06 0.21 0.16 0.38 0.37 0.53c0.1-0.02 0.21-0.04 0.31-0.06c0.46-0.33 0.6-0.78 0.54-1.22zm-13.06 0.35c-0.31-0.1-0.62-0.19-0.93-0.29c0 0.15 0 0.31 0 0.46c0.29-0.1 0.59-0.16 0.92-0.14c0.01-0.01 0.01-0.02 0.02-0.02zm-2.24-3.32c-0.04 0-0.08 0-0.12 0c0.11 0.06 0.01 0.05 0.12 0zm-4.73 4.19c0.1 0.02 0.21 0.04 0.31 0.06c0.12-0.16 0.18-0.32 0.24-0.49c-0.45-0.07-0.84-0.37-1.11-0.74c-0.1 0.47 0.02 0.92 0.57 1.17zm0.99-2.22c0.12-0.06 0.23-0.12 0.35-0.19c0.02-0.04 0.04-0.08 0.06-0.12c0.01-0.14-0.01-0.29-0.03-0.43c-0.16 0-0.32 0-0.5 0.05c-0.13 0.04-0.27 0.13-0.42 0.24c0.14 0.16 0.29 0.32 0.54 0.45zm1.06 1.03c1.12 0.98-0.47 3.65-2.43 2.42c-1.11-0.7-1.35-3.1-0.44-4.19c0.42-0.25 0.83-0.5 1.25-0.76c-0.58-0.07-1.31-0.23-2.03-0.37c-1.06 1.3-0.96 4.42 0.25 5.36c0.84 0.21 1.67 0.41 2.51 0.62c0.71 0.23 1.33 0.62 1.9 1.02c0.7-0.68 1.29-1.44 1.29-2.73c-0.34-0.66-0.99-2.14-1.98-2.81c0.05 0.52-0.06 1.03-0.33 1.44zm-16.82 8.48c0.18-0.02 0.35-0.04 0.53-0.06c0.19-0.67-0.27-1.01-0.12-1.55c0.14-0.19 0.27-0.37 0.41-0.56c2.25-0.07 1.89 3.88-0.38 3.45c0.03 0.17 0.04 0.35 0.01 0.52c-0.32 1.76-3.47 1.98-3.49-0.06c0.17-0.24 0.34-0.34 0.56-0.52c0.7 0.07 0.95 0.42 1.62 0.12c0-0.14 0-0.27 0-0.41c-0.85-1.67-4.11-1.12-3.55 1.4c0.22 1.02 1.84 3.36 3.3 3.09c0.07-0.01 0.13-0.03 0.19-0.04c0.21-0.26 0.45-0.48 0.69-0.58c0.38-0.12 0.81-0.02 1.19 0.13c0.84-0.2 1.74-0.35 2.8-0.29c-0.12-1.04-0.01-1.95 0.15-2.76c-0.14-0.51 0-1.1 0.35-1.58c0.31-1.52 0.19-2.65-2.45-3.77c-2.66-1.12-3.37 2.11-1.81 3.48zm-9.22 8.38c-0.04-0.08-0.08-0.16-0.12-0.23c-0.97 0.23-1.47 0.86-2.18 1.34c-0.19 1.77 1.86 1.95 2.8 0.93c-0.63 0.22-1.45 0.33-2.06 0c-0.24-1.03 0.62-1.83 1.56-2.04zm-1.81 4.95c-0.39 0.1-0.96 0.41-1.36 0.75c0.11 0.72 0.29 1.37 0.48 1.77c0.03 0.07 0.09 0.15 0.06 0.06c0.25-0.39 0.51-0.79 0.76-1.18c1.2-0.95 3.69-0.52 4.26 0.68c0.9 1.9-1.23 3.07-2.49 2.19c-0.11 0.07-0.2 0.15-0.33 0.2c-0.37 0.15-0.74 0.19-1.11 0.18c0.03 0.05 0.05 0.1 0.08 0.15c0.52 0.86 2.69 2.48 4.26 1.68c0.36-0.41 0.71-0.83 1.07-1.24c-0.6-0.82-0.98-1.94-1.25-2.98c-0.08-0.43-0.17-0.85-0.25-1.28c-0.49-0.79-2.65-1.39-4.17-0.99zm5.17 31.62c-0.04-0.02-0.08-0.04-0.12-0.06c-0.09 0.77-0.41 1.11-0.87 1.51c-0.1-0.02-0.21-0.04-0.31-0.06c-0.87-0.31-0.96-1.15-0.93-2.27c-0.06 0-0.12 0-0.19 0c-0.04 0.02-0.08 0.04-0.12 0.06c-0.05 0.91 0.05 1.67 0.25 2.45c0.17 0.1 0.33 0.19 0.5 0.29c1.35 0.39 1.88-0.71 1.81-1.92zm4.98 4.48c-0.02-0.06-0.04-0.12-0.06-0.17c-0.69-0.2-0.82 0.11-1.5 0.17c-0.21-0.16-0.42-0.31-0.62-0.47c-0.03-2.09 3.14-1.88 3.49-0.12c0.03 0.14 0.01 0.29-0.01 0.44c0.17-0.03 0.34-0.04 0.51-0.01c1.76 0.32 1.98 3.46-0.06 3.48c-0.24-0.17-0.34-0.34-0.53-0.56c0.07-0.7 0.42-0.95 0.12-1.62c-0.14 0-0.27 0-0.41 0c-1.67 0.85-1.13 4.1 1.4 3.54c1.02-0.22 3.34-1.82 3.09-3.27c-0.62-0.45-0.72-1.23-0.46-1.96c-0.21-0.87-0.37-1.78-0.32-2.87c-1.06 0.07-1.95-0.05-2.72-0.21c-0.51 0.16-1.11 0.02-1.6-0.33c-1.22-0.19-2.19 0-3.3 1.79c-0.34 0.54-0.85 1.44-0.5 2.45c0.44 1.25 3.43 1.41 3.49-0.29zm8.16 7.62c1.02-0.78 2.03-1.44 3.39-1.93c1.48-0.53 3.47-0.18 5.08-0.68c0.3-0.1 0.61-0.24 0.92-0.43c-0.49-0.52-0.92-1.11-1.17-1.9c-0.02 0-0.04 0-0.06 0c-0.28 0.79-1.32 0.75-1.99 0.41c0.02 2.09-2.13 1.89-3.36 1.13c-0.12-0.01-0.24-0.04-0.37-0.08c-0.42 1.14-1.43 1.6-2.41 1.52c0.04 0.61 0.04 1.25-0.03 1.96zm2.28 1.37c0.22 0.63 0.33 1.45 0 2.05c-1.03 0.24-1.84-0.62-2.04-1.55c-0.08 0.04-0.16 0.08-0.23 0.12c0.24 0.97 0.86 1.47 1.34 2.18c1.77 0.19 1.96-1.86 0.93-2.8zm0.99-0.12c0.02 0 0.04 0 0.06 0c0.12-0.4 0.63-1.07 0.53-1.24c-0.39 0.17-0.78 0.33-1.17 0.5c0.19 0.25 0.39 0.5 0.58 0.75zm1.93 2.42c0.1 0.39 0.42 0.97 0.76 1.37c0.73-0.14 1.41-0.35 2.01-0.43c0-0.02 0-0.04 0-0.06c-0.53-0.09-0.96-0.41-1.28-0.83c-0.05-0.04-0.1-0.07-0.16-0.12c0-0.05 0.01-0.08 0.01-0.12c-0.71-1.18-0.65-2.99 0.49-3.77c1.81-1.23 3.35 0.82 2.48 2.3c0.06 0.09 0.13 0.17 0.18 0.28c0.16 0.39 0.19 0.78 0.18 1.16c1.2-0.68 2.03-2.07 1.96-3.74c-0.34-0.7-0.84-1.22-1.36-1.71c-0.82 0.61-1.95 0.99-3 1.25c-0.43 0.08-0.86 0.17-1.28 0.25c-0.79 0.49-1.4 2.64-0.99 4.16zm3.7 0.14c0-0.15-0.03-0.3-0.09-0.45c-0.06-0.1-0.12-0.21-0.18-0.31c-0.08 0-0.16 0-0.23 0c-0.22 0.19-0.4 0.38-0.58 0.58c0.29 0.19 0.65 0.26 1.08 0.18zm-0.83-2.52c-0.06-0.15-0.14-0.28-0.29-0.47c-0.08 0-0.17 0-0.25 0c-0.33 0.25-0.48 0.66-0.5 1.1c0.28-0.36 0.65-0.57 1.04-0.63zm23.68-0.8c0-0.02 0-0.04 0-0.06c-0.43-0.15-0.86-0.29-1.28-0.44c0.23 0.41 0.47 0.83 0.7 1.24c0.19-0.25 0.39-0.5 0.58-0.75zm0.41 0.81c-0.49 0.86-1.14 2.21 0.12 2.8c0.45 0.27 0.82-0.01 1.11-0.25c0.19-0.41 1.33-1.5 0.99-1.93c-0.04-0.04-0.08-0.08-0.12-0.12c-0.25 0.92-1.18 2.13-2.22 1.49c-0.05-0.36 0.12-1.99 0.12-1.99zm2.33-1.24c-0.22-0.68-0.3-1.34-0.29-1.98c-0.85-0.03-1.72-0.49-2.23-1.53c-0.12 0.04-0.23 0.06-0.35 0.07c-0.92 1.24-3.41 0.48-3.41-1.16c-0.85 0.43-1.52 0.22-2.06-0.41c0 0.04 0 0.08 0 0.12c-0.41 0.61-0.68 1.22-1.08 1.78c0.45 0.26 0.95 0.45 1.48 0.56c1.21 0.1 2.41 0.21 3.62 0.31c1.78 0.51 3.07 1.23 4.32 2.24zm7.18-3.05c1.26-0.44 1.42-3.42-0.29-3.48c-0.06 0.02-0.12 0.04-0.18 0.06c-0.2 0.69 0.11 0.82 0.18 1.49c-0.16 0.21-0.31 0.41-0.47 0.62c-2.09 0.03-1.88-3.13-0.12-3.48c0.14-0.03 0.28-0.01 0.42 0.01c-0.01-0.12-0.01-0.25 0.01-0.39c0.31-2.42 4.08-1.37 3.43 0.06c-0.15 0.33-0.37 0.46-0.87 0.47c-0.31-0.18-0.87-0.49-1.18-0.06c-0.02 0.12-0.04 0.23-0.06 0.35c0.85 1.69 4.18 1.13 3.55-1.46c-0.24-0.97-1.85-3.27-3.24-3.03c-0.03 0.01-0.06 0.01-0.09 0.02c-0.43 0.52-1.12 0.61-1.79 0.42c-0.9 0.22-1.86 0.4-3 0.35c0.06 1.02-0.06 1.88-0.21 2.63c0.2 0.52 0.05 1.19-0.34 1.71c-0.16 1.18 0.06 2.13 1.8 3.2c0.54 0.34 1.44 0.85 2.45 0.5zm5.11-9.82c-0.46 0.08-0.91 0.16-1.37 0.23c0.02 0.04 0.04 0.08 0.06 0.12c0.51 0.12 0.78 0.37 1.18 0.58c0-0.04 0-0.08 0-0.12c0.04-0.27 0.08-0.54 0.12-0.82zm5.73-3.2c-0.19 0.67-1.14 0.92-1.62 1.34c0.02 0.06 0.04 0.12 0.06 0.17c0.83-0.29 1.89-0.8 2.24-1.51c0.02-0.16 0.04-0.31 0.06-0.47c-0.57-1.04-1.93-1.38-2.8-0.35c0.67-0.26 2.46-0.57 2.06 0.82zm1.55-4.62c-0.14-0.7-0.34-1.35-0.42-1.93c-0.02 0-0.04 0-0.06 0c-0.08 0.5-0.36 0.91-0.74 1.22c-0.01 0.01-0.01 0.02-0.02 0.03c-0.06 0.08-0.12 0.16-0.19 0.23c-0.08 0-0.13-0.02-0.21-0.02c-1.18 0.65-2.93 0.57-3.69-0.54c-1.26-1.83 0.89-3.4 2.38-2.43c0.09-0.05 0.17-0.12 0.28-0.16c0.38-0.15 0.76-0.18 1.14-0.17c-0.67-1.23-2.08-2.09-3.79-2.02c-0.72 0.35-1.26 0.87-1.77 1.41c0.36 0.51 0.72 1.04 0.93 1.66c0.23 0.89 0.46 1.79 0.69 2.68c1.25 1.6 4.06 1.09 5.47 0.04zm-1.44-20.46c-0.19 0.17-0.39 0.33-0.55 0.62c0.06 0.12 0.12 0.23 0.19 0.35c0.04 0.02 0.08 0.04 0.12 0.06c0.15 0.01 0.3-0.01 0.45-0.03c0.04-0.37-0.03-0.71-0.22-1zm-2.35 0.19c0.06-0.42 0.33-0.8 0.67-1.07c-0.46 0.01-0.88 0.19-1.1 0.64c0.04 0.1 0.08 0.21 0.12 0.31c0.12 0.06 0.22 0.09 0.31 0.13zm-4.04-7.96c-0.39-0.04-0.77-0.09-1.15-0.16c0.13 0.19 0.2 0.45 0.21 0.79c-0.21 0.42-0.5 0.6-0.82 0.74c0.17 0.08 0.33 0.2 0.5 0.34c0.79-0.34 1.28-0.94 1.26-1.71zm-9.89-11.53c0.08 0.13 0.13 0.27 0.18 0.42c0.01 0 0.01-0.01 0.02-0.01c0.12-0.51 0.37-0.78 0.58-1.18c-0.04 0-0.08 0-0.12 0c-0.27-0.04-0.54-0.08-0.82-0.12c0.05 0.3 0.1 0.59 0.15 0.89zm-11.18 3.68c-0.46-1.03-0.57-1.91-1.18-2.74c-0.02-0.03-0.05-0.05-0.07-0.08c-0.46 0.45-0.82 1.02-1.03 1.79c-0.22 0.8-0.31 1.55 0.02 2.36c0.03 0.03 0.07 0.05 0.1 0.09c0.04-0.03 0.08-0.05 0.11-0.08c0.27-0.65 1.16-1.14 2.02-1.13c0.01-0.07 0.03-0.13 0.03-0.21zm-15.01-2.33c-0.49 0.76-0.75 1.61-0.78 2.45c0.21 0 0.43 0.02 0.67 0.1c0.63 0.2 0.99 0.76 1.41 1.19c0.05-0.05 0.1-0.1 0.15-0.14c0.08-0.45 0.16-0.91 0.25-1.36c-0.2-1.08-0.66-2.02-1.31-2.74c-0.14 0.16-0.27 0.33-0.39 0.51zm-4.73-0.12c-0.32-0.41-0.4-0.76-1.12-0.82c-0.19 0.09-0.39 0.17-0.58 0.26c0.7 0.36 1.16 1 1.48 1.79c0.08-0.41 0.15-0.82 0.23-1.23zm-7.17-2.12c-0.31 0.04-0.62 0.08-0.93 0.12c0.22 0.37 0.41 0.69 0.59 1.13c0.06-0.18 0.14-0.34 0.24-0.49c0.03-0.25 0.07-0.51 0.1-0.76zm-9.34 16.91c0.44 0.98 1.3 0.85 2.27 0.64c-0.92-0.39-1.68-0.85-2.09-1.41c-0.09 0.2-0.16 0.41-0.18 0.76zm-4.85 3.54c0.21-0.06 0.38-0.16 0.53-0.37c-0.02-0.1-0.04-0.21-0.06-0.31c-0.35-0.48-0.83-0.62-1.29-0.53c0.49 0.3 0.76 0.75 0.82 1.21zm-1.76 0.31c-0.13-0.16-0.27-0.29-0.41-0.42c-0.13 0.27-0.21 0.57-0.21 0.88c0.1-0.01 0.21-0.02 0.31-0.06c0.1-0.06 0.21-0.12 0.31-0.17c0-0.08 0-0.16 0-0.23zm-2.21 5.35c0.1 0.95 0.57 1.66 0.96 2.33c0.05-0.08 0.11-0.16 0.17-0.23c-0.43-0.79-0.7-1.6-0.14-2.47c0.06-0.02 0.12-0.04 0.18-0.06c0.76 0.14 1.04 0.59 1.52 0.99c-0.22-0.88-0.7-1.42-1.69-1.49c-0.5 0.31-0.73 0.36-0.99 0.93zm1.52 12.24c0.05 0.15 0.16 0.32 0.29 0.48c0.15-0.13 0.28-0.29 0.4-0.54c-0.06-0.12-0.12-0.23-0.19-0.35c-0.04-0.02-0.08-0.04-0.12-0.06c-0.14-0.01-0.28 0.01-0.43 0.03c0.01 0.14 0 0.29 0.05 0.44zm2.41 0.3c-0.05 0.43-0.27 0.84-0.58 1.15c0.44 0.07 0.85-0.06 1.09-0.58c0.02-0.1 0.04-0.21 0.06-0.31c-0.19-0.14-0.38-0.2-0.57-0.26zm26.52 18.66c0.93-0.99 1.53-2.36 1.15-3.83c-0.13-0.08-0.25-0.17-0.36-0.29c-0.39 0.42-0.74 0.91-1.36 1.07c-0.26 0.07-0.5 0.08-0.73 0.06c-0.1 1.24 0.47 2.19 1.29 2.99zm19.42 0.54c0.23-0.07 0.46-0.14 0.68-0.23c-0.26-0.19-0.49-0.46-0.69-0.78c-0.1-0.06-0.16-0.19-0.2-0.33c-0.2-0.37-0.38-0.79-0.53-1.22c-0.43 1.08-0.22 2.15 0.75 2.57zm6.23 1.19c0.4 0.01 0.7-0.03 0.93-0.19c-0.04-0.04-0.08-0.08-0.12-0.12c-0.16-0.35-0.33-0.7-0.49-1.05c-0.04 0.19-0.09 0.36-0.18 0.52c-0.05 0.28-0.1 0.56-0.15 0.84zm9.34-16.97c-0.3-0.43-0.45-0.75-1.11-0.81c-0.38 0.08-0.75 0.16-1.13 0.23c0.54 0.23 1.01 0.47 1.37 0.74c0.3 0.23 0.46 0.52 0.61 0.85c0.14-0.32 0.29-0.63 0.26-1.02zm-4.11-16.53c-0.03 0.62-0.19 1.27-0.51 1.86c-0.08 0.15-0.16 0.27-0.26 0.39c0.25 0.19 0.49 0.38 0.72 0.58c1.13-0.28 2.37-0.5 3.12-0.72c-0.92-0.76-2.02-1.55-3.08-2.11zm2.43-13.58c-0.16-0.07-0.32-0.14-0.48-0.21c-0.36 0.29-0.65 0.67-0.77 1.23c0.02 0.02 0.04 0.04 0.06 0.06c0.06-0.04 0.12-0.08 0.18-0.12c0.12-0.3 0.57-0.75 1.05-0.95c-0.01 0-0.03-0.01-0.04-0.01zm-5.85-1.84c-0.46 0.49-0.77 1.23-0.99 1.87c0.12 0 0.23 0 0.35 0c0.02-0.78 0.34-1.08 0.7-1.49c0.14 0.02 0.27 0.04 0.41 0.06c0.06 0.04 0.12 0.08 0.18 0.12c-0.01 0.6-0.21 0.96-0.41 1.37c0.25 0.02 0.51 0.04 0.76 0.06c0-0.04 0-0.08 0-0.12c0.3-0.47 0.39-1.33 0.11-1.85c-0.39-0.04-0.76-0.05-1.1-0.02zm-3.19-7.55c-0.16 0.75-0.66 1.1-1.11 1.58c0.02 0.04 0.04 0.08 0.06 0.12c0.02 0 0.04 0 0.06 0c0.48-0.35 0.92-0.6 1.26-0.95c-0.1-0.24-0.18-0.5-0.27-0.75zm-8.26 4.93c-0.17 0.08-0.33 0.18-0.5 0.27c0.11 1.17-0.27 2.18-1.49 2.16c0.15 0.5 0.3 1.01 0.46 1.51c0.31-0.63 0.92-1.16 1.68-1.57c0.09-0.83 0.06-1.65-0.15-2.37zm-6.34-8.28c-0.13 0.12-0.28 0.22-0.48 0.33c0 0.02 0 0.04 0 0.06c0.1 0.15 0.19 0.29 0.29 0.44c0.06-0.04 0.12-0.08 0.18-0.12c0.06-0.12 0.19-0.29 0.34-0.48c-0.11-0.07-0.22-0.15-0.33-0.22zm-1.08 2.97c-0.11 1.19-0.43 2.17-0.78 3.13c0.23 0.26 0.45 0.53 0.65 0.81c0.61-0.41 1.42-0.74 2.21-0.8c-0.55-1.12-1.3-2.22-2.08-3.14zm-11.44 7.8c0.68 0.42 1.26 0.94 1.78 1.55c0.07-0.58 0.18-1.13 0.39-1.61c-1.14 0.03-1.66-1.12-1.48-2.15c-0.14-0.08-0.29-0.16-0.44-0.24c-0.36 0.89-0.4 1.67-0.25 2.45zm-8.1-7.08c-0.07 0.17-0.14 0.33-0.22 0.5c0.34 0.34 0.76 0.65 1.24 0.86c0.02-0.04 0.04-0.08 0.06-0.12c-0.04-0.06-0.08-0.12-0.12-0.17c-0.31-0.12-0.77-0.6-0.96-1.09c0 0.01 0 0.02-0.01 0.02zm-4.27 7.27c-0.27 0.55-0.03 1.32 0.13 1.93c0.14 0 0.27 0 0.41 0c0.12-0.04 0.23-0.08 0.35-0.12c-0.26-0.43-0.51-1.01-0.23-1.49c0.02 0 0.04 0 0.06 0c0.12 0.02 0.23 0.04 0.35 0.06c0.44 0.21 0.7 0.75 0.7 1.43c0.12 0 0.23 0 0.35 0c0-0.02 0-0.04 0-0.06c-0.17-0.36-0.43-1.15-0.82-1.67c-0.43-0.06-0.87-0.08-1.3-0.07zm-1.24 0.2c-0.37 0.14-0.74 0.28-1.1 0.43c0.51 0.01 0.71 0.14 1.01 0.37c0.04 0.35 0.08 0.7 0.12 1.06c0.29 0.01 0.44 0 0.58-0.12c-0.15-0.39-0.31-1.15-0.61-1.73c0 0 0 0 0 0zm-4.18 17.2c1.21 0.13 2.21 0.46 3.19 0.81c0.24-0.2 0.48-0.4 0.73-0.59c-0.43-0.6-0.79-1.43-0.86-2.24c-1.09 0.54-2.16 1.26-3.07 2.02zm3.4 9.63c0.79-0.18 1.51-0.6 2.03-1.3c-0.26 0-0.5-0.03-0.72-0.09c-0.76 0.21-1.38 0.69-1.31 1.39zm2.03 11.74c0.4 0.04 0.79 0.05 1.15 0c0.45-0.49 0.8-1.41 0.96-1.92c-0.12 0-0.23 0-0.35 0c0.02 0.86-0.55 1.81-1.28 1.31c0.02-0.59 0.22-0.96 0.41-1.37c-0.27-0.05-0.58-0.13-0.76 0.06c-0.19 0.34-0.36 1.37-0.12 1.92zm4.23 7.66c0.13-0.8 0.66-1.19 1.13-1.68c0-0.02 0-0.04 0-0.06c-0.57 0.1-1.05 0.46-1.4 0.91c0.1 0.27 0.19 0.55 0.28 0.83zm8.38-5.03c0.14-0.07 0.28-0.14 0.42-0.22c-0.4-1.13 0.54-2.3 1.51-2.27c-0.2-0.5-0.32-0.99-0.43-1.56c-0.26 0.67-0.92 1.24-1.73 1.68c-0.12 0.8-0.07 1.6 0.23 2.37zm6.27 8.35c0.14-0.17 0.32-0.33 0.51-0.52c-0.12-0.14-0.23-0.29-0.35-0.44c-0.16 0.24-0.35 0.46-0.55 0.67c0.14 0.09 0.27 0.19 0.39 0.28zm1.08-3.15c0.09-1.07 0.37-2.24 0.72-3.29c-0.19-0.23-0.39-0.46-0.57-0.71c-0.67 0.51-1.45 0.86-2.18 0.96c0.54 1.08 1.27 2.14 2.02 3.04zm11.43-7.62c-0.87-0.51-1.56-1.12-1.75-1.63c-0.07 0.55-0.18 1.06-0.39 1.57c1.21-0.03 1.75 1.24 1.46 2.35c0.19 0.1 0.39 0.18 0.59 0.27c0.23-0.74 0.24-1.64 0.1-2.55zm8.37 6.63c-0.31-0.43-0.7-0.78-1.33-0.91c-0.02 0.02-0.04 0.04-0.06 0.06c0.04 0.06 0.08 0.12 0.12 0.17c0.35 0.14 0.89 0.71 1.03 1.28c0.08-0.2 0.16-0.4 0.24-0.6zm3.96-6.8c0.39-0.54 0.12-1.43-0.06-2.07c-0.16 0-0.31 0-0.47 0c-0.1 0.02-0.19 0.04-0.29 0.06c0.24 0.48 0.53 1.03 0.23 1.55c-0.1 0-0.19 0-0.29 0c-0.49-0.26-0.8-0.74-0.82-1.49c-0.12 0-0.23 0-0.35 0c0.17 0.43 0.51 1.44 1.01 1.94c0.33 0.04 0.68 0.04 1.04 0zm5.56-17.57c-1.04-0.07-2.2-0.34-3.25-0.68c-0.25 0.22-0.51 0.43-0.79 0.62c0.48 0.67 0.81 1.43 0.89 2.14c1.12-0.55 2.22-1.31 3.14-2.09zm3.87-4c-0.17 0.08-0.37 0.14-0.64 0.14c0.17 0.21 0.33 0.43 0.5 0.64c0.04-0.04 0.08-0.08 0.12-0.12c0.15-0.04 0.29-0.11 0.44-0.19c-0.15-0.15-0.28-0.31-0.42-0.48zm-0.04 4.21c0.15-0.13 0.29-0.25 0.44-0.38c-0.15-0.11-0.31-0.21-0.48-0.31c-0.17 0.17-0.33 0.35-0.5 0.52c0 0.02 0 0.04 0 0.06c0.22 0.01 0.38 0.06 0.52 0.13c0.01-0.01 0.01-0.02 0.02-0.02zm0.51-2.72c0.27-0.08 0.6-0.14 0.94-0.18c-0.17-0.11-0.34-0.23-0.5-0.36c-0.18 0.13-0.35 0.29-0.44 0.54zm2.57 0.61c0.04-0.02 0.08-0.04 0.13-0.06c-0.05-0.01-0.09-0.03-0.14-0.04c0 0.03 0.01 0.07 0.01 0.1zm-1.62 0.85c-0.35-0.03-0.67-0.09-0.94-0.18c-0.02 0.06-0.04 0.12-0.06 0.17c0.04 0 0.08 0 0.12 0c0.14 0.14 0.31 0.25 0.48 0.35c0.13-0.12 0.27-0.23 0.4-0.35zm-0.1 2.69c-0.05 0.04-0.09 0.09-0.14 0.13c0.04 0 0.08 0 0.11 0c0.01-0.04 0.02-0.09 0.02-0.13zm-2.2-0.47c-0.15-0.14-0.26-0.31-0.39-0.54c-0.02 0-0.04 0-0.06 0c-0.15 0.1-0.29 0.19-0.44 0.29c0.04 0.06 0.08 0.12 0.12 0.17c0.14 0.07 0.33 0.22 0.54 0.39c0.08-0.11 0.15-0.21 0.23-0.32zm-8.04-3.92c-0.23 0.12-0.47 0.23-0.72 0.33c0 0.01 0.01 0.02 0.01 0.02c-0.01 0.21-0.02 0.42-0.04 0.63c0.07-0.31 0.46-0.57 1.01-0.8c-0.09-0.06-0.18-0.13-0.27-0.19zm-18.02-22.47c-0.89 0.12-1.54 0.4-2.04 0.8c0.1 0.21 0.18 0.43 0.25 0.66c0.17-0.25 0.38-0.45 0.61-0.54c0.34-0.17 0.77-0.09 1.12 0c0.24 0.3 0.39 0.48 0.42 0.97c0.03 0 0.06-0.02 0.09-0.02c0-0.58-0.17-1.21-0.41-1.85c-0.02-0.01-0.03-0.02-0.04-0.03zm-3.65 0.42c-0.15 0.43-0.29 0.86-0.4 1.32c0.05 0 0.11 0.01 0.16 0.01c0.13-0.36 0.29-0.69 0.5-1c-0.08-0.12-0.17-0.23-0.26-0.33zm-8.62 5.87c-0.22-0.29-0.63-0.66-1.11-0.99c0.25 0.62 0.56 1.27 0.87 2.01c0.05-0.37 0.12-0.72 0.24-1.01zm-1.37 1.64c0.28 0.18 0.57 0.36 0.85 0.53c-0.17-0.3-0.35-0.62-0.53-0.96c-0.07 0.17-0.18 0.31-0.32 0.42zm-13.2 16.36c0.27-0.17 0.56-0.31 0.87-0.45c-0.03-0.1-0.04-0.19-0.05-0.28c-0.01 0.02-0.01 0.04-0.02 0.07c-0.42 0.05-0.83 0.18-1.25 0.33c0.14 0.12 0.29 0.23 0.45 0.34zm3.11 14.37c1.33 0.46 3.64-0.08 2.99-1.75c-0.37-0.11-0.37-0.15-0.75-0.06c-0.1 0.39-0.01 0.82-0.37 1.05c-0.19 0.13-0.62 0.24-0.81 0.17c-0.67-0.11-0.91-0.57-0.87-1.34c0.03-0.07 0.07-0.13 0.11-0.2c-0.21-0.04-0.4-0.09-0.59-0.15c-0.2 0.75-0.15 1.52 0.29 2.27zm0.14 2.24c0.04-0.04 0.08-0.08 0.12-0.12c-0.02 0-0.04 0-0.06 0c-0.02 0.04-0.04 0.08-0.06 0.12zm15.06 5.79c0.77-0.22 1.4-0.55 1.9-0.97c-0.09-0.19-0.17-0.4-0.24-0.63c-0.32 0.46-0.84 0.81-1.48 0.78c-0.21-0.14-0.42-0.27-0.62-0.41c-0.04-0.26-0.14-0.49-0.1-0.73c-0.02 0-0.03 0.01-0.05 0.01c0.01 0.59 0.18 1.24 0.44 1.9c0.05 0.01 0.09 0.04 0.15 0.04zm3.45-0.65c0.18-0.44 0.36-0.83 0.51-1.1c-0.05-0.01-0.1-0.02-0.15-0.03c-0.14 0.3-0.33 0.59-0.55 0.85c0.07 0.09 0.12 0.2 0.19 0.28zm8.76-5.52c0.04 0.04 0.08 0.08 0.12 0.12c0.24 0.38 0.61 0.67 1.05 0.9c-0.27-0.94-0.64-1.8-1-2.44c-0.12 0.62-0.35 1.22-0.18 1.42zm7.05-2.04c0.05 0.02 0.11 0.03 0.16 0.05c-0.02-0.05-0.03-0.11-0.05-0.16c-0.03 0.01-0.06 0.01-0.09 0.02c-0.01 0.03-0.01 0.06-0.02 0.09zm5.97-13.99c-0.64 0.25-1.57-0.07-1.98-0.61c-0.72-0.12-1.51-0.17-2.38-0.18c1.28 0.4 2.2 1.09 3.17 1.8c0.58-0.17 1.2-0.39 1.78-0.65c-0.19-0.13-0.39-0.25-0.6-0.36zm-1.24-15.06c-0.12-0.45-0.25-0.89-0.37-1.34c-1.26-0.52-3.58-0.01-3.11 1.46c0.04 0.1 0.08 0.19 0.12 0.29c0.12 0.04 0.25 0.08 0.37 0.12c0.12-0.06 0.25-0.12 0.37-0.17c0.09-0.79 0.12-1.2 1.25-1.16c0.5 0.24 0.55 0.48 0.81 0.93c-0.02 0.19-0.07 0.37-0.14 0.55c0.21 0.04 0.41 0.08 0.61 0.14c0.05-0.26 0.1-0.52 0.1-0.8zm-11.26-0.97c0.26-0.17 0.53-0.34 0.79-0.51c-0.14-0.15-0.25-0.33-0.33-0.52c-0.19 0.35-0.36 0.71-0.46 1.03zm-6.12 18.03c1.63 2.39 3.96 6.94 6.23 8.5c0.98 0.68 2.85 1.39 4.09 0.98c0.42-1.34-0.48-3.28-1.1-4.14c-1.04-1.45-2.95-2.37-4.44-3.36c-0.89-0.59-1.93-1.44-3.01-2.24c-1.07-0.6-2.12-1.2-3.14-1.86c0.19 0.3 0.38 0.6 0.57 0.91c0.27 0.4 0.53 0.8 0.8 1.21zm16.63 8.44c-0.28-0.41-0.71-0.85-1.21-1.28c-0.15 0.83-0.77 1.17-1.37 1.11c0.07 0.25 0.14 0.5 0.21 0.75c0.01 0 0.02 0 0.03 0c0.32-0.17 0.68-0.19 1.03-0.11c0.51-0.09 0.99-0.22 1.38-0.32c-0.02-0.05-0.04-0.09-0.07-0.14zm-2.98-17.65c-0.1-0.06-0.24-0.09-0.36-0.14c-1-0.15-2.16 0.07-3.39 0.54c-1.93 0.75-3.65 1.68-5.36 2.62c-1.02 0.45-2.04 0.89-3.05 1.34c-0.69 0.38-1.28 0.93-2.09 1.21c3.32-0.13 7.29 0.17 10.57-0.48c0.74-0.1 1.48-0.21 2.22-0.31c1.52-0.67 3.87-3.33 1.46-4.79zm-8.92 6.52c-0.02 0-0.07-0.01-0.09-0.01c-2.03-0.03-3.99 0-5.39-0.04c1.67 0.94 3.42 1.61 5.17 2.56c2.08 1.13 4.25 2.34 6.67 3.14c0.49 0.16 1 0.23 1.49 0.23c1.04-0.28 1.87-0.91 2.07-1.71c0.38-1.52-0.97-2.37-1.75-2.92c-0.59-0.41-1.54-0.69-2.69-0.88c-1.54-0.08-3.35-0.04-5.47-0.37zm7.72 8.04c0.18 0.27 0.36 0.55 0.54 0.82c0.15-0.14 0.31-0.26 0.48-0.37c-0.35-0.19-0.69-0.35-1.01-0.45zm-6.23-20.15c-1.59 1.05-2.48 3.05-3.55 4.6c-0.7 1-1.56 2.04-2.35 3.12c-0.56 0.98-1.13 1.96-1.74 2.9c0.72-0.48 1.44-0.95 2.16-1.43c2.39-1.63 6.96-3.95 8.52-6.22c0.64-0.92 1.3-2.62 1.05-3.84c-1.16-0.65-2.68-0.07-4.09 0.86zm10.51-0.13c-0.37-0.14-0.76-0.24-1.17-0.31c-0.4 0.15-0.86 0.15-1.37-0.08c0 0.04 0 0.08 0 0.12c-0.04 0.16-0.07 0.32-0.11 0.48c0.01 0 0.02-0.01 0.03-0.01c0.41 0.02 0.54 0.13 0.82 0.25c0.2 0.38 0.39 0.68 0.44 1.08c0.53-0.43 1-0.91 1.35-1.47c0-0.01 0.01-0.03 0.01-0.04zm-3.74 2.46c-0.18 0.29-0.37 0.58-0.55 0.87c0.33-0.18 0.69-0.38 1.06-0.59c-0.16-0.06-0.33-0.15-0.51-0.28zm6.47 18.12c-1.22 0.14-2.31-0.22-2.29-1.47c-0.48 0.14-0.96 0.29-1.44 0.43c0.63 0.29 1.17 0.92 1.59 1.71c0.84 0.09 1.66 0.04 2.39-0.2c-0.08-0.16-0.16-0.32-0.24-0.47zm-4.78-0.94c-0.42 0.18-0.87 0.25-1.34 0.27c0.68 0.42 1.55 0.8 2.47 1.05c-0.29-0.55-0.64-1.03-1.13-1.33zm2.63 5.19c-0.19 0.06-0.39 0.11-0.6 0.15c0.07 0.2 0.1 0.4 0.03 0.6c-0.08 0.62-0.41 0.73-0.87 0.99c-1.06-0.11-1.01-0.5-1.12-1.22c-0.12-0.06-0.25-0.12-0.37-0.17c-0.33 0.14-0.42 0.19-0.56 0.52c0.42 1.35 1.76 2.18 3.24 1.28c0.17-0.6 0.31-1.22 0.31-2.04c-0.02-0.04-0.03-0.07-0.05-0.11zm-11.21 1.77c0.1 0.32 0.26 0.68 0.47 1.06c0.06-0.17 0.15-0.34 0.29-0.53c-0.26-0.18-0.51-0.37-0.76-0.54zm-2.33-1.24c-0.79-2.49-2.1-4.77-3.27-6.9c-0.93-1.7-1.49-3.5-2.5-5.07c0.15 3.35-0.17 7.4 0.49 10.73c0.1 0.74 0.21 1.48 0.31 2.21c0.67 1.52 3.34 3.87 4.8 1.46c0.2-0.33 0.29-0.79 0.34-1.28c-0.01-0.39-0.05-0.78-0.17-1.15zm-1.4 7.83c-0.04 0-0.07-0.02-0.1-0.02c0.05 0.28-0.08 0.6-0.16 0.85c-0.97 0.53-1.66 0.26-1.99-0.3c-0.07 0.22-0.15 0.43-0.24 0.63c0.53 0.42 1.2 0.69 2.02 0.75c0.28-0.71 0.47-1.38 0.48-1.92zm-2.63-1.62c-0.5-0.72-1.1-1.28-1.46-2.18c-0.12-0.37-0.23-0.73-0.35-1.1c0 0.84 0.05 1.68 0.18 2.48c0.62 0.37 0.8 1.2 0.55 1.96c0.1 0.23 0.23 0.42 0.36 0.62c0.27-0.54 0.51-1.13 0.72-1.79zm-1.69 1.74c-0.2 0.05-0.37 0.06-0.53 0.06c0.3 0.14 0.55 0.57 0.77 1.15c0.08-0.09 0.13-0.2 0.2-0.3c-0.16-0.29-0.3-0.59-0.44-0.91zm-1.61-0.67c-0.15-0.51 0.02-1.19 0.52-1.7c0.12-0.66 0.19-1.4 0.21-2.19c-0.38 1.16-1.02 2.19-1.74 2.75c0.18 0.63 0.4 1.2 0.66 1.73c0.13-0.19 0.26-0.38 0.36-0.59zm-15.51-33.08c-0.48 0.27-0.95 0.27-1.35 0.12c-0.36 0.08-0.72 0.16-1.08 0.25c0 0.06 0 0.12 0 0.18c0.32 0.47 0.75 0.87 1.27 1.26c0.12-0.53 0.62-0.97 0.95-1.19c0.13 0 0.25 0.01 0.37 0.04c-0.04-0.22-0.09-0.43-0.1-0.65c-0.02 0-0.04 0-0.06 0zm1.12 2.96c-0.12 0.09-0.25 0.17-0.39 0.22c0.34 0.26 0.71 0.5 1.01 0.47c-0.21-0.19-0.42-0.42-0.62-0.69zm0.09 18.5c0.18-0.25 0.36-0.5 0.53-0.74c-0.29 0.09-0.62 0.23-0.96 0.41c0.18 0.07 0.32 0.19 0.43 0.33zm10.24-2.08c0.76-1.14 1.95-2.54 2.91-3.92c0.51-0.88 1.07-1.9 1.16-2.18c-0.1 0.06-0.2 0.12-0.3 0.19c-0.76 0.64-1.75 1.05-2.59 1.58c-1.9 1.21-6.49 4.03-7.65 5.78c-0.57 0.86-1.5 2.78-1.04 4.08c1.34 0.41 3.28-0.48 4.15-1.1c1.46-1.04 2.38-2.94 3.36-4.43zm-8.16-13.22c-0.56-0.21-1.18-0.27-1.79-0.24c-0.32 0.1-0.64 0.2-0.96 0.3c-2.17 1.56-0.02 4.02 1.52 4.72c0.74 0.1 1.48 0.21 2.22 0.31c3.27 0.63 7.18 0.34 10.5 0.48c-0.92-0.31-1.59-0.99-2.39-1.38c-3.04-1.48-5.89-2.96-9.1-4.19zm8.52 6.46c-1.17 0.06-2.33 0.12-3.5 0.19c-2.89 0.1-5.6 0.2-7.35 1.43c-0.68 0.48-1.78 1.51-1.28 2.8c0.3 0.79 1.2 1.31 2.26 1.52c0.35-0.01 0.71-0.06 1.05-0.16c2.5-0.79 4.78-2.1 6.91-3.26c1.71-0.93 3.52-1.49 5.1-2.51c-1.06 0-2.12 0-3.19 0zm-3.36 15.54c-0.34 0.72-0.66 1.44-0.92 2.17c0.49-0.27 0.9-0.61 1.18-1.05c-0.15-0.35-0.23-0.73-0.26-1.11zm-0.84-0.13c0.26-0.34 0.5-0.7 0.46-1c-0.2 0.22-0.45 0.44-0.74 0.64c0.09 0.11 0.19 0.23 0.27 0.35zm-7.48-4.3c-0.1 0-0.19-0.01-0.29-0.05c-0.53-0.08-0.87-0.61-0.99-1.21c-0.47 0.42-0.89 0.89-1.23 1.39c0 0.04 0 0.09 0 0.13c0.81 0.13 1.62 0.25 2.44 0.25c0.01-0.18 0.03-0.35 0.06-0.51zm0.73-3.39c-0.48-0.04-0.93-0.12-1.31-0.27c-0.32 0.25-0.74 0.72-1.1 1.27c0.94-0.28 1.79-0.65 2.41-1.01zm-2.31-0.4c-0.54-0.07-1.05-0.17-1.55-0.39c0.03 1.15-1.13 1.69-2.2 1.48c-0.11 0.19-0.21 0.39-0.31 0.59c0.76 0.21 1.66 0.19 2.57 0.04c0.4-0.66 0.9-1.22 1.5-1.73zm-1.8-5.57c0.72-0.49 1.28-1.09 2.18-1.46c0.37-0.12 0.74-0.24 1.11-0.35c-0.2 0-0.4 0-0.61 0c-0.64 0.08-1.27 0.15-1.91 0.23c-0.38 0.58-1.19 0.74-1.93 0.5c-0.22 0.1-0.43 0.22-0.63 0.35c0.54 0.27 1.13 0.51 1.79 0.72zm-2.97-2.85c0.38 0.13 0.77 0.25 1.19 0.35c0.01-0.05 0.02-0.11 0.04-0.15c-0.32-0.12-0.62-0.25-0.9-0.43c-0.11 0.08-0.23 0.14-0.33 0.23zm2.04-0.47c0.41-0.07 0.9 0.05 1.33 0.35c0.4 0.08 0.8 0.16 1.24 0.23c0.33 0.05 0.82 0.17 1.28 0.2c-1.2-0.38-2.27-1.03-2.85-1.77c-0.63 0.18-1.2 0.4-1.74 0.66c0.23 0.12 0.48 0.23 0.74 0.33zm-0.99-7.72c1.1-0.31 2.2 0.61 2.17 1.55c0.52-0.21 1.04-0.33 1.65-0.44c-0.68-0.27-1.24-0.91-1.68-1.7c-0.8-0.13-1.59-0.09-2.36 0.18c0.07 0.14 0.15 0.28 0.22 0.41zm4.66 0.96c0.35-0.13 0.73-0.21 1.13-0.25c-0.61-0.28-1.22-0.56-1.84-0.8c0.21 0.34 0.44 0.68 0.71 1.05zm0.81-6.34c-0.46-1.21-1.91-1.61-3.18-0.93c-0.17 0.81-0.2 1.48-0.12 2.05c0.18-0.05 0.37-0.1 0.58-0.14c-0.11-0.43-0.07-0.88 0.23-1.27c0.1-0.06 0.21-0.12 0.31-0.17c0.31 0.04 0.62 0.08 0.93 0.12c0.4 0.28 0.3 0.54 0.37 1.05c0.5 0.24 1.15 0.04 0.87-0.7zm4.68 5.6c1.06 1.58 3.06 2.47 4.61 3.54c1.36 0.94 2.78 2.17 4.27 3.13c0.83 0.46 1.63 0.89 1.75 0.88c-0.01-0.02-0.02-0.04-0.04-0.06c-0.78-0.77-1.21-1.91-1.81-2.85c-1.22-1.9-4.04-6.47-5.79-7.63c-0.81-0.54-2.56-1.39-3.85-1.11c-0.65 1.16-0.08 2.68 0.86 4.09zm6.93-12.95c0.05-0.32 0.18-0.52 0.35-0.75c0.1-0.04 0.21-0.08 0.31-0.12c0.78-0.22 1.29 0.08 1.54 0.56c0.06-0.22 0.14-0.42 0.23-0.61c-0.55-0.44-1.25-0.74-2.11-0.82c-0.26 0.64-0.39 1.24-0.32 1.73zm2.58 1.76c0.47 0.67 1.06 1.15 1.4 1.99c0.12 0.4 0.24 0.8 0.36 1.19c0-0.17 0-0.34 0-0.51c-0.07-0.61-0.15-1.23-0.22-1.84c-0.48-0.35-0.6-1.19-0.46-1.86c-0.1-0.22-0.21-0.43-0.33-0.63c-0.27 0.47-0.52 0.99-0.74 1.66zm1.59-1.78c0.02-0.01 0.03-0.02 0.05-0.02c0.08 0 0.16 0.01 0.24 0.01c-0.02-0.01-0.04-0.01-0.06-0.02c-0.05-0.36-0.15-0.72-0.27-1.08c-0.1 0.14-0.2 0.29-0.3 0.43c0.12 0.21 0.23 0.44 0.34 0.68zm1.74 0.67c0.18 0.56-0.05 1.3-0.47 1.74c-0.06 0.32-0.12 0.65-0.17 1c-0.07 0.41-0.25 1.08-0.2 1.61c0.4-1.31 1.1-2.25 1.83-3.24c-0.18-0.58-0.39-1.21-0.66-1.79c-0.12 0.21-0.23 0.44-0.33 0.68zm0.04 6.4c-0.1 0.74-0.21 1.48-0.31 2.21c-0.05 0.24-0.08 0.49-0.11 0.73c-0.04 1.25-0.07 2.67-0.3 4.26c-0.03 1.93 0.01 3.87-0.07 5.64c0.94-1.66 1.61-3.41 2.55-5.15c1.13-2.07 2.35-4.24 3.15-6.65c0.14-0.43 0.2-0.86 0.22-1.29c-0.13-0.42-0.26-0.84-0.39-1.26c-1.56-2.17-4.03-0.02-4.73 1.51zm6.93-1.22c0.38-0.6 0.72-1.35 0.97-2.16c-0.41 0.24-0.81 0.5-1.24 0.82c0.16 0.41 0.24 0.87 0.27 1.34zm2.14-2.02c0.56 0.09 1.04 0.62 1.27 0.97c0 0.12-0.01 0.22-0.03 0.33c0.22-0.06 0.44-0.12 0.66-0.18c0-0.02 0-0.03 0-0.05c-0.17-0.33-0.18-0.7-0.09-1.06c-0.1-0.42-0.19-0.84-0.29-1.25c-0.07 0-0.13 0-0.2 0c-0.42 0.29-0.88 0.73-1.32 1.24zm4.81 2.76c0.02 0.01 0.05 0.01 0.07 0.02c0.03-0.08 0.06-0.15 0.09-0.23c-0.07 0.02-0.14 0.04-0.21 0.06c0.02 0.05 0.03 0.1 0.04 0.15zm5.68 1.94c-0.04 0.18-0.11 0.33-0.17 0.5c0.02 0.29-0.01 0.63-0.09 0.98c0.57-0.57 1.13-1.14 1.7-1.72c0.37-0.43 0.87-0.95 1.44-1.42c-0.51-0.19-1.02-0.37-1.53-0.56c-0.58-0.06-1.16-0.12-1.74-0.17c0.43 0.58 0.61 1.4 0.4 2.39zm-4.73 4.93c0.52 0.12 1 0.28 1.17 0.12c0.04-0.04 0.08-0.08 0.12-0.12c0.34-0.21 0.6-0.53 0.81-0.9c-0.64 0.26-1.33 0.58-2.1 0.91zm1.87 0.43c0 0 0 0 0 0c0.61 0.07 1.18 0.18 1.68 0.39c-0.03-1.2 1.24-1.7 2.32-1.44c0.07-0.14 0.13-0.29 0.2-0.43c-0.9-0.39-1.68-0.45-2.46-0.32c-0.54 0.91-1.2 1.66-1.73 1.79zm1.92 5.58c-0.67 0.47-1.16 1.06-1.99 1.4c-0.39 0.12-0.79 0.23-1.18 0.35c0.78 0 1.56-0.05 2.31-0.17c0.33-0.52 1.19-0.66 1.89-0.51c0.23-0.09 0.43-0.21 0.64-0.33c-0.47-0.27-0.99-0.52-1.66-0.74zm1.77 2.32c0 0.05-0.01 0.11-0.01 0.16c0.35 0.16 0.67 0.38 0.97 0.63c0.1-0.07 0.21-0.15 0.3-0.23c-0.51-0.2-0.96-0.4-1.26-0.57zm1.79 3.97c-0.21-0.74-0.52-1.33-0.92-1.82c-0.19 0.09-0.39 0.16-0.61 0.22c0.43 0.32 0.74 0.82 0.71 1.41c-0.14 0.21-0.27 0.41-0.41 0.62c-0.26 0.04-0.5 0.14-0.74 0.09c0 0.04 0.02 0.07 0.02 0.11c0.59 0 1.23-0.17 1.88-0.42c0.02-0.08 0.06-0.14 0.06-0.22zm-0.77 2.17c-0.22 0.04-0.47 0.07-0.75 0.07c0.53 0.68 1.07 1.05 1.94 1.31c0-0.06 0-0.12 0-0.17c-0.29-0.47-0.7-0.94-1.2-1.21zm-2.48 4.09c0.03 0.07 0.05 0.15 0.08 0.22c0.82 0.07 1.74 0.2 2.67 0.39c-0.11-0.27-0.23-0.55-0.35-0.84c-0.72 0.22-1.53 0.29-2.39 0.22zm0.41 1.44c0.04 0.23 0.08 0.47 0.1 0.69c-0.03 0.04-0.04 0.06-0.06 0.08c0.06 0.16 0.14 0.31 0.18 0.49c0.23 1.03 0.01 1.87-0.46 2.46c1.33-0.11 2.55-0.39 3.27-0.89c-1.03-0.84-2.26-1.99-3.03-2.84zm2.55 5.41c-0.19 0.02-0.39 0.04-0.58 0.06c0.2 0.55 0.34 1.29 0.65 1.82c0.39-0.13 0.78-0.28 1.15-0.45c-0.19-0.02-0.39-0.04-0.58-0.06c-0.52-0.2-0.68-0.56-0.64-1.37zm-3.66 4.55c0.04-0.35 0.04-0.68 0.01-0.99c-0.49-0.5-1.26-0.83-1.93-1.07c0 0.12 0 0.23 0 0.35c0.79 0.02 1.09 0.34 1.5 0.7c-0.02 0.14-0.04 0.27-0.06 0.41c-0.04 0.06-0.08 0.12-0.12 0.17c-0.6-0.01-0.96-0.21-1.37-0.41c-0.02 0.25-0.04 0.5-0.06 0.76c0.04 0 0.08 0 0.12 0c0.49 0.31 1.41 0.4 1.92 0.08zm-0.86-3.26c-0.26-0.34-0.55-0.64-0.88-0.88c0.24 0.33 0.55 0.62 0.88 0.88zm-5-2.22c-0.11 0.37-0.15 0.37-0.06 0.75c0.39 0.1 0.82 0.01 1.05 0.37c0.13 0.19 0.24 0.62 0.18 0.81c-0.11 0.67-0.57 0.91-1.34 0.87c-0.06-0.03-0.13-0.07-0.19-0.1c-0.04 0.2-0.08 0.4-0.13 0.59c0.74 0.19 1.51 0.14 2.25-0.3c0.46-1.33-0.08-3.63-1.75-2.98zm-1.51 1.42c-0.08-0.3-0.06-0.63 0.08-1c0-0.08 0.01-0.16 0.01-0.24c-0.23-0.01-0.44-0.03-0.65-0.07c0.01 0.02 0.02 0.04 0.03 0.06c-0.02 0.41-0.13 0.54-0.25 0.82c-0.36 0.19-0.65 0.36-1 0.43c0.44 0.49 0.94 0.93 1.47 1.27c0.15-0.4 0.25-0.81 0.31-1.26zm-5.64 4.16c-0.02 0-0.04 0-0.06 0c0 0.23-0.04 0.43-0.08 0.63c0.21 0.73 0.67 1.33 1.34 1.3c-0.26-0.8-0.43-1.36-1.2-1.92zm-4.36 1.75c-0.1-0.05-0.19-0.12-0.28-0.18c-0.2 0.31-0.42 0.6-0.65 0.86c0.28 1.16 0.5 2.39 0.72 3.06c0.74-0.91 1.5-2.09 2.06-3.24c-0.62-0.03-1.27-0.19-1.86-0.5zm-6.79-6.64c1.52 0.38 2.38-0.97 2.93-1.75c1.58-2.24 1.2-9.74 1.3-13.47c-0.31 0.93-1 1.6-1.39 2.41c-1.48 3.04-2.97 5.87-4.2 9.07c-0.25 0.64-0.3 1.37-0.22 2.07c0.32 0.85 0.89 1.49 1.59 1.67zm-1.74 4.83c-0.68 0.52-1.05 1.05-1.31 1.9c0.68-0.09 1.17-0.47 1.42-1.01c-0.07-0.26-0.11-0.55-0.11-0.89zm-4.01-4.07c-0.79-0.18-1.12-0.79-1.04-1.37c-0.25 0.05-0.5 0.1-0.75 0.11c0 0.01 0 0.01 0 0.02c0.29 0.48 0.29 0.95 0.15 1.36c0.09 0.44 0.19 0.85 0.29 1.18c0.51-0.31 0.94-0.76 1.36-1.29zm-2.85 1.2c-0.43 0.11-0.89 0.07-1.28-0.23c-0.06-0.1-0.12-0.21-0.18-0.31c0.04-0.31 0.08-0.62 0.12-0.93c0.28-0.4 0.54-0.3 1.05-0.37c0.24-0.5 0.04-1.15-0.7-0.87c-1.22 0.46-1.62 1.9-0.93 3.17c0.81 0.17 1.48 0.2 2.05 0.12c-0.05-0.19-0.1-0.38-0.13-0.58zm-1.75-3.83c-0.01-0.02-0.01-0.05-0.02-0.07c-0.05-0.02-0.1-0.02-0.15-0.04c-0.02 0.05-0.03 0.11-0.05 0.17c0.07-0.02 0.15-0.03 0.22-0.06zm-4.29 5.44c-0.05 0.43-0.08 0.87-0.06 1.29c0.55 0.27 1.34 0.03 1.93-0.14c0-0.16 0-0.31 0-0.47c-0.02-0.1-0.04-0.19-0.06-0.29c-0.48 0.24-1.04 0.53-1.56 0.23c0-0.1 0-0.19 0-0.29c0.26-0.49 0.74-0.8 1.5-0.82c0-0.12 0-0.23 0-0.35c-0.38 0.15-1.22 0.43-1.75 0.83zm2.44 3.94c-0.1-0.21-0.21-0.43-0.31-0.64c-0.21 0.48-0.94 0.68-1.48 0.43c0.11 0.26 0.21 0.52 0.32 0.78c0.54-0.01 1.09-0.2 1.47-0.57zm-1.85-0.37c0.02-0.15 0.03-0.3 0.05-0.45c0.2-0.52 0.56-0.68 1.37-0.64c-0.02-0.19-0.04-0.39-0.06-0.58c-0.53 0.2-1.25 0.33-1.77 0.61c0.13 0.36 0.27 0.71 0.41 1.06zm0.91-6.37c-0.33 0.2-0.62 0.46-0.88 0.85c0.34-0.25 0.64-0.53 0.88-0.85zm-2.61-2.36c-0.54-0.69-0.66-1.71-0.19-2.92c0-0.01-0.01-0.02-0.01-0.03c0.04-0.26 0.09-0.5 0.15-0.73c-0.87 1.02-1.88 2.07-2.98 2.93c0.88 0.32 1.93 0.59 3.04 0.75zm-2.18-4.3c0.64-0.14 1.77-0.53 2.45-0.43c0.04-0.11 0.09-0.23 0.13-0.34c-0.79 0.05-1.67-0.01-2.46-0.2c-0.15 0.34-0.29 0.68-0.42 1.03c0.1-0.02 0.21-0.04 0.29-0.06zm1.12-6.35c0-0.03 0.02-0.06 0.02-0.09c-0.41-0.03-0.65-0.16-0.91-0.36c-0.04-0.1-0.08-0.21-0.12-0.31c-0.21-0.73 0.04-1.22 0.47-1.49c-0.2-0.06-0.38-0.13-0.57-0.21c-0.41 0.53-0.68 1.2-0.76 2.01c0.69 0.27 1.34 0.45 1.87 0.46zm-2.29-2.44c0.09-0.18 0.19-0.34 0.3-0.48c-0.32-0.2-0.62-0.42-0.89-0.66c-0.93 0.4-1.88 0.78-2.92 0.84c0.89 0.7 2.01 1.4 3.09 1.92c0.01-0.53 0.14-1.09 0.42-1.62zm-6.24 0.17c-0.09 0.25-0.26 0.43-0.45 0.57c0.07 0.11 0.14 0.21 0.21 0.32c0.27-0.2 0.53-0.4 0.8-0.6c-0.19-0.1-0.37-0.19-0.56-0.29zm-0.62-0.52c-0.15-0.19-0.29-0.39-0.44-0.58c-0.18 0.04-0.36 0.12-0.52 0.21c0.14 0.15 0.28 0.31 0.41 0.48c0.15-0.06 0.32-0.11 0.55-0.11zm-1.07-3.71c0.18 0.12 0.36 0.24 0.51 0.39c0.04-0.02 0.08-0.04 0.12-0.06c0.15-0.19 0.29-0.39 0.44-0.58c-0.25 0-0.43-0.06-0.58-0.13c-0.16 0.14-0.33 0.25-0.49 0.38zm-0.7 5.37c-0.04-0.06-0.08-0.12-0.12-0.19c-0.04-0.03-0.08-0.06-0.13-0.1c0.02 0.1 0.05 0.19 0.08 0.28c0.06 0 0.11 0 0.17 0zm0.71-2.82c-0.02-0.06-0.04-0.12-0.06-0.17c-0.21 0.08-0.47 0.14-0.75 0.17c0.09 0.06 0.17 0.14 0.26 0.21c0.2-0.07 0.39-0.14 0.55-0.2zm-2.64-0.84c0 0.02 0 0.04 0 0.06c0 0 0.01 0 0.01 0c0-0.02 0-0.05 0-0.07c0 0 0 0-0.01 0zm1.17-0.73c0.62 0.01 1.26 0.11 1.47 0c-0.19-0.13-0.51-0.26-0.89-0.36c-0.19 0.12-0.38 0.24-0.58 0.36zm0.53-2.74c0.08-0.07 0.15-0.13 0.23-0.2c-0.06 0-0.13 0-0.19 0c-0.01 0.07-0.03 0.13-0.04 0.2zm2.27 0.48c-0.02 0.02-0.03 0.03-0.05 0.05c0.15 0.13 0.29 0.29 0.47 0.46c0.15-0.12 0.29-0.23 0.44-0.35c-0.22-0.14-0.42-0.32-0.62-0.5c-0.08 0.12-0.15 0.23-0.23 0.34zm7.87 0.74c0.21-0.11 0.45-0.2 0.7-0.27c-0.3-0.17-0.54-0.4-0.64-0.66c-0.17-0.34-0.09-0.77 0-1.12c0.3-0.24 0.48-0.39 0.96-0.42c0-0.01-0.01-0.02-0.01-0.04c-0.59 0.01-1.23 0.18-1.88 0.43c0.12 0.92 0.43 1.57 0.86 2.08zm-0.16-3.99c0.24-0.06 0.48-0.12 0.75-0.23c-0.14-0.17-0.27-0.33-0.41-0.5c-0.51-0.27-0.94-0.55-1.5-0.75c0.1 0.74 0.54 1.25 1.15 1.48zm2.59-4.15c-0.02-0.06-0.04-0.13-0.07-0.2c-0.6-0.06-1.54-0.19-2.57-0.41c0.1 0.27 0.21 0.53 0.32 0.8c0.75-0.2 1.56-0.26 2.32-0.19zm-0.34-1.09c-0.09-0.37-0.17-0.73-0.21-1.08c0.01-0.01 0.02-0.02 0.03-0.03c-0.2-0.59-0.25-1.27-0.01-2.11c0.1-0.36 0.2-0.63 0.32-0.85c-0.29 0.01-0.58 0.03-0.86 0.08c-0.81 0.26-1.62 0.51-2.43 0.77c1.15 1 2.02 2.26 3.17 3.24zm2.86-8.24c0-0.12 0-0.23 0-0.35c-0.86 0.02-1.82-0.55-1.31-1.28c0.59 0.02 0.96 0.21 1.37 0.41c0.05-0.27 0.13-0.58-0.06-0.76c-0.32-0.19-1.3-0.35-1.86-0.15c-0.05 0.43-0.06 0.84-0.01 1.23c0.51 0.42 1.37 0.75 1.87 0.91zm-0.06 0.52c0.04 0.04 0.08 0.08 0.12 0.12c0-0.02 0-0.04 0-0.06c-0.04-0.02-0.08-0.04-0.12-0.06zm0.25-3.26c0.02 0 0.04 0 0.06 0c0-0.19 0-0.39 0-0.58c-0.81 0.06-1.47-0.3-1.44-0.88c-0.12 0.27-0.23 0.54-0.35 0.81c0.49 0.28 1.09 0.42 1.73 0.66zm0.19-1.4c0.04-0.02 0.08-0.04 0.12-0.06c0.08-0.21 0.17-0.43 0.25-0.64c-0.7-0.23-1.1-0.42-1.46-0.47c-0.09 0.21-0.18 0.43-0.28 0.64c0.59-0.1 1.17 0.11 1.37 0.53zm-1.35 5.29c0.18 0.22 0.37 0.42 0.58 0.6c-0.15-0.22-0.34-0.42-0.58-0.6zm3.34 3.56c0.04-0.02 0.09-0.02 0.13-0.04c0.01-0.04 0.02-0.09 0.04-0.13c-0.08-0.04-0.16-0.07-0.24-0.1c0.03 0.09 0.04 0.18 0.07 0.27zm1.4-1.29c0.1-0.04 0.19-0.08 0.29-0.12c0.04-0.12 0.08-0.25 0.12-0.37c-0.06-0.12-0.12-0.25-0.18-0.37c-0.8-0.09-1.2-0.12-1.17-1.24c0.24-0.5 0.48-0.55 0.93-0.81c0.19 0.02 0.38 0.08 0.56 0.15c0.04-0.21 0.09-0.41 0.16-0.61c-0.27-0.05-0.54-0.1-0.83-0.1c-0.45 0.12-0.9 0.25-1.34 0.37c-0.52 1.26-0.01 3.57 1.46 3.11zm1.97-2.67c-0.07 0.42-0.13 0.84-0.18 1.27c0.05 0.26 0.03 0.54-0.07 0.84c0 0.08 0 0.17 0 0.25c0.01 0 0.02 0 0.03 0c0.16 0.04 0.32 0.07 0.48 0.11c0-0.09 0.01-0.17 0.04-0.26c0.08-0.55 0.65-0.89 1.29-1c-0.37-0.47-0.8-0.89-1.28-1.23c-0.11 0-0.22-0.01-0.32 0.01zm4.81-3.43c0.03 0.03 0.05 0.06 0.08 0.09c0.16 0.17 0.33 0.34 0.53 0.48c0-0.35 0.06-0.65 0.16-0.92c-0.33-0.5-0.88-0.9-1.45-1.03c0.13 0.5 0.35 0.96 0.68 1.37zm1.39 10.08c0.75 1.92 1.69 3.64 2.63 5.34c0.45 1.02 0.9 2.03 1.34 3.05c0.39 0.7 0.95 1.3 1.23 2.13c0-1.01 0-2.02 0-3.02c-0.06-1.16-0.12-2.33-0.19-3.49c-0.1-2.89-0.2-5.59-1.43-7.34c-0.48-0.68-1.51-1.77-2.8-1.28c-0.63 0.24-1.08 0.86-1.35 1.63c-0.05 0.91 0.16 1.91 0.57 2.98zm3.27-11.42c0.23 0.12 0.42 0.25 0.59 0.39c0.2-0.28 0.41-0.54 0.63-0.79c-0.41-0.92-0.8-1.87-0.9-2.89c-0.71 0.88-1.43 1.9-1.95 2.88c0.53 0.01 1.1 0.14 1.63 0.42zm8.85 1.86c0.17-0.14 0.33-0.27 0.5-0.41c0.27-0.52 0.57-0.96 0.77-1.53c-0.06 0-0.12 0-0.19 0c-0.52 0.32-1.03 0.77-1.28 1.32c0.05 0.19 0.11 0.4 0.2 0.61zm6.79 2.75c0.2-0.07 0.4-0.09 0.59-0.02c0.63 0.08 0.73 0.41 0.99 0.87c-0.11 1.06-0.5 1.01-1.23 1.12c-0.06 0.12-0.12 0.25-0.18 0.37c0.15 0.33 0.19 0.41 0.53 0.56c1.35-0.42 2.18-1.75 1.28-3.23c-0.6-0.17-1.23-0.31-2.04-0.31c-0.04 0.02-0.07 0.03-0.11 0.05c0.06 0.19 0.12 0.39 0.16 0.59zm4.17-2.17c0.04 0.12 0.08 0.23 0.12 0.35c0.43-0.26 1.01-0.51 1.5-0.23c0 0.02 0 0.04 0 0.06c-0.02 0.12-0.04 0.23-0.06 0.35c-0.21 0.44-0.76 0.7-1.43 0.7c0 0.12 0 0.23 0 0.35c0.02 0 0.04 0 0.06 0c0.41-0.19 1.38-0.51 1.87-0.98c0.04-0.33 0.05-0.69 0.02-1.05c-0.55-0.4-1.42-0.13-2.08 0.05c0 0.14 0 0.27 0 0.41zm0.59 3.32c0.15-0.13 0.29-0.27 0.43-0.42c-0.15 0.13-0.29 0.27-0.43 0.42zm4.53 0.63c0.04 0 0.08 0 0.12 0c0.16 0.02 0.31 0.04 0.47 0.06c-0.01-0.51 0.06-0.8 0.18-1.12c0.23-0.14 0.47-0.27 0.74-0.28c-0.3-0.13-0.6-0.26-0.9-0.39c-0.26 0.49-0.37 1.15-0.6 1.73zm1.4 0.19c0.04 0.02 0.08 0.04 0.12 0.06c0.19 0.08 0.39 0.17 0.58 0.25c0.21-0.44 0.41-0.83 0.52-1.35c-0.23-0.1-0.46-0.2-0.68-0.29c0.09 0.58-0.12 1.14-0.53 1.34zm-1.28 6.06c-0.63 0.14-1.72 0.51-2.42 0.44c-0.04 0.09-0.08 0.18-0.12 0.28c0.79-0.06 1.65 0.02 2.42 0.24c0.13-0.33 0.25-0.66 0.36-1.01c-0.08 0.02-0.16 0.03-0.24 0.05zm-0.7 4.63c0 0.02 0 0.04 0 0.06c0.33 0 0.61 0.04 0.86 0.12c0.46-0.32 0.83-0.83 0.96-1.35c-0.75 0.24-1.29 0.43-1.83 1.16zm-0.33 1.76c0.23 0.01 0.47 0.1 0.68 0.17c0.56 1.02 0.24 1.72-0.38 2.04c0.23 0.07 0.45 0.15 0.65 0.25c0.46-0.55 0.77-1.24 0.83-2.11c-0.66-0.27-1.27-0.41-1.78-0.34zm8.07 2.11c0.08 0.04 0.17 0.08 0.25 0.12c0.06-0.04 0.12-0.08 0.19-0.12c0.06-0.25 0.18-0.42 0.37-0.54c-0.07-0.1-0.14-0.21-0.21-0.31c-0.25 0.22-0.5 0.44-0.78 0.62c0.06 0.08 0.12 0.16 0.19 0.23zm2.82-1.08c0.04 0.03 0.08 0.07 0.11 0.1c-0.01-0.03-0.02-0.07-0.03-0.1c-0.03 0-0.06 0-0.08 0zm1.34 7.27c-0.07-0.25-0.16-0.5-0.29-0.69c0.04 0.28-0.01 0.52-0.08 0.75c0.12 0 0.25 0 0.37 0c0-0.02 0-0.04 0-0.06zm-4.23 0.59c-0.24-0.33-0.49-0.56-0.81-0.91c-0.21 0.14-0.42 0.27-0.62 0.41c0.04 0.06 0.08 0.12 0.12 0.17c0.29 0.23 0.58 0.47 0.87 0.7c0 0.08 0 0.16 0 0.23c-0.1 0.08-0.21 0.16-0.31 0.23c-0.77-0.04-1.4-0.82-1.68-0.7c-0.04 0-0.08 0-0.12 0c0 0.04 0 0.08 0 0.12c0.48 0.18 1.08 0.8 1.72 0.99c0.29-0.41 0.57-0.84 0.83-1.25zm-3.61 1.48c-0.72-0.2-1.42-0.28-2.14-0.06c-0.07 0.09-0.15 0.18-0.24 0.26c0.01 0.01 0.01 0.02 0.02 0.03c0.65 0.27 1.13 1.15 1.13 2c1.24 0.11 2.2-0.43 3-1.24c-0.45-0.44-1.01-0.79-1.77-1zm-1.26 3.71c-0.19 0.04-0.39 0.08-0.58 0.12c0.02 0.06 0.04 0.12 0.06 0.19c0.04 0.02 0.08 0.04 0.12 0.06c0.61-0.22 1.21-0.23 1.69 0.12c-0.04 0.19-0.08 0.37-0.12 0.56c-0.39 0.08-0.78 0.17-1.17 0.25c0.12 0.23 0.23 0.46 0.35 0.68c0.84-0.37 1.59-0.28 1.75-1.37c-0.34-0.7-1.08-0.66-2.1-0.62zm2.74 6.37c0.23 0.17 0.43 0.37 0.53 0.59c0.12 0.45-0.04 0.74-0.24 0.99c0.41-0.1 0.86-0.19 1.33-0.25c-0.09-0.85-0.53-1.39-1.19-1.69c-0.12 0.14-0.26 0.26-0.42 0.36zm-0.49 1.82c-0.71-0.17-1.08-0.67-1.55-1.1c-0.02 0-0.04 0-0.06 0c0.1 0.54 0.44 1.01 0.87 1.36c0.24-0.1 0.49-0.18 0.74-0.26zm-2.43-0.73c-0.21 0.1-0.43 0.21-0.64 0.31c0.5 0.22 0.72 1.01 0.41 1.55c0.27-0.12 0.54-0.25 0.81-0.38c0-0.55-0.2-1.11-0.58-1.49zm-5.39 6.32c-0.5-0.31-1.21-0.41-1.83-0.66c0 0.04 0 0.08 0 0.12c-0.02 0.16-0.04 0.31-0.06 0.47c0.52-0.01 0.8 0.06 1.12 0.17c0.21 0.34 0.43 0.71 0.19 1.16c-0.61 0.13-1.23-0.09-1.43-0.52c-0.02 0.04-0.04 0.08-0.06 0.12c-0.08 0.19-0.17 0.39-0.25 0.58c0.48 0.23 0.91 0.45 1.52 0.54c0.31-0.68 0.6-1.34 0.81-1.98zm-1.85 4.62c-0.2 0.16-0.47 0.25-0.85 0.25c-0.37-0.19-0.55-0.43-0.69-0.69c-0.09 0.2-0.2 0.37-0.33 0.52c0.34 0.69 0.9 1.12 1.6 1.12c0.06-0.41 0.15-0.8 0.26-1.2zm-2.03-5.69c0.06-0.58 0.11-1.15 0.17-1.73c-0.69 0.54-1.7 0.67-2.9 0.21c-0.2 0.02-0.42 0.01-0.66-0.03c1.01 0.87 2.03 1.87 2.87 2.95c0.17-0.47 0.35-0.94 0.52-1.41zm-5.54 2.15c-0.08-0.04-0.17-0.08-0.25-0.12c-0.02 0-0.04 0-0.06 0c-0.05 1.11-0.27 2.23 0.56 2.68c0.99-0.13 1.19-0.92 1.37-1.81c-0.25-0.1-0.5-0.19-0.75-0.29c0.01 0.55-0.1 0.95-0.31 1.28c-0.37-0.01-0.42-0.05-0.62-0.17c-0.17-0.53-0.06-1.07 0.06-1.57zm1.47-1.37c-0.03-0.12-0.05-0.23-0.07-0.32c-0.14-0.61-0.49-1.65-0.44-2.34c-0.11-0.04-0.21-0.08-0.32-0.13c0.04 0.79-0.03 1.65-0.23 2.42c0.35 0.13 0.7 0.26 1.06 0.37zm-3.98 1.85c-0.66-0.21-0.98-0.78-1.44-1.19c-0.06 0.06-0.12 0.13-0.19 0.18c-0.08 0.44-0.16 0.88-0.24 1.32c0.18 1.07 0.65 2 1.3 2.71c0.67-0.76 1.14-1.69 1.25-2.92c-0.21 0-0.44-0.03-0.68-0.1zm-1.83 4.15c-0.17-0.78-0.66-1.55-1.09-1.85c-0.04 0.08-0.08 0.17-0.12 0.25c0.36 0.38 1.32 1.33 0.47 1.86c-0.44-0.14-0.72-0.62-0.93-0.99c-0.1 0.08-0.19 0.17-0.29 0.25c-0.12 0.38-0.2 0.36 0.12 0.62c0.12 0.31 0.38 0.55 0.68 0.67c0.4-0.26 0.79-0.53 1.17-0.81zm-2.61 0.51c-0.1 0.19-0.19 0.37-0.29 0.56c0.27 0.1 0.46 0.28 0.59 0.49c0.11-0.07 0.21-0.15 0.32-0.22c-0.21-0.28-0.42-0.56-0.63-0.83zm0.84 3.07c-0.02 0.02-0.04 0.04-0.06 0.07c0.02-0.01 0.04-0.01 0.06-0.02c0-0.02 0-0.03 0-0.05zm-1.53-1.29c-0.08-0.16-0.13-0.35-0.13-0.6c-0.19 0.15-0.39 0.29-0.58 0.44c0.05 0.2 0.14 0.39 0.25 0.57c0.15-0.14 0.31-0.28 0.47-0.41zm-1.3 0.46c-0.06 0.02-0.12 0.04-0.18 0.06c0.09 0.23 0.15 0.53 0.18 0.85c0.07-0.1 0.14-0.21 0.21-0.3c-0.07-0.22-0.15-0.43-0.22-0.61zm-0.85 2.63c0.02 0.04 0.04 0.08 0.06 0.12c0.01-0.04 0.03-0.08 0.04-0.12c-0.03 0-0.06 0-0.1 0zm-0.72-1.45c0.03-0.52 0.09-1-0.01-1.18c-0.12 0.17-0.23 0.44-0.33 0.76c0.1 0.12 0.21 0.24 0.31 0.36c0.01 0.02 0.02 0.04 0.03 0.06zm-0.59-1.67c-0.02-0.04-0.04-0.08-0.06-0.12c-0.19-0.14-0.39-0.29-0.58-0.44c-0.01 0.28-0.07 0.46-0.15 0.62c0.13 0.15 0.26 0.3 0.4 0.45c0.12-0.18 0.24-0.37 0.4-0.52zm-2.36 1.27c0 0.04 0 0.09 0 0.13c0.05 0.01 0.1 0.02 0.16 0.03c-0.05-0.05-0.1-0.11-0.16-0.16zm-0.48-2.79c0.38-0.26 0.73-0.65 0.92-0.84c0-0.02 0-0.04 0-0.06c-0.16-0.21-0.31-0.41-0.47-0.62c0 0.04 0 0.08 0 0.12c-0.29 0.35-0.47 0.82-0.99 0.93c-0.66-0.7 0.1-1.41 0.53-1.86c-0.1-0.16-0.07-0.15-0.23-0.25c-0.24 0.67-0.74 1.08-0.95 1.79c0.4 0.28 0.8 0.54 1.2 0.79zm-5.25-4.9c-0.04-0.19-0.08-0.39-0.12-0.58c-0.06 0.02-0.12 0.04-0.19 0.06c-0.02 0.04-0.04 0.08-0.06 0.12c0.22 0.61 0.23 1.21-0.12 1.69c-0.19-0.04-0.37-0.08-0.56-0.12c-0.08-0.39-0.17-0.78-0.25-1.16c-0.23 0.12-0.46 0.23-0.69 0.35c0.38 0.84 0.28 1.58 1.37 1.75c0.7-0.34 0.67-1.08 0.62-2.1zm-0.76-2.22c-0.22-0.75-0.31-1.59-0.24-2.37c-0.06 0.02-0.13 0.04-0.2 0.07c-0.06 0.64-0.21 1.62-0.45 2.68c0.29-0.11 0.59-0.24 0.89-0.37zm-1.85 3.49c-0.4 0.93-0.88 1.69-1.45 2.09c0.27 0.12 0.55 0.23 0.88 0.2c0.43-0.3 0.75-0.45 0.81-1.11c-0.08-0.39-0.16-0.78-0.24-1.18zm0.45-5.52c-0.35 0.08-0.69 0.14-1.01 0.17c-0.04-0.03-0.07-0.05-0.1-0.07c-0.58 0.19-1.24 0.23-2.06 0c-0.38-0.11-0.66-0.2-0.9-0.34c0.11 1.34 0.39 2.58 0.88 3.32c0.98-1.12 2.21-1.97 3.18-3.08zm-4.18 6.93c-0.18 0.26-0.39 0.48-0.63 0.58c-0.53 0.14-0.84-0.09-1.11-0.34c0.12 0.46 0.22 0.93 0.28 1.43c0.91-0.07 1.48-0.52 1.79-1.21c-0.12-0.13-0.23-0.29-0.32-0.46zm-7.47-8.23c0.32-0.5 0.47-1.14 0.72-1.82c0-0.02 0-0.04 0-0.06c-0.19 0-0.39 0-0.58 0c0.07 1.01-0.49 1.79-1.34 1.31c-0.13-0.61 0.09-1.22 0.53-1.43c-0.02-0.04-0.04-0.08-0.06-0.12c-0.21-0.08-0.43-0.17-0.64-0.25c-0.27 0.81-0.47 1.22-0.48 1.63c0.64 0.29 1.27 0.56 1.87 0.76zm-2.08-2.63c-0.04-0.02-0.08-0.04-0.12-0.06c-0.06 0.04-0.12 0.08-0.18 0.12c-0.14 0.36-0.77 0.92-1.34 1.03c0.22 0.08 0.43 0.17 0.64 0.26c0.4-0.35 0.75-0.82 0.98-1.35zm-2.44 0.82c-0.2-0.21-0.29-0.51-0.3-0.94c0.15-0.18 0.44-0.38 0.75-0.57c-0.23-0.09-0.44-0.22-0.61-0.36c-0.58 0.32-1.02 0.71-1.16 1.58c0.45 0.06 0.89 0.17 1.32 0.3zm-0.34-4.04c0.46-0.54 1.27-0.96 2.17-1.29c-0.52-0.09-1.03-0.19-1.55-0.28c-0.41 0.32-0.76 0.4-0.82 1.12c0.07 0.15 0.13 0.3 0.2 0.45zm3.13-2.07c0.08-0.21 0.16-0.41 0.23-0.62c-0.53 0-0.95-0.11-1.28-0.31c0.01-0.37 0.05-0.42 0.18-0.62c0.53-0.17 1.16-0.13 1.58 0.12c0.04-0.1 0.08-0.21 0.12-0.31c0-0.02 0-0.04 0-0.06c-0.7-0.02-1.4-0.04-2.1-0.06c-0.21 0.23-0.4 0.36-0.58 0.62c0.09 0.63 1.25 1.78 1.87 1.24zm0.05-3.45c0.01-0.17 0.05-0.36 0.11-0.55c0.21-0.69 0.83-1 1.23-1.49c-0.04-0.04-0.09-0.07-0.13-0.12c-0.47-0.08-0.94-0.17-1.41-0.25c-1.07 0.18-1.99 0.64-2.71 1.29c0.15 0.13 0.3 0.24 0.47 0.35c0.76 0.49 1.61 0.75 2.45 0.78zm-2.2-3.46c-0.08-0.04-0.17-0.08-0.25-0.12c-0.38 0.36-1.33 1.32-1.87 0.47c0.14-0.44 0.62-0.71 1-0.93c-0.08-0.1-0.17-0.19-0.25-0.29c-0.38-0.12-0.36-0.2-0.62 0.12c-0.3 0.11-0.53 0.36-0.66 0.64c0.26 0.41 0.53 0.82 0.81 1.2c0.78-0.18 1.54-0.66 1.84-1.08zm-6.42-1.59c-0.01 0-0.01-0.01-0.02-0.01c-0.1 0.31-0.19 0.62-0.29 0.93c0.13 0 0.26 0 0.4 0c-0.1-0.29-0.14-0.6-0.09-0.92zm-2.7 0.92c-0.4-1.3 0.07-1.52 0.27-2.26c-0.08-0.09-0.15-0.19-0.21-0.29c-0.41 0.66-0.85 1.39-0.93 2.36c0.49 0.71 0.9 0.94 1.87 0.68c0.31-0.43 0.64-0.7 0.82-1.31c-0.44 0.39-1 1.21-1.81 0.81zm-0.64 1.31c0 0.04 0 0.08 0 0.12c0.06-0.11 0.05-0.01 0-0.12zm3.29-7.97c-0.01-0.25 0.03-0.47 0.11-0.67c-0.12 0-0.24 0-0.36 0c0.08 0.22 0.17 0.45 0.25 0.67zm3.91-1.12c0.26 0.37 0.63 0.7 0.82 0.88c0.02 0 0.04 0 0.06 0c0.21-0.16 0.42-0.31 0.62-0.47c-0.04 0-0.08 0-0.12 0c-0.35-0.29-0.82-0.47-0.93-0.99c0.7-0.66 1.41 0.1 1.87 0.52c0.16-0.1 0.15-0.07 0.25-0.23c-0.69-0.24-1.11-0.76-1.85-0.96c-0.25 0.4-0.48 0.83-0.72 1.24zm5.86-1.42c0.06-0.07 0.11-0.15 0.18-0.21c-0.43-0.42-1-0.78-1.17-1.44c-0.07-0.26-0.08-0.51-0.06-0.74c-0.06 0-0.1-0.02-0.16-0.02c-1.03 0.46-1.92 0.57-2.74 1.18c-0.04 0.03-0.08 0.08-0.13 0.11c1.04 0.99 2.51 1.62 4.07 1.12zm-0.33-3.91c0-0.02 0-0.04 0-0.06c-0.04-0.1-0.08-0.21-0.12-0.31c-0.57 0.31-1.26 0.3-1.75-0.06c0.04-0.19 0.08-0.37 0.12-0.56c0.39-0.06 0.78-0.12 1.17-0.19c-0.04-0.37-0.13-0.62-0.41-0.75c-0.8 0.39-1.53 0.3-1.69 1.37c0.54 0.78 1.5 0.61 2.68 0.56zm-3.76-5.97c0.15-0.13 0.32-0.24 0.51-0.33c-0.25-0.19-0.47-0.42-0.67-0.66c0.02-0.58 0.19-0.8 0.43-1.07c-0.46 0.12-0.95 0.22-1.46 0.29c0.1 0.88 0.52 1.45 1.19 1.77zm0.76-2.18c0.84 0.12 1.2 0.65 1.72 1.13c0.04-0.02 0.08-0.04 0.12-0.06c0-0.02 0-0.04 0-0.06c-0.36-0.49-0.62-0.95-0.99-1.29c-0.28 0.1-0.56 0.2-0.85 0.28zm2.54 0.76c0.23-0.1 0.47-0.21 0.7-0.31c-0.46-0.26-0.7-0.95-0.42-1.5c-0.27 0.11-0.54 0.22-0.81 0.33c0.18 0.49 0.36 0.99 0.54 1.48zm7.28-10.89c0.21-0.15 0.48-0.24 0.87-0.25c0.2 0.17 0.42 0.5 0.63 0.85c0.09-0.2 0.22-0.38 0.38-0.57c-0.34-0.66-0.73-1.16-1.7-1.3c-0.04 0.43-0.1 0.86-0.18 1.27zm1.83 7.36c0.58-0.42 1.4-0.6 2.38-0.39c0.2 0.04 0.36 0.12 0.54 0.19c0.01 0 0.03-0.01 0.04-0.01c0.37 0.06 0.72 0.14 1.05 0.23c-0.62-0.61-1.24-1.22-1.86-1.83c-0.4-0.35-0.9-0.81-1.35-1.34c-0.34 0.91-0.63 2-0.8 3.16zm4.21-4.52c0.21 0.08 0.42 0.16 0.62 0.23c0-0.53 0.11-0.95 0.31-1.28c0.37 0.01 0.42 0.05 0.62 0.17c0.18 0.53 0.13 1.16-0.12 1.57c0.1 0.04 0.21 0.08 0.31 0.12c0.02 0 0.04 0 0.06 0c0.02-0.7 0.04-1.4 0.06-2.1c-0.23-0.21-0.36-0.39-0.62-0.58c-0.63 0.09-1.79 1.24-1.25 1.86zm0.11 2.07c0.01 0.07 0.03 0.14 0.04 0.2c0.15 0.66 0.55 1.83 0.43 2.52c0.1 0.04 0.2 0.08 0.3 0.12c-0.08-0.79-0.01-1.66 0.21-2.45c-0.32-0.14-0.64-0.28-0.98-0.4zm5.76-6.08c0.14 0.72 0.74 1.49 1.05 1.87c0.02-0.04 0.04-0.08 0.06-0.12c0.04-0.04 0.08-0.08 0.12-0.12c-0.29-0.34-1-0.88-0.76-1.55c0.08-0.1 0.16-0.21 0.23-0.31c0.51 0.08 0.85 0.6 0.99 1.06c0.02-0.04 0.04-0.08 0.06-0.12c0.14-0.19 0.27-0.37 0.41-0.56c-0.28-0.42-0.57-0.7-0.98-0.92c-0.4 0.26-0.8 0.52-1.17 0.79zm2.57-0.56c0.08-0.06 0.16-0.12 0.23-0.19c0.04-0.08 0.08-0.17 0.12-0.25c-0.04-0.06-0.08-0.12-0.12-0.19c-0.23-0.06-0.39-0.17-0.51-0.33c-0.1 0.07-0.21 0.14-0.32 0.21c0.21 0.24 0.42 0.47 0.59 0.75zm-0.84-2.89c0.06-0.04 0.12-0.08 0.19-0.12c0.04-0.06 0.09-0.12 0.13-0.18c-0.11 0.03-0.21 0.06-0.32 0.09c0 0.07 0 0.13 0 0.2zm1.6 1.18c0.07 0.16 0.12 0.35 0.12 0.59c0.21-0.17 0.43-0.33 0.64-0.5c-0.04-0.04-0.08-0.08-0.12-0.12c-0.04-0.13-0.1-0.26-0.17-0.38c-0.15 0.15-0.31 0.29-0.48 0.42zm1.46-0.53c-0.08-0.24-0.13-0.54-0.17-0.85c-0.11 0.16-0.22 0.31-0.35 0.46c0.13 0.16 0.29 0.3 0.51 0.39zm0.62-2.56c0 0 0-0.01-0.01-0.01c-0.02 0-0.04 0-0.06 0c0 0.01 0 0.01 0 0.02c0.02 0 0.05-0.01 0.07-0.01zm0.86 1.38c-0.03 0.44-0.09 0.85-0.2 1.19c0.06 0.02 0.12 0.04 0.18 0.06c0-0.04 0-0.08 0-0.12c0.16-0.16 0.28-0.34 0.38-0.55c-0.12-0.19-0.24-0.38-0.36-0.58zm0.56 1.75c0.18 0.17 0.35 0.33 0.53 0.5c0.02 0 0.04 0 0.06 0c0.01-0.2 0.05-0.35 0.1-0.48c-0.14-0.16-0.26-0.33-0.39-0.49c-0.1 0.14-0.2 0.3-0.3 0.47zm2.25-1.21c0-0.06 0-0.12 0-0.17c-0.06-0.01-0.12-0.02-0.18-0.03c0.06 0.07 0.12 0.14 0.18 0.2zm0.5 2.78c-0.32 0.23-0.54 0.48-0.88 0.79c0.14 0.21 0.27 0.41 0.41 0.62c0.06-0.04 0.12-0.08 0.18-0.12c0.23-0.29 0.47-0.58 0.7-0.87c0.08 0 0.16 0 0.23 0c0.08 0.1 0.16 0.21 0.23 0.31c-0.04 0.77-0.82 1.39-0.7 1.68c0 0.04 0 0.08 0 0.12c0.04 0 0.08 0 0.12 0c0.18-0.5 0.85-1.11 1.01-1.78c-0.42-0.26-0.86-0.51-1.3-0.75zm5.29 5.49c0.02 0 0.04 0 0.06 0c0.1-0.04 0.21-0.08 0.31-0.12c-0.31-0.57-0.3-1.26 0.06-1.75c0.19 0.04 0.37 0.08 0.56 0.12c0.06 0.39 0.12 0.78 0.19 1.16c0.37-0.04 0.62-0.13 0.75-0.41c-0.39-0.8-0.3-1.53-1.37-1.69c-0.78 0.54-0.61 1.5-0.56 2.68zm2.52-1.92c0.23-0.55 0.49-1.04 0.76-1.41c0.21-0.28 0.48-0.44 0.78-0.57c-0.25-0.11-0.47-0.21-0.88-0.23c-0.96 0.43-0.86 1.27-0.66 2.22zm-1.72 3.62c0.19 0.7 0.25 1.49 0.17 2.32c0.07-0.03 0.15-0.05 0.22-0.08c0.06-0.78 0.19-1.66 0.36-2.55c-0.26 0.09-0.51 0.2-0.76 0.3zm1.52 1.93c0.27-0.06 0.54-0.11 0.8-0.14c0.01 0.01 0.02 0.01 0.03 0.02c0.18-0.07 0.35-0.15 0.55-0.2c1-0.23 1.83-0.03 2.42 0.42c-0.01-0.26-0.02-0.51-0.07-0.77c-0.26-0.82-0.52-1.64-0.78-2.45c-0.88 1.07-2.09 2.36-2.95 3.11zm4.05-6.93c0.18-0.22 0.39-0.42 0.61-0.6c0.49 0.02 0.73 0.14 0.95 0.33c-0.1-0.41-0.19-0.87-0.26-1.34c-0.82 0.11-1.37 0.52-1.68 1.15c0.15 0.13 0.28 0.28 0.38 0.46zm1.04 2.84c0.1 0.23 0.21 0.47 0.31 0.7c0.27-0.47 0.99-0.73 1.56-0.41c0.02 0.6-0.13 0.79-0.37 1.11c-0.35 0.04-0.71 0.08-1.06 0.12c-0.01 0.29 0 0.44 0.12 0.58c0.41-0.16 1.21-0.33 1.79-0.64c-0.22-0.69-0.53-1.34-0.84-2c-0.5 0.18-1 0.36-1.51 0.54zm9.17 12.63c1 0.31 1.95 0.07 2.34-0.83c-0.09-0.28-0.17-0.58-0.31-0.83c-0.36 0.83-1.11 1.33-2.03 1.66zm-0.99 0.54c-0.1 0.25-0.19 0.5-0.29 0.75c0.55-0.01 0.96 0.1 1.28 0.31c-0.01 0.37-0.05 0.42-0.18 0.62c-0.54 0.17-1.07 0.06-1.58-0.06c-0.04 0.08-0.08 0.17-0.12 0.25c0 0.02 0 0.04 0 0.06c1.11 0.05 2.24 0.27 2.68-0.56c-0.13-0.98-0.92-1.19-1.81-1.37zm-0.18 3.44c0.02 0.25-0.01 0.51-0.1 0.8c-0.19 0.61-0.72 0.96-1.15 1.36c0.07 0.07 0.15 0.13 0.21 0.21c0.42 0.08 0.84 0.15 1.25 0.23c1.09-0.2 2.03-0.66 2.76-1.31c-0.77-0.69-1.71-1.18-2.98-1.29zm2.21 3.59c0.04 0.02 0.08 0.04 0.12 0.06c0.04 0.04 0.08 0.08 0.12 0.12c0.34-0.29 0.88-1 1.56-0.76c0.1 0.08 0.21 0.16 0.31 0.23c-0.08 0.51-0.6 0.84-1.06 0.99c0.04 0.02 0.08 0.04 0.12 0.06c0.19 0.14 0.37 0.27 0.56 0.41c0.43-0.29 0.71-0.58 0.93-1.01c-0.26-0.39-0.52-0.77-0.79-1.14c-0.72 0.13-1.5 0.73-1.89 1.05zm6.41 1.53c0.03 0.02 0.06 0.05 0.08 0.07c0.1-0.29 0.19-0.58 0.29-0.87c0-0.02 0-0.04 0-0.06c-0.17 0-0.35 0-0.52 0c0.1 0.27 0.16 0.55 0.14 0.86zm2.53-0.98c1.04 0.5 0.19 1.96-0.02 2.51c0.06 0.08 0.11 0.16 0.16 0.24c0.01-0.01 0.02-0.01 0.04-0.02c0.32-0.75 0.84-1.39 0.93-2.42c-0.3-0.5-0.52-0.8-1.23-0.87c-0.21 0.06-0.43 0.12-0.64 0.19c-0.32 0.43-0.58 0.75-0.82 1.31c0.37-0.33 0.94-1.12 1.58-0.93zm0.15 4.89c-0.04 0.07-0.08 0.14-0.13 0.2c0.17 0.64 0.48 0.9 0.5 1.74c-0.14 0.25-0.27 0.5-0.41 0.75c-0.94 0-1.17-0.51-1.69-0.93c0.21 0.52 0.45 1.07 0.93 1.31c0.75 0.44 1.73-0.06 1.75-0.99c-0.25-0.73-0.49-1.55-0.96-2.07zm-3.05 7.99c-0.15 0.06-0.28 0.14-0.48 0.29c0 0.08 0 0.17 0 0.25c0.24 0.31 0.62 0.46 1.03 0.5c-0.33-0.29-0.52-0.66-0.55-1.04zm2.26 0.33c0.21-0.28 0.3-0.63 0.26-1.04c-0.2 0.01-0.39 0.02-0.59 0.04c-0.26 0.46 0 0.75 0.33 1.01zm-3.57 3.83c0.15 0.41 0.29 0.82 0.44 1.22c0.04 0.02 0.08 0.04 0.12 0.06c0.25-0.19 0.5-0.39 0.75-0.58c-0.44-0.23-0.87-0.47-1.31-0.7zm1.06 5.53c-0.1 0.02-0.21 0.04-0.31 0.06c0.27 1.04-0.28 1.77-0.93 2.27c-0.1-0.02-0.21-0.04-0.31-0.06c-0.74-0.34-0.61-1-0.93-1.75c-0.05 0.52-0.15 1.2 0.06 1.63c0.31 0.61 1.68 1.05 2.18 0.29c0.35-0.64 0.29-1.61 0.25-2.45zm-2.12-1.75c0.35 0.04 0.71 0.08 1.06 0.12c-2.59-1.93-1.8-6.44-3.17-9.26c-0.49 0.45-1.05 0.84-1.79 1.06c0 0.02 0 0.04 0 0.06c0.79 0.28 0.75 1.31 0.41 1.99c2.2-0.02 1.87 2.35 1.02 3.54c-0.01 0.05-0.01 0.11-0.02 0.16c1.15 0.39 1.63 1.37 1.59 2.33c0.31-0.02 0.62-0.02 0.89 0.01zm-11.07 13.23c-0.02 0.04-0.04 0.08-0.06 0.12c0.77 0.09 1.11 0.41 1.52 0.87c-0.02 0.1-0.04 0.21-0.06 0.31c-0.31 0.87-1.15 0.96-2.28 0.93c0 0.06 0 0.12 0 0.19c0.02 0.04 0.04 0.08 0.06 0.12c0.91 0.05 1.67-0.05 2.45-0.25c0.1-0.17 0.19-0.33 0.29-0.5c0.39-1.34-0.71-1.87-1.93-1.8zm-16.02 3.08c-0.28 0.09-0.57 0.14-0.88 0.1c-0.02 0.02-0.04 0.04-0.06 0.06c0.29 0.1 0.58 0.19 0.87 0.29c0.02 0 0.04 0 0.06 0c0-0.15 0-0.3 0-0.45zm-7.35 0.04c0 0.14 0 0.28 0 0.41c0.02 0 0.04 0 0.06 0c0.26-0.08 0.52-0.16 0.72-0.3c-0.29 0.03-0.55-0.02-0.78-0.11zm-15.55-5.21c-0.02 0.01-0.04 0.02-0.07 0.04c-0.1 0.53-0.37 0.79-0.58 1.18c0.31 0.04 0.62 0.08 0.93 0.12c-0.06-0.34-0.12-0.68-0.17-1.01c-0.05-0.1-0.08-0.21-0.11-0.33zm0.46 4.32c-1.29 0.03-1.92-0.14-2.33-1.06c0.02-0.06 0.04-0.12 0.06-0.19c0.3-0.66 0.91-0.59 1.52-0.93c-0.35-0.02-0.7-0.04-1.05-0.06c-0.86 0.5-1.37 1.24-0.7 2.3c0.75 0.18 1.7 0.44 2.51 0.19c0-0.08 0-0.17 0-0.25zm-9.45-13.23c-0.13-0.03-0.26-0.08-0.38-0.14c-0.33-0.06-0.67-0.12-1-0.18c-0.01 0.39 0.03 0.7 0.19 0.93c0.04-0.04 0.08-0.08 0.12-0.12c0.36-0.17 0.71-0.33 1.07-0.5zm-1.63-2.29c-0.01-0.89 0.44-1.79 1.47-2.22c-0.05-0.14-0.08-0.27-0.08-0.4c-0.02-0.02-0.04-0.04-0.06-0.06c-0.5-1.37-0.83-3.28 1.28-3.29c0-0.02 0-0.04 0-0.06c-0.42-0.82-0.21-1.46 0.41-1.99c-0.8-0.24-1.37-0.7-1.87-1.21c-0.3 0.49-0.53 1.02-0.65 1.61c-0.1 1.2-0.21 2.41-0.31 3.61c-0.51 1.77-1.24 3.07-2.24 4.31c0.71-0.23 1.39-0.3 2.05-0.28zm-2.49-2.45c0.02 0 0.04 0 0.06 0c0.15-0.43 0.29-0.85 0.44-1.28c-0.42 0.23-0.83 0.47-1.25 0.7c0.25 0.19 0.5 0.39 0.75 0.58zm-1.43 2.62c0.04-0.04 0.08-0.08 0.12-0.12c-0.92-0.25-2.14-1.17-1.5-2.21c0.36-0.05 1.99 0.12 1.99 0.12c-0.86-0.49-2.22-1.14-2.8 0.12c-0.27 0.45 0.01 0.82 0.25 1.11c0.41 0.19 1.5 1.32 1.93 0.99zm2.43-6.11c0.21-0.87 0.42-1.75 0.62-2.62c0.24-0.64 0.62-1.2 1-1.74c-0.69-0.72-1.46-1.32-2.77-1.33c-0.66 0.34-2.16 1-2.83 1.99c0.48-0.03 0.96 0.08 1.41 0.36c0.94-1.22 3.72 0.39 2.47 2.37c-0.7 1.1-3.1 1.34-4.2 0.44c-0.03-0.04-0.05-0.09-0.08-0.13c-0.01-0.01-0.03-0.02-0.04-0.04c0-0.01 0-0.02 0-0.04c-0.21-0.35-0.42-0.69-0.63-1.04c-0.07 0.59-0.24 1.34-0.39 2.08c1.33 1.07 4.59 1.02 5.44-0.3zm-1.74-24.87c0.4 0.12 1.07 0.63 1.25 0.52c-0.17-0.39-0.33-0.78-0.5-1.16c-0.25 0.19-0.5 0.39-0.75 0.58c0 0.02 0 0.04 0 0.06zm0.25-4.89c0.08 0 0.17 0 0.25 0c-0.03-1.28 0.14-1.92 1.06-2.33c0.06 0.02 0.12 0.04 0.19 0.06c0.66 0.3 0.59 0.91 0.93 1.51c0.02-0.35 0.04-0.7 0.06-1.05c-0.5-0.85-1.24-1.36-2.3-0.7c-0.18 0.75-0.44 1.69-0.19 2.5zm1 1.57c0.78 1.02 1.45 2.02 1.93 3.38c0.53 1.48 0.18 3.46 0.69 5.07c0.09 0.29 0.24 0.6 0.41 0.89c0.62-0.44 1.35-0.71 1.98-1.2c-0.76-0.33-0.75-1.29-0.41-1.99c-1.67 0.01-2.32-2.44-1.2-3.37c0.01-0.13 0.05-0.26 0.09-0.39c-1.11-0.45-1.56-1.42-1.5-2.36c-0.62 0.04-1.27 0.05-2-0.03zm3.03-1.88c0.14-0.1 0.3-0.17 0.47-0.23c-0.49-0.1-0.76-0.36-1.14-0.57c-0.04 0.31-0.08 0.62-0.12 0.93c0.26-0.04 0.53-0.09 0.79-0.13zm9.51-11.36c-0.67 0.02-1.99-0.41-1.81-1.18c0.2-0.83 1.51-1.1 2.33-0.93c0-0.1 0-0.21 0-0.31c-1.01-0.06-2.04-0.04-2.68 0.44c-0.48 1.32 0.68 2.78 2.16 1.99zm4.38-2.73c0.02 0 0.04 0 0.06 0c0-0.04 0-0.08 0-0.12c0.95-0.79 0.78-2.78-0.82-2.73c-0.68 0.55-1.13 1.25-1.52 2.11c0.09 0.26-0.01 0.15 0.23 0.25c0.11-0.52 0.97-2.16 1.98-1.62c0.57 0.3 0.19 1.66 0.06 2.11zm0.41 0.81c0.02 0.04 0.04 0.08 0.06 0.12c0.41 0.15 0.82 0.29 1.23 0.44c0-0.02 0-0.04 0-0.06c-0.23-0.41-0.47-0.83-0.7-1.24c-0.19 0.25-0.39 0.5-0.58 0.75zm-2.68 0.56c0.09 0.66 0.11 1.32 0.09 1.98c0.93-0.03 1.88 0.42 2.32 1.5c0.09 0 0.15 0.03 0.24 0.03c0.07-0.07 0.14-0.14 0.22-0.2c1.37-0.5 3.29-0.83 3.3 1.28c0.02 0 0.04 0 0.06 0c0.83-0.41 1.47-0.21 1.99 0.41c0.25-0.82 0.73-1.4 1.26-1.91c-0.45-0.27-0.94-0.48-1.48-0.6c-1.23-0.1-2.45-0.21-3.68-0.31c-1.75-0.5-3.07-1.21-4.32-2.18zm20.86-1.68c0-0.1 0-0.21 0-0.31c-0.21 0.08-0.41 0.15-0.62 0.23c0.22-0.01 0.43 0.02 0.62 0.08zm4.24 4.83c0.39 0.59 0.66 1.26 1.11 1.85c0.33-0.76 1.29-0.74 1.99-0.41c-0.01-1.72 2.6-2.35 3.46-1.08c0.1 0.01 0.2 0.01 0.29 0.03c0.42-1.11 1.36-1.58 2.29-1.55c-0.02-0.33-0.02-0.64 0-0.93c0.04-0.35 0.08-0.7 0.12-1.06c-1.93 2.58-6.44 1.8-9.27 3.15zm7.05-4.58c-0.26-0.67-0.57-2.45 0.82-2.05c0.67 0.19 0.92 1.14 1.34 1.62c0.06-0.02 0.12-0.04 0.18-0.06c-0.29-0.82-0.8-1.88-1.52-2.24c-0.16-0.02-0.31-0.04-0.47-0.06c-1.04 0.57-1.39 1.93-0.35 2.8zm3.91 0.68c1.04-0.26 1.77 0.27 2.28 0.93c-0.02 0.1-0.04 0.21-0.06 0.31c-0.34 0.74-1 0.61-1.75 0.93c0.52 0.05 1.2 0.15 1.63-0.06c0.61-0.3 1.05-1.68 0.29-2.18c-0.64-0.35-1.62-0.29-2.45-0.25c0.02 0.1 0.04 0.21 0.06 0.31zm9.48 13.25c0.21 0.06 0.4 0.15 0.57 0.27c0.22 0.03 0.44 0.06 0.66 0.09c-0.04-0.31-0.08-0.62-0.12-0.93c-0.37 0.22-0.68 0.4-1.11 0.58zm1.55 2.19c0 0.88-0.47 1.8-1.57 2.33c0 0.08-0.03 0.14-0.03 0.21c1.46 0.82 0.68 3.51-1.02 3.52c0.43 0.85 0.22 1.52-0.41 2.05c0.04 0 0.08 0 0.12 0c0.63 0.42 1.25 0.7 1.83 1.11c0.23-0.41 0.41-0.85 0.52-1.33c0.1-1.22 0.21-2.45 0.31-3.67c0.51-1.75 1.21-3.06 2.18-4.31c-0.64 0.09-1.29 0.11-1.92 0.09zm0.55-2.19c-0.02-0.67 0.41-1.99 1.18-1.81c0.84 0.2 1.11 1.51 0.93 2.33c0.1 0 0.21 0 0.31 0c0.06-1 0.04-2.04-0.44-2.68c-1.32-0.48-2.78 0.67-1.99 2.15zm1.93 4.78c-0.04 0.02-0.08 0.04-0.12 0.06c-0.15 0.41-0.29 0.82-0.44 1.22c0.02 0 0.04 0 0.06 0c0.42-0.23 0.83-0.47 1.25-0.7c-0.25-0.19-0.5-0.39-0.75-0.58zm3.18 37.33c-0.55-0.19-0.75-0.39-1.18-0.12c0 0.08 0 0.16 0 0.23c0.21 0.17 0.35 0.35 0.44 0.59c0.29-0.11 0.59-0.2 0.9-0.28c-0.05-0.14-0.11-0.29-0.16-0.43zm-2.38 1.57c-0.42-0.69-0.43-1.41-0.11-2.27c-1.12 0.81-1.18 2-0.61 2.77c0.23-0.18 0.47-0.34 0.72-0.51zm-4.22 1.28c-0.72 0.49-1.8 0.6-2.78 0.38c0.21 0.51 0.31 1.04 0.22 1.51c-0.21 0.43-0.43 0.87-0.64 1.31c0.95-0.12 1.76-0.42 2.5-0.81c0.35-0.71 0.61-1.48 0.7-2.38zm-5.47 6.36c-0.51 0.29-0.94 0.48-1.28 0.93c0.64-0.36 1.79-0.5 2.32 0.08c0.14-0.21 0.28-0.41 0.43-0.61c-0.41-0.26-0.91-0.42-1.47-0.4zm0.15 2.65c-0.27-0.1-0.5-0.24-0.67-0.47c-0.14 0.08-0.27 0.17-0.41 0.25c0.14 0.33 0.27 0.66 0.41 0.99c0.11 0.04 0.24 0.09 0.38 0.14c0.08-0.32 0.18-0.62 0.3-0.91zm-12.58-3.45c-0.88-0.21-1.75-0.41-2.63-0.62c-0.58-0.21-1.1-0.55-1.59-0.89c-0.45 0.4-0.91 0.8-1.36 1.2c-0.7 1.7 0.58 3.49 1.87 4.26c-0.02-0.45 0.08-0.91 0.34-1.35c-1.12-0.93 0.36-3.58 2.28-2.5c1.24 0.7 1.39 2.4 0.78 3.63c-0.05 0.23-0.17 0.47-0.39 0.69c-0.03 0-0.06 0-0.09 0c-0.28 0.29-0.6 0.53-0.99 0.63c0 0.02 0 0.04 0 0.06c0.59 0.1 1.31 0.26 2.03 0.39c1.12-1.28 1.09-4.63-0.25-5.5zm-1.65 4.04c-0.15-0.2-0.32-0.35-0.62-0.49c-0.12 0.06-0.23 0.12-0.35 0.19c-0.02 0.04-0.04 0.08-0.06 0.12c-0.01 0.15 0.01 0.3 0.03 0.45c0.38 0.03 0.72-0.07 1-0.27zm0.82-1.69c-0.03-0.43-0.21-0.83-0.64-1.03c-0.1 0.04-0.21 0.08-0.31 0.12c-0.07 0.15-0.12 0.27-0.15 0.39c0.4 0.05 0.8 0.24 1.1 0.53zm-3.13 5.49c-0.67-0.67-1.53-1.97-3.11-1.22c1.14 0.03 2.12 0.59 2.12 1.69c-0.04 0.12-0.08 0.23-0.12 0.35c-0.27 0.2-0.64 0.59-1.12 0.41c-0.56-0.25-0.58-0.75-1-1.11c-0.48 0.17-0.49 0.64-0.44 1.11c0.67 0.55 0.97 1.07 2.12 1.22c0.94-0.71 1.6-0.74 1.56-2.45zm-3.61-2.04c0.5-0.3 0.8-0.51 0.87-1.22c-0.06-0.21-0.12-0.43-0.19-0.64c-0.44-0.32-0.75-0.58-1.31-0.82c0.33 0.37 1.13 0.94 0.93 1.57c-0.49 1.01-1.9 0.23-2.48-0.01c-0.08 0.07-0.18 0.12-0.27 0.17c0 0.01 0 0.01 0.01 0.01c0.76 0.32 1.39 0.84 2.43 0.93zm-4.73-1.11c0 0 0 0 0 0c-0.69 0.17-0.93 0.5-1.81 0.52c-0.25-0.14-0.5-0.27-0.75-0.41c0-0.94 0.51-1.17 0.93-1.69c-0.53 0.21-1.07 0.45-1.31 0.93c-0.44 0.75 0.06 1.72 1 1.75c0.75-0.26 1.6-0.5 2.11-1c-0.06-0.04-0.12-0.07-0.18-0.11zm-2.12 3.9c-0.06-0.19-0.12-0.39-0.19-0.58c-0.32-0.01-0.28-0.04-0.5 0.06c-0.14 0.58-0.42 0.73-0.81 1.05c-0.59 0-0.94-0.21-1.12-0.58c-0.04-0.19-0.08-0.39-0.12-0.58c0.51-0.99 1.02-0.94 2.12-1.4c-3.39-0.34-4.21 2.53-1.43 3.73c1.02-0.27 1.54-0.62 2.06-1.34c0-0.12 0-0.23 0-0.35zm-4.67-0.99c-0.41 0.17-0.9 0.33-1.45 0.48c0.5 0.43 1.05 0.79 1.64 1.11c-0.16-0.5-0.23-1.05-0.19-1.59zm-15.3-3.23c0.17-0.05 0.34-0.11 0.49-0.15c0.12-0.31 0.23-0.62 0.35-0.93c-0.04-0.02-0.08-0.04-0.12-0.06c-0.04-0.06-0.08-0.12-0.12-0.19c-0.32 0.08-0.58 0.32-0.88 0.45c0.11 0.28 0.2 0.58 0.28 0.88zm-1.16-2.55c0-0.01 0.01-0.02 0.01-0.03c0.81-0.36 1.49-0.51 2.33-0.06c-0.4-0.56-0.92-0.94-1.87-0.93c-0.31 0.12-0.63 0.24-0.94 0.36c0.16 0.21 0.31 0.43 0.46 0.66zm-1.21-4.19c-0.04-0.04-0.08-0.08-0.12-0.12c-0.18-0.41-0.35-0.83-0.53-1.24c-0.08-0.44-0.01-0.92 0.14-1.38c-0.49 0.19-1 0.28-1.45 0.19c-0.44-0.21-0.87-0.43-1.31-0.64c0.11 0.86 0.37 1.6 0.71 2.29c0.76 0.43 1.58 0.76 2.54 0.91zm-6.43-5.46c-0.29-0.51-0.48-0.94-0.93-1.28c0.34 0.61 0.48 1.65 0 2.21c0.21 0.13 0.41 0.27 0.61 0.42c0.21-0.38 0.34-0.84 0.32-1.35zm-2.63 0.07c0.1-0.23 0.24-0.43 0.45-0.59c-0.08-0.14-0.17-0.27-0.25-0.41c-0.33 0.14-0.66 0.27-1 0.41c-0.04 0.09-0.08 0.21-0.12 0.33c0.32 0.07 0.63 0.16 0.92 0.26zm-0.8-46.3c0.31 0.12 0.62 0.23 0.93 0.35c0.02-0.04 0.04-0.08 0.06-0.12c0.06-0.04 0.12-0.08 0.19-0.12c-0.08-0.33-0.34-0.6-0.46-0.91c-0.28 0.11-0.58 0.19-0.89 0.26c0.06 0.18 0.12 0.36 0.16 0.53zm2.42-1.64c0 0 0.01 0 0.01 0.01c0.36 0.81 0.51 1.49 0.06 2.33c0.56-0.4 0.95-0.92 0.93-1.86c-0.12-0.3-0.23-0.6-0.35-0.89c-0.21 0.15-0.44 0.28-0.66 0.42zm4.19-1.22c0.04-0.04 0.08-0.08 0.12-0.12c0.42-0.17 0.83-0.35 1.25-0.52c0.48-0.08 0.99 0 1.49 0.19c-0.1-0.27-0.19-0.54-0.24-0.81c-0.14-0.63 0.64-2.05 0.64-2.05c-0.83 0.42-1.65 0.55-2.41 0.87c-0.4 0.73-0.71 1.52-0.85 2.44zm6.82-7.35c-0.64 0.31-1.71 0.46-2.25-0.04c-0.15 0.23-0.3 0.45-0.46 0.66c0.87 0.45 2.06 0.25 2.7-0.62zm-1.39-1.73c0.24 0.1 0.42 0.25 0.64 0.43c0.14-0.08 0.27-0.17 0.41-0.25c0-0.02 0-0.04 0-0.06c-0.16-0.32-0.19-0.67-0.47-0.87c-0.1-0.07-0.2-0.13-0.31-0.18c-0.07 0.33-0.16 0.64-0.26 0.94zm15.57-4.02c-0.21-0.6-0.15-1.22 0.06-1.77c-0.61 0.36-1.19 0.75-1.7 1.21c0.62 0.16 1.19 0.35 1.65 0.56zm2.37-2.68c-0.56 0.42-1.29 0.65-1.5 1.4c-0.46 1.73 1.74 2.91 3.18 2.21c-1.44 0.01-2.67-1.05-1.87-2.21c0.17-0.1 0.33-0.19 0.5-0.29c0.15 0.02 0.29 0.04 0.44 0.06c0.57 0.25 0.58 0.75 1 1.11c0.26-0.06 0.26-0.03 0.37-0.23c0.04-0.25 0.08-0.5 0.12-0.76c-0.55-0.59-1.15-1.39-2.24-1.28zm2.12 4.43c-0.71 0.49-0.94 0.9-0.69 1.86c0.43 0.31 0.7 0.64 1.31 0.82c-0.39-0.44-1.22-1-0.81-1.81c1.33-0.41 1.53 0.09 2.3 0.29c0.09-0.08 0.18-0.15 0.27-0.21c-0.67-0.41-1.41-0.86-2.39-0.95zm4.88 1.09c0.77-0.41 1.57-0.64 2.41-0.1c0.02 0.06 0.04 0.12 0.06 0.17c-0.14 0.76-0.59 1.04-1 1.51c0.88-0.22 1.42-0.7 1.5-1.69c-0.31-0.5-0.36-0.73-0.93-0.99c-0.92 0.09-1.62 0.55-2.28 0.93c0.09 0.05 0.17 0.1 0.25 0.17zm2.22-3.31c0.12 0.02 0.25 0.04 0.37 0.06c0.21-0.49 0.37-0.89 0.87-1.11c0.12-0.02 0.25-0.04 0.37-0.06c0.55 0.23 0.89 0.45 0.87 1.22c-0.51 0.99-1.04 0.91-2.18 1.34c1.86 0.18 3.25-0.19 3.18-2.27c-0.47-0.79-0.89-0.93-1.62-1.46c-1.11 0.3-1.47 0.66-2.12 1.34c0.07 0.29 0.01 0.68 0.25 0.93zm4.42 0.41c0.02 0 0.04 0 0.06 0c0.43-0.18 0.95-0.35 1.53-0.5c-0.54-0.46-1.14-0.85-1.78-1.2c0.19 0.48 0.28 1.05 0.19 1.7zm15.34 3.15c-0.16 0.06-0.31 0.12-0.47 0.18c-0.19 0.54-0.39 0.75-0.12 1.18c0.08 0 0.16 0 0.23 0c0.17-0.21 0.37-0.36 0.62-0.45c-0.11-0.29-0.19-0.6-0.27-0.91zm1.1 2.55c-0.69 0.41-1.4 0.42-2.26 0.11c0.8 1.1 1.96 1.17 2.74 0.63c-0.17-0.24-0.32-0.49-0.47-0.74zm1.3 4.21c0.51 0.74 0.61 1.87 0.35 2.87c0.28-0.11 0.57-0.2 0.85-0.26c0.63-0.14 2.06 0.64 2.06 0.64c-0.46-0.91-0.58-1.79-0.98-2.6c-0.68-0.33-1.43-0.57-2.28-0.65zm7.31 6.8c-0.33-0.68-0.47-1.82 0.15-2.33c-0.23-0.16-0.46-0.32-0.68-0.49c-0.54 0.88-0.37 2.14 0.54 2.81zm1.77-1.47c-0.1 0.28-0.26 0.48-0.46 0.71c0.08 0.14 0.17 0.27 0.25 0.41c0.02 0 0.04 0 0.06 0c0.32-0.16 0.67-0.19 0.87-0.47c0.08-0.11 0.15-0.23 0.2-0.36c-0.32-0.08-0.63-0.17-0.93-0.29zm5.46 26.92c-0.12 0-0.23 0-0.35 0c-0.19 0.06-0.39 0.12-0.58 0.19c-0.01 0.32-0.04 0.28 0.06 0.5c0.58 0.14 0.73 0.42 1.05 0.81c0 0.59-0.21 0.94-0.58 1.12c-0.19 0.04-0.39 0.08-0.58 0.12c-1-0.5-0.94-1.02-1.4-2.11c-0.34 3.38 2.54 4.2 3.74 1.43c-0.27-1.02-0.62-1.54-1.34-2.05zm0.31 4.45c-0.52 0.17-1.09 0.25-1.65 0.21c0.18 0.43 0.35 0.94 0.5 1.51c0.44-0.53 0.82-1.11 1.15-1.73zm0.63 8.47c0-0.12 0-0.23 0-0.35c-0.17-0.47-0.05-0.99-0.31-1.34c-0.29-0.38-0.61-0.59-0.93-0.7c-0.01 0.44-0.04 0.87-0.1 1.3c0.01 0.02 0.02 0.02 0.03 0.04c0 0.27 0 0.54 0 0.82c-0.04 0.08-0.09 0.14-0.15 0.19c-0.03 0.33-0.04 0.67-0.05 1.01c0.66-0.22 1.04-0.47 1.51-0.97zm-3.81 6.48c-0.29 0.03-0.57 0.07-0.86 0.1c0.04 0.09 0.07 0.17 0.1 0.26c0.29-0.03 0.58-0.06 0.89-0.06c-0.05-0.09-0.09-0.21-0.13-0.31zm-14.31 14.66c0-0.3 0.03-0.58 0.06-0.86c-0.09-0.03-0.17-0.04-0.26-0.08c-0.03 0.28-0.07 0.56-0.1 0.84c0.08 0.03 0.17 0.06 0.24 0.1c0.02 0 0.04 0 0.06 0zm-6.68 3.67c0.37-0.46 0.71-0.83 0.88-1.44c-0.35 0-0.7 0.02-1.04 0.05c-0.03 0.05-0.04 0.1-0.08 0.15c-0.33 0-0.66 0-0.99 0c-0.01-0.01-0.01-0.01-0.02-0.02c-0.38 0.05-0.76 0.08-1.15 0.1c0.33 0.75 1.18 1.21 2.4 1.17zm-6.94-1.72c-0.55-0.15-1.05-0.32-1.45-0.49c0.07 0.7-0.04 1.31-0.28 1.83c0.27-0.15 0.54-0.31 0.79-0.48c0.33-0.23 0.64-0.54 0.93-0.85zm-12.61 3.46c1.28 0.8 2.24 2.02 3.15 3.23c0.02-0.04 0.04-0.08 0.06-0.12c0.94-0.93 1.66-2.07 2.74-2.86c0.45-0.33 0.93-0.59 1.43-0.83c-0.51-0.2-0.99-0.57-1.34-1.16c-0.06 0.04-0.12 0.08-0.19 0.12c0 0.02 0 0.04 0 0.06c-0.62 0.76-1.25 1.51-1.87 2.27c-0.24 0.41-0.21 1.15-0.62 1.4c-0.21 0-0.42 0-0.62 0c-0.62-1.49-1.33-2.94-2.55-3.84c0 0.04 0 0.08 0 0.12c-0.44 0.33-0.82 0.73-1.34 0.99c0.39 0.2 0.78 0.41 1.15 0.64zm-10.81-2.92c-0.41-0.01-0.83-0.04-1.23-0.09c-0.01 0.01-0.03 0.02-0.04 0.03c-0.33 0.11-0.73 0.03-0.99-0.06c-0.01-0.03-0.01-0.06-0.02-0.08c-0.32-0.03-0.65-0.04-0.99-0.05c0.2 0.61 0.42 1 0.89 1.44c1.37 0.06 2.12-0.47 2.38-1.18zm-8.88-2.56c-0.03-0.29-0.06-0.57-0.1-0.86c-0.09 0.05-0.17 0.08-0.26 0.11c0.03 0.28 0.06 0.57 0.06 0.87c0.09-0.05 0.2-0.08 0.3-0.13zm-13.82-14.25c0.02-0.08 0.04-0.16 0.07-0.24c-0.25-0.03-0.51-0.06-0.76-0.09c-0.04 0.1-0.08 0.2-0.11 0.3c0.28 0 0.55 0.01 0.81 0.04zm-4.54-6.7c0.48 0.38 0.85 0.73 1.51 0.9c0 0 0-0.01 0-0.01c-0.03-0.34-0.05-0.68-0.08-1.02c-0.06-0.03-0.13-0.06-0.19-0.09c0-0.33 0-0.66 0-0.99c0.03-0.04 0.07-0.07 0.1-0.1c0-0.01 0-0.02 0-0.03c-0.04-0.36-0.07-0.72-0.08-1.09c-0.8 0.3-1.31 1.17-1.27 2.44zm1.79-6.86c0.16-0.59 0.34-1.13 0.54-1.57c-0.64 0.22-1.3 0.15-1.89-0.1c0.13 0.23 0.27 0.46 0.43 0.68c0.25 0.36 0.58 0.68 0.92 1zm-6.77-9.5c0.04 0.02 0.08 0.04 0.12 0.06c0.94 0.94 2.07 1.65 2.87 2.74c0.36 0.49 0.65 1.04 0.9 1.6c0.27-0.65 0.72-1.08 1.15-1.56c-0.78-0.64-1.56-1.28-2.33-1.93c-0.47-0.3-1.14-0.37-1.58-0.68c0.02-0.21 0.04-0.41 0.06-0.62c1.65-0.7 2.55-1.52 3.85-2.49c-0.04-0.06-0.08-0.12-0.12-0.19c-0.54-0.26-0.88-0.69-1.06-1.18c-0.19 0.38-0.4 0.75-0.62 1.11c-0.81 1.28-2.03 2.23-3.24 3.14zm5.61-7.87c0.47-0.18 1.02-0.26 1.65-0.18c0-0.02 0-0.04 0-0.06c-0.17-0.41-0.33-0.9-0.48-1.45c-0.45 0.51-0.83 1.08-1.17 1.69zm0.62-6.04c0.01-0.39 0.04-0.77 0.09-1.15c-0.03-0.05-0.06-0.1-0.09-0.14c-0.11-0.33-0.03-0.73 0.06-0.99c0.05-0.02 0.1-0.03 0.15-0.04c0.02-0.32 0.04-0.65 0.05-0.98c-0.65 0.2-1.05 0.43-1.51 0.91c-0.06 1.4 0.51 2.15 1.25 2.4zm2.59-8.89c0.26-0.03 0.51-0.06 0.77-0.09c-0.05-0.1-0.09-0.2-0.13-0.3c-0.25 0.03-0.48 0.08-0.74 0.09c0.04 0.09 0.07 0.2 0.11 0.29zm14.19-13.82c0.1 0.04 0.2 0.05 0.3 0.1c0.03-0.25 0.06-0.49 0.09-0.74c-0.12-0.05-0.24-0.09-0.36-0.13c0 0.27-0.02 0.52-0.04 0.77zm6.89-4.56c-0.47 0.45-0.83 0.87-1 1.57c0.36-0.03 0.72-0.06 1.07-0.08c0.05-0.08 0.09-0.16 0.16-0.24c0.47-0.02 0.74 0.03 0.98 0.15c0.38-0.04 0.77-0.07 1.16-0.07c-0.2-0.74-0.93-1.33-2.38-1.32zm19.49-1.68c-1.31-0.82-2.28-2.05-3.21-3.29c-0.96 1.92-2.71 2.98-4.59 3.9c0.72 0.26 1.18 0.74 1.69 1.19c0.64-0.78 1.29-1.55 1.93-2.33c0.3-0.47 0.37-1.14 0.69-1.57c0.21 0.02 0.42 0.04 0.62 0.06c0.7 1.65 1.53 2.54 2.49 3.84c0.06-0.04 0.12-0.08 0.19-0.12c0.27-0.56 0.72-0.91 1.24-1.09c-0.36-0.19-0.71-0.38-1.05-0.59zm13.07 1.68c-0.12 0-0.23 0-0.35 0c-0.47 0.17-1 0.05-1.34 0.31c-0.41 0.31-0.63 0.65-0.73 1c0.42 0.01 0.84 0.04 1.25 0.09c0 0 0 0 0 0c0.04-0.03 0.07-0.07 0.12-0.1c0.27 0 0.54 0 0.82 0c0.11 0.06 0.18 0.13 0.24 0.22c0.32 0.02 0.65 0.04 0.99 0.04c-0.23-0.7-0.48-1.09-0.99-1.57zm6.5 3.9c0.03 0.25 0.06 0.51 0.09 0.76c0.1-0.05 0.2-0.08 0.3-0.11c-0.03-0.25-0.08-0.49-0.1-0.76c-0.09 0.04-0.2 0.07-0.3 0.11zm14.69 14.19c-0.29 0-0.56-0.03-0.82-0.06c-0.04 0.11-0.06 0.21-0.11 0.32c0.27 0.03 0.54 0.07 0.81 0.1c0.04-0.1 0.08-0.21 0.12-0.3c0-0.02 0-0.04 0-0.06zm3.74 6.84c-0.44-0.45-0.84-0.81-1.51-0.99c0 0.37 0.03 0.74 0.06 1.09c0.07 0.04 0.13 0.07 0.2 0.13c0.02 0.36-0.02 0.6-0.09 0.81c0.06 0.42 0.09 0.86 0.1 1.3c0.7-0.24 1.23-0.96 1.23-2.34zm-1.77 6.69c-0.16 0.58-0.33 1.09-0.51 1.51c0.65-0.07 1.23 0.02 1.72 0.22c-0.36-0.62-0.75-1.21-1.21-1.73zm2.92 5.15c-0.19 0.56-0.58 1.08-1.22 1.46c0.04 0.06 0.08 0.12 0.12 0.19c0.02 0 0.04 0 0.06 0c0.76 0.62 1.52 1.24 2.28 1.86c0.41 0.24 1.15 0.21 1.4 0.62c0 0.21 0 0.41 0 0.62c-1.49 0.62-2.94 1.33-3.85 2.55c0.04 0 0.08 0 0.12 0c0.34 0.45 0.76 0.85 1.01 1.4c0.19-0.37 0.39-0.74 0.61-1.09c0.82-1.31 2.06-2.27 3.3-3.2c-1.87-0.93-2.92-2.61-3.83-4.41z" />
</svg>