<svg version="1.2" baseProfile="tiny-ps" xmlns="http://www.w3.org/2000/svg" viewBox="0 0 100 100" width="100" height="100">
	<title>cho-ku-rai.svg</title>
<defs>
   <linearGradient id="lgrad" x1="0%" y1="11%" x2="100%" y2="89%" >
    
          <stop offset="0%" style="stop-color:rgb(192,187,82);stop-opacity:1.00" />
          <stop offset="43%" style="stop-color:rgb(255,250,137);stop-opacity:1.00" />
          <stop offset="100%" style="stop-color:rgb(182,177,75);stop-opacity:1.00" />

    </linearGradient>
<filter id="shadow2">
      <feDropShadow dx="0" dy="0" stdDeviation="2"
          flood-color="#000000"/>
    </filter>
  </defs>
	<style>
		tspan { white-space:pre }
		.s0 { opacity:0;fill: #000000 }
#cho-ku-rai{opacity:1;fill: url(#lgrad);} 
	</style>
	<path id="cho-ku-rai" class="s0" style="filter:url(#shadow2);" d="m83.65 79.18c-2.57 6.23-10.35 11.71-17.75 13.49c-4.03 0.97-12.34 0.75-17.1 0.39c-0.22 0.29-0.44 0.44-0.65 0.32c-0.98-0.51-4.08 0.03-4.26-2.13c-0.18-2.16 1.29-4.89 1.42-6.39c0.01-0.16 0.02-0.87 0.03-2.01c-5.42-0.63-9.75-2.19-11.44-2.98c-3.51-1.65-10.65-7.88-12.73-11.35c-2.15-3.58-6.31-10.99-3.55-19.17c2.76-8.18 11.19-13.06 14.91-14.2c2.12-0.65 7.36-1.15 12.4-1.25c-0.09-3.83-0.2-6.7-0.33-7.98c-0.67-6.69 0.23-9.44-0.71-11.36c-0.94-1.92-2.88-4.64-12.07-3.55c-9.19 1.09-13.17 2.42-14.91 2.13c-1.74-0.29-2.13-0.71-2.13-0.71c0 0 0.55-4.97 3.55-5.68c3-0.71 17.87 0.85 21.3 1.42c3.43 0.57 5.36 1.83 7.1 1.42c1.74-0.41 3.55-1.42 3.55-1.42c0 0 2.11 1.03 0.71 2.13c-1.4 1.1-2.28 14.13-2.13 22.72c0 0.26 0.01 0.56 0.02 0.89c2.26 0.06 4.27 0.23 5.66 0.53c5.05 1.1 12.64 4.13 22.72 13.49c9.43 8.76 9.62 23.42 6.39 31.24zm-38.37-18.42c-1.01 0.14-1.98 0.37-2.81 0.67c-3.04 1.13-2.79 1.83-2.84 2.84c-0.05 1.01 2.04 2.31 3.55 3.55c0.49 0.4 1.27 0.68 2.15 0.88c-0.01-2.52-0.03-5.2-0.04-7.95zm4.47 8.46c0.2 0.01 0.39 0.02 0.53 0.03c1.3 0.08 3.5-1.26 3.55-0.71c0.03 0.38-2.04 1.73-4.03 2.43c0.03 1.2 0.06 2.38 0.09 3.52c1.16-0.27 2.27-0.62 3.23-0.97c3.1-1.13 3.54-4.48 3.55-6.39c0.01-1.91-2.22-4.52-4.26-5.68c-0.69-0.39-1.72-0.65-2.88-0.77c0.07 2.89 0.15 5.78 0.22 8.55zm-4.42 1.75c-1.64-0.45-3.38-1.23-5-2.43c-2.34-1.74-3.54-4.61-2.13-7.1c0.99-1.75 3.79-3.57 7.05-4.2c-0.02-1.94-0.03-3.89-0.05-5.82c-1.97 0.09-3.65 0.42-4.86 0.79c-2.51 0.76-3.91 1.6-5.68 4.97c-1.77 3.37-1.26 6.16 0 9.94c1.26 3.78 4.94 5.52 7.81 7.1c0.83 0.46 1.82 0.68 2.88 0.74c0-1.25-0.01-2.59-0.01-3.99zm4.1-13.81c0.04 0.01 0.09 0.01 0.13 0.02c4.87 0.88 8.94 4.54 9.94 7.1c1 2.56 0.55 6.37 0 7.81c-0.55 1.44-3.81 4.54-7.1 5.68c-0.7 0.24-1.53 0.35-2.42 0.37c0.03 0.95 0.05 1.86 0.07 2.72c1.32-0.03 2.61-0.11 3.77-0.26c4.11-0.53 8-3.68 10.65-6.39c2.65-2.71 2.37-7.93 2.13-9.94c-0.24-2.01-3.6-6.26-4.97-7.81c-1.37-1.55-4.16-2.88-9.23-4.26c-1.07-0.29-2.11-0.48-3.11-0.61c0.05 1.81 0.09 3.68 0.14 5.56zm-12.65-17.02c-5.77 0.73-11.07 3.11-13.49 7.1c-2.42 3.99-2.82 9.23-1.42 14.91c1.4 5.68 6.79 10.86 7.81 12.07c1.02 1.21 8.44 4.7 11.36 5.68c1.11 0.37 2.62 0.64 4.3 0.8c0-0.92 0-1.96 0-3.11c-2.09-0.48-4.15-1.21-5.72-1.95c-3.52-1.66-8.5-6.97-8.87-14.88c-0.38-8.05 5.31-11.77 12.42-14.23c0.62-0.21 1.28-0.35 1.96-0.45c-0.03-2.36-0.06-4.64-0.1-6.77c-2.96 0.06-5.63 0.49-8.25 0.82zm43.31 24.85c-0.49-4.55-4.16-9.92-7.81-14.2c-3.65-4.28-6.1-5.84-14.91-9.23c-3.11-1.2-5.86-1.81-8.38-2.08c0.05 1.93 0.1 4.15 0.16 6.54c6.42 0.67 13.64 4.41 16.74 6.9c4.14 3.32 6.23 12.78 4.97 17.75c-1.26 4.97-5.99 10.57-15.62 12.07c-1.74 0.27-3.46 0.39-5.13 0.4c0.1 3.69 0.16 5.99 0.16 5.99c0 0-0.06 0.26-0.17 0.65c0.06 0.02 0.12 0.04 0.17 0.06c1.3 0.36 10.74-0.21 15.62-1.42c4.88-1.21 8.78-4.08 12.1-8.41c3.07-3.99 2.59-10.47 2.1-15.02z" />
</svg>