<svg version="1.2" baseProfile="tiny-ps" xmlns="http://www.w3.org/2000/svg" viewBox="0 0 100 100" width="100" height="100">
	<title>dai-ko-myo.svg</title>
<defs>
   <linearGradient id="lgrad" x1="0%" y1="11%" x2="100%" y2="89%" >
    
          <stop offset="0%" style="stop-color:rgb(192,187,82);stop-opacity:1.00" />
          <stop offset="43%" style="stop-color:rgb(255,250,137);stop-opacity:1.00" />
          <stop offset="100%" style="stop-color:rgb(182,177,75);stop-opacity:1.00" />

    </linearGradient>
<filter id="shadow2">
      <feDropShadow dx="0" dy="0" stdDeviation="2"
          flood-color="#000000"/>
    </filter>
  </defs>
	<style>
		tspan { white-space:pre }
		.s0 { opacity:0;fill: #000000 }
#dai-ko-myo{opacity:1;fill: url(#lgrad);} 
	</style>
	<path id="dai-ko-myo" class="s0" style="filter:url(#shadow2);" d="m74.14 35.87c-0.37 0.22-8.14 0.16-9.66 0c-1.52-0.16-5.73-2.23-8.28-4.14c-2.55-1.91-7.59-7.59-7.59-7.59c0 0 0.17 0.13-0.69 2.07c-0.86 1.94-11.03 8.6-16.56 10.35c-5.53 1.75-5.29 1-2.07-0.69c3.22-1.69 7.2-3.71 11.04-7.59c3.84-3.88 4.14-6.9 4.14-6.9c0 0-0.38-0.16-2.07 0c-5.94 0.57-6.34 1.25-7.59 0.69c-1.25-0.56-4.14-4.14-4.14-4.14c0 0 0.1 0.11 6.9 0.69c6.8 0.58 7.4-0.13 7.59-0.69c0.19-0.56-0.39-8.41-0.69-8.97c-0.3-0.56-0.69-2.07-0.69-2.07c0 0 0.85-0.72 2.76 0c1.91 0.72 4.16 1.71 3.45 2.76c-0.71 1.05-0.06 5.29 0 6.9c0.06 1.61 0.13 1.74 0.69 2.07c0.56 0.33 12.98-0.42 13.8 0c0.82 0.42 4.14 2.76 4.14 2.76c0 0 0.2 1.26-0.69 1.38c-0.89 0.12-6.28-1.03-8.97-1.38c-2.69-0.35-8.74-0.03-8.28 0.69c1.37 2.14 6.71 6.64 11.04 8.97c4.33 2.33 11.79 3.89 12.42 4.14c0.63 0.25 0.37 0.47 0 0.69zm-35.88 18.63c2.93-2.19 4.83-5.52 4.83-5.52c2.35-0.78 3.35-0.03 4.14 0.69c0.79 0.72 0.64 2.06 0 2.76c-0.64 0.7-2.97 2.74-4.14 3.45c-1.17 0.71-7.78 4.59-11.04 5.52c-3.26 0.93-7.91 0.11-6.21 0c1.7-0.11 3.32-0.97 5.52-2.07c2.2-1.1 3.97-2.64 6.9-4.83zm-1.38 12.42c1.16 0.27 4.05-0.45 4.14-0.69c0.09-0.24 0.17-1.36 1.38-0.69c1.21 0.67 4.14 2.19 4.14 2.76c0 0.57-1.22 0.83-1.38 1.38c-0.16 0.55-0.75 4.71-1.38 5.52c-0.63 0.81-3.32 2.79-3.45 2.07c-0.09-0.51 0.08-1.25 0.33-1.93c-0.91 0.12-2.16 0.27-3.12 0.39c0.01 0.09 0.02 0.15 0.03 0.16c0.11 0.16-0.68 1.15-1.38 1.38c-0.7 0.23-1.17-0.02-1.38-0.69c-0.21-0.67-0.44-3.32-0.69-5.52c-0.25-2.2 0-4.83 0-4.83c1-0.13 1.6 0.42 2.76 0.69zm4.14 1.38c-0.35-0.61-3.26-0.26-3.45 0.69c-0.05 0.27-0.09 0.96-0.1 1.78c1.12-0.24 2.74-0.55 3.81-0.61c-0.05-0.9-0.14-1.65-0.26-1.86zm-3.53 6.34c1.25-0.48 2.95-1.08 3.76-1.35c0.04-0.44 0.06-0.94 0.06-1.47c-1.6 0.26-1.38 0.03-2.36 0.62c-0.51 0.31-1.02 0.6-1.49 0.76c0.01 0.52 0.02 1.02 0.03 1.44zm8.36 10.91c0.82-2.15 3.38-8.04 3.45-12.42c0.07-4.38 0.76-4.28 0-4.83c-0.76-0.55-1.17-1.15-0.69-2.76c0 0 2.29-0.37 2.76 0c0.47 0.37 2.89 0.97 4.14 0.69c1.25-0.28 0.73-0.23 1.38-0.69c0.65-0.46 1.19-1.05 2.07-0.69c0.88 0.36 3.4 1.6 4.14 2.07c0.74 0.47-1.33 1.75-1.38 4.83c-0.05 3.15-0.12 16.97 0 17.94c0.12 0.97-0.64 1.79-2.76 1.38c-2.12-0.41-5.4-2.27-5.52-3.45c-0.12-1.18 0.06-1.93 0.69-1.38c0.63 0.55 3.58 3.5 3.45 2.07c-0.13-1.43-0.26-19.59 0-20.01c0.26-0.42-1.82-0.88-3.45 0c-1.63 0.88-1.21 2.55-1.38 2.76c-0.17 0.21 2.59-1.02 3.45-1.38c0.86-0.36 0.53 2.46 0 2.07c-0.53-0.39-2.54 0.66-3.45 2.07c-0.91 1.41-0.95 1.95-0.69 2.07c0.26 0.12 1.44 0.53 2.07 0c0.63-0.53 0.79-0.94 1.38-0.69c0.59 0.25 1.48 1.16 0.69 1.38c-0.79 0.22-2.5 1.41-3.45 1.38c-0.95-0.03-1.15 1.21-2.07 3.45c-0.96 2.33-4.32 7.56-6.21 8.28c-1.89 0.72-2.07 0-2.07 0c0 0 2.63-1.99 3.45-4.14zm4.83-24.84c-0.74-0.41-2.31-4.11-2.07-5.52c0.24-1.41 0.69-6.21 0.69-6.21c0 0-0.19-0.68 0.69-0.69c0.88-0.01 0.34 0.09 0.69 0.69c0.35 0.6 1.87 0.14 2.07 0.69c0.2 0.55-0.29 1.89-0.69 3.45c-0.4 1.56-0.82 2.44 0 4.14c0.82 1.7 7.14 1.25 9.66 0.69c2.52-0.56 3.91 0.52 4.14 0.69c0.23 0.17 1.12 1.39 0.69 2.07c-0.43 0.68-2.35 1.02-3.45 1.38c-1.1 0.36-11.68-0.97-12.42-1.38zm1.38-20.7c0.07-0.71 1.49-0.34 2.07 0c0.58 0.34 2.55 2.64 2.07 2.76c-0.48 0.12-4.77 1.87-5.52 2.07c-0.75 0.2-0.97 0.48-2.07 0c0 0 3.38-4.12 3.45-4.83zm-7.59-5.52c1.16-0.02 3.96 0.48 4.83 1.38c0.87 0.9 0.99 1.28 0.69 2.07c-0.3 0.79-1.74 4.09-2.07 4.83c-0.33 0.74-0.95 1.95-1.38 1.38c0 0-0.85-4.61-1.38-6.21c-0.53-1.6-1.85-3.43-0.69-3.45zm-3.45 6.9c-0.6-0.51-1.67-0.67-2.07-1.38c-0.4-0.71 0.9-0.91 2.07-0.69c1.17 0.22 3.05 2.14 3.45 2.76c0.4 0.62 1.03 1.56 0.69 2.07c-0.34 0.51-1.38 0.69-1.38 0.69c0 0-0.69 0.99-1.38 0.69c-0.69-0.3-1.26-0.69-1.38-1.38c-0.12-0.69 0.6-2.25 0-2.76zm-2.76 7.59c-1.47 0.6-1.47 1.25-2.07 1.38c-0.6 0.13-1.61-0.4-4.14-2.07c-2.53-1.67-2.4-1.54-2.07-2.07c0 0 32.43 0.61 32.43 0c0-0.61 0.04-1.24 0.69-1.38c0.65-0.14 3.47 1.74 4.14 2.76c0.67 1.02 0.57 1.92 0 2.07c-0.57 0.15-1.17-1.22-8.28-1.38c-11.41-0.26-19.23 0.09-20.7 0.69z" />
</svg>