<svg version="1.2" baseProfile="tiny-ps" xmlns="http://www.w3.org/2000/svg" viewBox="0 0 100 100" width="100" height="100">
	<title>hon-sha-ze-sho-nen.svg</title>
<defs>
   <linearGradient id="lgrad" x1="0%" y1="11%" x2="100%" y2="89%" >
    
          <stop offset="0%" style="stop-color:rgb(192,187,82);stop-opacity:1.00" />
          <stop offset="43%" style="stop-color:rgb(255,250,137);stop-opacity:1.00" />
          <stop offset="100%" style="stop-color:rgb(182,177,75);stop-opacity:1.00" />

    </linearGradient>
<filter id="shadow2">
      <feDropShadow dx="0" dy="0" stdDeviation="1"
          flood-color="#000000"/>
    </filter>
  </defs>
	<style>
		tspan { white-space:pre }
		.s0 { opacity:0;fill: #000000 }
#hon-sha-ze-sho-nen{opacity:1;fill: url(#lgrad);} 
	</style>
	<path id="hon-sha-ze-sho-nen" style="filter:url(#shadow2);" class="s0" d="m78.64 89.84c-0.29 1.2-3.04 3.47-3.78 4.32c-0.74 0.85-6.68 2.98-12.42 2.7c-5.74-0.28-9.38-4.05-10.26-5.4c-0.88-1.35-1.35-1.77-0.54-2.7c0.73-0.84 2.34-0.17 2.64-0.03c0.01 0.08 0.19 0.5 1.14 2.19c1.51 2.69 4.12 3.78 7.56 4.32c3.44 0.54 7.04-0.82 10.26-3.24c3.22-2.42 2.91-4.48 3.24-4.86c0.33-0.38 1.15-0.17 1.62 0c0.47 0.17 0.83 1.5 0.54 2.7zm-24.3-1.08c0 0-0.02-0.01-0.06-0.03c0-0.05 0.06 0.03 0.06 0.03zm11.34-7.56c0.21-0.71 1.62-0.54 1.62-0.54c0.82-0.13 2.05 0.4 2.7 1.08c0.65 0.68 1.01 3.54 0.54 4.32c-0.47 0.78-1.95 3.13-3.78 3.78c-1.83 0.65-1.65 0.27-1.62-0.54c0.03-0.81 0.81-1.22 1.62-2.16c1.22-1.41 0.42-2.7 0-3.78c-0.42-1.08-1.29-1.45-1.08-2.16zm4.86-9.18c0 0-0.98 1.73-4.86 1.08c-3.88-0.65-11.77-8.6-12.42-9.18c-0.65-0.58-2.7-3.24-2.7-3.24c0 0-0.83 1.27-1.08 1.62c-5.76 8.11-10.1 9.42-11.88 9.72c-1.78 0.3-5.15-0.62-5.4-1.08c-0.25-0.46-0.09-1.37 0.54-1.08c0.63 0.29 3.17 0.17 3.78 0c6.46-1.8 11.03-8.32 11.88-9.72c0.85-1.4 0.54-3.12 1.08-3.24c2.93-0.65 2.36 0.17 3.78 2.7c2.85 5.08 11.37 9.9 12.96 10.8c1.59 0.9 3.79 0.39 4.32 0.54c0.53 0.15 0 1.08 0 1.08zm-23.22-23.22c0.45-0.48 1.91-0.16 2.16 0.54c0.25 0.7 0.24 1.66 0 2.16c-0.24 0.5 0.07 1.26 0 1.62c-0.07 0.36 0.39 1.13 0.54 1.62c0.15 0.49-1.01 1.01-1.62 1.08c-0.61 0.07-1.68-0.41-1.62-0.54c0.06-0.13 0.06-2.56 0-3.78c-0.06-1.22 0.09-2.22 0.54-2.7zm18.9-5.94c-0.56 0.05-1.69-0.12-2.7-0.54c-1.01-0.42-6.66-0.56-8.64 0c-0.52 0.98-0.56 4.11-0.54 4.32c0.02 0.21 5.89 0.28 6.48 0.54c0.59 0.26-0.25 1.31-0.54 1.62c-0.29 0.31-5.32-0.31-5.94 0c-0.62 0.31-0.43 2.61-0.54 3.78c-0.11 1.17 0.74 2.23 1.08 2.7c0.34 0.47-0.22 0.62-0.54 1.08c-0.32 0.46-3.05-0.46-3.24-1.08c-0.19-0.62 0.3-6.57 0.54-7.56c0.24-0.99 0.55-5.25 0-5.4c-0.55-0.15-6.49 0.37-8.1 0.54c-1.61 0.17-2.32-0.77-2.7-1.08c-0.38-0.31 0.27-1.19 0.54-1.08c0.27 0.11 3.81 0.08 4.32 0c0.51-0.08-0.79-1.64-1.08-2.16c-0.29-0.52-0.59-3-0.54-4.32c0.05-1.32 3.13-2.46 3.24-2.7c0.11-0.24 3.92-0.11 4.86 0c1.08 0.13 7.64-0.84 9.72-0.54c2.08 0.3 2.26 1.2 2.16 1.62c-0.1 0.42-0.74 0.21-1.62 3.24c-0.64 2.21-0.33 3.52-0.13 4.26c0.24 0.02 0.46 0.04 0.67 0.06c2.38 0.29 3.61 0.71 3.78 1.08c0.17 0.37 0.02 1.57-0.54 1.62zm-10.26-10.26c-1.91 0.05-8.75 0.77-9.18 1.08c-0.43 0.31-0.06 3.85 0 4.86c0.06 1.01 1.62 2.16 1.62 2.16c0.36 0.03 4.54-0.33 6.97-0.48c0.03-0.03 0.05-0.06 0.05-0.06c0 0 1.49-0.08 3.24-0.11c-0.02-1.14 2.25-7.13 2.16-7.45c-0.09-0.32-2.95-0.05-4.86 0zm1.62 4.32c0.08 0.29-1.54-0.22-3.24 0c-1.7 0.22-1.33 0.08-1.62 0.54c-0.29 0.46-1.73-0.01-2.16 0c-0.43 0.01-0.88-0.53-1.08-1.08c-0.2-0.55 0.12-0.69 1.08-1.08c0.96-0.39 3.24-0.54 3.24-0.54c1.12-0.37 3.44 0.97 3.78 1.08c0.34 0.11-0.08 0.79 0 1.08zm4.32-11.88c-0.28 0.33-7.51 0.01-8.1 0c-0.59-0.01-1.91 1.61-4.32 3.78c-2.41 2.17-9.49 6.07-10.8 6.48c-1.31 0.41-3.56-2.77-3.24-3.24c0.32-0.47 1.97 0.13 3.24 0c1.27-0.13 2.43-0.77 5.94-2.7c3.51-1.93 5.58-3.79 4.86-3.78c-0.72 0.01-11.4 0.51-12.42 0.54c-1.02 0.03-2.2-0.78-2.7-1.62c-0.5-0.84 0.28-2.56 1.08-1.62c0.8 0.94 1.29 0.67 5.94 1.08c4.65 0.41 11.93-0.94 12.42-1.08c0.49-0.14 2.7-2.7 2.7-2.7c1.27-1.01 1.9 0.23 2.16 0.54c0.26 0.31-0.52 0.68-1.08 1.08c-0.56 0.4-1.17 0.81-0.54 1.08c0.63 0.27 4.88 0.11 5.4 0.54c0.52 0.43-0.26 1.29-0.54 1.62zm-2.7-5.94c-1.12-0.01-3.17-0.83-4.32-1.62c-1.15-0.79-2.52-2.6-3.24-3.78c-0.72-1.18-1.34-2.72-1.62-3.24c-0.28-0.52-0.89-0.92-1.08-0.54c-0.19 0.38-0.8 3.59-0.54 4.86c0.26 1.27 0.82 2.72 1.08 2.7c0.26-0.02 2.82-0.16 3.24 0c0.42 0.16 1.78 0.65 1.62 1.08c-0.16 0.43-0.82 1.18-1.08 1.08c-0.26-0.1-1.57-0.71-2.16-0.54c-0.59 0.17-1.04 0.54-0.54 1.08c0.5 0.54-0.21 1.93-1.08 2.16c-0.87 0.23-1.87 0.63-2.16 0c-0.29-0.63-0.37-2.6-1.08-2.7c-0.71-0.1-2.07 0.28-2.7 0c-0.63-0.28-0.9-0.61-0.54-1.08c0.36-0.47 1.29-0.47 2.16-0.54c0.87-0.07 1.24-0.72 1.08-2.16c-0.16-1.44 0.3-3.67 0-4.32c-0.3-0.65-0.41-0.89-1.08 0c-0.67 0.89-3.53 5.15-4.86 5.94c-1.33 0.79-3.01 1.42-3.78 1.08c-0.77-0.34-2.29 0.12-2.16-0.54c0.13-0.66 0.13-0.42 1.62-1.08c1.49-0.66 3.65-2.01 4.86-3.24c1.21-1.23 2.65-2.64 2.7-2.7c0.05-0.06 0.5-0.9 0-1.08c0 0-2.76 0.56-3.78 0.54c-1.02-0.02-2.97-0.02-3.78-0.54c-0.81-0.52-0.99-0.73-0.54-1.08c0.45-0.35 4.69-0.5 5.4-0.54c0.71-0.04 4.03 0 4.86-0.54c0.83-0.54 0.79-2.81 1.08-3.78c0.29-0.97 1.36-0.97 2.16-0.54c0.8 0.43 1.4 1.09 1.08 1.62c-0.32 0.53-1.07 1.21-1.08 1.62c-0.01 0.41-0.36 1.48 1.08 1.08c1.44-0.4 6.49-0.72 7.56-0.54c1.07 0.18 3.81 0.79 3.24 1.62c-0.57 0.83-3.14 0.8-3.78 0.54c-0.64-0.26-4.11-0.29-4.32 0c-0.21 0.29-0.06 1.85 0.54 2.7c0.6 0.85 2.03 2.78 2.7 3.24c0.67 0.46 1.39 1.11 2.16 1.08c0.77-0.03 1.78-0.41 2.7-0.54c0.92-0.13 1.73 0.56 1.62 1.08c-0.11 0.52-2.12 2.17-3.24 2.16zm-5.4 49.68c-1.82-0.22-6.29 0.78-7.02 0c-0.73-0.78-0.74-0.54-0.54-1.08c0 0 1.31-1 2.16-1.08c0.85-0.08 4.79-0.02 5.4 0c0.61 0.02 2.28 0.89 2.16 1.08c-0.12 0.19-0.34 1.3-2.16 1.08zm7.56 18.9c0.2 0.26 0.15 0.88-0.54 1.08c-0.69 0.2-3.49-0.84-3.78-2.16c-0.29-1.32-0.24-3.18 0.54-4.32c0.78-1.14 1.19-1.75 2.16-2.16c0.97-0.41 2.03 0.36 2.16 0.54c0 0 0.37 0.61 0 1.08c-0.37 0.47-2.04 1.32-2.16 2.16c-0.12 0.84-0.36 1.59 0 2.16c0.36 0.57 1.42 1.36 1.62 1.62zm-21.06 0c2.62-1.1 7.88-3.74 12.42-8.1c2.57-2.47 4-5.54 3.24-5.4c-0.76 0.14-8.02 1.26-10.8 1.08c-2.78-0.18-2.16-2.16-2.16-2.16c0.51-0.48 1.51-0.55 2.16 0c0.65 0.55 1.56 0.24 4.32 0c2.76-0.24 9.18-1.09 9.72-1.08c0.54 0.01 0.72 0.84 0.54 1.62c-0.18 0.78-1.52 3.3-2.7 4.86c-1.18 1.56-3.58 3.85-5.94 5.94c-2.36 2.09-9.76 5.92-12.42 6.48c-0.91 0.19-3.23-0.34-3.78-1.62c-0.31-0.71 0-1.62 0-1.62c0 0 0.82 1.92 5.4 0z" />
	
</svg>