<svg version="1.2" baseProfile="tiny-ps" xmlns="http://www.w3.org/2000/svg" viewBox="0 0 100 100" width="100" height="100">
	<title>sai-ha-ki.svg</title>
<defs>
   <linearGradient id="lgrad" x1="0%" y1="11%" x2="100%" y2="89%" >
    
          <stop offset="0%" style="stop-color:rgb(192,187,82);stop-opacity:1.00" />
          <stop offset="43%" style="stop-color:rgb(255,250,137);stop-opacity:1.00" />
          <stop offset="100%" style="stop-color:rgb(182,177,75);stop-opacity:1.00" />

    </linearGradient>
<filter id="shadow2">
      <feDropShadow dx="0" dy="0" stdDeviation="2"
          flood-color="#000000"/>
    </filter>
  </defs>
	<style>
		tspan { white-space:pre }
		.s0 { opacity:0;fill: #000000 }
#sai-ha-ki{opacity:1;fill: url(#lgrad);} 
	</style>
	
	<path id="sai-ha-ki" class="s0" style="filter:url(#shadow2);" d="m76.48 48.92c-1.25 2.11-4.35 5.56-5.89 6.26c0.37 4.82 0.68 9.53 0.92 10.78c0.47 2.46 1.04 14.43 0 17.04c-1.04 2.61-1.16 9.34-9.23 12.78c-0.67 0.28 4.14-11.6 4.26-19.88c0.12-8.28 0.05-22.82-1.42-28.4c-1.47-5.58-6.62-21.61-7.1-23.43c-0.48-1.82-1.92-6.89-4.26-9.94c-2.34-3.05-6.47-4.58-12.07-3.55c-5.6 1.03-10.93 2.61-12.78 2.84c-1.85 0.23-2.68 0.56-4.26 0c0 0 10.49-5.57 13.49-6.39c3-0.82 10.69-0.51 14.2 0.71c3.51 1.22 9.01 8.21 9.94 11.36c0.12 0.4 0.3 1.04 0.54 1.85c0.54-0.22 1.51-0.49 3.01-0.43c2.5 0.09 3.65 0.17 4.97 2.13c1.32 1.96 1.72 6.33 0.71 7.81c-1.01 1.48-2.58 3.61-4.26 4.26c-0.14 0.05-0.28 0.07-0.41 0.07c0.59 2.06 1.14 4.01 1.59 5.62c1.53 0.05 6.42 0.3 7.34 1.41c1.1 1.32 2.12 4.73 0.71 7.1zm-9.23-18.46c0.94-1.41 1.59-2.14 1.42-3.55c-0.17-1.41-1.03-2.55-2.84-2.84c-0.87-0.14-1.55 0.02-2.03 0.22c0.63 2.15 1.37 4.7 2.1 7.25c0.48-0.21 0.99-0.54 1.35-1.08zm1.96 12.83c0.07 0.25 0.12 0.47 0.17 0.66c0.3 1.23 0.59 3.8 0.85 6.76c0.17-0.1 0.36-0.22 0.57-0.37c1.63-1.15 2.76-2.75 2.84-4.26c0.07-1.41-1.85-2.48-4.43-2.79zm-32.49-10.7c-0.93-0.41-8.99 2.74-10.65 3.55c-1.66 0.81-2.34-0.88 0-4.26c2.34-3.38 4.26-12.78 4.26-12.78c2.2-0.27 3.59-0.09 4.26 0.71c0.67 0.8 0.33 2.07-0.71 4.97c-1.04 2.9-3.69 6.28-3.55 6.39c0.14 0.11 2.26-0.31 3.55-0.71c1.29-0.4 4.99-1.06 5.68-0.71c0.69 0.35 2.15 0.94 0.71 4.26c-1.44 3.32-13.01 12.23-13.49 13.49c-0.48 1.26 0.55 2.83 0.71 3.55c0.16 0.72 2.04-0.14 5.68-1.42c3.64-1.28 7.21-1.72 9.94-0.71c2.73 1.01 4.08 3.29 4.26 5.68c0.18 2.39 0 9.16-1.42 14.2c-1.42 5.04-4.71 11.51-7.1 14.2c-1.03 1.15-10.05 9.07-13.49 5.68c-4.17-4.1-1.71-2.94 2.13-3.55c3.87-0.62 8.76-5.46 12.07-10.65c4.61-7.23 3.48-18.05 2.84-20.59c-0.64-2.54-3.22-2.19-6.39-1.42c-3.17 0.77-5.68 1.76-7.1 2.13c-1.42 0.37-3.78 0.23-4.97-1.42c-1.19-1.65-0.54-5.93-0.71-7.1c-0.17-1.17 6.72-5.61 9.94-8.52c4.07-3.68 4.48-4.56 3.55-4.97z" />
</svg>