<svg version="1.2" baseProfile="tiny-ps" xmlns="http://www.w3.org/2000/svg" viewBox="0 0 100 100" width="100" height="100">
	<title>astral</title>
	<style>
		tspan { white-space:pre }
		.s0 { fill: none;stroke: #f8da93;stroke-width: 5 } 
	</style>
	<path id="sun1" class="s0" d="m79 53c0 0-5.66 22.83-25.59 23c-19.94 0.17-26.41-22.59-26.41-22.59c1.23 7.58-0.83-12.22 4-18.41c7.08-9.07 22-11 22-11c24.45 1.74 26 29 26 29z" />
	<path id="sun2" class="s0" d="m53 44c2.76 0 5 2.46 5 5.5c0 3.04-2.24 5.5-5 5.5c-2.76 0-5-2.46-5-5.5c0-3.04 2.24-5.5 5-5.5z" />
</svg>