<svg version="1.2" baseProfile="tiny-ps" xmlns="http://www.w3.org/2000/svg" viewBox="0 0 100 100" width="100" height="100">
	<title>astral</title>
	<style>
		tspan { white-space:pre }
		.s0 { fill: #f8da93 } 
		.s1 { fill: none;stroke: #f8da93;stroke-width: 3 } 
	</style>
	<path id="uranus1" class="s0" d="m21.75 25.65c0 0 11.97 0.14 13.2 0c1.23-0.14-0.81 15.19 0 16.5c0.81 1.31 13.61 2.02 15.05 0.85c1.44-1.17-0.43-17.52 0.8-17.35c1.23 0.17 4.75-1.72 4.95 0c0.2 1.72-0.92 14.88 0 16.5c0.92 1.62 13.61 2.3 14.85 1.65c1.24-0.65-0.9-14.92 0.65-16.5c1.55-1.58 10.99-1.1 11.55 0c0.56 1.1 2.36 0.8 1.65 1.65c-1.11 1.32-8.5-1.41-8.25 1.65c0.25 3.06-0.87 29.31 0 31.35c0.87 2.04 5.42 1.78 6.6 1.65c1.18-0.13 1.6 3.43 0 3.3c-1.6-0.13-12.86 0.67-12.2-1c0.66-1.67 1.33-13.92 0.65-15.5c-0.68-1.58-15.02-2.55-15.5-1.65c-0.48 0.9 0.65 19 1 19.8c0.35 0.8-1.72-0.97-3.75-0.55c-0.15 0.03-3.44 1.02-3.2-2.1c0.25-3.12 0.79-16.91 0-17.15c-0.79-0.24-14.27-0.8-14.85 0c-0.58 0.8 1.2 15.8 0 16.5c-1.2 0.7-9.93 2.4-11.55 1.65c-1.62-0.75-2.82-3.27-1.65-3.3c1.17-0.03 6.77 0.46 8.25-0.6c1.48-1.06 0.48-28.55 0-30.75c-0.48-2.2-6.94-4.81-8.25-3.3c-1.31 1.51-0.31-2.17 0-3.3z" />
	<path id="uranus2" class="s1" d="m61.77 75.43c0 0-1.75 7.07-7.92 7.12c-6.17 0.05-8.17-7-8.17-7c0.38 2.35-0.26-3.78 1.24-5.7c2.19-2.81 6.81-3.41 6.81-3.41c7.57 0.54 8.05 8.98 8.05 8.98z" />
</svg>