<svg version="1.2" baseProfile="tiny-ps" xmlns="http://www.w3.org/2000/svg" viewBox="0 0 100 100" width="100" height="100">
	<title>astral</title>
	<style>
		tspan { white-space:pre }
		.s0 { fill: #f8da93 } 
	</style>
	<path id="neptune" class="s0" d="m76 32l-4.02-2.87c0.25 6.39 0.55 17.47-0.21 20.87c-1.08 4.87-7.77 9.72-8.77 10c-0.47 0.13-4.17 0.37-8.42 0.48c0.01 2.71 0.01 5.36 0.01 7.82l9.28 0.66v4.74h-9.29c-0.02 4.75-0.08 7.92-0.19 7.9c-0.42-0.09-4.36 1.65-4.74-1.58c-0.08-0.66-0.12-3.01-0.15-6.32h-7.75v-6.32l7.73 0.55c0-2.32 0-4.83 0.01-7.41c-3.09-0.03-5.93-0.17-7.49-0.52c-4.57-1.03-8.7-9.97-9.73-13.16c-0.85-2.64-0.48-13.82-0.33-17.59c-1.62 1.69-3.71 3.66-4.41 3.37c-1.21-0.51-1.58-3.16-1.58-3.16l8.05-8.46c0 0 9.36 8.22 9 9c-0.32 0.7-2.37 2.09-2.72 2.49l-3.99-3.49c0.02 0.76-0.06 1.73-0.29 3c-1.39 7.49 0.22 22.99 8 24c2.2 0.28 3.96 0.46 5.51 0.56c0.04-9.43 0.11-18.84 0.13-22.34c-1.78 1.6-4.03 3.43-4.73 3.14c-1.21-0.51-1.58-3.16-1.58-3.16l8.67-8.2c0 0 9.39 8.23 9 9c-0.39 0.77-3.45 2.36-3.45 2.36l-3.14-3.03c0.04 3.7 0.11 12.94 0.15 22.29c1.41-0.06 2.84-0.17 4.57-0.3c5.28-0.4 8.82-7.73 9.48-11.06c0.53-2.7-0.83-12.69-1.37-16.4c-1.72 1.76-4.19 4.08-4.95 3.76c-1.21-0.51-1.58-3.16-1.58-3.16l8.29-8.46c0 0 9.48 7.69 9.09 8.46c-0.39 0.77-2.09 2.54-2.09 2.54z" />
</svg>