<svg version="1.2" baseProfile="tiny-ps" xmlns="http://www.w3.org/2000/svg" viewBox="0 0 100 100" width="100" height="100">
	<title>astral</title>
	<style>
		tspan { white-space:pre }
		.s0 { fill: none;stroke: #f8da93;stroke-width: 5 } 
		.s1 { fill: #f8da93 } 
	</style>
	<path id="mars1" class="s0" d="m74.35 53.58c0 0-4.86 19.63-22.01 19.78c-17.15 0.15-22.71-19.43-22.71-19.43c1.06 6.52-0.71-10.51 3.44-15.83c6.09-7.8 18.92-9.46 18.92-9.46c21.03 1.49 22.36 24.94 22.36 24.94z" />
	<path id="mars2" class="s1" d="m67 39l-4.78-2.45l11.78-11.55l-7.29-1.58l-1.02-3.5l12.56 0.86l-2.58-0.35l5.48 1.43l-0.69-0.59l2.12 12.75l-3.43 1.01l-2.15-8.02l-10 12z" />
</svg>