<svg version="1.2" baseProfile="tiny-ps" xmlns="http://www.w3.org/2000/svg" viewBox="0 0 100 100" width="100" height="100">
	<title>astral</title>
	<style>
		tspan { white-space:pre }
		.s0 { fill: #f8da93 } 
	</style>
	<path id="jupiter" class="s0" d="m29.41 46.69c0 0-4.52-5.86-5.01-6.68c-0.49-0.82-1.35-6 0-8.35c1.35-2.35 6.29-8.62 10.02-10.02c3.73-1.4 10.14-4.32 16.7 3.34c6.56 7.66 5.3 13.46 5.01 18.37c-0.29 4.91-3.18 10.1-5.01 13.36c-1.83 3.26-6.68 6.68-6.68 6.68c0 0-2.9 1.36 0 1.67c2.9 0.31 17.76 0.03 18.37 0c0.61-0.03 3.19-42.36 1.67-43.42c-1.52-1.06 4.65-1.59 5.01 0c0.36 1.59-0.26 39.65 0 41.75c0.26 2.1 5.18 1.93 6.68 1.67c1.5-0.26 2.18 4.08 1.67 5.01c-0.51 0.93-8.35 0-8.35 0c0 0-0.03 12.81 0 13.36c0.03 0.55-6.73 0.95-6.68 0c0.05-0.95 2.02-13.37 0-13.36c-2.02 0.01-36.43 2.06-36.74 0c-0.31-2.06-0.5-4.29 0-5.01c0.5-0.72 10.96 0 15.03-5.01c4.07-5.01 5.97-3.56 8.35-13.36c2.38-9.8 1.87-14.3 0-16.7c-1.87-2.4-9.47-6.91-15.03-1.67c-5.56 5.24-5.49 7.69-3.34 11.69c2.15 4 2.46 6.03 1.67 6.68c-0.79 0.65-2.65 0.57-3.34 0z" />
</svg>