<svg version="1.2" baseProfile="tiny-ps" xmlns="http://www.w3.org/2000/svg" viewBox="0 0 100 100" width="100" height="100">
	<title>astral</title>
	<style>
		tspan { white-space:pre }
		.s0 { fill: #f8da93 } 
	</style>
	<path id="saturn" class="s0" d="m36.7 68.97c0 0 0.85-43.4 0-43.5c-0.85-0.1-6.02 1.06-6.96 0c-0.94-1.06-2.41-6.88 0-6.96c2.41-0.08 7.21 1.28 6.96 0c-0.25-1.28-0.83-4.38 0-5.22c0.83-0.84 4.82-1.43 5.22 0c0.4 1.43 0 5.22 0 5.22c0 0 8.76 0.08 10.44 0c1.68-0.08 3.11 6.7 1.74 6.96c-1.37 0.26-11.5-0.86-12.18 0c-0.68 0.86-0.76 8.29 0 8.7c0.76 0.41 6.72-4.15 10.44-5.22c3.72-1.07 14.21-0.32 17.4 8.7c3.19 9.02 2.29 17.95-0.76 22.35c-4.31 6.22-7.75 10.68-9.68 14.19c-1.82 3.32-2.74 6.05 0 6.96c2.74 0.91 2.66 0.99 3.48-1.74c0.82-2.73 4.36-0.25 5.22 1.74c0.86 1.99-2.21 4.74-5.22 5.22c-3.01 0.48-9.97 0.1-10.44-3.48c-0.47-3.58-1.55-7.02 1.74-12.18c3.29-5.16 11.35-11.07 11.99-17.79c0.67-6.94 0.21-10.74-1.55-13.53c-1.76-2.8-9.21-6.8-13.92-3.48c-4.71 3.32-8.74 5.23-8.7 8.7c0.04 3.47-1.11 20.35 0 22.62c1.11 2.27-1.63 3.3-5.22 1.74z" />
</svg>