<svg version="1.2" baseProfile="tiny-ps" xmlns="http://www.w3.org/2000/svg" viewBox="0 0 100 100" width="100" height="100">
	<title>centeric</title>
	<style>
		tspan { white-space:pre }
		.s0 { fill: none;stroke: #fbaf5d;stroke-width: 3.8 } 
		.s1 { fill: none;stroke: #fbaf5d;stroke-width: 3.1 } 
	</style>
	<path id="knotc" class="s0" d="m50.45 13.32c17.05 0 30.88 13.82 30.88 30.88c0 17.05-13.82 30.88-30.88 30.88c-17.05 0-30.88-13.82-30.88-30.88c0-17.05 13.82-30.88 30.88-30.88z" />
	<path id="knotl" class="s1" d="m10.1 19.86c2.37-0.59 5.83-1.82 14.16-1.95c17.71-0.27 23.59 6.8 30.32 13.73c8.27 8.51 9.16 20.93 9.16 20.93c0 0-9.45 2.89-15.7 2.62c-14.55-0.63-20.59-6.22-28.78-13.08c-8.19-6.87-9.16-22.24-9.16-22.24c1.24-0.11-0.7 0.17 0 0z" />
	<path id="knotr" class="s1" d="m89.9 19.86c0 0-0.97 15.37-9.16 22.24c-8.19 6.87-14.23 12.45-28.78 13.08c-6.25 0.27-15.7-2.62-15.7-2.62c0 0 0.88-12.42 9.16-20.93c6.73-6.93 12.61-14 30.32-13.73c8.33 0.13 11.79 1.37 14.16 1.95c0.7 0.17-1.24-0.11 0 0z" />
	<path id="knotd" class="s1" d="m50.58 90.61c0 0-12.69-8.73-14.37-19.28c-1.68-10.55-3.37-18.61 3.57-31.41c2.98-5.5 10.31-12.12 10.31-12.12c0 0 10.2 7.14 13.25 18.61c2.48 9.34 5.53 18.01-3.81 33.06c-4.39 7.08-7.23 9.41-8.95 11.14c-0.51 0.51 0.74-1.01 0 0z" />
</svg>