<svg version="1.2" baseProfile="tiny-ps" xmlns="http://www.w3.org/2000/svg" viewBox="0 0 100 100" width="100" height="100"  style="transform:scale(.5);transform-origin:center center;">
	<title>rune by dan n</title>
	<style>
		tspan { white-space:pre }
		.s0 { fill: #696060 } 
		.s1 { fill: #998b8b } 
		.s2 { opacity: .2;fill: #000000 } 
		.s3 { opacity: .2;fill: #ffffff } 
		.s4 { opacity: .6;fill: #000000 } 
	</style>
	<path id="shadow" class="s0" d="m81 17c10.29 5.86 15.17 64.24 12 69c-3.17 4.76-34.96 13.22-50 11c-15.04-2.22-30.83-13.78-32-16c-1.17-2.22 1.53-40.23 5-52c3.47-11.77 30-22 30-22c0 0 24.71 4.14 35 10z" />
	<path id="stone" class="s1" d="m78 14c10.29 5.86 15.17 64.24 12 69c-3.17 4.76-34.96 13.22-50 11c-15.04-2.22-30.83-13.78-32-16c-1.17-2.22 1.53-40.23 5-52c3.47-11.77 30-22 30-22c0 0 24.71 4.14 35 10z" />
	<path id="shadowon" fill-rule="evenodd" class="s2" d="m80 20c6.07 5.9 11.44 50.43 9 63c-13.87 6.22-35.78 12.56-50.72 7.45c0.44-1.12 0.88-2.24 1.32-3.36c13.44-4.3 50.85-6.41 40.76-24.64c5.05-22.49-7.46-31.39-0.35-42.46z" />
	<path id="shineinn" fill-rule="evenodd" class="s3" d="m42 6c8.35-0.07 8.27 2.57 16.08 4.06c0.19 0.43 0.38 0.86 0.56 1.3c-0.99 0.69-1.97 1.37-2.96 2.06c-1.67-0.3-4.56-1.97-9.68-2.41c-36.29 3.16-24.05 39.01-35 50c0.55-15.77 1.12-30.66 8-40c6.63-7.56 16-11 23-15z" />
	<path id="norse-courage" fill-rule="evenodd" class="s4" d="m49 19c4.94 0.14 15.77 11.07 22.59 17.07c-0.41 2.33-0.26 1.94-1.28 3.2c-4.69 5.33-9.39 10.67-14.08 16c5.33 7.47 10.67 14.93 16 22.4c0 0.21 0 0.43 0 0.64c-0.85 0-1.71 0-2.56 0c-5.03-5.22-10.65-17.47-17.67-21.31c0 6.83-0.25 15.76-0.25 22.59c-0.85 0-1.71 0-2.56 0c-0.43-7.25-0.76-16.33-1.19-23.59c-7.8 4-13.52 16.52-18.65 22.31c-0.85 0-1.71 0-2.56 0c-0.21-0.64-0.43-1.28-0.64-1.92c4.32-7.66 11.79-14.01 16.85-22.39c-3.75-5.31-11.63-9.32-13.65-16.01c6.19-6.4 13.47-12.59 19.65-18.99zm3 5c0.21 8.53-0.21 19.47 0 28c4.61-3.79 12.18-8.98 15-15c-3.97-3.78-9.37-10.93-15-13zm-6 3c-3.84 4.05-8.27 7.28-13 11c4.35 5.34 8.33 10.36 12.99 13.43c0.64 0 2.37 0.57 3.01 0.57c0-8.53 0.67-19.13 0-28c-0.64 0-2.36 3-3 3z" />
</svg>