<svg version="1.2" baseProfile="tiny-ps" xmlns="http://www.w3.org/2000/svg" viewBox="0 0 100 100" width="100" height="100"  style="transform:scale(.5);transform-origin:center center;">
	<title>rune by dan n</title>
	<style>
		tspan { white-space:pre }
		.s0 { fill: #696060 } 
		.s1 { fill: #998b8b } 
		.s2 { opacity: .2;fill: #000000 } 
		.s3 { opacity: .2;fill: #ffffff } 
		.s4 { opacity: .6;fill: #000000 } 
	</style>
	<path id="shadow" class="s0" d="m81 17c10.29 5.86 15.17 64.24 12 69c-3.17 4.76-34.96 13.22-50 11c-15.04-2.22-30.83-13.78-32-16c-1.17-2.22 1.53-40.23 5-52c3.47-11.77 30-22 30-22c0 0 24.71 4.14 35 10z" />
	<path id="stone" class="s1" d="m78 14c10.29 5.86 15.17 64.24 12 69c-3.17 4.76-34.96 13.22-50 11c-15.04-2.22-30.83-13.78-32-16c-1.17-2.22 1.53-40.23 5-52c3.47-11.77 30-22 30-22c0 0 24.71 4.14 35 10z" />
	<path id="shadowon" fill-rule="evenodd" class="s2" d="m80 20c6.07 5.9 11.44 50.43 9 63c-13.87 6.22-35.78 12.56-50.72 7.45c0.44-1.12 0.88-2.24 1.32-3.36c13.44-4.3 50.85-6.41 40.76-24.64c5.05-22.49-7.46-31.39-0.35-42.46z" />
	<path id="shineinn" fill-rule="evenodd" class="s3" d="m42 6c8.35-0.07 8.27 2.57 16.08 4.06c0.19 0.43 0.38 0.86 0.56 1.3c-0.99 0.69-1.97 1.37-2.96 2.06c-1.67-0.3-4.56-1.97-9.68-2.41c-36.29 3.16-24.05 39.01-35 50c0.55-15.77 1.12-30.66 8-40c6.63-7.56 16-11 23-15z" />
	<path id="norse-energy" class="s4" d="m44.81 18.88c2.82 0.79 5.14 3.58 8.18 6.12c5.78 4.82 12.23 10.74 16 14.53c0 0.98 1 1.49 1 2.47c-5.52 3.74-12.72 7.42-18.7 11.1c0.2 0.59 0.39 1.18 0.59 1.77c5.92 8.02 14.04 14.23 19.47 24.78c-0.2 0.2-0.39 0.39-0.59 0.59c-0.79 0-1.57 0-2.36 0c-6.1-7.28-12.19-14.55-18.29-21.83c-0.2 0-0.93-1.41-1.13-1.41c-0.84 8.04-0.6 17.58-1.23 24.42c-1.18 0-2.36 0.81-3.76-0.42c1.92-14.25-0.03-22.23 1-32c-5.11 2.56-10.41 6.85-15.53 9.41c-0.59-0.59-1.18-1.18-1.77-1.77c0.39-1.38 1.9-2.26 2.29-3.64c4.21-1.52 12.03-6.21 14.23-9.93c0.2-2.36 0.58-5.71 0.78-8.07c-6.95 2.11-11.65 8.02-17 12c-1.38-0.2-3.78 1.69-5.01 0.79c0.62-2.15 0.48-1.74 1.77-2.95c6.25-5.38 13.78-11.48 20.25-15.84c0-3.34-0.19-6.78-0.19-10.12zm3.18 6.12c0.13 7.08-0.04 17.5 1 25c5.11-2.13 12.06-5.52 16-9c-5.44-7.22-12.08-12.07-17-16z" />
</svg>