<svg version="1.2" baseProfile="tiny-ps" xmlns="http://www.w3.org/2000/svg" viewBox="0 0 100 100" width="100" height="100"  style="transform:scale(.5);transform-origin:center center;">
	<title>rune by dan n</title>
	<style>
		tspan { white-space:pre }
		.s0 { fill: #696060 } 
		.s1 { fill: #998b8b } 
		.s2 { opacity: .2;fill: #000000 } 
		.s3 { opacity: .2;fill: #ffffff } 
		.s4 { opacity: .6;fill: #000000 } 
	</style>
	<path id="shadow" class="s0" d="m81 17c10.29 5.86 15.17 64.24 12 69c-3.17 4.76-34.96 13.22-50 11c-15.04-2.22-30.83-13.78-32-16c-1.17-2.22 1.53-40.23 5-52c3.47-11.77 30-22 30-22c0 0 24.71 4.14 35 10z" />
	<path id="stone" class="s1" d="m78 14c10.29 5.86 15.17 64.24 12 69c-3.17 4.76-34.96 13.22-50 11c-15.04-2.22-30.83-13.78-32-16c-1.17-2.22 1.53-40.23 5-52c3.47-11.77 30-22 30-22c0 0 24.71 4.14 35 10z" />
	<path id="shadowon" fill-rule="evenodd" class="s2" d="m80 20c6.07 5.9 11.44 50.43 9 63c-13.87 6.22-35.78 12.56-50.72 7.45c0.44-1.12 0.88-2.24 1.32-3.36c13.44-4.3 50.85-6.41 40.76-24.64c5.05-22.49-7.46-31.39-0.35-42.46z" />
	<path id="shineinn" fill-rule="evenodd" class="s3" d="m42 6c8.35-0.07 8.27 2.57 16.08 4.06c0.19 0.43 0.38 0.86 0.56 1.3c-0.99 0.69-1.97 1.37-2.96 2.06c-1.67-0.3-4.56-1.97-9.68-2.41c-36.29 3.16-24.05 39.01-35 50c0.55-15.77 1.12-30.66 8-40c6.63-7.56 16-11 23-15z" />
	<path id="norse-god" fill-rule="evenodd" class="s4" d="m46 16c12.6 6.15 9.87 5.56 23 15c-3.33 5.66-0.91 2.11-11-2c-8.74-7.75-5.11 1.6-6 10c8.47 6.47 9.3 6.21 16 12c-1.03 1.01-0.31 4-1 4c-2.78-2.5-7.22-4.5-10-7c-6.93-2.52-2.61-2.83-4-2c-0.49 10.71-0.86 20.87 0 36c-2.53 4.91-3.22 2-6 2c0-21.66-1-46.34-1-68z" />
</svg>