<svg version="1.2" baseProfile="tiny-ps" xmlns="http://www.w3.org/2000/svg" viewBox="0 0 100 100" width="100" height="100"  style="transform:scale(.5);transform-origin:center center;">
	<title>rune by dan n</title>
	<style>
		tspan { white-space:pre }
		.s0 { fill: #696060 } 
		.s1 { fill: #998b8b } 
		.s2 { opacity: .2;fill: #000000 } 
		.s3 { opacity: .2;fill: #ffffff } 
		.s4 { opacity: .6;fill: #000000 } 
	</style>
	<path id="shadow" class="s0" d="m81 17c10.29 5.86 15.17 64.24 12 69c-3.17 4.76-34.96 13.22-50 11c-15.04-2.22-30.83-13.78-32-16c-1.17-2.22 1.53-40.23 5-52c3.47-11.77 30-22 30-22c0 0 24.71 4.14 35 10z" />
	<path id="stone" class="s1" d="m78 14c10.29 5.86 15.17 64.24 12 69c-3.17 4.76-34.96 13.22-50 11c-15.04-2.22-30.83-13.78-32-16c-1.17-2.22 1.53-40.23 5-52c3.47-11.77 30-22 30-22c0 0 24.71 4.14 35 10z" />
	<path id="shadowon" fill-rule="evenodd" class="s2" d="m80 20c6.07 5.9 11.44 50.43 9 63c-13.87 6.22-35.78 12.56-50.72 7.45c0.44-1.12 0.88-2.24 1.32-3.36c13.44-4.3 50.85-6.41 40.76-24.64c5.05-22.49-7.46-31.39-0.35-42.46z" />
	<path id="shineinn" fill-rule="evenodd" class="s3" d="m42 6c8.35-0.07 8.27 2.57 16.08 4.06c0.19 0.43 0.38 0.86 0.56 1.3c-0.99 0.69-1.97 1.37-2.96 2.06c-1.67-0.3-4.56-1.97-9.68-2.41c-36.29 3.16-24.05 39.01-35 50c0.55-15.77 1.12-30.66 8-40c6.63-7.56 16-11 23-15z" />
	<path id="norse-goodluck" class="s4" d="m70.51 28.53c2.35 2.65 4.41 7 7.96 12.83c1.18 3.1-0.77 1.88-1.92 1.7c-1.9-3.67-5.8-7.25-7.84-11.02c0.01-0.02 0.02-0.03 0.04-0.05h-0.06c0.01 0.02 0.01 0.03 0.02 0.05c-0.79 0.98-1.88 2.16-3.39 3.6c-0.11 0.08-0.22 0.17-0.33 0.26v0.48c3.02 2.41 6.72 7.66 7.33 9.74c-0.41 0.55-1.56 0.38-1.35 1.2c0.42 1.15-5.55-4.87-8.42-9.34h-0.17c-4.18 3.45-7.9 7.27-11.39 11.33v0.41c0.23 0.22 0.46 0.43 0.7 0.65c11.36 10.61 22.85 21.34 23.97 24.74c-1.17 0.84-6.9-2.15-9.4-5.64c-5.56-6.14-11.2-12-17.01-17.49h-0.49c-3.54 4.29-6.94 8.75-10.48 13.19c-4.52 5.68-5.82 10.29-12.26 11.99c2.49-4.57 11.59-16.29 20.98-27.24v-0.06c-3.61-3.32-7.28-6.5-11.04-9.49c-5.68-4.52-8.41-6.76-10.11-13.2c4.59 3.34 13.36 11.53 22.73 20.28l0.8-0.27c7.91-9.07 15.64-17.11 19.41-19.41c-0.06 0.08-0.11 0.16-0.16 0.24l0.79-0.59c-0.19 0.09-0.4 0.22-0.62 0.35c0.14-0.18 0.26-0.35 0.43-0.54c0.07 0.05 0.13 0.13 0.2 0.18l0.59-0.44l0.12 0.36c0.18 0.28 0.31 0.61 0.34 1.01l0.06 0.17z" />
</svg>