<svg version="1.2" baseProfile="tiny-ps" xmlns="http://www.w3.org/2000/svg" viewBox="0 0 100 100" width="100" height="100"  style="transform:scale(.5);transform-origin:center center;">
	<title>rune by dan n</title>
	<style>
		tspan { white-space:pre }
		.s0 { fill: #696060 } 
		.s1 { fill: #998b8b } 
		.s2 { opacity: .2;fill: #000000 } 
		.s3 { opacity: .2;fill: #ffffff } 
		.s4 { opacity: .6;fill: #000000 } 
	</style>
	<path id="shadow" class="s0" d="m81 17c10.29 5.86 15.17 64.24 12 69c-3.17 4.76-34.96 13.22-50 11c-15.04-2.22-30.83-13.78-32-16c-1.17-2.22 1.53-40.23 5-52c3.47-11.77 30-22 30-22c0 0 24.71 4.14 35 10z" />
	<path id="stone" class="s1" d="m78 14c10.29 5.86 15.17 64.24 12 69c-3.17 4.76-34.96 13.22-50 11c-15.04-2.22-30.83-13.78-32-16c-1.17-2.22 1.53-40.23 5-52c3.47-11.77 30-22 30-22c0 0 24.71 4.14 35 10z" />
	<path id="shadowon" fill-rule="evenodd" class="s2" d="m80 20c6.07 5.9 11.44 50.43 9 63c-13.87 6.22-35.78 12.56-50.72 7.45c0.44-1.12 0.88-2.24 1.32-3.36c13.44-4.3 50.85-6.41 40.76-24.64c5.05-22.49-7.46-31.39-0.35-42.46z" />
	<path id="shineinn" fill-rule="evenodd" class="s3" d="m42 6c8.35-0.07 8.27 2.57 16.08 4.06c0.19 0.43 0.38 0.86 0.56 1.3c-0.99 0.69-1.97 1.37-2.96 2.06c-1.67-0.3-4.56-1.97-9.68-2.41c-36.29 3.16-24.05 39.01-35 50c0.55-15.77 1.12-30.66 8-40c6.63-7.56 16-11 23-15z" />
	<path id="norse-health" class="s4" d="m67.36 35.13c-1.09-0.58-17.09-12.99-17.09-12.99c0 0-0.33 1.12-0.54 1.75c-0.21 0.63 0.67 7.07 0.78 9.77c0.24-0.26 0.47-0.44 0.47-0.44c0 0 13.16 11.35 14.1 11.87c0.94 0.52 3.03 2.98 3.41 3.55c0.38 0.57-0.28 2.12-2.4 4.01c-2.12 1.89-7.75 7.27-8.86 7.94c-0.83 0.5-4.11 3.26-6.08 4.73c-0.05 2.28 0.71 14.97 0.91 15.36c0.21 0.41-1.31 2.02-2.27 2.37c-0.96 0.35-1.21-2.3-1.21-2.3c0 0-0.24-8.54-0.19-9.28c0.02-0.34-0.19-3.06-0.41-6.07c-1.95-1.46-5.35-4.31-6.19-4.82c-1.12-0.67-6.74-6.05-8.86-7.94c-2.12-1.89-2.78-3.44-2.4-4.01c0.38-0.57 2.47-3.03 3.41-3.55c0.79-0.44 10.2-8.51 13.19-11.09c-0.06-0.49-0.09-0.78-0.09-0.78c0 0-0.4-4.27-0.69-5.21c-0.28-0.94-0.08-6.78-0.15-7.54c-0.07-0.76 1.09-3.5 1.09-3.5l1.76 1.12c0 0 7.26 4.29 10.58 6.74c3.32 2.45 10.62 8.48 10.62 8.48l0.04 1.74c0 0-1.81 0.64-2.9 0.06zm-19.81 3.25c-0.16 0.19-0.34 0.4-0.55 0.61c-0.89 0.92-6.14 4.27-7.87 5.41c-1.73 1.15-4.66 3.88-4.54 4.73c0.19 1.39 9.42 9.73 13.07 11.67c-0.11-1.77-0.18-3.22-0.15-3.81c0.11-1.99 0.12-9.08 0.33-12.19c0.1-1.45-0.08-4.05-0.28-6.43zm16.86 10.76c0.12-0.86-2.81-3.59-4.54-4.73c-1.73-1.15-6.98-4.5-7.87-5.41c-0.62-0.64-1.02-1.17-1.28-1.63c0.22 3.22 0.53 7.12 0.61 7.96c0.09 0.88 0.03 9.98-0.06 15.53c3.6-1.86 12.96-10.31 13.15-11.71z" />
</svg>