<svg version="1.2" baseProfile="tiny-ps" xmlns="http://www.w3.org/2000/svg" viewBox="0 0 100 100" width="100" height="100"  style="transform:scale(.5);transform-origin:center center;">
	<title>rune by dan n</title>
	<style>
		tspan { white-space:pre }
		.s0 { fill: #696060 } 
		.s1 { fill: #998b8b } 
		.s2 { opacity: .2;fill: #000000 } 
		.s3 { opacity: .2;fill: #ffffff } 
		.s4 { opacity: .6;fill: #000000 } 
	</style>
	<path id="shadow" class="s0" d="m81 17c10.29 5.86 15.17 64.24 12 69c-3.17 4.76-34.96 13.22-50 11c-15.04-2.22-30.83-13.78-32-16c-1.17-2.22 1.53-40.23 5-52c3.47-11.77 30-22 30-22c0 0 24.71 4.14 35 10z" />
	<path id="stone" class="s1" d="m78 14c10.29 5.86 15.17 64.24 12 69c-3.17 4.76-34.96 13.22-50 11c-15.04-2.22-30.83-13.78-32-16c-1.17-2.22 1.53-40.23 5-52c3.47-11.77 30-22 30-22c0 0 24.71 4.14 35 10z" />
	<path id="shadowon" fill-rule="evenodd" class="s2" d="m80 20c6.07 5.9 11.44 50.43 9 63c-13.87 6.22-35.78 12.56-50.72 7.45c0.44-1.12 0.88-2.24 1.32-3.36c13.44-4.3 50.85-6.41 40.76-24.64c5.05-22.49-7.46-31.39-0.35-42.46z" />
	<path id="shineinn" fill-rule="evenodd" class="s3" d="m42 6c8.35-0.07 8.27 2.57 16.08 4.06c0.19 0.43 0.38 0.86 0.56 1.3c-0.99 0.69-1.97 1.37-2.96 2.06c-1.67-0.3-4.56-1.97-9.68-2.41c-36.29 3.16-24.05 39.01-35 50c0.55-15.77 1.12-30.66 8-40c6.63-7.56 16-11 23-15z" />
	<path id="norse-protection" class="s4" d="m71 50.65c-1.76 10.05-11.6 12.51-17.5 18.83l0.24 1.18c3.61 1.69 6.07 4.28 9.27 6.62c0 0.91 0 1.82 0 2.73c-0.69 0-1.38 0-2.08 0c-3-2.32-6-4.64-9-6.96l-0.22 0.11c-0.18 2.59-0.41 5.2-0.7 7.85c-0.67 0-1.33 0-2 0c-0.04-2.81-0.08-5.43-0.12-7.94c0.05-0.01 0.09-0.02 0.14-0.03l-0.15-0.15c0 0.06 0 0.12 0 0.18c-4.12 1.15-8.19 3.25-10.12 6.26c-0.92-0.45-1.85-0.91-2.77-1.36c2.58-3.89 6.39-6.06 10.72-8.07l-0.06-0.24c-5.89-6.44-15.88-8.86-17.66-19c3.52-6.64 9.81-14.33 16.59-19.01l0.01-0.06c-3.87-1.87-7.25-3.99-9.6-7.54c0.92-0.45 1.85-0.91 2.77-1.36c1.71 2.67 5.1 4.62 8.72 5.83l0.61-0.61c-0.03-2.2-0.07-4.47-0.1-6.9c0.67 0 1.33 0 2 0c0.26 2.48 0.51 4.93 0.74 7.37l1.19 0.59c3-2.32 6-4.64 9-6.96c0.69 0 1.38 0 2.08 0c0 0.91 0 1.82 0 2.73c-3.12 2.28-5.53 4.81-9 6.5v0.14c6.94 4.65 13.41 12.51 17 19.28zm-22.91-16.03c-6.16 3.67-13.94 10.64-15.48 17.4c3.78 5.91 10.33 10.01 15.49 12.88l0.64-0.64c-0.18-10.32-0.36-18.91-0.53-29.62l-0.12-0.02zm3.71-0.07l-0.52 0.13c0.79 10.04 1.18 19.91 0.85 30.09c-0.07 0.04-0.13 0.07-0.2 0.11l0.18 0.36c0.01-0.15 0.02-0.31 0.02-0.46c5.12-2.86 11.53-6.93 15.25-12.75c-1.55-6.8-9.42-13.82-15.59-17.47z" />
</svg>