<svg version="1.2" baseProfile="tiny-ps" xmlns="http://www.w3.org/2000/svg" viewBox="0 0 100 100" width="100" height="100"  style="transform:scale(.5);transform-origin:center center;">
	<title>rune by dan n</title>
	<style>
		tspan { white-space:pre }
		.s0 { fill: #696060 } 
		.s1 { fill: #998b8b } 
		.s2 { opacity: .2;fill: #000000 } 
		.s3 { opacity: .2;fill: #ffffff } 
		.s4 { opacity: .6;fill: #000000 } 
	</style>
	<path id="shadow" class="s0" d="m81 17c10.29 5.86 15.17 64.24 12 69c-3.17 4.76-34.96 13.22-50 11c-15.04-2.22-30.83-13.78-32-16c-1.17-2.22 1.53-40.23 5-52c3.47-11.77 30-22 30-22c0 0 24.71 4.14 35 10z" />
	<path id="stone" class="s1" d="m78 14c10.29 5.86 15.17 64.24 12 69c-3.17 4.76-34.96 13.22-50 11c-15.04-2.22-30.83-13.78-32-16c-1.17-2.22 1.53-40.23 5-52c3.47-11.77 30-22 30-22c0 0 24.71 4.14 35 10z" />
	<path id="shadowon" fill-rule="evenodd" class="s2" d="m80 20c6.07 5.9 11.44 50.43 9 63c-13.87 6.22-35.78 12.56-50.72 7.45c0.44-1.12 0.88-2.24 1.32-3.36c13.44-4.3 50.85-6.41 40.76-24.64c5.05-22.49-7.46-31.39-0.35-42.46z" />
	<path id="shineinn" fill-rule="evenodd" class="s3" d="m42 6c8.35-0.07 8.27 2.57 16.08 4.06c0.19 0.43 0.38 0.86 0.56 1.3c-0.99 0.69-1.97 1.37-2.96 2.06c-1.67-0.3-4.56-1.97-9.68-2.41c-36.29 3.16-24.05 39.01-35 50c0.55-15.77 1.12-30.66 8-40c6.63-7.56 16-11 23-15z" />
	<path id="norse-relationship" class="s4" d="m74 33.44c-4.46 3.58-9.63 6.06-14.09 9.63c-1.74 1.4-3.66 2.85-5.65 4.33c-0.09-0.06-0.17-0.13-0.26-0.19v0.38c0.09-0.06 0.17-0.13 0.26-0.19c6.72 5.06 13.43 10.42 15.56 13.86c-0.26 0.91-0.52 1.82-0.78 2.74c-0.43-0.36-0.86-0.73-1.29-1.09c-4.36-3.5-9.76-7.34-15.03-11.14c0-0.16-0.01-0.31-0.01-0.47l-0.27 0.27c0.09 0.07 0.19 0.13 0.28 0.2c0.31 11.05 1.84 23.31 0.28 28.24c-0.95 0.33-2.79 0.67-3.73 1c0-0.66 0-1.32 0-1.99c-0.2-7.85-1.03-17.45-1.65-26.47l-0.28-0.09c-4.97 3.58-9.98 7.17-14.08 10.46c-0.43 0.36-0.86 0.73-1.29 1.09c-0.26-0.91-0.52-1.82-0.78-2.74c2.14-3.46 8.98-8.58 15.53-13.88c0.01 0.01 0.01 0.01 0.02 0.02l0-0.03c-0.01 0-0.01 0.01-0.02 0.01c-1.99-1.47-3.89-2.92-5.62-4.31c-4.46-3.58-9.63-6.06-14.09-9.63c1.17-0.72-0.88-2.4 0.44-2.37c5.22 0.09 12.1 5.38 19.56 10.94l0.02-0.02c-0.03-0.79-0.06-1.57-0.08-2.33c-0.17-6.75-0.98-13.97-0.2-20.68c1.32 0.89 1.86-2.26 2.43-0.77c2.05 5.39 3.66 14.26 3.61 24.06c-0.03 0.03-0.06 0.05-0.09 0.08l0.09 0.04c0-0.04 0-0.08 0-0.13c0.25-0.22 0.5-0.45 0.74-0.67c6.84-6.31 14.29-11.2 20.04-10.53c1.3 0.15-0.73 1.66 0.44 2.37z" />
</svg>