<svg version="1.2" baseProfile="tiny-ps" xmlns="http://www.w3.org/2000/svg" viewBox="0 0 100 100" width="100" height="100"  style="transform:scale(.5);transform-origin:center center;">
	<title>rune by dan n</title>
	<style>
		tspan { white-space:pre }
		.s0 { fill: #000000 } 
		.s1 { fill: #cfcff7 } 
		.s2 { fill-opacity: .2;fill: #000000 } 
		.s3 { opacity: .3;fill: #ffffff } 
		.s4 { opacity: 0;fill: #f6f7f8 } 
		.s5 { opacity: 0;fill: #e42a2a } 
		.s6 { opacity: 0;fill: #704920 } 
		.s7 { fill: #808385 } 
	</style>
	<path id="shapenain_shadow" fill-rule="evenodd" class="s0" d="m40 5c12.72-0.4 25.41-0.36 33 4c11.82 32.21 26.53 28.65 14 69c-2.49 8.02-2 13.96-7 19c-57.11 1.36-64.35-9.27-63-66c7.67-8.67 15.33-17.33 23-26z" />
	<path id="shapenain" fill-rule="evenodd" class="s1" d="m38 2c12.72-0.4 25.41-0.36 33 4c11.82 32.21 26.53 28.65 14 69c-2.49 8.02-2 13.96-7 19c-57.11 1.36-64.35-9.27-63-66c7.67-8.67 15.33-17.33 23-26z" />
	<path id="shadow" fill-rule="evenodd" class="s2" d="m68 11c12.48 13.27 29.2 35.43 9 80c-7.24 1.11-18.47 2.38-26-2c12.83-6.37 29.66-27.03 29-41c-0.38-8.19-6.18-22.97-12-37z" />
	<path id="shine" class="s3" d="m60 7c0 0-17.51-1.22-31 16c-13.49 17.22-6.75 52.72-9 43c-2.25-9.72-2.08-36.81-2-38c0.08-1.19 21-24 21-24c23.12-0.29 21 3 21 3z" />
	<path id="water" class="s4" d="m38.93 41.18c1.68 1.42 3.36 2.83 5.05 4.25c2.57-0.38 4.45-2.63 5.84-4.25c0.18 0.09 0.35 0.18 0.53 0.27c1.59 1.68 3.19 3.36 4.78 5.05c0.18 0 0.35 0 0.53 0c1.33-1.5 2.66-3.01 3.98-4.52c2.46 0.61 4.64 2.83 6.11 4.52c2.83-0.67 4.66-3.3 6.91-4.78c-0.71 3.57-3.67 7.06-6.11 9.03c-0.18 0-0.35 0-0.53 0c-1.4-2.26-3.03-3.49-4.78-5.31c-2.39 1.86-4.78 3.72-7.17 5.58c-0.27-0.09-0.53-0.18-0.8-0.27c-1.15-1.77-2.3-3.54-3.45-5.31c-1.5 1.5-3.01 3.01-4.52 4.52c-0.89 0.35-1.77 0.71-2.66 1.06c-1.21-2.19-3.07-4.64-5.05-6.11c-2.74 1.33-5.49 2.66-8.23 3.98c2.52-3.25 6.51-4.99 9.56-7.7zm-1.06 8.5c1.68 1.42 3.36 2.83 5.05 4.25c2.57-0.38 4.45-2.64 5.84-4.25c0.18 0.09 0.35 0.18 0.53 0.27c1.59 1.68 3.19 3.36 4.78 5.05c0.18 0 0.35 0 0.53 0c1.33-1.5 2.66-3.01 3.98-4.52c2.46 0.61 4.64 2.83 6.11 4.52c2.83-0.67 4.66-3.3 6.91-4.78c-0.71 3.57-3.67 7.06-6.11 9.03c-0.18 0-0.35 0-0.53 0c-1.4-2.26-3.03-3.49-4.78-5.31c-2.39 1.86-4.78 3.72-7.17 5.58c-0.27-0.09-0.53-0.18-0.8-0.27c-1.15-1.77-2.3-3.54-3.45-5.31c-1.5 1.5-3.01 3.01-4.52 4.52c-0.89 0.35-1.77 0.71-2.66 1.06c-1.21-2.19-3.07-4.64-5.05-6.11c-2.74 1.33-5.49 2.66-8.23 3.98c2.52-3.25 6.51-4.99 9.56-7.7z" />
	<path id="fire" fill-rule="evenodd" class="s5" d="m50.24 29.04c10.23 6.27 18.35 19.93 24.07 30.71c-0.55 0-1.11 0-1.66 0c-13.83 0.28-27.67 0.55-41.5 0.83c0-0.28 0-0.55 0-0.83c6.36-10.24 12.73-20.47 19.09-30.71zm0.83 6.64c-4.7 6.09-8.58 14.66-13.28 20.75c9.68-0.28 19.37-0.55 29.05-0.83c0-0.28 0-0.55 0-0.83c-3.28-5.95-10.05-15.6-15.77-19.09z" />
	<path id="earth" class="s6" d="m65.63 46.9c-0.12-0.01-0.25-0.01-0.37-0.01l0.24 0.24c0.04-0.08 0.09-0.15 0.13-0.22c1.92 0.08 3.84 0.17 5.75 0.3c0.65 1.63-2.18 3.68-4.58 3.43c-0.66-0.07-1.45-0.13-2.3-0.18l-1.28 0.51c-4.15 6.7-8.91 12.89-14.24 16.15c-3.05-4.91-6.1-10.58-9.16-16.29l-0.69-0.55c-3.11 0.07-5.79 0.15-7.59 0.24c-1.39 1.92-0.83 3.6-0.83 5.81c-0.28 0-0.55 0.83-0.83 0.83c-1.11-0.55-2.28-0.29-2.49-2.49c0-4.98-0.83-9.13-0.83-14.11c1.11 0 2.21-0.83 3.32-0.83c0.73 3.5-0.42 5.08 2.49 6.64c1.53 0.03 3.07 0.06 4.61 0.08c0.07-0.18 0.13-0.38 0.18-0.57c-2.43-4.5-4.85-8.89-7.28-12.79c0-0.28 0-0.55 0-0.83c13.83 0.28 27.67 0.55 41.5 0.83c0.55 0 1.11 0 1.66 0c-2.14 4.03-4.61 8.93-7.41 13.81zm-15.83 14.41c2.94-1.79 6.15-6.31 9.03-11.08c0.04 0 0.07 0 0.1 0v-0.18c-0.03 0.06-0.07 0.12-0.1 0.17c-4.39-0.1-9.55-0.1-14.34-0.04l-0.42 0.64c1.85 4.02 3.72 7.86 5.74 10.48zm15.77-24.07c-9.68-0.28-19.37-0.55-29.05-0.83c1.94 2.51 3.74 6.17 5.52 10.01l0.2 0.08c5.95 0.05 11.97 0.07 17.99 0.23l1.43-1.43c1.55-2.8 2.89-5.39 3.91-7.23c0-0.28 0-0.55 0-0.83z" />
	<path id="air" class="s7" d="m74.75 41.56c-0.55 1.11-1.02 3.11-2.49 4.15c-2.23 0.11-4.27 0.22-6.19 0.32l-0.08 0.24c3.01 4.54 5.67 9.27 7.93 13.55c-0.55 0-1.11 0-1.66 0c-13.83 0.28-27.67 0.55-41.5 0.83c0-0.28 0-0.55 0-0.83c2.71-4.37 5.43-8.73 8.14-13.1c0 0 0 0 0 0l0 0c0 0 0 0 0 0c-2.24-0.04-4.64-0.1-7.31-0.18c-1.49-1.45-2.74-2.56-0.83-4.15c4.01 0.16 7.33 0.32 10.35 0.44l0.56-0.56c2.73-4.39 5.45-8.77 8.18-13.16c4.89 2.99 9.29 7.69 13.18 12.94l1.03 0.69c1.76-0.09 3.64-0.21 5.71-0.35c0.55-3.27-2.87-6.64-0.83-9.13c1.66 0.28 3.02-1.68 5.81 2.49c-0.28 3.04 0.28 2.77 0 5.81zm-30.11 5.57c-2.41 3.12-4.83 6.25-7.24 9.37c9.68-0.28 19.37-0.55 29.05-0.83c0-0.28 0-0.55 0-0.83c-1.47-2.67-3.49-5.57-5.77-8.29l-0.64-0.21c-5.02 0.24-9.45 0.4-14.48 0.42l-0.92 0.37zm6.87-11.38c-1.21 1.56-4.07 5.61-5.28 7.17l0.96 0.13c2.99 0.06 6.81 0.06 10.24-0.04c0.11 0.11 0.21 0.22 0.31 0.32l0.2-0.34c-0.17 0.01-0.35 0.01-0.52 0.02c-1.92-1.9-3.93-6.05-5.92-7.26z" />
</svg>