<svg version="1.2" baseProfile="tiny-ps" xmlns="http://www.w3.org/2000/svg" viewBox="0 0 100 100" width="100" height="100">
	<title>thegod.svg</title>
	<style>
		tspan { white-space:pre }
		.s0 { fill: none;stroke: #fbaf5d;stroke-width: 4.5 } 
		.s1 { fill: none;stroke: #fbaf5d;stroke-width: 2.5 }
                .s2 { fill: #fbaf5d; } 
	</style>
	<path id="god" class="s0" d="m50.5 34.95c15.24 0 27.59 12.35 27.59 27.59c0 15.24-12.35 27.59-27.59 27.59c-15.24 0-27.59-12.35-27.59-27.59c0-15.24 12.35-27.59 27.59-27.59z" />
	<path id="god2" class="s2" d="m78.09 10.92c0 15.24-12.35 27.59-27.59 27.59c-15.24 0-27.59-12.35-27.59-27.59c0-1.25 3.56-0.89 3.56-0.89c0 0 0.31 23.59 24.92 23.14c24.61-0.45 23.14-23.14 23.14-23.14c0 0 3.56-0.67 3.56 0.89z" />
</svg>