<svg version="1.2" baseProfile="tiny-ps" xmlns="http://www.w3.org/2000/svg" viewBox="0 0 100 100" width="100" height="100">
	<title>centeric</title>
	<style>
		tspan { white-space:pre }
		.s0 { fill: none;stroke: #fbaf5d;stroke-width: 2 } 
		.s1 { fill: none;stroke: #fbaf5d;stroke-width: 3.5 } 
	</style>
	<path id="goodess" class="s0" d="m97.18 37.5c-0.13 0.72-0.56 1.13-1.29 1.25c-1.88 0.26-3.59 0.88-5.15 1.85c-1.56 0.98-2.87 2.24-3.92 3.78c-1.35 1.99-2.11 4.16-2.26 6.52c-0.16 2.35 0.28 4.59 1.3 6.72c1.02 2.13 2.53 3.87 4.53 5.23c1.59 1.08 3.37 1.79 5.32 2.11c0.72 0.13 1.15 0.55 1.28 1.25c0.06 0.32 0.02 0.63-0.11 0.93c-0.14 0.3-0.34 0.54-0.61 0.71c-3.13 1.87-6.52 2.75-10.2 2.65c-3.67-0.1-7.02-1.18-10.05-3.24c-2.11-1.43-3.84-3.21-5.21-5.33c-1.03-1.6-1.79-3.26-2.3-4.97c-2.31 7.72-9.46 13.36-17.94 13.36c-8.54 0-15.74-5.72-17.99-13.53c-0.65 2.21-1.72 4.29-3.21 6.24c-1.54 2-3.42 3.62-5.64 4.87c-3.19 1.79-6.62 2.58-10.29 2.37c-3.67-0.21-6.98-1.38-9.93-3.5c-0.26-0.19-0.44-0.44-0.55-0.75c-0.11-0.31-0.12-0.62-0.03-0.93c0.2-0.69 0.66-1.07 1.38-1.14c1.97-0.16 3.8-0.71 5.48-1.65c2.11-1.18 3.76-2.79 4.96-4.83c1.2-2.03 1.82-4.23 1.87-6.59c0.05-2.36-0.52-4.58-1.7-6.68c-0.92-1.63-2.11-3-3.58-4.1c-1.47-1.1-3.13-1.87-4.98-2.28c-0.72-0.18-1.11-0.63-1.18-1.35c-0.08-0.72 0.2-1.24 0.84-1.56c2.23-1.14 4.57-1.81 7.02-2.02c2.45-0.21 4.78 0.02 7 0.68c2.22 0.66 4.29 1.75 6.22 3.27c1.93 1.52 3.5 3.36 4.72 5.53c0.72 1.28 1.25 2.6 1.64 3.98c2.28-7.77 9.46-13.44 17.96-13.44c8.51 0 15.69 5.68 17.97 13.46c0.53-1.82 1.34-3.54 2.43-5.15c1.4-2.06 3.12-3.76 5.17-5.11c2.05-1.35 4.21-2.26 6.47-2.73c2.26-0.47 4.61-0.5 7.03-0.08c2.42 0.42 4.7 1.29 6.82 2.61c0.61 0.38 0.85 0.92 0.7 1.63zm-67.05 12.27c-0.22-2.09-0.84-4.06-1.88-5.9c-1.71-3.05-4.15-5.26-7.31-6.64c-3.16-1.38-6.41-1.69-9.75-0.93c2.8 1.51 4.96 3.63 6.49 6.35c1.45 2.58 2.15 5.33 2.1 8.25c-0.05 2.92-0.82 5.64-2.31 8.15c-1.49 2.52-3.53 4.5-6.13 5.96c-0.8 0.45-1.62 0.82-2.46 1.13c2.17 0.83 4.43 1.17 6.76 1c2.33-0.16 4.53-0.82 6.58-1.97c1.85-1.04 3.42-2.39 4.7-4.07c1.28-1.67 2.19-3.45 2.73-5.35c0.54-1.9 0.7-3.89 0.48-5.98zm51.3-12.82c-3.27 1.1-5.88 3.1-7.85 6c-1.19 1.75-1.98 3.66-2.37 5.72c-0.39 2.06-0.4 4.06-0.03 6c0.37 1.94 1.13 3.79 2.27 5.56c1.14 1.77 2.58 3.26 4.34 4.45c1.95 1.32 4.08 2.16 6.39 2.52c2.31 0.36 4.59 0.22 6.82-0.43c-0.81-0.37-1.6-0.82-2.35-1.33c-2.46-1.67-4.33-3.82-5.6-6.46c-1.27-2.63-1.81-5.41-1.61-8.32c0.2-2.91 1.13-5.59 2.79-8.04c1.75-2.58 4.09-4.51 7-5.78c-3.27-1.04-6.53-1-9.8 0.1z" />
	<path id="goddesin" class="s1" d="m50.59 32.87c10.27 0 18.6 8.33 18.6 18.6c0 10.27-8.33 18.6-18.6 18.6c-10.27 0-18.6-8.33-18.6-18.6c0-10.27 8.33-18.6 18.6-18.6z" />
</svg>