<svg version="1.2" baseProfile="tiny-ps" xmlns="http://www.w3.org/2000/svg" viewBox="0 0 100 100" width="100" height="100"  style="transform:scale(.5);transform-origin:center center;">
	<title>rune by dan n</title>
	<style>
		tspan { white-space:pre }
		.s0 { fill: #696060 } 
		.s1 { fill: #998b8b } 
		.s2 { opacity: .2;fill: #000000 } 
		.s3 { opacity: .2;fill: #ffffff } 
		.s4 { opacity: .6;fill: #000000 } 
	</style>
	<path id="shadow" class="s0" d="m81 17c10.29 5.86 15.17 64.24 12 69c-3.17 4.76-34.96 13.22-50 11c-15.04-2.22-30.83-13.78-32-16c-1.17-2.22 1.53-40.23 5-52c3.47-11.77 30-22 30-22c0 0 24.71 4.14 35 10z" />
	<path id="stone" class="s1" d="m78 14c10.29 5.86 15.17 64.24 12 69c-3.17 4.76-34.96 13.22-50 11c-15.04-2.22-30.83-13.78-32-16c-1.17-2.22 1.53-40.23 5-52c3.47-11.77 30-22 30-22c0 0 24.71 4.14 35 10z" />
	<path id="shadowon" fill-rule="evenodd" class="s2" d="m80 20c6.07 5.9 11.44 50.43 9 63c-13.87 6.22-35.78 12.56-50.72 7.45c0.44-1.12 0.88-2.24 1.32-3.36c13.44-4.3 50.85-6.41 40.76-24.64c5.05-22.49-7.46-31.39-0.35-42.46z" />
	<path id="shineinn" fill-rule="evenodd" class="s3" d="m42 6c8.35-0.07 8.27 2.57 16.08 4.06c0.19 0.43 0.38 0.86 0.56 1.3c-0.99 0.69-1.97 1.37-2.96 2.06c-1.67-0.3-4.56-1.97-9.68-2.41c-36.29 3.16-24.05 39.01-35 50c0.55-15.77 1.12-30.66 8-40c6.63-7.56 16-11 23-15z" />
	<path id="norse-wealth" fill-rule="evenodd" class="s4" d="m47 22.88c2.07 0.22 1.01-2.63 3.37 0.94c0.56 3.74 0.28 4.68 0.84 8.42c3.37-2.81 5.6-5.7 8.08-9.48c0.62 0.11 1.24 0.23 1.86 0.34c0.08 0.3 0.17 0.6 0.25 0.89c-3.08 6.37-6.09 9.39-10.19 13.86c0.28 4.99-0.28 7.17 0 12.16c7.25-9.24 14.06-19.56 21.09-27.13c0.93 0.21 1.69 1.56 1.69 2.81c-6.21 9.52-14.76 18.47-20.37 29.33c-0.33 0.64-2.13 2.31-1.88 4.66c0.5 4.78-0.1 12.3 1.16 19.32c-1.12 0-2.25 0-3.37 0c0-0.62 0-1.25 0-1.87c-0.84-19.33-1.69-34.92-2.53-54.25z" />
</svg>