<svg version="1.2" baseProfile="tiny-ps" xmlns="http://www.w3.org/2000/svg" viewBox="0 0 350 480" width="350" height="480">
	<title>fire</title>
	<style>
		tspan { white-space:pre }
		.s0 { fill: #895313 } 
		.s1 { fill: #ee611b } 
	</style>
	<path id="bg" class="s0" d="m0 0h350v480h-350v-480z" />
	<path id="fire" fill-rule="evenodd" class="s1" d="m169.76 33.26c26.33 15.26 93.73 88.08 96.5 139.37c1.55 28.7-5.52 53.74-8.29 79.05c1.61-0.44 3.21-0.89 4.82-1.33c16.23-9.53 31.56-18.84 33.58-36.23c0.32-0.09 0.64-0.18 0.96-0.27c21.39 75.39 44.59 125.86-18.35 155.46c-28.34 13.33-54.62-5.04-85.3 14.17c-6.64 9.78-13.28 19.57-19.92 29.35c-19.85-30.08-28.31-20.53-58.93-29.4c4.44-0.19 8.89-0.37 13.33-0.56c-11.24-6.81-74.62-42.83-59.32-75.97c0.18 0.64 0.35 1.29 0.53 1.93c7.88 5.58 14.53 10.8 23.63 14.23c0.55-0.5 1.11-1 1.66-1.5c-16.45-54.6-62.79-60.4-19.25-115.02c0.32-0.09 0.64-0.18 0.96-0.27c3.32 13.64 11.42 27 20.17 31.78c0.32-0.09 0.64-0.18 0.96-0.27c-14.59-67.82 14.47-101.09 48.3-140.9c0.32-0.09 0.64-0.18 0.96-0.27c7.77 30.78 20.51 38.47 33.83 54.99c1.48-1.85 0.55-0.26 1.4-2.46c18.43-28.61-0.02-76.28-12.24-115.91zm-57.12 349.75c0.64-0.18 1.29-0.35 1.93-0.53c-0.64 0.18-1.29 0.35-1.93 0.53z" />
</svg>