<svg version="1.2" baseProfile="tiny-ps" xmlns="http://www.w3.org/2000/svg" viewBox="0 0 350 300" width="350" height="300">
	<title>bg1.svg by Dan N</title>
	<style>
		tspan { white-space:pre }
		.s0 { opacity: .2;fill: #f4cfa4 } 
		.s1 { opacity: .2;fill: none;stroke: #fbaf5d;stroke-width: 4.7 } 
	</style>
	<path id="stars" class="s0" d="m131 120.13l-4.32 4.55l1.02 6.43c0.01 0.06 0.01 0.15 0.01 0.26c0 0.18-0.04 0.33-0.13 0.46c-0.08 0.12-0.2 0.19-0.36 0.19c-0.15 0-0.31-0.05-0.48-0.15l-5.35-3.03l-5.35 3.03c-0.17 0.1-0.33 0.15-0.48 0.15c-0.17 0-0.29-0.06-0.37-0.19c-0.08-0.12-0.13-0.28-0.13-0.46c0-0.05 0.01-0.14 0.02-0.26l1.02-6.43l-4.33-4.55c-0.2-0.23-0.3-0.44-0.3-0.62c0-0.32 0.22-0.51 0.67-0.59l5.98-0.94l2.68-5.85c0.15-0.35 0.35-0.53 0.58-0.53c0.24 0 0.43 0.18 0.58 0.53l2.68 5.85l5.98 0.94c0.44 0.08 0.67 0.27 0.67 0.59c0 0.19-0.1 0.39-0.31 0.62zm-19.8-52.8l-4.32 4.55l1.02 6.43c0.01 0.06 0.01 0.15 0.01 0.26c0 0.18-0.04 0.33-0.13 0.46c-0.08 0.12-0.2 0.19-0.36 0.19c-0.15 0-0.31-0.05-0.48-0.15l-5.35-3.03l-5.35 3.03c-0.17 0.1-0.33 0.15-0.48 0.15c-0.17 0-0.29-0.06-0.37-0.19c-0.08-0.12-0.13-0.28-0.13-0.46c0-0.05 0.01-0.14 0.02-0.26l1.02-6.43l-4.33-4.55c-0.2-0.23-0.3-0.44-0.3-0.62c0-0.32 0.22-0.51 0.67-0.59l5.98-0.94l2.68-5.85c0.15-0.35 0.35-0.53 0.58-0.53c0.24 0 0.43 0.18 0.58 0.53l2.68 5.85l5.98 0.94c0.44 0.08 0.67 0.27 0.67 0.59c0 0.19-0.1 0.39-0.31 0.62zm-34.8 162l-4.32 4.55l1.02 6.43c0.01 0.06 0.01 0.15 0.01 0.26c0 0.18-0.04 0.33-0.13 0.46c-0.08 0.12-0.2 0.19-0.36 0.19c-0.15 0-0.31-0.05-0.48-0.15l-5.35-3.03l-5.35 3.03c-0.17 0.1-0.33 0.15-0.48 0.15c-0.17 0-0.29-0.06-0.38-0.19c-0.08-0.12-0.13-0.28-0.13-0.46c0-0.05 0.01-0.14 0.02-0.26l1.02-6.43l-4.33-4.55c-0.2-0.23-0.3-0.44-0.3-0.62c0-0.32 0.22-0.51 0.67-0.59l5.98-0.94l2.68-5.85c0.15-0.35 0.35-0.53 0.58-0.53c0.24 0 0.43 0.18 0.58 0.53l2.68 5.85l5.98 0.94c0.44 0.08 0.67 0.27 0.67 0.59c0 0.19-0.1 0.39-0.31 0.62zm0-196.8l-4.32 4.55l1.02 6.43c0.01 0.06 0.01 0.15 0.01 0.26c0 0.18-0.04 0.33-0.13 0.46c-0.08 0.12-0.2 0.19-0.36 0.19c-0.15 0-0.31-0.05-0.48-0.15l-5.35-3.03l-5.35 3.03c-0.17 0.1-0.33 0.15-0.48 0.15c-0.17 0-0.29-0.06-0.38-0.19c-0.08-0.12-0.13-0.28-0.13-0.46c0-0.05 0.01-0.14 0.02-0.26l1.02-6.43l-4.33-4.55c-0.2-0.23-0.3-0.44-0.3-0.62c0-0.32 0.22-0.51 0.67-0.59l5.98-0.94l2.68-5.85c0.15-0.35 0.35-0.53 0.58-0.53c0.24 0 0.43 0.18 0.58 0.53l2.68 5.85l5.98 0.94c0.44 0.08 0.67 0.27 0.67 0.59c0 0.19-0.1 0.39-0.31 0.62zm-34.2-20.4l-4.32 4.55l1.02 6.43c0.01 0.06 0.01 0.15 0.01 0.26c0 0.18-0.04 0.33-0.13 0.46c-0.08 0.12-0.2 0.19-0.36 0.19c-0.15 0-0.31-0.05-0.48-0.15l-5.35-3.03l-5.35 3.03c-0.17 0.1-0.33 0.15-0.48 0.15c-0.17 0-0.29-0.06-0.38-0.19c-0.08-0.12-0.12-0.28-0.12-0.46c0-0.05 0.01-0.14 0.02-0.26l1.02-6.43l-4.33-4.55c-0.2-0.23-0.3-0.44-0.3-0.62c0-0.32 0.22-0.51 0.67-0.59l5.98-0.94l2.68-5.85c0.15-0.35 0.35-0.53 0.58-0.53c0.24 0 0.43 0.18 0.58 0.53l2.68 5.85l5.98 0.94c0.44 0.08 0.67 0.27 0.67 0.59c0 0.19-0.1 0.39-0.31 0.62zm-16.53 237.85l5.98 0.94c0.44 0.08 0.67 0.27 0.67 0.59c0 0.19-0.1 0.39-0.31 0.62l-4.32 4.55l1.02 6.43c0.01 0.06 0.01 0.15 0.01 0.26c0 0.18-0.04 0.33-0.13 0.46c-0.08 0.12-0.2 0.19-0.36 0.19c-0.15 0-0.31-0.05-0.48-0.15l-5.35-3.03l-5.35 3.03c-0.17 0.1-0.33 0.15-0.48 0.15c-0.17 0-0.29-0.06-0.38-0.19c-0.08-0.12-0.12-0.28-0.12-0.46c0-0.05 0.01-0.14 0.02-0.26l1.02-6.43l-4.33-4.55c-0.2-0.23-0.3-0.44-0.3-0.62c0-0.32 0.22-0.51 0.67-0.59l5.98-0.94l2.68-5.85c0.15-0.35 0.35-0.53 0.58-0.53c0.24 0 0.43 0.18 0.58 0.53l2.68 5.85zm72.1-72.26l5.98-0.94l2.68-5.85c0.15-0.35 0.35-0.53 0.58-0.53c0.24 0 0.43 0.18 0.58 0.53l2.68 5.85l5.98 0.94c0.44 0.08 0.67 0.27 0.67 0.59c0 0.19-0.1 0.39-0.31 0.62l-4.32 4.55l1.02 6.43c0.01 0.06 0.01 0.15 0.01 0.26c0 0.18-0.04 0.33-0.13 0.46c-0.08 0.12-0.2 0.19-0.36 0.19c-0.15 0-0.31-0.05-0.48-0.15l-5.35-3.03l-5.35 3.03c-0.17 0.1-0.33 0.15-0.48 0.15c-0.17 0-0.29-0.06-0.38-0.19c-0.08-0.12-0.13-0.28-0.13-0.46c0-0.05 0.01-0.14 0.02-0.26l1.02-6.43l-4.33-4.55c-0.2-0.23-0.3-0.44-0.3-0.62c0-0.32 0.22-0.51 0.67-0.59z" />
	<path id="starsr" class="s0" d="m229.69 151.91c0-0.32 0.22-0.51 0.67-0.59l5.98-0.94l2.68-5.85c0.15-0.35 0.35-0.53 0.58-0.53c0.24 0 0.43 0.18 0.58 0.53l2.68 5.85l5.98 0.94c0.44 0.08 0.67 0.27 0.67 0.59c0 0.18-0.1 0.39-0.3 0.62l-4.33 4.55l1.02 6.43c0.02 0.12 0.02 0.21 0.02 0.26c0 0.18-0.04 0.33-0.13 0.46c-0.08 0.12-0.21 0.19-0.37 0.19c-0.14 0-0.3-0.05-0.48-0.15l-5.35-3.03l-5.35 3.03c-0.17 0.1-0.33 0.15-0.48 0.15c-0.16 0-0.28-0.06-0.36-0.19c-0.08-0.12-0.12-0.28-0.12-0.46c0-0.11 0-0.2 0.01-0.26l1.02-6.43l-4.32-4.55c-0.21-0.22-0.31-0.43-0.31-0.62zm20.11-52.18l4.32 4.55l-1.02 6.43c-0.01 0.06-0.01 0.15-0.01 0.26c0 0.18 0.04 0.33 0.13 0.46c0.08 0.12 0.2 0.19 0.36 0.19c0.15 0 0.31-0.05 0.48-0.15l5.35-3.03l5.35 3.03c0.17 0.1 0.33 0.15 0.48 0.15c0.17 0 0.29-0.06 0.37-0.19c0.08-0.12 0.13-0.28 0.13-0.46c0-0.05-0.01-0.14-0.02-0.26l-1.02-6.43l4.33-4.55c0.2-0.23 0.3-0.44 0.3-0.62c0-0.32-0.22-0.51-0.67-0.59l-5.98-0.94l-2.68-5.85c-0.15-0.35-0.35-0.53-0.58-0.53c-0.24 0-0.43 0.18-0.58 0.53l-2.68 5.85l-5.98 0.94c-0.44 0.08-0.67 0.27-0.67 0.59c0 0.19 0.1 0.39 0.31 0.62zm34.8 162l4.32 4.55l-1.02 6.43c-0.01 0.06-0.01 0.15-0.01 0.26c0 0.18 0.04 0.33 0.13 0.46c0.08 0.12 0.2 0.19 0.36 0.19c0.15 0 0.31-0.05 0.48-0.15l5.35-3.03l5.35 3.03c0.17 0.1 0.33 0.15 0.48 0.15c0.17 0 0.29-0.06 0.38-0.19c0.08-0.12 0.13-0.28 0.13-0.46c0-0.05-0.01-0.14-0.02-0.26l-1.02-6.43l4.33-4.55c0.2-0.23 0.3-0.44 0.3-0.62c0-0.32-0.22-0.51-0.67-0.59l-5.98-0.94l-2.68-5.85c-0.15-0.35-0.35-0.53-0.58-0.53c-0.24 0-0.43 0.18-0.58 0.53l-2.68 5.85l-5.98 0.94c-0.44 0.08-0.67 0.27-0.67 0.59c0 0.19 0.1 0.39 0.31 0.62zm0-196.8l4.32 4.55l-1.02 6.43c-0.01 0.06-0.01 0.15-0.01 0.26c0 0.18 0.04 0.33 0.13 0.46c0.08 0.12 0.2 0.19 0.36 0.19c0.15 0 0.31-0.05 0.48-0.15l5.35-3.03l5.35 3.03c0.17 0.1 0.33 0.15 0.48 0.15c0.17 0 0.29-0.06 0.38-0.19c0.08-0.12 0.13-0.28 0.13-0.46c0-0.05-0.01-0.14-0.02-0.26l-1.02-6.43l4.33-4.55c0.2-0.23 0.3-0.44 0.3-0.62c0-0.32-0.22-0.51-0.67-0.59l-5.98-0.94l-2.68-5.85c-0.15-0.35-0.35-0.53-0.58-0.53c-0.24 0-0.43 0.18-0.58 0.53l-2.68 5.85l-5.98 0.94c-0.44 0.08-0.67 0.27-0.67 0.59c0 0.19 0.1 0.39 0.31 0.62zm34.2-20.4l4.32 4.55l-1.02 6.43c-0.01 0.06-0.01 0.15-0.01 0.26c0 0.18 0.04 0.33 0.13 0.46c0.08 0.12 0.2 0.19 0.36 0.19c0.15 0 0.31-0.05 0.48-0.15l5.35-3.03l5.35 3.03c0.17 0.1 0.33 0.15 0.48 0.15c0.17 0 0.29-0.06 0.38-0.19c0.08-0.12 0.12-0.28 0.12-0.46c0-0.05-0.01-0.14-0.02-0.26l-1.02-6.43l4.33-4.55c0.2-0.23 0.3-0.44 0.3-0.62c0-0.32-0.22-0.51-0.67-0.59l-5.98-0.94l-2.68-5.85c-0.15-0.35-0.35-0.53-0.58-0.53c-0.24 0-0.43 0.18-0.58 0.53l-2.68 5.85l-5.98 0.94c-0.44 0.08-0.67 0.27-0.67 0.59c0 0.19 0.1 0.39 0.31 0.62zm16.53 237.85l-5.98 0.94c-0.44 0.08-0.67 0.27-0.67 0.59c0 0.19 0.1 0.39 0.31 0.62l4.32 4.55l-1.02 6.43c-0.01 0.06-0.01 0.15-0.01 0.26c0 0.18 0.04 0.33 0.13 0.46c0.08 0.12 0.2 0.19 0.36 0.19c0.15 0 0.31-0.05 0.48-0.15l5.35-3.03l5.35 3.03c0.17 0.1 0.33 0.15 0.48 0.15c0.17 0 0.29-0.06 0.38-0.19c0.08-0.12 0.12-0.28 0.12-0.46c0-0.05-0.01-0.14-0.02-0.26l-1.02-6.43l4.33-4.55c0.2-0.23 0.3-0.44 0.3-0.62c0-0.32-0.22-0.51-0.67-0.59l-5.98-0.94l-2.68-5.85c-0.15-0.35-0.35-0.53-0.58-0.53c-0.24 0-0.43 0.18-0.58 0.53l-2.68 5.85zm-72.1-72.26l-5.98-0.94l-2.68-5.85c-0.15-0.35-0.35-0.53-0.58-0.53c-0.24 0-0.43 0.18-0.58 0.53l-2.68 5.85l-5.98 0.94c-0.44 0.08-0.67 0.27-0.67 0.59c0 0.19 0.1 0.39 0.31 0.62l4.32 4.55l-1.02 6.43c-0.01 0.06-0.01 0.15-0.01 0.26c0 0.18 0.04 0.33 0.13 0.46c0.08 0.12 0.2 0.19 0.36 0.19c0.15 0 0.31-0.05 0.48-0.15l5.35-3.03l5.35 3.03c0.17 0.1 0.33 0.15 0.48 0.15c0.17 0 0.29-0.06 0.38-0.19c0.08-0.12 0.13-0.28 0.13-0.46c0-0.05-0.01-0.14-0.02-0.26l-1.02-6.43l4.33-4.55c0.2-0.23 0.3-0.44 0.3-0.62c0-0.32-0.22-0.51-0.67-0.59z" />
	<path id="goodess" class="s1" d="m214.33 15.86c-0.11 0.6-0.47 0.94-1.08 1.04c-1.56 0.22-2.99 0.73-4.29 1.55c-1.3 0.81-2.39 1.86-3.26 3.15c-1.13 1.66-1.76 3.47-1.88 5.43c-0.13 1.96 0.23 3.83 1.08 5.6c0.85 1.77 2.11 3.23 3.78 4.36c1.33 0.9 2.81 1.49 4.43 1.76c0.6 0.11 0.95 0.46 1.07 1.04c0.05 0.26 0.02 0.52-0.09 0.77c-0.11 0.25-0.28 0.45-0.51 0.59c-2.6 1.56-5.44 2.29-8.5 2.21c-3.06-0.09-5.85-0.99-8.37-2.7c-1.76-1.19-3.2-2.67-4.34-4.44c-0.85-1.33-1.49-2.71-1.92-4.14c-1.92 6.44-7.88 11.13-14.95 11.13c-7.12 0-13.11-4.77-14.99-11.28c-0.54 1.84-1.43 3.58-2.68 5.2c-1.28 1.67-2.85 3.02-4.7 4.06c-2.66 1.49-5.52 2.15-8.57 1.98c-3.06-0.17-5.81-1.15-8.28-2.92c-0.21-0.16-0.37-0.37-0.46-0.63c-0.09-0.26-0.1-0.52-0.03-0.78c0.16-0.57 0.55-0.89 1.15-0.95c1.64-0.13 3.17-0.59 4.57-1.37c1.76-0.99 3.14-2.33 4.14-4.02c1-1.7 1.52-3.53 1.56-5.49c0.04-1.96-0.43-3.82-1.42-5.57c-0.76-1.36-1.76-2.5-2.98-3.42c-1.23-0.92-2.61-1.56-4.15-1.9c-0.6-0.15-0.93-0.52-0.98-1.13c-0.07-0.6 0.16-1.03 0.7-1.3c1.86-0.95 3.81-1.51 5.85-1.68c2.04-0.17 3.98 0.01 5.83 0.56c1.85 0.55 3.57 1.46 5.18 2.72c1.61 1.27 2.92 2.8 3.93 4.61c0.6 1.06 1.04 2.17 1.37 3.31c1.9-6.47 7.88-11.2 14.97-11.2c7.09 0 13.08 4.74 14.97 11.22c0.44-1.52 1.12-2.95 2.03-4.29c1.16-1.72 2.6-3.14 4.31-4.26c1.71-1.12 3.51-1.88 5.39-2.27c1.89-0.39 3.84-0.41 5.86-0.07c2.02 0.35 3.91 1.07 5.68 2.17c0.51 0.31 0.71 0.77 0.59 1.36zm-55.88 10.22c-0.18-1.74-0.7-3.38-1.56-4.92c-1.43-2.54-3.46-4.39-6.09-5.53c-2.63-1.15-5.34-1.41-8.13-0.78c2.33 1.26 4.13 3.02 5.4 5.29c1.21 2.15 1.79 4.44 1.75 6.88c-0.04 2.43-0.68 4.7-1.92 6.79c-1.24 2.1-2.94 3.75-5.11 4.96c-0.66 0.37-1.35 0.69-2.05 0.94c1.81 0.69 3.69 0.97 5.63 0.84c1.95-0.14 3.77-0.68 5.48-1.64c1.54-0.87 2.85-2 3.92-3.39c1.07-1.39 1.83-2.88 2.27-4.46c0.45-1.58 0.58-3.24 0.4-4.98zm42.75-10.68c-2.72 0.92-4.9 2.59-6.54 5c-0.99 1.46-1.65 3.05-1.98 4.77c-0.33 1.72-0.34 3.38-0.02 5c0.31 1.61 0.94 3.16 1.89 4.64c0.95 1.48 2.15 2.71 3.62 3.71c1.62 1.1 3.4 1.8 5.32 2.1c1.93 0.3 3.82 0.18 5.68-0.36c-0.68-0.31-1.33-0.68-1.96-1.11c-2.05-1.39-3.61-3.18-4.67-5.38c-1.06-2.19-1.51-4.51-1.34-6.93c0.17-2.43 0.94-4.66 2.33-6.7c1.46-2.15 3.41-3.76 5.83-4.81c-2.72-0.86-5.44-0.84-8.17 0.08z" />
</svg>