<svg version="1.2" baseProfile="tiny-ps" xmlns="http://www.w3.org/2000/svg" viewBox="0 0 350 500" width="350" height="500">
	<title>fbg14.svg / Celtic Symbol Mid Dan N</title>
<defs>
   <linearGradient id="gold" x1="0%" y1="8%" x2="100%" y2="92%" >
    
          <stop offset="0%" style="stop-color:rgb(167,137,66);stop-opacity:1.00" />
          <stop offset="43%" style="stop-color:rgb(252,216,130);stop-opacity:1.00" />
          <stop offset="47%" style="stop-color:rgb(255,229,168);stop-opacity:1.00" />
          <stop offset="100%" style="stop-color:rgb(167,137,66);stop-opacity:1.00" />

    </linearGradient>
<filter id="shadow2">
      <feDropShadow dx="0" dy="0" stdDeviation="5"
          flood-color="#e528fa"/>
    </filter>
  </defs>
	<style>
		tspan { white-space:pre }
		.s0 { fill: none;stroke: #a78942;stroke-width: 2 }
                .s1 { fill: #1d6069;stroke: #a78942;stroke-width: 0 }
#k2a{fill:#81198c;}
.dogold{stroke: url(#gold);stroke-width: 2} 
	</style>
<path id="k2a" class="s1" style="filter:url(#shadow2);" d="m101.51 98.49c16.1-7.9 32.5-11.85 49.21-11.85h0.68c29.01 0 51.64 10.71 67.89 32.12c6.68 12 10.02 19.59 10.02 22.78c-13.52-6.83-22.1-10.25-25.74-10.25c-2.43 0-5.09-1.67-7.97-5.01c-7.75-6.23-15.11-10.93-22.1-14.12c-8.2-3.19-14.89-5.39-20.05-6.61v0.46c-3.95-1.37-9.04-2.05-15.26-2.05c-15.34 0-31.36 5.32-48.07 15.95c-10.48 9.42-15.72 17.47-15.72 24.15c0.61 2.73 1.97 4.1 4.1 4.1h1.59c4.71 0 8.88-3.79 12.53-11.39h0.23c2.88 2.58 4.33 5.92 4.33 10.02c0 7.9-5.01 13.9-15.04 18c-2.43 0.61-4.56 0.91-6.38 0.91c-9.42-1.52-14.12-6.23-14.12-14.12v-2.51c0-7.75 4.78-18 14.35-30.75c8.2-8.66 16.71-15.26 25.51-19.82v0zm77.46-9.34v0.68c9.42 2.13 18.6 6.91 27.57 14.35c4.56-0.15 7.14-0.23 7.75-0.23c1.97 0 4.02 0.08 6.15 0.23c17.92 2.58 32.73 8.58 44.42 18c8.81 9.11 13.21 16.17 13.21 21.19c-0.31 3.19-1.59 4.78-3.87 4.78h-2.28c-4.25 0-8.43-3.79-12.53-11.39c-2.73 3.19-4.1 6.53-4.1 10.02c0.15 2.28 0.46 3.95 0.91 5.01c4.25 9.27 11.08 13.9 20.5 13.9h1.59c8.35-1.97 12.53-6.83 12.53-14.58v-2.05c0-7.59-4.86-17.84-14.58-30.75c-20.35-21.11-45.11-31.67-74.27-31.67h-0.23c-7.14 0-14.73 0.84-22.78 2.51v0zm-41.92 24.15c-12.61 17.47-18.91 36.53-18.91 57.18c0 12.45 1.37 24.23 4.1 35.31c-0.31 0.46-3.72 1.75-10.25 3.87c-10.48 4.1-19.67 8.66-27.57 13.67c-1.67 0-2.51 7.14-2.51 21.41l0.23 0.68h-0.23c0.15 0.91 0.23 1.75 0.23 2.51h0.46c0.91-0.61 1.74-1.52 2.51-2.73c7.14-7.14 13.52-12.45 19.14-15.95c11.39-6.53 24.68-12.3 39.87-17.31c0-0.76-0.15-1.29-0.46-1.59l0.68-8.66c-0.15 0-0.23-0.15-0.23-0.46c-6.53 1.22-10.56 2.05-12.07 2.51h-0.68v-0.46c0.15 0 1.06-0.07 2.73-0.23l-0.68-10.48c0-20.35 2.28-34.93 6.83-43.74c2.58-7.59 8.58-15.57 18-23.92c3.65-2.73 8.96-6.3 15.95-10.71v-0.23c-14.58-5.77-24.15-8.66-28.7-8.66c-4.41 4.1-7.22 6.76-8.43 7.97v0zm17.77 16.4c-5.62 5.77-9.8 11.7-12.53 17.77v0.23h0.46c10.33-3.65 19.97-5.47 28.93-5.47h5.47c22.33 0 43.21 8.51 62.65 25.51c9.87 10.48 16.17 18.68 18.91 24.6c6.53 14.12 9.8 24.38 9.8 30.75c0 0.31 5.01 4.86 15.04 13.67h0.46c0-25.51-8.66-48.83-25.97-69.94c-23.39-25.82-50.88-38.73-82.47-38.73h-3.87c-5.77 0-11.39 0.53-16.86 1.59v0zm-69.03 1.14c-6.68 2.58-10.02 6.53-10.02 11.85c0 2.89 1.21 4.33 3.65 4.33c1.06 0 1.97-0.23 2.73-0.68c5.62-3.04 8.43-6.68 8.43-10.94c0-3.04-1.37-4.56-4.1-4.56h-0.68zm176.1 3.87v1.37c2.43 7.29 6 10.94 10.71 10.94h0.68c1.82 0 2.96-1.21 3.42-3.65c0-5.92-3.5-10.1-10.48-12.53c-2.89 0.46-4.33 1.75-4.33 3.87v0zm-228.72 15.49h-4.33l-1.14 0.68c3.65 5.77 5.47 10.71 5.47 14.81v1.82c0 4.25-0.76 9.42-2.28 15.49c0 0.46 0.23 0.68 0.68 0.68c5.47-6.98 12.45-10.48 20.96-10.48c3.04 0 5.92 0.61 8.66 1.82h1.14c1.97 0 3.34-1.59 4.1-4.78v-1.82c-6.99-6.38-10.48-12.6-10.48-18.68c0-3.04 0.68-7.06 2.05-12.07c0-0.3-0.23-0.53-0.68-0.68c-7.44 8.81-15.49 13.21-24.15 13.21v0zm264.26-12.76c1.37 4.71 2.05 8.35 2.05 10.94v2.05c0 3.65-1.75 7.97-5.24 12.99c-3.5 3.04-5.24 5.16-5.24 6.38c1.21 3.5 2.43 5.24 3.65 5.24h2.05c2.73-1.21 5.47-1.82 8.2-1.82h0.46c8.2 0 14.96 3.34 20.28 10.02h0.68l0.68-0.23c-1.82-6.23-2.73-11.39-2.73-15.49c0-3.19 0.61-6.3 1.82-9.34c2.43-4.4 3.65-6.83 3.65-7.29c0-0.46-0.23-0.68-0.68-0.68h-5.47c-8.05 0-15.8-4.4-23.24-13.21h-0.23l-0.68 0.46zm-125.75 8.66c-6.08 4.86-12.15 13.82-18.22 26.88c-5.77 12.76-8.66 25.74-8.66 38.96c0 1.52 0.07 3.87 0.23 7.06h0.46c0.91 0 5.24-1.29 12.99-3.87c0-3.19 1.44-9.49 4.33-18.91c4.4-10.48 8.5-16.4 12.3-17.77h1.14c5.62 4.41 9.72 10.56 12.3 18.45c0 1.06 5.47 1.82 16.4 2.28c0-0.15 0.07-0.23 0.23-0.23c-0.76-10.02-5.47-22.86-14.12-38.5c-5.62-9.42-10.79-14.81-15.49-16.17c-0.76 0.31-2.05 0.91-3.87 1.82v0zm-64.24 7.97c-27.34 22.93-41.01 51.11-41.01 84.52c0 1.06 0.23 5.24 0.68 12.53h-0.68c-0.31-3.49-0.46-6.07-0.46-7.75v-3.42l-0.23-0.68c-14.12 14.58-21.19 31.29-21.19 50.12v1.37c0 10.02 1.97 19.82 5.92 29.39h-0.46c0 0.46 0.3 0.68 0.91 0.68c1.67 6.68 6.83 15.8 15.49 27.34c20.96 24.6 43.97 36.91 69.03 36.91h0.68c4.56 0 8.58-0.46 12.07-1.37c11.54-2.58 17.31-7.9 17.31-15.95l-0.46-3.42c-4.41-9.87-11.16-14.81-20.28-14.81c-6.99 0-12.07 3.42-15.26 10.25l0.68 0.46h2.73c7.75 0 12.45 2.58 14.12 7.75v1.37c0 3.5-4.1 5.24-12.3 5.24c-16.56 0-33.49-9.8-50.8-29.39c-10.63-14.88-15.95-31.67-15.95-50.35v-3.87c0-6.53 0.91-13.29 2.73-20.28c-2.73-8.2-4.1-14.5-4.1-18.91v-0.46h0.68c0.3 7.14 3.11 17.62 8.43 31.44c4.71 10.18 9.72 18.38 15.04 24.6c0 3.19 6.68 4.78 20.05 4.78h2.73c0.46 0 0.68-0.23 0.68-0.68c-8.2-7.44-13.82-13.59-16.86-18.45c-10.79-17.77-16.17-33.41-16.17-46.93l-0.46-0.68h0.46l-0.46-1.59v-3.87c0-30.68 12.22-55.89 36.68-75.63v-2.51c0-3.49 0.83-8.66 2.51-15.49c-0.31 0-0.46-0.07-0.46-0.23c-2.89 1.52-6.91 4.18-12.07 7.97v0zm105.93-2.28c3.49 9.87 5.24 18.91 5.24 27.11v5.92c0 13.06-1.59 25.59-4.78 37.59v0.23c3.04 1.67 6 3.65 8.88 5.92h0.46c7.29-17.92 10.93-37.51 10.93-58.78v-4.1c0-2.13-6.76-6.83-20.28-14.12c0 0.15-0.15 0.23-0.46 0.23v0zm-171.77 30.53c-15.95 13.97-23.92 32.8-23.92 56.5c0 15.04 3.79 30.75 11.39 47.16c4.4 8.51 9.95 16.17 16.63 23.01h0.23c-1.06-3.65-1.82-9.64-2.28-18c0-1.21 0.3-5.77 0.91-13.67c-0.76-1.21-1.22-1.82-1.37-1.82c-8.51-13.97-12.76-29.01-12.76-45.11v-2.96c0-3.79 0.46-7.44 1.37-10.94c4.4-13.82 9.03-20.73 13.9-20.73h0.23c3.49 0.91 5.24 3.42 5.24 7.52c0 3.64-1.52 7.82-4.56 12.53c1.06 0.46 1.74 0.68 2.05 0.68c10.17 0 15.95-6 17.31-18v-0.68c0-10.63-4.78-16.86-14.35-18.68c-3.5 0.31-6.83 1.37-10.02 3.19v0zm254.01-1.37c0-0.3-0.08-0.46-0.23-0.46c-7.6 3.34-11.39 9.49-11.39 18.45c0 1.37 0.23 3.04 0.68 5.01c2.88 9.11 8.12 13.67 15.72 13.67c1.37-0.3 2.35-0.46 2.96-0.46v-0.68c-2.89-4.1-4.33-7.67-4.33-10.71v-1.82c0-4.25 1.67-6.61 5.01-7.06h0.91c1.06 0 2.2 0.53 3.42 1.59c7.59 8.66 11.39 19.14 11.39 31.44c0 16.71-4.48 32.5-13.44 47.38c-13.67 17.62-29.31 29.01-46.93 34.17c-1.06 0-4.86 3.34-11.39 10.02l-17.54 12.3v0.46c4.71 0.61 9.64 1.06 14.81 1.37c22.63 0 41.54-7.52 56.73-22.55c20.2-22.17 30.3-46.62 30.3-73.36c0-11.54-2.2-22.63-6.61-33.26c-8.51-17.46-17.39-26.2-26.65-26.2l-3.42 0.68zm-258.34 28.25c0 3.95 1.29 5.92 3.87 5.92h1.14l2.28-0.68c3.49-3.34 5.24-6.91 5.24-10.71v-1.37c-0.46-3.49-1.82-5.24-4.1-5.24c-5.62 1.98-8.43 6-8.43 12.07v0zm262.9-5.47c1.21 8.2 3.87 12.3 7.97 12.3h0.68c2.13 0 3.42-1.67 3.87-5.01v-1.14c0-6.07-2.81-9.95-8.43-11.62c-2.28 0-3.64 1.82-4.1 5.47v0zm-136-4.1c-1.52 0-2.58 2.96-3.19 8.88c0 0.76 0.23 1.14 0.68 1.14h13.44c15.64 0 28.7 1.37 39.18 4.1c0.76 0 1.52-3.57 2.28-10.71v-0.46c-12.15-2.73-25.14-4.1-38.96-4.1c-6.38 0.31-10.86 0.68-13.44 1.14v0zm-33.26 4.1v0.23h-0.91v-0.23h0.91zm-1.37 0.23v0.46h-0.91v-0.46h0.91zm-1.37 0.46v0.23h-0.68v-0.23h0.68zm103.65 2.51l-3.87 12.76v0.23c3.49 1.37 9.72 5.16 18.68 11.39c23.54 14.43 35.31 34.71 35.31 60.83v5.47l0.23 0.68c4.4-1.97 11.77-8.66 22.1-20.05c0-3.95-2.2-10.48-6.61-19.59c-4.1-8.5-12.15-18.07-24.15-28.7c-19.9-13.82-33.72-21.49-41.46-23.01h-0.23zm-40.1 4.33c0.46 3.65 0.68 7.14 0.68 10.48v1.59c0 1.37-0.23 3.11-0.68 5.24c-1.67 8.35-6.76 17.24-15.26 26.65c3.34 2.73 6.45 4.78 9.34 6.15c13.82-13.21 20.73-29.23 20.73-48.07v-0.23c-2.73-0.76-7.52-1.44-14.35-2.05c0 0.15-0.15 0.23-0.46 0.23v0zm-51.49 11.39c0.61 2.89 2.2 7.06 4.78 12.53c10.93-6.53 21.19-9.8 30.75-9.8h3.19c1.67 0 5.47 0.68 11.39 2.05c0.61 0 0.91-1.59 0.91-4.78v-5.01c-0.91-1.52-6.76-2.51-17.54-2.96h-0.68c-11.7 0-22.63 2.66-32.8 7.97v0zm-14.12-2.96c2.28 6.23 3.42 9.57 3.42 10.02c5.92 13.37 12.83 25.97 20.73 37.82c1.06 0 4.33-1.14 9.8-3.42c-12.91-20.5-20.66-36.75-23.24-48.75c-5.77 2.13-9.34 3.57-10.71 4.33v0zm78.14 14.81c15.19 12.76 22.78 23.24 22.78 31.44v1.37c-2.13 1.98-6.38 2.96-12.76 2.96h-2.96c-2.28 0-5.16-0.23-8.66-0.68c-0.15 0.15-3.11 4.41-8.88 12.76c10.63 4.86 23.61 7.29 38.96 7.29h3.87c13.36-0.76 20.05-3.04 20.05-6.83v-1.82c0-3.49-1.52-8.28-4.56-14.35c-5.47-10.78-13.59-21.64-24.38-32.58c-8.81-6.98-15.49-11.24-20.05-12.76c-1.22 5.01-2.36 9.42-3.42 13.21v0zm-55.59 0c1.37 6.68 5.7 14.96 12.99 24.83c7.44 8.35 13.74 13.97 18.91 16.86c4.4-4.25 7.67-8.05 9.8-11.39v-0.23c-7.29-2.73-14.2-7.36-20.73-13.9c-6.23-6.68-9.8-13.67-10.71-20.96c-1.06 0-4.48 1.59-10.25 4.78v0zm-37.36 11.62c-12.3 16.4-18.45 28.25-18.45 35.54c0 0.91 0.15 1.98 0.46 3.19c2.73 3.65 10.48 5.47 23.24 5.47h0.68c23.39 0 42.37-5.62 56.95-16.86l-9.8-9.57h-0.23c-11.54 4.71-21.04 7.06-28.48 7.06c-6.99 0-11.24-1.14-12.76-3.42c0-6.23 4.02-13.9 12.07-23.01c-3.65-8.05-5.7-12.76-6.15-14.12h-0.91c-2.13 0.61-7.67 5.85-16.63 15.72v0zm91.35 0c-4.41 10.94-12.91 23.01-25.51 36.22c5.01 5.32 7.67 7.97 7.97 7.97h1.14c6.23-7.59 11.39-14.73 15.49-21.41c8.2-13.21 12.45-21.03 12.76-23.46l-7.29-6.83c-0.31 0-1.82 2.51-4.56 7.52v0zm64.93 13.21c-1.67 10.94-7.29 23.16-16.86 36.68c-20.81 24.3-46.02 36.45-75.63 36.45c-11.54 0-23.01-2.28-34.4-6.83c-6.68 3.19-12.45 5.39-17.31 6.61v0.68c16.71 9.42 34.09 14.12 52.17 14.12c36.3 0 66.29-15.87 89.99-47.61c7.29-11.85 11.54-20.35 12.76-25.52c-1.22-6.23-4.25-12.83-9.11-19.82h-0.46c-0.31 3.5-0.68 5.24-1.14 5.24v0zm-106.84 23.46l1.59 2.51c9.26 9.72 13.97 14.89 14.12 15.49c15.19 13.06 26.27 20.88 33.26 23.46h0.68c6.53-2.73 12.83-6.3 18.91-10.71v-0.46l-1.59-0.23c-13.06-2.88-26.65-9.8-40.78-20.73c-5.77-3.34-11.09-8.2-15.95-14.58h-0.23c-0.91 0-4.25 1.75-10.02 5.24v0zm-51.26 30.75h-3.42c-9.42 0-21.26-4.18-35.54-12.53h-0.68c0 6.99 1.82 15.87 5.47 26.65c0 3.65 7.82 5.85 23.46 6.61c26.73 0 52.09-11.39 76.09-34.17v-0.46l-8.43-8.2c-21.11 14.73-40.1 22.1-56.95 22.1v0zm165.16 18.91c-2.73 5.16-5.39 9.57-7.97 13.21c-17.62 20.5-34.55 30.75-50.8 30.75h-2.05c-7.9 0-11.85-1.82-11.85-5.47c0-0.3 0.15-1.06 0.46-2.28c2.28-4.56 7.82-6.83 16.63-6.83l0.68 0.46c0-0.3 0.07-0.46 0.23-0.46c-3.04-6.83-7.6-10.25-13.67-10.25h-3.19c-1.52 0-3.27 0.31-5.24 0.91c-9.11 4.41-13.67 9.95-13.67 16.63c0 1.52 0.23 3.11 0.68 4.78c3.49 8.81 13.29 13.21 29.39 13.21c5.01 0 11.85-1.06 20.5-3.19c23.84-8.35 42.15-22.63 54.9-42.83c5.62-9.26 9.49-17.62 11.62-25.06h-0.46c-8.51 7.9-17.24 13.37-26.2 16.4v0zm-147.39 33.94c0 3.5 3.42 5.77 10.25 6.83c5.47 0 8.2-1.52 8.2-4.56v-0.68c0-3.19-3.19-5.24-9.57-6.15h-1.82c-3.95 0-6.3 1.52-7.06 4.56v0zm76.54 2.96c0 2.58 2.66 4.25 7.97 5.01c7.14-1.21 10.71-3.42 10.71-6.61v-0.68c-0.76-3.04-3.19-4.56-7.29-4.56c-6.23 0-10.02 2.28-11.39 6.83v0zm-35.31 7.06c-2.73 7.29-7.06 12.23-12.99 14.81c-5.62 1.22-8.43 2.13-8.43 2.73c0 0.46 0.23 0.68 0.68 0.68c8.66 2.43 14.43 4.94 17.31 7.52c1.97 0.76 4.86 4.48 8.66 11.16c1.21-0.76 1.82-1.59 1.82-2.51c4.1-6.98 9.49-11.69 16.17-14.12c5.77-1.21 8.66-1.97 8.66-2.28v-1.14c-3.95-0.61-7.52-1.74-10.71-3.42c-4.71-2.88-8.2-7.36-10.48-13.44c-0.31-4.71-2.13-7.06-5.47-7.06c-3.5 0-5.24 2.36-5.24 7.06v0z" />
  <path id="k2" class="s0 dogold" d="m101.51 98.49c16.1-7.9 32.5-11.85 49.21-11.85h0.68c29.01 0 51.64 10.71 67.89 32.12c6.68 12 10.02 19.59 10.02 22.78c-13.52-6.83-22.1-10.25-25.74-10.25c-2.43 0-5.09-1.67-7.97-5.01c-7.75-6.23-15.11-10.93-22.1-14.12c-8.2-3.19-14.89-5.39-20.05-6.61v0.46c-3.95-1.37-9.04-2.05-15.26-2.05c-15.34 0-31.36 5.32-48.07 15.95c-10.48 9.42-15.72 17.47-15.72 24.15c0.61 2.73 1.97 4.1 4.1 4.1h1.59c4.71 0 8.88-3.79 12.53-11.39h0.23c2.88 2.58 4.33 5.92 4.33 10.02c0 7.9-5.01 13.9-15.04 18c-2.43 0.61-4.56 0.91-6.38 0.91c-9.42-1.52-14.12-6.23-14.12-14.12v-2.51c0-7.75 4.78-18 14.35-30.75c8.2-8.66 16.71-15.26 25.51-19.82v0zm77.46-9.34v0.68c9.42 2.13 18.6 6.91 27.57 14.35c4.56-0.15 7.14-0.23 7.75-0.23c1.97 0 4.02 0.08 6.15 0.23c17.92 2.58 32.73 8.58 44.42 18c8.81 9.11 13.21 16.17 13.21 21.19c-0.31 3.19-1.59 4.78-3.87 4.78h-2.28c-4.25 0-8.43-3.79-12.53-11.39c-2.73 3.19-4.1 6.53-4.1 10.02c0.15 2.28 0.46 3.95 0.91 5.01c4.25 9.27 11.08 13.9 20.5 13.9h1.59c8.35-1.97 12.53-6.83 12.53-14.58v-2.05c0-7.59-4.86-17.84-14.58-30.75c-20.35-21.11-45.11-31.67-74.27-31.67h-0.23c-7.14 0-14.73 0.84-22.78 2.51v0zm-41.92 24.15c-12.61 17.47-18.91 36.53-18.91 57.18c0 12.45 1.37 24.23 4.1 35.31c-0.31 0.46-3.72 1.75-10.25 3.87c-10.48 4.1-19.67 8.66-27.57 13.67c-1.67 0-2.51 7.14-2.51 21.41l0.23 0.68h-0.23c0.15 0.91 0.23 1.75 0.23 2.51h0.46c0.91-0.61 1.74-1.52 2.51-2.73c7.14-7.14 13.52-12.45 19.14-15.95c11.39-6.53 24.68-12.3 39.87-17.31c0-0.76-0.15-1.29-0.46-1.59l0.68-8.66c-0.15 0-0.23-0.15-0.23-0.46c-6.53 1.22-10.56 2.05-12.07 2.51h-0.68v-0.46c0.15 0 1.06-0.07 2.73-0.23l-0.68-10.48c0-20.35 2.28-34.93 6.83-43.74c2.58-7.59 8.58-15.57 18-23.92c3.65-2.73 8.96-6.3 15.95-10.71v-0.23c-14.58-5.77-24.15-8.66-28.7-8.66c-4.41 4.1-7.22 6.76-8.43 7.97v0zm17.77 16.4c-5.62 5.77-9.8 11.7-12.53 17.77v0.23h0.46c10.33-3.65 19.97-5.47 28.93-5.47h5.47c22.33 0 43.21 8.51 62.65 25.51c9.87 10.48 16.17 18.68 18.91 24.6c6.53 14.12 9.8 24.38 9.8 30.75c0 0.31 5.01 4.86 15.04 13.67h0.46c0-25.51-8.66-48.83-25.97-69.94c-23.39-25.82-50.88-38.73-82.47-38.73h-3.87c-5.77 0-11.39 0.53-16.86 1.59v0zm-69.03 1.14c-6.68 2.58-10.02 6.53-10.02 11.85c0 2.89 1.21 4.33 3.65 4.33c1.06 0 1.97-0.23 2.73-0.68c5.62-3.04 8.43-6.68 8.43-10.94c0-3.04-1.37-4.56-4.1-4.56h-0.68zm176.1 3.87v1.37c2.43 7.29 6 10.94 10.71 10.94h0.68c1.82 0 2.96-1.21 3.42-3.65c0-5.92-3.5-10.1-10.48-12.53c-2.89 0.46-4.33 1.75-4.33 3.87v0zm-228.72 15.49h-4.33l-1.14 0.68c3.65 5.77 5.47 10.71 5.47 14.81v1.82c0 4.25-0.76 9.42-2.28 15.49c0 0.46 0.23 0.68 0.68 0.68c5.47-6.98 12.45-10.48 20.96-10.48c3.04 0 5.92 0.61 8.66 1.82h1.14c1.97 0 3.34-1.59 4.1-4.78v-1.82c-6.99-6.38-10.48-12.6-10.48-18.68c0-3.04 0.68-7.06 2.05-12.07c0-0.3-0.23-0.53-0.68-0.68c-7.44 8.81-15.49 13.21-24.15 13.21v0zm264.26-12.76c1.37 4.71 2.05 8.35 2.05 10.94v2.05c0 3.65-1.75 7.97-5.24 12.99c-3.5 3.04-5.24 5.16-5.24 6.38c1.21 3.5 2.43 5.24 3.65 5.24h2.05c2.73-1.21 5.47-1.82 8.2-1.82h0.46c8.2 0 14.96 3.34 20.28 10.02h0.68l0.68-0.23c-1.82-6.23-2.73-11.39-2.73-15.49c0-3.19 0.61-6.3 1.82-9.34c2.43-4.4 3.65-6.83 3.65-7.29c0-0.46-0.23-0.68-0.68-0.68h-5.47c-8.05 0-15.8-4.4-23.24-13.21h-0.23l-0.68 0.46zm-125.75 8.66c-6.08 4.86-12.15 13.82-18.22 26.88c-5.77 12.76-8.66 25.74-8.66 38.96c0 1.52 0.07 3.87 0.23 7.06h0.46c0.91 0 5.24-1.29 12.99-3.87c0-3.19 1.44-9.49 4.33-18.91c4.4-10.48 8.5-16.4 12.3-17.77h1.14c5.62 4.41 9.72 10.56 12.3 18.45c0 1.06 5.47 1.82 16.4 2.28c0-0.15 0.07-0.23 0.23-0.23c-0.76-10.02-5.47-22.86-14.12-38.5c-5.62-9.42-10.79-14.81-15.49-16.17c-0.76 0.31-2.05 0.91-3.87 1.82v0zm-64.24 7.97c-27.34 22.93-41.01 51.11-41.01 84.52c0 1.06 0.23 5.24 0.68 12.53h-0.68c-0.31-3.49-0.46-6.07-0.46-7.75v-3.42l-0.23-0.68c-14.12 14.58-21.19 31.29-21.19 50.12v1.37c0 10.02 1.97 19.82 5.92 29.39h-0.46c0 0.46 0.3 0.68 0.91 0.68c1.67 6.68 6.83 15.8 15.49 27.34c20.96 24.6 43.97 36.91 69.03 36.91h0.68c4.56 0 8.58-0.46 12.07-1.37c11.54-2.58 17.31-7.9 17.31-15.95l-0.46-3.42c-4.41-9.87-11.16-14.81-20.28-14.81c-6.99 0-12.07 3.42-15.26 10.25l0.68 0.46h2.73c7.75 0 12.45 2.58 14.12 7.75v1.37c0 3.5-4.1 5.24-12.3 5.24c-16.56 0-33.49-9.8-50.8-29.39c-10.63-14.88-15.95-31.67-15.95-50.35v-3.87c0-6.53 0.91-13.29 2.73-20.28c-2.73-8.2-4.1-14.5-4.1-18.91v-0.46h0.68c0.3 7.14 3.11 17.62 8.43 31.44c4.71 10.18 9.72 18.38 15.04 24.6c0 3.19 6.68 4.78 20.05 4.78h2.73c0.46 0 0.68-0.23 0.68-0.68c-8.2-7.44-13.82-13.59-16.86-18.45c-10.79-17.77-16.17-33.41-16.17-46.93l-0.46-0.68h0.46l-0.46-1.59v-3.87c0-30.68 12.22-55.89 36.68-75.63v-2.51c0-3.49 0.83-8.66 2.51-15.49c-0.31 0-0.46-0.07-0.46-0.23c-2.89 1.52-6.91 4.18-12.07 7.97v0zm105.93-2.28c3.49 9.87 5.24 18.91 5.24 27.11v5.92c0 13.06-1.59 25.59-4.78 37.59v0.23c3.04 1.67 6 3.65 8.88 5.92h0.46c7.29-17.92 10.93-37.51 10.93-58.78v-4.1c0-2.13-6.76-6.83-20.28-14.12c0 0.15-0.15 0.23-0.46 0.23v0zm-171.77 30.53c-15.95 13.97-23.92 32.8-23.92 56.5c0 15.04 3.79 30.75 11.39 47.16c4.4 8.51 9.95 16.17 16.63 23.01h0.23c-1.06-3.65-1.82-9.64-2.28-18c0-1.21 0.3-5.77 0.91-13.67c-0.76-1.21-1.22-1.82-1.37-1.82c-8.51-13.97-12.76-29.01-12.76-45.11v-2.96c0-3.79 0.46-7.44 1.37-10.94c4.4-13.82 9.03-20.73 13.9-20.73h0.23c3.49 0.91 5.24 3.42 5.24 7.52c0 3.64-1.52 7.82-4.56 12.53c1.06 0.46 1.74 0.68 2.05 0.68c10.17 0 15.95-6 17.31-18v-0.68c0-10.63-4.78-16.86-14.35-18.68c-3.5 0.31-6.83 1.37-10.02 3.19v0zm254.01-1.37c0-0.3-0.08-0.46-0.23-0.46c-7.6 3.34-11.39 9.49-11.39 18.45c0 1.37 0.23 3.04 0.68 5.01c2.88 9.11 8.12 13.67 15.72 13.67c1.37-0.3 2.35-0.46 2.96-0.46v-0.68c-2.89-4.1-4.33-7.67-4.33-10.71v-1.82c0-4.25 1.67-6.61 5.01-7.06h0.91c1.06 0 2.2 0.53 3.42 1.59c7.59 8.66 11.39 19.14 11.39 31.44c0 16.71-4.48 32.5-13.44 47.38c-13.67 17.62-29.31 29.01-46.93 34.17c-1.06 0-4.86 3.34-11.39 10.02l-17.54 12.3v0.46c4.71 0.61 9.64 1.06 14.81 1.37c22.63 0 41.54-7.52 56.73-22.55c20.2-22.17 30.3-46.62 30.3-73.36c0-11.54-2.2-22.63-6.61-33.26c-8.51-17.46-17.39-26.2-26.65-26.2l-3.42 0.68zm-258.34 28.25c0 3.95 1.29 5.92 3.87 5.92h1.14l2.28-0.68c3.49-3.34 5.24-6.91 5.24-10.71v-1.37c-0.46-3.49-1.82-5.24-4.1-5.24c-5.62 1.98-8.43 6-8.43 12.07v0zm262.9-5.47c1.21 8.2 3.87 12.3 7.97 12.3h0.68c2.13 0 3.42-1.67 3.87-5.01v-1.14c0-6.07-2.81-9.95-8.43-11.62c-2.28 0-3.64 1.82-4.1 5.47v0zm-136-4.1c-1.52 0-2.58 2.96-3.19 8.88c0 0.76 0.23 1.14 0.68 1.14h13.44c15.64 0 28.7 1.37 39.18 4.1c0.76 0 1.52-3.57 2.28-10.71v-0.46c-12.15-2.73-25.14-4.1-38.96-4.1c-6.38 0.31-10.86 0.68-13.44 1.14v0zm-33.26 4.1v0.23h-0.91v-0.23h0.91zm-1.37 0.23v0.46h-0.91v-0.46h0.91zm-1.37 0.46v0.23h-0.68v-0.23h0.68zm103.65 2.51l-3.87 12.76v0.23c3.49 1.37 9.72 5.16 18.68 11.39c23.54 14.43 35.31 34.71 35.31 60.83v5.47l0.23 0.68c4.4-1.97 11.77-8.66 22.1-20.05c0-3.95-2.2-10.48-6.61-19.59c-4.1-8.5-12.15-18.07-24.15-28.7c-19.9-13.82-33.72-21.49-41.46-23.01h-0.23zm-40.1 4.33c0.46 3.65 0.68 7.14 0.68 10.48v1.59c0 1.37-0.23 3.11-0.68 5.24c-1.67 8.35-6.76 17.24-15.26 26.65c3.34 2.73 6.45 4.78 9.34 6.15c13.82-13.21 20.73-29.23 20.73-48.07v-0.23c-2.73-0.76-7.52-1.44-14.35-2.05c0 0.15-0.15 0.23-0.46 0.23v0zm-51.49 11.39c0.61 2.89 2.2 7.06 4.78 12.53c10.93-6.53 21.19-9.8 30.75-9.8h3.19c1.67 0 5.47 0.68 11.39 2.05c0.61 0 0.91-1.59 0.91-4.78v-5.01c-0.91-1.52-6.76-2.51-17.54-2.96h-0.68c-11.7 0-22.63 2.66-32.8 7.97v0zm-14.12-2.96c2.28 6.23 3.42 9.57 3.42 10.02c5.92 13.37 12.83 25.97 20.73 37.82c1.06 0 4.33-1.14 9.8-3.42c-12.91-20.5-20.66-36.75-23.24-48.75c-5.77 2.13-9.34 3.57-10.71 4.33v0zm78.14 14.81c15.19 12.76 22.78 23.24 22.78 31.44v1.37c-2.13 1.98-6.38 2.96-12.76 2.96h-2.96c-2.28 0-5.16-0.23-8.66-0.68c-0.15 0.15-3.11 4.41-8.88 12.76c10.63 4.86 23.61 7.29 38.96 7.29h3.87c13.36-0.76 20.05-3.04 20.05-6.83v-1.82c0-3.49-1.52-8.28-4.56-14.35c-5.47-10.78-13.59-21.64-24.38-32.58c-8.81-6.98-15.49-11.24-20.05-12.76c-1.22 5.01-2.36 9.42-3.42 13.21v0zm-55.59 0c1.37 6.68 5.7 14.96 12.99 24.83c7.44 8.35 13.74 13.97 18.91 16.86c4.4-4.25 7.67-8.05 9.8-11.39v-0.23c-7.29-2.73-14.2-7.36-20.73-13.9c-6.23-6.68-9.8-13.67-10.71-20.96c-1.06 0-4.48 1.59-10.25 4.78v0zm-37.36 11.62c-12.3 16.4-18.45 28.25-18.45 35.54c0 0.91 0.15 1.98 0.46 3.19c2.73 3.65 10.48 5.47 23.24 5.47h0.68c23.39 0 42.37-5.62 56.95-16.86l-9.8-9.57h-0.23c-11.54 4.71-21.04 7.06-28.48 7.06c-6.99 0-11.24-1.14-12.76-3.42c0-6.23 4.02-13.9 12.07-23.01c-3.65-8.05-5.7-12.76-6.15-14.12h-0.91c-2.13 0.61-7.67 5.85-16.63 15.72v0zm91.35 0c-4.41 10.94-12.91 23.01-25.51 36.22c5.01 5.32 7.67 7.97 7.97 7.97h1.14c6.23-7.59 11.39-14.73 15.49-21.41c8.2-13.21 12.45-21.03 12.76-23.46l-7.29-6.83c-0.31 0-1.82 2.51-4.56 7.52v0zm64.93 13.21c-1.67 10.94-7.29 23.16-16.86 36.68c-20.81 24.3-46.02 36.45-75.63 36.45c-11.54 0-23.01-2.28-34.4-6.83c-6.68 3.19-12.45 5.39-17.31 6.61v0.68c16.71 9.42 34.09 14.12 52.17 14.12c36.3 0 66.29-15.87 89.99-47.61c7.29-11.85 11.54-20.35 12.76-25.52c-1.22-6.23-4.25-12.83-9.11-19.82h-0.46c-0.31 3.5-0.68 5.24-1.14 5.24v0zm-106.84 23.46l1.59 2.51c9.26 9.72 13.97 14.89 14.12 15.49c15.19 13.06 26.27 20.88 33.26 23.46h0.68c6.53-2.73 12.83-6.3 18.91-10.71v-0.46l-1.59-0.23c-13.06-2.88-26.65-9.8-40.78-20.73c-5.77-3.34-11.09-8.2-15.95-14.58h-0.23c-0.91 0-4.25 1.75-10.02 5.24v0zm-51.26 30.75h-3.42c-9.42 0-21.26-4.18-35.54-12.53h-0.68c0 6.99 1.82 15.87 5.47 26.65c0 3.65 7.82 5.85 23.46 6.61c26.73 0 52.09-11.39 76.09-34.17v-0.46l-8.43-8.2c-21.11 14.73-40.1 22.1-56.95 22.1v0zm165.16 18.91c-2.73 5.16-5.39 9.57-7.97 13.21c-17.62 20.5-34.55 30.75-50.8 30.75h-2.05c-7.9 0-11.85-1.82-11.85-5.47c0-0.3 0.15-1.06 0.46-2.28c2.28-4.56 7.82-6.83 16.63-6.83l0.68 0.46c0-0.3 0.07-0.46 0.23-0.46c-3.04-6.83-7.6-10.25-13.67-10.25h-3.19c-1.52 0-3.27 0.31-5.24 0.91c-9.11 4.41-13.67 9.95-13.67 16.63c0 1.52 0.23 3.11 0.68 4.78c3.49 8.81 13.29 13.21 29.39 13.21c5.01 0 11.85-1.06 20.5-3.19c23.84-8.35 42.15-22.63 54.9-42.83c5.62-9.26 9.49-17.62 11.62-25.06h-0.46c-8.51 7.9-17.24 13.37-26.2 16.4v0zm-147.39 33.94c0 3.5 3.42 5.77 10.25 6.83c5.47 0 8.2-1.52 8.2-4.56v-0.68c0-3.19-3.19-5.24-9.57-6.15h-1.82c-3.95 0-6.3 1.52-7.06 4.56v0zm76.54 2.96c0 2.58 2.66 4.25 7.97 5.01c7.14-1.21 10.71-3.42 10.71-6.61v-0.68c-0.76-3.04-3.19-4.56-7.29-4.56c-6.23 0-10.02 2.28-11.39 6.83v0zm-35.31 7.06c-2.73 7.29-7.06 12.23-12.99 14.81c-5.62 1.22-8.43 2.13-8.43 2.73c0 0.46 0.23 0.68 0.68 0.68c8.66 2.43 14.43 4.94 17.31 7.52c1.97 0.76 4.86 4.48 8.66 11.16c1.21-0.76 1.82-1.59 1.82-2.51c4.1-6.98 9.49-11.69 16.17-14.12c5.77-1.21 8.66-1.97 8.66-2.28v-1.14c-3.95-0.61-7.52-1.74-10.71-3.42c-4.71-2.88-8.2-7.36-10.48-13.44c-0.31-4.71-2.13-7.06-5.47-7.06c-3.5 0-5.24 2.36-5.24 7.06v0z" />
</svg>