<svg version="1.2" baseProfile="tiny-ps" xmlns="http://www.w3.org/2000/svg" viewBox="0 0 350 500" width="350" height="500">
	<title>fbg11.svg / Mid Dan N</title>
	<style>
		tspan { white-space:pre }
		.s0 { fill: none;stroke: #a78942;stroke-width: 1 } 
	</style>
	<path id="k5" class="s0" d="m221.23 129.87c3.96 0.16 6.89 1.2 8.79 3.09c3.3 3.3 4.08 7.14 2.35 11.51l-1.36 1.61l-0.37 0.37c-0.99 0.99-2.48 1.49-4.46 1.49l0.12 0.12c11.64 5.69 22.2 13.29 31.69 22.78c8.91 8.91 16.22 19.19 21.91 30.83c-0.08-2.06 0.37-3.59 1.36-4.58l0.37-0.37c2.64-2.64 6.23-2.93 10.77-0.87c0.91 0.58 1.65 1.15 2.23 1.73l0.25 0.25c1.73 1.73 2.8 4.7 3.22 8.91c2.89 0.41 5.4 1.69 7.55 3.84c2.31 2.31 4.17 5.9 5.57 10.77c1.9 1.07 3.59 2.35 5.08 3.84c4.29 4.29 5.45 9.16 3.47 14.61c-0.09 0.25-0.04 0.45 0.12 0.62c0.99 0.99 1.94 1.03 2.85 0.12c5.69-2.39 10.52-1.61 14.48 2.35c3.38 3.38 4.37 7.02 2.97 10.89c-0.66 1.65-1.61 3.09-2.85 4.33c-3.47 3.47-8.79 3.75-15.97 0.87c-0.17 0.17-0.66 0.58-1.49 1.24c1.9 3.38 2.56 6.44 1.98 9.16c-0.41 2.72-1.65 5.12-3.71 7.18l-0.62 0.62c-1.32 1.32-3.18 2.52-5.57 3.59c-1.16 3.47-3.09 6.56-5.82 9.28c-1.32 1.32-4 2.85-8.05 4.58c-0.83 3.8-2.27 6.73-4.33 8.79c-2.39 2.39-5.04 2.97-7.92 1.73c-0.74-0.58-1.28-0.87-1.61-0.87c-1.16-1.65-1.74-3.05-1.73-4.21l-0.37 0.37c-5.86 13.45-14.16 25.55-24.88 36.27c-9.58 9.58-20.88 17.5-33.92 23.77c1.15 0.5 1.94 0.95 2.35 1.36l1.11 1.11c1.73 1.73 1.61 4.25-0.37 7.55l-1.73 1.73c-1.65 1.65-4.38 2.97-8.17 3.96c-1.32 3.63-2.93 6.4-4.83 8.29c-2.06 2.06-5.12 3.96-9.16 5.69c-0.66 1.98-1.73 3.71-3.22 5.2l-1.24 1.24c-3.8 3.8-8.92 4.29-15.35 1.49l-0.37-0.37c-0.99 0.99-1.4 1.57-1.24 1.73c3.05 6.85 2.6 12.26-1.36 16.22c-3.3 3.3-6.98 3.92-11.02 1.86c-1.32-0.5-2.6-1.36-3.84-2.6c-4.21-4.21-4.67-9.53-1.36-15.97l-1.24-1.49c-5.53 2.23-10.61 1.03-15.23-3.59c-0.99-0.99-2.23-2.64-3.71-4.95c-4.46-0.99-8.29-3.09-11.51-6.31c-1.4-1.4-2.44-3.67-3.09-6.81c-3.88-0.08-6.98-1.28-9.28-3.59c-3.05-3.05-3.55-6.85-1.49-11.39c0.16-0.5 0.45-0.95 0.87-1.36l0.5-0.5l1.24-0.74l-0.25-0.25c-11.14-5.86-20.22-12.3-27.24-19.31l-4.09-4.09c-7.18-7.18-13.7-16.34-19.56-27.48c-0.17 0.5-0.58 1.07-1.24 1.73c-2.64 2.64-6.19 2.97-10.65 0.99c-0.91-0.58-1.65-1.16-2.23-1.73c-1.98-1.98-3.14-5.03-3.47-9.16c-2.72-0.25-5.16-1.44-7.3-3.59c-2.48-2.48-4.42-6.15-5.82-11.02l-0.12-0.12c-1.9-1.07-3.51-2.27-4.83-3.59c-4.38-4.38-5.61-9.16-3.71-14.36c0.16-0.5 0.16-0.83 0-0.99c-0.99-0.99-1.94-1.03-2.85-0.12c-5.7 2.39-10.52 1.61-14.48-2.35c-4.21-4.21-4.79-8.67-1.73-13.37c0.58-0.74 1.07-1.32 1.49-1.73c3.55-3.55 8.67-3.96 15.35-1.24c0.41 0.41 1.15 0.08 2.23-0.99l-0.12-0.12c-3.39-6.19-2.77-11.59 1.86-16.22l0.62-0.62c1.32-1.32 3.18-2.52 5.57-3.59c1.15-3.63 2.93-6.64 5.32-9.04c1.49-1.49 4.33-3.09 8.54-4.83c0.82-3.8 2.27-6.73 4.33-8.79c3.88-3.05 6.97-3.43 9.28-1.11c0.33 0.33 0.91 1.32 1.73 2.97l0.12-0.12c5.94-12.88 13.74-24.14 23.4-33.8c10.15-10.15 22.28-18.41 36.4-24.76l-0.25-0.25c-0.58-0.08-1.69-0.62-3.34-1.61c-1.57-1.57-1.94-3.84-1.11-6.81c0.49-0.83 1.11-1.69 1.86-2.6c2.06-2.06 5.12-3.63 9.16-4.7c1.49-3.96 3.01-6.73 4.58-8.29c2.06-2.06 5.2-3.96 9.41-5.69c0.58-1.9 1.65-3.63 3.22-5.2l1.11-1.11c4.04-4.04 9.37-4.5 15.97-1.36c1.07-1.07 1.28-1.94 0.62-2.6c-2.56-6.35-1.98-11.39 1.73-15.1c3.14-3.14 6.64-3.92 10.52-2.35c1.65 0.66 3.14 1.65 4.46 2.97c4.21 4.21 4.66 9.53 1.36 15.97l1.11 1.36c5.61-2.15 10.73-0.91 15.35 3.71c0.99 0.99 2.23 2.64 3.71 4.95c4.62 1.15 8.21 3.01 10.77 5.57c1.9 1.9 3.18 4.41 3.84 7.55v0zm7.06 5.32c2.72 3.71 2.97 6.69 0.74 8.91c-1.82 1.82-4.54 0.91-8.17-2.72l-0.12-0.12c-0.66-0.66-1.57-2.15-2.72-4.46c-1.08-4.7-2.07-7.92-2.97-9.66l-1.24-1.24c-2.06-2.06-4.42-3.34-7.06-3.84c-0.17-1.32-0.37-2.1-0.62-2.35c3.38 0.41 6.4 1.94 9.04 4.58l0.99 0.99c0.66 0.66 1.28 1.61 1.86 2.85c1.32 6.27 2.68 10.11 4.09 11.51c2.8 2.8 4.58 3.84 5.32 3.09c1.49-1.49 1.24-3.55-0.74-6.19c-1.07-1.07-2.81-1.65-5.2-1.73c-0.25-0.25-0.54-0.95-0.87-2.1l0.12-0.12c3.22-0.08 5.74 0.78 7.55 2.6v0zm64.38 64.38c1.81 1.81 2.68 4.33 2.6 7.55l-0.12 0.12c-0.17-0.17-0.91-0.41-2.23-0.74c0.16-2.31-0.37-4.09-1.61-5.32c-1.9-1.9-3.92-2.19-6.07-0.87c-0.83 0.83 0 2.48 2.48 4.95c1.24 1.24 2.93 2.19 5.08 2.85c5.28 1.16 8.54 2.35 9.78 3.59l0.99 0.99c2.64 2.64 4.13 5.61 4.46 8.91c-1.16-0.5-1.86-0.62-2.1-0.37c-0.74-2.89-1.94-5.16-3.59-6.81l-1.36-1.36c-0.25-0.25-0.79-0.54-1.61-0.87c-6.77-1.65-10.98-3.3-12.63-4.95c-3.88-3.88-4.99-6.64-3.34-8.29c2.48-2.48 5.57-2.27 9.28 0.62v0zm-118.85-108.7c3.22-1.73 6.31-1.11 9.28 1.86c1.4 1.73 2.1 2.85 2.1 3.34c1.73 4.37-0.21 9.37-5.82 14.98c-0.74-1.07-1.2-1.69-1.36-1.86c6.11-6.11 7.26-11.06 3.47-14.86c-2.89-2.89-5.57-3.09-8.05-0.62c-1.98 1.98-2.15 5.2-0.5 9.66c-0.33 0.33-0.79 0.87-1.36 1.61l-0.12 0.12c-2.56-5.69-2.44-9.94 0.37-12.75c0.25-0.25 0.91-0.74 1.98-1.49v0zm149.3 152.77c4.87-2.39 8.75-2.15 11.64 0.74c0.5 0.5 0.91 0.99 1.24 1.49c2.8 3.63 2.68 6.98-0.37 10.03c-2.81 2.81-7.1 2.97-12.88 0.5l1.61-1.61c4.54 1.73 7.76 1.65 9.66-0.25c2.56-2.56 2.39-5.28-0.5-8.17c-3.88-3.88-8.87-2.76-14.98 3.34c-0.08-0.08-0.66-0.5-1.73-1.24c1.98-1.98 4.09-3.59 6.31-4.83v0zm-134.2-132.96c4.29-1.65 8.25-0.66 11.88 2.97c0.41 0.41 1.11 1.28 2.1 2.6c2.8 5.12 3.05 8.83 0.74 11.14l-0.5 0.5c-1.08-0.74-1.65-1.16-1.73-1.24l0.25-0.25c2.48-2.48 1.69-6.23-2.35-11.27c-1.16-0.99-2.44-1.86-3.84-2.6c-3.14-0.82-5.24-0.7-6.31 0.37c-0.08-0.08-0.41-0.66-0.99-1.73c0.33-0.33 0.58-0.5 0.74-0.5v0zm112.9 112.66c4.29-1.49 8.42-0.25 12.38 3.71c1.24 1.24 2.43 3.01 3.59 5.32c0.49 2.31 0.21 4.75-0.87 7.3c-0.17 0.17-0.87-0.21-2.1-1.11c1.81-3.47 1.11-6.81-2.1-10.03c-1.16-0.99-2.23-1.82-3.22-2.48c-3.63-1.81-6.44-1.73-8.42 0.25c-0.08-0.08-0.46-0.62-1.11-1.61l0.5-0.5c0.41-0.41 0.86-0.7 1.36-0.87v0zm-89.88-95.33l0.25 0.25l0.62 0.87l-0.12 0.12l-5.94-1.49c0.5-0.99 0.82-1.81 0.99-2.48c1.57 0.58 2.97 1.49 4.21 2.72v0zm87.65 87.65l0.25 0.25c1.24 1.24 2.15 2.64 2.72 4.21c-0.66 0.17-1.53 0.45-2.6 0.87l-1.36-5.82l0.12-0.12l0.87 0.62zm-120.21-119.71c0.25 0.25 0.58 0.82 0.99 1.73c-0.17 0.17-0.41 0.08-0.74-0.25c-1.49-0.66-3.09-0.12-4.83 1.61c-0.17-1.49 0.04-2.52 0.62-3.09l0.25-0.25c1.15-1.15 2.39-1.07 3.71 0.25v0zm-45.81 50.01c6.35-2.72 14.85-4.87 25.5-6.44c7.34-1.24 16.83-1.32 28.47-0.25c27.07 3.63 49.64 14.48 67.72 32.56c16.09 16.09 26.57 35.49 31.44 58.19c1.57 6.19 2.39 15.1 2.48 26.74c-1.65 31.2-12.79 57.11-33.43 77.75l-0.37 0.37c-16.67 16.67-36.81 27.15-60.41 31.44c-3.71 1.24-12.55 1.9-26.49 1.98c-30.21-2.31-55.09-13.25-74.65-32.81l-1.73-1.73c-18.41-18.41-29.14-41.6-32.19-69.58c-0.83-11.23-0.7-20.26 0.37-27.11c4.29-25.75 14.77-46.96 31.44-63.63l2.85-2.85c10.48-10.48 23.48-18.69 39-24.64v0zm198.2 102.38c1.49 1.49 1.69 2.77 0.62 3.84c-0.74 0.74-1.94 1.03-3.59 0.87l1.11-1.11c1.07-1.07 1.07-2.56 0-4.46l0.12-0.12l1.73 0.99zm-116-114.02c-8.67-0.25-15.31-2.68-19.93-7.3l-1.86-1.86l-0.87-1.11c1.32-0.33 2.02-0.54 2.1-0.62l2.1 2.1c4.04 4.04 9.86 6.23 17.46 6.56c0.25 0.25 0.58 0.99 0.99 2.23v0zm79.97 78.74l-0.12 0.12c0.49 7.59 2.72 13.37 6.69 17.33l2.1 2.1c-0.08 0.08-0.33 0.74-0.74 1.98l-0.74-0.5l-2.1-2.1c-4.46-4.46-6.93-11.06-7.43-19.81c1.07 0.08 1.86 0.37 2.35 0.87v0zm-95.2-93.72l0.87 2.1l-0.12 0.12c-3.05-0.08-5.61 0.17-7.68 0.74c-2.39 1.07-4 1.61-4.83 1.61l-1.24-1.24l0.25-0.25c2.89-1.9 7.14-2.93 12.75-3.09v0zm107.83 107.83v0.74c-0.33 6.11-1.4 10.23-3.22 12.38l-1.61-1.61c2.31-4.13 3.18-8.13 2.6-12.01c0.25-0.25 0.99-0.08 2.23 0.5v0zm-112.04-110.8l0.12 0.12l-0.12 0.12l-2.23 0.5l-1.61-1.86l-0.12-0.12l0.12-0.12c1.57-0.08 2.85 0.37 3.84 1.36v0zm44.82 46.3c-15.93-10.98-30.91-17.54-44.94-19.68c-3.88-1.4-12.46-2.15-25.75-2.23c-11.47 0.74-20.68 2.19-27.61 4.33c-19.07 6.03-34.42 14.86-46.05 26.49l-4.7 4.7c-9.9 9.9-17.87 22.9-23.89 39c-2.56 6.35-4.54 14.86-5.94 25.5c-0.83 5.94-0.91 13.87-0.25 23.77c3.22 27.15 13.78 49.68 31.69 67.59l1.73 1.73c16.92 16.92 38.13 27.32 63.63 31.2c5.2 1.07 13.87 1.24 26 0.5c27.32-3.05 50.22-13.82 68.71-32.31l0.62-0.62c14.19-14.19 23.89-31.4 29.09-51.62c2.15-6.11 3.3-16.42 3.47-30.95c-1.65-30.54-12.71-56.04-33.18-76.51c-2.97-2.97-7.18-6.6-12.63-10.89v0zm71.68 72.67l-0.12 0.12l-1.86-1.61c-0.08-0.08 0-0.99 0.25-2.72c1.24 1.24 1.81 2.64 1.73 4.21v0zm-134.07-135.06c0.16 0.16 0.49 0.58 0.99 1.24c1.15 1.15 1.07 2.39-0.25 3.71c-0.17-0.17-0.54-0.79-1.11-1.86l-0.37-0.12c-4.38 5.2-6.77 8.01-7.18 8.42c-0.08 0.08-0.58-0.25-1.49-0.99l-0.12-0.37c0.74-0.74 3.46-4.04 8.17-9.9c0.41-0.41 0.86-0.45 1.36-0.12v0zm145.22 147.2c0.58-0.58 1.73-0.08 3.47 1.49c0.16 0.16 0.29 0.54 0.37 1.11l-9.9 8.17c-0.17 0.17-0.37 0.29-0.62 0.37l-1.11-1.36c2.06-2.06 4.79-4.46 8.17-7.18l0.25-0.5c-0.17-0.17-0.79-0.54-1.86-1.11l-0.12-0.12l1.36-0.87zm-105.35-104.36l1.11 1.11l1.49 1.24l-0.12 0.12c-20.22-8.99-41.84-11.88-64.87-8.67c-9.66 1.9-16.18 3.55-19.56 4.95l-0.25-0.25c0.82-0.82 1.69-2.43 2.6-4.83l1.36 0.12c6.27 1.32 11.35 0.04 15.23-3.84c3.96 1.15 8.09-0.41 12.38-4.7c0.91 0.74 1.44 1.03 1.61 0.87c4.7 4.37 7.34 6.27 7.92 5.69c0.74 0.74 3.3-0.99 7.68-5.2c0.58 0.08 2.06 0.99 4.46 2.72c4.04 1.57 7.3 1.86 9.78 0.87c4.45 2.31 9.7 3.59 15.72 3.84c1.07 2.72 2.23 4.7 3.47 5.94v0zm71.93 69.45c0.5 6.44 1.61 11.27 3.34 14.48c0.66 0.66 0.66 2.15 0 4.46c0.41 4.54 1.69 7.88 3.84 10.03c0.66 0.66-0.08 2.06-2.23 4.21c-2.56 2.56-3.43 4.5-2.6 5.82c3.14 3.8 5.32 6.56 6.56 8.29l-0.37 0.37c-3.96 3.96-5.41 7.88-4.33 11.76c-1.4 1.9-2.35 3.34-2.85 4.33c-1.57 1.57-1.82 5.69-0.74 12.38c-2.56 1.07-4.29 2.06-5.2 2.97l-0.12-0.12l2.23-8.17c1.9-5.53 3.22-15.52 3.96-29.96c-0.58-11.31-1.57-20.06-2.97-26.25c-3.55-12.63-5.9-19.52-7.06-20.67l0.12-0.12l0.12 0.12c0.74 0.91 1.2 1.44 1.36 1.61c1.98 1.98 4.29 3.47 6.93 4.46v0zm-98.79-93.84c-0.41 0.41-1.12 0.78-2.1 1.11c-2.23-3.05-4.5-6.31-6.81-9.78c-0.25-0.25 0.08-0.82 0.99-1.73l0.25-0.25c4.21 6.19 6.77 9.74 7.68 10.65v0zm128.01 125.04c-0.33 0.33-0.87 0.78-1.61 1.36c-1.74-0.91-5.12-3.22-10.15-6.93l0.74-2.23c6.52 4.7 10.19 7.3 11.02 7.8v0zm-80.22-71.8c4.45-0.66 7.01-0.82 7.68-0.5l1.36 1.36c0.5 0.5 1.07 1.32 1.73 2.48l-0.12 0.12l-2.1 0.12l-0.87-1.11l-1.11-1.11l-0.37-0.12c-4.79 1.32-8.05 1.11-9.78-0.62c-1.16-1.16-1.69-2.27-1.61-3.34l1.61-0.37c0.33 0.33 0.82 0.99 1.49 1.98l0.12 0.12c0.41 0.41 1.07 0.74 1.98 0.99v0zm5.57 5.32c4.7-0.58 7.68-0.25 8.91 0.99l0.37 0.37c1.48 2.31 1.94 3.76 1.36 4.33c-0.5 0-1.16-0.08-1.98-0.25c0-1.15-0.33-2.06-0.99-2.72l-0.25-0.25c-0.33-0.33-0.83-0.5-1.49-0.5c-5.2 0.25-8.13 0.04-8.79-0.62l-0.74-0.74c-0.5-0.5-0.87-1.28-1.11-2.35c1.24-0.08 1.9-0.16 1.98-0.25l0.87 1.11l0.62 0.62l1.24 0.25zm-14.24-11.51c5.53-0.91 8.79-0.87 9.78 0.12l0.62 0.62c0.66 0.66 1.07 1.73 1.24 3.22c-0.58 0.58-1.28 0.79-2.1 0.62l-0.12-0.12c-0.17-1.16-0.45-1.94-0.87-2.35c-0.33-0.33-0.91-0.58-1.73-0.74c-5.53 0.91-8.79 0.87-9.78-0.12l-0.37-0.37c-0.41-0.41-0.74-1.07-0.99-1.98c0.41-0.41 1.03-0.7 1.86-0.87c0.25 0.58 0.5 0.99 0.74 1.24c0.33 0.33 0.91 0.58 1.73 0.74v0zm20.55 18.07c5.53 0.74 8.75 1.57 9.66 2.48l0.25 0.25c0.41 0.41 0.78 1.53 1.11 3.34l-0.37 0.37c-0.08-0.08-0.66-0.25-1.73-0.5l-0.12-0.12c-0.17-0.82-0.41-1.4-0.74-1.73l-1.24-0.74c-5.04-0.58-8.05-1.36-9.04-2.35c-0.74-0.74-1.03-2.02-0.87-3.84l0.12-0.12c1.15-0.16 1.77-0.21 1.86-0.12c0.08 1.57 0.21 2.43 0.37 2.6c0.25 0.08 0.5 0.25 0.74 0.5v0zm6.31 7.06c4.54 0.74 7.22 1.53 8.05 2.35c0.99 0.99 1.32 2.56 0.99 4.7c-1.24-0.08-1.9-0.08-1.98 0c-0.17-1.81-0.29-2.77-0.37-2.85c-0.41-0.41-1.12-0.78-2.1-1.11c-4.29-0.66-6.98-1.53-8.05-2.6c-0.91-0.91-1.44-2.02-1.61-3.34c0.33-0.17 1.07-0.08 2.23 0.25l0.74 1.24l0.25 0.25c0.5 0.5 1.11 0.87 1.86 1.11v0zm-35.16-29.22c5.11-1.98 8.67-1.98 10.65 0l1.24 1.73c-0.58 0.58-1.32 0.74-2.23 0.5l-1.11-1.11c-0.41-0.41-1.2-0.62-2.35-0.62c-4.71 1.57-7.51 1.9-8.42 0.99l-0.25-0.25c-0.41-0.41-0.83-1.32-1.24-2.72l2.23-0.99c0.16 1.15 0.41 1.9 0.74 2.23l0.74 0.25zm-38.01-46.18c-1.9 1.57-3.43 2.93-4.58 4.09l-1.61 1.61c-0.41 0.41-1.74-0.33-3.96-2.23l0.5-0.5l0.87-1.11c1.24 1.07 1.94 1.53 2.1 1.36l0.74-0.74c1.24-1.24 2.76-2.6 4.58-4.09l0.12-0.12c0.5 0.5 0.91 1.07 1.24 1.73v0zm129.37 128.87l0.12 0.12c-1.74 2.06-3.14 3.63-4.21 4.7l-0.74 0.74c-0.17 0.17 0.29 0.87 1.36 2.1l-0.99 0.5l-0.74 0.74c-1.82-2.15-2.52-3.42-2.1-3.84l1.49-1.49c1.49-1.49 2.85-3.09 4.09-4.83c0.74 0.41 1.32 0.82 1.73 1.24v0zm-51.01-45.56c4.21 0.91 6.69 1.73 7.43 2.48c1.32 1.32 1.77 3.01 1.36 5.08c-0.17-0.17-0.83-0.5-1.98-0.99c0.16-0.16 0.04-0.87-0.37-2.1c-0.5-0.5-1.03-0.79-1.61-0.87c-4.54-1.07-7.14-1.94-7.8-2.6c-0.99-0.99-1.4-2.56-1.24-4.7l2.1 0.12c0 1.65 0.25 2.72 0.74 3.22v0l1.36 0.37zm-43.7-42.96c2.39-1.24 4.29-1.16 5.69 0.25c0.25 0.25 0.82 1.16 1.73 2.72c-1.16 0.33-1.82 0.58-1.98 0.74c-0.74-1.07-1.2-1.69-1.36-1.86c-0.41-0.41-0.99-0.58-1.73-0.5c-4.87 2.89-8.42 3.22-10.65 0.99l-0.74-1.24c0.99-0.99 1.61-1.36 1.86-1.11l0.99 0.99c1.07 1.07 3.13 0.74 6.19-0.99v0zm-39.24-41.23l-1.49 1.24l-0.12 0.12c-0.33-0.33-1.53-1.94-3.59-4.83c-0.66-0.66-0.41-1.57 0.74-2.72l4.46 6.19zm12.88 13.62c1.81 0.17 3.51 1.03 5.08 2.6c-4.05 0.74-8.05-0.87-12.01-4.83l-1.11-1.11c-2.06-2.06-3.26-3.59-3.59-4.58l0.37-0.12l1.11-1.11c0.99 1.49 2.19 2.93 3.59 4.33l1.49 1.49c1.4 1.4 3.09 2.52 5.08 3.34v0zm105.85 103.62c0.66 3.3 2.19 6.15 4.58 8.54l0.87 0.87c1.57 1.57 3.09 2.85 4.58 3.84l-1.36 1.36c-0.25 0.25-2.15-1.24-5.69-4.46c-3.71-3.71-5.28-7.76-4.7-12.13c0.74 0.91 1.32 1.57 1.73 1.98v0zm20.67 20.43c-0.41 0.25-0.83 0.58-1.24 0.99c-0.41 0.41-2.52-0.87-6.31-3.84l0.12-0.12l1.24-1.49l6.19 4.46zm-114.51-97.92c0.74 0.74 2.27 0.21 4.58-1.61c3.55-2.23 6.44-2.23 8.67 0c0.25 0.25 0.62 0.78 1.11 1.61c-0.99 0.33-1.61 0.62-1.86 0.87c-0.33-0.33-0.7-0.78-1.11-1.36c-0.74-0.74-2.11-0.78-4.09-0.12c-4.13 3.14-7.02 3.88-8.67 2.23c-0.5-0.5-1.2-1.36-2.1-2.6l1.98-1.24c0.5 0.99 0.95 1.69 1.36 2.1l0.12 0.12zm68.96 54.84c1.15 1.15 1.36 3.18 0.62 6.07c-0.25 0.08-0.83-0.16-1.73-0.74c0.08-1.73-0.04-2.93-0.37-3.59l-0.37-0.37c-4.95-2.15-7.59-3.39-7.92-3.71c-0.99-0.99-1.24-2.31-0.74-3.96c1.24 0.25 1.9 0.33 1.98 0.25c0.08 1.24 0.16 1.9 0.25 1.98c3.71 1.73 6.48 3.09 8.29 4.09v0zm-157.6-36.77c2.48-2.48 9.12-6.23 19.93-11.27c5.2-2.23 11.68-4.09 19.44-5.57c4.21-1.24 12.38-1.82 24.51-1.73c25.58 2.15 46.75 11.59 63.51 28.35l2.23 2.23c14.19 14.19 23.23 32.39 27.11 54.6c3.8 33.84-6.03 62.48-29.46 85.92l-0.74 0.5c0.08 0.08 0.08 0.17 0 0.25l-0.37 0.12c-7.84 7.84-17.95 14.4-30.33 19.68c-7.51 3.05-14.53 5.03-21.05 5.94c-3.55 1.24-11.8 1.65-24.76 1.24c-24.84-2.39-45.6-11.93-62.27-28.6c-18.24-18.24-28.02-40.65-29.34-67.22c-0.58-29.3 9.28-54.1 29.59-74.4l2.48-2.48l0.74-0.5c-0.08-0.08-0.08-0.16 0-0.25c4.62-3.8 7.55-6.07 8.79-6.81v0zm59.55-57.32c-3.14 3.8-5.04 6.03-5.69 6.69c-0.08 0.08-0.7-0.29-1.86-1.11c2.23-2.72 4.33-5.16 6.31-7.3c0.74 1.07 1.15 1.65 1.24 1.73v0zm138.53 138.04l0.12 0.12c-2.23 2.06-4.66 4.17-7.3 6.31c-0.17-0.17-0.54-0.7-1.11-1.61c2.39-2.39 4.62-4.37 6.69-5.94c0.82 0.66 1.36 1.03 1.61 1.11v0zm-43.7-38.25l6.81 3.84l0.5 0.5c0.99 0.99 1.15 2.39 0.5 4.21c-0.08 0.08-0.7-0.21-1.86-0.87c0.16-0.99 0.16-1.57 0-1.73l-0.5-0.5c-4.13-1.98-6.52-3.3-7.18-3.96l-0.5-0.5c-1.32-1.32-1.65-3.22-0.99-5.69c0.58 0.08 1.32 0.41 2.23 0.99c-0.66 1.16-0.5 2.23 0.5 3.22l0.5 0.5zm-62.15-52.74c-8.09-3.3-18.32-5.36-30.7-6.19c-28.97-0.25-53.03 9.2-72.17 28.35l-0.12 0.12c-15.27 15.27-24.51 33.84-27.73 55.71c-0.08 0.08-0.41 3.55-0.99 10.4c0.08 28.8 9.61 52.7 28.6 71.68c19.39 19.39 43.7 28.93 72.92 28.6c26.08-1.81 47.66-11.27 64.75-28.35c7.1-7.1 13.08-15.31 17.95-24.64c9.99-20.38 13-41.23 9.04-62.52c-4.38-20.22-12.67-36.44-24.88-48.65l-3.34-3.34c-8.83-8.83-19.93-15.89-33.3-21.17v0zm-12.5-10.03c3.47-1.98 5.69-3.14 6.69-3.47c2.14-0.5 4.13 0.16 5.94 1.98l0.37 0.62l-1.61 1.11l-0.12 0.12c-1.65-1.65-3.26-2.19-4.83-1.61c-4.21 3.05-6.93 3.96-8.17 2.72l-0.5-0.5l-0.87-1.11c1.15-0.66 1.77-1.03 1.86-1.11l0.5 0.74l0.25 0.25l0.5 0.25zm-11.39-25.25c-2.39 1.73-4.29 3.3-5.69 4.7l-0.62 0.62c-0.5 0.16-0.95 0.04-1.36-0.37c-3.14-3.14-7.47-6.23-13-9.28l0.62-0.62l0.74-0.99c5.69 3.22 9.78 6.07 12.26 8.54c0.16 0.16 1.98-1.24 5.45-4.21l1.61 1.61zm117.98 117.98c-1.73 2.23-3.05 3.8-3.96 4.7l-0.37 0.37c4.7 5.69 7.55 9.94 8.54 12.75c-0.66 0.5-1.2 0.95-1.61 1.36c-2.39-5.03-5.53-9.49-9.41-13.37c-0.25-0.25-0.29-0.62-0.12-1.11l0.12-0.12c1.57-1.57 3.3-3.63 5.2-6.19l1.61 1.61zm-140.14-136.18c3.46 1.32 6.52 3.22 9.16 5.69l-1.24 1.49l-0.12 0.12c-0.33-0.33-2.1-1.61-5.32-3.84c-3.96-2.15-7.39-1.77-10.28 1.11l-0.5 0.5c-0.58 0.58-1.16 1.4-1.73 2.48c-1.32 0.16-2.02 0.21-2.1 0.12l-0.12-0.12c0.58-1.57 1.24-2.72 1.98-3.47l1.11-1.11c2.39-2.39 5.45-3.38 9.16-2.97v0zm155.49 153.51c2.23 4.87 1.65 9-1.73 12.38l-1.11 1.11c-0.74 0.74-1.9 1.4-3.47 1.98l-0.25-0.25c0.08-0.08 0.21-0.79 0.37-2.1c0.82-0.5 1.57-1.07 2.23-1.73l0.5-0.5c1.98-1.98 2.85-4.09 2.6-6.31c0.16-1.65-1.57-4.7-5.2-9.16c0.91-0.74 1.4-1.15 1.49-1.24l0.12-0.12c1.9 2.39 3.38 4.37 4.46 5.94v0zm-137.79-138.28l-0.62 0.62c-0.17 0.17-0.33 0.16-0.5 0l0.87-0.87l0.25 0.25zm124.05 124.05l-0.74 0.74l-0.25-0.25l0.74-0.74l0.25 0.25zm-64.75-62.77c0.08 0.25 0.45 0.79 1.11 1.61c2.47 4.79 3.96 9.08 4.46 12.88c-1.24-0.41-1.94-0.54-2.1-0.37c-1.74-6.03-3.39-10.07-4.95-12.13c-0.5-0.5-2.44-1.36-5.82-2.6c-5.37-1.4-10.94-1.61-16.71-0.62c-0.08-0.91-0.21-1.69-0.37-2.35c9.24-1.32 17.37-0.12 24.39 3.59v0zm6.44 6.44c3.38 4.04 6.31 7.96 8.79 11.76l-0.25 0.25c-1.16-1.16-3.34-2.6-6.56-4.33c-1.08-4.7-1.82-7.26-2.23-7.68l0.12-0.12l0.12 0.12zm-66.98-66.73l-0.12 0.12c-0.58 0.41-0.91 0.66-0.99 0.74c-0.08 0.08-1.61-1.03-4.58-3.34l0.5-0.5c0.5 0.5 0.78 0.7 0.87 0.62c2.15 2.15 3.55 2.89 4.21 2.23l0.12 0.12zm10.52 25.13c5.45-4.29 9.16-5.45 11.14-3.47l0.87 0.87c-1.32 0.83-2.15 1.07-2.48 0.74c-0.91-0.91-2.81-0.25-5.69 1.98c-3.39 2.56-6.15 2.76-8.29 0.62l-0.99-0.99l1.36-1.36c1.57 1.57 2.93 2.1 4.09 1.61v0zm44.32 29.71c-3.14-0.66-5.61-1.07-7.43-1.24c-1.57-3.38-2.6-5.32-3.09-5.82l0.12-0.12c3.13 1.98 6.6 4.37 10.4 7.18v0zm69.2 69.45c-0.5 0.5 0.45 2.1 2.85 4.83l-0.5 0.5c-1.74-2.39-2.81-3.8-3.22-4.21c-0.17-0.17 0-0.5 0.5-0.99l0.25-0.25l0.12 0.12zm-24.51-23.52l0.74 0.74c2.15 2.15 2.52 4.5 1.11 7.06l-1.24-0.74l-0.74-0.74c0.91-0.91 0.74-2.23-0.5-3.96l-0.62-0.62c-0.5-0.5-2.07-1.49-4.7-2.97l-0.74-0.74c-0.91-0.91-1.2-2.27-0.87-4.09l0.12-0.12c0.58 0.41 1.2 0.7 1.86 0.87c0 0.83 0.25 1.49 0.74 1.98l4.83 3.34zm-110.8-109.81c-4.38 5.2-7.59 8.83-9.66 10.89c-0.17 0.17-0.74-0.16-1.73-0.99l9.53-11.27c1.07 0.74 1.69 1.2 1.86 1.36v0zm145.71 146.21c-4.95 3.96-8.63 7.14-11.02 9.53c-0.91-0.91-1.32-1.4-1.24-1.49c3.96-3.96 7.59-7.26 10.89-9.9c0.74 1.07 1.2 1.69 1.36 1.86v0zm-151.03-148.06c0.16 0.16-0.25 0.83-1.24 1.98c-0.17 0.17-1.57-0.08-4.21-0.74l-0.12-0.12c1.4-1.4 3.26-1.77 5.57-1.11v0zm151.41 151.41c0.74 2.39 0.45 4.25-0.87 5.57l-0.12 0.12l-0.99-4.21c0.08-0.08 0.66-0.58 1.73-1.49l0.12-0.12l0.12 0.12zm-37.76-37.26c-0.99 0.99-1.24 2.15-0.74 3.47c3.46 2.64 5.36 4.13 5.69 4.46c1.4 1.4 1.73 3.14 0.99 5.2l-1.36-1.36c-0.25-0.25-0.5-0.83-0.74-1.73c-0.66-0.66-2.68-2.35-6.07-5.08c-0.41-0.58-0.58-0.91-0.5-0.99c-0.83-0.83-0.54-2.52 0.87-5.08c0.25 0.25 0.87 0.62 1.86 1.11v0zm-78.12-64.99c8.58 0.16 15.68 3.05 21.29 8.67c1.98 1.98 3.38 4.54 4.21 7.68c-1.16 0.17-1.82 0.16-1.98 0c-1.57-3.05-2.77-4.99-3.59-5.82c-3.8-3.8-8.71-6.48-14.73-8.05c-7.02-0.74-12.55 0.91-16.59 4.95c-0.74-1.07-1.2-1.69-1.36-1.86c2.72-2.72 6.97-4.58 12.75-5.57v0zm33.67 39.62c8.25-3.96 15.56-2.77 21.91 3.59c3.71 3.71 6.77 8.75 9.16 15.1c1.4 4.54 1.36 8.95-0.12 13.25l-0.12 0.12l-1.49-1.49c0.49-2.64 0.66-5.36 0.5-8.17c-2.07-7.18-5.16-12.83-9.28-16.96c-2.81-2.81-5.74-4.58-8.79-5.32c-5.45-0.83-9.7 0.29-12.75 3.34l-0.87 0.87c-1.57 1.57-2.72 3.47-3.47 5.69c-0.17-0.17-0.87-0.37-2.1-0.62c1.24-2.89 2.48-4.95 3.71-6.19l1.61-1.61c0.41-0.41 1.11-0.95 2.1-1.61v0zm4.21-13.87c0.99 0.99 2.23 3.88 3.71 8.67c-5.2 0.41-9.41 2.23-12.63 5.45l-0.62 0.62c-1.65 1.65-3.14 3.88-4.46 6.69c-0.17-0.17-1.73-0.5-4.7-0.99c-0.25-2.23-0.45-3.43-0.62-3.59c2.8-1.32 4.95-2.72 6.44-4.21c4.04-4.04 5.78-8.91 5.2-14.61l0.12-0.12c2.31 0.17 4.83 0.87 7.55 2.1v0zm-51.87-43.95c2.64-1.65 4.99-1.44 7.06 0.62l0.87 0.87c-0.17 0.17-0.79 0.62-1.86 1.36l-0.74-0.74c-1.32-1.32-2.97-1.24-4.95 0.25c-1.16 1.32-2.19 2.44-3.09 3.34l-0.12 0.12c-1.65 1.65-3.68 1.61-6.07-0.12l1.61-1.61c0.91 0.91 1.94 0.95 3.09 0.12c0.99-0.99 1.98-2.06 2.97-3.22c0.58-0.41 0.99-0.74 1.24-0.99v0zm-37.76-25.87c5.2-1.73 9.9-1.73 14.11 0l-1.61 1.61c-6.93-1.49-12.26-0.37-15.97 3.34l-1.86 1.86c-0.41 0.41-1.16 1.81-2.23 4.21c-1.32 0.16-2.02 0.21-2.1 0.12l-0.12-0.12c1.24-3.38 2.39-5.61 3.47-6.69c2.39-2.06 4.5-3.51 6.31-4.33v0zm162.92 148.81c2.14 7.92 0.74 14.36-4.21 19.31l-0.12 0.12v0.5c-0.17-0.17-0.33-0.16-0.5 0l-0.37 0.37c-1.07 1.07-3.18 2.27-6.31 3.59c-0.08-0.08-0.04-0.87 0.12-2.35c2.56-1.24 4-2.02 4.33-2.35l1.86-1.86c3.8-3.8 4.87-9.08 3.22-15.85l1.73-1.73l0.25 0.25zm-142.62-142.12l0.12 0.12l-0.5 0.5c-4.87 4.87-9.08 5.53-12.63 1.98c-1.57-1.57-2.72-3.71-3.47-6.44c0.25-0.25 0.87-0.37 1.86-0.37l0.12-0.12c0.91 2.39 1.9 4.13 2.97 5.2c0.5 0.5 0.78 0.7 0.87 0.62c2.06 2.06 4.99 1.2 8.79-2.6c1.15 0.66 1.77 1.03 1.86 1.11v0zm136.55 137.29c0.08 0.08-0.91 1.4-2.97 3.96c-0.99 2.15-0.7 4 0.87 5.57c1.4 1.4 3.22 2.48 5.45 3.22c0 0.83-0.09 1.49-0.25 1.98c-2.56-0.41-4.66-1.44-6.31-3.09c-1.16-1.16-1.94-2.44-2.35-3.84c-0.91-2.39 0.58-5.53 4.46-9.41c0.66 0.66 1.03 1.2 1.11 1.61v0zm-103.25-94.83c6.69 0.74 11.97 3.05 15.85 6.93c1.32 1.81 2.02 2.93 2.1 3.34c-1.24 0.08-1.9 0.17-1.98 0.25c-0.83-1.32-1.49-2.23-1.98-2.72c-3.22-3.22-7.84-4.7-13.87-4.46l-1.61-1.86l-1.24-1.24l2.72-0.25zm21.66 31.07c-2.56 2.56-5.86 4.21-9.9 4.95c-7.43 0.5-13.66-1.78-18.69-6.81l-2.6-2.6c0.99-0.99 1.61-1.36 1.86-1.11l1.73 1.73c2.15 2.15 4.79 3.96 7.92 5.45c7.51 2.39 13.41 1.44 17.7-2.85c3.22-3.22 4.41-7.47 3.59-12.75l-0.12-0.12c0.25-0.25 1.03-0.37 2.35-0.37c0.82 6.27-0.45 11.1-3.84 14.48v0zm24.39 6.07c-0.09 6.69-0.87 11.84-2.35 15.47c-0.99-0.66-1.53-1.03-1.61-1.11c-0.17-0.17-0.08-0.83 0.25-1.98c1.15-3.14 1.61-7.47 1.36-13c0.25-0.08 1.03 0.12 2.35 0.62v0zm3.59 4.09c2.39 2.39 4.33 5.08 5.82 8.05c2.8 4.95 3.88 9.08 3.22 12.38c-0.25-0.25-0.62-0.54-1.11-0.87c0.49-5.61-1.65-10.81-6.44-15.6l-1.73-1.73l-0.74-0.5l0.25-2.23l0.74 0.5zm28.1 28.6c-0.17 0.5 0 0.99 0.5 1.49l3.34 3.34c0.33 0.33 0.74 0.91 1.24 1.73c1.07 3.22 0.91 5.53-0.5 6.93l-0.12 0.12c0.08-0.08-0.33-0.58-1.24-1.49c0.74-2.39 0.54-4.17-0.62-5.32l-3.59-3.59c-1.4-1.4-1.69-2.93-0.87-4.58l0.12-0.12l0.62 0.62l1.11 0.87zm-108.32-88.02c0.33 0.33 2.68-1.44 7.06-5.32c2.56-1.07 4.37-1.07 5.45 0l0.12 0.12l-1.36 1.36l-0.5 0.25c-0.99-0.99-3.01 0.04-6.07 3.09c-2.97 2.97-5.57 3.34-7.8 1.11l-0.12-0.12c-0.17-0.17-0.17-0.33 0-0.5l1.11-1.11c0.91 0.74 1.61 1.11 2.1 1.11v0zm71.68 58.56c-2.81 0.5-5.37 1.9-7.68 4.21l-0.87 0.87c-0.99-0.5-1.86-0.87-2.6-1.11c-0.25-0.25 0.37-1.36 1.86-3.34l0.5-0.5c2.06-2.06 4.91-3.18 8.54-3.34l0.25 3.22zm25.38 22.9c0.82 3.14 1.32 5.78 1.49 7.92c-1.16-1.65-2.02-2.77-2.6-3.34l0.99-4.7l0.12 0.12zm-48.65-35.53c-1.16 0.99-2.23 1.73-3.22 2.23l-1.49-4.46l-0.12-0.12c1.15-1.15 2.39-3.55 3.71-7.18l3.84-0.37c0.49 4.29-0.41 7.59-2.72 9.9v0zm-5.69-18.07c0.41 0.41 0.99 1.4 1.73 2.97c0.41 4.87-0.54 8.46-2.85 10.77l-0.25 0.25c-0.41-1.24-0.7-1.94-0.87-2.1c2.47-4.79 2.72-8.17 0.74-10.15c-1.9-1.9-4.66-2.93-8.29-3.09c-0.66-0.99-1.24-1.73-1.73-2.23c5.28 0 9.12 1.2 11.51 3.59v0zm37.02 37.51c1.32 1.32 2.68 3.09 4.09 5.32c2.72 6.03 2.02 11.1-2.1 15.23c-1.16-0.66-1.78-1.03-1.86-1.11l0.25-0.25c1.07-1.07 1.94-2.52 2.6-4.33c1.57-4.38-0.08-9-4.95-13.87l-0.62-0.62c0.16-0.16 0.33-0.91 0.5-2.23l0.12-0.12l1.98 1.98zm-54.97-54.47l0.12 0.12c-2.06 0.58-3.14 0.91-3.22 0.99c-0.5 0.5-2.07-0.25-4.7-2.23l-0.12-0.12c2.06 0.08 4.7 0.5 7.92 1.24v0zm85.05 85.05c-1.24 1.9-1.4 3.3-0.5 4.21l1.61 1.61c3.3 3.3 4.17 6.73 2.6 10.28l-0.25 0.25l-0.99-1.98c0.08-2.56-0.79-4.75-2.6-6.56l-1.98-1.98c-0.41-0.41-0.66-0.91-0.74-1.49c-0.66-2.31-0.29-4.17 1.11-5.57l0.25-0.25l1.49 1.49zm-37.51-32.31c-1.49 0.16-2.89 0.91-4.21 2.23c-1.65 1.65-2.68 3.09-3.09 4.33c-0.33 2.97 0.45 5.4 2.35 7.3c0.66 0.66 0.49 1.65-0.5 2.97c-1.4-1.73-2.31-3.05-2.72-3.96c-2.39-4.21-1.78-8.13 1.86-11.76c2.15-2.15 4.33-3.26 6.56-3.34c0.08 0.41 0 1.15-0.25 2.23v0zm-68.21-68.71l0.12 0.12l-0.37 0.37l-1.11 0.87c0.08 0.08 0.04 0.21-0.12 0.37c-1.57-1.57-2.93-1.77-4.09-0.62c-3.14 3.3-4.79 5.04-4.95 5.2l-0.12 0.12c-2.39 1.4-4.25 1.44-5.57 0.12l-0.12-0.12l1.61-1.61c0.5 0.5 1.28 0.54 2.35 0.12c0.33-0.33 2.06-2.15 5.2-5.45c2.23-2.23 4.62-2.06 7.18 0.5v0zm36.52 39.74c-4.05 0.74-7.84 1.98-11.39 3.71l-1.24-1.24l-0.12-0.62c0.82-0.82 5.16-2.27 13-4.33c0.08 1.4 0 2.23-0.25 2.48v0zm38.13 37.14l-0.12 0.12c-0.25-0.25-0.74-0.5-1.49-0.74l0.25-0.74l0.12-0.12c0.74 0.91 1.15 1.4 1.24 1.49v0zm-41.47-41.47l-0.12 0.12l-0.37-0.37l0.12-0.12l0.37 0.37zm54.22 55.21l1.36 1.36c1.65 1.65 3.22 3.63 4.7 5.94c1.98 4.13 2.68 6.89 2.1 8.29c-0.5 0.5-1.03 0.62-1.61 0.37l-0.12-0.12c-1.49-1.49-4.5-3.67-9.04-6.56l0.87-1.11l0.37-0.37c0.25-0.25 2.56 1.24 6.93 4.46c-0.99-3.47-2.81-6.52-5.45-9.16l-1.61-1.61c-1.73-1.73-3.22-2.97-4.46-3.71c0.41-1.24 0.7-1.94 0.87-2.1c1.98 1.49 3.67 2.93 5.08 4.33v0zm-67.22-66.73c4.13 4.13 7.59 8.5 10.4 13.12c-0.41 0.41-0.95 0.7-1.61 0.87l-0.12 0.12c-3.22-4.87-6.48-8.96-9.78-12.26l-0.74-0.74c-0.25-0.25-0.5-0.41-0.74-0.5l-0.12-0.12c1.32-0.66 2.02-1.03 2.1-1.11l0.62 0.62zm-43.82-41.1c-1.9 1.9-4.42 2.35-7.55 1.36c0.66-0.99 1.15-1.65 1.49-1.98l0.74-0.74c0.91-0.91 2.02-1.69 3.34-2.35c0.99 2.15 1.65 3.38 1.98 3.71v0zm4.58 2.85c-2.72 2.72-5.78 4.04-9.16 3.96c-7.84-1.4-13.45-0.41-16.84 2.97l-0.5 0.5c-0.66 0.66-0.87 1.2-0.62 1.61l0.25 0.25c1.07 1.07 2.56 0.99 4.46-0.25c0.58-0.58 1.28-1.69 2.1-3.34c0.33-0.33 1.15-0.58 2.48-0.74c-0.66 2.31-1.69 4.17-3.09 5.57c-2.23 2.23-4.83 2.27-7.8 0.12c-1.07-1.07-0.91-2.56 0.5-4.46l0.99-0.99c2.56-2.56 6.93-3.96 13.12-4.21c5.2 1.57 9.37 0.79 12.5-2.35l1.24 1.24l0.37 0.12zm22.04 28.23c4.62 1.15 8.58 3.05 11.88 5.69c-0.99 0.99-1.53 1.44-1.61 1.36c-2.97-1.82-5.65-3.26-8.05-4.33l-0.37 0.37c4.37 5.36 7.8 10.11 10.28 14.24l-0.74 0.5l-0.87 0.87c-1.98-3.14-5.12-7.59-9.41-13.37c-2.64-2.64-3.59-4.33-2.85-5.08c0.08-0.08 0.66-0.16 1.73-0.25v0zm121.2 115.26l1.24 1.24c-2.39 2.39-3.47 5.12-3.22 8.17c1.32 8.09 0.21 13.91-3.34 17.46l-0.99 0.99c-1.9 1.4-3.39 1.57-4.46 0.5l-0.74-0.74c-1.4-2.89-1.16-5.28 0.74-7.18c1.07-1.07 2.89-2.15 5.45-3.22c0.16 0.16 0.04 0.95-0.37 2.35c-1.9 1.24-3.01 2.02-3.34 2.35c-1.4 1.9-1.53 3.42-0.37 4.58l0.25 0.25c0.33 0.17 0.74 0 1.24-0.5l0.99-0.99c2.48-2.48 3.59-6.64 3.34-12.5c-1.24-5.2-0.12-9.53 3.34-13l0.12-0.12l0.12 0.37zm6.44 6.19c-0.5 1.15-1.4 2.39-2.72 3.71l-0.74 0.74c-0.17 0.17-0.7 0.54-1.61 1.11c-0.91-3.39-0.54-5.9 1.11-7.55l3.96 1.98zm-52.74-52.49l-0.74 1.98l-0.12 0.12c-5.94-4.29-10.73-7.34-14.36-9.16c-0.25-0.25-0.04-0.79 0.62-1.61l0.37-0.37c4.62 2.48 9.37 5.49 14.24 9.04v0zm27.36 27.85c-0.83 0.83-0.25 2.81 1.73 5.94c2.8 3.47 3.14 6.27 0.99 8.42l-0.25 0.25l-0.99-1.73c0.58-0.91 0.7-1.86 0.37-2.85c-4.04-5.86-5.2-9.66-3.47-11.39l0.12-0.12l1.49 1.49zm-19.56-16.84c0.33 0.33 0.53 0.62 0.62 0.87c0.5 0.5-0.74 2.23-3.71 5.2l-2.35 2.35c-2.56 2.56-6.36 4.38-11.39 5.45c-7.18 0.25-12.05-0.91-14.61-3.47l0.12-0.12c0.33-0.33 0.78-0.7 1.36-1.11c2.39 1.24 4.7 2.06 6.93 2.48c7.01 0.41 12.17-1.03 15.47-4.33l2.85-2.85c1.24-1.24 2.64-2.89 4.21-4.95l0.5 0.5zm-46.8-38.63l-0.25 0.25l-1.98 0.25c-2.73-7.84-4.54-12.22-5.45-13.12c1.24-0.25 1.94-0.45 2.1-0.62c0.74 0.74 2.6 5.16 5.57 13.25v0zm-16.22-23.4c-2.89 0.91-4.91 1.94-6.07 3.09l-0.62 0.62c-1.82 1.82-1.82 4.7 0 8.67c-0.99 0.66-1.61 1.11-1.86 1.36c-2.39-5.2-2.27-9.12 0.37-11.76l0.37-0.37c1.24-1.24 3.26-2.35 6.07-3.34l1.73 1.73zm-39.74-29.84c2.31-2.31 4.62-2.89 6.93-1.73l-0.87 1.11l-0.37 0.37c-1.49-0.16-2.97 0.5-4.46 1.98l-0.25 0.25c-1.98 2.31-3.05 3.55-3.22 3.71l-0.25 0.25c-0.91 0.91-2.52 0.95-4.83 0.12c-0.33-0.33-0.04-0.95 0.87-1.86c0.99 0.33 1.81 0.41 2.48 0.25c0.25-0.25 1.44-1.61 3.59-4.09l0.37-0.37zm34.66 26.25l-0.25 0.25l-0.5 0.25c-0.41-0.91-0.7-1.44-0.87-1.61l0.12-0.12l1.49 1.24zm7.55 9.53c-0.25 0.25-0.91 0.58-1.98 0.99c-0.58-1.07-1.28-2.19-2.1-3.34l1.73-0.5c1.07 1.07 1.86 2.02 2.35 2.85v0zm49.52 49.02l-0.12 0.37l-0.37 0.37l-3.71-2.23c-0.33-0.33-0.21-0.78 0.37-1.36c2.47 1.82 3.75 2.76 3.84 2.85v0zm-5.94-5.69c-2.15 5.61-3.71 8.91-4.7 9.9l-0.12 0.12c-0.08-0.08-0.5-0.41-1.24-0.99l-0.25-0.25c2.06-4.04 3.51-7.39 4.33-10.03c0.08-0.08 0.74 0.33 1.98 1.24v0zm-10.15-9.66c-0.41 1.07-0.7 1.69-0.87 1.86l-0.25 0.25c-10.73-4.79-21.17-5.82-31.32-3.09c-0.25-1.4-0.33-2.15-0.25-2.23c11.06-2.64 21.95-1.57 32.68 3.22v0zm23.03 23.77l0.12 0.12l-1.24 1.24l-0.12 0.37l-13.25-7.8l0.74-1.98c4.87 2.72 9.45 5.41 13.74 8.05v0zm-82.95-82.2l0.99 0.99c-0.08 0.08-0.17 0.33-0.25 0.74l-0.62 0.62c-1.07 1.07-3.14 3.88-6.19 8.42l-0.12-0.12l-1.49-1.24c1.57-2.23 3.13-4.46 4.7-6.69l-0.25-0.25c-3.8 1.49-7.02 3.55-9.66 6.19l-0.99 0.99c-0.74 0.74-2.02 2.27-3.84 4.58c-0.33-0.33-0.99-0.66-1.98-0.99c1.57-2.06 3.01-3.75 4.33-5.08l0.99-0.99c4.62-4.62 9.41-7.02 14.36-7.18v0zm78.74 109.44c7.84-5.36 11.8-8.09 11.88-8.17c3.63-3.3 5.65-4.75 6.07-4.33l0.62 0.62c0.49 2.64-1.4 7.18-5.69 13.62c-0.08-0.08-0.54-0.7-1.36-1.86c1.98-3.14 3.42-5.9 4.33-8.29l-0.12-0.12c-5.69 4.21-10.48 7.59-14.36 10.15c-0.08-0.08-0.5-0.58-1.24-1.49l-0.12-0.12zm27.85-1.61l-0.87 0.62c-0.17 0.17-0.09 0.74 0.25 1.73c3.71 5.04 4.13 9 1.24 11.88l-0.12 0.12c-0.17-0.17-0.45-0.78-0.87-1.86c0.91-2.56 1.11-4.09 0.62-4.58c-3.05-4.54-4-7.39-2.85-8.54l1.49-1.24c0.33 0.33 0.7 0.95 1.11 1.86v0zm-72.55-71.56l-0.12 0.12c-3.72 0.58-7.06-0.62-10.03-3.59l-1.11-1.11c-1.49-1.49-2.81-3.47-3.96-5.94c-0.91-0.91-0.95-1.77-0.12-2.6c0.08 0.08 0.33-0.08 0.74-0.5c2.56 4.54 4.33 7.3 5.32 8.29c2.48 2.48 5.24 3.59 8.29 3.34c0.25 0.25 0.58 0.91 0.99 1.98v0zm58.56 58.8l0.5 0.5l-8.17 6.19c-3.3-2.48-6.27-4.37-8.91-5.69l-0.12-0.12c2.97-0.83 6.07-2.85 9.28-6.07c3.05 1.57 5.53 3.3 7.43 5.2v0zm-85.55-81.83c-1.98 2.97-3.55 5.69-4.7 8.17l-0.12 0.12c-1.16-3.96-2.85-7.06-5.08-9.28l-0.5-0.5c2.31-3.47 3.8-5.53 4.46-6.19c2.56 3.05 4.54 5.61 5.94 7.68v0zm3.59 2.6c0.5 0.5-0.08 1.65-1.73 3.47c-2.97 5.28-4.33 10.03-4.09 14.24c0.5 3.96 1.65 6.85 3.47 8.67h0.5v0.5c1.49 1.49 3.42 2.85 5.82 4.09l-1.11 0.87c-0.91 0.91-2.85-0.12-5.82-3.09c-4.04-4.04-5.65-9.2-4.83-15.47c1.4-5.69 3.71-10.48 6.93-14.36c0.25 0.41 0.54 0.78 0.87 1.11v0zm23.77 25.25c-1.24 0.08-3.43-0.7-6.56-2.35l-0.12-0.12l0.12-0.12c2.06 0.91 4 1.11 5.82 0.62c0.33 0.33 0.58 0.99 0.74 1.98v0zm22.78 21.54c0.08 1.24 0.08 1.9 0 1.98l-0.12-0.12l-0.5-1.73c0.16-0.16 0.37-0.21 0.62-0.12v0zm-14.48-10.52l-0.12 0.12c-1.16 0-1.78 0.04-1.86 0.12c-0.17-0.17-0.62-1.61-1.36-4.33l0.12-0.12l2.23-0.5c0.58 3.05 0.91 4.62 0.99 4.7v0zm10.89 7.92l-0.12 0.12c0.58 6.52 3.05 11.97 7.43 16.34c3.63 3.63 7.26 5.12 10.89 4.46c0.66-0.66 1.73-0.41 3.22 0.74l-0.25 0.25c-5.04 2.56-10.03 1.36-14.98-3.59c-5.45-5.45-8.25-11.72-8.42-18.82l0.25-0.25c0.08 0.08 0.74 0.33 1.98 0.74v0zm12.38 25.5c3.05 0.91 6.1 0.74 9.16-0.5c0.99-0.99 2.02-0.95 3.09 0.12c-4.7 4.7-10.57 5.86-17.58 3.47l0.87-0.87c0.58-0.58 1.48-1.57 2.72-2.97l1.73 0.74zm-84.18-96.32l-0.62 0.87l-0.87 0.87c-0.66-0.66-1.65-0.5-2.97 0.5l-0.37 0.37c-2.56 3.88-4.04 6.03-4.46 6.44c-2.06 1.4-3.63 1.57-4.7 0.5c0.33-0.99 0.58-1.57 0.74-1.73l0.12-0.12c0.5 0.5 1.2 0.45 2.1-0.12l0.25-0.25c2.56-3.88 4.04-6.02 4.46-6.44c2.72-2.06 4.83-2.35 6.31-0.87v0zm30.45 31.44l-0.99 3.22c-0.58 2.89-0.09 5.94 1.49 9.16c-0.08 0.08-0.21 0.04-0.37-0.12c-1.98 1.82-3.26 3.01-3.84 3.59c-0.5-0.5-0.79-1.94-0.87-4.33c0.25-4.04 1.61-8.05 4.09-12.01l0.5 0.5zm92.85 95.33l-0.5 0.5l-0.87 0.62c-0.5 0.5 0.12 2.35 1.86 5.57c2.47 3.63 2.72 6.44 0.74 8.42l-1.36 1.36l-0.37 0.12c-0.17-1.16-0.33-1.82-0.5-1.98c1.24-1.24 1.57-2.72 0.99-4.46c-3.55-5.36-4.46-8.91-2.72-10.65c0.08 0.08 0.16 0.08 0.25 0l1.49-1.49l0.99 1.98zm-84.31-84.06l0.87 0.87c-4.38 2.89-7.22 4.99-8.54 6.31c-1.49 1.65-2.35 2.6-2.6 2.85l-0.87-0.87l-0.62-0.87l1.11-1.11c0.41-0.41 0.82-0.91 1.24-1.49c3.38-2.89 6.31-5.08 8.79-6.56l0.62 0.87zm27.73 27.98c0.16 2.64 0.33 4.04 0.5 4.21l-0.12 0.12c-0.58-0.58-1.36-1.11-2.35-1.61c0.08-0.08 0.08-1.07 0-2.97c0.16-0.16 0.82-0.08 1.98 0.25v0zm-11.27-9.04c-1.98 0.16-3.01 0.29-3.09 0.37c-0.83-1.32-1.4-2.15-1.73-2.48l0.12-0.12c0.25 0.25 1.61 0.45 4.09 0.62c0.25 0.25 0.45 0.79 0.62 1.61v0zm58.68 59.18c-0.17 0.33-0.54 2.1-1.11 5.32c-0.33-0.33-0.41-0.58-0.25-0.74c-0.99-0.99-0.7-2.44 0.87-4.33l0.37-0.37l0.12 0.12zm-52.24-47.04l-2.1-0.12c0-2.31-0.12-4.09-0.37-5.32l1.86 0.12v0c0.41 0.41 0.62 2.19 0.62 5.32v0zm-56.82-60.79l-0.5 0.5c-0.83 0.83-1.82 0.91-2.97 0.25l-0.12-0.12c2.31-0.5 3.51-0.7 3.59-0.62v0zm-13.99-11.51c0.08 0.08-0.29 0.79-1.11 2.1c-0.99-0.5-1.82-0.41-2.48 0.25l-0.99 0.99c-1.73 3.71-2.77 5.74-3.09 6.07c-1.24 1.24-3.26 1.53-6.07 0.87l-0.25-0.25c0.16-0.16 0.58-0.74 1.24-1.73c1.73 0.25 2.85 0.12 3.34-0.37l0.37-0.37c1.49-3.47 2.6-5.57 3.34-6.31l0.25-0.25c1.57-1.57 3.38-1.9 5.45-0.99v0zm20.18 21.42l1.86 1.86c3.47 3.47 5.28 8.67 5.45 15.6c0.16 4.46-0.7 8.21-2.6 11.27l-1.49-1.49c-0.17-0.17 0.04-0.54 0.62-1.11c2.8-10.07 1.44-17.87-4.09-23.4l-0.87-0.87c-0.99-0.99-2.39-2.23-4.21-3.71l0.74-1.24c0.5-0.5 2.02 0.54 4.58 3.09v0zm38.87 55.96c6.68-4.54 11.8-5.04 15.35-1.49l1.49 1.49c3.14 3.14 4 6.97 2.6 11.51l-0.12 0.12c-0.66-0.99-1.11-1.61-1.36-1.86c0.49-3.3-0.54-6.23-3.09-8.79l-0.87-0.87c-2.97-2.97-7.3-2.35-13 1.86l-1.36 1.36c-0.74 0.74-1.4 1.73-1.98 2.97c-2.48 4.79-1.36 9.53 3.34 14.24l0.37 0.12c-0.08 0.08-0.46 0.62-1.11 1.61c-0.08 0.08-0.29 0.04-0.62-0.12c-0.83-0.83-1.9-2.15-3.22-3.96c-3.47-6.27-2.81-11.8 1.98-16.59l1.61-1.61zm-16.71-19.93c5.69-2.89 10.36-2.52 13.99 1.11l0.25 0.25c0.66 0.66 1.32 1.65 1.98 2.97c-0.33 0.33-0.99 0.58-1.98 0.74c-0.66-0.99-1.24-1.73-1.73-2.23c-0.5-0.5-1.28-1.11-2.35-1.86c-4.29-1.32-7.76-0.66-10.4 1.98c-1.65 1.65-2.11 3.67-1.36 6.07c-0.33 0.33-0.91 0.66-1.73 0.99l-0.25-0.25c-0.83-3.47-0.29-6.15 1.61-8.05c0.41-0.41 1.07-0.99 1.98-1.73v0zm47.17 34.29l0.12 0.12c-1.57 1.73-2.48 2.72-2.72 2.97c-4.38 4.38-8.92 7.1-13.62 8.17c-3.63 0.82-6.77 0.66-9.41-0.5c0.08-0.08 0.41-0.66 0.99-1.73c6.85 1.73 13.62-0.74 20.3-7.43c0.16-0.16 0.95-1.03 2.35-2.6c0.25-0.25 0.91 0.08 1.98 0.99v0zm-23.89-23.65l0.37 2.85c-2.23 0.58-3.55 1.07-3.96 1.49l-0.12-0.12c0.33-0.33 0.7-1.78 1.11-4.33c1.57 0.25 2.43 0.29 2.6 0.12v0zm27.98 37.39c6.1 0.99 11.84 3.67 17.21 8.05c-1.07 0.58-1.73 0.99-1.98 1.24c-0.08 0.08-0.62-0.29-1.61-1.11c-10.15-7.18-18.16-7.84-24.02-1.98c-1.9 2.23-3.39 4.29-4.46 6.19c-0.41-0.58-0.79-1.03-1.11-1.36c-0.5-0.5 0.91-2.64 4.21-6.44c3.14-3.14 7.05-4.66 11.76-4.58v0zm26.49 26.49c-0.99 7.76-3.84 13.99-8.54 18.69c-1.57 1.57-4.21 3.22-7.92 4.95l-0.12-0.12c-0.08-0.08-0.08-0.83 0-2.23c2.97-1.32 5.03-2.56 6.19-3.71c1.65-1.65 3.59-4.42 5.82-8.29c3.8-9.41 2.89-16.92-2.72-22.53l-0.12-0.12c0.91-0.74 1.44-1.11 1.61-1.11c3.8 3.8 5.74 8.63 5.82 14.48v0zm9.66 2.23l-0.37 0.12l-0.74 0.74l-0.12 0.37c2.39 7.18 2.52 11.84 0.37 13.99l-0.37 0.37c-0.41-0.91-0.7-1.44-0.87-1.61c0.82-2.64 0.82-5.28 0-7.92c-1.4-3.39-1.53-5.65-0.37-6.81l0.25-0.25l1.11-0.87c0.16 0.16 0.54 0.78 1.11 1.86v0zm-130.48-119.34c4.54-1.07 8.54-0.87 12.01 0.62l0.12 0.12l-1.73 1.73c-1.65-0.82-4.21-1.07-7.68-0.74c-7.43 1.82-13.37 4.95-17.83 9.41c-2.23 2.23-3.76 4.58-4.58 7.06c-1.57 6.03-0.62 10.77 2.85 14.24l1.11 1.11c1.15 1.15 2.97 2.23 5.45 3.22c0.16 0.33 0.04 1.03-0.37 2.1c-2.81-0.83-5.08-2.1-6.81-3.84l-0.5-0.5c-1.4-1.4-2.52-3.01-3.34-4.83c-2.56-7.68-1.16-14.19 4.21-19.56l0.74-0.74c3.8-3.8 9.24-6.93 16.34-9.41v0zm48.9 37.76c-1.73 0.25-2.64 0.41-2.72 0.5c-1.65 0.82-3.26 0.45-4.83-1.11l2.97-2.97c0.16-0.16 0.41-0.16 0.74 0l2.72 2.72l1.11 0.87zm36.52 36.77l0.25 0.25l-2.85 2.85c-0.25-0.58-0.58-1.07-0.99-1.49c-0.09-0.25 0.25-1.73 0.99-4.46c1.15 1.32 2.02 2.27 2.6 2.85v0zm-66.48-64.75c-0.41 0.41-3.05 4.79-7.92 13.12c-0.25 0.08-0.87-0.21-1.86-0.87l-0.12-0.12l8.29-13.74l1.61 1.61zm41.97 42.71c-0.09 3.22-1.32 6.03-3.71 8.42c-2.07 1.73-4.04 3.05-5.94 3.96c-5.78 1.98-11.23 0.41-16.34-4.7c-1.49-1.49-2.52-3.01-3.09-4.58c-1.49-4.46-0.79-9.78 2.1-15.97l0.12-0.12l1.61 1.61c-0.66 0.66-1.36 3.09-2.1 7.3c-0.91 4.04 0 7.43 2.72 10.15c1.9 1.9 4.13 3.38 6.69 4.46c4.62 1.32 8.87 0.04 12.75-3.84c1.9-1.9 2.85-4 2.85-6.31c1.07-0.41 1.86-0.54 2.35-0.37v0zm10.15 10.15l0.25 0.25c-0.41 5.37-1.53 10.36-3.34 14.98c-0.33 0.33-1.03-0.04-2.1-1.11l0.12-0.12c1.57-3.88 2.64-8.58 3.22-14.11c0.16-0.16 0.78-0.12 1.86 0.12v0zm-49.4-46.92c1.9 4.54 2.19 9.2 0.87 13.99c-0.08 0.08-1.03-0.7-2.85-2.35c-0.17-0.17 0.04-0.78 0.62-1.86c0.99-3.47 0.74-6.69-0.74-9.66c-0.74-0.74-0.54-1.69 0.62-2.85l1.49 2.72zm93.84 94.33l-2.23 2.23c-2.56 2.56-6.36 5.45-11.39 8.67c-0.17-0.17-0.54-0.87-1.11-2.1c5.2-3.05 9.2-5.98 12.01-8.79c0.16-0.5 0.5-0.99 0.99-1.49l0.74-0.74c0.91 1.24 1.24 1.98 0.99 2.23v0zm-3.34-3.59l-1.49 1.49l-0.25-0.5c0.66-0.66 1.2-1.03 1.61-1.11l0.12 0.12zm-17.7-10.77c3.3 0.33 7.01 1.98 11.14 4.95l0.25 0.25c-0.58 0.41-1.11 0.37-1.61-0.12c-2.97-1.32-6.69-1.15-11.14 0.5c-0.99-1.15-1.73-1.98-2.23-2.48l-1.98-1.98c0.82-0.82 2.68-1.2 5.57-1.11v0zm-47.79-50.51c0.99-0.99 2.64-0.33 4.95 1.98l0.5 0.5c2.23 3.22 1.98 6.19-0.74 8.91c-0.41 0.41-1.36 1.03-2.85 1.86c-2.81 0.33-4.7 0-5.69-0.99l-0.37-0.37l2.48-0.74c2.23 0.25 3.88-0.16 4.95-1.24c2.15-2.15 2.23-4.21 0.25-6.19c-0.83-0.83-2.31-1.98-4.46-3.47c0.49-0.33 0.82-0.41 0.99-0.25v0zm26.62 24.39c2.39 2.39 5.07 5.98 8.05 10.77l-0.12 0.12c-0.33 0.33-0.79 0.7-1.36 1.11l-0.12 0.12c-3.14-4.95-5.86-8.58-8.17-10.89c0.16-0.16 0.37-0.78 0.62-1.86c0.16-0.16 0.54 0.04 1.11 0.62v0zm-81.58-80.84c-0.17 0.66-0.41 1.32-0.74 1.98c-1.32-0.33-2.31-0.16-2.97 0.5l-1.36 1.36c-1.74 3.88-2.85 6.07-3.34 6.56l-0.12 0.12c-0.66 0.66-1.86 0.87-3.59 0.62c0.16-0.16 0.33-0.74 0.5-1.73l0.12-0.12c0.82-0.17 1.44-0.45 1.86-0.87c1.32-3.3 2.6-5.57 3.84-6.81l0.37-0.37c1.57-1.57 3.38-1.98 5.45-1.24v0zm1.61 19.68c5.45-3.14 9.99-4.46 13.62-3.96l0.12 0.12l-0.5 0.5l-0.5 0.74c-5.94-0.5-11.31 1.65-16.09 6.44c-0.09 0.25-0.25 0.5-0.5 0.74l-1.49 1.49c-1.16 0.17-1.82 0.16-1.98 0v-0.5c0.08-0.08 0.16-0.08 0.25 0c0.08-0.08 0.16-0.25 0.25-0.5c1.73-1.73 4-3.43 6.81-5.08v0zm115.5 123.68l-0.74 0.74c-0.41 0.41-1.32 1.07-2.72 1.98l-0.25-1.98c1.15-0.83 1.9-1.4 2.23-1.73l1.36-1.36c2.39-2.39 3.71-6.69 3.96-12.88l1.73-1.73l1.11-0.87c0.5 6.93-1.73 12.88-6.69 17.83v0zm-106.59-123.43c4.37-0.41 7.88 0.7 10.52 3.34c0.16 0.16-0.08 0.83-0.74 1.98l-0.12 0.12c-0.74-0.74-1.82-1.49-3.22-2.23c-4.79-2.64-10.03-1.11-15.72 4.58l-0.37 0.37c-0.17-0.17-0.91-0.41-2.23-0.74l1.36-1.36c3.47-3.47 6.97-5.49 10.52-6.07v0zm103.25 96.32l0.12 0.12c1.32 1.32 2.43 3.34 3.34 6.07l-1.86 1.61l-0.12-0.12c-0.58-2.56-1.61-4.58-3.09-6.07c-2.23-2.23-5.2-2.31-8.91-0.25c-0.5-0.99-0.95-1.69-1.36-2.1c5.12-2.31 9.08-2.06 11.88 0.74v0zm-88.76-88.52c0.25 0.25 0.58 0.82 0.99 1.73c1.32 4.62-0.17 9.08-4.46 13.37l-0.25 0.25c-5.12 5.12-11.23 7.76-18.32 7.92l-0.12-0.12c0.16-0.16 0.37-0.78 0.62-1.86c6.52-0.74 11.97-3.3 16.34-7.68c3.71-3.88 5.12-7.51 4.21-10.89c-0.41-0.41-0.12-1.36 0.87-2.85l0.12 0.12zm50.14 52.37c-1.08 0.74-1.69 1.2-1.86 1.36l-0.37 0.37c-2.15 2.48-2.19 4.75-0.12 6.81l0.99 0.99c2.56 2.56 5.53 2.15 8.91-1.24l0.25-0.25l1.24 1.73l0.12 0.12c-0.41 0.41-1.16 1.07-2.23 1.98c-4.21 2.06-7.55 1.86-10.03-0.62c-0.83-0.83-1.61-2.02-2.35-3.59c-1.16-2.8-0.54-5.4 1.86-7.8c0.91-0.91 2.15-1.57 3.71-1.98c0.08 0.08 0.04 0.78-0.12 2.1v0zm60.79 60.79c-0.08 0.08-0.29 0.21-0.62 0.37c-0.41 0.41-0.66 0.99-0.74 1.73c2.39 5.2 2.76 8.63 1.11 10.28l-0.99 0.99c-0.5 0.5-1.24 0.91-2.23 1.24c-0.33-1.15-0.5-1.82-0.5-1.98l1.86-1.11c0.74-0.74 0.91-2.15 0.5-4.21c-2.06-4.04-2.35-6.81-0.87-8.29l1.98-1.49c0.16 0.16 0.33 0.99 0.5 2.48v0zm-77.75-78.49c0.25 0.25 0.04 1.03-0.62 2.35c-0.08-0.08-0.66 0-1.73 0.25c-6.19 2.23-9.62 3.43-10.28 3.59l-0.74-0.74c-0.17-0.17-0.29-0.37-0.37-0.62c0.74-0.74 5.24-2.44 13.49-5.08l0.25 0.25zm-4.21-2.23l0.12 0.12c-0.91 0.41-1.4 0.66-1.49 0.74l-0.12-0.12c-0.17-0.33-0.13-0.78 0.12-1.36c0.16-0.16 0.62 0.04 1.36 0.62v0zm26.49 26.74l-0.5 0.5l-0.12-0.12c0.08-0.08 0.12-0.29 0.12-0.62l0.12-0.12l0.37 0.37zm22.9 35.28c4.29-2.97 6.6-4.29 6.93-3.96l1.24 1.24l-0.12 0.12c-4.29 2.48-7.02 4.29-8.17 5.45c-2.39 2.39-3.51 5.08-3.34 8.05c-0.08 0.08-0.79 0.45-2.1 1.11c-0.41-4.04 0.95-7.63 4.09-10.77c0.41-0.25 0.91-0.66 1.49-1.24v0zm-13.99-22.41c0.5-0.5 1.69-0.04 3.59 1.36l0.12 0.12c-0.66 0.33-1.57 0.99-2.72 1.98l-4.7-1.73c2.39-1.07 3.63-1.65 3.71-1.73v0zm-50.14-50.63c0.41 0.41 0.16 1.49-0.74 3.22c-0.83-1.65-1.36-2.6-1.61-2.85c-0.74-0.74-0.54-1.94 0.62-3.59c0.91 1.9 1.49 2.97 1.73 3.22v0zm-24.26-25.25l0.25 0.25c-4.38 6.02-7.43 10.89-9.16 14.61c-0.91-0.25-1.44-0.45-1.61-0.62l-0.37-0.37c1.48-3.3 4.45-8.01 8.91-14.11c0.16-0.16 0.82-0.08 1.98 0.25v0zm2.85 3.34l-2.6 3.84c-0.25-0.25-0.62-0.37-1.11-0.37c1.65-2.48 2.64-3.88 2.97-4.21l0.74 0.74zm28.23 28.23c-0.25 0.25-0.41 0.5-0.5 0.74l-0.12 0.12l-0.12-0.12c0.16-0.16 0.33-0.5 0.5-0.99l0.25 0.25zm66.36 69.08c-0.33 0.33-1.32 1.07-2.97 2.23c-0.08-0.08-0.33-0.66-0.74-1.73c0.91-0.91 1.94-1.69 3.09-2.35c0.33 0.33 0.54 0.95 0.62 1.86v0zm5.57 4.33c-0.17 4.95-1.24 8.42-3.22 10.4l-0.87 0.87c-0.99 0.99-2.31 1.65-3.96 1.98c-4.29-0.16-7.43-1.24-9.41-3.22c0.33-0.33 0.91-0.66 1.73-0.99c4.87 2.39 8.21 2.68 10.03 0.87l0.74-0.74c1.4-1.4 2.31-4.04 2.72-7.92c0.16 0.16 0.82-0.25 1.98-1.24l0.12-0.12l0.12 0.12zm-127.02-125.78c0.08 0.08-0.21 0.7-0.87 1.86c-0.91 0.08-1.53 0.29-1.86 0.62l-0.25 0.25c-0.25 0.25-0.46 0.62-0.62 1.11c-0.74 3.71-1.49 5.94-2.23 6.69l-0.12 0.12c-1.07 1.07-2.85 1.44-5.32 1.11c0.08-0.08 0.29-0.7 0.62-1.86c1.73-0.08 2.85-0.37 3.34-0.87l0.25-0.25c0.99-4.46 1.69-6.89 2.1-7.3l0.74-0.74c1.07-1.07 2.47-1.32 4.21-0.74v0zm37.51 39.74c7.59 7.59 10.15 15.27 7.68 23.03c-0.17 0.17-0.74-0.16-1.73-0.99c1.81-6.93-0.66-13.78-7.43-20.55c-0.83-0.66-1.65-1.4-2.48-2.23c-0.17-0.17 0.12-0.78 0.87-1.86l3.09 2.6zm104.24 105.48l-2.23 0.74c-0.5 0.5-0.66 1.57-0.5 3.22c1.81 4.95 1.86 8.29 0.12 10.03l-0.5 0.5l-1.11 0.87l-0.12-0.12c-0.17-1.16-0.33-1.82-0.5-1.98l0.5-0.5c0.66-0.66 0.99-1.65 0.99-2.97c-1.82-5.45-1.98-8.91-0.5-10.4l0.12-0.12c0.41-0.41 1.32-0.82 2.72-1.24c0.25 0.25 0.58 0.91 0.99 1.98v0zm-37.51-38.25l1.61 1.61c1.81 1.81 3.96 4.7 6.44 8.67l-0.87 0.62l-0.74 0.74c-2.56-4.04-4.58-6.81-6.07-8.29l-2.1-2.1l-1.11-0.87l0.74-0.99l0.62-0.62l1.49 1.24zm-50.39-46.42l-0.37 0.12c-0.08-0.08-0.13-1.28-0.12-3.59l0.12-0.12c0.08 1.9 0.21 3.09 0.37 3.59v0zm-23.52-26.49c-0.17 0.17-0.62 0.78-1.36 1.86c-4.46-2.48-7.76-4.04-9.9-4.7c0.33-0.33 0.74-0.91 1.24-1.73c3.46 1.15 6.81 2.68 10.03 4.58v0zm51.5 66.6c4.87-1.4 10.36-0.62 16.47 2.35l-1.49 1.49c-3.55-1.4-5.78-2.06-6.69-1.98c-4.38-1.07-8.09-0.08-11.14 2.97c-2.97 2.97-4.54 6.52-4.7 10.65c0.58 3.39 2.02 6.23 4.33 8.54c1.73 1.73 4.04 2.72 6.93 2.97c0 1.15 0.08 1.81 0.25 1.98c-3.3 0.16-6.19-0.99-8.67-3.47c-1.49-1.49-2.97-3.8-4.46-6.93c-1.57-5.53 0.04-10.69 4.83-15.47c1.32-0.99 2.76-2.02 4.33-3.09v0zm-11.76-25.13c-0.41 0.41-0.79 1.44-1.11 3.09l-0.12 0.12l-1.98-1.98l-0.37-0.12l0.12-0.12c1.9-0.41 3.01-0.78 3.34-1.11l0.12 0.12zm-53.48-52l-1.11 1.36c-0.08 0.08-0.41 0-0.99-0.25c0.16-0.16 0.78-0.62 1.86-1.36l0.25 0.25zm98.92 100.15c1.73 4.37 2.76 8.21 3.09 11.51c-0.08 0.08-0.74 0.08-1.98 0c-0.99-4.46-2.23-8.34-3.71-11.64l1.61-1.61c0.25 0.25 0.58 0.82 0.99 1.73v0zm-76.26-76.26l0.25 0.25l-0.37 0.37c-5.78 3.14-9.37 5.41-10.77 6.81l-0.5 0.5c-0.41 0.08-1.36-0.04-2.85-0.37l2.48-2.48c0.66-0.66 4.17-2.85 10.52-6.56l1.24 1.49zm43.7 43.7c-1.16 2.15-2.44 4.17-3.84 6.07c-0.5 0.5-0.21 1.44 0.87 2.85c-0.83 0.66-1.36 1.03-1.61 1.11c-1.49-1.82-2.27-2.93-2.35-3.34c2.48-3.47 4.08-5.98 4.83-7.55c0.16-0.16 0.87 0.12 2.1 0.87v0zm24.88 25.87l-2.97 2.97c-0.5 0.5-1.32 1.49-2.48 2.97c-4.87 8.99-4.62 16.18 0.74 21.54l0.62 0.62c2.89 2.89 7.06 3.84 12.5 2.85c0.08 0.08 0.08 0.82 0 2.23c-5.94 0.99-10.69-0.29-14.24-3.84l-0.5-0.5c-2.48-2.48-4-5.65-4.58-9.53c-0.5-7.26 1.69-13.33 6.56-18.2l2.85-2.85c0.25 0.25 0.74 0.83 1.49 1.73v0zm-72.67-72.42c-0.91 0.41-1.44 0.7-1.61 0.87c-0.17 0.17-1.53-0.04-4.09-0.62l-0.25-0.25c1.57-1.24 2.6-2.1 3.09-2.6l0.12-0.12l2.72 2.72zm67.22 67.47l1.49 1.73c-0.33 0.33-0.79 0.7-1.36 1.11c-1.08 1.24-1.86 2.1-2.35 2.6l-0.25 0.25l-0.25-2.48c-0.91-1.57-0.62-3.09 0.87-4.58l0.25-0.25l1.61 1.61zm-89.63-75.76c1.65 1.65 4.25 1.44 7.8-0.62c1.4-1.4 2.68-1.53 3.84-0.37l0.12 0.12c-1.16 1.16-2.85 2.27-5.08 3.34c-3.72 1.4-7.18 0.5-10.4-2.72l-0.37-0.37c-2.06-2.06-3.05-4.13-2.97-6.19l0.12-0.12c0.16 0.16 0.78 0.29 1.86 0.37l0.25 0.25c0.16 1.49 0.95 2.93 2.35 4.33l0.12 0.12c1.4 1.4 2.19 2.02 2.35 1.86v0zm81.09 69.95l0.12 0.12c-0.17 0.17-0.54 0.12-1.11-0.12l-0.12-0.12l0.12-0.12c0.16 0.16 0.5 0.25 0.99 0.25v0zm-78.86-78.36c0.16 0.16-0.17 0.74-0.99 1.73c-4.29-1.32-9.37-2.02-15.23-2.1c0.58-1.24 0.91-1.9 0.99-1.98c5.2-0.25 10.27 0.54 15.23 2.35v0zm-22.9-22.66c0.16 0.16 0.08 0.74-0.25 1.73l-0.12 0.12c-1.49 0-2.48 0.16-2.97 0.5c-0.33 0.33-0.83 1.4-1.49 3.22c0.08 2.89-0.45 4.91-1.61 6.07l-0.25 0.25c-0.83 0.83-1.86 1.2-3.09 1.11c-0.08-0.08-0.04-0.79 0.12-2.1c0.66 0 1.24-0.25 1.73-0.74l0.5-0.5c0.49-4.62 1.36-7.55 2.6-8.79c0.99-0.99 2.6-1.28 4.83-0.87v0zm51.25 67.35c9.16-1.07 16.63 1.28 22.41 7.06c3.22 3.22 5.49 7.14 6.81 11.76c2.06 10.15-0.12 18.45-6.56 24.88c-2.39 2.39-5.41 4.33-9.04 5.82c-10.98 3.55-20.14 1.65-27.48-5.69l-0.12-0.12c-3.88-3.88-6.27-8.5-7.18-13.87c-1.24-9 1.11-16.47 7.06-22.41l0.25-0.25c3.8-3.8 8.42-6.19 13.87-7.18v0zm-4.83-18.2c1.65 3.8 1.49 6.69-0.5 8.67l-1.11 1.11c-0.91 0.91-1.94 1.61-3.09 2.1c-2.73 0.91-5.41 0.04-8.05-2.6c-1.49-1.49-2.19-2.68-2.1-3.59c0.16 0.16 0.91 0.33 2.23 0.5l0.74 0.99l0.99 0.99c2.89 2.39 5.36 2.56 7.43 0.5l1.73-1.73c1.4-2.89 0.66-5.78-2.23-8.67l-0.25-0.25c0.08-0.08 0.7-0.37 1.86-0.87c1.32 1.32 2.1 2.27 2.35 2.85v0zm50.88 50.88h-0.5l-0.12-0.12l0.37-0.12l0.25 0.25zm4.7 4.95c0.99 1.15 1.61 2.19 1.86 3.09c1.9 5.2 1.32 9.33-1.73 12.38l-0.62 0.62c-0.41 0.41-1.24 1.07-2.48 1.98l-0.12-0.12c-0.17-0.66-0.25-1.4-0.25-2.23l1.11-0.87l1.24-1.24l0.74-0.99c1.73-4.7 1.28-8.38-1.36-11.02c-1.32-1.32-3.09-1.86-5.32-1.61c-0.5-1.15-0.79-1.78-0.87-1.86l0.12-0.12c3.22-0.58 5.78 0.08 7.68 1.98v0zm20.06 21.29c-1.24 1.24-5.7 3.14-13.37 5.69c-0.09-0.74-0.17-1.49-0.25-2.23c3.71-1.07 8.05-2.85 13-5.32l0.62 1.86zm22.28 22.28l-1.11 1.11l-0.12 1.86c0.99 4.79 0.82 7.84-0.5 9.16c-0.74 0.74-2.07 1.24-3.96 1.49c-0.09-1.24-0.21-1.94-0.37-2.1c1.48-0.16 2.43-0.45 2.85-0.87c0.08-0.08 0.29-0.7 0.62-1.86c-0.99-5.12-0.95-8.21 0.12-9.28l0.25-0.25l1.49-1.24v0c0.16 0.16 0.41 0.83 0.74 1.98v0zm-105.11-105.85l0.12 0.12c-1.07 0.58-1.82 1.07-2.23 1.49c-3.3-0.16-6.19 0.99-8.67 3.47c-0.17 0.17-0.62 0.7-1.36 1.61c-1.57 4.54-0.41 8.75 3.47 12.63c1.4 1.4 2.85 2.44 4.33 3.09c4.54 1.9 8.83 0.83 12.88-3.22l0.74-0.74c0.08 0.08 0.66 0.41 1.73 0.99l0.12 0.12l-0.99 0.99c-1.4 1.4-2.85 2.52-4.33 3.34c-5.86 2.89-11.18 1.94-15.97-2.85l-1.86-2.1c-3.96-6.44-4.13-11.47-0.5-15.1c3.88-3.88 8.04-5.16 12.5-3.84v0zm57.07 57.07l-0.37 0.37c-0.08-0.08-0.66-0.17-1.73-0.25l-0.12-0.12c1.4-0.08 2.15-0.08 2.23 0v0zm-34.29-29.84c-9.58-1.81-17.08 0-22.53 5.45l-1.24 1.24c-1.82 1.82-3.39 4.21-4.7 7.18c-3.39 10.32-1.65 18.9 5.2 25.75l0.37 0.37c4.29 4.29 9.86 6.48 16.71 6.56c6.6-0.33 12.05-2.64 16.34-6.93c2.39-2.39 4.29-5.37 5.69-8.91c2.64-9.9 0.78-18.03-5.57-24.39c-2.72-2.72-6.15-4.83-10.28-6.31v0zm-4.46-7.43c-1.16 0.66-2.02 1.03-2.6 1.11c-2.64-1.98-5.24-3.67-7.8-5.08c0.33-0.33 0.7-0.87 1.11-1.61c0.82 0.17 2.51 1.11 5.08 2.85c1.24 1.24 2.19 1.53 2.85 0.87c0.66 0.99 1.11 1.61 1.36 1.86v0zm55.09 57.32c-0.58 0.91-0.87 2.76-0.87 5.57c-0.17 0.17-0.7 0.45-1.61 0.87l-0.25-0.25c0.66-2.48 1.48-4.54 2.48-6.19l0.12-0.12l0.12 0.12zm15.23 23.4c-0.33 6.11-1.73 11.39-4.21 15.85c-4.13 2.97-9 4.87-14.61 5.69c0.58-1.24 0.78-1.94 0.62-2.1c6.85-1.9 10.93-3.51 12.26-4.83c3.3-5.78 4.45-13.29 3.47-22.53l1.86-0.12c0.41 0.74 0.62 3.43 0.62 8.05v0zm-32.19-30.45l-0.37 0.37c-0.33 0.33-0.83 0.5-1.49 0.5c-2.15-7.43-3.8-11.72-4.95-12.88l0.99-0.99l0.74-0.5c3.14 6.27 4.83 10.77 5.08 13.49v0zm-54.22-62.15l-0.12 0.12c-0.17-0.17-0.5-0.33-0.99-0.5l-0.25-0.25l0.74-0.25c0.08 0.25 0.29 0.54 0.62 0.87v0zm59.18 59.18c1.07 1.07 0.33 2.89-2.23 5.45l-0.62 0.62c-3.14 2.15-5.98 1.94-8.54-0.62c-2.89-3.71-3.01-6.89-0.37-9.53l0.5-0.5c0.49 1.32 0.82 2.06 0.99 2.23c-1.57 1.57-1.4 3.63 0.5 6.19c2.06 2.06 4.04 2.15 5.94 0.25l0.37-0.37c0.91-0.91 1.94-2.35 3.09-4.33c0.33 0.33 0.45 0.54 0.37 0.62v0zm-43.08-34.42c4.45-1.15 7.72-0.7 9.78 1.36c0.5 0.99-0.17 2.39-1.98 4.21l-1.24 1.24c-0.58 0.58-1.65 1.32-3.22 2.23l-0.25-1.49c0.99-0.99 1.94-1.86 2.85-2.6c1.07-1.07 1.69-2.02 1.86-2.85c-3.8-1.49-6.64-1.28-8.54 0.62l-0.25 0.25c-1.16 1.16-2.11 2.68-2.85 4.58c-0.5 0.16-1.12 0.04-1.86-0.37c0.91-2.39 1.86-4.09 2.85-5.08l0.74-0.74c0.5-0.5 1.2-0.95 2.1-1.36v0zm13.99 5.57c0.25 0.25 0.53 1.11 0.87 2.6c0.25 4.54 0 7.18-0.74 7.92l-0.12 0.12l-1.36-1.36c0.49-1.82 0.58-4.13 0.25-6.93c-0.25-0.25-0.74 0-1.49 0.74l-1.49 1.49c-1.4 1.4-2.31 3.71-2.72 6.93c-0.08 0.08-0.66 0-1.73-0.25l-0.12-0.12c0.66-3.8 1.9-6.6 3.71-8.42c2.72-2.39 4.37-3.3 4.95-2.72v0zm63.39 63.39c-2.31 3.47-4.04 5.86-5.2 7.18l-0.12 0.12l-0.12-0.12c0.25-0.25 0.62-2.02 1.11-5.32c2.15-0.66 3.55-1.32 4.21-1.98l0.12 0.12zm-130.98-130.73c-1.24 1.73-2.02 3.18-2.35 4.33c-3.3 0.66-5.12 1.16-5.45 1.49l-0.12-0.12l0.25-0.25c0.41-0.41 2.93-2.27 7.55-5.57l0.12 0.12zm24.64 37.02c6.19 0.91 11.18 2.19 14.98 3.84c-0.08 0.08-0.45 0.7-1.11 1.86c-5.2-1.9-10.03-3.09-14.48-3.59c-0.17-0.82 0-1.49 0.5-1.98l0.12-0.12zm-3.84-13.74c-0.25 0.25-0.79 0.45-1.61 0.62c-0.17-0.17-0.17-0.33 0-0.5c0.99-0.16 1.53-0.21 1.61-0.12v0zm50.88 51.38c0.74 5.04 0.62 8.71-0.37 11.02l-0.25-0.25l0.12-0.12c-0.33-2.97-0.74-4.7-1.24-5.2c0.91-1.9 1.44-3.76 1.61-5.57l0.12 0.12zm-83.81-83.56c-0.08 0.08-0.25 0.83-0.5 2.23c-0.66 0.33-1.07 0.58-1.24 0.74l-0.99 1.73c-0.41 3.88-1.11 6.31-2.1 7.3c-1.16 1.16-2.52 1.69-4.09 1.61c-0.25-0.74-0.29-1.44-0.12-2.1c1.24-0.08 2.06-0.33 2.48-0.74c0.25-0.25 0.58-0.74 0.99-1.49c0.25-3.88 0.87-6.31 1.86-7.3l0.87-0.87c0.74-0.74 1.69-1.11 2.85-1.11v0zm123.43 127.88c1.32 1.32 3.75 2.52 7.3 3.59l0.25 3.96c-4.04 0.58-7.14-0.21-9.28-2.35c-0.83-0.83-1.73-1.98-2.72-3.47l0.12-0.12c0.49-0.16 1.94-0.7 4.33-1.61v0zm-100.65-100.15l1.24 1.24c0.16 0.5-0.21 1.53-1.11 3.1c-1.9-1.07-3.14-1.9-3.71-2.48c-2.48-2.48-3.59-5.49-3.34-9.04l2.97-0.25c0.74 3.05 2.06 5.53 3.96 7.43v0zm6.31 2.85l-0.5 0.74c-1.65 4.13-2.85 8.46-3.59 13c-0.17 0.17-0.87 0.37-2.1 0.62l-0.12-0.12c1.07-6.36 2.52-11.35 4.33-14.98l0.12-0.12l1.86 0.87zm119.22 121.2l-2.85 1.11c-0.25 0.58-0.45 0.95-0.62 1.11c0.99 5.12 0.66 8.5-0.99 10.15l-2.48 1.24l-0.25-0.25c0-0.99-0.08-1.57-0.25-1.73c0.74-0.58 1.24-0.91 1.49-0.99c0.08-0.08 0.37-0.7 0.87-1.86c-0.5-4.95-0.41-7.76 0.25-8.42l0.99-0.99c0.5-0.5 1.65-0.91 3.47-1.24l0.37 1.86zm-82.95-84.18c-1.32 0.66-2.02 1.03-2.1 1.11c-0.17 0.17-1.53-0.12-4.09-0.87c2.39-0.58 4.45-0.66 6.19-0.25v0zm-55.59-51.38l0.12 0.12c-0.17 0.17-0.33 0.83-0.5 1.98l-0.12 0.12c-5.04 1.07-9 2.64-11.88 4.7l-0.25 0.25c-3.63 7.76-4.67 15.23-3.09 22.41l-2.23 0.5c-1.4-8.99-0.21-17.21 3.59-24.64c4.54-2.89 9.32-4.7 14.36-5.45v0zm21.05 26.49c-1.73 0.25-2.64 0.33-2.72 0.25l-0.12-0.12c0.41-1.07 0.54-1.69 0.37-1.86c2.31-0.17 3.55-0.33 3.71-0.5c0.16 0.16-0.25 0.91-1.24 2.23v0zm74.53 83.19l-0.12 0.12l-1.98 0.25c0.25-6.19 0.12-10.19-0.37-12.01c0.41-0.41 1.11-0.62 2.1-0.62c0.5 0.5 0.62 4.58 0.37 12.26v0zm4.58-2.1l-1.61 0.37l-0.12-3.09c0.99-0.66 1.73-1.24 2.23-1.73c-0.25 2.89-0.41 4.38-0.5 4.46v0zm-42.96-45.68c1.24 4.04 1.07 6.85-0.5 8.42c-2.06 2.06-4.5 3.59-7.3 4.58l0.12-1.86c1.98-0.99 3.88-2.23 5.69-3.71c1.32-1.32 1.32-3.71 0-7.18c-0.58-1.07-0.41-2.06 0.5-2.97l0.25-0.25c0.49 1.15 0.91 2.15 1.24 2.97v0zm11.02 9.28c1.98 1.98 2.72 5.94 2.23 11.88c-0.74 0.74-2.68-0.04-5.82-2.35l-0.87-0.87c-0.66-0.66-1.4-1.81-2.23-3.47l0.25-0.25h1.49c0.16 0.16 0.82 1.07 1.98 2.72c2.15 1.65 3.34 2.35 3.59 2.1c0-4.29-0.66-7.1-1.98-8.42l-0.99-0.99l-0.87-0.37l0.25-1.73l0.37-0.37l2.6 2.1zm-23.15-16.22c2.47-0.66 4.74-0.54 6.81 0.37l-1.36 1.61c-0.91-0.58-2.77-0.62-5.57-0.12c-0.5 0.5 0.37 2.1 2.6 4.83c1.81 1.81 4 2.52 6.56 2.1c0.08 0.91 0.21 1.44 0.37 1.61l-0.12 0.12c-3.05 0.58-5.53-0.08-7.43-1.98l-0.99-0.99c-1.65-1.65-2.81-3.8-3.47-6.44c0.58-0.58 1.44-0.95 2.6-1.11v0zm-61.65-64.87c0.16 0.33 0.08 1.07-0.25 2.23c-1.24-0.25-2.19-0.04-2.85 0.62l-0.25 0.25c-0.17 0.17-0.29 0.37-0.37 0.62c0.25 4.87-0.08 7.76-0.99 8.67c-1.07 1.07-2.15 1.65-3.22 1.73c-0.17-1.32-0.17-2.06 0-2.23c0.08 0.08 0.49-0.08 1.24-0.5c0.25-0.25 0.58-0.66 0.99-1.24c-0.66-4.62-0.41-7.51 0.74-8.67l0.5-0.5c0.91-0.91 2.39-1.24 4.46-0.99v0zm134.82 144.72c-0.91 0.91-3.76 2.1-8.54 3.59c-0.58-5.53-2.27-9.7-5.08-12.5l-0.74-0.74c-1.82-1.82-4.21-3.38-7.18-4.7c0.66-2.81 0.95-4.25 0.87-4.33l4.09-0.87c1.15 2.64 2.52 4.74 4.09 6.31l0.87 0.87c3.47 3.47 8.13 5.08 13.99 4.83c-0.17 2.15-0.95 4.66-2.35 7.55v0zm-114.51-116.25l0.37 0.37c1.81 1.81 4.17 3.26 7.06 4.33l-0.99 4.46l-3.96 0.74c-1.57-3.05-3.01-5.24-4.33-6.56c-4.04-4.04-8.92-5.78-14.61-5.2c0.41-3.38 1.15-6.03 2.23-7.92c2.64-1.32 5.53-2.48 8.67-3.47c0.33 5.45 2.19 9.86 5.57 13.25v0zm128.01 122.31c-0.25 0.25-0.7 0.62-1.36 1.11c-0.41 0.41-0.79 1.28-1.11 2.6c0.82 3.8 0.7 6.23-0.37 7.3l-0.5 0.5c-0.66 0.66-2.11 1.2-4.33 1.61c-0.17-0.66-0.04-1.44 0.37-2.35c1.24-0.08 2.15-0.41 2.72-0.99c0.41-0.41 0.58-0.99 0.5-1.73c-0.83-3.96-0.45-6.73 1.11-8.29c0.66-0.66 1.57-1.24 2.72-1.73l0.25 1.98zm-65.98-67.22l0.12 0.12l-0.25 0.25c-3.72 0.58-6.44 0.41-8.17-0.5l-0.25-0.25c1.07-0.58 1.65-0.91 1.73-0.99c3.22 0.25 4.87 0.33 4.95 0.25c0.16-0.16 0.78 0.21 1.86 1.11v0zm-44.57-44.07l-0.12 2.1c-6.6 0.33-11.47 0.99-14.61 1.98l-0.25-0.25l-0.5-1.73c4.29-1.32 9.45-2.02 15.47-2.1v0zm38.75 39c0.25 0.25 0.16 0.91-0.25 1.98c-0.66 0-1.03-0.04-1.11-0.12c0.66-0.99 0.91-1.57 0.74-1.73c0.25-0.08 0.41-0.16 0.5-0.25l0.12 0.12zm41.72 41.72c0.33 1.16 0.41 1.82 0.25 1.98l-0.12 0.12c-0.5 0.5-5.57 1.2-15.23 2.1c-0.08-0.41 0-1.15 0.25-2.23c7.1-0.5 12.01-1.2 14.73-2.1l0.12 0.12zm-48.41-42.96l0.62 0.87l-0.37 0.37c-0.17-0.17-0.74-0.5-1.73-0.99l-0.12-0.12v0l1.61-0.12zm-17.7-17.46l-3.47 3.47c-0.33-2.15-0.74-3.71-1.24-4.7l0.12-0.12c1.48 0.83 3.01 1.28 4.58 1.36v0zm-15.72-15.23l0.25 0.25c0.33 1.81 0.7 2.93 1.11 3.34c-2.31-0.66-3.63-0.91-3.96-0.74c-0.17-1.16-0.17-2.06 0-2.72l0.12-0.12c1.57-0.08 2.39-0.08 2.48 0v0zm55.83 56.08c0.41 2.39 0.82 3.8 1.24 4.21l-0.25 0.25c-1.4-0.74-2.81-1.15-4.21-1.24l-0.12-0.12l0.87-0.62l1.86-1.86l0.5-0.74l0.12 0.12zm14.98 15.72c0.16 0.33 0.12 1.2-0.12 2.6c-1.57 0.25-2.52 0.29-2.85 0.12c-0.17-1.32-0.54-2.52-1.11-3.59l0.25-0.25c0.25 0.25 1.52 0.62 3.84 1.11v0zm-21.54-20.06l-0.12 0.12l-0.37-0.37l0.12-0.12l0.37 0.37zm-22.78-18.07c2.39-0.25 4.29 0.17 5.69 1.24l0.12 0.12c-1.16 0.66-1.78 1.03-1.86 1.11c-1.24-1.24-3.55-1.07-6.93 0.5l-1.36-1.36c0.74-0.74 2.19-1.28 4.33-1.61v0zm9.16 5.2c3.13 5.94 3.3 10.32 0.5 13.12c-0.99 0.66-2.35 1.44-4.09 2.35c-4.7 1.24-8.13 0.78-10.28-1.36c-0.41-1.24 0.62-3.09 3.09-5.57c0.91-0.91 2.23-1.82 3.96-2.72c0.33 0.33 0.62 0.87 0.87 1.61c-1.07 0.58-1.9 1.16-2.48 1.73l-1.61 1.61c-0.91 0.91-1.49 1.73-1.73 2.48l0.87 0.62c4.12 0.99 7.43 0.25 9.9-2.23l0.25-0.25c1.98-1.98 1.77-5.32-0.62-10.03l1.36-1.36zm-12.01-10.77l1.36 1.36c0.5 0.5 1.11 1.2 1.86 2.1l0.12 0.12c-0.17 0.17-0.83 0.33-1.98 0.5l-1.24-1.49l-0.87-0.87c-1.4-1.4-2.44-2.19-3.09-2.35l-0.12 0.37c-0.41 4.54 0.21 7.63 1.86 9.28l1.11 1.11c0.25 0.25 0.74 0.58 1.49 0.99c0 0.5-0.17 1.07-0.5 1.73c-1.07-0.41-2.06-1.07-2.97-1.98c-0.99-0.99-1.82-2.48-2.48-4.46c-0.99-4.95-0.83-8.09 0.5-9.41l0.25-0.25c0.58-0.25 2.15 0.83 4.7 3.22v0zm-29.09-28.85c-0.25 6.52-0.17 10.48 0.25 11.88c-0.99 0.16-1.61 0.37-1.86 0.62l-0.12-0.12c-0.5-2.48-0.62-6.48-0.37-12.01l0.25-0.25c1.07-0.25 1.69-0.29 1.86-0.12v0zm9.66 9.66l0.5 0.5c1.07 1.07 2.14 2.48 3.22 4.21c3.22 6.03 1.9 11.97-3.96 17.83c-1.49 1.49-3.09 2.6-4.83 3.34c-4.05 1.24-9.2 0.45-15.47-2.35c-0.17-0.17 0.08-0.58 0.74-1.24l0.5-0.5c1.65 0.99 4.29 1.73 7.92 2.23c3.55 0.91 6.69 0 9.41-2.72l0.5-0.5c2.56-2.56 4.08-5.41 4.58-8.54c0.33-3.8-0.95-7.14-3.84-10.03l-0.37-0.37c-2.15-2.15-4.5-3.18-7.06-3.09c0.08-1.07 0-1.73-0.25-1.98l0.12-0.12c3.22-0.08 5.98 1.03 8.29 3.34v0zm39.49 39.74l0.87 0.87c0.99 0.99 1.53 2.02 1.61 3.09l-0.25 0.25c-2.81 1.32-5.69 1.49-8.67 0.5l-0.12-0.12l0.99-0.99v-0.5c3.05 0.58 4.99 0.45 5.82-0.37l-1.11-1.11c-0.66-0.66-1.65-1.49-2.97-2.48l-0.12-1.61c0.41-0.41 1.73 0.41 3.96 2.48v0zm-87.4-85.67l-1.24 1.24c-0.58 0.58-0.95 1.44-1.11 2.6c0.33 4.46-0.08 7.26-1.24 8.42c-1.65 1.16-2.64 1.57-2.97 1.24l-0.25-1.98c0.91-0.25 1.49-0.5 1.73-0.74l0.5-0.99c-0.17-5.28 0.37-8.54 1.61-9.78l0.5-0.5c0.66-0.66 1.28-1.11 1.86-1.36c0.25 0.25 0.45 0.87 0.62 1.86v0zm118.85 117.61c-2.15 9.24-3.63 14.28-4.46 15.1c-0.25-0.25-0.79-0.45-1.61-0.62l-0.25-0.25c2.14-5.45 3.42-10.11 3.84-13.99c1.48-0.33 2.31-0.41 2.48-0.25v0zm-30.83-16.96c6.11-2.81 11.22-2.15 15.35 1.98l1.11 1.11c0.58 0.58 1.11 1.28 1.61 2.1c3.88 6.19 4.13 10.98 0.74 14.36l-0.87 0.87c-3.71 3.71-7.76 4.79-12.13 3.22l-0.25-0.25c1.15-0.66 1.86-1.11 2.1-1.36c3.22 0.41 5.98-0.54 8.29-2.85l1.11-1.11c0.41-0.41 0.74-0.83 0.99-1.24c1.65-4.29 0.58-8.34-3.22-12.13l-0.62-0.62c-2.06-2.06-4.54-3.3-7.43-3.71c-3.8 0.33-6.81 1.61-9.04 3.84c0.08 0.08 0.08 0.17 0 0.25c-0.08-0.08-0.17-0.08-0.25 0l-0.99 0.99c-0.58-0.58-1.2-1.03-1.86-1.36l0.25-0.25c1.4-1.4 3.09-2.68 5.08-3.84v0zm61.53 48.9l0.12 0.12l0.5 1.98c-1.49 0.16-2.48 0.33-2.97 0.5l-0.37 0.87c-0.66 5.12-1.44 8.13-2.35 9.04l-0.25 0.25c-0.91 0.91-2.07 1.24-3.47 0.99c0.25-0.25 0.33-0.91 0.25-1.98l1.36-0.37l0.25-0.25c0.41-0.41 0.74-0.99 0.99-1.73c0.58-4.7 1.28-7.47 2.1-8.29c0.66-0.66 1.94-1.03 3.84-1.11v0zm-77.75-75.52c0.16 0.99 0.16 1.57 0 1.73c-0.17 2.48-2.48 5.94-6.93 10.4c-1.65 0.5-2.72 0.5-3.22 0c-1.07-3.38-0.83-6.69 0.74-9.9l1.36 1.36c-0.83 0.83-1.03 3.18-0.62 7.06c0.25 0.25 0.99-0.16 2.23-1.24c3.05-3.05 4.58-6.23 4.58-9.53c0.08-0.08 0.7-0.04 1.86 0.12v0zm-48.16-47.91c2.48 2.48 4.08 5.74 4.83 9.78c0.49 7.26-1.94 13.58-7.3 18.94l-0.87 0.87l-1.61 1.36l-1.11-1.86l0.74-0.5l0.99-0.99c1.98-1.98 3.67-4.33 5.08-7.06c3.3-7.92 2.56-14.28-2.23-19.07c-3.14-3.14-7.51-4.29-13.12-3.47c-0.08-0.08 0-0.74 0.25-1.98v0c5.94-0.99 10.73 0.33 14.36 3.96v0zm52.37 53.11l0.62 3.59c0.91 1.9 1.15 3.05 0.74 3.47c-0.08-0.08-0.17-0.08-0.25 0l-0.12 0.37c-0.08-0.08-0.25 0-0.5 0.25c-0.74-0.74-1.53-3.18-2.35-7.3c0.91-0.08 1.49-0.25 1.73-0.5l0.12 0.12zm50.01 50.26c0.91 0.91 1.9 2.31 2.97 4.21c3.13 7.92 1.69 14.9-4.33 20.92c-3.55 3.55-8.91 6.69-16.09 9.41c-4.29 1.15-8.38 0.78-12.26-1.11l1.73-1.73c1.65 1.15 4.54 1.49 8.67 0.99c7.01-2.23 12.09-4.91 15.23-8.05l1.98-1.98c1.24-1.24 2.31-2.8 3.22-4.7c2.31-6.77 1.49-12.13-2.48-16.09c-1.98-1.98-4.17-3.34-6.56-4.09c-0.08-0.08 0.08-0.66 0.5-1.73l0.12-0.12c2.72 0.58 5.16 1.94 7.3 4.09v0zm-92.97-91.24l0.12 3.34c-1.32 0.66-2.06 1.07-2.23 1.24l-0.12-0.12c0.16-0.16 0.41-1.57 0.74-4.21c0.58 0.08 1.03-0.04 1.36-0.37l0.12 0.12zm79.73 83.19l-3.71 0.5c0.41-0.41 0.91-1.15 1.49-2.23c0.16-0.16 1.03-0.29 2.6-0.37c0.16 0.5 0.04 1.2-0.37 2.1v0zm-76.01-71.06c2.56-1.24 4.99-0.7 7.3 1.61l0.12 0.12c2.72 2.72 2.68 5.9-0.12 9.53l-0.25 0.25c-0.08-0.08-0.33-0.91-0.74-2.48c1.49-1.49 1.28-3.43-0.62-5.82c-2.15-2.15-4.21-2.23-6.19-0.25c-0.91 0.91-1.98 2.39-3.22 4.46l-0.12 0.12c-1.49-1.49-0.99-3.47 1.49-5.94c0.5-0.5 1.28-1.03 2.35-1.61v0zm68.21 65.98c-6.36-0.58-11.47-1.9-15.35-3.96l1.24-1.49c0.16-0.16 0.82 0 1.98 0.5c3.38 1.4 7.51 2.31 12.38 2.72c0.25 0.41 0.16 1.15-0.25 2.23v0zm-14.48-9.78c3.05-1.57 5.98-0.95 8.79 1.86l0.37 0.37c1.15 1.15 1.65 2.23 1.49 3.22c-0.41 0.08-1.12-0.04-2.1-0.37c-0.33-0.66-0.66-1.16-0.99-1.49l-1.11-1.11c-1.82-1.82-4.21-1.57-7.18 0.74c-0.66 0.66-1.2 1.44-1.61 2.35c-0.66 2.48 0 4.7 1.98 6.69l0.74 0.74c-0.08 0.08-0.7 0.54-1.86 1.36c-0.83-0.83-1.49-1.73-1.98-2.72c-1.98-3.96-1.69-7.22 0.87-9.78c0.5-0.5 1.36-1.11 2.6-1.86v0zm-79.97-79.73c4.21-0.41 7.39 0.45 9.53 2.6c1.4 1.73 2.15 2.89 2.23 3.47l-2.48 0.99c-2.06-2.06-5.08-3.18-9.04-3.34c-0.08-0.08-0.25-1.24-0.5-3.47v0l0.25-0.25zm24.02 17.33l0.12 2.35c-0.74 0.41-1.32 0.83-1.73 1.24c-1.65 1.65-2.48 4.04-2.48 7.18c0.41 2.56 1.07 4.29 1.98 5.2c1.65 1.65 3.55 2.31 5.69 1.98l1.11 1.86l-0.12 0.12c-3.14 0.66-5.69 0-7.68-1.98c-0.41-0.41-1.03-1.2-1.86-2.35c-2.23-5.69-1.69-10.19 1.61-13.49c0.5-0.5 1.53-1.28 3.09-2.35v0l0.25 0.25zm25.25 29.96c-0.66 0.66-1.24 2.64-1.73 5.94l-0.12 0.12c-1.24-4.21-1.16-8.34 0.25-12.38c0.66 3.8 1.2 5.9 1.61 6.31v0zm19.07 18.82c0.08 0.08 1.81 0.41 5.2 0.99c-2.23 1.07-5.41 1.36-9.53 0.87l-0.12-0.12c2.39-0.58 3.88-1.15 4.46-1.73v0zm-54.35-57.57c0.16 0.99 0.33 1.57 0.5 1.73c-8.25 3.14-12.63 4.95-13.12 5.45c-0.17-0.17-0.45-0.78-0.87-1.86c5.2-2.72 9.7-4.5 13.49-5.32v0zm74.53 93.59c3.96-2.81 8.79-4.33 14.48-4.58c-0.08 0.08-0.33 0.74-0.74 1.98c-6.44 0.66-11.51 2.85-15.23 6.56l-1.73 1.73c-2.64 2.64-3.92 5.65-3.84 9.04c0.66 1.49 0.45 2.77-0.62 3.84l-0.12 0.12l-0.5-0.74c-1.9-4.87-0.74-9.41 3.47-13.62l1.98-1.98c0.66-0.66 1.61-1.44 2.85-2.35v0zm22.66 3.59l0.99 0.99c1.98 1.98 2.93 4.66 2.85 8.05l-0.12 0.12l-2.97 0.25c-0.33-2.81-1.9-5.61-4.7-8.42l-0.37-0.37c0.16-0.16 0.49-1.07 0.99-2.72c1.07 0.25 2.19 0.95 3.34 2.1v0zm15.23 15.47l-0.12 0.12c-0.91 0.91-3.43 2.76-7.55 5.57l-0.12-0.12c0.66-0.66 1.57-2.15 2.72-4.46c3.05-0.58 4.7-0.99 4.95-1.24l0.12 0.12zm-133.08-132.59c-0.5 1.15-0.83 2.89-0.99 5.2c-2.73 1.4-4.17 2.02-4.33 1.86l5.2-7.18l0.12 0.12zm-9.9-9.66l0.12 2.1l-1.61 1.36c-0.5 0.5-0.74 1.4-0.74 2.72c0.91 4.04 0.74 6.69-0.5 7.92l-0.74 0.74l-0.74 0.5c-0.25-1.07-0.45-1.69-0.62-1.86c0.82-1.16 1.15-2.23 0.99-3.22c-0.99-4.13-0.74-6.93 0.74-8.42l0.25-0.25c0.5-0.5 1.4-1.07 2.72-1.73l0.12 0.12zm148.81 149.05l-0.25 1.98c-0.08 0.08-0.66 0.41-1.73 0.99c-0.5 0.5-0.83 0.99-0.99 1.49c-0.41 4.04-1.07 6.52-1.98 7.43c-1.16 1.16-3.01 1.44-5.57 0.87c-0.17-0.17-0.12-0.87 0.12-2.1c2.06 0.25 3.3 0.17 3.71-0.25c0.08-0.08 0.37-0.54 0.87-1.36c0.33-3.8 1.03-6.23 2.1-7.3c0.66-0.66 1.81-1.32 3.47-1.98l0.25 0.25zm-98.3-88.39l-0.12 0.12c-0.33 0.33-0.83 0.66-1.49 0.99c-1.73-1.73-3.51-6.15-5.32-13.25c0.5-0.5 1.07-0.82 1.73-0.99c1.4 4.87 3.14 9.24 5.2 13.12v0zm-25.13-16.96l-0.5 0.5l-0.12-0.12c1.73-2.23 2.8-5.12 3.22-8.67c0.58 0.08 1.03-0.04 1.36-0.37c-0.74 3.88-2.06 6.77-3.96 8.67v0zm76.38 68.21c1.07-1.07 2.31-1.24 3.71-0.5l-0.62 0.87c-2.31 2.31-6.15 4.99-11.51 8.05l-0.12-0.12l-1.24-1.49c5.03-3.05 8.29-5.32 9.78-6.81v0zm-92.6-82.45c6.35-2.89 11.18-2.68 14.48 0.62c-1.4 1.07-2.6 1.11-3.59 0.12c-4.71-1.07-8.21-0.45-10.52 1.86l-0.87 0.87c-1.49 1.49-2.35 3.67-2.6 6.56c-0.25 0.25-0.99 0.91-2.23 1.98l-0.25-0.25c0.33-4.46 1.69-7.88 4.09-10.28l1.49-1.49zm122.44 111.79c-6.19-0.25-11.31-1.07-15.35-2.48l1.11-2.1c4.37 1.57 9.37 2.27 14.98 2.1c0.16 0.16-0.09 0.99-0.74 2.48v0zm-121.57-121.57c-3.22 1.73-5.24 3.01-6.07 3.84l-0.25 0.25c-5.2 5.2-7.93 11.47-8.17 18.82c0.66 5.28 2.23 9.16 4.7 11.64c-0.91 0.74-1.44 1.2-1.61 1.36l-0.25-0.25c-2.64-2.64-4.38-6.69-5.2-12.13c0.33-8.42 3.18-15.31 8.54-20.67l0.37-0.37c1.65-1.65 4.25-3.18 7.8-4.58l0.12 2.1zm106.34 104.36l-0.25 0.25l-1.61 0.12l-0.12-0.12c0.99-0.16 1.57-0.33 1.73-0.5l0.25 0.25zm-4.95 3.96c3.88-1.73 7.26-1.16 10.15 1.73l1.49 1.49c1.73 1.73 2.6 3.67 2.6 5.82l-1.98-0.25c-0.58-1.73-1.16-2.89-1.73-3.47l-1.86-1.86c-0.41-0.41-0.95-0.87-1.61-1.36c-3.47-1.49-6.6-0.82-9.41 1.98c-0.25 0.08-0.99-0.16-2.23-0.74c1.65-1.65 3.18-2.77 4.58-3.34v0zm-86.41-92.6c-0.25 3.71-1.94 7.14-5.08 10.28c-1.16 1.16-3.96 3.05-8.42 5.69l-0.25-0.25l-0.99-0.74l-0.12-0.37l-0.12-0.12c4.79-2.97 7.55-4.83 8.29-5.57c2.48-2.48 3.92-5.16 4.33-8.05c1.32-0.5 2.06-0.82 2.23-0.99l0.12 0.12zm59.55 62.27c3.05 2.39 5.61 4.04 7.68 4.95c-0.66 0.82-1.08 1.49-1.24 1.98c-1.74-1.07-2.64-1.57-2.72-1.49c-2.89-2.39-4.62-3.3-5.2-2.72l-1.24-1.49c0.5-0.5 1.4-0.91 2.72-1.24v0zm57.57 56.33c-0.17 0.17-0.29 0.87-0.37 2.1l-0.12 0.12c-1.4-0.58-2.6-0.37-3.59 0.62c-0.41 0.41-0.74 1.07-0.99 1.98c-0.25 3.22-0.83 5.28-1.73 6.19c-0.99 0.99-2.15 1.4-3.47 1.24c-0.17-0.17-0.04-0.87 0.37-2.1c0.58-0.08 1.03-0.29 1.36-0.62l0.12-0.12c0.25-0.25 0.45-0.62 0.62-1.11c0.16-3.3 0.91-5.61 2.23-6.93c1.4-1.4 3.26-1.86 5.57-1.36v0zm-86.66-85.42c-1.74 2.39-3.39 4.95-4.95 7.68c-0.17 0.17-0.79-0.12-1.86-0.87c1.07-2.23 2.19-4.09 3.34-5.57c0.91-0.91 0.7-2.02-0.62-3.34c0.66-0.33 1.24-0.74 1.73-1.24c1.15 1.49 1.94 2.6 2.35 3.34v0zm43.21 42.22l-0.37 0.37l-0.37-0.37c0.41-0.08 0.66-0.08 0.74 0v0zm-104.61-103.87c0.08 1.07 0.21 1.69 0.37 1.86c-0.74 1.07-1.12 1.94-1.11 2.6c1.4 5.69 1.2 9.45-0.62 11.27c-0.58 0.58-1.32 1.07-2.23 1.49c-0.5-0.5-0.79-1.2-0.87-2.1l1.24-0.5c1.07-1.07 1.48-2.81 1.24-5.2c-1.24-4.04-1.16-6.77 0.25-8.17l1.61-1.36v0l0.12 0.12zm124.05 124.79l0.12 0.12c-4.13 7.59-7.06 12.26-8.79 13.99c-0.33 0.33-1.08 0.25-2.23-0.25c3.8-5.28 6.81-10.11 9.04-14.48c0.33-0.33 0.95-0.12 1.86 0.62v0zm-108.94-105.48c-0.99 0.5-1.9 1.16-2.72 1.98l-1.36 1.36c-2.48 2.48-3.88 6.6-4.21 12.38l-2.35 2.35l-0.12-2.35c0.49-6.6 2.8-11.97 6.93-16.09c0.91-0.91 2.06-1.65 3.47-2.23c0.16 1.65 0.29 2.52 0.37 2.6v0zm119.09 117.86l-1.24 1.24c-1.9 1.9-4.05 3.47-6.44 4.7c-5.45 3.14-9.91 4.29-13.37 3.47l0.62-0.87l0.12-0.12c6.02 0.41 11.31-1.65 15.85-6.19c0.58-0.58 1.4-1.49 2.48-2.72c0.08 0.08 0.74 0.25 1.98 0.5v0zm-82.95-82.7l-0.12 0.12c-1.98 0-3.01-0.04-3.09-0.12l-0.12-0.12l3.34 0.12zm-30.45-29.96l1.11 5.32c1.48 3.63 2.15 5.53 1.98 5.69l-1.49 1.49c-1.49-3.47-2.72-7.43-3.71-11.88c0.5-0.5 1.2-0.7 2.1-0.62v0zm73.29 73.29c-2.15 6.6 0.37 13.49 7.55 20.67l0.62 0.62l1.86 1.61l-0.12 0.12l-1.24 1.49c-1.08-0.74-1.86-1.36-2.35-1.86l-0.87-0.87c-7.43-7.43-9.9-15.1-7.43-23.03c0.08-0.08 0.74 0.33 1.98 1.24v0zm-56.45-53.73c0.82 1.81 0.54 3.43-0.87 4.83l-0.12 0.12l-3.22-3.22l2.6-2.6l1.36-1.61c0.08 0.08 0.16 0.91 0.25 2.48v0zm91.86 91.12l0.12 0.12c-0.08 0.08-0.17 0.25-0.25 0.5c-2.31 2.31-4.46 3.96-6.44 4.95c-6.19 3.22-11.39 2.72-15.6-1.49l-0.25-0.25c0.49-0.83 0.82-1.32 0.99-1.49l0.37-0.12c2.31 2.31 5.12 3.38 8.42 3.22c3.71-0.74 6.85-2.39 9.41-4.95c0.08-0.25 0.37-0.62 0.87-1.11c0.25 0.25 1.03 0.45 2.35 0.62v0zm-60.91-48.53c5.94-2.15 11.55-0.58 16.84 4.7c4.79 4.79 4.87 11.88 0.25 21.29c-0.58-0.74-1.07-1.32-1.49-1.73c3.38-8.17 3.42-13.91 0.12-17.21l-0.87-0.87c-1.98-1.98-3.84-3.34-5.57-4.09c-4.79-1.98-9.28-0.87-13.49 3.34l-0.25 0.25c-1.65 1.65-2.6 3.75-2.85 6.31l-0.12 0.12c-1.07 0.08-1.69 0.21-1.86 0.37l-0.12-0.12c0-3.14 1.07-5.78 3.22-7.92l0.37-0.37c1.32-1.32 3.26-2.68 5.82-4.09v0zm-7.55-19.44c1.49 1.49 2.68 3.18 3.59 5.08c2.56 5.69 1.57 10.81-2.97 15.35c-0.66 0.66-1.28 1.2-1.86 1.61c-6.52 4.37-11.68 4.66-15.47 0.87c-3.88-3.88-5.16-8.05-3.84-12.5l0.37-0.37c0.5 0.99 0.95 1.69 1.36 2.1c-0.41 3.22 0.74 6.19 3.47 8.91c0.91 0.74 1.44 1.2 1.61 1.36c4.54 1.57 8.67 0.5 12.38-3.22l1.86-2.1c3.55-5.37 2.89-10.48-1.98-15.35l-0.5-0.5c-0.25-0.25 0.08-0.99 0.99-2.23l0.99 0.99zm-30.21-29.71l-0.5 0.5l-0.12-0.12l0.5-0.5l0.12 0.12zm73.17 76.38c1.49 0.5 2.72 0.83 3.71 0.99l0.25 0.25c-1.49 1.15-2.48 1.98-2.97 2.48l-1.11-0.87l-1.61-1.61c0.16-0.16 0.74-0.58 1.73-1.24v0zm-62.39-64.38c0.82 0.82-0.62 3.09-4.33 6.81c-7.02 7.02-16.59 5.78-28.72-3.71l1.61-1.61c10.89 8.58 19.44 9.78 25.63 3.59c1.81-1.81 3.42-3.92 4.83-6.31c0.25 0.41 0.58 0.82 0.99 1.24v0zm13.87 14.11l-1.24 1.98c-6.11-2.15-12.67 0.12-19.68 6.81l-1.86 1.86l-1.24 1.49c-0.25-0.25-0.83-0.66-1.73-1.24c0.82-0.99 1.49-1.73 1.98-2.23l1.61-1.61c7.01-7.01 14.4-9.37 22.16-7.06v0zm-11.14-10.4l0.12 0.12l-0.25 0.25c-0.08-0.08-0.29-0.21-0.62-0.37l-0.12-0.12l0.12-0.12c0.16 0.16 0.41 0.25 0.74 0.25v0zm73.66 74.9c0.16 0.16-0.13 0.7-0.87 1.61l-0.25 0.25c-3.55-1.24-6.77-2.72-9.66-4.46c-0.17-0.17 0.21-0.79 1.11-1.86c3.96 2.15 7.18 3.63 9.66 4.46v0zm-34.04-32.56c-0.66 0.66-5.08 2.27-13.25 4.83c-0.74-0.74-0.7-1.53 0.12-2.35c5.36-1.57 9.2-2.93 11.51-4.09l1.61 1.61zm-87.28-85.79c-0.08 0.08-0.66 0.5-1.73 1.24c-1.07 1.07-1.32 2.72-0.74 4.95c1.73 3.88 1.61 6.81-0.37 8.79l-0.12 0.12l-0.5-1.49c-0.25-0.25-0.21-1.11 0.12-2.6c-2.06-5.36-2.02-9.12 0.12-11.27c0.74-0.74 1.61-1.28 2.6-1.61l0.62 1.86zm21.79 20.8c0.08 0.25 0.25 0.91 0.5 1.98c-4.54 2.72-8.58 5.86-12.13 9.41l-1.49 1.49c-0.74-1.24-0.99-1.98-0.74-2.23l0.74-0.74c3.71-3.71 8.05-7.06 13-10.03l0.12 0.12zm52.49 52.49c-1.82 0.33-2.93 0.7-3.34 1.11c-0.17-0.17 0.16-1.32 0.99-3.47l2.35 2.35zm51.75 51.75l0.12 0.12c-0.74 0.41-1.36 0.87-1.86 1.36l-0.12-0.12l0.99-1.49c0.08-0.08 0.37-0.04 0.87 0.12v0zm16.47 16.47l-0.25 1.98l-0.87 0.62l-0.5 0.5c-1.4 4.21-2.39 6.6-2.97 7.18l-0.99 0.99c-1.16 1.16-3.34 1.28-6.56 0.37c0.5-0.99 0.87-1.61 1.11-1.86c2.06 0.58 3.51 0.45 4.33-0.37l0.74-0.74c1.48-4.29 2.48-6.69 2.97-7.18l0.74-0.74c0.33-0.33 1.07-0.58 2.23-0.74v0zm-105.72-101.27c1.4 1.24 2.23 1.98 2.48 2.23l-1.49 1.49c-0.5-0.5-1.28-1.2-2.35-2.1c-1.73-1.73-4.17-4.99-7.3-9.78l1.61-1.61c2.56 4.38 4.91 7.63 7.06 9.78v0zm50.51 52.49l-0.12 0.12c-0.08-2.06-0.25-3.22-0.5-3.47l0.5-0.5c0.25 0.25 0.29 1.53 0.12 3.84v0zm-37.02-32.06c3.71-1.9 6.85-1.57 9.41 0.99l0.5 0.5c0.74 0.74 1.24 1.57 1.49 2.48c1.49 2.97 0.99 5.69-1.49 8.17c-1.4 1.4-2.68 2.19-3.84 2.35l0.25-2.23c0.74-0.41 1.24-0.74 1.49-0.99l0.12-0.12c2.8-2.8 2.89-5.53 0.25-8.17l-0.25-0.25c-0.41-0.41-0.83-0.74-1.24-0.99c-2.73-1.4-5.49-0.7-8.29 2.1l-0.12 0.12c-0.66-0.99-1.07-1.57-1.24-1.73c1.4-1.24 2.39-1.98 2.97-2.23v0zm30.45 23.52l0.12 0.12c-0.17 0.17-0.95 0.54-2.35 1.11c-2.06-0.41-3.76 0.04-5.08 1.36l-0.25 0.25c-1.57 1.57-1.69 3.01-0.37 4.33l0.62 0.62c0.99 0.99 2.85 2.19 5.57 3.59l-0.12 0.12c-0.41 0.41-0.91 0.66-1.49 0.74c-0.58 0.58-2.31-0.33-5.2-2.72l-0.62-0.62h-0.5c0.16-0.16 0.12-0.37-0.12-0.62c-1.82-1.82-1.57-4.21 0.74-7.18l0.12-0.12c2.56-2.56 5.53-2.89 8.91-0.99v0zm-57.94-56.7c-0.58 0.58-1.78 1.36-3.59 2.35c-0.33-0.33-0.5-0.58-0.5-0.74c1.15-1.15 2.31-2.15 3.47-2.97l0.62 1.36zm94.58 94.83c0.08 0.08-0.79 1.44-2.6 4.09l-0.5-0.25l-0.37-0.37c1.4-2.39 2.23-3.71 2.48-3.96c0.16-0.16 0.5 0 0.99 0.5v0zm-35.28-24.64l-0.5 0.5c-0.83 0.83-1.98 1.49-3.47 1.98c-5.04 1.4-9 0.66-11.88-2.23c-0.99-1.15-1.82-2.31-2.48-3.47l2.23-0.5c0.33 0.33 0.87 1.11 1.61 2.35c1.15 0.99 2.15 1.57 2.97 1.73c4.29 1.16 7.43 0.74 9.41-1.24l0.5-0.5c1.65-1.65 2.1-3.84 1.36-6.56l1.98-0.74c1.07 3.55 0.5 6.44-1.73 8.67v0zm32.31 21.91l-7.43 12.38l-0.12 0.12c-0.17-0.17-0.21-0.29-0.12-0.37l-0.74-0.5l-0.62-0.87c4.29-7.26 6.73-11.18 7.3-11.76c0.08 0.08 0.66 0.41 1.73 0.99v0zm-72.92-69.95l4.46 1.73l0.12 0.12c-1.4 0.41-2.77 1.03-4.09 1.86c-0.33 0.33-1.57-0.25-3.71-1.73c0.58-0.25 1.65-0.91 3.22-1.98v0zm-12.01-12.5l0.25 0.25c-5.28 2.31-9.28 2.1-12.01-0.62l-0.87-0.87c-1.24-1.24-2.23-2.97-2.97-5.2c0.33-0.17 0.91-0.66 1.73-1.49c0.74 2.39 1.65 4.13 2.72 5.2l0.99 0.99c1.81 1.81 4.79 1.9 8.91 0.25c0.91 0.91 1.32 1.4 1.24 1.49v0zm27.36 27.11l0.62 0.62c-1.49 3.3-2.64 8-3.47 14.11c-0.41 0.25-1.07 0.16-1.98-0.25c0.58-6.19 1.77-11.27 3.59-15.23c0.16-0.16 0.58 0.08 1.24 0.74v0zm38.01 39.24c0.33 0.33-0.21 1.69-1.61 4.09l-0.12 0.12c-0.91-1.73-1.4-2.64-1.49-2.72c-0.25-0.25 0.29-1.69 1.61-4.33l1.61 2.85zm3.96 3.71c-1.98 3.96-2.52 7.63-1.61 11.02c0.16 4.29 3.42 9.61 9.78 15.97l1.73 1.73l-1.61 1.61l-2.35-2.35c-2.15-2.15-3.59-3.84-4.33-5.08c-0.08 0.08-0.17 0.08-0.25 0c-2.39-2.39-4.21-6.6-5.45-12.63c-0.33-5.61 0.58-9.49 2.72-11.64l0.12-0.12c0.74 0.91 1.15 1.4 1.24 1.49v0zm-64.5-62.52c-0.58 0.58-1.94 1.03-4.09 1.36c-3.8-0.16-8.21-2.02-13.25-5.57l0.25-0.25c0.16-0.16 0.78 0.12 1.86 0.87c3.71 1.07 7.43 0.74 11.14-0.99c1.24 1.57 2.6 3.09 4.09 4.58v0zm52.12 52.12l-0.37 0.37l-0.25-0.25l0.37-0.37l0.25 0.25zm17.46 17.46c-1.57 3.22-1.9 6.44-0.99 9.66c0.99 1.82 1.4 2.81 1.24 2.97c-0.91-0.91-1.94-2.6-3.09-5.08c-1.57-3.88-1.86-7.39-0.87-10.52l0.25-0.25l2.35 2.35l1.11 0.87zm31.57 34.54c-2.48-0.16-4.09 0.12-4.83 0.87c-1.82 3.63-3.01 5.74-3.59 6.31l-0.25 0.25c-1.07 1.07-2.52 1.28-4.33 0.62l-0.12-0.12c0.66-0.66 1.07-1.24 1.24-1.73c0.74 0.25 1.36 0.12 1.86-0.37l0.25-0.25c1.9-3.88 3.01-5.98 3.34-6.31c1.4-1.4 3.75-1.86 7.06-1.36c0.08 0.91-0.12 1.61-0.62 2.1v0zm-56.33-56.33l-0.25-0.25l0.37-0.37c0.16 0.16 0.12 0.37-0.12 0.62v0zm-84.43-83.19l-0.87 0.62l-0.5 0.5l-0.25 0.5c3.46 5.28 4.09 9.04 1.86 11.27c-0.25 0.08-0.5 0.25-0.74 0.5l-0.5 0.5l-1.11-1.86l0.99-0.99c0.74-0.74 0.78-2.02 0.12-3.84c-2.48-3.8-3.09-6.31-1.86-7.55l0.62-0.62c0.41-0.41 0.86-0.7 1.36-0.87c0.08 0.08 0.37 0.7 0.87 1.86v0zm57.2 56.45c-0.17 0.17-0.29 0.37-0.37 0.62l-0.25-0.25l0.5-0.5l0.12 0.12zm32.68 33.92c2.8 2.8 5.07 6.64 6.81 11.51c0.74 3.05 0.82 6.19 0.25 9.41c-1.82 5.94-3.67 9.86-5.57 11.76l-1.36-1.36c3.55-5.69 5.32-10.36 5.32-13.99c-0.41-6.19-2.72-11.39-6.93-15.6l-1.36-1.36l0.87-0.62l0.87-0.87l1.11 1.11zm-53.73-47.29c3.55 0.41 6.64 1.61 9.28 3.59c-0.66 0.5-1.2 0.95-1.61 1.36c-2.06-1.07-3.59-1.77-4.58-2.1c-7.84-1.73-14.36 0-19.56 5.2c-1.98 1.98-3.72 4.13-5.2 6.44l-1.49-1.49c-0.33-0.33 1.28-2.35 4.83-6.07c5.12-5.12 11.22-7.43 18.32-6.93v0zm20.3 17.83l0.37 0.37c0.08 0.41-0.08 1.32-0.5 2.72l-1.98-1.98c-1.73-1.73-4.09-5.16-7.06-10.28l1.86-1.11c2.72 4.7 5.16 8.13 7.3 10.28v0zm63.88 63.63l0.12 0.12c-2.56 3.22-4.13 5.12-4.7 5.69c-4.04 4.04-8.46 6.56-13.25 7.55l-0.87-1.11l-0.87-0.87v-0.5c2.47-3.14 4.79-6.36 6.93-9.66l1.49 1.49c-1.9 3.05-3.72 5.61-5.45 7.68l-0.12 0.12l0.37 0.37c3.71-1.4 7.18-3.71 10.4-6.93c0.91-0.91 2.23-2.48 3.96-4.7c0.25 0.25 0.91 0.5 1.98 0.74v0zm-132.71-132.22l0.87 0.87c1.15 2.81 0.82 5.12-0.99 6.93c-1.07 1.07-2.89 2.15-5.45 3.22c-0.17-0.17-0.04-0.95 0.37-2.35c1.98-1.15 3.18-1.94 3.59-2.35c1.24-1.9 1.32-3.39 0.25-4.46l-0.25-0.25c-0.41-0.25-0.95-0.04-1.61 0.62l-0.5 0.5c-2.48 2.48-3.71 6.44-3.71 11.88c1.57 5.69 0.54 10.36-3.09 13.99l-0.12 0.12l-0.12-0.37l-1.24-1.24c1.65-1.98 2.35-3.09 2.1-3.34c1.15-1.15 1.28-4.17 0.37-9.04c0-6.11 1.28-10.44 3.84-13l1.24-1.24c1.9-1.4 3.38-1.57 4.46-0.5v0zm153.88 160.81c1.73-1.73 4.04-1.73 6.93 0l0.37 0.37c0.99 0.99 0.82 2.48-0.5 4.46l-1.24 1.24c-0.41 0.41-0.83 0.74-1.24 0.99c-4.54 2.39-8.96 3.26-13.25 2.6c-4.29-1.15-7.92-0.25-10.89 2.72l-0.87-0.87c-0.17-0.17-0.37-0.29-0.62-0.37l-0.12-0.12c2.72-2.72 5.78-4.04 9.16-3.96c7.76 1.32 13.33 0.29 16.71-3.09l0.74-0.74c0.5-0.5 0.66-0.91 0.5-1.24l-0.25-0.25c-1.16-1.16-2.68-1.03-4.58 0.37c-0.5 0.5-1.2 1.53-2.1 3.09c-0.25 0.25-1.03 0.54-2.35 0.87c0.58-2.39 1.53-4.25 2.85-5.57c0.41-0.41 0.66-0.58 0.74-0.5v0zm-119.96-124.91c-3.14 2.15-7.18 5.12-12.13 8.91c-3.05 3.05-4.87 4.29-5.45 3.71c-1.57-1.57 0.21-6.23 5.32-13.99l0.12-0.12c0.25 0.74 0.66 1.49 1.24 2.23l-0.12 0.12c-2.06 2.56-3.43 5.08-4.09 7.55l0.12 0.12c2.06-2.06 6.6-5.45 13.62-10.15c-0.08 0.08 0.37 0.62 1.36 1.61v0zm69.45 70.19l-1.73 1.73c-5.37 4.7-8.29 6.81-8.79 6.31l-0.37-0.37l-0.87-1.11c3.47-1.98 6.31-4.09 8.54-6.31l1.49-1.49l0.62-0.87l1.11 2.1zm-17.08-16.09c-0.83 0.83-4.91 1.44-12.26 1.86c-0.09-1.24-0.21-1.94-0.37-2.1c5.2-0.25 9.28-0.78 12.26-1.61l0.37 1.86zm11.64 10.89l0.87 0.87l0.87 1.11l-2.48 2.48c-0.17 0.17-0.33 0.16-0.5 0l-0.74-0.74c-0.58-0.58-1.57-1.4-2.97-2.48c1.07-0.08 2.72-0.5 4.95-1.24v0zm46.3 46.55l0.12 0.12c-0.33 0.33-0.62 0.87-0.87 1.61c-0.17 0.17-0.62 0.37-1.36 0.62c-2.89 4.04-4.38 6.11-4.46 6.19c-1.08 0.74-1.69 1.03-1.86 0.87c-0.74 0.74-2.19 0.54-4.33-0.62c-0.25-0.25 0-0.83 0.74-1.73l0.37-0.37c1.15 1.15 2.39 1.15 3.71 0c2.39-3.55 3.75-5.49 4.09-5.82c0.91-0.91 2.19-1.2 3.84-0.87v0zm-85.3-83.81c0.41 0.41 0.21 2.02-0.62 4.83l-1.24-1.49l-1.36-1.36c-0.17-0.17 0-0.58 0.5-1.24l1.98-1.98l0.74 1.24zm19.56 19.07c-0.33 0.33-0.74 1.65-1.24 3.96c-1.57 0.08-2.39 0.08-2.48 0c-0.08-0.08-0.17-0.91-0.25-2.48c0.5-0.5 1.81-0.99 3.96-1.49v0zm-36.15-26.49c4.37-0.74 7.76-0.41 10.15 0.99l-2.6 2.6l-0.87 1.11c-0.17-0.17-0.83-0.5-1.98-0.99c-3.22-0.91-6.36-0.58-9.41 0.99c-0.58 0.58-1.53 0.37-2.85-0.62c0.08-0.08 0.08-0.17 0-0.25c1.73-1.73 4.25-3.01 7.55-3.84v0zm-32.19-40.36l-0.99 0.99c-0.66 0.66-0.91 1.57-0.74 2.72c3.38 5.53 4 9.37 1.86 11.51l-0.12 0.12c-0.08-0.08-0.5-0.58-1.24-1.49c0.5-1.49 0.41-3.22-0.25-5.2c-2.72-4.21-3.18-7.22-1.36-9.04l0.99-0.99l0.87-0.37l0.99 1.73zm93.47 104.61l-0.12 0.12l-0.12-0.12c0.58-1.73-0.04-4.58-1.86-8.54l2.23-2.23c1.24 3.38 1.2 6.98-0.12 10.77v0zm-32.06-37.51c0.5 6.93 1.24 11.88 2.23 14.86c-1.4 0.25-2.15 0.33-2.23 0.25c-0.33-1.65-0.66-3.05-0.99-4.21c-0.83-4.95-1.12-8.71-0.87-11.27l1.86 0.37zm45.19 48.41l0.62 0.62c0.25 0.25-1.53 2.93-5.32 8.05c-3.39-4.21-5.33-6.73-5.82-7.55c2.15-3.3 3.8-6.52 4.95-9.66l0.12-0.12c1.32 3.47 3.14 6.35 5.45 8.67v0zm10.77 10.77c0.74-0.74 1.86-0.62 3.34 0.37l-0.12 0.12c-2.31 0.5-3.84 0.7-4.58 0.62l1.36-1.11zm-108.57-110.55c0.66 0.66 0.21 2.02-1.36 4.09l-0.12 0.12l-0.25-0.25l1.11-5.32c0.25 0.25 0.45 0.7 0.62 1.36v0zm109.31 135.06c6.93-1.15 14.07-2.85 21.42-5.08c-0.58 0.58-1.28 1.94-2.1 4.09l-1.36-0.12c-6.27-1.32-11.35-0.04-15.23 3.84c-3.96-1.15-8.09 0.41-12.38 4.7c-2.48-1.65-4.95-3.63-7.43-5.94l-0.12-0.12c5.61-0.16 11.35-0.62 17.21-1.36v0zm-128.63-154.87l-1.98 5.69c-2.73 9.49-4.25 20.35-4.58 32.56c-2.64-2.8-4.58-5.24-5.82-7.3c0.82-1.16 1.2-1.78 1.11-1.86c3.14-3.14 4.29-6.6 3.47-10.4l1.98-2.97c2.39-2.39 2.93-6.98 1.61-13.74c2.31-0.99 3.67-1.69 4.09-2.1l0.12 0.12zm37.63 37.63l0.12 0.12c-2.97 0.99-5.65 2.68-8.05 5.08l-1.36 1.36c-4.38-3.05-6.93-4.95-7.68-5.69c2.8-2.8 5.32-4.99 7.55-6.56c3.88 2.72 7.01 4.62 9.41 5.69v0zm35.04 50.14c8.5-1.24 15.93 1.32 22.28 7.68l0.99 0.99c-0.17 0.17-0.7 0.62-1.61 1.36l-0.12 0.12l-1.36-1.36c-0.83-0.83-2.19-1.94-4.09-3.34c-9.58-5.12-17.13-4.91-22.66 0.62l-0.74 0.74c-2.64 2.64-3.63 6.77-2.97 12.38c-0.08 0.08-0.79 0.04-2.1-0.12c-0.99-5.94 0.37-10.77 4.09-14.48l0.12-0.12c2.15-2.15 4.87-3.63 8.17-4.46v0zm-33.05-36.27c4.7-2.06 9.37-0.79 13.99 3.84l1.24 1.24c4.46 4.46 6.93 10.4 7.43 17.83c-0.08 0.08-0.83-0.16-2.23-0.74c-0.58-6.52-2.77-11.68-6.56-15.47l-1.49-1.49c-2.97-2.97-6.23-4.33-9.78-4.09c-1.32 0.66-2.44 0.54-3.34-0.37l-0.25-0.25l0.99-0.5zm58.93 61.9l-0.12 0.12c-1.32 1.32-3.51 2.6-6.56 3.84l-0.99-0.99c-0.25-0.25-0.41-0.5-0.5-0.74l-0.12-0.12c3.14-1.15 5.24-2.27 6.31-3.34l0.25-0.25c2.48-2.48 2.68-5.74 0.62-9.78c0.99-0.99 1.53-1.44 1.61-1.36c2.89 5.2 2.72 9.41-0.5 12.63v0zm38.5 25.87c-0.17 0.17-0.62 0.78-1.36 1.86c-0.99-0.99-2.07-1.24-3.22-0.74c-0.25 0.25-1.57 2.15-3.96 5.69c-1.65 1.65-3.8 2.06-6.44 1.24l-0.25-0.25h0.5l1.49-1.49c1.49 0 2.52-0.29 3.09-0.87l3.84-5.57c1.65-1.65 3.75-1.61 6.31 0.12v0zm-56.2-54.47c-2.56-0.25-3.92-0.29-4.09-0.12c-0.33-0.33-0.45-0.95-0.37-1.86c0.08-0.08 1.15-0.16 3.22-0.25l1.24 2.23zm-13.99-13.74c0.25 2.06 0.33 3.14 0.25 3.22l-1.98-0.5c-0.25-2.39-0.45-3.67-0.62-3.84l0.37-0.37c0.41 0.41 1.07 0.91 1.98 1.49v0zm-59.79-57.81c-1.32 1.32-0.37 4 2.85 8.05c1.4 2.06 1.2 4-0.62 5.82l-0.87 0.87l-1.24-1.49l-0.12-0.12l1.11-1.11c0.91-0.91 0.29-2.68-1.86-5.32c-2.64-3.63-2.68-6.73-0.12-9.28c0.99 1.32 1.28 2.19 0.87 2.6v0zm42.96 43.7c-1.74 2.89-3.26 6.15-4.58 9.78c-0.17 0.17-0.74-0.16-1.73-0.99c2.06-5.69 3.55-8.99 4.46-9.9c0.99 0.5 1.61 0.87 1.86 1.11v0zm39.12 40.11l-0.12 0.12l-0.62-0.62l0.12-0.12l0.62 0.62zm-1.11-0.87l0.25 0.25l-0.12 0.12c-1.32-1.32-4.09-2.02-8.29-2.1l-0.87-1.86c2.31 0 5.32 1.2 9.04 3.59v0zm-19.31-18.82c0.16 1.32 0.29 2.02 0.37 2.1c-3.47 0-8.67-1.4-15.6-4.21c0.33-0.33 0.66-0.91 0.99-1.73c5.11 1.98 9.86 3.26 14.24 3.84v0zm82.2 82.95c-1.4 3.22-2.52 5.24-3.34 6.07l-1.49 1.49c-4.7 4.7-11.06 6.02-19.07 3.96c-0.17-0.17-0.17-0.33 0-0.5l1.49-1.49c6.77 1.65 12.05 0.58 15.85-3.22l1.49-1.49c0.74-0.74 1.61-2.27 2.6-4.58c1.48-0.33 2.31-0.41 2.48-0.25v0zm-161.56-161.06v2.23c-2.23 0.74-3.67 1.44-4.33 2.1l-1.86 1.86c-3.71 3.71-4.83 9.04-3.34 15.97l-1.61 1.61l-0.37-0.37c-2.15-7.92-0.74-14.36 4.21-19.31l1.49-1.49c0.99-0.99 2.93-1.86 5.82-2.6v0zm139.15 140.14c-0.17 0.17-0.58 0.83-1.24 1.98c-0.41-0.41-1.03-0.29-1.86 0.37l-3.22 3.22c-0.66 0.66-1.24 1.07-1.73 1.24c-1.98 1.98-4.58 2.02-7.8 0.12c1.15-1.15 1.86-1.61 2.1-1.36c1.65 1.15 3.51 0.7 5.57-1.36l3.71-3.71c1.07-1.07 2.56-1.24 4.46-0.5v0zm-38.5-38.25c1.65 1.65 3.71 4.7 6.19 9.16l-1.49 1.49l-0.12-0.12c-2.89-4.7-4.75-7.47-5.57-8.29c-2.72-2.72-5.61-4.04-8.67-3.96c-0.33-1.15-0.58-1.82-0.74-1.98l0.12-0.12c4.04-0.25 7.47 1.03 10.28 3.84v0zm-37.63-35.9c2.06 4.21 1.44 7.97-1.86 11.27l-1.36 1.36c-1.65 1.65-3.51 2.43-5.57 2.35c0.16-0.16 0.29-0.78 0.37-1.86l0.25-0.25c1.32-0.17 2.52-0.78 3.59-1.86l1.11-1.11c1.49-1.49 2.31-2.89 2.48-4.21c0-2.81-0.62-4.83-1.86-6.07c-1.16-1.16-1.2-2.27-0.12-3.34c1.07 1.07 2.06 2.31 2.97 3.71v0zm-20.3-15.35c8.42 4.95 12.79 7.59 13.12 7.92l-0.74 1.73c-0.25 0.08-4.91-2.6-13.99-8.05l0.87-1.11l0.62-0.62v0l0.12 0.12zm24.76 21.54c-0.08-0.08-0.29-0.21-0.62-0.37c0.16-1.15 0.21-1.78 0.12-1.86l0.12-0.12c0.49 1.32 0.62 2.1 0.37 2.35v0zm11.27 11.02l0.87 3.34c-2.81 1.49-4.91 2.93-6.31 4.33l-0.5 0.5c-3.8 3.8-5.37 8.58-4.7 14.36c-1.82 0-4.42-0.7-7.8-2.1c-1.4-2.39-2.68-5.24-3.84-8.54l0.37-0.37c5.28-0.33 9.53-2.1 12.75-5.32c1.98-1.98 3.55-4.38 4.7-7.18c0.08 0.08 1.57 0.41 4.46 0.99v0zm12.75 21.66c-1.16 0.5-1.82 0.66-1.98 0.5c-1.74-3.05-3.59-7.39-5.57-13l0.25-0.25l1.98-0.25c1.98 5.61 3.75 9.94 5.32 13v0zm-74.53-81.21l-0.74 0.5l-0.87 0.87c-0.5 0.5-0.66 0.99-0.5 1.49l1.24 1.24c4.21 4.21 5.03 7.59 2.48 10.15l-0.12 0.12l-1.49-1.49c1.57-1.57 0.87-3.84-2.1-6.81l-1.61-1.61c-1.4-1.4-1.11-3.09 0.87-5.08l1.61-1.36c0.74 1.07 1.15 1.73 1.24 1.98v0zm98.79 100.77c4.54 5.37 6.6 8.25 6.19 8.67l-0.5 0.5c-1.16 0.17-2.31 0.08-3.47-0.25c-4.95-1.98-8.17-3.71-9.66-5.2c0.91-0.74 1.53-1.2 1.86-1.36c2.64 1.82 5.11 3.22 7.43 4.21l0.25-0.25c-5.04-6.85-8.3-11.43-9.78-13.74c0.33-0.17 0.91-0.58 1.73-1.24c3.8 5.45 5.78 8.34 5.94 8.67v0zm-117.98-111.3l-3.84-1.86c-0.25-0.41 0.62-1.69 2.6-3.84c0.74-0.74 1.52-1.36 2.35-1.86c0.82 3.47 0.45 5.98-1.11 7.55v0zm101.39 92.73c-3.63 1.81-7.92 3.22-12.88 4.21c-0.66-0.66-0.66-1.4 0-2.23c4.54-0.91 8.29-2.1 11.27-3.59l1.61 1.61zm56.45 56.45c-0.66 0.99-1.16 1.65-1.49 1.98l-0.37 0.37c-1.24 1.24-2.48 2.15-3.71 2.72c-0.99-2.15-1.65-3.39-1.98-3.71c1.81-1.81 4.33-2.27 7.55-1.36v0zm-83.81-81.83c-0.83 2.64-2.15 4.87-3.96 6.69c-2.06 2.06-4.38 3.47-6.93 4.21c-6.93 1.65-12.71 0.16-17.33-4.46l-1.86-1.86c-2.81-2.81-5.53-7.43-8.17-13.87c-1.49-4.79-1.49-9.24 0-13.37c0.16-0.16 0.5 0 0.99 0.5l0.99 0.99c-0.74 1.07-1.03 3.67-0.87 7.8c1.98 7.1 4.99 12.67 9.04 16.71l0.74 0.74c1.73 1.73 3.46 3.05 5.2 3.96c6.85 2.39 12.26 1.61 16.22-2.35c1.98-1.98 3.3-4.04 3.96-6.19c0.16-0.16 0.82 0 1.98 0.5v0zm30.21 32.19c-0.25 0.25-0.79 0.45-1.61 0.62c-1.32-1.32-2.23-2.56-2.72-3.71l1.98-0.74l2.35 3.84zm-63.88-64.87l-0.12 0.12l-1.36 1.61l-6.69-4.7l-0.25 0.25c1.57 3.71 3.75 6.97 6.56 9.78c1.9 1.73 3.63 3.22 5.2 4.46l-0.87 1.86c-1.4-0.74-3.39-2.31-5.94-4.7c-1.98-1.98-3.72-4.29-5.2-6.93c-2.15-4.62-2.85-7.3-2.1-8.05l0.5-0.5c0.66-0.16 1.03-0.21 1.11-0.12l0.87 0.87c0.91 0.91 3.67 2.93 8.29 6.07v0zm14.73 14.73c-0.17 0.17-0.37 0.54-0.62 1.11c-2.15-1.49-3.43-2.44-3.84-2.85l-0.12-0.12l0.37-0.37c0.25-0.25 1.65 0.5 4.21 2.23v0zm-5.82-4.83c-0.83 0.99-1.57 1.98-2.23 2.97c-2.23 5.2-0.83 10.32 4.21 15.35c0.66 0.66 0.74 1.73 0.25 3.22c-0.5-0.5-1.03-0.95-1.61-1.36c-3.14-3.14-5.24-6.73-6.31-10.77c0-4.62 1.24-8.17 3.71-10.65c0.16 0.16 0.82 0.58 1.98 1.24v0zm13.12 14.11c0.25 0.25 0 0.91-0.74 1.98c-7.92-4.46-12.63-7.43-14.11-8.91c-0.09-0.74 0.08-1.57 0.5-2.48c5.53 4.21 10.32 7.34 14.36 9.41v0zm50.76 52.24c-3.8 3.8-8.79 5.65-14.98 5.57c-7.76-1.15-13.95-4.04-18.57-8.67l-0.99-0.99c-1.24-1.24-2.6-3.51-4.09-6.81l0.12-0.12l2.23-0.25c1.4 3.05 2.48 4.95 3.22 5.69l0.87 0.87c1.24 1.24 3.14 2.64 5.69 4.21c10.4 5.61 18.77 5.24 25.13-1.11l0.25-0.25c0.74 1.07 1.11 1.69 1.11 1.86v0zm-27.85-25.63c-1.74 2.56-2.85 5.08-3.34 7.55c-2.48 0.33-3.76 0.45-3.84 0.37c-0.66-4.13 0.21-7.39 2.6-9.78l0.12-0.12c0.82-0.82 1.77-1.44 2.85-1.86c0.58 0.58 1.11 1.86 1.61 3.84v0zm-16.34-18.32c-0.91 1.57-1.61 2.6-2.1 3.09l-0.74 0.74c-2.15 2.15-4.95 3.14-8.42 2.97l-0.12-2.85c2.8-0.82 4.95-1.98 6.44-3.47l1.61-1.61c0.41-0.08 1.53 0.29 3.34 1.11v0zm39.74 39.74l0.62 0.87l-0.12 0.12l-1.11-1.11l0.25-0.25l0.37 0.37zm9.41 26.49c0.82 0.82 2.68-0.04 5.57-2.6c2.97-2.97 5.65-3.26 8.05-0.87l0.37 0.37l-0.12 0.12l-1.49 1.24l-0.74-0.74c-1.07-1.07-3.05-0.16-5.94 2.72c-3.14 2.48-5.57 2.85-7.3 1.11l0.99-0.99c0.16-0.16 0.37-0.29 0.62-0.37v0zm-29.59-43.95c-2.39 5.03-2.35 8.79 0.12 11.27l0.25 0.25c1.65 1.65 4.21 2.56 7.68 2.72c0.5 0.5 1.15 1.24 1.98 2.23c-5.04 0.25-8.83-0.91-11.39-3.47l-0.37-0.37c-0.91-0.91-1.57-2.15-1.98-3.71c-0.58-4.87 0.29-8.46 2.6-10.77l0.12-0.12l0.99 1.98zm16.22 17.95l3.22 3.22c-0.08 0.08-0.74 0.41-1.98 0.99l-2.72-2.72c-3.05-3.05-6.03-6.93-8.91-11.64c1.24-0.25 1.94-0.45 2.1-0.62c2.72 4.37 5.49 7.96 8.29 10.77v0zm-87.4-88.14c-1.24 1.9-0.91 3.8 0.99 5.69c0.5 0.5 1.03 0.95 1.61 1.36c0.33 0.5 0.66 0.91 0.99 1.24c1.9 2.39 1.98 4.46 0.25 6.19l-0.25 0.25l-1.49-1.49c1.24-1.24 0.99-2.72-0.74-4.46l-1.49-1.24l-0.62-0.62c-2.64-3.3-2.89-6.02-0.74-8.17l0.12-0.12l1.36 1.36zm39.49 40.73c-1.4 3.22-2.11 8.21-2.1 14.98c-1.32-0.5-2.02-0.79-2.1-0.87l-0.12-1.11c0.25-6.03 1.11-10.77 2.6-14.24c0.16 0.16 0.74 0.58 1.73 1.24v0zm-56.58-56.08c3.63 3.63 3.14 7.76-1.49 12.38l-0.87 0.87c-0.25-0.25-0.62-0.87-1.11-1.86c-0.08-0.08 0.95-1.36 3.09-3.84c0.99-2.15 0.66-4.04-0.99-5.69c-1.4-1.4-3.18-2.44-5.32-3.09c0-0.99 0.08-1.65 0.25-1.98c2.47 0.33 4.62 1.4 6.44 3.22v0zm138.41 144.6c2.8-1.32 5.45-0.74 7.92 1.73c1.4 1.4 2.52 3.51 3.34 6.31c-0.17 0.17-0.83 0.33-1.98 0.5c-0.99-2.48-1.98-4.21-2.97-5.2l-0.37-0.37c-2.39-2.39-5.49-1.69-9.28 2.1c-0.17 0.17-0.79-0.12-1.86-0.87l-0.12-0.12c1.98-1.98 3.75-3.34 5.32-4.09v0zm-28.97-16.84c1.49 1.49 2.89 1.57 4.21 0.25c3.38-3.38 6.48-4.42 9.28-3.09l0.12 0.12l-0.74 0.74c-0.33 0.33-0.62 0.54-0.87 0.62c-2.15 0.17-4.25 1.28-6.31 3.34c-2.23 2.23-4.79 1.9-7.68-0.99l1.61-1.11c0.08-0.08 0.21-0.04 0.37 0.12v0zm-58.06-73.41c0.41 0.41 0.5 0.74 0.25 0.99l-0.12 0.12c-0.09-0.25-0.54-0.87-1.36-1.86l0.12-0.12l1.11 0.87zm40.61 41.1l0.62 0.62l-0.25 0.25l-0.87-0.62l-0.25-0.25c0.33-0.17 0.58-0.17 0.74 0v0zm15.72 18.45c0.5-0.5 2.02 0.21 4.58 2.1c-1.9-0.08-4.33-0.45-7.3-1.11c1.65-0.5 2.56-0.82 2.72-0.99v0zm-109.19-109.44c-4.29 4.29-7.93 7.59-10.89 9.9c-0.74-1.07-1.2-1.69-1.36-1.86c5.2-4.21 8.87-7.39 11.02-9.53l0.12-0.12c0.5 0.5 0.86 1.03 1.11 1.61v0zm144.84 144.35c-0.58 0.58-3.76 4.33-9.53 11.27c-0.17-0.17-0.79-0.62-1.86-1.36c4.29-5.12 7.51-8.75 9.66-10.89c0.16-0.16 0.74 0.16 1.73 0.99v0zm-110.55-109.56c0.16 0.16-0.13 1.77-0.87 4.83l-0.12-0.12c-0.83-3.63-1.28-6.15-1.36-7.55c1.15 1.49 1.94 2.43 2.35 2.85v0zm7.8 7.3c-0.17 6.11 1.86 11.27 6.07 15.47l1.11 1.11l1.98 1.49l-0.37 2.35l-1.36-1.36c-1.65-1.65-3.14-3.63-4.46-5.94c-3.39-6.02-4.66-10.61-3.84-13.74l0.12-0.12l0.74 0.74zm58.43 58.43l2.35 2.35l-0.25 0.25l-2.97 0.25c-6.44-0.99-11.64-3.47-15.6-7.43c-0.58-0.58-1.32-1.65-2.23-3.22l0.12-0.12c1.24-0.08 1.9-0.16 1.98-0.25c0.58 1.4 1.32 2.56 2.23 3.47l0.12 0.12c3.14 3.14 7.88 4.66 14.24 4.58v0zm-81.95-79.97c-0.99 0.99-0.7 2.52 0.87 4.58c1.65 1.65 3.05 2.89 4.21 3.71l0.12 0.37c1.57 1.57 1.61 3.51 0.12 5.82l-0.25 0.25l-0.25-0.25l-1.49-1.24c0.91-0.91 1.07-1.98 0.5-3.22c-1.65-1.32-3.05-2.56-4.21-3.71c-0.41-0.41-0.83-0.91-1.24-1.49c-1.32-2.81-1.32-4.87 0-6.19l0.12-0.12l1.49 1.49zm132.59 133.08c-0.91 1.9-1.65 3.14-2.23 3.71l-0.74 0.74c-2.97 2.97-6.27 4.04-9.9 3.22c-1.98-0.5-4.91-2.35-8.79-5.57l1.24-1.49l0.12-0.12c0.33 0.33 2.1 1.61 5.32 3.84c3.88 2.06 7.26 1.65 10.15-1.24l0.87-0.87c0.33-0.33 0.82-0.99 1.49-1.98c1.57-0.25 2.39-0.33 2.48-0.25v0zm-161.56-161.06c0.08 1.07 0 1.82-0.25 2.23c-0.91 0.41-1.57 0.83-1.98 1.24l-0.87 0.87c-1.9 1.9-2.73 4.04-2.48 6.44c-0.17 1.65 1.57 4.7 5.2 9.16l-0.12 0.12l-1.49 1.24c-3.22-4.04-4.87-6.52-4.95-7.43c-1.65-4.13-0.79-7.88 2.6-11.27l0.5-0.5c2.23-1.73 3.51-2.44 3.84-2.1v0zm94.83 97.06c-8.92 1.32-17 0.08-24.26-3.71c-2.23-2.89-4.13-7.59-5.69-14.11l0.25-0.25c0.08 0.08 0.74 0.25 1.98 0.5c2.15 7.1 3.75 11.18 4.83 12.26c6.85 3.38 14.4 4.42 22.66 3.09c0.08 1.4 0.16 2.15 0.25 2.23v0zm16.34 32.44c1.24 1.24 3.63 0.74 7.18-1.49c2.97-2.31 5.45-2.48 7.43-0.5l0.37 0.87l-0.5 0.5l-1.11 0.87c-0.08-0.08-0.08-0.16 0-0.25c-0.99-0.99-1.94-1.36-2.85-1.11c-5.78 4.13-9.86 4.99-12.26 2.6c0.66-0.66 1.24-1.15 1.73-1.49v0zm23.03 15.85c3.96 3.96 8.46 7.14 13.49 9.53c-0.66 0.66-1.16 1.24-1.49 1.73c-3.14-1.49-7.35-4.38-12.63-8.67c-1.24 1.24-2.93 2.68-5.08 4.33l-1.61-1.61c2.23-1.57 4.13-3.14 5.69-4.7l0.12-0.12c0.41-0.41 0.91-0.58 1.49-0.5v0zm-128.01-131.72c3.05 5.53 6.23 9.94 9.53 13.25c0.41 0.41 0.29 0.95-0.37 1.61l-0.12 0.12c-1.57 1.57-3.14 3.47-4.7 5.69l-1.61-1.61c1.73-2.23 3.05-3.8 3.96-4.7l0.37-0.37c-4.04-4.87-6.93-9.08-8.67-12.63c0.08-0.08 0.58-0.5 1.49-1.24l0.12-0.12zm-7.3-7.06c0.08 0.91 0.37 2.27 0.87 4.09c-1.08 0.74-1.69 1.2-1.86 1.36c-1.07-1.07-0.79-2.93 0.87-5.57l0.12 0.12zm30.45 30.45c-0.74 1.73-0.62 3.09 0.37 4.09c2.39 1.73 3.96 2.97 4.7 3.71l0.99 0.99c1.15 2.15 1.07 3.88-0.25 5.2c-0.25 0.25-0.83-0.08-1.73-0.99c0.99-0.99 0.87-2.1-0.37-3.34l-0.37-0.37c-0.58-0.58-1.98-1.73-4.21-3.47l-0.74-0.99c-1.4-1.4-1.44-3.43-0.12-6.07l0.12-0.12l1.11 1.11l0.5 0.25zm125.41 125.41c-1.4 1.4-3.3 1.73-5.69 0.99l-0.12-0.12l0.12-0.12c0.41-0.41 0.86-0.95 1.36-1.61c0.25-0.08 1.69 0.21 4.33 0.87v0zm-51.62-34.04c0.82 0.82 3.46-0.16 7.92-2.97c2.23-0.91 4.17-0.54 5.82 1.11l0.25 0.25c-0.17 0.17-0.74 0.5-1.73 0.99c-1.16-1.16-3.01-0.87-5.57 0.87c-3.88 2.56-6.77 2.89-8.67 0.99c-0.17-0.17-0.62-0.78-1.36-1.86l0.25-0.25c0.33-0.33 0.95-0.62 1.86-0.87c0.33 0.66 0.58 1.07 0.74 1.24l0.5 0.5zm-4.09 8.79c8.66 3.05 19.6 4.99 32.81 5.82c-0.08 0.08-0.25 0.16-0.5 0.25c-1.65 1.65-3.26 3.01-4.83 4.09c-0.58 0.58-1.94-0.04-4.09-1.86c-4.05-1.73-7.59-2.15-10.65-1.24c-4.13-2.15-9.37-3.51-15.72-4.09c-0.66-2.15-1.57-3.8-2.72-4.95c0.08-0.08 1.98 0.58 5.69 1.98v0zm-79.85-95.2c0.99 6.77 2.39 13.12 4.21 19.07c1.57 4.21 2.31 6.36 2.23 6.44c-0.74-0.74-2.31-1.57-4.7-2.48c-0.41-5.69-1.4-10.32-2.97-13.87c-0.99-0.99-1.2-2.19-0.62-3.59c0.16-5.12-1.07-9-3.71-11.64c-0.58-0.58 0.87-2.6 4.33-6.07l0.12-0.12c0.33 5.28 0.7 9.37 1.11 12.26v0zm-13.87-22.53c-2.48 2.48-4.66 4.5-6.56 6.07c-0.83-0.66-1.36-1.03-1.61-1.11l-0.12-0.12l7.06-6.31c0.66 0.66 1.07 1.16 1.24 1.49v0zm137.91 137.42c0.08 0.08-2.02 2.52-6.31 7.3c-0.74-1.07-1.16-1.65-1.24-1.73l5.69-6.69c0.08-0.08 0.7 0.29 1.86 1.11v0zm-112.53-110.3l0.37 0.37c-0.33 1.65-0.17 2.8 0.5 3.47l0.62 0.62l5.69 3.71c1.32 1.32 1.73 2.89 1.24 4.7l-0.12 0.12c-0.33-0.33-1.03-0.7-2.1-1.11c0.25-0.74 0.12-1.36-0.37-1.86c-0.41-0.41-2.23-1.57-5.45-3.47l-0.87-0.87c-1.65-1.65-1.9-3.8-0.74-6.44c0.16-0.16 0.58 0.08 1.24 0.74v0zm55.83 59.3l-0.12 0.12c-1.82-0.99-5.12-3.3-9.9-6.93l-0.25-0.25l0.12-0.12c1.73 0.74 4.17 1.2 7.3 1.36c1.15 3.14 2.1 5.08 2.85 5.82v0zm13.25 17.7c3.22-1.57 5.86-1.32 7.92 0.74l0.37 0.37l0.25 0.5c-0.17 0.17-0.79 0.54-1.86 1.11l-0.5-0.5c-1.07-1.07-2.68-1.28-4.83-0.62c-3.8 2.15-6.36 2.56-7.68 1.24l-1.86-2.35l2.1-0.62l1.36 1.36c0.58 0.41 2.14 0 4.7-1.24v0zm-90.25-96.19l-0.62 0.87l-0.25 0.25l-0.12-0.12c0.5-0.5-0.5-2.15-2.97-4.95l0.5-0.5c1.65 2.31 2.8 3.8 3.47 4.46v0zm128.63 127.64l-0.5 0.5c-2.73-2.39-4.33-3.34-4.83-2.85l-0.12-0.12l0.12-0.12l0.87-0.62c0.74 0.41 2.23 1.49 4.46 3.22v0zm-76.01-75.52c0.66 3.8 1.36 6.23 2.1 7.3l-0.12 0.12l-0.25-0.25c-1.73-1.73-4.58-5.57-8.54-11.51l0.12-0.12c1.81 1.81 4.04 3.3 6.69 4.46v0zm-54.22-50.01l-0.37 0.37l-0.25-0.25l0.74-0.74c0.16 0.16 0.12 0.37-0.12 0.62v0zm124.05 124.05l-0.37 0.37l-0.25-0.25l0.74-0.74c0.16 0.16 0.12 0.37-0.12 0.62v0zm-128.87-128.63c1.65 1.65 2.1 2.85 1.36 3.59l-1.36 1.36c-1.32 1.32-2.64 2.8-3.96 4.46l-0.12 0.12c-0.17-0.17-0.7-0.62-1.61-1.36c1.73-2.06 3.14-3.63 4.21-4.7l0.74-0.74c0.08-0.08-0.33-0.83-1.24-2.23l0.37-0.12l1.11-1.11c0.25 0.25 0.41 0.5 0.5 0.74v0zm86.91 95.82c4.45-1.65 7.39-1.78 8.79-0.37l0.99 0.99l0.12 0.37c-0.99 0.5-1.57 0.83-1.73 0.99l-1.11-1.11c-0.17-0.17-1.16-0.17-2.97 0c-3.96 1.65-6.64 1.77-8.05 0.37l-0.99-0.99c-0.17-0.17-0.58-0.74-1.24-1.73c0.16-0.16 0.95-0.29 2.35-0.37l0.25 0.5l1.36 1.36c0.08 0.08 0.82 0.08 2.23 0v0zm43.08 35.65c0.41-0.41 1.69 0.29 3.84 2.1l-1.24 1.24v0.5c-1.24-1.07-1.94-1.53-2.1-1.36l-0.74 0.74c-1.07 1.07-2.64 2.48-4.7 4.21l-1.36-1.61l-0.12-0.12c1.9-1.4 3.47-2.72 4.7-3.96l1.73-1.73zm-93.22-94.21l0.74 0.74c1.81 2.64 2.15 4.54 0.99 5.69c-0.17-0.17-0.79-0.37-1.86-0.62c0.5-1.49 0.29-2.68-0.62-3.59l-0.87-0.87c-0.5-0.5-2.31-1.57-5.45-3.22l-0.62-0.62c-0.99-0.99-1.44-2.52-1.36-4.58c0.16-0.16 0.87 0.12 2.1 0.87c0.08 1.07 0.41 1.9 0.99 2.48l0.25 0.25c2.8 1.32 4.7 2.48 5.69 3.47v0zm-44.57-41.84c-2.23 2.23-4.95 4.62-8.17 7.18l-0.25 0.5c1.15 0.66 1.77 1.03 1.86 1.11l0.12 0.12c-0.25 0.08-0.62 0.37-1.11 0.87c-0.58 0.58-1.78 0.12-3.59-1.36c-0.5-0.5-0.62-0.95-0.37-1.36c6.68-5.53 10.15-8.34 10.4-8.42l1.11 1.36zm146.83 146.58l0.12 0.12c-0.09 0.25-2.85 3.67-8.29 10.28c-0.33 0.33-0.74 0.33-1.24 0c-0.25-0.25-0.54-0.62-0.87-1.11c-1.24-1.24-1.28-2.43-0.12-3.59c0.08 0.08 0.21 0.04 0.37-0.12c0.08 0.08 0.41 0.66 0.99 1.73l0.37 0.12c4.12-4.95 6.56-7.8 7.3-8.54l1.36 1.11zm-133.46-132.22l1.24 1.24c3.71 3.71 5.24 7.63 4.58 11.76c-0.74-0.91-1.32-1.57-1.73-1.98c-0.66-3.3-2.06-6.03-4.21-8.17l-1.49-1.49c-1.4-1.4-2.85-2.6-4.33-3.59l1.49-1.49c1.32 0.82 2.8 2.06 4.46 3.71v0zm116.25 116.25l1.61 1.61c2.72 2.72 3.92 4.25 3.59 4.58l-1.36 1.36c-0.99-1.49-2.27-3.01-3.84-4.58l-1.36-1.36c-1.32-1.32-2.97-2.39-4.95-3.22c-1.82-0.16-3.51-1.03-5.08-2.6c4.21-0.58 8 0.82 11.39 4.21v0zm-86.66-81.95c3.8 1.32 5.98 2.27 6.56 2.85c1.15 1.15 1.65 2.48 1.49 3.96c-0.99 0-1.73-0.25-2.23-0.74c-0.17-0.66-0.37-1.11-0.62-1.36l-0.37-0.37c-4.21-1.73-6.6-2.89-7.18-3.47c-1.73-1.73-2.15-3.96-1.24-6.69c1.07 0.41 1.73 0.74 1.98 0.99c-0.41 1.9-0.25 3.22 0.5 3.96l1.11 0.87zm40.98 47.66c5.2-1.73 8.58-1.82 10.15-0.25c0.5 0.5 0.91 1.24 1.24 2.23c-0.41 0.41-0.99 0.66-1.73 0.74c-0.25-0.25-0.58-0.66-0.99-1.24c-0.5-0.5-1.4-0.74-2.72-0.74c-5.04 1.57-8.13 1.77-9.28 0.62l-0.87-0.87l-0.62-0.87c0.25-0.25 0.86-0.54 1.86-0.87l1.11 1.11l1.86 0.12zm-85.92-92.35c0.41-0.41 2.47 0.83 6.19 3.71l0.12 0.12c-0.17 0.17-0.62 0.7-1.36 1.61l-6.07-4.33l-0.12-0.12c0.16 0 0.58-0.33 1.24-0.99v0zm143.36 142.12c0.66 0.66 0.41 1.57-0.74 2.72l-4.46-6.19c0.91-0.74 1.4-1.15 1.49-1.24l0.12-0.12c0.33 0.33 1.53 1.94 3.59 4.83v0zm-63.26-54.1c4.62-1.49 7.88-1.28 9.78 0.62l0.74 0.74c-0.25 0.25-0.99 0.5-2.23 0.74c-1.24-0.58-2.23-0.91-2.97-0.99c-4.38 1.24-7.18 1.24-8.42 0c-1.07-1.07-1.69-2.68-1.86-4.83l1.86-0.12l1.49 3.22c0.25 0.25 0.78 0.45 1.61 0.62v0zm-31.07-36.27c3.63 1.32 5.98 2.52 7.06 3.59c1.24 1.24 1.73 2.81 1.49 4.7l-0.25 0.25c-1.07-0.41-1.69-0.54-1.86-0.37c0-1.49-0.29-2.52-0.87-3.09l-0.74-0.74c-4.21-1.57-6.64-2.68-7.3-3.34c-1.16-1.16-1.65-2.48-1.49-3.96c0.16 0.16 0.87 0.37 2.1 0.62c0.25 0.74 0.5 1.24 0.74 1.49l1.11 0.87zm-34.79-37.51c0.25 0.25 0.25 0.5 0 0.74c-1.9 3.88-2.64 7.76-2.23 11.64l-0.25 0.25l-1.98-0.74c-0.17-2.31-0.12-3.59 0.12-3.84c0.08-2.56 1.07-5.69 2.97-9.41l1.36 1.36zm116.49 116.49c-3.39 2.06-7.76 3.14-13.12 3.22c-0.08-0.08-0.37-0.78-0.87-2.1l0.25-0.25l0.12 0.12c3.8 0.33 7.76-0.58 11.88-2.72l1.73 1.73zm-59.05-50.14c4.95-0.16 8 0.33 9.16 1.49l0.12 0.12c0.74 0.74 1.15 1.9 1.24 3.47c-0.33 0.33-0.95 0.62-1.86 0.87l-0.12-0.12c-0.08-1.4-0.33-2.31-0.74-2.72l-0.12-0.12c-0.41-0.41-1.32-0.66-2.72-0.74c-3.96 0.33-6.52-0.08-7.68-1.24c-0.5-0.5-0.99-1.4-1.49-2.72l2.1-0.12l0.87 1.11c0.25 0.25 0.66 0.5 1.24 0.74v0zm-76.38-83.81l-1.61 1.61c-4.46-1.65-7.63-1.53-9.53 0.37c-2.56 2.56-2.39 5.28 0.5 8.17c3.8 3.8 8.75 2.64 14.86-3.47c0.91 0.74 1.48 1.15 1.73 1.24l0.12 0.12c-1.65 1.65-3.55 3.14-5.69 4.46c-5.12 2.8-9.33 2.56-12.63-0.74c-0.5-0.5-1.16-1.49-1.98-2.97c-1.4-3.05-0.95-5.74 1.36-8.05c2.97-2.97 7.26-3.22 12.88-0.74v0zm150.91 164.28l-1.11 0.87c-3.39 2.39-6.77 1.9-10.15-1.49c-0.74-0.74-1.49-1.98-2.23-3.71c-1.24-4.37 0.78-9.2 6.07-14.48c0.74 1.07 1.15 1.65 1.24 1.73l-1.86 2.1c-4.21 5.36-4.83 9.53-1.86 12.5c3.14 3.14 5.94 3.47 8.42 0.99c1.9-1.9 2.1-4.74 0.62-8.54c-0.33-0.83 0.04-1.77 1.11-2.85l0.12-0.12c2.64 5.78 2.52 10.11-0.37 13v0zm-93.47-100.15c4.87 0.74 8.05 1.86 9.53 3.34c0.74 1.07 1.15 1.98 1.24 2.72h-2.23l-0.62-1.36c-0.66-0.5-1.82-1.07-3.47-1.73c-3.47-0.5-5.49-1.03-6.07-1.61l-0.25-0.25c-0.83-0.83-1.12-2.68-0.87-5.57c0.16-0.16 0.78-0.04 1.86 0.37c0.16 2.31 0.37 3.59 0.62 3.84l0.25 0.25zm13.62 14.11c4.37 0.08 7.06 0.62 8.05 1.61l0.74 0.74c0.25 0.25 0.58 0.74 0.99 1.49l-0.12 0.12l-1.86 0.12c-0.91-0.74-1.86-1.28-2.85-1.61c-4.29 0-7.02-0.58-8.17-1.73l-0.74-0.74c-0.74-0.74-1.12-1.69-1.11-2.85c0.82-0.17 1.52-0.12 2.1 0.12c0.16 0.5 0.45 0.95 0.87 1.36l0.12 0.12v0c0.33 0.33 0.99 0.74 1.98 1.24v0zm-7.18-6.93c4.13 0.16 6.69 0.74 7.68 1.73l0.74 0.74c0.5 0.5 0.95 1.44 1.36 2.85l-0.12 0.12c-1.07 0.08-1.82 0-2.23-0.25c-0.17-0.5-0.37-0.87-0.62-1.11l-0.5-0.5c-0.58-0.58-1.4-0.91-2.48-0.99c-3.3 0-5.41-0.45-6.31-1.36l-0.74-0.74c-0.58-0.58-0.87-1.69-0.87-3.34c0.58-0.08 1.28 0.04 2.1 0.37c0.25 0.91 0.5 1.49 0.74 1.73l0.25 0.25c0.25 0.25 0.58 0.41 0.99 0.5v0zm-43.7-48.65l1.86 1.86c4.46 4.46 6.93 11.06 7.43 19.81c-0.5 0-1.2-0.21-2.1-0.62c-0.66-7.92-2.93-13.82-6.81-17.7l-2.1-2.1c0.08-0.08 0.29-0.78 0.62-2.1l1.11 0.87zm106.84 106.84l2.1 2.1l0.5 0.74c-1.24 0.41-1.9 0.66-1.98 0.74l-2.1-2.1c-3.88-3.88-9.82-6.19-17.83-6.93l-0.62-1.86c8.67 0.25 15.31 2.68 19.93 7.3v0zm-112.16-111.17l-0.87 2.1l-10.89-7.68c0.16-0.16 0.7-0.62 1.61-1.36c3.55 2.23 6.93 4.54 10.15 6.93v0zm125.16 128.13c0.25 0.25-0.08 0.83-0.99 1.73l-0.25 0.25c-4.21-6.19-6.77-9.74-7.68-10.65c0.41-0.41 1.11-0.78 2.1-1.11c2.14 2.97 4.41 6.23 6.81 9.78v0zm-117.11-114.64l-0.5 0.5c-0.33 0.33-0.62 0.54-0.87 0.62c-4.46 1.82-8.75 0.66-12.88-3.47c-0.91-0.91-1.94-2.35-3.09-4.33c-1.16-2.48-1.03-5.24 0.37-8.29c0.16-0.16 0.82 0.17 1.98 0.99c-1.74 3.55-0.95 6.97 2.35 10.28c4.95 3.96 8.75 4.62 11.39 1.98c0.08 0.08 0.49 0.66 1.24 1.73v0zm98.42 97.92c-0.41 0.58-0.74 0.99-0.99 1.24c-1.24 3.55-0.17 7.01 3.22 10.4c3.22 3.22 6.56 3.92 10.03 2.1l1.11 1.86c-0.33 0.33-0.58 0.5-0.74 0.5c-4.21 1.73-8.17 0.74-11.88-2.97c-0.91-1.07-1.44-1.69-1.61-1.86c-3.47-5.45-3.8-9.57-0.99-12.38c0.91 0.41 1.53 0.78 1.86 1.11v0zm-127.27-126.27l-1.11 1.11c-1.16 1.16-1.11 2.6 0.12 4.33c-0.25 0.25-0.91 0-1.98-0.74c-1.4-1.4-1.61-2.6-0.62-3.59l0.5-0.5c0.58-0.58 1.61-0.78 3.09-0.62v0zm153.39 157.1l-0.25 0.25c-0.99 0.99-1.9 1.07-2.72 0.25l-1.49-1.49l-0.87-1.11l0.12-0.12c2.06 1.24 3.63 1.32 4.7 0.25l1.11-1.11c0.25 1.4 0.04 2.44-0.62 3.09v0zm-135.56-138.04c0.16 0.16 0.12 1.11-0.12 2.85c-1.24-1.24-1.86-2.6-1.86-4.09c0.25-0.25 0.91 0.16 1.98 1.24v0zm118.48 118.72l0.12 0.12l-0.12 0.12c-1.57 0.08-2.93-0.45-4.09-1.61l-0.12-0.12l2.6-0.37c0.16 0.16 0.7 0.79 1.61 1.86v0zm-106.34-99.91l-0.87-0.62l-0.12-0.12c-1.32-1.32-2.23-2.72-2.72-4.21c0.66-0.16 1.49-0.5 2.48-0.99c0.91 2.89 1.32 4.87 1.24 5.94v0zm91.12 89.88c-1.57-0.58-2.85-1.36-3.84-2.35l-1.36-1.36l0.25-0.25l5.69 1.24c0.08 0.08-0.17 0.99-0.74 2.72v0zm-90.87-86.66c6.19 1.4 10.19 3.01 12.01 4.83l0.12 0.12c3.63 3.63 4.58 6.31 2.85 8.05l-0.62 0.62c-3.22 1.57-6.07 1.11-8.54-1.36c-1.65-1.65-2.48-4.13-2.48-7.43l0.12-0.12c1.15 0.33 1.86 0.62 2.1 0.87c0.08 2.39 0.7 4.17 1.86 5.32c1.81 1.81 3.8 2.06 5.94 0.74c0.82-0.82 0-2.48-2.48-4.95c-1.24-1.24-2.93-2.19-5.08-2.85c-5.28-1.15-8.54-2.35-9.78-3.59l-0.87-0.87c-2.72-2.72-4.29-5.78-4.7-9.16c0.25 0.25 1.03 0.45 2.35 0.62c0.49 2.64 1.77 4.99 3.84 7.06l1.11 1.11c0.5 0.5 1.24 0.83 2.23 0.99v0zm77.62 70.44c0.91 0.91 1.9 2.48 2.97 4.7c1.4 5.86 2.39 9.08 2.97 9.66l1.61 1.61c1.73 1.73 3.96 2.89 6.69 3.47c0.16 1.32 0.33 2.06 0.5 2.23c-3.3-0.33-6.27-1.82-8.91-4.46l-0.99-0.99c-0.74-0.74-1.36-1.69-1.86-2.85c-1.32-6.27-2.68-10.11-4.09-11.51c-2.81-2.81-4.58-3.84-5.32-3.09c-1.4 2.23-1.2 4.25 0.62 6.07c1.07 1.07 2.89 1.73 5.45 1.98c0.16 0.16 0.41 0.83 0.74 1.98l-0.12 0.12c-3.3 0-5.78-0.83-7.43-2.48l-0.12-0.12c-2.81-3.8-3.09-6.81-0.87-9.04c1.81-1.81 4.54-0.91 8.17 2.72v0z" />
</svg>
