<svg version="1.2" baseProfile="tiny-ps" xmlns="http://www.w3.org/2000/svg" viewBox="0 0 350 500" width="350" height="500">
	<title>fbg13.svg / Celtic Symbol Mid Dan N</title>
<defs>
   <linearGradient id="gold" x1="0%" y1="8%" x2="100%" y2="92%" >
    
          <stop offset="0%" style="stop-color:rgb(167,137,66);stop-opacity:1.00" />
          <stop offset="43%" style="stop-color:rgb(252,216,130);stop-opacity:1.00" />
          <stop offset="47%" style="stop-color:rgb(255,229,168);stop-opacity:1.00" />
          <stop offset="100%" style="stop-color:rgb(167,137,66);stop-opacity:1.00" />

    </linearGradient>
<filter id="shadow2">
      <feDropShadow dx="0" dy="0" stdDeviation="5"
          flood-color="#f8da93"/>
    </filter>
  </defs>
	<style>
		tspan { white-space:pre }
		.s0 { fill: none;stroke: #a78942;stroke-width: 2 }
                .s1 { fill: #1d6069;stroke: #a78942;stroke-width: 0 }
#k3a{transform:scale(0.99);transform-origin:center center;}
.dogold{stroke: url(#gold);stroke-width: 4} 
	</style>
	<path id="k3" class="s0 dogold" style="filter:url(#shadow2);" d="m113.24 111.21c20.42-11.44 41.21-17.16 62.36-17.16c26.36 0 50.48 7.75 72.35 23.25l0.65 1.09c-11.73 2.03-21.8 4.78-30.2 8.26c-14.34-6.23-28.83-9.34-43.45-9.34c-24.48 0-47.22 9.49-68.22 28.46c-15.21 16.95-23.9 31.8-26.07 44.54c-1.45 6.38-2.68 9.56-3.69 9.56c-11.44-12.46-17.16-19.63-17.16-21.51c10.57-29.69 28.39-52.07 53.45-67.14v0zm-97.99 16.08c0 3.91 0.36 7.9 1.09 11.95c5.36 26.94 17.67 51.64 36.94 74.09c21.15 21 40.12 34.69 56.92 41.06l6.08-23.68v-0.65c-11.59-5.5-25.49-15.43-41.72-29.77c-18.11-21.58-27.96-39.98-29.55-55.19v-0.65c8.83-2.32 17.52-3.48 26.07-3.48h3.48c0.87 0 1.66-0.22 2.39-0.65c13.04-14.19 20.21-21.29 21.51-21.29c0-2.03-8.55-3.04-25.64-3.04c-21.44 0-40.63 3.77-57.58 11.3v0zm185.98 8.26c-8.26 3.62-16.44 8.77-24.55 15.43c4.2 2.75 10.14 8.33 17.82 16.73c27.95-16.65 52.14-24.99 72.57-24.99h11.95c6.23 0 14.92 1.6 26.07 4.78c0 4.06-3.99 13.98-11.95 29.77c4.35 10.29 6.52 20.57 6.52 30.85v0.65h0.65c7.82-8.83 14.34-18.39 19.55-28.68c9.99-22.02 14.99-38.02 14.99-48.02c0-0.43-0.22-1.01-0.65-1.74c-19.12-8.4-38.97-12.6-59.53-12.6c-25.49 0-49.97 5.94-73.44 17.82v0zm-91.03 9.56v0.65c9.85 2.9 18.61 6.23 26.29 9.99c22.6 11.01 41.35 28.24 56.27 51.71c5.79 10.72 9.99 21.22 12.6 31.5c3.62 0 11.3-2.75 23.03-8.26c-3.04-17.96-15.07-39.18-36.07-63.66c-18.98-17.67-38.24-30.49-57.79-38.46c-7.39 2.61-15.5 8.11-24.33 16.51v0zm137.31 2.39c1.74 2.32 2.9 3.48 3.48 3.48c16.22 20.42 24.33 40.63 24.33 60.62v10.21c0 5.36-1.16 12.89-3.48 22.6c-6.95 22.02-18.83 39.18-35.63 51.49c-1.3 11.01-3.33 20.93-6.08 29.77l0.65 1.09c6.66-3.33 13.83-7.82 21.51-13.47c31.29-26.79 46.93-58.88 46.93-96.25c0-5.94-0.8-13.91-2.39-23.9c-3.91-19.26-11.44-35.63-22.6-49.1h-3.69c-15.35 1.3-23.03 2.46-23.03 3.48v0zm-119.5 59.31c-11.01 19.12-16.51 44.47-16.51 76.04v0.65c0 6.81 8.69 13.91 26.07 21.29l1.3-0.43c-0.87-2.61-1.67-11.15-2.39-25.64c0-16.08 3.91-34.91 11.73-56.49c4.2-11.15 12.31-23.03 24.33-35.63c0-1.88-6.08-7.6-18.25-17.16h-0.65c-11.88 12.89-20.42 25.35-25.64 37.37v0zm140.14 0.65c-28.24 24.63-58.08 36.94-89.51 36.94c-11.44 0-22.74-1.59-33.89-4.78c-1.74 1.3-3.91 9.42-6.52 24.33c2.03 1.88 13.11 3.26 33.24 4.13c17.82 0 35.63-2.75 53.45-8.26c17.82-5.94 32.08-13.11 42.8-21.51c4.35 0 6.52-6.88 6.52-20.64c-0.29-9.56-0.87-14.34-1.74-14.34c-2.9 2.17-4.35 3.55-4.35 4.13v0zm-214.88 9.56l0.65 2.82v3.04c0 11.73 2.75 24.63 8.26 38.67c0 4.06 6.95 15.94 20.86 35.63c27.23 28.1 57.07 42.15 89.51 42.15h7.17c5.07 0 10.21-0.43 15.43-1.3c3.91-4.92 7.1-13.18 9.56-24.77v-0.65h-0.65c-11.01 2.32-20.28 3.48-27.81 3.48c-23.76 0-44.54-7.53-62.36-22.6c-15.94-11.3-27.23-28.9-33.89-52.8c-13.62-11.59-22.16-19.7-25.64-24.33l-1.09 0.65zm171.64 45.19c-9.85 1.88-14.77 3.4-14.77 4.56v15.43c0 35.78-12.1 65.69-36.28 89.73c-2.03-1.59-3.26-2.39-3.69-2.39c-12.89-15.35-19.77-25.85-20.64-31.5c-14.49-3.04-23.97-6.01-28.46-8.91c-0.43 0-1.09 0.22-1.96 0.65c4.2 12.6 10.14 25.49 17.82 38.67c14.05 19.12 26.14 31.58 36.28 37.37c2.32 0 8.83-5.36 19.55-16.08c28.1-31.29 42.15-67.49 42.15-108.63v-3.04c0-4.05-0.15-10.35-0.43-18.9c-0.43 0-0.65-0.22-0.65-0.65c-5.51 1.74-8.47 2.97-8.91 3.69v0z" />
<path id="k3a" class="s1" d="m113.24 111.21c20.42-11.44 41.21-17.16 62.36-17.16c26.36 0 50.48 7.75 72.35 23.25l0.65 1.09c-11.73 2.03-21.8 4.78-30.2 8.26c-14.34-6.23-28.83-9.34-43.45-9.34c-24.48 0-47.22 9.49-68.22 28.46c-15.21 16.95-23.9 31.8-26.07 44.54c-1.45 6.38-2.68 9.56-3.69 9.56c-11.44-12.46-17.16-19.63-17.16-21.51c10.57-29.69 28.39-52.07 53.45-67.14v0zm-97.99 16.08c0 3.91 0.36 7.9 1.09 11.95c5.36 26.94 17.67 51.64 36.94 74.09c21.15 21 40.12 34.69 56.92 41.06l6.08-23.68v-0.65c-11.59-5.5-25.49-15.43-41.72-29.77c-18.11-21.58-27.96-39.98-29.55-55.19v-0.65c8.83-2.32 17.52-3.48 26.07-3.48h3.48c0.87 0 1.66-0.22 2.39-0.65c13.04-14.19 20.21-21.29 21.51-21.29c0-2.03-8.55-3.04-25.64-3.04c-21.44 0-40.63 3.77-57.58 11.3v0zm185.98 8.26c-8.26 3.62-16.44 8.77-24.55 15.43c4.2 2.75 10.14 8.33 17.82 16.73c27.95-16.65 52.14-24.99 72.57-24.99h11.95c6.23 0 14.92 1.6 26.07 4.78c0 4.06-3.99 13.98-11.95 29.77c4.35 10.29 6.52 20.57 6.52 30.85v0.65h0.65c7.82-8.83 14.34-18.39 19.55-28.68c9.99-22.02 14.99-38.02 14.99-48.02c0-0.43-0.22-1.01-0.65-1.74c-19.12-8.4-38.97-12.6-59.53-12.6c-25.49 0-49.97 5.94-73.44 17.82v0zm-91.03 9.56v0.65c9.85 2.9 18.61 6.23 26.29 9.99c22.6 11.01 41.35 28.24 56.27 51.71c5.79 10.72 9.99 21.22 12.6 31.5c3.62 0 11.3-2.75 23.03-8.26c-3.04-17.96-15.07-39.18-36.07-63.66c-18.98-17.67-38.24-30.49-57.79-38.46c-7.39 2.61-15.5 8.11-24.33 16.51v0zm137.31 2.39c1.74 2.32 2.9 3.48 3.48 3.48c16.22 20.42 24.33 40.63 24.33 60.62v10.21c0 5.36-1.16 12.89-3.48 22.6c-6.95 22.02-18.83 39.18-35.63 51.49c-1.3 11.01-3.33 20.93-6.08 29.77l0.65 1.09c6.66-3.33 13.83-7.82 21.51-13.47c31.29-26.79 46.93-58.88 46.93-96.25c0-5.94-0.8-13.91-2.39-23.9c-3.91-19.26-11.44-35.63-22.6-49.1h-3.69c-15.35 1.3-23.03 2.46-23.03 3.48v0zm-119.5 59.31c-11.01 19.12-16.51 44.47-16.51 76.04v0.65c0 6.81 8.69 13.91 26.07 21.29l1.3-0.43c-0.87-2.61-1.67-11.15-2.39-25.64c0-16.08 3.91-34.91 11.73-56.49c4.2-11.15 12.31-23.03 24.33-35.63c0-1.88-6.08-7.6-18.25-17.16h-0.65c-11.88 12.89-20.42 25.35-25.64 37.37v0zm140.14 0.65c-28.24 24.63-58.08 36.94-89.51 36.94c-11.44 0-22.74-1.59-33.89-4.78c-1.74 1.3-3.91 9.42-6.52 24.33c2.03 1.88 13.11 3.26 33.24 4.13c17.82 0 35.63-2.75 53.45-8.26c17.82-5.94 32.08-13.11 42.8-21.51c4.35 0 6.52-6.88 6.52-20.64c-0.29-9.56-0.87-14.34-1.74-14.34c-2.9 2.17-4.35 3.55-4.35 4.13v0zm-214.88 9.56l0.65 2.82v3.04c0 11.73 2.75 24.63 8.26 38.67c0 4.06 6.95 15.94 20.86 35.63c27.23 28.1 57.07 42.15 89.51 42.15h7.17c5.07 0 10.21-0.43 15.43-1.3c3.91-4.92 7.1-13.18 9.56-24.77v-0.65h-0.65c-11.01 2.32-20.28 3.48-27.81 3.48c-23.76 0-44.54-7.53-62.36-22.6c-15.94-11.3-27.23-28.9-33.89-52.8c-13.62-11.59-22.16-19.7-25.64-24.33l-1.09 0.65zm171.64 45.19c-9.85 1.88-14.77 3.4-14.77 4.56v15.43c0 35.78-12.1 65.69-36.28 89.73c-2.03-1.59-3.26-2.39-3.69-2.39c-12.89-15.35-19.77-25.85-20.64-31.5c-14.49-3.04-23.97-6.01-28.46-8.91c-0.43 0-1.09 0.22-1.96 0.65c4.2 12.6 10.14 25.49 17.82 38.67c14.05 19.12 26.14 31.58 36.28 37.37c2.32 0 8.83-5.36 19.55-16.08c28.1-31.29 42.15-67.49 42.15-108.63v-3.04c0-4.05-0.15-10.35-0.43-18.9c-0.43 0-0.65-0.22-0.65-0.65c-5.51 1.74-8.47 2.97-8.91 3.69v0z" />
</svg>