<svg version="1.2" baseProfile="tiny-ps" xmlns="http://www.w3.org/2000/svg" viewBox="0 0 350 500" width="350" height="500">
	<title>fbg12.svg / Celtic Knot Mid Dan N</title>
	<style>
		tspan { white-space:pre }
		.s0 { fill: none;stroke: #a78942;stroke-width: 1 }
.doopa{opacity:.1;fill: #1d6069;} 
	</style>
	<path id="k4a" class="doopa" d="m159.49 97.17c4.93-1.88 9.86-2.83 14.8-2.83h1.74c12.48 0 23.21 5.66 32.21 16.97c5.37 7.11 8.05 15.53 8.05 25.24v10.66c0.44 0.44 3.19 1.74 8.27 3.92c7.4 3.92 14.43 8.63 21.11 14.15c7.83 6.82 13.2 12.33 16.1 16.54c5.37 7.11 9.65 13.93 12.84 20.46c1.59 3.92 2.61 6.02 3.05 6.31h9.36c18.28 0 31.48 7.91 39.61 23.72c2.61 5.52 3.92 10.96 3.92 16.32v2.61c0 12.77-6.02 23.8-18.06 33.08c-7.26 4.64-15.16 6.96-23.72 6.96h-11.1c-0.29 0-1.02 1.52-2.18 4.57c-2.61 6.24-7.55 14.15-14.8 23.72c-6.39 7.4-11.97 12.91-16.76 16.54c-9.29 7.11-17.7 12.19-25.24 15.23c-1.6 0.58-2.39 1.02-2.39 1.31v11.1c0 14.22-5.88 25.68-17.63 34.38c-7.4 4.93-14.87 7.4-22.41 7.4h-2.61c-12.04 0-22.63-5.44-31.77-16.32c-5.52-7.25-8.27-16.32-8.27-27.2v-9.36c-0.29-0.44-1.96-1.23-5.01-2.39c-9.14-4.06-18.35-10.23-27.64-18.5c-7.4-6.96-12.26-12.33-14.58-16.1c-5.08-6.82-8.85-13.06-11.32-18.72c-1.6-3.77-2.54-5.66-2.83-5.66h-10.66c-17.27 0-30.18-8.12-38.74-24.37c-2.32-5.66-3.48-10.95-3.48-15.89v-1.74c0-13.35 6.02-24.52 18.06-33.51c6.67-4.79 15.16-7.18 25.46-7.18h9.36c0.44-0.44 1.74-3.12 3.92-8.05c3.34-7.4 9.5-16.25 18.5-26.55c10.01-9.58 17.55-15.59 22.63-18.06c4.93-3.05 10.37-5.88 16.32-8.49v-9.58c0-19.15 8.63-32.71 25.9-40.69v0zm-17.41 20.89c7.98-13.06 18.93-19.59 32.86-19.59h0.65c3.77 0 7.76 0.73 11.97 2.18c16.25 6.67 24.44 19.01 24.59 36.99v8.27c-6.82-2.32-13.57-3.99-20.24-5.01v-5.01c0-1.88-0.29-3.99-0.87-6.31c-3.63-7.4-8.78-11.1-15.45-11.1h-1.31c-3.34 0-6.75 1.23-10.23 3.7c-4.06 4.21-6.09 8.34-6.09 12.4c0 6.82 0 12.19 0 16.1v57.67c0 0.29-0.07 0.44-0.22 0.44h-19.37c-0.29 0-0.44-0.14-0.44-0.44v-45.7c0-6.38-0.07-15.67-0.22-27.86c0-5.08 1.45-10.66 4.35-16.76v0zm20.24 14.8c2.32-6.82 6.53-10.23 12.62-10.23c3.48 0 6.53 1.31 9.14 3.92c2.61 1.89 3.92 6.09 3.92 12.62v0.87l-0.22 0.22c-3.34-0.44-7.55-0.65-12.62-0.65h-0.22c-4.93 0-9.21 0.22-12.84 0.65v-4.79c0-0.72 0.07-1.59 0.22-2.61v0zm12.62 10.66c26.55 0 50.41 9.29 71.6 27.86c8.41 8.27 13.93 14.58 16.54 18.93c4.06 6.39 7.32 12.48 9.79 18.28v0.22h-21.98c-3.05-5.22-6.96-10.73-11.75-16.54c-18.28-19-39.61-28.51-63.98-28.51c-4.06 0-8.42 0.36-13.06 1.09v-20.46c3.92-0.44 8.19-0.72 12.84-0.87v0zm-87.26 46.13c2.03-3.77 7.11-9.65 15.23-17.63c9.72-8.99 19.95-15.59 30.68-19.8h0.22v21.76c0 0.44-0.73 0.95-2.18 1.52c-4.64 2.61-9.58 6.24-14.8 10.88c-18.72 17.99-28.07 39.17-28.07 63.54c0 3.48 0.36 7.83 1.09 13.06h-20.02c-0.58 0-1.02-4.35-1.31-13.06c0-21.62 6.38-41.71 19.15-60.28v0zm87.26-21.76c2.75 0 6.96 0.29 12.62 0.87c0.29 0 0.44 0.36 0.44 1.09v38.3c0 0.29-0.15 0.44-0.44 0.44h-25.46v-39.82c4.5-0.44 8.78-0.72 12.84-0.87v0zm19.59 2.39c2.18 0 8.05 2.18 17.63 6.53v86.18h-20.24v-93.14c1.74 0.15 2.61 0.29 2.61 0.44v0zm51.14 38.3h-29.38v-29.38c12.33 7.26 22.12 17.05 29.38 29.38v0zm-112.29-29.38h0.22v29.38h-29.38c6.96-12.04 16.68-21.83 29.16-29.38v0zm-98.15 43.52c6.82-6.67 16.32-10.01 28.51-10.01h7.18c-3.19 10.59-4.86 17.34-5.01 20.24h-4.35c-2.47 0-4.93 0.36-7.4 1.09c-7.11 3.63-10.66 8.7-10.66 15.23v1.31c0 0.73 0.07 1.6 0.22 2.61c2.9 9.14 8.63 13.71 17.19 13.71h72.9v19.8c0 0.29-0.15 0.44-0.44 0.44h-70.73c-8.85 0-16.4-2.03-22.63-6.09c-11.03-8.41-16.54-18.57-16.54-30.47v-0.65c0-10.45 3.92-19.51 11.75-27.2v0zm254.83-10.01c7.54 0 15.16 2.76 22.85 8.27c8.99 8.27 13.49 17.56 13.49 27.86v1.96c0 4.35-0.87 8.78-2.61 13.27c-7.26 15.38-19.3 23.07-36.12 23.07h-8.27l-0.44-0.22c3.34-10.15 5.01-16.76 5.01-19.8v-0.22h5.01c3.34 0 6.45-0.8 9.36-2.39c5.37-3.92 8.05-8.34 8.05-13.27v-2.18c0-3.92-1.67-7.62-5.01-11.1c-3.77-3.34-7.47-5.01-11.1-5.01c-6.82 0-12.33 0-16.54 0h-57.02c-0.29 0-0.44-0.07-0.44-0.22v-19.8h45.92c6.38 0 15.67-0.07 27.86-0.22v0zm-194.33 15.67c2.03-6.67 4.13-11.82 6.31-15.45h85.96v20.02h-93.14c0-0.44 0.29-1.96 0.87-4.57v0zm-47.66 18.93c2.03-6.82 6.16-10.23 12.4-10.23h4.79c-0.44 3.77-0.65 7.91-0.65 12.4c0 5.37 0.22 9.79 0.65 13.27h-5.66l-1.96-0.22c-6.67-2.47-10.01-6.6-10.01-12.4c0-1.16 0.14-2.1 0.44-2.83v0zm85.52-10.23v25.68h-39.39c-0.58-0.58-1.02-4.86-1.31-12.84c0.14-3.92 0.44-8.19 0.87-12.84h39.82zm24.37 0v93.14c-1.89-0.29-2.83-0.51-2.83-0.65c-2.03 0-7.76-2.1-17.19-6.31v-86.18h20.02zm30.03 0v25.24c0 0.29-0.15 0.44-0.44 0.44h-25.46v-25.68h25.9zm68.11 0c0.58 5.37 0.87 9.58 0.87 12.62c0 3.48-0.29 7.83-0.87 13.06h-39.82v-25.68h39.82zm24.37 0c0.58 3.92 0.87 8.2 0.87 12.84c0 28.29-10.23 53.17-30.68 74.64c-5.66 5.52-10.96 10.01-15.89 13.49c-6.82 4.21-12.99 7.47-18.5 9.79v-21.98l0.22-0.44c4.79-2.18 10.88-6.75 18.28-13.71c17.55-17.7 26.33-38.08 26.33-61.15v-1.52c0-4.5-0.36-8.49-1.09-11.97h20.46zm9.58 0c0.44 0 1.09 0.07 1.96 0.22c6.82 2.32 10.23 6.46 10.23 12.4c0 1.02-0.15 2.18-0.44 3.48c-2.47 6.39-6.31 9.58-11.53 9.58h-5.44c0.29-4.93 0.44-8.92 0.44-11.97v-1.52c0-5.22-0.22-9.28-0.65-12.19h5.44zm-34.82 29.81v0.22c-1.6 7.11-3.92 13.71-6.96 19.8c-33.66 0.15-60.5 0.22-80.52 0.22h-5.66v-20.24h93.14zm-155.81 24.37c1.74 3.92 5.73 9.5 11.97 16.76c18.13 18.72 39.02 28.07 62.67 28.07h1.52c4.5 0 8.63-0.36 12.4-1.09v20.46c-4.06 0.58-8.49 0.87-13.27 0.87c-21.33 0-41.2-6.16-59.63-18.5c-4.5-2.75-10.74-8.27-18.72-16.54c-8.7-9.58-15.16-19.59-19.37-30.03h22.41zm34.17 0v29.38c-12.33-7.25-22.13-17.05-29.38-29.38h29.38zm53.97 0c0.29 0 0.44 0.15 0.44 0.44v38.3l-0.22 1.09c-5.37 0.58-9.58 0.87-12.62 0.87c-3.48 0-7.83-0.29-13.06-0.87v-39.82h25.46zm24.59 0v71.38c0 8.56-2.03 15.96-6.09 22.2c-8.27 11.03-18.35 16.54-30.25 16.54h-1.96c-9.14 0-17.48-3.62-25.03-10.88c-7.4-6.82-11.1-16.54-11.1-29.16v-7.4c10.45 3.34 17.12 5.01 20.02 5.01h0.22v4.35c0 2.61 0.36 5.08 1.09 7.4c3.62 7.11 8.63 10.66 15.02 10.66h2.18c1.16 0 2.75-0.36 4.79-1.09c7.25-3.34 10.88-8.78 10.88-16.32v-72.68h20.24zm33.51 0c-7.26 12.33-17.05 22.13-29.38 29.38v-29.38h29.38zm-71.38 68.98h1.52c3.05 0 7.04-0.14 11.97-0.44h0.22v0.87c0 3.77-0.29 6.39-0.87 7.83c-2.47 5.8-6.46 8.7-11.97 8.7c-1.45 0-2.83-0.22-4.13-0.65c-5.95-2.61-8.92-6.45-8.92-11.53v-5.44c2.9 0.44 6.96 0.65 12.19 0.65v0z" />
<path id="k4" class="s0" d="m159.49 97.17c4.93-1.88 9.86-2.83 14.8-2.83h1.74c12.48 0 23.21 5.66 32.21 16.97c5.37 7.11 8.05 15.53 8.05 25.24v10.66c0.44 0.44 3.19 1.74 8.27 3.92c7.4 3.92 14.43 8.63 21.11 14.15c7.83 6.82 13.2 12.33 16.1 16.54c5.37 7.11 9.65 13.93 12.84 20.46c1.59 3.92 2.61 6.02 3.05 6.31h9.36c18.28 0 31.48 7.91 39.61 23.72c2.61 5.52 3.92 10.96 3.92 16.32v2.61c0 12.77-6.02 23.8-18.06 33.08c-7.26 4.64-15.16 6.96-23.72 6.96h-11.1c-0.29 0-1.02 1.52-2.18 4.57c-2.61 6.24-7.55 14.15-14.8 23.72c-6.39 7.4-11.97 12.91-16.76 16.54c-9.29 7.11-17.7 12.19-25.24 15.23c-1.6 0.58-2.39 1.02-2.39 1.31v11.1c0 14.22-5.88 25.68-17.63 34.38c-7.4 4.93-14.87 7.4-22.41 7.4h-2.61c-12.04 0-22.63-5.44-31.77-16.32c-5.52-7.25-8.27-16.32-8.27-27.2v-9.36c-0.29-0.44-1.96-1.23-5.01-2.39c-9.14-4.06-18.35-10.23-27.64-18.5c-7.4-6.96-12.26-12.33-14.58-16.1c-5.08-6.82-8.85-13.06-11.32-18.72c-1.6-3.77-2.54-5.66-2.83-5.66h-10.66c-17.27 0-30.18-8.12-38.74-24.37c-2.32-5.66-3.48-10.95-3.48-15.89v-1.74c0-13.35 6.02-24.52 18.06-33.51c6.67-4.79 15.16-7.18 25.46-7.18h9.36c0.44-0.44 1.74-3.12 3.92-8.05c3.34-7.4 9.5-16.25 18.5-26.55c10.01-9.58 17.55-15.59 22.63-18.06c4.93-3.05 10.37-5.88 16.32-8.49v-9.58c0-19.15 8.63-32.71 25.9-40.69v0zm-17.41 20.89c7.98-13.06 18.93-19.59 32.86-19.59h0.65c3.77 0 7.76 0.73 11.97 2.18c16.25 6.67 24.44 19.01 24.59 36.99v8.27c-6.82-2.32-13.57-3.99-20.24-5.01v-5.01c0-1.88-0.29-3.99-0.87-6.31c-3.63-7.4-8.78-11.1-15.45-11.1h-1.31c-3.34 0-6.75 1.23-10.23 3.7c-4.06 4.21-6.09 8.34-6.09 12.4c0 6.82 0 12.19 0 16.1v57.67c0 0.29-0.07 0.44-0.22 0.44h-19.37c-0.29 0-0.44-0.14-0.44-0.44v-45.7c0-6.38-0.07-15.67-0.22-27.86c0-5.08 1.45-10.66 4.35-16.76v0zm20.24 14.8c2.32-6.82 6.53-10.23 12.62-10.23c3.48 0 6.53 1.31 9.14 3.92c2.61 1.89 3.92 6.09 3.92 12.62v0.87l-0.22 0.22c-3.34-0.44-7.55-0.65-12.62-0.65h-0.22c-4.93 0-9.21 0.22-12.84 0.65v-4.79c0-0.72 0.07-1.59 0.22-2.61v0zm12.62 10.66c26.55 0 50.41 9.29 71.6 27.86c8.41 8.27 13.93 14.58 16.54 18.93c4.06 6.39 7.32 12.48 9.79 18.28v0.22h-21.98c-3.05-5.22-6.96-10.73-11.75-16.54c-18.28-19-39.61-28.51-63.98-28.51c-4.06 0-8.42 0.36-13.06 1.09v-20.46c3.92-0.44 8.19-0.72 12.84-0.87v0zm-87.26 46.13c2.03-3.77 7.11-9.65 15.23-17.63c9.72-8.99 19.95-15.59 30.68-19.8h0.22v21.76c0 0.44-0.73 0.95-2.18 1.52c-4.64 2.61-9.58 6.24-14.8 10.88c-18.72 17.99-28.07 39.17-28.07 63.54c0 3.48 0.36 7.83 1.09 13.06h-20.02c-0.58 0-1.02-4.35-1.31-13.06c0-21.62 6.38-41.71 19.15-60.28v0zm87.26-21.76c2.75 0 6.96 0.29 12.62 0.87c0.29 0 0.44 0.36 0.44 1.09v38.3c0 0.29-0.15 0.44-0.44 0.44h-25.46v-39.82c4.5-0.44 8.78-0.72 12.84-0.87v0zm19.59 2.39c2.18 0 8.05 2.18 17.63 6.53v86.18h-20.24v-93.14c1.74 0.15 2.61 0.29 2.61 0.44v0zm51.14 38.3h-29.38v-29.38c12.33 7.26 22.12 17.05 29.38 29.38v0zm-112.29-29.38h0.22v29.38h-29.38c6.96-12.04 16.68-21.83 29.16-29.38v0zm-98.15 43.52c6.82-6.67 16.32-10.01 28.51-10.01h7.18c-3.19 10.59-4.86 17.34-5.01 20.24h-4.35c-2.47 0-4.93 0.36-7.4 1.09c-7.11 3.63-10.66 8.7-10.66 15.23v1.31c0 0.73 0.07 1.6 0.22 2.61c2.9 9.14 8.63 13.71 17.19 13.71h72.9v19.8c0 0.29-0.15 0.44-0.44 0.44h-70.73c-8.85 0-16.4-2.03-22.63-6.09c-11.03-8.41-16.54-18.57-16.54-30.47v-0.65c0-10.45 3.92-19.51 11.75-27.2v0zm254.83-10.01c7.54 0 15.16 2.76 22.85 8.27c8.99 8.27 13.49 17.56 13.49 27.86v1.96c0 4.35-0.87 8.78-2.61 13.27c-7.26 15.38-19.3 23.07-36.12 23.07h-8.27l-0.44-0.22c3.34-10.15 5.01-16.76 5.01-19.8v-0.22h5.01c3.34 0 6.45-0.8 9.36-2.39c5.37-3.92 8.05-8.34 8.05-13.27v-2.18c0-3.92-1.67-7.62-5.01-11.1c-3.77-3.34-7.47-5.01-11.1-5.01c-6.82 0-12.33 0-16.54 0h-57.02c-0.29 0-0.44-0.07-0.44-0.22v-19.8h45.92c6.38 0 15.67-0.07 27.86-0.22v0zm-194.33 15.67c2.03-6.67 4.13-11.82 6.31-15.45h85.96v20.02h-93.14c0-0.44 0.29-1.96 0.87-4.57v0zm-47.66 18.93c2.03-6.82 6.16-10.23 12.4-10.23h4.79c-0.44 3.77-0.65 7.91-0.65 12.4c0 5.37 0.22 9.79 0.65 13.27h-5.66l-1.96-0.22c-6.67-2.47-10.01-6.6-10.01-12.4c0-1.16 0.14-2.1 0.44-2.83v0zm85.52-10.23v25.68h-39.39c-0.58-0.58-1.02-4.86-1.31-12.84c0.14-3.92 0.44-8.19 0.87-12.84h39.82zm24.37 0v93.14c-1.89-0.29-2.83-0.51-2.83-0.65c-2.03 0-7.76-2.1-17.19-6.31v-86.18h20.02zm30.03 0v25.24c0 0.29-0.15 0.44-0.44 0.44h-25.46v-25.68h25.9zm68.11 0c0.58 5.37 0.87 9.58 0.87 12.62c0 3.48-0.29 7.83-0.87 13.06h-39.82v-25.68h39.82zm24.37 0c0.58 3.92 0.87 8.2 0.87 12.84c0 28.29-10.23 53.17-30.68 74.64c-5.66 5.52-10.96 10.01-15.89 13.49c-6.82 4.21-12.99 7.47-18.5 9.79v-21.98l0.22-0.44c4.79-2.18 10.88-6.75 18.28-13.71c17.55-17.7 26.33-38.08 26.33-61.15v-1.52c0-4.5-0.36-8.49-1.09-11.97h20.46zm9.58 0c0.44 0 1.09 0.07 1.96 0.22c6.82 2.32 10.23 6.46 10.23 12.4c0 1.02-0.15 2.18-0.44 3.48c-2.47 6.39-6.31 9.58-11.53 9.58h-5.44c0.29-4.93 0.44-8.92 0.44-11.97v-1.52c0-5.22-0.22-9.28-0.65-12.19h5.44zm-34.82 29.81v0.22c-1.6 7.11-3.92 13.71-6.96 19.8c-33.66 0.15-60.5 0.22-80.52 0.22h-5.66v-20.24h93.14zm-155.81 24.37c1.74 3.92 5.73 9.5 11.97 16.76c18.13 18.72 39.02 28.07 62.67 28.07h1.52c4.5 0 8.63-0.36 12.4-1.09v20.46c-4.06 0.58-8.49 0.87-13.27 0.87c-21.33 0-41.2-6.16-59.63-18.5c-4.5-2.75-10.74-8.27-18.72-16.54c-8.7-9.58-15.16-19.59-19.37-30.03h22.41zm34.17 0v29.38c-12.33-7.25-22.13-17.05-29.38-29.38h29.38zm53.97 0c0.29 0 0.44 0.15 0.44 0.44v38.3l-0.22 1.09c-5.37 0.58-9.58 0.87-12.62 0.87c-3.48 0-7.83-0.29-13.06-0.87v-39.82h25.46zm24.59 0v71.38c0 8.56-2.03 15.96-6.09 22.2c-8.27 11.03-18.35 16.54-30.25 16.54h-1.96c-9.14 0-17.48-3.62-25.03-10.88c-7.4-6.82-11.1-16.54-11.1-29.16v-7.4c10.45 3.34 17.12 5.01 20.02 5.01h0.22v4.35c0 2.61 0.36 5.08 1.09 7.4c3.62 7.11 8.63 10.66 15.02 10.66h2.18c1.16 0 2.75-0.36 4.79-1.09c7.25-3.34 10.88-8.78 10.88-16.32v-72.68h20.24zm33.51 0c-7.26 12.33-17.05 22.13-29.38 29.38v-29.38h29.38zm-71.38 68.98h1.52c3.05 0 7.04-0.14 11.97-0.44h0.22v0.87c0 3.77-0.29 6.39-0.87 7.83c-2.47 5.8-6.46 8.7-11.97 8.7c-1.45 0-2.83-0.22-4.13-0.65c-5.95-2.61-8.92-6.45-8.92-11.53v-5.44c2.9 0.44 6.96 0.65 12.19 0.65v0z" />
</svg>