<svg version="1.2" baseProfile="tiny-ps" xmlns="http://www.w3.org/2000/svg" viewBox="0 0 350 500" width="350" height="500">
	<title>fbg15.svg / Celtic Symbol Mid Dan N</title>
<defs>
   <linearGradient id="gold" x1="0%" y1="8%" x2="100%" y2="92%" >
    
          <stop offset="0%" style="stop-color:rgb(167,137,66);stop-opacity:1.00" />
          <stop offset="43%" style="stop-color:rgb(252,216,130);stop-opacity:1.00" />
          <stop offset="47%" style="stop-color:rgb(255,229,168);stop-opacity:1.00" />
          <stop offset="100%" style="stop-color:rgb(167,137,66);stop-opacity:1.00" />

    </linearGradient>
<filter id="shadow2">
      <feDropShadow dx="0" dy="0" stdDeviation="5"
          flood-color="#e528fa"/>
    </filter>
  </defs>
	<style>
		tspan { white-space:pre }
		.s0 { fill: none;stroke: #a78942;stroke-width: 2 }
                .s1 { fill: #1d6069;stroke: #a78942;stroke-width: 0 }
#k2a{fill:#81198c;}
.dogold{stroke: url(#gold);stroke-width: 2} 
	</style>
<path id="k1" class="s0" d="m100.46 109.76c24.59-12.29 49.1-18.44 73.54-18.44c42.51 0 80.36 15.63 113.54 46.88c30.66 32.14 45.99 69.92 45.99 113.32l-0.44 0.44c0 0.3 0.15 0.44 0.44 0.44c0 21.33-5.48 43.99-16.44 67.99c-4 8.44-11.11 19.26-21.33 32.44c-12.15 12.89-20.66 20.81-25.55 23.77c-28.88 21.33-60.81 31.99-95.76 31.99c-39.7 0-75.54-14.14-107.54-42.44c-33.63-32.88-50.44-71.54-50.44-115.98c0-43.99 16.14-82.13 48.44-114.43c13.63-12.29 25.48-20.96 35.55-26v0zm-71.1 87.99c11.26-30.66 30.14-55.47 56.66-74.43c27.55-18.51 56.36-27.77 86.43-27.77h4.22c20.74 0 41.62 4.59 62.66 13.78c15.7 7.26 30.66 17.7 44.88 31.33c30.07 31.4 45.1 67.54 45.1 108.43v2.44c0 31.11-9.26 60.07-27.77 86.88c-2.82 5.33-11.11 14.66-24.88 28c-30.52 25.33-63.84 37.99-99.98 37.99h-4.22c-34.07 0-65.84-11.55-95.32-34.66c-5.78-4.44-12.96-11.48-21.55-21.11c-23.55-29.62-35.33-62.14-35.33-97.54v-2.22c0-17.77 3.03-34.81 9.11-51.1v0zm80.88-84.88c-12.44 5.33-26 14.66-40.66 28c-5.04 5.19-10.07 10.81-15.11 16.89c-20.74 28.59-31.11 58.73-31.11 90.43v4.22c0 30.22 9.63 59.18 28.88 86.88c5.78 8.59 15.63 18.74 29.55 30.44c28.88 21.18 58.8 31.77 89.76 31.77h6.44c15.4 0 31.85-3.11 49.33-9.33c38.96-15.11 67.47-41.62 85.54-79.54c8.89-20.29 13.33-40.36 13.33-60.21v-4.22c0-31.11-9.7-60.36-29.11-87.76c-5.04-7.85-14.81-17.92-29.33-30.22c-28.74-21.18-58.66-31.77-89.76-31.77h-6.44c-19.85 0-40.29 4.82-61.32 14.44v0zm49.99-3.33c3.11-4.74 5.48-7.11 7.11-7.11h0.89c1.18 0 2.67 0.3 4.44 0.89v0.22l-1.78 2.44c-0.74-0.44-1.56-0.67-2.44-0.67h-1.11l-0.89 0.67c-3.41 5.63-6.59 8.44-9.55 8.44h-0.89c-1.04 0-2.37-0.44-4-1.33c0-0.74 0.44-1.63 1.33-2.67c1.48 0.59 2.37 0.89 2.67 0.89h0.89c0.89 0 2-0.59 3.33-1.78v0zm8.67 1.11c5.03-5.48 8.37-8.22 10-8.22c3.11 0 5.33 1.11 6.67 3.33c-0.15 0-0.97 0.44-2.44 1.33c-1.33-1.18-2.52-1.78-3.55-1.78c-1.48 0.59-2.44 1.11-2.89 1.56c-3.7 4.74-6.52 7.11-8.44 7.11h-1.11c-2.08-0.15-3.11-0.52-3.11-1.11l1.56-2.22l2 0.44c0.44 0 0.89-0.15 1.33-0.44v0zm-23.33 1.78c4-5.92 7.26-8.89 9.78-8.89h0.44c1.48 0 3.03 0.74 4.67 2.22c-0.74 1.48-1.33 2.22-1.78 2.22c-1.48-0.89-2.44-1.33-2.89-1.33c-0.74 0-1.78 0.44-3.11 1.33c-3.85 5.78-6.81 8.67-8.89 8.67c-1.63 0-2.96-0.3-4-0.89c0-0.44 0.44-1.18 1.33-2.22c0.74 0 1.41 0.08 2 0.22c0.44 0 1.26-0.44 2.44-1.33v0zm37.55-2.89c5.18-4 8.67-6 10.44-6c2.07 0 3.7 0.89 4.89 2.67l-2.44 1.56l-2-1.11l-1.56 0.22c-6.08 4.44-9.78 6.67-11.11 6.67c-1.93 0-3.63-1.03-5.11-3.11c1.03-1.33 1.63-2 1.78-2c1.63 1.33 2.59 2 2.89 2c0.44 0 1.18-0.3 2.22-0.89v0zm10.44 2c5.78-3.85 9.7-5.78 11.78-5.78c1.78 0.3 3.48 1.48 5.11 3.55c0 0.15-0.82 0.74-2.44 1.78c-1.48-1.48-2.3-2.22-2.44-2.22h-1.11c-0.59 0-1.19 0.22-1.78 0.67c-5.19 3.55-8.59 5.33-10.22 5.33c-2.37 0-4.08-0.59-5.11-1.78c0-0.15 0.59-0.74 1.78-1.78c0.3 0 1.11 0.22 2.44 0.67l2-0.44zm-59.99 4.89c2.96-6.52 6.22-9.78 9.78-9.78c0.44 0 1.7 0.15 3.78 0.44l-1.78 2.67c-0.3 0-0.59-0.07-0.89-0.22c-1.48 0-2.89 0.52-4.22 1.56c-3.11 6.08-5.63 9.11-7.55 9.11c-0.74 0-2-0.44-3.78-1.33c0.3-1.78 0.67-2.67 1.11-2.67h0.22l2.22 1.11l1.11-0.89zm72.66-2c5.48-3.7 9.03-5.55 10.67-5.55h0.44c1.92 0 3.78 1.11 5.55 3.33v0.22c-0.44 0-1.33 0.37-2.67 1.11c-1.04-0.89-1.93-1.41-2.67-1.56c-0.59 0-1.41 0.15-2.44 0.44c-4.3 2.96-7.41 4.59-9.33 4.89c-2.82 0-4.74-1.11-5.78-3.33v-0.44c0.3 0 0.96-0.44 2-1.33c1.48 1.48 2.37 2.22 2.67 2.22h1.56zm-87.54 6.67c2.52 0 4.37-1.48 5.55-4.44c1.03-4.89 3.18-7.33 6.44-7.33c1.48 0 2.81 0.3 4 0.89c-0.74 1.33-1.11 2.22-1.11 2.67c-1.48-0.44-2.44-0.67-2.89-0.67c-0.59 0-1.19 0.22-1.78 0.67c-2.22 7.7-5.41 11.55-9.55 11.55c-0.89-0.15-1.63-0.22-2.22-0.22c0-2.07 0.52-3.11 1.56-3.11v0zm-6.89 3.78c1.18-8.29 4-12.44 8.44-12.44h1.11l2 0.44c-0.59 1.33-0.89 2.22-0.89 2.67h-2.89c-0.15 0-0.22 0.08-0.22 0.22c-1.78 0-3.19 3.04-4.22 9.11c-1.19 3.11-3.11 4.67-5.78 4.67c-0.74 0-1.93-0.22-3.55-0.67c0-1.33 0.22-2.29 0.67-2.89l2.67 0.67c0.89 0 1.78-0.59 2.67-1.78v0zm115.54-11.78c2.22 0 4.44 1.7 6.67 5.11c0 0.44-0.89 0.82-2.67 1.11c-1.33-1.92-2.67-2.89-4-2.89h-0.44l-11.11 3.78c-2.22-0.59-3.63-1.48-4.22-2.67v-0.22c0.3-0.59 1.11-1.18 2.44-1.78c0 0.59 0.37 1.11 1.11 1.56h0.67l11.55-4zm-163.75 62.21c2.07-4.44 9.26-12.81 21.55-25.11c26.66-22.66 55.69-33.99 87.1-33.99h5.33c21.92 0 43.25 5.85 63.99 17.55c15.25 8.15 29.62 21.26 43.1 39.33c16 24 24 48.66 24 73.99v2.89l0.22 0.67c-0.15 0-0.22 0.08-0.22 0.22v2c0 28-9.55 54.81-28.66 80.43l-10.44 11.78c-27.7 26.07-59.25 39.1-94.65 39.1c-29.48 0-56.66-9.26-81.54-27.77c-5.19-3.55-12.37-10.44-21.55-20.66c-20.59-25.92-30.88-53.55-30.88-82.88v-5.78c0-25.03 7.55-48.95 22.66-71.77v0zm166.2-53.55c6.22-1.92 9.78-2.89 10.67-2.89h1.11c1.48 0 2.81 1.19 4 3.55c0 0.15-0.97 0.44-2.89 0.89c-0.3-1.03-1.04-1.56-2.22-1.56h-0.22c-6.08 2.08-9.85 3.11-11.33 3.11c-2.67 0-4.89-1.63-6.67-4.89c0.59 0 1.41-0.3 2.44-0.89h0.44c1.33 1.78 2.59 2.67 3.78 2.67h0.89zm-131.98 22.22c-9.48 6.96-18.44 15.7-26.88 26.22c-17.92 24.59-26.88 50.21-26.88 76.88v5.78c0 25.33 8.22 50.07 24.66 74.21c7.11 9.33 15.92 18.3 26.44 26.88c24.59 17.92 50.14 26.88 76.65 26.88h6.67c25.33 0 50.14-8.59 74.43-25.77c6.52-4.15 15.25-12.66 26.22-25.55c17.78-24.88 26.66-50.44 26.66-76.65v-5.78c0-25.18-8.3-49.92-24.88-74.21c-6.81-9.18-15.55-18.14-26.22-26.88c-24.74-17.92-50.36-26.88-76.88-26.88h-6c-25.03 0-49.7 8.3-73.99 24.88v0zm1.78-11.33c1.33-8.59 4.22-12.89 8.67-12.89h2.67l-0.22 2.89h-1.56c-2.08 0-3.7 1.11-4.89 3.33c-1.19 6.81-2.96 10.22-5.33 10.22h-1.11l-1.56-0.44c0-0.3 0.22-1.26 0.67-2.89l0.44 0.22h1.33l0.89-0.44zm-25.77 40.22c27.55-33.18 61.25-49.77 101.1-49.77c24 0 46.66 6.52 67.99 19.55c6.96 4 15.63 11.41 26 22.22c21.92 25.48 32.88 53.03 32.88 82.65v4.89c0 19.85-5.55 40.14-16.66 60.88c-8 14.37-20.59 28-37.77 40.88c-23.11 15.11-46.51 22.66-70.21 22.66h-4.67c-19.85 0-40.07-5.55-60.66-16.66c-8.44-4.59-18.52-12.52-30.22-23.77c-22.52-25.48-33.77-54.21-33.77-86.21c0-28 8.67-53.77 26-77.32v0zm17.11-35.77c1.03-9.18 3.63-13.78 7.78-13.78h1.11c-0.44 1.63-0.67 2.52-0.67 2.67c-2.52 0-4.3 3.85-5.33 11.55c-1.19 3.26-3.56 4.89-7.11 4.89h-0.67c-0.3 0-0.44-0.22-0.44-0.67v-2.44h2c1.33 0 2.44-0.74 3.33-2.22v0zm157.09-12.89h1.56c4.74 1.19 7.11 3.26 7.11 6.22h-0.89l-2 0.22c0-1.92-1.93-3.11-5.78-3.55c-4.44 1.19-7.11 1.78-8 1.78h-0.89c-1.48 0-2.96-0.96-4.44-2.89v-0.22c1.48-0.59 2.37-0.89 2.67-0.89l1.78 1.11h0.22c0.59 0 3.48-0.59 8.67-1.78v0zm-0.22 5.11c0 1.78 0.81 3.04 2.44 3.78c4-0.59 7.18-0.89 9.55-0.89h1.33c1.63 0 3.11 1.19 4.44 3.55v0.44h-3.11l-1.33-0.89h-1.78c-1.19 0-4.37 0.3-9.55 0.89c-3.41-1.33-5.11-3.33-5.11-6c0-0.3 1.03-0.59 3.11-0.89v0zm-158.42 2l0.67 0.44l-0.67 2.89c-0.15 0-0.22-0.07-0.22-0.22c-3.56 0-5.33 1.85-5.33 5.55v6c-0.74 3.55-2.37 5.33-4.89 5.33h-1.11v-0.89l0.22-1.78c1.63 0 2.52-1.11 2.67-3.33v-6c0-5.33 2.89-8 8.67-8v0zm70.88 10.22c-4.89-1.18-8.81-1.78-11.78-1.78c-2.96 0-6.81 0.59-11.55 1.78c-13.04 4.74-21.63 11.41-25.77 20c-8.3 2.37-15.92 6.67-22.89 12.89c-8.44 8.89-12.66 14.74-12.66 17.55v1.56c0 2.52 3.63 5.63 10.89 9.33c5.63 3.55 13.78 6.3 24.44 8.22c2.96 6.22 5.33 10.74 7.11 13.55v0.22c-4 0.59-6.67 1.11-8 1.56c-3.85-4.15-7.85-7.78-12-10.89c-10.67-7.26-19.7-11.18-27.11-11.78c-1.19 0-2.52 0.44-4 1.33c-3.7 7.26-5.55 14.96-5.55 23.11c0 6.22 1.48 12.89 4.44 20c-4.44 5.19-6.67 11.04-6.67 17.55v1.33c0 3.85 0.81 8 2.44 12.44c3.56 10.37 10 18.52 19.33 24.44c1.78 6.52 3.41 10.66 4.89 12.44c0.74 2.37 4.29 7.33 10.66 14.89c12.59 11.26 21.7 17.77 27.33 19.55h1.33c3.11 0 6.44-4.67 10-14c1.63 0 3.48 0.44 5.55 1.33c-5.19 7.26-7.78 11.93-7.78 14v0.22c0 2.08 1.26 4 3.78 5.78c8.29 4.3 17.92 6.44 28.88 6.44c12.14 0 23.03-2.67 32.66-8c3.41 1.04 6.67 1.56 9.78 1.56h2.89c2.22 0 5.55-0.52 10-1.56c10.52-3.26 18.66-9.85 24.44-19.77c0-1.78 2.22-3.48 6.67-5.11c12.44-6.67 21.48-17.7 27.11-33.11c0-1.63-0.82-3.33-2.44-5.11c-10.22-6.37-22.07-9.55-35.55-9.55c-0.3 0-2.15-2.37-5.55-7.11v-0.22c3.41 0 9.03-1.41 16.89-4.22c10.37 8.44 19.63 13.7 27.77 15.78h0.89c0.59 0 1.63-0.37 3.11-1.11c4.15-8 6.22-16.22 6.22-24.66v-1.78c0-7.11-1.56-13.63-4.67-19.55c2.07-5.03 3.11-10.07 3.11-15.11c0-12.29-5.33-22.29-16-30c-1.19-5.63-2.3-9.63-3.33-12c-1.33-5.03-6.89-12.44-16.66-22.22c-10.22-8.44-16.89-12.66-20-12.66c-3.41 0-7.55 4.96-12.44 14.89h-0.22l-1.56-0.89v-0.89c5.18-7.55 7.78-11.85 7.78-12.89c0-1.33-0.59-2.81-1.78-4.44c-12.59-6.22-24.96-9.33-37.11-9.33h-1.78c-9.48 0-18 2-25.55 6v0zm97.98-4.22c0.74 0.59 1.41 0.89 2 0.89h6.89c4.44 0 7.26 2.52 8.44 7.55v0.22l-1.56-0.22h-0.67l-0.44 0.22c-0.3-0.59-0.52-0.89-0.67-0.89c0-1.48-1.48-2.74-4.44-3.78h-6.89c-3.55-0.3-5.33-1.56-5.33-3.78v-0.22h2.67zm-185.53 17.33c0-10.22 2-15.33 6-15.33v3.33c-1.04 0-1.85 0.89-2.44 2.67c-0.3 5.78-0.59 9.19-0.89 10.22c0 2.82-2.22 4.44-6.67 4.89l-0.22-3.11c2.81-0.3 4.22-1.18 4.22-2.67v0zm113.76-15.33c6.52 0 13.18 0.97 20 2.89c8 2.08 13.25 4.15 15.78 6.22v0.22c0 0.89-2.89 5.48-8.67 13.78c-1.33-0.44-2.37-0.67-3.11-0.67l8-11.78l-0.22-0.67c-11.11-4.59-21.77-6.89-31.99-6.89c-17.92 0-31.4 7.78-40.44 23.33c-1.33-0.59-2.22-0.89-2.67-0.89v-0.67c9.78-16.59 24.22-24.88 43.33-24.88v0zm80.88 4c0.44 2.96 1.7 4.44 3.78 4.44h4.44c7.11 1.33 10.66 3.93 10.66 7.78c-0.3 0-1.41-0.3-3.33-0.89c-1.78-2.52-4.96-3.78-9.55-3.78h-2.67c-3.26 0-5.41-2.52-6.44-7.55h3.11zm-151.75 18c9.63-11.85 20.59-17.77 32.88-17.77c2.52 0 5.55 0.44 9.11 1.33v0.22l-2.44 2c-0.3 0-2.59-0.15-6.89-0.44c-3.11 0-6.67 0.67-10.66 2c-16.15 6.08-24.22 17.11-24.22 33.11v3.33c0 4.74 0.74 10.44 2.22 17.11v0.22l-2.89-0.22c-1.78-7.26-2.67-13.55-2.67-18.89c0-8.44 1.85-15.78 5.55-22v0zm67.99-15.11c0 0.3 0.07 0.44 0.22 0.44l1.78-0.44c4.15 0.3 7.92 0.59 11.33 0.89c8.29 1.78 13.48 3.33 15.55 4.67c-1.63 2.52-3.41 5.11-5.33 7.78c-0.44 0-2.82-0.15-7.11-0.44c-4.59 0-9.48 0.44-14.66 1.33h-0.44c-3.56-4.15-7.48-8.29-11.78-12.44c2.52-0.59 6-1.18 10.44-1.78v0zm-113.32 1.56h0.67v3.11h-0.89c-2.37 0-3.56 1.48-3.56 4.44c0 1.48 0.15 3.93 0.44 7.33l-0.22 1.56c0 2.52-1.7 4.3-5.11 5.33l-0.22-0.44v-2.67c1.33 0 2.22-1.11 2.67-3.33c-0.44-2.96-0.67-5.55-0.67-7.78c0-5.03 2.29-7.55 6.89-7.55v0zm96.21 0.89c0.3 0 3.11 2.08 8.44 6.22c9.18 10.37 14.74 18.3 16.66 23.77c-0.44 0-1.11 0.37-2 1.11h-0.67c-6.81-13.48-15.41-23.33-25.77-29.55c0.44 0 1.56-0.52 3.33-1.56v0zm-18.44 2.22h0.22v0.22c-3.26 3.55-5.93 7.04-8 10.44c-5.33-1.18-9.04-1.78-11.11-1.78h-2.44c6.96-5.92 14.07-8.89 21.33-8.89v0zm74.88 16.66c3.56-7.26 6.89-12.14 10-14.66h0.44c6.67 3.11 14.74 9.55 24.22 19.33c5.92 6.81 9.63 14.44 11.11 22.89c-0.3 0-1.41-0.52-3.33-1.56l-2.67-8c-5.93-11.55-15.7-21.25-29.33-29.11c-0.59 0.59-1.7 2-3.33 4.22c-6.37 11.55-9.55 21.11-9.55 28.66c0 1.48-1.04 2.37-3.11 2.67c0-6.07 1.85-14.22 5.55-24.44v0zm52.88-14.66c1.33 1.93 3.7 3.19 7.11 3.78c6.37 0.89 9.55 3.41 9.55 7.55c-2.08 0-3.11-0.37-3.11-1.11c0-0.89-0.74-1.63-2.22-2.22c-9.33-1.63-14-4.29-14-8h2.67zm-102.65 10.66c-5.19 1.63-10.07 4.52-14.66 8.67c-3.85-3.26-6.59-5.18-8.22-5.78v-0.44c1.48-2.81 4.96-6.81 10.44-12c3.26 0.89 7.41 4.08 12.44 9.55v0zm-112.43-5.78h0.89v2l0.22 0.67c-1.78 1.19-2.67 3.26-2.67 6.22c0.44 3.55 0.67 5.85 0.67 6.89c0 2.37-1.63 4.15-4.89 5.33c-0.3 0-0.59-0.89-0.89-2.67c0.15-0.15 1.11-0.74 2.89-1.78c0-1.63-0.22-4.15-0.67-7.55c0-4.59 1.48-7.63 4.44-9.11v0zm187.08 14.22c7.26 7.7 11.33 13.55 12.22 17.55c-7.85-1.92-13.55-2.89-17.11-2.89c-3.26-4.44-7.85-9.63-13.78-15.55c1.18-2.81 2.89-5.92 5.11-9.33c1.18 0 5.7 3.41 13.55 10.22v0zm37.99-9.55v1.78c0 0.74 2.37 1.56 7.11 2.44c4.59 2.08 6.89 4.67 6.89 7.78v1.56l-2.67-1.11c-0.44-1.33-1.33-2.81-2.67-4.44c-8-1.78-12-3.78-12-6c0.15-1.33 0.3-2.22 0.44-2.67c1.03 0.44 2 0.67 2.89 0.67v0zm-86.65 0.67c10.67 0 17.63 2 20.89 6c0 0.44-0.3 1.33-0.89 2.67l-4-2.67c-2.96-2.07-8.22-3.11-15.78-3.11c-4 0.3-7.93 0.59-11.78 0.89c-0.44-0.15-1.11-1.03-2-2.67c6.22-0.74 10.74-1.11 13.55-1.11v0zm-75.99 0.44h4.89c9.92 0 19.55 4.22 28.88 12.66c-1.04 1.19-1.56 2-1.56 2.44h-0.22c-8.59-8-18.07-12-28.44-12h-0.67c-1.93 0-4.3 0.08-7.11 0.22h-0.22c0-2.22 1.48-3.33 4.44-3.33v0zm-43.55 28.66c6.67-12.89 17.03-21.7 31.11-26.44h0.22c-0.59 1.63-0.89 2.74-0.89 3.33c-12.59 5.04-21.55 12.66-26.88 22.89c0.44 1.04 2.89 2.82 7.33 5.33c12.14 5.48 22.81 8.22 31.99 8.22c0-0.3 0.15-0.44 0.44-0.44c1.03 0.3 1.92 0.44 2.67 0.44h0.22l0.67-0.44v0.44l7.11-0.67l0.89 2.89c-4.3 0.44-7.41 0.67-9.33 0.67c-3.7 0-8.37-0.37-14-1.11c-15.11-3.26-25.63-7.92-31.55-14v-1.11zm97.54-25.77c0.74 0 1.48 0.67 2.22 2v0.67h-0.67c-15.7 4.89-23.55 13.85-23.55 26.88v1.33c0 0.59-1.04 1.04-3.11 1.33v-3.33c0-13.63 8.37-23.25 25.11-28.88v0zm-122.65 2v1.56l0.22 1.33c-1.19 0-2.08 1.19-2.67 3.55l1.78 9.78v2.22c0 1.63-1.19 3.04-3.55 4.22c-0.44-0.44-0.82-1.26-1.11-2.44c1.18-1.03 1.78-1.63 1.78-1.78v-2c-1.19-5.78-1.78-9.11-1.78-10c0.74-4.29 2.52-6.44 5.33-6.44v0zm153.31 0.22h0.44v0.44c-1.78 2.37-5.04 5.85-9.78 10.44c-11.55 8.74-19.7 13.92-24.44 15.55c0-0.44-0.44-1.26-1.33-2.44c6.67-3.41 13.63-7.78 20.89-13.11c7.41-6.67 11.11-10.37 11.11-11.11l3.11 0.22zm-10.89 1.56h0.89c0 0.3-1.26 1.48-3.78 3.55h-0.44c0-0.44-0.59-1.56-1.78-3.33c2.37-0.15 4.07-0.22 5.11-0.22v0zm-78.21 1.56c0-0.74 2.15-1.18 6.44-1.33c4.89 0.3 8.07 0.74 9.55 1.33c-3.11 8-4.67 14.96-4.67 20.89c0 1.93 0.3 4.82 0.89 8.67c-0.44 0-0.82 0.08-1.11 0.22v-0.22l-4.22 0.22c-1.78 0-3.85-0.22-6.22-0.67c-1.48-7.26-2.22-13.03-2.22-17.33c0-4.15 0.52-8.07 1.56-11.78v0zm23.33 0.22v0.22c-3.41 8.3-5.11 15.41-5.11 21.33c0 10.22 6 22 18 35.33h-3.78c-11.55-12.59-17.33-24.36-17.33-35.33c0-6.67 1.85-14.07 5.55-22.22c0.59 0 1.48 0.22 2.67 0.67v0zm150.2-0.22l-0.22 1.33v0.89c0.59 1.04 1.78 2 3.56 2.89c8.14 1.04 12.22 4.08 12.22 9.11l-0.22 1.78h-0.67c-0.89-0.74-1.56-1.11-2-1.11c0-2.22-0.97-3.92-2.89-5.11c-8.74-1.63-13.11-4.22-13.11-7.78v-1.11l0.44-1.56c0.3 0 1.26 0.22 2.89 0.67v0zm-75.77 2.67l-2.44 9.78c0 5.33-0.59 8-1.78 8c-4.59 2.37-8.67 5.48-12.22 9.33c0.3-2.81 0.44-4.81 0.44-6c0-3.11-0.59-6.67-1.78-10.66v-0.22c6.96-6.67 11.18-10.96 12.66-12.89c0.3 0 2 0.89 5.11 2.67v0zm-36.22-1.56c2.37 3.41 3.92 6 4.67 7.78c-5.93 4-10.3 6.59-13.11 7.78c-0.59-1.48-2.44-4.15-5.55-8c2.81-3.26 7.48-5.78 14-7.55v0zm67.99 39.77v0.89c0 2.37-0.15 3.93-0.44 4.67c-1.48-0.3-2.37-0.44-2.67-0.44c0-0.15 0.07-1.48 0.22-4c0-11.55-6.67-23.77-20-36.66c0-0.89 0.3-2 0.89-3.33c14.66 14.22 22 27.18 22 38.88v0zm-141.76-37.77h0.22l-0.22 3.78v6.22c0 2.82 0.44 7.7 1.33 14.66c-5.78-1.18-12.3-3.92-19.55-8.22c5.03-7.41 11.11-12.89 18.22-16.44v0zm45.1 5.78c-2.37 6.22-3.55 12.07-3.55 17.55c-3.7 0.89-5.85 1.33-6.44 1.33c-0.3-2.81-0.44-4.81-0.44-6c0-5.18 1.18-10.96 3.56-17.33c0.89 0 3.18 1.48 6.89 4.44v0zm-103.98-2c0 0.3 0.22 1.19 0.67 2.67c-1.48 0.59-2.22 1.48-2.22 2.67v1.56c0 0.74 0.89 3.41 2.67 8v1.78c0 1.93-1.56 3.93-4.67 6c-0.44-0.15-0.74-1.03-0.89-2.67c1.78-1.78 2.67-3.11 2.67-4c-2.08-5.78-3.11-9.11-3.11-10c0.89-4 2.52-6 4.89-6v0zm120.43 10.66c8.59 13.92 12.89 21.7 12.89 23.33c-1.48 0.44-2.3 0.67-2.44 0.67h-0.44c-5.19-10.66-11.04-20.36-17.55-29.11c0-0.3 0.52-1.11 1.56-2.44c1.03 0.74 3.03 3.26 6 7.55v0zm130.2-6.89l-0.22 1.11l0.22 1.56c9.18 4.44 13.78 8.81 13.78 13.11v0.67h-0.44c-0.59-0.44-1.48-0.81-2.67-1.11c0-1.33-1.78-3.48-5.33-6.44c-5.78-2.22-8.67-4.67-8.67-7.33l0.44-2.22c1.48 0.44 2.44 0.67 2.89 0.67v0zm-72.66 0.67l3.55 3.78v0.44c-2.08 0.3-3.41 0.44-4 0.44h-0.44c0.44-2.81 0.67-4.37 0.67-4.67h0.22zm-31.11 2.44c1.48 3.41 2.22 6.74 2.22 10c0 2.22-0.52 4.82-1.56 7.78c-5.04 10.96-12.66 16.44-22.89 16.44c-9.93 0-16.22-4.59-18.89-13.78c1.48-0.3 2.37-0.44 2.67-0.44c2.96 7.55 7.92 11.33 14.89 11.33c3.41 0 6.89-0.74 10.44-2.22c8.14-5.03 12.22-11.4 12.22-19.11c-0.15-2.67-0.59-5.41-1.33-8.22c0-0.44 0.74-1.03 2.22-1.78v0zm-152.2 4.67c0 0.3 0.37 1.33 1.11 3.11c-1.19 0-2 1.19-2.44 3.55v0.89c0 0.74 0.15 1.48 0.44 2.22c1.78 4.74 2.67 7.33 2.67 7.78c0 1.33-0.82 2.96-2.44 4.89c-0.3 0-0.89-0.81-1.78-2.44l1.11-2c-1.93-5.03-2.89-8.44-2.89-10.22v-1.78c0-2.37 1.41-4.37 4.22-6v0zm119.76 3.11c-1.19 0.59-2 0.89-2.44 0.89h-0.22v-0.44c0-1.33 0.15-2.44 0.44-3.33c0.59 0.3 1.33 1.26 2.22 2.89v0zm42.66 8.89c9.03-7.55 18.81-11.33 29.33-11.33c0.59 0 1.26 0.82 2 2.44v0.22c-4.74 0.44-8.3 0.97-10.67 1.56c-15.7 4.3-23.55 11.33-23.55 21.11c0 2.96 0.37 5.04 1.11 6.22c0 0.89-0.82 1.33-2.44 1.33c-0.89 0-1.48-1.85-1.78-5.55v-3.11c0-4 2-8.29 6-12.89v0zm58.66-7.11c14.52 7.11 21.77 17.26 21.77 30.44c0 4.44-0.89 8.89-2.67 13.33c-1.48-1.63-2.3-2.44-2.44-2.44c1.33-3.7 2-7.18 2-10.44c0-9.48-4.15-17.48-12.44-24c-6.67-4.29-13.48-6.81-20.44-7.55c-3.11 0-5.04-1.18-5.78-3.55c5.92 0 12.59 1.41 20 4.22v0zm-74.65-3.78h0.44l0.44 3.78v1.78c0 4.3-2 8.08-6 11.33h-0.44c0-0.74-1.78-4.15-5.33-10.22l10.89-6.67zm115.76 3.33c0.3 0 0.74 1.19 1.33 3.55c7.55 2.82 11.33 5.93 11.33 9.33c0 1.78-0.44 3.41-1.33 4.89l-2.22-1.33c0.3-1.92 0.44-3.03 0.44-3.33c0-1.18-1.11-2.52-3.33-4c-5.78-1.63-8.67-3.92-8.67-6.89v-1.33l0.44-1.78c0.89 0 1.56 0.3 2 0.89v0zm-138.2 1.33c0 0.15 0.37 0.89 1.11 2.22l-0.67 0.67c-13.33 5.19-21.55 7.78-24.66 7.78l-0.89-2.89c4.29-0.3 12.66-2.89 25.11-7.78v0zm69.77 1.78h0.44c3.41 5.04 5.11 10.3 5.11 15.78c-0.3 1.04-0.44 1.63-0.44 1.78c-0.44 0-1.93-0.07-4.44-0.22c-1.93 0-5.04 0.15-9.33 0.44c-1.93-6.37-2.89-11.85-2.89-16.44c5.33-0.89 9.18-1.33 11.55-1.33v0zm22.66 3.11c2.67 0 4 1.41 4 4.22c0 6.22-0.82 11.55-2.44 16v0.22l-8.22-3.55l0.22-1.56v-4.22c0-3.7-1.04-8.29-3.11-13.78c4.44 0.89 7.63 1.78 9.55 2.67v0zm-41.33-1.11l2.89-0.89c0 8.89 3.26 20.37 9.78 34.44c-1.19 0.59-2.08 0.89-2.67 0.89h-0.22c-6.52-14.66-9.78-26.14-9.78-34.44v0zm-181.08 2.22h0.44c0 0.44 0.22 1.33 0.67 2.67c-0.74 0.89-1.11 1.63-1.11 2.22v1.33c3.11 5.04 4.67 8 4.67 8.89c0 2.22-1.19 4.52-3.55 6.89c-0.59-0.3-1.19-1.11-1.78-2.44c1.18-1.33 2-2.52 2.44-3.55l-0.44-1.56c-3.11-4.74-4.67-7.7-4.67-8.89c0-2.22 1.11-4.07 3.33-5.55v0zm131.09 0.89c0.74 0 2.74 3.26 6 9.78c-0.74 0-1.26 0.08-1.56 0.22c-5.33 0-9.11-2.37-11.33-7.11l6.89-2.89zm102.21 1.78v2c0 9.04-2.22 17.63-6.67 25.77c-4.44 8.59-10.81 14.44-19.11 17.55c-0.44 0-1.19-0.67-2.22-2v-0.44c4.44-1.63 8.07-3.7 10.89-6.22c9.33-9.92 14-21.11 14-33.55v-4.89c1.63 1.04 2.67 1.63 3.11 1.78v0zm-56.21-0.44h0.22c0.44 3.11 1.48 7.78 3.11 14c-6.08 1.48-9.48 2.22-10.22 2.22c-0.44 0-0.74-1.33-0.89-4c0-4.74 2.59-8.81 7.78-12.22v0zm93.32 0c0.3 0 1.18 0.3 2.67 0.89l-1.56 3.11c0 0.59 0.81 1.7 2.44 3.33c6.52 2.96 9.78 6.15 9.78 9.55v1.33l-0.22 1.56h-0.44c-0.89-0.74-1.48-1.11-1.78-1.11c-0.74-2.37-1.41-4-2-4.89c-7.11-3.55-10.67-6.74-10.67-9.55c0-0.89 0.44-2.29 1.33-4.22h0.44zm-240.85 16.44c1.48-6.96 2.96-11.33 4.44-13.11c4.74 0 12.52 3.26 23.33 9.78c4.89 3.26 9.33 7.19 13.33 11.78c-0.3 0-1.33 0.22-3.11 0.67c-0.89-0.59-1.33-1.03-1.33-1.33c-11.26-9.92-21.41-15.78-30.44-17.55h-0.22c-2.22 5.63-3.33 10.66-3.33 15.11v3.78c0 8.15 3.41 17.18 10.22 27.11c4.59 6.52 8.52 10.81 11.78 12.89v0.22l-1.11 2.22c-0.89 0-1.7-0.44-2.44-1.33c-14.52-14.22-21.77-28.59-21.77-43.1c0.44-4 0.67-6.37 0.67-7.11v0zm84.21-11.55c4.59 9.78 11.18 14.66 19.77 14.66h3.56c0.89 0 2.44-0.22 4.67-0.67c0.59 0 1.26 0.82 2 2.44c-6.96 0.89-14 1.48-21.11 1.78c-5.48-5.92-9.85-11.7-13.11-17.33l4.22-0.89zm-32.66 1.11c1.03 0 2 1.48 2.89 4.44c1.18 3.7 9.7 14 25.55 30.88h-3.78l-10.44-11.11c-9.33-10.07-14.81-18.14-16.44-24.22h2.22zm17.11 1.56c0 1.04 3.11 5.93 9.33 14.66c-5.63-0.89-9.26-1.33-10.89-1.33c-4-3.85-7.04-8-9.11-12.44l10.67-0.89zm60.66 0v0.22c-0.15 1.19-0.22 2.08-0.22 2.67v2.22c0 2.52 0.3 4.52 0.89 6c-0.44 0.15-1.85 0.44-4.22 0.89l-2.89-5.55c2.96-1.78 5.03-3.92 6.22-6.44h0.22zm78.65 0c2.81 4.89 4.22 9.48 4.22 13.78v1.33c0 1.19-0.15 2.59-0.44 4.22v0.44h-0.22c-4.59-3.26-7.11-4.89-7.55-4.89c1.78-4.59 2.96-9.55 3.55-14.89h0.44zm-238.19 4.67c-1.63 1.33-2.44 2.44-2.44 3.33v0.44c0 0.44 0.22 1.33 0.67 2.67c3.41 4 5.11 6.89 5.11 8.67c0 1.33-0.52 2.89-1.56 4.67h-0.22c-1.04-0.74-1.78-1.56-2.22-2.44c0.59-0.44 0.89-1.11 0.89-2v-0.89c-3.85-5.18-5.78-8.67-5.78-10.44c0-2.37 1.26-4.44 3.78-6.22c0.3 0 0.89 0.74 1.78 2.22v0zm38.66-0.89c7.26 2.08 15.11 6.81 23.55 14.22c-8.59 2.37-16.3 5.7-23.11 10h-0.44c-1.33-4.44-2-8.22-2-11.33c0-4.44 0.67-8.59 2-12.44v-0.44zm238.41 3.11l-0.44 0.67v1.11l1.78 2c5.48 3.55 8.22 6.44 8.22 8.67v0.67c0 1.78-0.82 3.33-2.44 4.67h-0.44c-1.19-0.89-1.85-1.33-2-1.33c1.18-1.48 1.78-2.59 1.78-3.33c0-0.44-0.3-1.26-0.89-2.44c-5.93-4.15-8.89-7.11-8.89-8.89c0-1.48 0.15-2.59 0.44-3.33v0c1.63 0.74 2.59 1.26 2.89 1.56v0zm-128.2 0.22c4.15 9.33 11.18 19.48 21.11 30.44v0.44l-1.56-0.44h-2.22c-9.78-11.11-16.44-20.81-20-29.11c0.3 0 1.18-0.44 2.67-1.33v0zm51.99 0c7.11 0 15.03 2.3 23.77 6.89c0 0.3-0.3 1.19-0.89 2.67c-9.33-4.29-16.81-6.44-22.44-6.44c-3.11 0.15-6.15 0.44-9.11 0.89c0-0.74-0.3-1.63-0.89-2.67c2.07-0.59 5.26-1.03 9.55-1.33v0zm-17.11 2.67c0.3 0.15 0.67 1.04 1.11 2.67c-8.89 2.37-17.85 4.37-26.88 6c-0.15 0-0.74-0.81-1.78-2.44v-0.22c7.85-1.33 17.03-3.33 27.55-6v0zm25.77 3.55v0.44c-5.78 9.78-13.26 14.66-22.44 14.66h-0.44c-7.41 0-13.55-3.18-18.44-9.55l3.11-0.67c4.74 4.74 9.7 7.11 14.89 7.11h0.44c8.14 0 14.74-4.15 19.77-12.44c1.18 0.3 2.22 0.44 3.11 0.44v0zm-10.22 0.89h1.11c-1.93 2.22-2.96 3.33-3.11 3.33h-0.44c0-0.59-0.37-1.56-1.11-2.89l3.55-0.44zm-202.63 3.11c-0.3 0.89-0.44 1.48-0.44 1.78c0.15 1.48 0.22 2.3 0.22 2.44c3.55 4.3 5.33 7.26 5.33 8.89v1.56c0 1.63-0.82 3.11-2.44 4.44c-1.33-0.89-2-1.48-2-1.78c1.03-1.18 1.56-2.22 1.56-3.11v-0.89c0-0.44-0.22-1.03-0.67-1.78c-3.41-4-5.11-7.03-5.11-9.11c0-1.63 0.52-3.26 1.56-4.89c1.18 1.63 1.85 2.44 2 2.44v0zm223.3 2l-0.44 0.67c-3.26 5.63-7.93 9.48-14 11.55c-0.59 0-1.56-1.33-2.89-4c0-0.3 0.07-0.44 0.22-0.44c6.07-5.33 9.26-8.89 9.55-10.66c0.44 0 2.96 0.97 7.55 2.89v0zm-174.19 9.33c15.25-7.11 29.11-11.11 41.55-12c0.59 0 1.56 1.04 2.89 3.11h-0.67c-5.19 0-11.33 0.89-18.44 2.67c-13.92 3.85-24.15 8.3-30.66 13.33c-0.44 0-0.97-0.81-1.56-2.44c1.03-1.03 3.33-2.59 6.89-4.67v0zm138.87-12l2 4.44v0.44c-5.78-1.03-8.67-2.07-8.67-3.11v-0.22c1.78-0.15 4-0.67 6.67-1.56v0zm93.54 0c1.33 0.89 2 1.48 2 1.78v0.44c-0.89 1.48-1.33 2.52-1.33 3.11c0 0.44 0.07 0.89 0.22 1.33c5.78 4.44 8.67 8 8.67 10.66c-0.59 2.67-1.11 4-1.56 4c-1.19-1.03-1.85-1.56-2-1.56l0.22-2v-0.67c0-1.48-1.19-3.18-3.56-5.11c-3.41-2.07-5.11-4.29-5.11-6.67c0-1.63 0.81-3.41 2.44-5.33v0zm-156.2 2.67c7.41 0 16.14-0.67 26.22-2c0.3 0 0.81 0.82 1.56 2.44c-7.85 1.78-16.81 2.67-26.88 2.67c-5.04 0-11.26-0.44-18.66-1.33c-2.52 0-4.52-1.26-6-3.78c9.78 1.33 17.7 2 23.77 2v0zm129.09 29.33c0 1.93-0.15 4.22-0.44 6.89c-2.22 11.41-4.08 17.11-5.55 17.11c-6.52-1.92-15.04-6.81-25.55-14.66c1.03-1.03 2.07-1.56 3.11-1.56c7.85 5.93 14.81 10.07 20.89 12.44l0.67-0.22c2.52-6.96 3.78-13.33 3.78-19.11c0-13.48-5.85-23.11-17.55-28.88c0-0.89 0.3-1.78 0.89-2.67c13.18 6.22 19.77 16.44 19.77 30.66v0zm-86.21-27.55c6.37 7.55 13.78 11.33 22.22 11.33c1.63 0 3.41-0.15 5.33-0.44c0 0.44 0.52 1.33 1.56 2.67v0.22c-6.37 0.89-12.37 1.33-18 1.33h-1.78c-5.04-5.33-9.04-10.07-12-14.22v-0.22c1.48-0.15 2.37-0.37 2.67-0.67v0zm-87.99 2.44c0.44 0.15 2 2.15 4.67 6c6.96 11.85 10.44 18.74 10.44 20.66c-1.63 0.3-2.59 0.44-2.89 0.44c0-0.44-0.89-2.59-2.67-6.44c-3.85-7.85-8.08-14.44-12.66-19.77c0-0.44 1.03-0.74 3.11-0.89v0zm11.78 0l2.22 0.22c0.89 0 3.63 2.82 8.22 8.44v0.22c-1.19 0-4.44 0.44-9.78 1.33h-0.67c-3.11-5.18-5.19-8.37-6.22-9.55l6.22-0.67zm61.55 0.22c3.41 4.89 6.29 8.81 8.67 11.78c-8.89-0.59-13.85-0.96-14.89-1.11c-0.74 0-3.93-2.81-9.55-8.44c7.26-0.89 12.52-1.63 15.78-2.22v0zm-23.55 0.67l13.55 12.22c12.44 10.66 22.89 20.96 31.33 30.88c8.29 9.04 12.44 20.07 12.44 33.11c0 4.44-0.67 9.33-2 14.66c-0.15 0-1.19-0.22-3.11-0.67c1.48-5.18 2.22-10.07 2.22-14.66c0-7.7-1.41-14.07-4.22-19.11c-1.93-4.89-8.37-12.96-19.33-24.22c-21.18-19.25-32.74-30-34.66-32.22h3.78zm110.65 6c-5.48 8-11.55 13.78-18.22 17.33c-0.44 0-2.74-2.29-6.89-6.89v-0.22h0.22c7.26-2.96 12.96-8.29 17.11-16c2.37 1.19 4.96 3.11 7.78 5.78v0zm-118.87-4.22c0.44 0 2.67 2.22 6.67 6.67c-4.89-0.44-8.37-0.67-10.44-0.67c-0.44 0-2.52-2.15-6.22-6.44c5.33 0.3 8.67 0.44 10 0.44v0zm-73.54 11.11c10.52-5.92 19.03-9.4 25.55-10.44c3.41 3.85 5.92 7.26 7.55 10.22v0.22c-9.33 3.41-16.59 8.89-21.77 16.44h-0.22c-6.22-6.07-10.37-11.18-12.44-15.33l1.33-1.11zm-50.44-9.78c1.18 0.89 1.78 1.48 1.78 1.78v0.22c-1.48 1.63-2.22 2.82-2.22 3.55l0.44 1.33c4.89 4.44 7.33 7.41 7.33 8.89v1.11c0 1.19-0.52 2.59-1.56 4.22l-2-1.78c0.44-1.63 0.67-2.59 0.67-2.89v-0.89c-5.19-4.59-7.78-7.7-7.78-9.33c0-2.67 1.11-4.74 3.33-6.22v0zm203.3 0.44l0.67 0.44c2.07 5.04 8.07 12.44 18 22.22c0 0.3-0.97 0.82-2.89 1.56c-1.48-1.03-2.22-1.7-2.22-2c-7.7-8.29-13.04-15.25-16-20.89c0.15-0.3 0.96-0.74 2.44-1.33v0zm81.32 1.78l-0.22 2.22v0.44c0 0.59 0.37 1.63 1.11 3.11c4.59 3.11 6.89 5.7 6.89 7.78c0 1.48-1.04 3.55-3.11 6.22c-0.89-0.89-1.48-1.7-1.78-2.44c1.03-1.48 1.56-2.74 1.56-3.78c0-0.44-0.08-0.89-0.22-1.33c-5.19-3.7-7.78-6.96-7.78-9.78c0-0.89 0.37-2.15 1.11-3.78c0.59 0 1.41 0.44 2.44 1.33v0zm-36.44 4.89v0.22c-6.08 8.44-12.44 14.66-19.11 18.66c-11.41 5.33-21.18 8-29.33 8c0-0.44-0.67-1.33-2-2.67v-0.44c5.18 0 11.33-0.96 18.44-2.89c13.78-4.74 23.85-12.52 30.22-23.33c0.3 0 0.89 0.82 1.78 2.44v0zm-133.76 1.11c6.07 0.3 13.4 0.82 22 1.56c2.07 0 4 1.11 5.78 3.33v0.22c-0.3 0-0.44-0.07-0.44-0.22c-12.74-1.03-21.48-1.56-26.22-1.56h-3.33c-5.04 0-10.44 0.52-16.22 1.56c-0.15 0-0.59-0.89-1.33-2.67c4.15-1.03 10.74-1.78 19.77-2.22v0zm88.88 2.44c0.59 0 1.41 0.82 2.44 2.44v0.22c-7.85 1.48-14.81 2.22-20.89 2.22h-4.89c-7.55 0-15.63-0.44-24.22-1.33c-1.19 0-2.74-1.11-4.67-3.33c12.29 1.04 22.66 1.56 31.11 1.56h1.78c6.52 0 12.96-0.59 19.33-1.78v0zm-163.09 3.33c-2.82 4.3-4.22 8.37-4.22 12.22v1.56c0 9.04 4.22 18 12.66 26.88c9.92 7.26 19.33 10.89 28.22 10.89c1.18 0 2.15 1.26 2.89 3.78c-0.59 0-3.48-0.44-8.67-1.33c-12.59-2.81-21.7-7.48-27.33-14c-7.11-9.03-10.67-17.77-10.67-26.22c0-6.22 1.78-11.7 5.33-16.44c0.59 0.44 1.18 1.33 1.78 2.67v0zm-42.22-1.56l2.44 1.78l-0.22 1.56v0.22c0 1.19 0.37 2.3 1.11 3.33c4.89 4.44 7.33 7.7 7.33 9.78c-0.89 2.52-1.33 3.85-1.33 4h-0.67l-2-1.56c0.44-0.59 0.67-1.18 0.67-1.78v-1.78c-0.44-1.03-2.15-2.74-5.11-5.11c-2.08-2.67-3.11-4.74-3.11-6.22v-1.11c0-0.44 0.22-1.48 0.67-3.11h0.22zm56.88 40.66c1.48-10.07 5.33-19.11 11.55-27.11c7.7-7.41 14.59-11.92 20.66-13.55c0.15 0 0.67 0.89 1.56 2.67c-2.37 1.04-3.78 1.56-4.22 1.56c-4.74 1.78-10 5.63-15.78 11.55c-7.41 10.22-11.11 20-11.11 29.33v0.22h-0.22c-1.48-0.89-2.37-1.33-2.67-1.33c0-0.89 0.07-2 0.22-3.33v0zm67.1-39.11c0.89 0 3.63 2.96 8.22 8.89c5.48 6.08 10.22 14.15 14.22 24.22l-2.89 0.89c-0.89-2.22-1.41-3.33-1.56-3.33c-1.63-6.37-8.67-16.59-21.11-30.66v-0.44c1.03 0 2.07 0.15 3.11 0.44v0zm126.87-0.44c0.59 3.11 0.89 5.85 0.89 8.22c0 4.15-0.82 9.04-2.44 14.66c-5.78-2.96-10.37-5.85-13.78-8.67v-0.44c2.96-1.03 8.07-5.63 15.33-13.78v0zm38.22 1.56v0.44c-0.74 0.89-1.48 1.93-2.22 3.11l0.89 1.78c4 5.33 6 8.81 6 10.44c0 1.63-0.82 3.19-2.44 4.67h-0.22c0-0.59-0.52-1.33-1.56-2.22c0.59-0.74 1.03-1.56 1.33-2.44l-0.67-1.33c-4.15-5.92-6.22-9.55-6.22-10.89c0-0.74 0.81-2.29 2.44-4.67c0.44 0 1.33 0.37 2.67 1.11v0zm-173.08 0.44h0.67c6.37 6.67 10.81 12 13.33 16c-0.3 0-1.26 0.3-2.89 0.89c-5.63-8.29-13.04-12.44-22.22-12.44h-2l-1.11-3.11c0-0.74 4.74-1.18 14.22-1.33v0zm30 1.78l0.89 0.44c6.22 5.78 9.48 8.67 9.78 8.67v0.44c-4.44 0.3-9.33 0.89-14.66 1.78h-0.22c-5.78-7.7-8.96-11.7-9.55-12l0.22-0.67v0c1.63 0.44 6.14 0.89 13.55 1.33v0zm62.66-0.44c0.74 1.33 2.96 3.85 6.67 7.55v0.22c-6.22 1.63-11.7 2.44-16.44 2.44c-0.59 0-3.04-2.59-7.33-7.78c4.44 0 10.14-0.81 17.11-2.44v0zm-27.11 0.89h2.89c14.81 16 22.96 25.48 24.44 28.44v0.22h-0.22c-0.74 0-1.63 0.15-2.67 0.44c-6.08-7.85-14.52-17.4-25.33-28.66l0.22-0.67l0.67 0.22zm-5.55 1.56c0.59 0 3.03 2.52 7.33 7.55v0.22c-0.3 0-0.44-0.07-0.44-0.22c-3.11 0-6.3-0.15-9.55-0.44c-1.33 0-4.3-2.59-8.89-7.78c4.15 0.44 8 0.67 11.55 0.67v0zm-85.1 0l1.56 4.22c-5.78 3.7-10 8-12.66 12.89c-4.74-2.37-7.19-3.55-7.33-3.55v-0.44c5.03-6.22 11.18-10.59 18.44-13.11v0zm-46.88 0.67c1.18 2.82 5.78 8.08 13.78 15.78c-2.96 8.44-4.44 13.63-4.44 15.55c-7.41-7.41-11.11-15.18-11.11-23.33v-0.89c0-2.22 0.37-4.59 1.11-7.11h0.67zm39.11 18.44c6.37-9.78 13.78-14.66 22.22-14.66h1.11c6.96 0 12.81 3.78 17.55 11.33c-1.04 0.59-1.78 0.89-2.22 0.89h-0.44c-4.44-6.07-9.48-9.11-15.11-9.11c-8.15 0-15.04 4.44-20.66 13.33l-2.44-0.89v-0.89zm-78.88-11.33l-0.22 1.56v1.33c0 0.89 0.52 1.93 1.56 3.11c4.89 3.26 7.33 6.22 7.33 8.89l-0.22 2.22l-2.44-1.56c-0.59-1.78-1.19-2.96-1.78-3.55c-5.19-3.11-7.78-6.44-7.78-10c0.44-1.78 0.89-3.03 1.33-3.78c1.33 1.19 2.07 1.78 2.22 1.78v0zm280.85-1.56h0.44c0 0.59 0.44 1.33 1.33 2.22c0 0.15-0.15 0.89-0.44 2.22v1.78c3.56 4.74 5.33 7.93 5.33 9.55v1.11c0 1.63-1.48 3.41-4.44 5.33c-0.89-0.59-1.48-1.33-1.78-2.22l3.11-3.11v-0.44c0-1.18-0.37-2.29-1.11-3.33c-2.96-3.55-4.44-6.29-4.44-8.22c0.74-2.96 1.41-4.59 2-4.89v0zm-183.08 4h0.22c4.59 13.33 6.89 23.77 6.89 31.33c-0.44 0-1.26 0.3-2.44 0.89h-0.22c0-6.07-2.3-16.66-6.89-31.77c0.3 0 1.11-0.15 2.44-0.44v0zm60.88 0.89c2.07 1.63 3.11 2.59 3.11 2.89c-8 0-15.48 0.74-22.44 2.22l-1.56-2.67c8.14-1.63 15.11-2.44 20.89-2.44v0zm25.55 0.44c1.18 0 2.44 1.11 3.78 3.33c-8.15-0.3-13.33-0.44-15.55-0.44c-0.15 0-1.11-1.11-2.89-3.33c5.63 0.3 10.52 0.44 14.66 0.44v0zm-71.99 5.55c-2.08 1.04-4.37 1.93-6.89 2.67c-0.59-2.52-1.41-5.26-2.44-8.22c3.26 0 6.37 1.85 9.33 5.55v0zm-19.77-2.44l1.78 6.22v0.22c-1.48 0-4-0.3-7.55-0.89c0.74-1.33 2.67-3.18 5.78-5.55v0zm14.66 8.67c7.11-3.11 14.74-5.78 22.89-8c0.3 0 0.81 0.67 1.56 2v0.67c-0.44 0-2.44 0.44-6 1.33c-12.74 5.04-19.48 7.55-20.22 7.55l-0.67-2.44c0-0.3 0.81-0.67 2.44-1.11v0zm-42.44-7.55h0.22c10.67 6.22 20.14 9.33 28.44 9.33h3.78c0.44 1.48 0.67 2.37 0.67 2.67v0.22h-4c-9.04 0-19.26-3.18-30.66-9.55c0.44-1.78 0.96-2.67 1.56-2.67v0zm214.41 1.56h0.22c0 0.15 0.52 0.97 1.56 2.44c-1.78 1.33-2.67 2.59-2.67 3.78c0 1.19 0.3 2.3 0.89 3.33c2.81 3.41 4.22 5.7 4.22 6.89v0.89c0 1.33-0.67 2.82-2 4.44c-0.3 0-0.97-0.96-2-2.89c0.74-0.15 1.11-0.74 1.11-1.78v-0.89c-3.41-3.85-5.11-7.18-5.11-10c0-2.37 1.26-4.44 3.78-6.22v0zm-116.2 0.67c5.18 5.04 8.74 9.26 10.67 12.66c-0.59 0.59-1.85 1.26-3.78 2c-5.93-5.48-12.22-8.22-18.89-8.22c-0.74 0-2.52 0.15-5.33 0.44c-1.48-2.37-2.3-4.22-2.44-5.55c5.33-0.74 10.37-1.11 15.11-1.11h4l0.67-0.22zm-161.97 1.78c0.3 1.63 0.89 2.89 1.78 3.78c6.37 3.55 9.55 7.19 9.55 10.89v0.89c0 0.44-0.15 1.33-0.44 2.67c-0.89 0-1.78-0.3-2.67-0.89c0-0.15 0.07-0.96 0.22-2.44c0-1.18-0.82-2.81-2.44-4.89c-5.78-3.11-8.67-6.07-8.67-8.89v-0.67l0.44-2l2.22 1.56zm185.53-0.89h2.44c1.78 1.33 4 3.7 6.67 7.11v0.22l-10.89 1.56c0-0.59-2.08-3.7-6.22-9.33c3.7 0.3 6.37 0.44 8 0.44v0zm-54.21 2.89c0 0.44 1.03 2.96 3.11 7.55c-7.26 5.33-10.89 11.78-10.89 19.33c0 3.11 0.59 6.59 1.78 10.44c-5.04 4.74-8.44 8.37-10.22 10.89c-1.19 0-4.3-0.81-9.33-2.44v-0.22c1.63-7.41 2.44-13.33 2.44-17.77c11.55-6.81 17.33-14.59 17.33-23.33v-2.89l5.78-1.56zm-69.32 1.33l8.89 4l-0.67 5.78c0.3 3.11 0.81 6.3 1.56 9.55c-5.33-1.03-9.7-2.37-13.11-4c0-4.89 1.11-9.92 3.33-15.11v-0.22zm59.32 0h0.44v2.67c0 2.08-0.52 4.37-1.56 6.89c-6.08 11.7-17.7 17.55-34.88 17.55c-0.3 0-0.97-0.89-2-2.67v-0.67c0.3 0 0.44 0.08 0.44 0.22c0.15 0 2.52-0.07 7.11-0.22l1.78-0.22c0 0.15 0.07 0.22 0.22 0.22c3.55-0.74 5.55-1.11 6-1.11c13.18-4.89 19.77-11.7 19.77-20.44v-1.11c0-0.44 0.89-0.81 2.67-1.11v0zm-43.55 4.67l-0.67 5.78c0.15 0.3 0.37 1.48 0.67 3.55c4.29 15.26 10.37 25.18 18.22 29.77c0 1.04-0.22 2.08-0.67 3.11h-0.22c-2.37-1.18-5.55-4.07-9.55-8.67c-7.11-10.22-10.89-19.7-11.33-28.44c0.3-2.81 0.59-4.81 0.89-6c0.15 0 1.03 0.3 2.67 0.89v0zm29.33 2.89c0-0.15 2.29-1.11 6.89-2.89c0 2.96-2.15 6.08-6.44 9.33c0-1.18-0.15-3.18-0.44-6v-0.44zm22.44 9.78c5.33-8 12.07-12 20.22-12h0.89c5.63 0 10.74 2.37 15.33 7.11c-0.44 0-1.56 0.37-3.33 1.11v-0.22c-3.85-3.41-7.93-5.11-12.22-5.11h-0.44c-1.19 0-2.44 0.15-3.78 0.44c-10.52 3.26-15.78 9.11-15.78 17.55c0.15 2.67 0.52 4.82 1.11 6.44c-0.89 0.89-1.78 1.63-2.67 2.22c-0.89-3.26-1.41-6.22-1.56-8.89c0-2.52 0.74-5.41 2.22-8.67v0zm-125.31-9.78c-0.44 1.48-0.67 2.52-0.67 3.11c0 1.63 0.96 3.11 2.89 4.44c6.07 2.67 9.11 5.78 9.11 9.33v0.22c-1.78 0-3.26-1.18-4.44-3.55c-6.96-2.81-10.44-6.37-10.44-10.66v-0.67c0-0.59 0.3-1.78 0.89-3.55c1.48 0.89 2.37 1.33 2.67 1.33v0zm180.19 1.33c8-1.78 15.48-2.67 22.44-2.67c7.26 0 15.4 1.26 24.44 3.78c6.81 2.67 10.29 4.67 10.44 6c0 1.48-1.19 4.44-3.56 8.89c-6.22 11.11-14.37 18.81-24.44 23.11c0-0.89 0.15-2 0.44-3.33c11.4-6.22 19.48-15.48 24.22-27.77c-8.89-5.18-19.55-7.78-31.99-7.78c-8.44 0.44-15.41 1.26-20.89 2.44c-0.15-0.15-0.52-0.96-1.11-2.44v-0.22zm89.54-2.22c1.03 1.33 1.63 2 1.78 2c0 0.44-0.15 1.04-0.44 1.78c2.52 5.48 4 9.26 4.44 11.33l-0.67 2c-1.93 3.55-3.78 5.33-5.55 5.33c0-0.44-0.3-1.18-0.89-2.22c2.52-1.92 3.78-3.55 3.78-4.89v-1.56c-2.52-5.48-3.78-8.67-3.78-9.55v-1.33c0.3-1.92 0.74-2.89 1.33-2.89v0zm-178.19 2.44h0.22c0.74 4 1.11 7.19 1.11 9.55c-3.26 1.04-7.63 1.56-13.11 1.56c-0.74 0-1.63-2.89-2.67-8.67v-4c5.18 1.04 10 1.56 14.44 1.56v0zm81.1 1.56c0 0.15 0.44 1.04 1.33 2.67c-9.78 3.41-17.78 6.81-24 10.22c-0.15 0-0.67-0.74-1.56-2.22v-0.22c6.81-4 14.89-7.48 24.22-10.44v0zm-32.44 0.67c2.67 5.19 4.15 7.78 4.44 7.78c2.52 5.63 7.48 11.78 14.89 18.44l-1.56 2.67c-0.15 0-1.63-1.26-4.44-3.78c-7.11-8-12.44-16-16-24c0.3 0 1.18-0.37 2.67-1.11v0zm63.99 0.22c3.26 7.55 4.89 14.44 4.89 20.66v3.33c0 4.15-0.97 8.89-2.89 14.22c-7.85 15.11-19.18 22.66-33.99 22.66h-1.56c-1.63 0-4-0.3-7.11-0.89l2.67-2.44c2.67 0.3 4.67 0.44 6 0.44h0.22c4.74 0 9.92-1.33 15.55-4c12.14-7.7 18.22-17.7 18.22-30v-3.78c0-5.78-1.78-12.44-5.33-20v-0.22h3.33zm-56.88 0.89c0.74 0 2.44 0.52 5.11 1.56v0.44c-0.3 0-1.78 0.74-4.44 2.22c-0.44 0-1.26-1.33-2.44-4v-0.22h1.78zm49.33 0.89c0 0.15 0.07 0.22 0.22 0.22c3.55 6.37 5.33 12.89 5.33 19.55v0.22c0 3.85-0.37 6.96-1.11 9.33c0 1.33-3.19 2-9.55 2c-1.33 0-3.56-0.07-6.67-0.22h-0.22c1.03-5.18 1.56-9.48 1.56-12.89v-3.55c0-4.29-0.59-8.59-1.78-12.89c2.96-0.59 7.03-1.18 12.22-1.78v0zm32.22 5.11h0.22c-3.11 7.85-8.44 14.44-16 19.77c0-0.89 0.07-2.22 0.22-4c0-6.67-1.41-13.55-4.22-20.66c5.18 0 11.78 1.63 19.77 4.89v0zm-93.99-1.78c2.22 3.55 3.41 5.33 3.56 5.33c-0.15 0.44-2.74 2.37-7.78 5.78h-0.44v-0.67c0-5.18 1.56-8.67 4.67-10.44v0zm39.11 1.11c0.74 3.85 1.18 7.93 1.33 12.22c-0.15 0-0.22 0.22-0.22 0.67c0.15 0 0.22 0.08 0.22 0.22c-0.15 0-0.22 0.15-0.22 0.44v2.22c0 2.22-0.37 4.96-1.11 8.22c-3.11-1.63-4.82-2.44-5.11-2.44c1.18-3.11 2.07-7.18 2.67-12.22c-0.15-2.37-0.52-4.96-1.11-7.78v-0.67c0.44 0 1.63-0.3 3.56-0.89v0zm94.65 0c0.3 0 0.81 0.82 1.56 2.44c-2.37 2.08-3.7 3.78-4 5.11l0.44 1.78c1.48 4.15 2.22 6.96 2.22 8.44c0 2.08-1.19 3.7-3.56 4.89c-0.44-1.48-0.67-2.37-0.67-2.67c0.89-1.33 1.33-2.07 1.33-2.22v-0.89c-1.78-4.74-2.67-7.85-2.67-9.33v-0.67c0-1.78 1.78-4.07 5.33-6.89v0zm-103.1 0.89c0.89 0.59 1.48 2.67 1.78 6.22v2.22c0 7.7-2.96 14.59-8.89 20.66c-3.85 3.41-8.74 5.7-14.66 6.89l-2.44-2.22v-0.22c5.48-1.18 9.78-2.89 12.89-5.11c6.81-5.48 10.22-12.07 10.22-19.77v-1.78c0-1.48-0.44-3.48-1.33-6c0.3 0 1.11-0.3 2.44-0.89v0zm-162.2 2.67v2.44l0.22 0.67c8.14 1.78 12.22 4.67 12.22 8.67v2.67c-1.78-0.44-2.67-0.74-2.67-0.89c0-2.96-1.56-4.96-4.67-6c-5.48-0.89-8.22-2.67-8.22-5.33v-0.89c0-0.89 0.22-1.7 0.67-2.44c1.18 0.74 2 1.11 2.44 1.11v0zm47.77 2.67c1.78 5.19 5.18 10.96 10.22 17.33c10.66 10.66 19.11 17.48 25.33 20.44c6.81-12.29 10.22-23.03 10.22-32.22c0-2.22 1.11-3.33 3.33-3.33c0 7.11-1.7 15.55-5.11 25.33c-2.52 6.22-4.96 10.81-7.33 13.78h-0.44c-5.33-1.92-13.55-8-24.66-18.22c-9.04-9.78-13.85-17.77-14.44-24v-0.22c0.15 0 1.11 0.37 2.89 1.11v0zm108.43-0.89c0.59 0 0.89 1.56 0.89 4.67c0 0.74-0.15 2.3-0.44 4.67h-0.67l-5.33-6.44l5.55-2.89zm-43.55 23.77c11.26-11.7 19.77-19.03 25.55-22c0.59 0.15 1.26 0.97 2 2.44c-2.52 1.48-4.22 2.67-5.11 3.55c-4.15 2.08-11.11 8.37-20.89 18.89l-3.33-0.67v-0.22c0-0.15 0.59-0.81 1.78-2v0zm-43.99-16.22c3.26 7.26 8.67 13.63 16.22 19.11l-2.67 6.67c-13.92-8.89-23.33-18.29-28.22-28.22v-0.22c3.56 1.19 8.44 2.08 14.66 2.67v0zm189.75-1.78l1.11 2.89c-0.59 0.44-0.89 0.74-0.89 0.89v1.33l1.56 8.89c-0.44 4.44-2.44 6.67-6 6.67l-0.44-2.44v-0.22c1.92 0 3.11-1.33 3.56-4c-1.04-5.18-1.56-8.14-1.56-8.89c0-2.67 0.89-4.37 2.67-5.11v0zm-169.31 1.11h0.22c0 1.48-0.3 4.3-0.89 8.44h-0.22c-2.82-2.37-4.96-4.74-6.44-7.11v-0.44c3.41-0.15 5.85-0.44 7.33-0.89v0zm-83.1 1.56c0 0.44-0.15 0.82-0.44 1.11c0 1.63 0.96 2.96 2.89 4c8.14 2.08 12.22 5.26 12.22 9.55c-1.19-0.15-2.08-0.22-2.67-0.22c-1.19-2.07-2.82-3.7-4.89-4.89c-6.96-1.48-10.44-4-10.44-7.55c0-0.15 0.07-1.11 0.22-2.89v-0.22c0.59 0 1.63 0.37 3.11 1.11v0zm144.64 10.44l-0.44 0.67c-2.67 2.52-7.04 4.37-13.11 5.55c-2.96-3.41-5.04-6.44-6.22-9.11c2.37-2.07 5.63-4.59 9.78-7.55c5.48 6.08 8.81 9.55 10 10.44v0zm103.98-2.44h0.22v0.89l0.22 2.22c-1.78 0-2.96 0.67-3.55 2c0 1.33 0.52 4.52 1.56 9.55c0 2.96-1.63 5.41-4.89 7.33h-0.44c0-0.3 0.07-1.11 0.22-2.44c0-0.44 0.67-1.85 2-4.22c-0.89-5.33-1.33-8.44-1.33-9.33v-0.44c0-2.96 2-4.81 6-5.55v0zm-127.98 0.67c6.67 12 15.7 20.66 27.11 26c-0.44 0.59-1.33 1.19-2.67 1.78c-1.04 0-4-1.7-8.89-5.11c-9.19-7.85-15.04-14.59-17.55-20.22v-0.44l1.78-2h0.22zm-115.54 3.11c0 2.22 2.74 3.78 8.22 4.67c4.29 0 6.74 1.93 7.33 5.78v2.22h-3.11v-2.22c0-1.63-3.19-2.96-9.55-4c-4-1.48-6-3.78-6-6.89v-1.11c2.07 0.3 3.11 0.82 3.11 1.56v0zm175.53 5.33h1.78c2.37 0 5.48-0.3 9.33-0.89c0 0.3-0.37 1.33-1.11 3.11c-3.41 0.44-6.22 0.67-8.44 0.67h-0.89c-9.63 0-18.52-2.29-26.66-6.89l1.56-2.67c7.7 4.44 15.85 6.67 24.44 6.67v0zm-63.32 0v0.22c-0.15-0.15-1.04-0.22-2.67-0.22l1.56-1.78c0.3 0 0.67 0.59 1.11 1.78v0zm4 4.22h1.11c0.3 0 1.18 0.97 2.67 2.89h-6c-10.22 0-20.44-1.78-30.66-5.33c0.59-1.48 0.89-2.52 0.89-3.11c9.18 3.7 19.85 5.55 31.99 5.55v0zm119.54-4.89c0 0.3 0.15 1.26 0.44 2.89c-0.59 0-1.04 0.44-1.33 1.33v6.44c0 1.63-0.22 3.48-0.67 5.55c-1.93 3.55-4.22 5.33-6.89 5.33l-0.22-0.67v-1.11c0-1.03 0.3-1.56 0.89-1.56c2.22 0 3.48-2.29 3.78-6.89v-7.11c0.74-2.81 2.07-4.22 4-4.22v0zm-87.1 0.67c3.56 1.93 5.7 2.89 6.44 2.89v0.67c-2.37 4-5.78 7.55-10.22 10.66c-4.3-1.92-7.48-3.92-9.55-6c2.96-0.3 7.41-3.03 13.33-8.22v0zm14 3.55c0 0.74-0.44 1.85-1.33 3.33c-10.22 15.55-25.85 23.33-46.88 23.33c-7.55 0-13.33-0.74-17.33-2.22c-8-2.22-12-4.07-12-5.55c0.44-2.22 3.41-7.33 8.89-15.33c1.92 0.44 3.03 0.67 3.33 0.67v0.22c-4.15 5.48-7.04 10-8.67 13.55c5.92 3.7 14.29 5.55 25.11 5.55c21.63 0 36.96-8 45.99-24c0.89 0 1.85 0.15 2.89 0.44v0zm-153.98 0.89l-0.44 1.56v0.89c0 1.48 0.3 2.22 0.89 2.22c2.67 0 4.67 0.15 6 0.44c5.03 0 7.92 2.37 8.67 7.11h-2.89c0-2.81-2.74-4.22-8.22-4.22c-4.89 0-7.33-1.7-7.33-5.11v-2l0.22-1.56c0.44 0.3 1.48 0.52 3.11 0.67v0zm165.09 2.44h5.78l-1.78 2c-6.67 5.33-12.96 8-18.89 8h-0.22c3.7-4.29 6.14-7.85 7.33-10.66c3.26 0.44 5.85 0.67 7.78 0.67v0zm-56.21 4.44h2l2-0.44c4.44 4.74 8.14 7.78 11.11 9.11v0.44c-6.52 1.93-12.74 2.89-18.66 2.89c-7.26 0-13.92-1.11-20-3.33c2.52-4.15 4.74-7.48 6.67-10c6.81 0.89 12.44 1.33 16.89 1.33v0zm101.76 15.78c1.78 0 2.67-2.29 2.67-6.89c0-6.37 2.44-9.55 7.33-9.55l0.44 0.67v0.44l-0.44 2.22h-1.11c-1.48 0-2.44 0.89-2.89 2.67c0 9.04-2.15 13.55-6.44 13.55v-1.33l0.44-1.78zm-204.63-12.89l0.44 0.44c0 2.37 1.7 3.7 5.11 4h4.89c4.44 0 6.89 1.93 7.33 5.78v0.67l-2 0.22h-0.44c-0.3 0-0.44-0.37-0.44-1.11c0-1.78-3.63-2.67-10.89-2.67c-3.56 0-5.7-2.29-6.44-6.89v-0.44h2.44zm194.41 19.55c2.37-0.44 3.85-0.96 4.44-1.56c0.74-9.33 2.96-14 6.67-14v2.67c-2.22 1.63-3.33 5.19-3.33 10.66c-0.74 3.41-3.41 5.11-8 5.11c0-0.15-0.15-0.22-0.44-0.22c0.44-0.74 0.67-1.63 0.67-2.67v0zm-184.64-10c0.59 2.22 2.07 3.33 4.44 3.33c5.03-0.15 8-0.22 8.89-0.22c2.37 0 4.07 1.85 5.11 5.55c-1.19 0.44-2.15 0.67-2.89 0.67c-0.59-2.22-1.33-3.33-2.22-3.33c-5.04 0.3-7.93 0.44-8.67 0.44c-4.15 0-6.81-2.15-8-6.44h3.33zm174.19 18.66c3.11-1.92 4.67-3.85 4.67-5.78c1.03-6.81 3.18-10.22 6.44-10.22h2.22v3.11h-2.67l-1.11 0.89c-1.48 5.19-2.37 8.15-2.67 8.89c-1.48 3.85-3.85 5.78-7.11 5.78h-0.44c0.44-1.48 0.67-2.37 0.67-2.67v0zm-165.31-10.22c0 1.48 1.11 2.44 3.33 2.89h0.67c0.44 0 3.11-0.15 8-0.44c4.44 0 6.67 1.7 6.67 5.11c-0.15 0.59-0.97 0.89-2.44 0.89h-0.22c0-2.07-1.26-3.11-3.78-3.11c-4.74 0.44-7.41 0.67-8 0.67h-1.56c-4-1.33-6-3.33-6-6h3.33zm159.97 11.55c0.89-6.67 3.78-10 8.67-10v0.22c0 0.44-0.22 1.33-0.67 2.67c-1.63 0-2.96 1.04-4 3.11c-1.33 7.85-3.78 11.78-7.33 11.78h-1.33c-0.44 0-1.33-0.15-2.67-0.44c0.59-1.48 0.89-2.37 0.89-2.67c1.48 0.15 2.29 0.22 2.44 0.22c2.07 0 3.41-1.63 4-4.89v0zm-149.75-4h0.67c1.18 1.93 2.67 2.89 4.44 2.89c5.48-1.18 8.67-1.78 9.55-1.78h1.11c2.81 0.89 4.22 1.85 4.22 2.89c0 0.3-0.97 0.74-2.89 1.33c0-0.89-0.59-1.33-1.78-1.33h-0.89c-5.48 1.19-8.59 1.78-9.33 1.78h-0.67c-2.82 0-4.96-1.78-6.44-5.33c0-0.3 0.67-0.44 2-0.44v0zm137.09 11.55c2.22-7.11 5.11-10.67 8.67-10.67h2.44l-0.22 2.67c-2.67 0-4.59 1.04-5.78 3.11c-1.93 6.22-4 9.33-6.22 9.33h-1.56l-2.89-0.22c0.74-1.48 1.11-2.37 1.11-2.67h2.89l1.56-1.56zm-10.67 2.89c2.96-6.37 5.85-9.55 8.67-9.55c0.3 0.3 0.67 0.44 1.11 0.44h0.89c0 0.44-0.3 1.41-0.89 2.89h-2l-1.56 1.33c-2.96 6.52-6.08 9.78-9.33 9.78h-0.22c-0.74 0-1.93-0.3-3.56-0.89l1.56-2.22h2.22c1.18 0 2.22-0.59 3.11-1.78v0zm-102.43-8.67c4.89 0.74 7.33 2.37 7.33 4.89c-0.3 0-1.19 0.37-2.67 1.11c0-1.63-1.7-2.59-5.11-2.89c-0.89 0-3.85 0.82-8.89 2.44c-2.67 0-4.89-1.18-6.67-3.55v-0.44c0.59 0 1.63-0.22 3.11-0.67c1.18 1.04 2.15 1.56 2.89 1.56c5.18-1.63 8.52-2.44 10-2.44v0zm4 8.22c4.89-2.22 8.07-3.33 9.55-3.33h0.89c2.67 0.74 4 1.56 4 2.44v0.22c-0.3 0-1.19 0.37-2.67 1.11c0-0.44-0.59-0.74-1.78-0.89h-1.33c-5.19 2.52-8.44 3.78-9.78 3.78c-3.41 0-5.93-1.85-7.55-5.55c1.92-0.59 3.03-0.89 3.33-0.89c0.74 2.22 1.85 3.33 3.33 3.33l2-0.22zm80.43 8.22c1.92-0.15 3.26-0.59 4-1.33c3.41-6.81 6.44-10.22 9.11-10.22h0.67c1.33 0 2.44 0.22 3.33 0.67c0 0.89-0.44 1.78-1.33 2.67l-1.33-0.44c-1.93 0-3.33 0.82-4.22 2.44c-2.82 6.22-5.85 9.33-9.11 9.33c-0.89-0.44-1.63-0.67-2.22-0.67v-0.22c0.74-1.03 1.11-1.78 1.11-2.22v0zm-5.33-0.44c2.96-5.78 6.14-8.67 9.55-8.67c0.3 0.15 0.89 0.22 1.78 0.22c-1.04 1.63-1.56 2.59-1.56 2.89h-0.89c-0.74 0-1.56 0.44-2.44 1.33c-3.41 5.63-6.15 8.44-8.22 8.44c-1.19 0-3.41-0.81-6.67-2.44v-0.44l1.78-2c2.37 1.04 3.78 1.56 4.22 1.56h0.22v0c0.74 0 1.48-0.3 2.22-0.89v0zm-64.21-4.89c5.33-2.37 8.59-3.55 9.78-3.55c2.52 0 4.59 1.11 6.22 3.33v0.67c-0.15 0-0.89 0.37-2.22 1.11c-1.04-0.89-1.93-1.63-2.67-2.22h-2c-5.19 2.52-8.22 3.78-9.11 3.78h-2.44c-1.33 0-2.74-0.59-4.22-1.78c0-0.3 1.03-0.96 3.11-2c0 0.3 0.67 0.67 2 1.11c0.3-0.3 0.81-0.44 1.56-0.44v0zm48.88 6c4.89-5.18 8.37-7.78 10.44-7.78c3.26 1.04 4.89 1.93 4.89 2.67v0.44c-0.74 0.89-1.11 1.56-1.11 2h-0.44c-1.48-1.18-2.59-1.78-3.33-1.78h-0.22l-1.56 0.22c-4.59 5.04-7.85 7.55-9.78 7.55h-0.89c-0.74 0-1.85-0.3-3.33-0.89v-0.44l2.22-2l1.33 0.22h0.44l1.33-0.22zm-36.66-0.89c5.33-3.85 9.11-5.78 11.33-5.78h1.56c1.03 0 2.15 0.44 3.33 1.33l-2.22 2l-1.56-0.22c-0.74 0-2 0.22-3.78 0.67c-4.74 3.26-7.7 4.89-8.89 4.89h-0.44c-1.93 0-4-1.56-6.22-4.67c0.44-0.44 1.26-0.81 2.44-1.11c1.63 1.48 2.89 2.44 3.78 2.89h0.67zm26 0.67c4.74-4.29 8.14-6.44 10.22-6.44h0.44c0.44 0 1.48 0.22 3.11 0.67c-0.59 0.89-1.04 1.33-1.33 1.33c0 0.44-1.56 1.11-4.67 2c-4.3 4.15-7.78 6.22-10.44 6.22c-0.89 0-2.37-0.52-4.44-1.56v-0.22l2-2c1.18 0.59 2.07 0.89 2.67 0.89c0.15 0 0.96-0.3 2.44-0.89v0zm-13.55 0.44c4.59-4.15 8.07-6.22 10.44-6.22c1.63 0.44 3.18 0.97 4.67 1.56v0.22c-0.74 1.04-1.56 1.78-2.44 2.22c0-0.44-0.82-0.74-2.44-0.89c-1.04 0.3-1.7 0.44-2 0.44c-4.44 4-7.48 6-9.11 6c-1.33 0-3.11-0.81-5.33-2.44c0-0.3 0.81-0.89 2.44-1.78h0.22c0.74 0.59 1.56 1.04 2.44 1.33l1.11-0.44z" />
</svg>