<svg version="1.2" baseProfile="tiny-ps" xmlns="http://www.w3.org/2000/svg" viewBox="0 0 350 500" width="350" height="500">
	<title>table</title>
	<style>
		tspan { white-space:pre }
		.s0 { fill: #a78942 } 
	</style>
	<path id="k6" class="s0" d="m170.84 86.64h0.23c11.75 11.14 18.84 21.97 21.28 32.5l-0.46 0.23c-2.9-0.76-6.1-1.29-9.61-1.6c-2.75-6.87-6.26-11.52-10.53-13.96c-0.31-0.15-0.54-0.23-0.69-0.23c-4.43 3.05-7.71 7.78-9.84 14.19c0 0.61-1.53 0.99-4.58 1.14l-5.49 1.6c0-0.15-0.08-0.23-0.23-0.23c0.92-7.78 6.25-17.7 16.02-29.75l3.89-3.89zm0.92 34.56c-1.83-0.46-3.89-0.69-6.18-0.69h-2.52c-12.21 0-24.64 6.56-37.31 19.68h-0.23c-0.46 0-0.77-0.08-0.92-0.23c-8.24 0.46-14.5 1.37-18.77 2.75c-11.44 4.12-19.45 10.22-24.03 18.31c-12.82 9-19.22 22.66-19.22 40.97v4.81c-11.75 12.21-17.62 24.49-17.62 36.85c0 2.14 0.38 5.34 1.14 9.61c-0.46 3.51-0.69 6.1-0.69 7.78l0.23 0.92c-0.15 0-0.23 0.08-0.23 0.23c0.46 4.12 1.07 7.4 1.83 9.84c1.98 8.39 7.93 17.39 17.85 27.01v2.06l0.23 1.14c-0.15 0-0.23 0.08-0.23 0.23c0.61 6.72 1.45 12.05 2.52 16.02c3.66 11.29 9.84 19.61 18.54 24.95c9.15 12.67 22.96 19 41.42 19h4.35c1.22 1.22 3.43 3.13 6.64 5.72c10.53 7.94 20.29 11.9 29.3 11.9v-0.23v0.23l1.6-0.23h1.83c1.52 0 3.81-0.3 6.87-0.92c4.12 0.46 6.87 0.69 8.24 0.69l0.46-0.23v0.23c8.39 0 17.62-3.58 27.69-10.76c6.1-5.34 9.15-8.31 9.15-8.93h2.29l1.14-0.23c0 0.15 0.08 0.23 0.23 0.23c6.87-0.61 12.21-1.45 16.02-2.52c12.05-4.12 20.37-10.3 24.95-18.54c12.82-8.7 19.22-22.96 19.22-42.8c-0.15-1.83-0.23-2.82-0.23-2.98c11.75-11.9 17.62-23.95 17.62-36.16v-2.06c0-2.9-0.38-5.57-1.14-8.01c0.46-2.13 0.69-4.27 0.69-6.41v-2.29c0-10.83-5.04-21.74-15.11-32.73c-3.05-3.05-4.58-4.65-4.58-4.81c0-0.15 0.08-0.38 0.23-0.69c0-9.76-2.14-18.77-6.41-27.01c-2.14-5.34-6.64-10.53-13.5-15.56c-0.46 0-2.06-1.75-4.81-5.26c-3.82-3.81-7.4-6.64-10.76-8.47c-8.85-4.12-16.86-6.18-24.03-6.18c0 0.15-0.08 0.23-0.23 0.23c0-0.15-0.08-0.23-0.23-0.23h-4.81l-1.6 0.23c0-0.15-0.15-0.23-0.46-0.23c-12.21-11.59-24.18-17.39-35.93-17.39h-2.29v0c-2.6 0-5.34 0.38-8.24 1.14v0zm8.93 7.55c0 0.15 0.08 0.23 0.23 0.23l0.46-0.23c4.88 0 9.99 1.37 15.33 4.12c8.54 5.19 12.82 9.69 12.82 13.5v2.06c-1.07 3.82-3.74 5.72-8.01 5.72h-0.46c-3.51 0-7.25-0.99-11.21-2.98c0 0.31-2.29 2.44-6.87 6.41l0.23 0.46c9.92 4.58 18 6.87 24.26 6.87c9.15 6.26 16.86 10 23.12 11.21l0.23-0.46v-0.23c-0.31-4.12-0.46-6.71-0.46-7.78v-0.92c-9.31-3.2-13.96-7.02-13.96-11.44c0-0.92 0.3-2.13 0.92-3.66c1.68-2.9 5.34-4.35 10.99-4.35c3.66 0 7.25 0.54 10.76 1.6c8.85 3.2 14.72 7.71 17.62 13.5c0.15 0.46 1.83 1.6 5.04 3.43c8.7 7.17 13.05 16.17 13.05 27.01c0 1.53-0.15 3.13-0.46 4.81c-1.37 4.12-3.66 6.18-6.87 6.18c-1.68 0-3.2-0.61-4.58-1.83c-3.36-2.44-5.8-6.25-7.32-11.44h-1.83c-2.9 0-5.04-0.15-6.41-0.46l-1.6 0.46c2.9 8.39 7.09 15.79 12.59 22.2c0.61 4.58 1.52 8.62 2.75 12.13c1.68 5.19 3.58 9.31 5.72 12.36h0.23c3.05-3.81 5.04-6.18 5.95-7.09v-0.46c-2.44-4.12-3.66-7.93-3.66-11.44v-0.69c0.76-4.88 2.9-7.32 6.41-7.32h1.6c1.98 0 4.73 1.68 8.24 5.04c6.87 7.48 10.3 15.41 10.3 23.8c-0.15 0-0.23 0.15-0.23 0.46c0.15 0 0.23 0.08 0.23 0.23c-0.15 0-0.23 0.08-0.23 0.23v0.46c0 1.83-0.38 3.97-1.14 6.41c1.22 3.82 1.83 7.02 1.83 9.61c0 4.27-1.3 9.31-3.89 15.11c-5.34 8.7-10.07 13.05-14.19 13.05c-0.92-0.15-1.6-0.23-2.06-0.23c-3.51-1.22-5.26-3.89-5.26-8.01c0-3.35 0.92-7.25 2.75-11.67l-6.18-6.64h-0.46c-4.58 10.07-6.87 18.16-6.87 24.26c-6.26 9.15-10 16.86-11.21 23.12l0.23 0.46c4.73-0.46 7.4-0.69 8.01-0.69h1.14c3.2-9.3 7.02-13.96 11.44-13.96c1.83 0.31 3.13 0.77 3.89 1.37c2.75 1.68 4.12 5.26 4.12 10.76c0 11.6-4.66 20.83-13.96 27.69c-1.37 0-2.75 1.6-4.12 4.81c-7.32 9.15-16.25 13.73-26.78 13.73h-1.83c-1.68 0-3.43-0.3-5.26-0.92c-3.05-1.68-4.58-3.66-4.58-5.95c0-3.66 2.59-7.02 7.78-10.07c3.66-1.52 5.49-2.44 5.49-2.75v-0.69c0-3.35 0.15-5.87 0.46-7.55c-0.15 0-0.23-0.3-0.23-0.92h-0.23c-7.94 2.29-15.26 6.41-21.97 12.36c-4.73 0.77-8.39 1.53-10.99 2.29c-6.56 2.29-11.14 4.35-13.73 6.18v0.46c3.51 2.6 5.87 4.58 7.09 5.95c4.73-2.59 8.62-3.89 11.67-3.89h0.69c5.04 0.77 7.55 3.13 7.55 7.09v0.92c0 1.83-1.45 4.35-4.35 7.55c-7.48 7.32-15.64 10.99-24.49 10.99c-2.6 0-5.19-0.46-7.78-1.37c-3.36 1.22-6.41 1.83-9.15 1.83c-4.43 0-9.23-1.14-14.42-3.43c-9.46-5.19-14.19-10.07-14.19-14.65l0.46-2.75c1.52-3.05 4.12-4.58 7.78-4.58c3.66 0 7.47 0.99 11.44 2.98l7.09-6.41c0-0.3-0.92-0.84-2.75-1.6c-8.39-3.51-15.72-5.41-21.97-5.72c-9.46-6.41-17.17-10.15-23.12-11.21c0 0.15-0.08 0.23-0.23 0.23c0.46 4.88 0.69 7.71 0.69 8.47c0 0.15 0 0.38 0 0.69c9.3 3.2 13.96 7.09 13.96 11.67c-0.15 0-0.23 0.46-0.23 1.37c-1.07 4.27-4.73 6.41-10.99 6.41h-2.06c-5.34 0-10.45-1.37-15.33-4.12c-3.2-1.22-6.72-4.19-10.53-8.93c-1.07-2.44-2.83-4.04-5.26-4.81c-9.31-7.32-13.96-16.25-13.96-26.78v-2.06c0-1.83 0.23-3.28 0.69-4.35c1.37-3.66 3.51-5.49 6.41-5.49c0 0.15 0.08 0.23 0.23 0.23l0.46-0.23c0 0.31 0.69 0.46 2.06 0.46c3.97 1.98 7.17 6.33 9.61 13.05l0.92-0.23c1.68 0 4.35 0.15 8.01 0.46l0.46-0.23c-2.14-7.78-6.26-15.18-12.36-22.2c-1.83-10.37-4.58-18.61-8.24-24.72h-0.46l-6.18 7.32c2.59 4.58 3.89 8.32 3.89 11.21h-0.23c0 0.46 0.08 0.77 0.23 0.92c-0.31 1.53-0.61 2.83-0.92 3.89c-1.68 2.6-3.74 3.89-6.18 3.89c-1.98 0-4.35-1.14-7.09-3.43c-8.24-7.63-12.36-16.02-12.36-25.18c0-3.05 0.46-5.72 1.37-8.01c-1.22-3.51-1.83-6.71-1.83-9.61c0-3.35 0.84-7.4 2.52-12.13c5.34-10.68 10.45-16.02 15.33-16.02h1.14c3.66 0 5.8 2.67 6.41 8.01c0 3.51-0.99 7.4-2.98 11.67c0.15 0 2.29 2.29 6.41 6.87c2.13-3.51 4.12-8.62 5.95-15.33c0.76-5.49 1.37-8.93 1.83-10.3c4.73-5.8 8.31-13.12 10.76-21.97l-0.46-0.23h-0.23c-4.43 0.31-7.09 0.46-8.01 0.46h-0.69c-0.15 0-0.31 0.15-0.46 0.46c-2.9 9-6.64 13.5-11.21 13.5c-0.77 0-1.91-0.3-3.43-0.92c-2.9-1.68-4.35-5.11-4.35-10.3v-2.52c0-2.59 0.61-5.87 1.83-9.84c3.35-8.54 8.01-14.26 13.96-17.17l2.52-4.12c7.17-9 16.25-13.5 27.24-13.5c2.29 0 4.35 0.31 6.18 0.92c3.2 1.68 4.81 3.82 4.81 6.41c0 4.58-4.5 8.62-13.5 12.13l0.23 0.92c0 1.22-0.15 3.97-0.46 8.24v0.23h0.46c7.93-2.29 15.26-6.41 21.97-12.36c4.12-0.61 7.4-1.22 9.84-1.83c6.41-1.98 11.36-4.19 14.88-6.64v-0.23c-3.97-3.05-6.33-5.04-7.09-5.95c-5.04 2.44-9 3.66-11.9 3.66c-1.07 0-1.6-0.08-1.6-0.23c-3.51 0-5.72-2.29-6.64-6.87c0-2.29 1.37-4.96 4.12-8.01c7.63-7.47 15.48-11.21 23.57-11.21h0.23l0.23-0.23c0 0.15 0.08 0.23 0.23 0.23h2.06c1.83 0 3.97 0.38 6.41 1.14c3.81-1.22 6.71-1.83 8.7-1.83v0zm-8.24 22.2c-8.85-4.12-13.27-10.37-13.27-18.77h-0.46c-1.22 0-3.82 0.77-7.78 2.29v0.69c0 4.88 1.6 9.77 4.81 14.65c3.81 5.04 9.46 8.55 16.94 10.53c13.73-4.58 20.6-13.35 20.6-26.32c0-0.76-2.52-1.6-7.55-2.52h-0.92v0c0 9.31-4.12 15.79-12.36 19.45v0zm77.13-9.61v0.23c4.27 2.29 7.02 4.04 8.24 5.26c5.19-2.29 9.61-3.43 13.27-3.43h0.46l0.46-0.23c0 0.15 0.08 0.23 0.23 0.23h2.29c1.37 0 2.06 1.68 2.06 5.04v1.14c0 3.66-0.99 7.63-2.98 11.9l5.95 8.24l0.46-0.23c5.19-9 7.78-19.38 7.78-31.13l0.23-1.14c-0.15 0-0.23-0.08-0.23-0.23h0.23v-0.46c0-2.59-0.15-4.27-0.46-5.04v0c-15.26 0-27.92 3.28-37.99 9.84v0zm-83.77 2.98c2.44 2.29 4.58 3.74 6.41 4.35c1.37 0 3.51-1.52 6.41-4.58v-0.23c-4.12-3.97-6.18-6.25-6.18-6.87c-3.05 3.36-5.26 5.8-6.64 7.32v0zm-109.4-6.64l0.23 1.14v1.14c0 5.49 0.92 12.28 2.75 20.37c2.59 7.63 4.96 12.59 7.09 14.88h0.46c1.07-2.75 2.75-5.49 5.04-8.24c-2.44-5.19-3.66-9.69-3.66-13.5c0.15-2.29 0.3-3.43 0.46-3.43c0-1.07 1.52-1.6 4.58-1.6h1.37c3.51 0 7.55 0.99 12.13 2.98l2.06-1.83l5.95-4.12v-0.23c-8.85-5.34-19.45-8.01-31.81-8.01h-5.95l-0.69 0.46zm175.54 31.35c0 5.04 1.6 10.3 4.81 15.79c5.04 2.75 9.61 4.12 13.73 4.12h2.06c5.95 0 11.82-2.75 17.62-8.24c-1.22-3.51-2.67-6.03-4.35-7.55c-4.43 4.27-8.93 6.41-13.5 6.41h-1.83c-1.98 0-3.97-0.38-5.95-1.14c-1.53 0-2.6-3.13-3.2-9.38c0-4.58 1.91-9.08 5.72-13.5v-0.23c-1.53-1.52-3.97-2.82-7.32-3.89h-0.23c-5.04 5.34-7.55 11.21-7.55 17.62v0zm-133.66-10.3v0.46c4.27 4.73 6.41 9.31 6.41 13.73v0.69c0 2.14-0.38 4.43-1.14 6.87c0 1.53-3.13 2.6-9.38 3.2c-4.73 0-9.23-1.91-13.5-5.72h-0.23c-0.92 0.46-2.21 2.9-3.89 7.32c5.34 5.19 11.06 7.78 17.17 7.78c5.04 0 10.37-1.52 16.02-4.58c2.9-5.04 4.35-9.99 4.35-14.88c0-6.71-2.75-12.97-8.24-18.77c-0.92 0-3.43 1.3-7.55 3.89v0zm74.61 17.17c-8.85-5.95-19.3-8.93-31.35-8.93c-1.22 0-2.14 0.08-2.75 0.23c-0.77 0-2.44 1.6-5.04 4.81c-6.1 6.87-10.22 15.87-12.36 27.01c-7.02 1.83-11.83 3.59-14.42 5.26c-3.82 1.37-9.31 5.8-16.48 13.27c0 12.82 3.43 24.26 10.3 34.33c-5.8 9.77-8.7 19.68-8.7 29.75v4.35c0 0.77 1.91 2.75 5.72 5.95c6.71 5.65 15.41 9.54 26.09 11.67c1.68 5.8 3.28 10.15 4.81 13.05c1.98 4.73 5.34 9.38 10.07 13.96c2.13 2.6 3.81 3.89 5.04 3.89c0.15-0.15 0.38-0.23 0.69-0.23h2.29c9.61 0 19.6-3.35 29.98-10.07h0.46c9.46 5.8 19.3 8.7 29.52 8.7h3.2c1.68 0 3.13-0.92 4.35-2.75c7.02-8.09 11.36-15.79 13.05-23.12c0.76-3.97 1.37-6.1 1.83-6.41c2.29 0 7.4-1.83 15.33-5.49c3.97-1.98 8.93-6.25 14.88-12.82v-2.06c0-11.44-3.43-22.2-10.3-32.27c5.95-9.15 8.93-19.68 8.93-31.58c0-0.76-0.08-1.75-0.23-2.98c-5.34-5.49-10.07-9.23-14.19-11.21c-3.97-2.13-9.84-4.19-17.62-6.18c-1.98-7.32-4.04-12.59-6.18-15.79c-1.07-3.2-5.19-8.09-12.36-14.65h-2.29c-11.14 0-21.9 3.43-32.27 10.3v0zm-4.81-5.49c0.3 0.31 1.91 1.22 4.81 2.75c0.3 0 1.91-0.92 4.81-2.75c-0.77-0.92-2.37-1.83-4.81-2.75c-0.15 0-1.76 0.92-4.81 2.75v0zm79.19-1.83c-0.15 0-0.38 0.08-0.69 0.23v-0.23l-2.52 0.23h-0.92c0.46 4.12 0.84 6.18 1.14 6.18c0 1.83 2.59 2.75 7.78 2.75c0.15 0 0.38-0.08 0.69-0.23l-0.23-2.06v-1.14c0-1.22 0.08-3.2 0.23-5.95c-0.15 0-0.23-0.08-0.23-0.23c-1.98 0.31-3.74 0.46-5.26 0.46v0zm-153.57 10.76v2.06l0.23 0.46c2.59-0.15 4.65-0.53 6.18-1.14c1.83 0 2.75-2.59 2.75-7.78c0-0.15-0.08-0.38-0.23-0.69c-1.53 0.15-2.37 0.23-2.52 0.23c-1.07 0-3.36-0.08-6.87-0.23c0.3 3.05 0.46 5.42 0.46 7.09v0zm103.91-3.89c6.71 0 11.82 3.59 15.33 10.76c2.59 4.58 4.35 10.3 5.26 17.17c0 0.92 1.6 1.37 4.81 1.37c16.78 3.2 25.18 9.31 25.18 18.31v1.37c0 6.87-3.36 14.73-10.07 23.57v0.23c7.63 9.61 11.44 17.93 11.44 24.95c0 10.07-9.54 16.79-28.61 20.14c-0.15 0-0.54 2.37-1.14 7.09c-3.51 15.26-9.54 22.89-18.08 22.89v-0.23c-0.15 0-0.31 0.08-0.46 0.23c-7.17 0-15.33-3.43-24.49-10.3c-9.61 7.63-17.62 11.44-24.03 11.44h-0.46h-0.46h-0.23h-0.23c-9.77 0-16.33-9.46-19.68-28.38c0-0.46-1.76-0.76-5.26-0.92c-16.48-3.2-24.72-9.53-24.72-19c0-7.02 3.43-15.18 10.3-24.49c-7.63-9.61-11.44-17.93-11.44-24.95c0-4.73 2.36-8.93 7.09-12.59c4.27-3.35 11.14-5.8 20.6-7.32c0.92 0 1.37-1.29 1.37-3.89c3.05-17.39 9.38-26.09 19-26.09h1.37c6.25 0 14.04 3.36 23.34 10.07v0c9.46-7.63 17.54-11.44 24.26-11.44v0zm-17.62 9.61c1.52 3.2 2.29 6.41 2.29 9.61c0 7.63-2.67 15.18-8.01 22.66c-6.26-7.17-9.38-14.95-9.38-23.34v-0.92c0-2.44 0.69-5.04 2.06-7.78c-0.46-0.76-3.2-2.13-8.24-4.12l-0.46 0.23c-1.37 4.12-2.06 8.55-2.06 13.27c0 12.82 6.1 25.03 18.31 36.62c11.14-11.44 16.71-23.34 16.71-35.7c0-5.34-1.07-10.37-3.2-15.11v0c-1.37 0-4.04 1.53-8.01 4.58v0zm46.23 4.12l1.83 5.26c2.29 0.31 3.97 0.69 5.04 1.14l0.46-0.23l-0.92-2.52c0-2.13-1.98-3.43-5.95-3.89l-0.46 0.23zm-15.11 0.69c-15.56 8.24-23.34 22.89-23.34 43.94v2.29l0.23 0.46c9.61 0 18.61-2.13 27.01-6.41c8.7-4.88 14.8-11.52 18.31-19.91v-0.23c-3.97-1.68-6.79-2.52-8.47-2.52c-0.46 0.15-0.69 0.38-0.69 0.69c-0.77 3.05-2.9 6.18-6.41 9.38c-7.78 5.8-14.5 8.7-20.14 8.7h-0.23c0-5.95 2.52-12.59 7.55-19.91c2.29-3.66 5.64-6.25 10.07-7.78c0-1.52-0.99-4.42-2.98-8.7c-0.31 0-0.61 0-0.92 0v0zm-90.63 1.6l-3.89 1.37c-1.22 0-2.06 1.83-2.52 5.49l0.23 0.46c0.92-0.46 2.52-0.99 4.81-1.6c0.15 0 0.69-1.83 1.6-5.49c-0.15 0-0.23-0.08-0.23-0.23v0zm14.42 0.23c-1.53 4.12-2.29 6.94-2.29 8.47v0.46c2.9 0.46 6.33 2.75 10.3 6.87c5.64 8.09 8.47 14.8 8.47 20.14c-4.73 0-10.45-1.83-17.17-5.49c-5.34-2.9-8.85-6.94-10.53-12.13c-1.83 0-4.81 1.07-8.93 3.2c8.24 16.02 22.81 24.03 43.71 24.03h2.52c0.3 0 0.46-0.15 0.46-0.46v-1.14c0-8.24-1.91-16.55-5.72-24.95c-5.19-9.3-11.98-15.64-20.37-19h-0.46zm58.59 4.81l-1.6 8.93v0.23h0.46c0-0.46 1.6-2.98 4.81-7.55c-0.77-1.52-1.14-2.36-1.14-2.52c-0.15 0-0.99 0.31-2.52 0.92v0zm-43.26 2.75c2.29 2.9 4.04 5.42 5.26 7.55h0.46c-1.22-4.73-1.83-7.4-1.83-8.01c0-1.07-0.84-1.75-2.52-2.06c-0.15 0-0.61 0.84-1.37 2.52v0zm19 0.23c-0.77 0-1.22 0-1.37 0c0 1.53 0.84 4.27 2.52 8.24c2.13-0.15 3.74-0.23 4.81-0.23h1.14l1.14 0.23c1.52-3.81 2.29-6.56 2.29-8.24l-0.23-0.23c-0.46 0-1.14 0.08-2.06 0.23c-1.98-0.15-3.28-0.38-3.89-0.69v0v0c-0.77 0.46-2.21 0.69-4.35 0.69v0zm32.27 17.39c1.98 1.37 3.66 2.98 5.04 4.81c3.35-1.22 5.87-2.59 7.55-4.12v-0.23c-2.14-1.98-3.28-3.35-3.43-4.12c-1.83-1.22-3.51-2.59-5.04-4.12c-0.61 0-1.98 2.6-4.12 7.78v0zm-62.94-2.75c-1.83 2.75-3.28 4.43-4.35 5.04v0.23c0.76 0.92 3.28 2.29 7.55 4.12c2.44-2.75 4.12-4.42 5.04-5.04c-1.83-4.42-3.28-7.02-4.35-7.78c-2.14 2.29-3.43 3.43-3.89 3.43v0zm79.87 16.48v0.23c4.27-1.07 6.64-1.6 7.09-1.6c1.52 0 2.44-0.92 2.75-2.75c-0.77-0.46-1.68-0.92-2.75-1.37c-0.61 0.61-2.98 2.44-7.09 5.49v0zm57.22-0.23c-5.04 3.51-8.7 9.23-10.99 17.17c4.42 13.73 13.27 20.6 26.55 20.6c1.52-2.9 2.29-5.49 2.29-7.78v-0.69h-0.92c-8.39 0-14.57-4.04-18.54-12.13c3.97-9 10.22-13.5 18.77-13.5v-0.23c0-1.83-0.84-4.5-2.52-8.01c-5.04 0-9.92 1.53-14.65 4.58v0zm28.84-4.12c1.37 4.43 2.06 7.4 2.06 8.93c0 0.61 0.84 1.14 2.52 1.6c6.25 2.75 10.37 5.95 12.36 9.61c-2.44 4.43-7.17 8.01-14.19 10.76c-0.46 4.43-0.99 7.63-1.6 9.61l0.23 0.46c1.98 0 5.95-1.6 11.9-4.81c5.04-2.13 11.9-7.63 20.6-16.48v-0.23c-6.1-5.8-11.06-9.84-14.88-12.13c-7.78-4.58-13.96-7.09-18.54-7.55l-0.46 0.23zm-183.78 2.75c0.46 1.98 0.92 2.98 1.37 2.98h0.69l0.46-0.23l7.09 1.37h0.46v-0.23c-4.12-2.44-6.56-4.12-7.32-5.04c-1.22 0.31-2.14 0.69-2.75 1.14v0zm73.24 20.14v0.46c11.29 10.99 22.96 16.48 35.02 16.48h0.69c5.04 0 9.99-0.99 14.88-2.98v-0.23c0-0.76-1.45-3.43-4.35-8.01c-3.51 1.53-6.64 2.29-9.38 2.29h-0.46c-7.94 0-15.49-2.67-22.66-8.01c7.47-6.25 15.26-9.38 23.34-9.38c2.9 0 5.8 0.69 8.7 2.06c0.46 0 1.83-2.75 4.12-8.24v-0.23c-4.27-1.52-8.7-2.29-13.27-2.29c-12.82 0-25.03 6.03-36.62 18.08v0zm-137.55-9.38l0.23 0.46c9.15 0 15.56 4.04 19.22 12.13c-0.77 3.2-3.28 6.56-7.55 10.07c-2.29 1.68-6.03 2.9-11.21 3.66c0 1.37 0.84 4.04 2.52 8.01h0.46c5.8 0 11.21-1.98 16.25-5.95c4.12-3.51 7.09-8.77 8.93-15.79v-0.46c-4.58-13.42-13.27-20.14-26.09-20.14c-0.92 0-1.83 2.67-2.75 8.01v0zm-24.03-2.29c-5.04 2.14-11.9 7.63-20.6 16.48v0.23c1.37 1.53 3.74 3.74 7.09 6.64c11.9 8.7 20.75 13.05 26.55 13.05v-0.23c-1.37-5.19-2.06-8.39-2.06-9.61c-7.17-2.44-12.05-5.87-14.65-10.3c1.37-3.05 4.73-6.18 10.07-9.38c2.75-1.07 4.12-1.68 4.12-1.83v-0.23c0-2.29 0.53-5.41 1.6-9.38c-0.15 0-0.23-0.08-0.23-0.23c-2.14 0-6.1 1.6-11.9 4.81v0zm73.01-0.46c1.37 3.2 2.9 5.88 4.58 8.01c3.66-1.52 6.79-2.29 9.38-2.29c8.09 0 15.79 2.67 23.12 8.01l-1.14 1.14c-7.48 5.49-14.73 8.24-21.74 8.24h-1.37c-2.6 0-5.19-0.69-7.78-2.06c-0.77 0.61-2.14 3.28-4.12 8.01c0.76 1.37 5.04 2.29 12.82 2.75h0.69c12.97 0 25.1-6.1 36.39-18.31v-0.23c-11.44-10.99-23.27-16.48-35.47-16.48c-5.34 0-10.45 1.07-15.33 3.2v0zm170.96 10.3c0.46 1.68 1.98 3.74 4.58 6.18h0.23c1.98-1.98 4.19-4.04 6.64-6.18v-0.23c-3.66-3.05-6.03-5.11-7.09-6.18c-2.44 2.29-3.89 4.43-4.35 6.41v0zm-59.05-1.83c0.15 2.14 0.23 3.74 0.23 4.81v0.92l-0.23 1.14c3.35 1.53 6.1 2.29 8.24 2.29h0.23l-0.23-2.29c0.15-1.83 0.38-3.05 0.69-3.66c-0.46-0.92-0.69-2.36-0.69-4.35v-1.6v0v0c-1.68 0-4.43 0.92-8.24 2.75v0zm34.56 2.29c0 0.15 0.84 1.76 2.52 4.81h0.23c0.46 0 1.37-1.6 2.75-4.81c-1.53-2.9-2.52-4.42-2.98-4.58v0c0 0.31-0.84 1.83-2.52 4.58v0zm-127.48 0.69c0 0.77-0.15 1.68-0.46 2.75c0.46 1.68 0.69 2.98 0.69 3.89v1.83v0.23c1.98 0 4.73-0.92 8.24-2.75c0-0.76-0.15-1.83-0.46-3.2c0.15-1.07 0.23-2.06 0.23-2.98v-0.69c-3.51-1.52-6.18-2.29-8.01-2.29h-0.23v3.2zm-62.25 4.12l7.09 6.41h0.23c1.98-1.98 3.43-4.12 4.35-6.41c-0.15-1.07-1.68-3.13-4.58-6.18h-0.23c-3.05 3.2-5.34 5.26-6.87 6.18v0zm30.67-0.69c0.3 1.22 1.22 2.83 2.75 4.81h0.23c0-0.46 0.84-1.98 2.52-4.58c-1.68-2.9-2.52-4.42-2.52-4.58h-0.46c-0.31 0-1.14 1.45-2.52 4.35v0zm95.67 10.99c0 13.58 3.89 25.18 11.67 34.79c5.64 5.8 10.6 9.31 14.88 10.53h0.23c1.52-4.42 2.29-7.25 2.29-8.47c0-0.46-0.38-0.69-1.14-0.69c-3.2-0.92-6.41-3.28-9.61-7.09c-5.34-7.78-8.01-14.19-8.01-19.22v-0.23h0.23c6.56 0 13.5 2.75 20.83 8.24c2.9 1.83 5.11 4.96 6.64 9.38c3.2-0.76 6.1-1.83 8.7-3.2c-2.29-6.1-7.32-11.82-15.11-17.17c-9.15-4.73-17.78-7.09-25.86-7.09c0 0.15-0.08 0.23-0.23 0.23c0-0.15-0.08-0.23-0.23-0.23h-4.81l-0.46 0.23zm-51.04 5.72c-10.22 5.04-17.09 12.13-20.6 21.28v0.23c4.12 1.53 6.94 2.29 8.47 2.29h0.46c0.3-1.07 0.53-1.6 0.69-1.6c0-1.98 2.29-5.11 6.87-9.38c7.93-5.19 14.34-7.78 19.22-7.78v0.46c0 5.8-2.29 12.05-6.87 18.77c-2.44 4.12-6.03 7.02-10.76 8.7c0.92 3.51 1.98 6.33 3.2 8.47h0.23c16.02-7.47 24.03-22.81 24.03-46c0-0.15-0.08-0.38-0.23-0.69c-8.24 0-16.48 1.76-24.72 5.26v0zm81.93-1.6c4.27 2.75 6.64 4.43 7.09 5.04c0.61 0 1.6-0.38 2.98-1.14c0-0.15-0.31-0.99-0.92-2.52l-9.15-1.6v0.23zm-60.42 36.85v1.37c0 4.88 1.07 9.69 3.2 14.42c3.35-1.52 6.03-3.05 8.01-4.58c-1.53-3.2-2.29-6.33-2.29-9.38v-0.46c0-7.78 2.67-15.33 8.01-22.66c6.25 7.48 9.38 15.41 9.38 23.8c0 2.75-0.69 5.42-2.06 8.01c0 0.77 2.67 2.21 8.01 4.35c1.22-0.3 2.13-4.81 2.75-13.5c0-12.66-6.1-24.79-18.31-36.39h-0.23c-10.99 11.29-16.48 22.97-16.48 35.02v0zm-35.25-32.96c-0.92 0-1.53 0.77-1.83 2.29c0 0.46 0.84 0.99 2.52 1.6l7.32-5.49v-0.23c-4.58 1.22-7.25 1.83-8.01 1.83v0zm79.65 10.53c0.61 2.44 1.98 5.04 4.12 7.78c2.44-2.44 3.89-3.66 4.35-3.66c1.68-2.75 3.05-4.27 4.12-4.58v-0.69c-2.9-1.83-5.49-3.05-7.78-3.66c-2.14 2.6-3.74 4.2-4.81 4.81v0zm-67.52 1.14c2.29 1.98 3.43 3.28 3.43 3.89c2.29 1.68 3.97 3.13 5.04 4.35h0.23c1.22-1.07 2.52-3.58 3.89-7.55v-0.23c-2.44-1.83-4.04-3.43-4.81-4.81c-3.36 1.22-5.95 2.67-7.78 4.35v0zm40.28 10.07c-0.77-0.15-1.53-0.23-2.29-0.23h-1.14c-1.53 3.66-2.29 6.26-2.29 7.78c0 0.31 0.15 0.46 0.46 0.46h1.6l0.23-0.23l3.66 0.69c1.37-0.46 2.59-0.69 3.66-0.69h2.06h0.23c0-1.83-0.92-4.58-2.75-8.24c-0.77 0-1.91 0.15-3.43 0.46v0zm19.91 8.7c0 0.92 0.76 1.53 2.29 1.83c0.3 0 0.84-0.84 1.6-2.52l-5.49-7.32h-0.23l1.83 8.01zm-43.03 0.23v0.46l1.14 2.29c0.3 0 1.14-0.3 2.52-0.92l1.6-8.93v-0.23h-0.46c-1.83 3.36-3.43 5.8-4.81 7.32v0zm78.27 1.14c-0.46 0-1.07 1.76-1.83 5.26l0.23 0.46c2.29-0.76 3.51-1.14 3.66-1.14c1.22 0 2.13-1.98 2.75-5.95c-0.31 0-1.91 0.46-4.81 1.37v0zm-114.66 1.83l1.14 3.89c0 1.07 1.91 1.91 5.72 2.52h0.23l-1.37-5.04c-0.31-0.3-2.14-0.84-5.49-1.6c0 0.15-0.08 0.23-0.23 0.23v0zm123.82 6.87c-2.9 4.88-4.35 9.69-4.35 14.42v2.06c0 5.65 2.75 11.37 8.24 17.17c2.59-0.61 5.11-2.06 7.55-4.35c-4.43-4.73-6.64-9.38-6.64-13.96c0.3-3.35 0.76-5.87 1.37-7.55c0-1.22 2.82-2.21 8.47-2.98v0.23c0.15 0 0.38-0.08 0.69-0.23c4.58 0 9.15 1.91 13.73 5.72c0.92 0 2.29-2.44 4.12-7.32c-5.65-5.19-11.37-7.78-17.17-7.78c0 0.15-0.08 0.23-0.23 0.23c0-0.15-0.08-0.23-0.23-0.23l-0.46 0.23v-0.23c-4.12 0-9.15 1.53-15.11 4.58v0zm-160.44 8.01c0.61 2.29 1.98 4.73 4.12 7.32h0.23c4.42-4.27 9-6.41 13.73-6.41h0.23c2.59 0 5.04 0.38 7.32 1.14c1.52 0 2.59 3.2 3.2 9.61c0 4.58-1.98 9-5.95 13.27c0 0.77 2.52 2.14 7.55 4.12c5.19-5.64 7.78-11.29 7.78-16.94c0-5.34-1.6-10.76-4.81-16.25c-4.73-2.9-9.69-4.35-14.88-4.35c-7.02 0-13.2 2.83-18.54 8.47v0zm170.05-0.23c-1.83 0-2.75 2.67-2.75 8.01c0 0.31 0.15 0.46 0.46 0.46h1.83l0.46-0.23v0.23c0.15 0 0.38-0.08 0.69-0.23c1.98 0.15 3.51 0.23 4.58 0.23h0.23l1.14 0.23c0-0.15 0.08-0.23 0.23-0.23c-0.31-1.98-0.46-3.74-0.46-5.26c0-0.15-0.08-0.38-0.23-0.69h0.23l-0.23-1.14v-2.29h-0.23c-2.14 0-4.12 0.31-5.95 0.92v0zm-152.65 3.43v2.75l0.23 0.46c-0.15 0-0.23 0.08-0.23 0.23v5.04l-0.23 0.46c0.15 0 0.23 0.08 0.23 0.23c2.59-0.3 4.88-0.46 6.87-0.46h0.69l0.46-0.23v0.23h0.23l0.46-0.23c0 0.15 0.08 0.23 0.23 0.23c0.3 0 0.46-0.15 0.46-0.46c0-1.98-0.31-3.97-0.92-5.95c0-1.83-2.67-2.75-8.01-2.75v0c-0.31 0-0.46 0.15-0.46 0.46v0zm180.81 10.53v0.23c2.44 4.88 3.66 9.38 3.66 13.5c-0.15 0-0.23 0.77-0.23 2.29c0 1.68-1.76 2.52-5.26 2.52c-4.12 0-8.39-1.07-12.82-3.2c-2.44 1.98-5.26 3.97-8.47 5.95c7.93 5.65 20.06 8.47 36.39 8.47c0.76 0 1.45-0.15 2.06-0.46c0-6.71-0.84-13.96-2.52-21.74c-2.29-7.78-4.81-13.12-7.55-16.02c-1.68 3.05-3.43 5.88-5.26 8.47v0zm-105.74-3.89v0.69l4.58 2.29c0.3 0 1.91-0.84 4.81-2.52v-0.46c-0.46 0-1.98-0.84-4.58-2.52h-0.23c-2.75 1.68-4.27 2.52-4.58 2.52v0zm-110.31 35.7v2.75l0.23 0.23c-0.15 0-0.23 0.08-0.23 0.23v0.23c0.76 0 1.22 0.08 1.37 0.23l0.46-0.23c14.04 0 26.17-3.2 36.39-9.61v-0.69c-2.9-1.22-5.65-2.9-8.24-5.04c-5.19 2.44-9.77 3.66-13.73 3.66c-2.14-0.15-3.28-0.3-3.43-0.46c-0.92 0-1.37-1.45-1.37-4.35v-1.37l-0.23-0.46c0.15 0 0.23-0.08 0.23-0.23v-0.46c0.15-3.35 1.14-7.02 2.98-10.99c-1.68-1.98-3.66-4.73-5.95-8.24h-0.46c-5.34 9-8.01 20.6-8.01 34.79v0zm115.35-25.18c-13.73 4.27-20.6 13.05-20.6 26.32v0.46c4.12 1.37 6.79 2.06 8.01 2.06l0.46-0.69v-0.46c0-8.24 4.04-14.34 12.13-18.31c2.29 0 5.64 2.52 10.07 7.55c1.68 2.6 2.9 6.33 3.66 11.21c1.83-0.15 4.5-1.07 8.01-2.75c0-4.58-1.45-9.38-4.35-14.42c-3.51-5.04-9.23-8.7-17.17-10.99h-0.23zm-6.18 16.02l6.41 6.87h0.23c2.59-2.9 4.65-5.19 6.18-6.87v-0.23c-1.98-1.98-4.12-3.43-6.41-4.35c-1.22 0.15-3.36 1.68-6.41 4.58v0zm17.85 25.86c-2.75 7.48-6.18 12.36-10.3 14.65c-3.82-1.37-7.55-6.1-11.21-14.19c-2.6 0-5.8-0.53-9.61-1.6c0 0.15-0.08 0.23-0.23 0.23c0 2.44 1.98 7.25 5.95 14.42c2.44 4.58 7.55 10.61 15.33 18.08h0.23c1.52-1.37 3.81-3.81 6.87-7.32c7.63-10.37 11.9-19.07 12.82-26.09l-0.23-0.46c-2.9 1.07-6.1 1.83-9.61 2.29v0z" />
</svg>