<svg version="1.2" baseProfile="tiny-ps" xmlns="http://www.w3.org/2000/svg" viewBox="0 0 350 500" width="350" height="500">
	<title>fbg8.svg / Corners Dan N</title>
	<style>
		tspan { white-space:pre }
		.s0 { fill: none;stroke: #f8da93;stroke-width: 1 } 
	</style>
	<path id="c1" class="s0" d="m341.42 24.21c-0.7 0.17-1.52 0.32-2.48 0.47c0.67 1.15 1.34 2.28 2.02 3.38c0.67 1.1 1.3 2.21 1.87 3.31c0.58 1.1 1.04 2.23 1.4 3.38c0.36 1.15 0.54 2.35 0.54 3.6c0 3.41-0.84 6-2.52 7.78c-1.68 1.78-3.84 2.62-6.48 2.52c-2.45-0.1-4.3-0.79-5.54-2.09c-1.25-1.3-1.87-2.83-1.87-4.61c0-1.82 0.56-3.25 1.69-4.28c1.13-1.03 2.44-1.43 3.92-1.19c1.3 0.14 2.27 0.62 2.92 1.44c0.65 0.82 1 1.7 1.04 2.66c0.38-0.82 0.56-1.68 0.54-2.59c-0.02-0.91-0.2-1.85-0.54-2.81c-0.34-0.96-0.78-1.96-1.33-2.99c-0.55-1.03-1.19-2.08-1.91-3.13c-0.48-0.77-0.92-1.51-1.33-2.23c-0.41-0.72-0.78-1.42-1.12-2.09c-0.91-0.1-1.82-0.19-2.74-0.29c-0.91-0.1-1.8-0.22-2.66-0.36c0.19 0.77 0.36 1.48 0.5 2.12c0.14 0.65 0.31 1.16 0.5 1.55v0.07c1.63 0.43 2.93 1.06 3.89 1.87c0.53 0.38 0.86 0.83 1.01 1.33c0.14 0.5 0.12 0.94-0.07 1.3c-0.19 0.36-0.52 0.6-0.97 0.72c-0.46 0.12-1 0.04-1.62-0.25c-1.1-0.67-2.06-2.11-2.88-4.32c-0.38-0.14-0.79-0.24-1.22-0.29c-0.43-0.05-0.89-0.1-1.37-0.14h-1.73l-0.86-0.79v-1.8c-0.05-0.48-0.1-0.94-0.14-1.37c-0.05-0.43-0.14-0.86-0.29-1.3c-1.1-0.38-2.03-0.82-2.77-1.3c-0.74-0.48-1.24-0.98-1.48-1.51c-0.34-0.62-0.43-1.18-0.29-1.66c0.14-0.48 0.4-0.8 0.76-0.97c0.36-0.17 0.78-0.19 1.26-0.07c0.48 0.12 0.91 0.47 1.3 1.04c0.38 0.43 0.73 0.98 1.04 1.66c0.31 0.67 0.59 1.42 0.83 2.23h0.07c0.43 0.19 0.96 0.35 1.58 0.47c0.62 0.12 1.32 0.3 2.09 0.54c-0.1-0.91-0.2-1.81-0.32-2.7c-0.12-0.89-0.23-1.79-0.32-2.7c-0.67-0.34-1.37-0.71-2.09-1.12c-0.72-0.41-1.46-0.85-2.23-1.33c-1.06-0.72-2.1-1.36-3.13-1.91c-1.03-0.55-2.03-1-2.99-1.33c-0.96-0.34-1.9-0.53-2.81-0.58c-0.91-0.05-1.78 0.12-2.59 0.5c0.96 0.1 1.85 0.46 2.66 1.08c0.82 0.62 1.3 1.61 1.44 2.95c0.24 1.49-0.16 2.8-1.19 3.92c-1.03 1.13-2.46 1.69-4.28 1.69c-1.78 0-3.32-0.62-4.64-1.87c-1.32-1.25-2.03-3.1-2.12-5.54c-0.1-2.64 0.76-4.8 2.56-6.48c1.8-1.68 4.38-2.52 7.74-2.52c1.3 0 2.52 0.17 3.67 0.5c1.15 0.34 2.28 0.79 3.38 1.37c1.1 0.58 2.21 1.22 3.31 1.94c1.1 0.72 2.23 1.42 3.38 2.09c0.14-0.96 0.3-1.8 0.47-2.52c0.17-0.72 0.32-1.32 0.47-1.8c0.19-0.53 0.36-1.01 0.5-1.44c0.53 0.29 1.14 0.61 1.84 0.97c0.7 0.36 1.38 0.71 2.05 1.04l2.3 1.15c-0.58 0.82-1 1.62-1.26 2.41c-0.26 0.79-0.44 1.6-0.54 2.41c0.62 0.24 1.25 0.37 1.87 0.4c0.62 0.02 1.22 0.04 1.8 0.04l1.3 1.08c-0.05 0.67-0.05 1.32 0 1.94c0.05 0.62 0.17 1.27 0.36 1.94c0.86-0.1 1.69-0.28 2.48-0.54c0.79-0.26 1.6-0.71 2.41-1.33l1.15 2.3c0.34 0.67 0.68 1.37 1.04 2.09c0.36 0.72 0.68 1.34 0.97 1.87c-0.43 0.14-0.91 0.31-1.44 0.5c-0.48 0.14-1.07 0.3-1.76 0.47zm-11.63 7.24c0.58 0.58 1.08 0.82 1.51 0.72c0.43-0.14 0.65-0.47 0.65-0.97c0-0.5-0.34-0.95-1.01-1.33c-0.38-0.24-0.8-0.47-1.26-0.68c-0.46-0.22-0.97-0.4-1.55-0.54c0.53 1.3 1.08 2.23 1.66 2.81zm-8.89-11.05c-0.22-0.46-0.44-0.88-0.68-1.26c-0.38-0.67-0.82-1.01-1.3-1.01c-0.48 0-0.77 0.22-0.86 0.65c-0.19 0.43-0.01 0.94 0.54 1.51c0.55 0.58 1.5 1.13 2.84 1.66c-0.14-0.58-0.32-1.09-0.54-1.55zm4.43-3.64c-0.05-0.96-0.06-1.81-0.04-2.56c0.02-0.74 0.04-1.48 0.04-2.2c-1.34-0.82-2.72-1.66-4.14-2.52c-1.42-0.86-3.01-1.63-4.79-2.3c-1.39-0.48-2.78-0.74-4.18-0.79c-1.39-0.05-2.68 0.08-3.85 0.4c-1.18 0.31-2.22 0.78-3.13 1.4c-0.91 0.62-1.61 1.37-2.09 2.23c-0.48 1.2-0.72 2.28-0.72 3.24v0.94c0.14 2.06 0.86 3.7 2.16 4.9c0.53 0.38 1.13 0.67 1.8 0.86c0.67 0.19 1.34 0.28 2.02 0.25c0.67-0.02 1.32-0.18 1.94-0.47c0.62-0.29 1.13-0.7 1.51-1.22c0.38-0.38 0.64-0.85 0.76-1.4c0.12-0.55 0.14-1.1 0.07-1.66c-0.07-0.55-0.25-1.07-0.54-1.55c-0.29-0.48-0.67-0.84-1.15-1.08c-0.43-0.24-0.86-0.4-1.3-0.47c-0.43-0.07-0.84-0.11-1.22-0.11c-0.19 0.14-0.38 0.3-0.58 0.47c-0.19 0.17-0.38 0.3-0.58 0.4c0.1 0.1 0.17 0.16 0.22 0.18c0.05 0.02 0.12 0.08 0.22 0.18c0.53 0.19 0.94 0.46 1.22 0.79c0.29 0.34 0.46 0.68 0.5 1.04c0.05 0.36-0.01 0.7-0.18 1.01c-0.17 0.31-0.4 0.54-0.68 0.68c-0.34 0.24-0.7 0.35-1.08 0.32c-0.38-0.02-0.73-0.14-1.04-0.36c-0.31-0.22-0.55-0.53-0.72-0.94c-0.17-0.41-0.23-0.88-0.18-1.4c0.1-0.14 0.16-0.3 0.18-0.47c0.02-0.17 0.08-0.3 0.18-0.4l0.29-0.72c0.53-0.77 1.3-1.42 2.3-1.94c1.01-0.53 2.18-0.77 3.53-0.72c1.92 0.05 3.68 0.54 5.29 1.48c1.61 0.94 3.44 2.05 5.51 3.35c0.38 0.24 0.78 0.46 1.19 0.65c0.41 0.19 0.83 0.41 1.26 0.65v-0.14zm-18.5-2.45c-0.43 0.58-0.59 1.04-0.47 1.4c0.12 0.36 0.35 0.62 0.68 0.79c0.34 0.17 0.67 0.22 1.01 0.14c0.34-0.07 0.53-0.28 0.58-0.61c0.1-0.43-0.01-0.8-0.32-1.12c-0.31-0.31-0.8-0.52-1.48-0.61zm27 11.7c0.19 0.41 0.41 0.8 0.65 1.19c1.3 2.02 2.41 3.84 3.35 5.47c0.94 1.63 1.43 3.38 1.48 5.26c0.05 1.39-0.19 2.59-0.72 3.6c-0.53 1.01-1.2 1.78-2.02 2.3l-0.65 0.29c-0.1 0.1-0.24 0.16-0.43 0.18c-0.19 0.02-0.34 0.08-0.43 0.18c-0.53 0.1-1 0.05-1.4-0.14c-0.41-0.19-0.72-0.44-0.94-0.76c-0.22-0.31-0.34-0.66-0.36-1.04c-0.02-0.38 0.06-0.74 0.25-1.08c0.38-0.62 0.98-0.91 1.8-0.86c0.82 0.05 1.42 0.62 1.8 1.73c0.1 0.05 0.16 0.11 0.18 0.18c0.02 0.07 0.08 0.16 0.18 0.25c0.1-0.19 0.24-0.38 0.43-0.58c0.19-0.19 0.34-0.41 0.43-0.65c0.1-0.72-0.1-1.54-0.58-2.45c-0.24-0.48-0.6-0.86-1.08-1.15c-0.48-0.29-1-0.47-1.55-0.54c-0.55-0.07-1.1-0.04-1.66 0.11c-0.55 0.14-1.02 0.38-1.4 0.72c-0.53 0.38-0.94 0.89-1.22 1.51c-0.29 0.62-0.44 1.27-0.47 1.94c-0.02 0.67 0.06 1.34 0.25 2.02c0.19 0.67 0.48 1.27 0.86 1.8c0.58 0.67 1.3 1.18 2.16 1.51c0.86 0.34 1.78 0.55 2.74 0.65h0.94c1.01 0 2.09-0.26 3.24-0.79c0.86-0.43 1.61-1.1 2.23-2.02c0.62-0.91 1.09-1.96 1.4-3.13c0.31-1.18 0.43-2.46 0.36-3.85c-0.07-1.39-0.35-2.78-0.83-4.18c-0.67-1.78-1.43-3.37-2.27-4.79c-0.84-1.42-1.67-2.8-2.48-4.14c-0.72 0-1.45 0.01-2.2 0.04c-0.74 0.02-1.6 0.01-2.56-0.04h-0.14c0.24 0.43 0.46 0.85 0.65 1.26zm1.94 17.24c-0.24-1.34-0.82-1.94-1.73-1.8c-0.34 0-0.54 0.18-0.61 0.54c-0.07 0.36-0.02 0.7 0.14 1.01c0.17 0.31 0.43 0.54 0.79 0.68c0.36 0.14 0.83 0 1.4-0.43zm-6.55-19.51c0.86 0.1 1.75 0.17 2.66 0.22c-0.58-1.54-1.01-3.02-1.3-4.46c-1.44-0.29-2.93-0.72-4.46-1.3c0.05 0.96 0.12 1.86 0.22 2.7c0.1 0.84 0.22 1.67 0.36 2.48c0.82 0.14 1.66 0.26 2.52 0.36zm-5.08-0.18c-0.6-0.12-1.19-0.28-1.76-0.47c0.19 0.67 0.3 1.36 0.32 2.05c0.02 0.7 0.04 1.43 0.04 2.2c0.77 0 1.51 0.01 2.23 0.04c0.72 0.02 1.39 0.13 2.02 0.32c-0.19-0.58-0.36-1.16-0.5-1.76c-0.14-0.6-0.26-1.26-0.36-1.98c-0.72-0.14-1.38-0.28-1.98-0.4zm1.98-6.37c0.67 0.34 1.36 0.61 2.05 0.83c0.7 0.22 1.45 0.42 2.27 0.61c-0.1-0.43-0.14-0.88-0.14-1.33c0-0.46-0.05-0.88-0.14-1.26c0-0.34 0-0.66 0-0.97c0-0.31 0.05-0.61 0.14-0.9c-0.77-0.24-1.49-0.5-2.16-0.79c-0.67-0.29-1.34-0.6-2.02-0.94c-0.14 1.58-0.14 3.17 0 4.75zm5.62-8.14l-4.46-2.3c-0.58 1.44-0.94 3.05-1.08 4.82c0.24 0.19 0.5 0.35 0.79 0.47c0.29 0.12 0.58 0.25 0.86 0.4c0.38 0.24 0.78 0.42 1.19 0.54c0.41 0.12 0.88 0.28 1.4 0.47c0.1-0.67 0.22-1.27 0.36-1.8c0.14-0.53 0.29-0.98 0.43-1.37c0.19-0.48 0.36-0.89 0.5-1.22zm3.6 8.21c-0.05-0.58-0.07-1.2-0.07-1.87v-0.58h-0.58c-0.67 0-1.3-0.02-1.87-0.07c-0.58-0.05-1.13-0.17-1.66-0.36c-0.19 1.49-0.14 2.95 0.14 4.39c1.44 0.29 2.9 0.34 4.39 0.14c-0.19-0.53-0.31-1.08-0.36-1.66zm0.58 2.52c-0.34 0.1-0.65 0.14-0.94 0.14c-0.29 0-0.6 0-0.94 0c-0.38-0.1-0.8-0.14-1.26-0.14c-0.46 0-0.9-0.05-1.33-0.14c0.38 1.68 0.86 3.12 1.44 4.32c1.58 0.14 3.17 0.14 4.75 0c-0.34-0.67-0.65-1.34-0.94-2.02c-0.29-0.67-0.55-1.39-0.79-2.16zm5.11-1.44c-0.34 0.19-0.74 0.38-1.22 0.58c-0.38 0.14-0.84 0.28-1.37 0.4c-0.53 0.12-1.13 0.23-1.8 0.32c0.19 0.53 0.35 1 0.47 1.4c0.12 0.41 0.3 0.8 0.54 1.19c0.14 0.29 0.28 0.58 0.4 0.86c0.12 0.29 0.28 0.55 0.47 0.79c0.86-0.1 1.7-0.23 2.52-0.4c0.82-0.17 1.58-0.4 2.3-0.68l-2.3-4.46zm-299.14 3.38c-1.82 0-3.25-0.56-4.28-1.69c-1.03-1.13-1.43-2.44-1.19-3.92c0.14-1.34 0.62-2.33 1.44-2.95c0.82-0.62 1.7-0.98 2.66-1.08c-0.82-0.38-1.68-0.55-2.59-0.5c-0.91 0.05-1.85 0.24-2.81 0.58c-0.96 0.34-1.96 0.78-2.99 1.33c-1.03 0.55-2.08 1.19-3.13 1.91c-0.77 0.48-1.51 0.92-2.23 1.33c-0.72 0.41-1.42 0.78-2.09 1.12c-0.1 0.91-0.2 1.81-0.32 2.7c-0.12 0.89-0.23 1.79-0.32 2.7c0.77-0.24 1.46-0.42 2.09-0.54c0.62-0.12 1.15-0.28 1.58-0.47h0.07c0.24-0.82 0.52-1.56 0.83-2.23c0.31-0.67 0.66-1.22 1.04-1.66c0.38-0.58 0.82-0.92 1.3-1.04c0.48-0.12 0.9-0.1 1.26 0.07c0.36 0.17 0.61 0.49 0.76 0.97c0.14 0.48 0.05 1.03-0.29 1.66c-0.24 0.53-0.73 1.03-1.48 1.51c-0.74 0.48-1.67 0.91-2.77 1.3c-0.14 0.43-0.24 0.86-0.29 1.3c-0.05 0.43-0.1 0.89-0.14 1.37v1.8l-0.86 0.79h-1.73c-0.48 0.05-0.94 0.1-1.37 0.14c-0.43 0.05-0.84 0.14-1.22 0.29c-0.82 2.21-1.78 3.65-2.88 4.32c-0.62 0.29-1.16 0.37-1.62 0.25c-0.46-0.12-0.78-0.36-0.97-0.72c-0.19-0.36-0.22-0.79-0.07-1.3c0.14-0.5 0.48-0.95 1.01-1.33c0.96-0.82 2.26-1.44 3.89-1.87v-0.07c0.19-0.38 0.36-0.9 0.5-1.55c0.14-0.65 0.31-1.36 0.5-2.12c-0.86 0.14-1.75 0.26-2.66 0.36c-0.91 0.1-1.82 0.19-2.74 0.29c-0.34 0.67-0.71 1.37-1.12 2.09c-0.41 0.72-0.85 1.46-1.33 2.23c-0.72 1.06-1.36 2.1-1.91 3.13c-0.55 1.03-1 2.03-1.33 2.99c-0.34 0.96-0.52 1.9-0.54 2.81c-0.02 0.91 0.16 1.78 0.54 2.59c0.05-0.96 0.4-1.85 1.04-2.66c0.65-0.82 1.62-1.3 2.92-1.44c1.49-0.24 2.8 0.16 3.92 1.19c1.13 1.03 1.69 2.46 1.69 4.28c0 1.78-0.62 3.31-1.87 4.61c-1.25 1.3-3.1 1.99-5.54 2.09c-2.64 0.1-4.8-0.74-6.48-2.52c-1.68-1.78-2.52-4.37-2.52-7.78c0-1.25 0.18-2.45 0.54-3.6c0.36-1.15 0.83-2.28 1.4-3.38c0.58-1.1 1.2-2.21 1.87-3.31c0.67-1.1 1.34-2.23 2.02-3.38c-0.96-0.14-1.79-0.3-2.48-0.47c-0.7-0.17-1.28-0.32-1.76-0.47c-0.53-0.19-1.01-0.36-1.44-0.5c0.29-0.53 0.61-1.15 0.97-1.87c0.36-0.72 0.71-1.42 1.04-2.09l1.15-2.3c0.82 0.62 1.62 1.07 2.41 1.33c0.79 0.26 1.62 0.44 2.48 0.54c0.19-0.67 0.31-1.32 0.36-1.94c0.05-0.62 0.05-1.27 0-1.94l1.3-1.08c0.58 0 1.18-0.01 1.8-0.04c0.62-0.02 1.25-0.16 1.87-0.4c-0.1-0.82-0.28-1.62-0.54-2.41c-0.26-0.79-0.68-1.6-1.26-2.41l2.3-1.15c0.67-0.34 1.36-0.68 2.05-1.04c0.7-0.36 1.31-0.68 1.84-0.97c0.14 0.43 0.31 0.91 0.5 1.44c0.14 0.48 0.3 1.08 0.47 1.8c0.17 0.72 0.32 1.56 0.47 2.52c1.15-0.67 2.28-1.37 3.38-2.09c1.1-0.72 2.21-1.37 3.31-1.94c1.1-0.58 2.23-1.03 3.38-1.37c1.15-0.34 2.38-0.5 3.67-0.5c3.36 0 5.94 0.84 7.74 2.52c1.8 1.68 2.65 3.84 2.56 6.48c-0.1 2.45-0.8 4.3-2.12 5.54c-1.32 1.25-2.87 1.87-4.64 1.87zm-10.48-1.44c0.55-0.58 0.73-1.08 0.54-1.51c-0.1-0.43-0.38-0.65-0.86-0.65c-0.48 0-0.91 0.34-1.3 1.01c-0.24 0.38-0.47 0.8-0.68 1.26c-0.22 0.46-0.4 0.97-0.54 1.55c1.34-0.53 2.29-1.08 2.84-1.66zm-11.09 8.89c-0.46 0.22-0.88 0.44-1.26 0.68c-0.67 0.38-1.01 0.83-1.01 1.33c0 0.5 0.22 0.83 0.65 0.97c0.43 0.1 0.94-0.14 1.51-0.72c0.58-0.58 1.13-1.51 1.66-2.81c-0.58 0.14-1.09 0.32-1.55 0.54zm2.7-1.48c0.62-0.19 1.3-0.3 2.02-0.32c0.72-0.02 1.46-0.04 2.23-0.04c0-0.77 0.01-1.5 0.04-2.2c0.02-0.7 0.13-1.38 0.32-2.05c-0.58 0.19-1.16 0.35-1.76 0.47c-0.6 0.12-1.26 0.25-1.98 0.4c-0.1 0.72-0.22 1.38-0.36 1.98c-0.14 0.6-0.31 1.19-0.5 1.76zm-2.23-3.96c0.86-0.1 1.7-0.22 2.52-0.36c0.14-0.82 0.26-1.64 0.36-2.48c0.1-0.84 0.17-1.74 0.22-2.7c-1.54 0.58-3.02 1.01-4.46 1.3c-0.29 1.44-0.72 2.93-1.3 4.46c0.91-0.05 1.8-0.12 2.66-0.22zm-11.34 5.15c-0.84 1.42-1.6 3.01-2.27 4.79c-0.48 1.39-0.76 2.78-0.83 4.18c-0.07 1.39 0.05 2.68 0.36 3.85c0.31 1.18 0.78 2.22 1.4 3.13c0.62 0.91 1.37 1.58 2.23 2.02c1.15 0.53 2.23 0.79 3.24 0.79h0.94c0.96-0.1 1.87-0.31 2.74-0.65c0.86-0.34 1.58-0.84 2.16-1.51c0.38-0.53 0.67-1.13 0.86-1.8c0.19-0.67 0.28-1.34 0.25-2.02c-0.02-0.67-0.18-1.32-0.47-1.94c-0.29-0.62-0.7-1.13-1.22-1.51c-0.38-0.34-0.85-0.58-1.4-0.72c-0.55-0.14-1.1-0.18-1.66-0.11c-0.55 0.07-1.07 0.25-1.55 0.54c-0.48 0.29-0.84 0.67-1.08 1.15c-0.48 0.91-0.67 1.73-0.58 2.45c0.1 0.24 0.24 0.46 0.43 0.65c0.19 0.19 0.34 0.38 0.43 0.58c0.1-0.1 0.16-0.18 0.18-0.25c0.02-0.07 0.08-0.13 0.18-0.18c0.38-1.1 0.98-1.68 1.8-1.73c0.82-0.05 1.42 0.24 1.8 0.86c0.19 0.34 0.28 0.7 0.25 1.08c-0.02 0.38-0.14 0.73-0.36 1.04c-0.22 0.31-0.53 0.56-0.94 0.76c-0.41 0.19-0.88 0.24-1.4 0.14c-0.1-0.1-0.24-0.16-0.43-0.18c-0.19-0.02-0.34-0.08-0.43-0.18l-0.65-0.29c-0.82-0.53-1.49-1.3-2.02-2.3c-0.53-1.01-0.77-2.21-0.72-3.6c0.05-1.87 0.54-3.62 1.48-5.26c0.94-1.63 2.05-3.46 3.35-5.47c0.24-0.38 0.46-0.78 0.65-1.19c0.19-0.41 0.41-0.83 0.65-1.26h-0.14c-0.96 0.05-1.81 0.06-2.56 0.04c-0.74-0.02-1.48-0.04-2.2-0.04c-0.82 1.34-1.64 2.72-2.48 4.14zm4.79 14.36c0.58 0.43 1.04 0.58 1.4 0.43c0.36-0.14 0.62-0.37 0.79-0.68c0.17-0.31 0.22-0.65 0.14-1.01c-0.07-0.36-0.28-0.54-0.61-0.54c-0.91-0.14-1.49 0.46-1.73 1.8zm-2.66-23.94c-0.53-0.12-0.98-0.25-1.37-0.4c-0.48-0.19-0.89-0.38-1.22-0.58l-2.3 4.46c0.72 0.29 1.49 0.52 2.3 0.68c0.82 0.17 1.66 0.3 2.52 0.4c0.19-0.24 0.35-0.5 0.47-0.79c0.12-0.29 0.25-0.58 0.4-0.86c0.24-0.38 0.42-0.78 0.54-1.19c0.12-0.41 0.28-0.88 0.47-1.4c-0.67-0.1-1.27-0.2-1.8-0.32zm1.73 2.63c-0.29 0.67-0.6 1.34-0.94 2.02c1.58 0.14 3.17 0.14 4.75 0c0.58-1.2 1.06-2.64 1.44-4.32c-0.43 0.1-0.88 0.14-1.33 0.14c-0.46 0-0.88 0.05-1.26 0.14c-0.34 0-0.65 0-0.94 0c-0.29 0-0.6-0.05-0.94-0.14c-0.24 0.77-0.5 1.49-0.79 2.16zm3.89-7.2c-0.58 0.05-1.2 0.07-1.87 0.07h-0.58v0.58c0 0.67-0.02 1.3-0.07 1.87c-0.05 0.58-0.17 1.13-0.36 1.66c1.49 0.19 2.95 0.14 4.39-0.14c0.29-1.44 0.34-2.9 0.14-4.39c-0.53 0.19-1.08 0.31-1.66 0.36zm5.54-7.99l-4.46 2.3c0.14 0.34 0.31 0.74 0.5 1.22c0.14 0.38 0.29 0.84 0.43 1.37c0.14 0.53 0.26 1.13 0.36 1.8c0.53-0.19 1-0.35 1.4-0.47c0.41-0.12 0.8-0.3 1.19-0.54c0.29-0.14 0.58-0.28 0.86-0.4c0.29-0.12 0.55-0.28 0.79-0.47c-0.14-1.78-0.5-3.38-1.08-4.82zm1.15 5.69c-0.67 0.34-1.34 0.65-2.02 0.94c-0.67 0.29-1.39 0.55-2.16 0.79c0.1 0.29 0.14 0.59 0.14 0.9c0 0.31 0 0.64 0 0.97c-0.1 0.38-0.14 0.8-0.14 1.26c0 0.46-0.05 0.9-0.14 1.33c0.82-0.19 1.57-0.4 2.27-0.61c0.7-0.22 1.38-0.49 2.05-0.83c0.14-1.58 0.14-3.17 0-4.75zm23.69 1.22c0-0.96-0.24-2.04-0.72-3.24c-0.48-0.86-1.18-1.61-2.09-2.23c-0.91-0.62-1.96-1.09-3.13-1.4c-1.18-0.31-2.46-0.44-3.85-0.4c-1.39 0.05-2.78 0.31-4.18 0.79c-1.78 0.67-3.37 1.44-4.79 2.3c-1.42 0.86-2.8 1.7-4.14 2.52c0 0.72 0.01 1.45 0.04 2.2c0.02 0.74 0.01 1.6-0.04 2.56v0.14c0.43-0.24 0.85-0.46 1.26-0.65c0.41-0.19 0.8-0.41 1.19-0.65c2.06-1.3 3.9-2.41 5.51-3.35c1.61-0.94 3.37-1.43 5.29-1.48c1.34-0.05 2.52 0.19 3.53 0.72c1.01 0.53 1.78 1.18 2.3 1.94l0.29 0.72c0.1 0.1 0.16 0.23 0.18 0.4c0.02 0.17 0.08 0.32 0.18 0.47c0.05 0.53-0.01 1-0.18 1.4c-0.17 0.41-0.41 0.72-0.72 0.94c-0.31 0.22-0.66 0.34-1.04 0.36c-0.38 0.02-0.74-0.08-1.08-0.32c-0.29-0.14-0.52-0.37-0.68-0.68c-0.17-0.31-0.23-0.65-0.18-1.01c0.05-0.36 0.22-0.71 0.5-1.04c0.29-0.34 0.7-0.6 1.22-0.79c0.1-0.1 0.17-0.16 0.22-0.18c0.05-0.02 0.12-0.08 0.22-0.18c-0.19-0.1-0.38-0.23-0.58-0.4c-0.19-0.17-0.38-0.32-0.58-0.47c-0.38 0-0.79 0.04-1.22 0.11c-0.43 0.07-0.86 0.23-1.3 0.47c-0.48 0.24-0.86 0.6-1.15 1.08c-0.29 0.48-0.47 1-0.54 1.55c-0.07 0.55-0.05 1.1 0.07 1.66c0.12 0.55 0.37 1.02 0.76 1.4c0.38 0.53 0.89 0.94 1.51 1.22c0.62 0.29 1.27 0.44 1.94 0.47c0.67 0.02 1.34-0.06 2.02-0.25c0.67-0.19 1.27-0.48 1.8-0.86c1.3-1.2 2.02-2.83 2.16-4.9v-0.94zm-4.39 0.65c-0.67 0.1-1.16 0.3-1.48 0.61c-0.31 0.31-0.42 0.68-0.32 1.12c0.05 0.34 0.24 0.54 0.58 0.61c0.34 0.07 0.67 0.02 1.01-0.14c0.34-0.17 0.56-0.43 0.68-0.79c0.12-0.36-0.04-0.83-0.47-1.4zm300 460.95c0.53 0.19 1.01 0.36 1.44 0.5c-0.29 0.53-0.61 1.15-0.97 1.87c-0.36 0.72-0.71 1.42-1.04 2.09l-1.15 2.3c-0.82-0.62-1.62-1.07-2.41-1.33c-0.79-0.26-1.62-0.44-2.48-0.54c-0.19 0.67-0.31 1.32-0.36 1.94c-0.05 0.62-0.05 1.27 0 1.94l-1.3 1.08c-0.58 0-1.18 0.01-1.8 0.04c-0.62 0.02-1.25 0.16-1.87 0.4c0.1 0.82 0.28 1.62 0.54 2.41c0.26 0.79 0.68 1.6 1.26 2.41l-2.3 1.15c-0.67 0.34-1.36 0.68-2.05 1.04c-0.7 0.36-1.31 0.68-1.84 0.97c-0.14-0.43-0.31-0.91-0.5-1.44c-0.14-0.48-0.3-1.08-0.47-1.8c-0.17-0.72-0.32-1.56-0.47-2.52c-1.15 0.67-2.28 1.37-3.38 2.09c-1.1 0.72-2.21 1.37-3.31 1.94c-1.1 0.58-2.23 1.03-3.38 1.37c-1.15 0.34-2.38 0.5-3.67 0.5c-3.36 0-5.94-0.84-7.74-2.52c-1.8-1.68-2.65-3.84-2.56-6.48c0.1-2.45 0.8-4.3 2.12-5.54c1.32-1.25 2.87-1.87 4.64-1.87c1.82 0 3.25 0.56 4.28 1.69c1.03 1.13 1.43 2.44 1.19 3.92c-0.14 1.34-0.62 2.33-1.44 2.95c-0.82 0.62-1.7 0.98-2.66 1.08c0.82 0.38 1.68 0.55 2.59 0.5c0.91-0.05 1.85-0.24 2.81-0.58c0.96-0.34 1.96-0.78 2.99-1.33c1.03-0.55 2.08-1.19 3.13-1.91c0.77-0.48 1.51-0.92 2.23-1.33c0.72-0.41 1.42-0.78 2.09-1.12c0.1-0.91 0.2-1.81 0.32-2.7c0.12-0.89 0.23-1.79 0.32-2.7c-0.77 0.24-1.46 0.42-2.09 0.54c-0.62 0.12-1.15 0.28-1.58 0.47h-0.07c-0.24 0.82-0.52 1.56-0.83 2.23c-0.31 0.67-0.66 1.22-1.04 1.66c-0.38 0.58-0.82 0.92-1.3 1.04c-0.48 0.12-0.9 0.1-1.26-0.07c-0.36-0.17-0.61-0.49-0.76-0.97c-0.14-0.48-0.05-1.03 0.29-1.66c0.24-0.53 0.73-1.03 1.48-1.51c0.74-0.48 1.67-0.91 2.77-1.3c0.14-0.43 0.24-0.86 0.29-1.3c0.05-0.43 0.1-0.89 0.14-1.37v-1.8l0.86-0.79h1.73c0.48-0.05 0.94-0.1 1.37-0.14c0.43-0.05 0.84-0.14 1.22-0.29c0.82-2.21 1.78-3.65 2.88-4.32c0.62-0.29 1.16-0.37 1.62-0.25c0.46 0.12 0.78 0.36 0.97 0.72c0.19 0.36 0.22 0.79 0.07 1.3c-0.14 0.5-0.48 0.95-1.01 1.33c-0.96 0.82-2.26 1.44-3.89 1.87v0.07c-0.19 0.38-0.36 0.9-0.5 1.55c-0.14 0.65-0.31 1.36-0.5 2.12c0.86-0.14 1.75-0.26 2.66-0.36c0.91-0.1 1.82-0.19 2.74-0.29c0.34-0.67 0.71-1.37 1.12-2.09c0.41-0.72 0.85-1.46 1.33-2.23c0.72-1.06 1.36-2.1 1.91-3.13c0.55-1.03 1-2.03 1.33-2.99c0.34-0.96 0.52-1.9 0.54-2.81c0.02-0.91-0.16-1.78-0.54-2.59c-0.05 0.96-0.4 1.85-1.04 2.66c-0.65 0.82-1.62 1.3-2.92 1.44c-1.49 0.24-2.8-0.16-3.92-1.19c-1.13-1.03-1.69-2.46-1.69-4.28c0-1.78 0.62-3.31 1.87-4.61c1.25-1.3 3.1-1.99 5.54-2.09c2.64-0.1 4.8 0.74 6.48 2.52c1.68 1.78 2.52 4.37 2.52 7.78c0 1.25-0.18 2.45-0.54 3.6c-0.36 1.15-0.83 2.28-1.4 3.38c-0.58 1.1-1.2 2.21-1.87 3.31c-0.67 1.1-1.34 2.23-2.02 3.38c0.96 0.14 1.79 0.3 2.48 0.47c0.7 0.17 1.28 0.32 1.76 0.47zm-13.39-7.7c0.58-0.58 1.08-0.82 1.51-0.72c0.43 0.14 0.65 0.47 0.65 0.97c0 0.5-0.34 0.95-1.01 1.33c-0.38 0.24-0.8 0.47-1.26 0.68c-0.46 0.22-0.97 0.4-1.55 0.54c0.53-1.3 1.08-2.23 1.66-2.81zm-8.89 11.05c-0.22 0.46-0.44 0.88-0.68 1.26c-0.38 0.67-0.82 1.01-1.3 1.01c-0.48 0-0.77-0.22-0.86-0.65c-0.19-0.43-0.01-0.94 0.54-1.51c0.55-0.58 1.5-1.13 2.84-1.66c-0.14 0.58-0.32 1.09-0.54 1.55zm4.43 3.64c-0.05 0.96-0.06 1.81-0.04 2.56c0.02 0.74 0.04 1.48 0.04 2.2c-1.34 0.82-2.72 1.66-4.14 2.52c-1.42 0.86-3.01 1.63-4.79 2.3c-1.39 0.48-2.78 0.74-4.18 0.79c-1.39 0.05-2.68-0.08-3.85-0.4c-1.18-0.31-2.22-0.78-3.13-1.4c-0.91-0.62-1.61-1.37-2.09-2.23c-0.48-1.2-0.72-2.28-0.72-3.24v-0.94c0.14-2.06 0.86-3.7 2.16-4.9c0.53-0.38 1.13-0.67 1.8-0.86c0.67-0.19 1.34-0.28 2.02-0.25c0.67 0.02 1.32 0.18 1.94 0.47c0.62 0.29 1.13 0.7 1.51 1.22c0.38 0.38 0.64 0.85 0.76 1.4c0.12 0.55 0.14 1.1 0.07 1.66c-0.07 0.55-0.25 1.07-0.54 1.55c-0.29 0.48-0.67 0.84-1.15 1.08c-0.43 0.24-0.86 0.4-1.3 0.47c-0.43 0.07-0.84 0.11-1.22 0.11c-0.19-0.14-0.38-0.3-0.58-0.47c-0.19-0.17-0.38-0.3-0.58-0.4c0.1-0.1 0.17-0.16 0.22-0.18c0.05-0.02 0.12-0.08 0.22-0.18c0.53-0.19 0.94-0.46 1.22-0.79c0.29-0.34 0.46-0.68 0.5-1.04c0.05-0.36-0.01-0.7-0.18-1.01c-0.17-0.31-0.4-0.54-0.68-0.68c-0.34-0.24-0.7-0.35-1.08-0.32c-0.38 0.02-0.73 0.14-1.04 0.36c-0.31 0.22-0.55 0.53-0.72 0.94c-0.17 0.41-0.23 0.88-0.18 1.4c0.1 0.14 0.16 0.3 0.18 0.47c0.02 0.17 0.08 0.3 0.18 0.4l0.29 0.72c0.53 0.77 1.3 1.42 2.3 1.94c1.01 0.53 2.18 0.77 3.53 0.72c1.92-0.05 3.68-0.54 5.29-1.48c1.61-0.94 3.44-2.05 5.51-3.35c0.38-0.24 0.78-0.46 1.19-0.65c0.41-0.19 0.83-0.41 1.26-0.65v0.14zm-18.5 2.45c-0.43-0.58-0.59-1.04-0.47-1.4c0.12-0.36 0.35-0.62 0.68-0.79c0.34-0.17 0.67-0.22 1.01-0.14c0.34 0.07 0.53 0.28 0.58 0.61c0.1 0.43-0.01 0.8-0.32 1.12c-0.31 0.31-0.8 0.52-1.48 0.61zm27-11.7c0.19-0.41 0.41-0.8 0.65-1.19c1.3-2.02 2.41-3.84 3.35-5.47c0.94-1.63 1.43-3.38 1.48-5.26c0.05-1.39-0.19-2.59-0.72-3.6c-0.53-1.01-1.2-1.78-2.02-2.3l-0.65-0.29c-0.1-0.1-0.24-0.16-0.43-0.18c-0.19-0.02-0.34-0.08-0.43-0.18c-0.53-0.1-1-0.05-1.4 0.14c-0.41 0.19-0.72 0.44-0.94 0.76c-0.22 0.31-0.34 0.66-0.36 1.04c-0.02 0.38 0.06 0.74 0.25 1.08c0.38 0.62 0.98 0.91 1.8 0.86c0.82-0.05 1.42-0.62 1.8-1.73c0.1-0.05 0.16-0.11 0.18-0.18c0.02-0.07 0.08-0.16 0.18-0.25c0.1 0.19 0.24 0.38 0.43 0.58c0.19 0.19 0.34 0.41 0.43 0.65c0.1 0.72-0.1 1.54-0.58 2.45c-0.24 0.48-0.6 0.86-1.08 1.15c-0.48 0.29-1 0.47-1.55 0.54c-0.55 0.07-1.1 0.04-1.66-0.11c-0.55-0.14-1.02-0.38-1.4-0.72c-0.53-0.38-0.94-0.89-1.22-1.51c-0.29-0.62-0.44-1.27-0.47-1.94c-0.02-0.67 0.06-1.34 0.25-2.02c0.19-0.67 0.48-1.27 0.86-1.8c0.58-0.67 1.3-1.18 2.16-1.51c0.86-0.34 1.78-0.55 2.74-0.65h0.94c1.01 0 2.09 0.26 3.24 0.79c0.86 0.43 1.61 1.1 2.23 2.02c0.62 0.91 1.09 1.96 1.4 3.13c0.31 1.18 0.43 2.46 0.36 3.85c-0.07 1.39-0.35 2.78-0.83 4.18c-0.67 1.78-1.43 3.37-2.27 4.79c-0.84 1.42-1.67 2.8-2.48 4.14c-0.72 0-1.45-0.01-2.2-0.04c-0.74-0.02-1.6-0.01-2.56 0.04h-0.14c0.24-0.43 0.46-0.85 0.65-1.26zm1.94-17.24c-0.24 1.34-0.82 1.94-1.73 1.8c-0.34 0-0.54-0.18-0.61-0.54c-0.07-0.36-0.02-0.7 0.14-1.01c0.17-0.31 0.43-0.54 0.79-0.68c0.36-0.14 0.83 0 1.4 0.43zm-6.55 19.51c0.86-0.1 1.75-0.17 2.66-0.22c-0.58 1.54-1.01 3.02-1.3 4.46c-1.44 0.29-2.93 0.72-4.46 1.3c0.05-0.96 0.12-1.86 0.22-2.7c0.1-0.84 0.22-1.67 0.36-2.48c0.82-0.14 1.66-0.26 2.52-0.36zm-5.08 0.18c-0.6 0.12-1.19 0.28-1.76 0.47c0.19-0.67 0.3-1.36 0.32-2.05c0.02-0.7 0.04-1.43 0.04-2.2c0.77 0 1.51-0.01 2.23-0.04c0.72-0.02 1.39-0.13 2.02-0.32c-0.19 0.58-0.36 1.16-0.5 1.76c-0.14 0.6-0.26 1.26-0.36 1.98c-0.72 0.14-1.38 0.28-1.98 0.4zm1.98 6.37c0.67-0.34 1.36-0.61 2.05-0.83c0.7-0.22 1.45-0.42 2.27-0.61c-0.1 0.43-0.14 0.88-0.14 1.33c0 0.46-0.05 0.88-0.14 1.26c0 0.34 0 0.66 0 0.97c0 0.31 0.05 0.61 0.14 0.9c-0.77 0.24-1.49 0.5-2.16 0.79c-0.67 0.29-1.34 0.6-2.02 0.94c-0.14-1.58-0.14-3.17 0-4.75zm5.62 8.14l-4.46 2.3c-0.58-1.44-0.94-3.05-1.08-4.82c0.24-0.19 0.5-0.35 0.79-0.47c0.29-0.12 0.58-0.25 0.86-0.4c0.38-0.24 0.78-0.42 1.19-0.54c0.41-0.12 0.88-0.28 1.4-0.47c0.1 0.67 0.22 1.27 0.36 1.8c0.14 0.53 0.29 0.98 0.43 1.37c0.19 0.48 0.36 0.89 0.5 1.22zm3.6-8.21c-0.05 0.58-0.07 1.2-0.07 1.87v0.58h-0.58c-0.67 0-1.3 0.02-1.87 0.07c-0.58 0.05-1.13 0.17-1.66 0.36c-0.19-1.49-0.14-2.95 0.14-4.39c1.44-0.29 2.9-0.34 4.39-0.14c-0.19 0.53-0.31 1.08-0.36 1.66zm0.58-2.52c-0.34-0.1-0.65-0.14-0.94-0.14c-0.29 0-0.6 0-0.94 0c-0.38 0.1-0.8 0.14-1.26 0.14c-0.46 0-0.9 0.05-1.33 0.14c0.38-1.68 0.86-3.12 1.44-4.32c1.58-0.14 3.17-0.14 4.75 0c-0.34 0.67-0.65 1.34-0.94 2.02c-0.29 0.67-0.55 1.39-0.79 2.16zm5.11 1.44c-0.34-0.19-0.74-0.38-1.22-0.58c-0.38-0.14-0.84-0.28-1.37-0.4c-0.53-0.12-1.13-0.23-1.8-0.32c0.19-0.53 0.35-1 0.47-1.4c0.12-0.41 0.3-0.8 0.54-1.19c0.14-0.29 0.28-0.58 0.4-0.86c0.12-0.29 0.28-0.55 0.47-0.79c0.86 0.1 1.7 0.23 2.52 0.4c0.82 0.17 1.58 0.4 2.3 0.68l-2.3 4.46zm-299.14-3.38c-1.82 0-3.25 0.56-4.28 1.69c-1.03 1.13-1.43 2.44-1.19 3.92c0.14 1.34 0.62 2.33 1.44 2.95c0.82 0.62 1.7 0.98 2.66 1.08c-0.82 0.38-1.68 0.55-2.59 0.5c-0.91-0.05-1.85-0.24-2.81-0.58c-0.96-0.34-1.96-0.78-2.99-1.33c-1.03-0.55-2.08-1.19-3.13-1.91c-0.77-0.48-1.51-0.92-2.23-1.33c-0.72-0.41-1.42-0.78-2.09-1.12c-0.1-0.91-0.2-1.81-0.32-2.7c-0.12-0.89-0.23-1.79-0.32-2.7c0.77 0.24 1.46 0.42 2.09 0.54c0.62 0.12 1.15 0.28 1.58 0.47h0.07c0.24 0.82 0.52 1.56 0.83 2.23c0.31 0.67 0.66 1.22 1.04 1.66c0.38 0.58 0.82 0.92 1.3 1.04c0.48 0.12 0.9 0.1 1.26-0.07c0.36-0.17 0.61-0.49 0.76-0.97c0.14-0.48 0.05-1.03-0.29-1.66c-0.24-0.53-0.73-1.03-1.48-1.51c-0.74-0.48-1.67-0.91-2.77-1.3c-0.14-0.43-0.24-0.86-0.29-1.3c-0.05-0.43-0.1-0.89-0.14-1.37v-1.8l-0.86-0.79h-1.73c-0.48-0.05-0.94-0.1-1.37-0.14c-0.43-0.05-0.84-0.14-1.22-0.29c-0.82-2.21-1.78-3.65-2.88-4.32c-0.62-0.29-1.16-0.37-1.62-0.25c-0.46 0.12-0.78 0.36-0.97 0.72c-0.19 0.36-0.22 0.79-0.07 1.3c0.14 0.5 0.48 0.95 1.01 1.33c0.96 0.82 2.26 1.44 3.89 1.87v0.07c0.19 0.38 0.36 0.9 0.5 1.55c0.14 0.65 0.31 1.36 0.5 2.12c-0.86-0.14-1.75-0.26-2.66-0.36c-0.91-0.1-1.82-0.19-2.74-0.29c-0.34-0.67-0.71-1.37-1.12-2.09c-0.41-0.72-0.85-1.46-1.33-2.23c-0.72-1.06-1.36-2.1-1.91-3.13c-0.55-1.03-1-2.03-1.33-2.99c-0.34-0.96-0.52-1.9-0.54-2.81c-0.02-0.91 0.16-1.78 0.54-2.59c0.05 0.96 0.4 1.85 1.04 2.66c0.65 0.82 1.62 1.3 2.92 1.44c1.49 0.24 2.8-0.16 3.92-1.19c1.13-1.03 1.69-2.46 1.69-4.28c0-1.78-0.62-3.31-1.87-4.61c-1.25-1.3-3.1-1.99-5.54-2.09c-2.64-0.1-4.8 0.74-6.48 2.52c-1.68 1.78-2.52 4.37-2.52 7.78c0 1.25 0.18 2.45 0.54 3.6c0.36 1.15 0.83 2.28 1.4 3.38c0.58 1.1 1.2 2.21 1.87 3.31c0.67 1.1 1.34 2.23 2.02 3.38c-0.96 0.14-1.79 0.3-2.48 0.47c-0.7 0.17-1.28 0.32-1.76 0.47c-0.53 0.19-1.01 0.36-1.44 0.5c0.29 0.53 0.61 1.15 0.97 1.87c0.36 0.72 0.71 1.42 1.04 2.09l1.15 2.3c0.82-0.62 1.62-1.07 2.41-1.33c0.79-0.26 1.62-0.44 2.48-0.54c0.19 0.67 0.31 1.32 0.36 1.94c0.05 0.62 0.05 1.27 0 1.94l1.3 1.08c0.58 0 1.18 0.01 1.8 0.04c0.62 0.02 1.25 0.16 1.87 0.4c-0.1 0.82-0.28 1.62-0.54 2.41c-0.26 0.79-0.68 1.6-1.26 2.41l2.3 1.15c0.67 0.34 1.36 0.68 2.05 1.04c0.7 0.36 1.31 0.68 1.84 0.97c0.14-0.43 0.31-0.91 0.5-1.44c0.14-0.48 0.3-1.08 0.47-1.8c0.17-0.72 0.32-1.56 0.47-2.52c1.15 0.67 2.28 1.37 3.38 2.09c1.1 0.72 2.21 1.37 3.31 1.94c1.1 0.58 2.23 1.03 3.38 1.37c1.15 0.34 2.38 0.5 3.67 0.5c3.36 0 5.94-0.84 7.74-2.52c1.8-1.68 2.65-3.84 2.56-6.48c-0.1-2.45-0.8-4.3-2.12-5.54c-1.32-1.25-2.87-1.87-4.64-1.87zm-10.48 1.44c0.55 0.58 0.73 1.08 0.54 1.51c-0.1 0.43-0.38 0.65-0.86 0.65c-0.48 0-0.91-0.34-1.3-1.01c-0.24-0.38-0.47-0.8-0.68-1.26c-0.22-0.46-0.4-0.97-0.54-1.55c1.34 0.53 2.29 1.08 2.84 1.66zm-11.09-8.89c-0.46-0.22-0.88-0.44-1.26-0.68c-0.67-0.38-1.01-0.83-1.01-1.33c0-0.5 0.22-0.83 0.65-0.97c0.43-0.1 0.94 0.14 1.51 0.72c0.58 0.58 1.13 1.51 1.66 2.81c-0.58-0.14-1.09-0.32-1.55-0.54zm2.7 1.48c0.62 0.19 1.3 0.3 2.02 0.32c0.72 0.02 1.46 0.04 2.23 0.04c0 0.77 0.01 1.5 0.04 2.2c0.02 0.7 0.13 1.38 0.32 2.05c-0.58-0.19-1.16-0.35-1.76-0.47c-0.6-0.12-1.26-0.25-1.98-0.4c-0.1-0.72-0.22-1.38-0.36-1.98c-0.14-0.6-0.31-1.19-0.5-1.76zm-2.23 3.96c0.86 0.1 1.7 0.22 2.52 0.36c0.14 0.82 0.26 1.64 0.36 2.48c0.1 0.84 0.17 1.74 0.22 2.7c-1.54-0.58-3.02-1.01-4.46-1.3c-0.29-1.44-0.72-2.93-1.3-4.46c0.91 0.05 1.8 0.12 2.66 0.22zm-11.34-5.15c-0.84-1.42-1.6-3.01-2.27-4.79c-0.48-1.39-0.76-2.78-0.83-4.18c-0.07-1.39 0.05-2.68 0.36-3.85c0.31-1.18 0.78-2.22 1.4-3.13c0.62-0.91 1.37-1.58 2.23-2.02c1.15-0.53 2.23-0.79 3.24-0.79h0.94c0.96 0.1 1.87 0.31 2.74 0.65c0.86 0.34 1.58 0.84 2.16 1.51c0.38 0.53 0.67 1.13 0.86 1.8c0.19 0.67 0.28 1.34 0.25 2.02c-0.02 0.67-0.18 1.32-0.47 1.94c-0.29 0.62-0.7 1.13-1.22 1.51c-0.38 0.34-0.85 0.58-1.4 0.72c-0.55 0.14-1.1 0.18-1.66 0.11c-0.55-0.07-1.07-0.25-1.55-0.54c-0.48-0.29-0.84-0.67-1.08-1.15c-0.48-0.91-0.67-1.73-0.58-2.45c0.1-0.24 0.24-0.46 0.43-0.65c0.19-0.19 0.34-0.38 0.43-0.58c0.1 0.1 0.16 0.18 0.18 0.25c0.02 0.07 0.08 0.13 0.18 0.18c0.38 1.1 0.98 1.68 1.8 1.73c0.82 0.05 1.42-0.24 1.8-0.86c0.19-0.34 0.28-0.7 0.25-1.08c-0.02-0.38-0.14-0.73-0.36-1.04c-0.22-0.31-0.53-0.56-0.94-0.76c-0.41-0.19-0.88-0.24-1.4-0.14c-0.1 0.1-0.24 0.16-0.43 0.18c-0.19 0.02-0.34 0.08-0.43 0.18l-0.65 0.29c-0.82 0.53-1.49 1.3-2.02 2.3c-0.53 1.01-0.77 2.21-0.72 3.6c0.05 1.87 0.54 3.62 1.48 5.26c0.94 1.63 2.05 3.46 3.35 5.47c0.24 0.38 0.46 0.78 0.65 1.19c0.19 0.41 0.41 0.83 0.65 1.26h-0.14c-0.96-0.05-1.81-0.06-2.56-0.04c-0.74 0.02-1.48 0.04-2.2 0.04c-0.82-1.34-1.64-2.72-2.48-4.14zm4.79-14.36c0.58-0.43 1.04-0.58 1.4-0.43c0.36 0.14 0.62 0.37 0.79 0.68c0.17 0.31 0.22 0.65 0.14 1.01c-0.07 0.36-0.28 0.54-0.61 0.54c-0.91 0.14-1.49-0.46-1.73-1.8zm-2.66 23.94c-0.53 0.12-0.98 0.25-1.37 0.4c-0.48 0.19-0.89 0.38-1.22 0.58l-2.3-4.46c0.72-0.29 1.49-0.52 2.3-0.68c0.82-0.17 1.66-0.3 2.52-0.4c0.19 0.24 0.35 0.5 0.47 0.79c0.12 0.29 0.25 0.58 0.4 0.86c0.24 0.38 0.42 0.78 0.54 1.19c0.12 0.41 0.28 0.88 0.47 1.4c-0.67 0.1-1.27 0.2-1.8 0.32zm1.73-2.63c-0.29-0.67-0.6-1.34-0.94-2.02c1.58-0.14 3.17-0.14 4.75 0c0.58 1.2 1.06 2.64 1.44 4.32c-0.43-0.1-0.88-0.14-1.33-0.14c-0.46 0-0.88-0.05-1.26-0.14c-0.34 0-0.65 0-0.94 0c-0.29 0-0.6 0.05-0.94 0.14c-0.24-0.77-0.5-1.49-0.79-2.16zm3.89 7.2c-0.58-0.05-1.2-0.07-1.87-0.07h-0.58v-0.58c0-0.67-0.02-1.3-0.07-1.87c-0.05-0.58-0.17-1.13-0.36-1.66c1.49-0.19 2.95-0.14 4.39 0.14c0.29 1.44 0.34 2.9 0.14 4.39c-0.53-0.19-1.08-0.31-1.66-0.36zm5.54 7.99l-4.46-2.3c0.14-0.34 0.31-0.74 0.5-1.22c0.14-0.38 0.29-0.84 0.43-1.37c0.14-0.53 0.26-1.13 0.36-1.8c0.53 0.19 1 0.35 1.4 0.47c0.41 0.12 0.8 0.3 1.19 0.54c0.29 0.14 0.58 0.28 0.86 0.4c0.29 0.12 0.55 0.28 0.79 0.47c-0.14 1.78-0.5 3.38-1.08 4.82zm1.15-5.69c-0.67-0.34-1.34-0.65-2.02-0.94c-0.67-0.29-1.39-0.55-2.16-0.79c0.1-0.29 0.14-0.59 0.14-0.9c0-0.31 0-0.64 0-0.97c-0.1-0.38-0.14-0.8-0.14-1.26c0-0.46-0.05-0.9-0.14-1.33c0.82 0.19 1.57 0.4 2.27 0.61c0.7 0.22 1.38 0.49 2.05 0.83c0.14 1.58 0.14 3.17 0 4.75zm23.69-1.22c0 0.96-0.24 2.04-0.72 3.24c-0.48 0.86-1.18 1.61-2.09 2.23c-0.91 0.62-1.96 1.09-3.13 1.4c-1.18 0.31-2.46 0.44-3.85 0.4c-1.39-0.05-2.78-0.31-4.18-0.79c-1.78-0.67-3.37-1.44-4.79-2.3c-1.42-0.86-2.8-1.7-4.14-2.52c0-0.72 0.01-1.45 0.04-2.2c0.02-0.74 0.01-1.6-0.04-2.56v-0.14c0.43 0.24 0.85 0.46 1.26 0.65c0.41 0.19 0.8 0.41 1.19 0.65c2.06 1.3 3.9 2.41 5.51 3.35c1.61 0.94 3.37 1.43 5.29 1.48c1.34 0.05 2.52-0.19 3.53-0.72c1.01-0.53 1.78-1.18 2.3-1.94l0.29-0.72c0.1-0.1 0.16-0.23 0.18-0.4c0.02-0.17 0.08-0.32 0.18-0.47c0.05-0.53-0.01-1-0.18-1.4c-0.17-0.41-0.41-0.72-0.72-0.94c-0.31-0.22-0.66-0.34-1.04-0.36c-0.38-0.02-0.74 0.08-1.08 0.32c-0.29 0.14-0.52 0.37-0.68 0.68c-0.17 0.31-0.23 0.65-0.18 1.01c0.05 0.36 0.22 0.71 0.5 1.04c0.29 0.34 0.7 0.6 1.22 0.79c0.1 0.1 0.17 0.16 0.22 0.18c0.05 0.02 0.12 0.08 0.22 0.18c-0.19 0.1-0.38 0.23-0.58 0.4c-0.19 0.17-0.38 0.32-0.58 0.47c-0.38 0-0.79-0.04-1.22-0.11c-0.43-0.07-0.86-0.23-1.3-0.47c-0.48-0.24-0.86-0.6-1.15-1.08c-0.29-0.48-0.47-1-0.54-1.55c-0.07-0.55-0.05-1.1 0.07-1.66c0.12-0.55 0.37-1.02 0.76-1.4c0.38-0.53 0.89-0.94 1.51-1.22c0.62-0.29 1.27-0.44 1.94-0.47c0.67-0.02 1.34 0.06 2.02 0.25c0.67 0.19 1.27 0.48 1.8 0.86c1.3 1.2 2.02 2.83 2.16 4.9v0.94zm-4.39-0.65c-0.67-0.1-1.16-0.3-1.48-0.61c-0.31-0.31-0.42-0.68-0.32-1.12c0.05-0.34 0.24-0.54 0.58-0.61c0.34-0.07 0.67-0.02 1.01 0.14c0.34 0.17 0.56 0.43 0.68 0.79c0.12 0.36-0.04 0.83-0.47 1.4z" />
</svg>