<svg version="1.2" baseProfile="tiny-ps" xmlns="http://www.w3.org/2000/svg" viewBox="0 0 100 100" width="100" height="100" style="transform:scale(.7);transform-origin:center center;">
	<title>elder-futhark rune by Dan N Gebo</title>
	<style>
		tspan { white-space:pre }
		.s0 { fill: #ccc } 
		.s1 { fill: #f1f1f1 } 
		.s2 { opacity: .4;fill: #ffffff } 
		.s3 { fill: #55b0cf ;filter:drop-shadow(0 0 2px #fff);}
	</style>
	<path id="shadow" class="s0" d="m66.6 17.06c7.29 0.76 17.97 19.94 18.4 22.04c2.05 9.81 6.16 21.84 3 29.9c-2.95 7.5-5.44 14.82-9 17c-12.15 7.46-36.89 5.85-39.57 4.81c-2.68-1.04-11.74-6.38-15.77-11.02c-4.04-4.64-4.56-9.98-4.38-15.26c0.18-5.28-2.6-18.93 0.73-27.53c3.33-8.61 13-18 13-18c11.16-6.52 26.31-2.7 33.6-1.94z" />
	<path id="stone" class="s1" d="m65.6 15.06c7.29 0.76 17.97 19.94 18.4 22.04c2.05 9.81 6.16 21.84 3 29.9c-2.95 7.5-5.44 14.82-9 17c-12.15 7.46-36.89 5.85-39.57 4.81c-2.68-1.04-11.74-6.38-15.77-11.02c-4.04-4.64-4.56-9.98-4.38-15.26c0.18-5.28-2.6-18.93 0.73-27.53c3.33-8.61 13-18 13-18c11.16-6.52 26.31-2.7 33.6-1.94z" />
	<path id="shadow" fill-rule="evenodd" class="s2" d="m53 16c30.81 0.45 46.5 56.59 17 68c-16.94 5.01-47.65 1.85-48-18c-6.3 0 11.38 10.71 28.43 9.1c10.87-0.97 22.18-11.34 24.57-18.1c5.2-14.67-16.36-45.43-42-32c0.67-1.33 0.9-6.67 7-8c3.67-0.67 9.15-1.78 13-1z" />
	<path id="gebo" class="s3" d="m70.05 73.48l-2.62 0.26l-14.66-18.39l-14.69 18.36l-2.62-0.27l15.9-19.86l-15.79-19.8l2.16-0.83l15.05 18.86l15.08-18.84l2.15 0.83l-15.83 19.78l15.87 19.89z" />
</svg>