<svg version="1.2" baseProfile="tiny-ps" xmlns="http://www.w3.org/2000/svg" viewBox="0 0 1200 600" width="1200" height="600">
	<title>sigdan</title>
	<style>
		tspan { white-space:pre }
		.s0 { fill: #000000 } 
		.s1 { opacity: .3;fill: #7b94cd } 
		.s2 { opacity: .1;fill: #c4ae6b } 
		.s3 { fill: #c4ae6b } 
		.s4 { fill: none;stroke: #c4ae6b;stroke-width: 8.5 } 
		.s5 { fill: none;stroke: #c4ae6b;stroke-width: 3.5 } 
		.s6 { fill: none;stroke: #c4ae6b;stroke-width: 4 } 

#bgdark{}
#bglines{}
#midlineopac{}
#semicerc{}
#midline{}
#romb1{}
#lineup1{}
#lineup2{}
#linedown1{}
#linedown2{}
#cerc1{stroke-width: 3}
#semicerc2{}
#semicerc3{}
#romb2{}
#recttipdown{}
#rectipup{}
#recttipver{}
#helip{}
#arrow{}
#cipher{}
.s1{}
.s2,.s3,.s4,.s5{animation:DoLineUp 120s infinite;opacity:0;transform:translateX(-70px);transform-origin:center center;}

@keyframes DoLineUp{
0%{transform:translateX(-70px);}
1%{transform:translateX(0);opacity:.5;}
10%{transform:translateX(0);opacity:1;}
100%{transform:translateX(0);opacity:1;}
}
.s6{animation:DoSearch 120s infinite;opacity:0;transform:translateX(-10px);transform-origin:center center;animation-delay:3s;}
@keyframes DoSearch{
0%{transform:translateX(-10px);}
1%{transform:translateX(50px);opacity:.5;}
5%{transform:translateX(250px);opacity:1;}
10%{transform:translateX(450px) scale(1.3);opacity:1;}
20%{transform:translateX(330px) scale(1);opacity:1;}
25%{transform:translateX(500px) rotateX(180deg) translateY(7px) scale(1.3);opacity:1;}
26%{transform:translateX(550px) rotateX(0deg) translateY(0px) scale(1);opacity:1;}
29%{transform:translateX(600px) rotateX(0deg) translateY(0px);opacity:1;filter:drop-shadow(0 0 4px #000);}
33%{transform:translateX(660px) rotateX(0deg) translateY(0px);opacity:1;filter:drop-shadow(0 0 4px #000);}
35%{transform:translateX(650px) rotateX(0deg) translateY(0px);opacity:1;filter:drop-shadow(0 0 0 #000);}
55%{transform:translateX(805px) rotateX(0deg) translateY(0px);opacity:1;filter:drop-shadow(0 0 4px #000);}
70%{transform:translateX(450px) scale(1.3);opacity:1;}
93%{transform:translateX(270px) scale(1.3);opacity:1;}
100%{transform:translateX(-150px) scale(1.3);opacity:0;}
}

#midline{opacity:.1}
	</style>
	<path id="bgdark" class="s0" d="m0 0h1200v600h-1200v-600z" />
	<path id="bglines" class="s1" d="m1591.09 354.51l-0.19 0.98l-190.22-36.59l28.65 25.73l-0.67 0.74l-29.89-26.84l-26.16-5.03l-115.89 115.55l204.6 183.58l-0.67 0.74l-204.65-183.61l-58.73 58.56l32.7 90.38l365.14 92.82l-0.25 0.97l-364.48-92.65l5.43 15l123.53 123.81l-0.71 0.71l-122.01-122.3l15.84 43.77l-0.94 0.34l-16.57-45.79l-19.24-19.28l-84.68-21.53l79.29 69.05l-0.66 0.75l-79.45-69.19l-9.11 9.09l-9.45 80.85l96.67 82.5l-0.65 0.76l-96.16-82.07l-1.02 8.74l-0.99-0.12l1.1-9.41l-38.25-32.65l-14.14 14.09l228.11 193.64l-0.65 0.76l-228.18-193.69l-67.14 66.94l25.99 26.02l-0.71 0.71l-25.99-26.02l-94.3 94.02l-0.71-0.71l94.3-94.02l-45.2-45.26l-0.39 0.83l3.12 11.67l-0.97 0.26l-2.81-10.52l-22.25 47.6l-0.91-0.42l22.76-48.68l-0.8-2.99l-43.03-43.09l-58.06 94.99l67.9 55.6l-0.63 0.77l-67.79-55.51l-23.46 38.39l-0.85-0.52l23.54-38.51l-24.69-20.22l-1.96 4.2l-0.91-0.42l2.07-4.43l-98.08-80.32l-42.8 67.67l-2.27 5.49l-0.92-0.38l0.06-0.13l-9.79 15.48l0.57 30.34l359.79 128.03l-0.34 0.94l-359.44-127.9l0.1 5.42l-1 0.02l-0.11-5.8l-15.7-5.59l-52.27 82.64l-0.85-0.53l52.15-82.45l-172-61.21l-64.04 91.15l35.64 30.39l-0.65 0.76l-35.57-30.33l-36.7 52.24l-0.82-0.57l36.76-52.32l-177.64-151.51l-79.35 79.47l-0.71-0.71l79.3-79.41l-29.77-25.39l-139.79 164.48l-0.76-0.65l139.79-164.48l-1.34-1.15l-10.68 13.27l-0.78-0.63l10.69-13.29l-19.49-16.62l-58.22-20.72l-45.17 75.2l-0.86-0.51l45.06-75.03l-52.48-18.68l-44.67 167.09l-0.97-0.26l44.69-167.17l-51.76-18.42l-224.1 214.07l-0.69-0.72l223.74-213.73l-144.56-51.44l0.34-0.94l104.85 37.31l0.04-0.34l48.98 6.19l35.82-34.22l-183.94-156.88l-265.56 280.76l-0.73-0.69l265.52-280.72l-85.01-72.5l-31.28-7.95l0.25-0.97l29.31 7.45l-14.76-12.59l0.65-0.76l16.3 13.9l124.13 31.55l132.35-139.93l-35.32-52.37l-141.88-27.29l0.19-0.98l140.9 27.1l-16.41-24.33l0.83-0.56l16.97 25.16l50.64 9.74l-199.34-163.23l0.63-0.77l200.77 164.4l19.31 3.71l12.59-13.31l-51.39-74.14l0.82-0.57l51.27 73.96l120.5-127.4l-42.29-8.79l0.2-0.98l42.89 8.91l5.13-5.42l-5.45-4.62l0.65-0.76l5.49 4.66l15.7-16.6l-112.83-96.3l0.65-0.76l112.87 96.33l32.44-34.3l0.73 0.69l-32.4 34.26l42.74 36.48l128.06 26.62l17.88-18.05l0.71 0.7l-17.43 17.59l39.22 8.15l10.42-17.35l0.86 0.51l-10.24 17.05l82.09 17.06l14.37-13.73l0.69 0.72l-13.88 13.26l45.11 9.37l41.66-18.77l-124.58-124.87l0.71-0.71l124.85 125.14l51.59-23.24l0.41 0.91l-51.25 23.09l23.44 23.5l1.41-1.75l-0.29-15.13l-14.75-7.72l0.46-0.89l14.27 7.47l0-0.02l1-0.02l0.01 0.56l8.42 4.41l10.68-13.27l0.78 0.63l-10.56 13.12l19.52 10.22l43.82-51.57l-124.51-111.71l0.67-0.74l124.49 111.7l38.8-45.65l0.76 0.65l-38.81 45.67l45.02 40.39l-0.07-0.25l0.97-0.26l0.46 1.73l30.99 27.81l21.97-22l-33.03-7.92l0.23-0.97l33.62 8.06l13.91-13.93l0.71 0.71l-13.48 13.5l92.39 22.15l57.51-81.86l-62.11-55.77l0.67-0.74l62.02 55.69l3.23-4.6l0.82 0.57l-3.3 4.7l102.44 91.98l64.03-101.24l0.85 0.53l-64.12 101.38l29.39 26.38l32.86-70.24l0.91 0.42l-32.99 70.52l12.69 11.4l57.55 13.8l11.8-100.98l0.99 0.12l-11.81 101.1l27.93 6.7l22.94-49.07l0.91 0.42l-22.85 48.88l5.82 1.4l114.15-186.75l0.85 0.52l-113.98 186.47l86.67 20.78l-0.23 0.97l-86.99-20.86l-21.37 34.97l305.47 63.49l71.65-71.44l0.71 0.71l-71.19 70.97l24.93 5.18l-0.2 0.98l-25.58-5.32l-114.25 113.91l16.17 14.52l191.86 36.9zm-209.48-51.38l-193.19-173.46l-7.34 12.01l-14.13 30.22l-9.37 80.19l57.5 30.1l157.2 30.24l9.32-9.3zm-208.79-181.39l-4.56 39l11.94-19.53l6.23-13.32l-4.81-4.32l-8.8-1.83zm7.32 0.5l-6.68-6l-0.53 4.5l7.21 1.5zm-402.87-82.71l-8.84 8.86l15.32 8.02l-4.39-16.44l-2.08-0.43zm1.8-0.65l-0.24-0.91l-0.71 0.71l0.95 0.2zm-307.6 7.02l-29.22 27.91l85.62 73.07l55.01-68.36l-62.67-54.57l-48.74 21.96zm47.91-22.68l-12.64-11.01l-33.1 31.62l45.74-20.61zm-343.48 60.1l-15.69 58.69l33.89 27.75l13.56-6.11l55.02-55.53l-7.31-9.52l-79.47-15.29zm78.55 14.09l-61.05-79.57l-17.24 64.51l78.3 15.06zm-167.88 316.16l-30.22 28.86l18.32 15.63l11.89-44.49zm-17.53 69.44l39.15 4.94l-32.95-28.11l-6.19 23.16zm6.48-24.23l34.48 29.41l25.08 3.17l79.54-132.43l-27.76-41.15l-98.89 94.47l-12.44 46.54zm35.86 30.59l16.45 14.03l6.67-11.11l-23.13-2.92zm433.28 53.72l24.74-35.21l-60.89-79.36l-57.02-46.69l-12.79-3.25l-69.66 69.76l55.13 79.53l120.49 15.22zm-119.72-14.11l64.39 92.88l54.68-77.84l-119.07-15.04zm244.27 29.85l44.43 5.61l42.62-102.81l-3.11-3.11l-98.14-24.95l2.19 115.42l12.01 9.84zm-11.99-8.52l0.13 7.03l9.99 1.26l-10.12-8.29zm13.44 9.71l33.45 27.39l9.13-22.01l-42.58-5.38zm458.22-70.95l-75.04-75.21l-24.42 52.23l92.71 80.74l6.75-57.76zm-6.28 62.33l4.61 1.17l-4.31-3.75l-0.3 2.58zm-87.69-458.33l-45.05 71.22l51.6 27.01l26.66-56.99l-13.44-37.13l-19.77-4.11zm19.37 3.01l-7.74-21.4l-11.06 17.49l18.8 3.91zm-846.06 68.41l-9.22 9.3l73.83 60.46l39.06-37.32l8.3-13.82l-39.38-51.33l-72.59 32.7zm71.97-33.52l-16.91-22.04l-53.09 53.58l70-31.54zm-121.31 15.97l-11.76 43.98l32.19-14.5l-20.43-29.48zm0.19-4.56l-4.93-4.04l4.34 6.26l0.59-2.22zm424.06 345.96l43.54-61.97l-147.28-37.44l29.85 38.9l73.9 60.51zm-71.23-57.03l58.1 75.72l12.55-17.87l-70.65-57.85zm245.62 27.29l26.23-63.28l-83.97-71.28l-32.84 46.74l86.72 86.84l3.85 0.98zm-2.47 0.4l1.63 1.63l0.46-1.1l-2.08-0.53zm145.95 32.58l8.33-17.81l-16.95-14.47l8.62 32.28zm-0.47 3.37l0.37 0.09l-0.1-0.37l-0.1-0.08l-0.17 0.36zm218.39-220.28l-10.12 21.65l26.59 23.86l-16.47-45.51zm0.12-2.61l3.14-6.72l-5.99-1.15l2.85 7.88zm-0.6 1.28l-3.39-9.38l-7.79-1.5l-12.82 20.98l13.58 12.19l10.42-22.29zm-3.79-10.47l-2.84-7.85l-3.99 6.53l6.83 1.31zm-255.98-48.22l-2.66-0.51l2.03 2.03l0.63-1.52zm-49.61-46.15l-22.03 31.35l36.92 7.1l-8.58-32.12l-6.32-6.33zm5.8 4.4l-2.45-9.17l-2.77 3.94l5.22 5.23zm-171.17 0.4l-39.05 39.11l45.93 39.2l-1.46-77.27l-5.41-1.04zm5.39 0.02l-0.1-5.32l-4.44 4.45l4.54 0.87zm-259.77-48.95l-65.16 62.24l83.82 109.24l81.54-101.33l-62.89-62.98l-37.31-7.18zm36.05 5.92l-20.62-20.65l-14.54 13.89l35.16 6.76zm427.84 182.34l26.87 23.4l37.29-58.96l-58.99-59.12l-18.53 44.68l13.35 50zm-13.98-48.48l-11.06 26.67l23.69 20.63l-12.63-47.31zm14.44 50.21l11.91 44.59l13.96-22.07l-25.87-22.53zm27.17 22.34l65.81 57.31l27.89-59.63l-56.45-56.58l-37.25 58.9zm-0.54 0.86l-14.37 22.72l25.99 97.34l17.85 15.23l36.44-77.89l-65.91-57.4zm-15.1 23.87l-30.14 47.65l55.52 47.39l-25.38-95.04zm-0.35-1.32l-12.53-46.92l-24.56-21.39l-34.01 82.02l40.54 34.6l30.56-48.31zm-37.88-69l-64.55-56.21l-49.27 70.13l79.81 68.11l34.01-82.03zm-33.61 83.69l-8.39 20.25l37.61 31.92l11.19-17.69l-40.4-34.48zm-8.8 21.22l-26.06 62.85l37.81 9.61l25.71-40.65l-37.47-31.81zm8-21.9l-79.98-68.26l-12.21 17.38l83.8 71.13l8.4-20.25zm-80.75-68.91l-60.2-51.38l0.54 28.48l47.45 40.28l12.21-17.38zm-60.65-22.43l-63.2-53.65l-31.24 31.29l95.83 95.96l-1.39-73.6zm1.02 0.86l1.4 73.76l12.66 12.68l32.79-46.67l-46.84-39.77zm1.42 75.2l0.54 28.45l11.51-16.38l-12.05-12.06zm-0.4 31.53l-24.87 35.4l25.67 6.52l-0.79-41.93zm-0.03-1.69l-0.58-30.85l-96.57-96.7l-98.79 98.93l21.18 27.6l148.88 37.85l25.88-36.83zm-97.86-128.26l-54.15-54.23l-85.13 100.17l40.59 52.9l98.69-98.84zm-54.86-54.94l-10.21-10.22l-81.62 101.44l6.79 8.85l85.04-100.07zm-85.08 101.66l-21.97 25.85l49.21 40.3l13.29-13.31l-40.54-52.83zm-0.62-0.81l-6.77-8.83l-23 28.58l7.66 6.27l22.12-26.02zm-30.4 20.53l-24.64 30.63l9.51 2.42l22.77-26.79l-7.64-6.25zm-25.33 31.48l-28.13 34.96l4.47 6.45l33.14-38.99l-9.48-2.41zm-28.78 35.77l-49.34 61.31l3.16 4.68l50.63-59.57l-4.45-6.42zm0.06-1.67l27.66-34.37l-62.5-15.89l34.84 50.26zm28.35-35.23l24.94-30.99l-99.29-81.31l-26.12 43.48l36.42 52.53l64.06 16.28zm-101.04-67.88l-21.98 36.6l57.49 14.61l-35.51-51.22zm-0.62-0.9l-15.69-22.63l-50.91 48.63l44.22 11.24l22.37-37.25zm-15.53-24.16l30.68-29.31l-73.81-60.44l-11.24 11.34l54.36 78.41zm0.58 0.83l15.52 22.39l25.96-43.22l-10.59-8.67l-30.89 29.51zm42-21.7l25.95-43.21l-36.34 34.71l10.38 8.5zm0.78 0.64l99.4 81.4l23.15-28.77l-83.9-109.35l-10.73 10.25l-27.91 46.47zm38.03-57.52l-1.95-2.55l-6.22 10.35l8.17-7.81zm0.73-0.69l64.57-61.68l-28.07-5.4l-38.62 64.3l2.13 2.77zm166.61 7.92l22.79-28.32l-26.32-22.34l-58.24-11.2l61.77 61.86zm23.41-29.1l11.41-14.18l-36.36-6.99l24.94 21.18zm-22.7 29.81l10.23 10.24l24.35-28.65l-11.75-9.97l-22.84 28.38zm10.94 10.95l54.21 54.28l31.18-31.23l-60.99-51.77l-24.41 28.72zm86.1 22.35l15.26-15.29l-62.23-53.11l-14.08 16.57l61.05 51.82zm0.76 0.65l62.46 53.02l-0.54-28.48l-46.66-39.82l-15.26 15.28zm61.27-62.77l15.33-15.35l-15.88-13.83l0.55 29.18zm0.03 1.39l0.12 6.49l53.73 10.33l-37.79-32.91l-16.06 16.08zm0.14 7.52l1.48 77.94l60.8 51.89l49.28-70.14l-56.34-49.07l-55.21-10.62zm112.13 58.87l23.08-32.86l-78.05-15.01l54.97 47.87zm0.76 0.66l64.37 56.06l11.43-27.57l-14.56-54.52l-37.84-7.28l-23.4 33.31zm62.05-26.9l27.95 5.38l-36.21-36.29l8.26 30.91zm0.29 1.07l14.1 52.8l18.19-43.86l-3.36-3.37l-28.92-5.56zm92.58 67.96l28.28-44.71l-86.53-16.64l-0.87 2.1l59.12 59.26zm0.72 0.73l56.35 56.48l41.37-88.42l-69.11-13.29l-28.61 45.23zm98.16-32.87l9.53-20.37l-47.22-42.36l-31.29 49.47l68.97 13.27zm1.01 0.19l40.02 7.7l-30.72-27.57l-9.29 19.87zm-0.44 0.93l-41.63 88.98l53.65 53.77l63.75-104.3l-33.88-30.39l-41.9-8.06zm76.31 37.59l12.53-20.5l-45.03-8.66l32.5 29.16zm0.23 1.55l-63.78 104.35l23.43 23.48l54.02-115.57l-13.67-12.26zm-64.32 105.23l-30.59 50.05l29.65 25.82l24.45-52.3l-23.51-23.57zm-0.73-0.73l-53.56-53.69l-27.86 59.56l50.8 44.24l30.63-50.11zm-81.87 6.81l-36.43 77.88l40.05 34.18l4.83 1.23l42.25-69.13l-50.71-44.16zm5.34 113.53l1.95 1.66l0.62-1.01l-2.57-0.65zm2.19 3.18l-10.72 17.54l39.16 33.25l8.86-18.95l-37.3-31.84zm-0.77-0.66l-3.61-3.08l-44.82-11.39l37.72 32.02l10.72-17.54zm-50.64-15.04l-0.82-0.21l18.48 69.2l21.73-35.55l-39.39-33.44zm0.47-0.91l44.83 11.4l-38.3-32.69l-8.72 18.64l0.27 1.03l1.91 1.62zm-12.54-37.57l-56.52-48.24l-11.19 17.69l77 65.37l-9.3-34.82zm-68.24-29.7l-25.46 40.26l102.21 25.98l0.37-0.78l-77.11-65.46zm-26.03 41.15l-12.07 19.08l80.12 80.23l34.29-73.3l-102.34-26.02zm-1.02-0.26l-37.64-9.57l-0.67 1.62l26.53 26.57l11.77-18.62zm-129.39-97.74l-12.19 17.36l0.83 43.57l96.78 24.6l-85.41-85.53zm-12.35 61.71l-26.3-6.69l-43.8 62.34l72.28 59.18l-2.18-114.84zm-176.19-44.79l-24.04-6.11l52.06 42.63l-28.02-36.52zm-0.98-1.28l-20.33-26.49l-13.13 13.15l8.57 7.02l24.88 6.33zm-34.17-12.63l-3.14 3.15l10.14 2.58l-6.99-5.73zm-0.78-0.64l-49.15-40.25l-22.46 26.43l68.12 17.32l3.49-3.5zm-72.33-12.97l-33.63 39.57l32.54 46.93l69.11-69.21l-68.02-17.29zm-34.3 40.36l-50.64 59.58l28.39 42.1l54.73-54.81l-32.49-46.86zm-22.4 103.24l-8.16 8.17l14.95 1.89l-6.79-10.06zm-0.57-0.84l-28.34-42.03l-37.16 43.73l56.66 7.16l8.85-8.86zm-28.93-42.89l-3.14-4.66l-39.06 48.54l4.43 0.56l37.77-44.44zm-3.07-6.34l49.33-61.3l-35.66-51.45l-58.89-14.97l-19.27 32.08l64.5 95.64zm-46.25-127.98l-44.54-11.32l-1.93 1.84l27.59 40.91l18.87-31.42zm-45.68-11.61l-2.68-0.68l1.33 1.97l1.35-1.29zm0.85-0.81l51.48-49.17l-54.34-78.39l-51.64 52.12l50.14 74.34l4.37 1.11zm-3.45-128.4l-5.88-8.48l-33.1 14.91l-12.05 45.06l51.03-51.5zm-5.53-9.73l12.83-5.78l-33.15-27.15l-0.7 2.6l21.02 30.33zm0.58 0.84l5.67 8.17l11.04-11.14l-3.59-2.94l-13.11 5.91zm17.41-3.68l7.45-7.52l-10.73 4.83l3.28 2.69zm122.52 9.03l38.23-63.65l-34.17-6.57l-43.06 19.4l39 50.83zm38.78-64.57l17.54-29.21l-50.68 22.83l33.14 6.37zm1.05 0.2l28.41 5.46l15.04-14.36l-22.49-22.52l-2.87 1.29l-18.09 30.13zm20.21-32.17l-0.55-0.55l-0.66 1.09l1.21-0.54zm0.97-0.44l23.96-10.79l-12.63-10.72l-12.32 20.52l0.99 1zm0.76 0.76l22.24 22.27l19.2-18.34l-17.39-14.76l-24.05 10.83zm22.94 22.97l21.65 21.68l57.95 11.15l-60.34-51.22l-19.26 18.4zm81.6 33.21l38.62 7.43l1.55-1.92l-85.72-73.15l-16.06 15.35l61.61 52.3zm39.73 7.64l3.79 0.73l-2.6-2.22l-1.2 1.49zm-0.71 0.88l-11.76 14.62l11.77 9.99l14.09-16.57l-8.05-6.87l-6.04-1.16zm14.74 7.27l3.24-3.81l-9.94-1.91l6.71 5.72zm0.76 0.65l62.29 53.16l38.63-38.69l-97.32-18.72l-3.61 4.24zm101.77 13.62l5.6-5.61l-0.59-31.05l-50.11-43.64l-52.32 61.56l97.42 18.74zm4.98-38.01l-1.88-99.02l-47.57 55.97l49.44 43.06zm1.02 0.89l16.62 14.47l62.12-62.21l-68.02-68.18l-12.63 14.86l1.91 101.06zm17.37 15.13l39.04 34l80.18 15.42l22.39-31.86l-79.53-79.72l-62.07 62.16zm142.19 16.73l3.15-4.48l-27.98-104.76l-16.41-8.59l-38.18 38.23l79.41 79.6zm3.9-5.55l45.54-64.82l-73.06-38.24l27.52 103.06zm0.34 1.26l3.11 11.66l38.47 38.56l4.31 0.83l39.78-95.94l-39.58-20.72l-46.09 65.61zm86.05-45.82l2.18-5.26l-32.11-28.81l-9.45 13.45l39.38 20.61zm0.89 0.47l18.41 9.64l-16.33-14.65l-2.08 5.02zm-0.38 0.93l-39.66 95.66l86.71 16.68l31.59-49.94l-56.82-50.98l-21.81-11.42zm79.18 61.55l9.55-15.1l-63.32-33.15l53.77 48.24zm0.75 0.68l47.12 42.27l14.28-30.52l-51.71-27.07l-9.68 15.31zm89.08-47.42l14.04-30.01l-26.93-5.6l12.89 35.61zm-0.12 2.61l-26.26 56.12l57.44 30.07l-31.19-86.19zm-26.68 57.03l-14.39 30.75l32.19 28.88l47.03 9.05l4.61-7.54l-11.07-30.59l-58.37-30.56zm70.11 60.05l10.81-17.69l-21.24-11.12l10.42 28.81zm0.44 1.2l3.31 9.16l6.82 1.31l11.08-23.69l-9.95-5.21l-11.26 18.43zm21.64-14.13l31.87-68.18l0.76-6.47l-42.48 69.5l9.85 5.16zm0.89 0.46l21.64 11.33l8.98-76.83l-30.62 65.5zm20.41 30.44l56.27 10.82l-54.22-28.38l-2.05 17.56zm1.1-18.05l-21.94-11.48l-10.95 23.42l30.8 5.92l2.09-17.86zm-33.33 12.87l-3.67 7.86l17.44 48.21l10.41 9.34l6.94-59.42l-31.12-5.99zm14.49 58.05l7.97 22.04l1.57-13.47l-9.55-8.57zm-7.74 165.12l32.69 32.76l33.5-33.4l-49.98-138.12l-16.22 138.76zm15.45-140.86l-9.29-25.67l-27.75-24.9l-54.05 115.62l74.74 74.91l16.36-139.96zm-116.4 119.19l-25.31 54.14l117.95 29.98l0.37-3.13l-93.01-81zm-0.78-0.68l-29.74-25.9l-42 68.72l46.24 11.75l25.51-54.57zm-72.29 43.71l-0.86 1.41l37.21 31.76l10-21.39l-46.35-11.78zm27.85 53.73l48.12 40.85l36.14 4.57l-75.41-64.36l-8.86 18.94zm-0.44 0.94l-14.91 31.89l61.65 7.79l-46.74-39.68zm-0.79-0.67l-39.25-33.32l-22.14 36.23l6.55 24.51l39.69 5.01l15.16-32.43zm-62.12 4.09l-12.72 20.81l18.91 2.39l-6.19-23.2zm-0.36-1.33l-18.87-70.66l-1.09-0.28l-34.52 73.8l15.95 15.97l25.08 3.17l13.45-22zm-54.94 3.82l-5.72 12.22l20.5 2.59l-14.79-14.81zm-0.75-0.75l-80.22-80.32l-49.07 77.59l123.29 15.57l6.01-12.84zm-80.94-81.05l-26.4-26.43l-42.36 102.17l19.31 2.44l49.45-78.18zm-127.22 60.64l-72.88-59.68l-12.69 18.06l32.73 42.65l52.99 6.69l-0.15-7.73zm-86.17-40.76l-24.25 34.52l56.19 7.1l-31.93-41.62zm-201.71-59.65l-54.74 54.82l7.39 10.95l101.87 12.87l-54.52-78.64zm-47.93 66.71l-16.59-2.09l-55.96 56.04l143.32 51l-70.78-104.94zm-17.84-2.25l-56.54-7.14l-40.9 48.13l41.7 14.84l55.74-55.82zm-57.73-7.29l-4.4-0.56l-38.41 47.73l2.08 0.74l40.72-47.92zm34.81-50.88l-64.41-95.51l-79.07 131.65l103.85 13.12l39.64-49.26zm-93.35-138.41l-2.05-3.04l-65.53-16.66l-30.25 113.15l97.83-93.45zm-53.48-76.33l-46.84 47.28l32.03 8.14l14.82-55.42zm-13.85 55.66l64.43 16.38l-49.28-73.06l-15.15 56.68zm26.65-103.57l-32.15 14.48l20.25 30.02l11.9-44.51zm0.33-1.25l12.19-45.59l-6.82-9.83l-78.29-64.11l-29.65 31.34l69.52 103.08l33.05-14.89zm6.11-56.1l7.29 5.97l15.56-58.19l-68.13-13.1l45.28 65.32zm111.32-27.94l6.04-6.1l-12.58-2.42l6.54 8.52zm0.61 0.8l17.14 22.34l41.98-18.91l-52.5-10.1l-6.61 6.67zm60.7 2.71l53.29-24.01l1.53-2.54l-46.13-46.19l-61.93 62.5l53.24 10.24zm55.35-27.43l12.28-20.45l-45.39-38.53l-12.84 12.96l45.95 46.02zm12.8-21.31l11.6-19.31l-41.01-35l-15.79 15.94l45.21 38.38zm0.77 0.66l13.12 11.13l22.35-10.07l-23.87-20.37l-11.59 19.3zm13.96 11.85l17.11 14.52l16.07-15.35l-10.83-9.24l-22.34 10.07zm33.9-1.52l27.24-26.02l-37.79 17.02l10.55 9zm87.14 74.37l3.96 3.38l12.23 2.35l52.69-62l-13.88-12.08l-55 68.36zm69.53-57.03l48.29-56.82l-0.41-21.43l-7.33-1.52l-54.45 67.67l13.9 12.1zm47.87-79.27l-0.12-6.26l-1.41-1.42l-5.07 6.31l6.61 1.37zm1 0.21l6.73 1.4l-6.83-6.85l0.1 5.45zm0.02 1.03l0.38 20.07l11.95-14.06l-4.34-4.35l-7.99-1.66zm12.98 5.24l1.84-2.16l-5.04-1.05l3.2 3.21zm0.71 0.71l68.08 68.24l37.95-38.01l-35.79-18.73l-68-14.13l-2.24 2.64zm106.77 29.49l8.6-8.61l-41.56-8.64l32.95 17.25zm17.45 9.13l73.99 38.73l9.6-13.66l-34.25-30.73l-53.84-11.19l4.5 16.84zm84.16 24.25l13.89-19.78l-46.77-9.72l32.88 29.5zm0.75 0.67l31.94 28.65l17.25-41.61l-34.98-7.27l-14.21 20.23zm32.73 29.36l19.52 17.51l66.88 35.01l44.89-70.98l-113.83-23.66l-17.46 42.11zm131.86-19.36l11.68-18.46l-9.45-26.11l-97.86-23.46l-18.38 44.34l114.01 23.7zm12.35-19.53l12.42-19.63l-21.38-5.13l8.96 24.76zm0.43 1.19l8.22 22.7l27.76 5.77l18.32-39.16l-41.28-9.9l-13.02 20.58zm21.98 60.75l31.9 88.16l22.26 11.65l43.65-71.41l4.82-41.24l-88.06-18.3l-14.57 31.14zm98.12 34.38l9.07-19.39l-8.41 13.75l-0.66 5.64zm17.57-35.22l2.77-4.53l-0.46-0.41l-2.31 4.95zm1.98-6.59l0.97-2.08l-4.27-0.89l3.3 2.97zm0.78 0.7l0.55 0.49l1.73-2.83l-1.08-0.22l-1.2 2.57zm183.78 185.65l-153.27-29.48l95.07 49.76l-0.46 0.89l-98.01-51.31l-59.46-11.44l-7.02 60.05l107.7 96.63l115.45-115.11zm-116.16 115.81l-107.14-96.13l-1.72 14.76l50.5 139.56l58.36-58.19zm-58.77 60.01l-33.17 33.07l52.91 53.03l12.58 3.2l-32.31-89.3zm37.65 104.07l-4.93-13.63l-11.61-2.95l16.54 16.58zm-19.81-18.44l-51.72-51.84l-30.92 30.83l82.65 21.01zm-83.77-21.3l31.35-31.25l-32.13-32.2l-6.74 57.65l6.31 5.5l1.2 0.31zm-1.11 1.1l-0.57-0.5l-6.4-1.63l-1.2 10.27l8.17-8.15zm-7.95-2.37l-118.26-30.06l-10.2 21.81l76.77 65.52l4.06 0.51l46.26-46.13l1.36-11.66zm-10.77 92.19l9.22-78.93l-44.82 44.69l34.92 4.41l-0.13 0.99l-35.69-4.51l-1.19 1.19l37.68 32.16zm-37.75-33.51l-1.77-0.22l1.08 0.92l0.7-0.7zm-1.41 1.4l-2.17-1.86l-36.13-4.56l24.17 20.52l14.14-14.1zm-81.93 81.68l67.08-66.88l-25.27-21.45l-63.49-8.02l-23.77 50.84l45.45 45.51zm-46.69-45.22l0.04-0.08l-0.08-0.08l0.04 0.17zm-0.56-2.1l1.05 1.05l23.47-50.22l-38.97-4.92l14.44 54.09zm-1.41-1.41l-14.1-52.81l-19.76-2.5l-8.11 13.27l41.98 42.03zm-34.95-55.44l-23.36-2.95l15.61 15.63l7.75-12.68zm-66.4 108.63l58.11-95.07l-16.69-16.71l-22.1-2.79l-44.11 94.29l24.78 20.29zm-25.58-20.95l43.86-93.76l-123.43-15.59l-18.42 29.12l97.98 80.24zm-80.66-109.49l-19.12-2.42l-9.35 22.54l10.37 8.49l18.1-28.62zm-18.64 29.47l-10.23-8.37l-29.54 71.25l39.77-62.87zm-54.99 86.94l12.08-19.1l31.87-76.88l-34.92-28.59l-11.42-1.44l2.39 126.01zm-0.4 31.8l-0.54-28.45l-14.59 23.07l15.13 5.38zm-16.09-5.73l15.52-24.54l-2.42-127.67l-52.15-6.59l49.17 64.08l-0.79 0.61l-49.77-64.86l-57.69-7.29l-55.2 78.57l12.47 17.99l-0.82 0.57l-12.26-17.69l-18.01 25.63l171.95 61.19zm-154.56-87.69l-65.11-93.92l-101.9-12.87l71.05 105.34l77.58 27.61l18.38-26.16zm-82.8 117.85l63.82-90.85l-76.04-27.06l0.71 1.05l-0.83 0.56l-1.47-2.18l-145.04-51.61l-18.66 18.69l177.51 151.4zm-178.27-152.05l18.38-18.41l-41.61-14.81l-6.6 7.77l29.83 25.44zm-30.59-26.09l6.36-7.48l-2.05-0.73l-5.67 7.04l1.36 1.16zm-2.13-1.81l5.43-6.75l-22.9-8.15l17.47 14.9zm-19.61-16.72l25.7 9.15l38.24-47.53l-103.67-13.1l-6.99 11.63l46.72 39.84zm-2.64-0.94l-44.59-38.03l-10.97 18.26l55.56 19.77zm-56.52-20.11l11.16-18.58l-17.74-15.13l-40.79-5.15l-5.37 20.09l52.75 18.77zm-143.23-50.97l37.28 13.26l7.91-7.56l-45.19-5.71zm38.33 13.64l51.21 18.22l5.32-19.88l-48.39-6.11l-8.13 7.77zm9.07-8.66l47.72 6.03l6.35-23.75l-18.76-16l-35.31 33.73zm-232.97-263.86l83.5 71.22l38.12-40.3l-121.62-30.92zm84.26 71.87l183.98 156.92l31.48-30.07l30.67-114.73l-32.59-8.28l-92.8 93.65l-0.71-0.7l92.38-93.24l-173.95-44.22l-38.47 40.67zm39.25-41.5l173.98 44.23l48.49-48.94l0.05-0.17l-20.83-30.89l-117.34 52.86l-0.41-0.91l117.18-52.79l-69.3-102.75l-131.82 139.36zm148.78-182.41l-51.47-9.9l34.64 51.36l29.45-31.13l-12.61-10.33zm2.06 0.4l11.24 9.2l5.63-5.96l-16.87-3.25zm12.01 9.84l75.53 61.85l-43.87-63.29l-25.64-4.93l-6.02 6.37zm18.84-19.92l-12.01 12.69l24.01 4.62l-12-17.31zm0.7-0.74l12.7 18.32l69.2 13.31l17.46-65.32l-28.03-36.53l0.79-0.61l27.56 35.92l9.56-35.75l0.97 0.26l-9.76 36.49l62.2 81.07l14.35 2.76l62.4-62.98l-57.04-57.11l0.71-0.71l57.03 57.11l12.78-12.9l-115.34-97.91l-16.5-3.43l-121.07 128zm121.88-128.85l14.1 2.93l-9.36-7.94l-4.74 5.01zm21.13-22.34l-15.7 16.6l10.71 9.09l46.38 9.64l-41.4-35.33zm42.98 36.68l-46.37-9.64l114 96.77l15.79-15.94l-83.42-71.2zm2.04 0.42l82.09 70.06l43.55-43.95l-125.64-26.11zm126.8 26.35l-43.95 44.36l40.83 34.85l42.64-70.99l-39.52-8.21zm40.55 8.43l-42.9 71.43l24.36 20.79l40.8-18.38l35.08-33.51l-24.3-21.17l0.66-0.75l24.37 21.23l23.7-22.64l-81.76-16.99zm82.95 17.24l-24.13 23.05l12.92 11.25l55.64-25.07l-44.43-9.23zm-10.38 35.03l62.29 54.25l54.11-67.24l-59.92-12.45l-56.48 25.45zm98.78-44.5l-40.74 18.36l59.07 12.28l5.46-6.79l-23.79-23.84zm25.13 23.77l0.76 0.76l-0.03-1.66l-0.72 0.9zm1.42-17.06l0.25 13.39l7.5-9.33l-7.76-4.06zm8.66 4.53l-8.38 10.41l0.07 3.89l8.64 8.66l7.06 1.47l12.09-14.23l-19.49-10.2zm8.52 24.67l64.03 13.31l-52.14-27.29l-11.89 13.99zm102.35-24.75l-46.14-41.39l-43.66 51.37l55.05 28.82l45.64 9.49l1.58-1.58l-12.47-46.7zm1.36 1.22l11.93 44.66l17.89-17.91l-29.81-26.75zm12.23 45.78l0.52 1.95l52.64 10.94l-34.83-31.25l-18.33 18.36zm41.41-41.47l-22.37 22.4l36.07 32.37l48.88 10.16l30.01-42.72l-92.6-22.2zm63.65 65.15l34.74 7.22l18.39-44.37l-23.14-5.55l-29.99 42.69zm87.83-125.01l-57.21 81.44l22.91 5.49l15.31-36.94l0.92 0.38l-15.25 36.79l97.06 23.27l-21.74-60.08l0.94-0.34l21.96 60.7l22.35 5.36l15.22-24.06l-102.48-92.01zm103.23 92.69l-14.95 23.63l41.15 9.87l3.29-7.02l-29.48-26.47zm30.26 27.17l-3.07 6.56l14.16 3.4l-11.09-9.96zm12.66 11.36l-16.16-3.87l-18.3 39.13l87.74 18.24l0.6-5.11l-53.88-48.38zm2.04 0.49l51.98 46.67l3.89-33.27l-55.87-13.39zm56.85 13.63l-3.96 33.86l8.49 7.62l6.19 1.29l16.9-36.14l-27.61-6.62zm34.31 8.23l-5.71-1.37l-16.88 36.11l1.2 0.25l21.39-34.99zm284.27 99.54l-305.18-63.43l-2.01 3.3l193.37 173.62l113.83-113.49zm-113.79 114.86l-8.88 8.86l23.86 4.59l-14.97-13.44z" />
	<path id="midlineopac" class="s2" d="m-149 295h1390v4h-1390v-4z" />
	<path id="semicerc" class="s3" d="m370.4 402.35c-0.13 9.51-0.33 15.64-0.7 15.63c-65.98-2.54-124.71-56.83-124.71-123.43c0-68.22 55.3-123.53 123.53-123.53c66.88 0 123.48 60.14 123.41 126.54c0 1.65-4.18 1.18-8.28 1.04c-4.06-0.14-8.04 0.05-7.81-1.01c0.03-0.13 0.03-0.27 0.03-0.43c0.07-57.76-49.18-110.09-107.36-110.09c-59.35 0-107.47 48.12-107.47 107.47c0 57.94 51.09 105.18 108.5 107.39" />
	<path id="midline" class="s3" d="m475.45 292.55h545.68v6.08h-545.68v-6.08z" />
	<path id="romb1" class="s4" d="m545.75 251.68l43.53 43.53l-43.53 43.53l-43.53-43.53l43.53-43.53z" />
	<path id="lineup1" class="s3" d="m567.71 263.69l4.6-4.52l34.32 34.9l-4.6 4.52l-34.32-34.9z" />
	<path id="lineup2" class="s3" d="m602.03 291.84l4.6 4.52l-34.32 34.9l-4.6-4.52l34.32-34.9z" />
	<path id="linedown1" class="s3" d="m584.43 263.69l4.6-4.52l34.32 34.9l-4.6 4.52l-34.32-34.9z" />
	<path id="linedown2" class="s3" d="m618.75 291.84l4.6 4.52l-34.32 34.9l-4.6-4.52l34.32-34.9z" />
	<path id="cerc1" class="s4" d="m664.31 260.63c19.1 0 34.58 15.48 34.58 34.58c0 19.1-15.48 34.58-34.58 34.58c-19.1 0-34.58-15.48-34.58-34.58c0-19.1 15.48-34.58 34.58-34.58z" />
	<path id="semicerc2" class="s3" d="m664.22 340.44c-0.59 0.02-0.08-44.46-0.67-44.46c-43.79 0.05-44.45 1.21-44.45 0c-0.03-24.51 20.87-46.72 45.57-46.72c25.19 0 45.61 20.42 45.61 45.61c0 24.59-21.68 44.64-46.05 45.58zm0.44-85.26c-21.48 0-39.67 19.32-39.64 40.65c0 1.05 0.58 0.04 38.67 0c0.52 0 0.07 38.7 0.59 38.68c21.19-0.82 40.06-18.26 40.06-39.65c0-21.91-17.77-39.68-39.68-39.68z" />
	<path id="semicerc3" class="s3" d="m768.65 356.04c-0.78 0.03-0.1-58.25-0.88-58.25c-57.37 0.06-58.23 1.59-58.23 0c-0.04-32.11 27.34-61.2 59.69-61.2c33 0 59.75 26.75 59.75 59.75c0 32.21-28.41 58.48-60.32 59.7zm0.58-111.69c-28.14 0-51.96 25.31-51.93 53.25c0 1.38 0.75 0.06 50.66 0c0.68 0 0.09 50.7 0.77 50.68c27.77-1.07 52.48-23.92 52.48-51.94c0-28.71-23.27-51.98-51.98-51.98z" />
	<path id="romb2" class="s5" d="m852.79 267.81l27.41 27.41l-27.41 27.41l-27.41-27.41l27.41-27.41z" />
	<path id="recttipdown" class="s3" d="m882.05 304.71h133v2.28h-133v-2.28z" />
	<path id="rectipup" class="s3" d="m882.05 284.19h133v2.28h-133v-2.28z" />
	<path id="recttipver" class="s3" d="m955.77 264.43h7.6v64.6h-7.6v-64.6z" />
	<path id="helip" class="s3" d="m769.19 272.79c13.64 0 24.7 11.06 24.7 24.7c0 13.64-11.06 24.7-24.7 24.7c-13.64 0-24.7-11.06-24.7-24.7c0-13.64 11.06-24.7 24.7-24.7z" />
	<path id="arrow" class="s3" d="m1043.16 295.22c0 0.33-0.12 0.62-0.36 0.86l-20.8 20.59c-0.24 0.24-0.45 0.27-0.62 0.08c-0.17-0.19-0.26-0.52-0.26-1v-41.06c0-0.48 0.09-0.82 0.26-1c0.17-0.19 0.38-0.16 0.62 0.08l20.8 20.59c0.24 0.24 0.36 0.53 0.36 0.86z" />
	<path id="cipher" class="s6" d="m181.47 231.3l63.99 63.99l-63.99 63.99l-63.99-63.99l63.99-63.99z" />
</svg>